<svg fill="none" xmlns="http://www.w3.org/2000/svg" viewBox="0 0 50 50"><mask id="a" fill="#fff"><path fill-rule="evenodd" clip-rule="evenodd" d="M25.01 23.952c5.41 0 9.795-4.386 9.795-9.796 0-5.41-4.386-9.795-9.796-9.795-5.41 0-9.795 4.386-9.795 9.796 0 5.41 4.385 9.795 9.795 9.795Zm-.003 21.7c-9.781 0-17.71-2.43-17.71-7.459s7.929-10.753 17.71-10.753 17.711 5.724 17.711 10.753c0 5.03-7.93 7.459-17.711 7.459Z"/></mask><path d="M25.007 27.44v4.585-4.585Zm5.213-13.284a5.21 5.21 0 0 1-5.21 5.211v9.17c7.941 0 14.38-6.438 14.38-14.38h-9.17Zm-5.21-5.21a5.21 5.21 0 0 1 5.21 5.21h9.17c0-7.942-6.439-14.38-14.38-14.38v9.17Zm-5.211 5.21a5.21 5.21 0 0 1 5.21-5.21v-9.17c-7.942 0-14.38 6.438-14.38 14.38h9.17Zm5.21 5.211a5.21 5.21 0 0 1-5.21-5.21h-9.17c0 7.942 6.438 14.38 14.38 14.38v-9.17ZM2.712 38.193c0 5.47 4.404 8.46 8.122 9.893 3.94 1.52 8.997 2.15 14.173 2.15v-9.169c-4.605 0-8.404-.584-10.873-1.536-1.23-.474-1.863-.939-2.135-1.223-.12-.126-.14-.183-.131-.164.012.028.014.058.014.05h-9.17Zm22.295-15.338c-5.75 0-11.041 1.674-15.002 4.219-3.706 2.382-7.293 6.278-7.293 11.12h9.17c0-.189.378-1.669 3.08-3.406 2.45-1.574 6.014-2.763 10.045-2.763v-9.17Zm22.296 15.338c0-4.841-3.587-8.737-7.294-11.12-3.96-2.544-9.252-4.218-15.002-4.218v9.17c4.03 0 7.595 1.189 10.045 2.763 2.703 1.737 3.081 3.218 3.081 3.405h9.17ZM25.007 50.237c5.176 0 10.232-.63 14.173-2.15 3.719-1.435 8.123-4.424 8.123-9.894h-9.17c0 .009.002-.02.014-.05.009-.018-.01.04-.13.165-.274.284-.907.749-2.136 1.223-2.47.952-6.269 1.536-10.874 1.536v9.17Z" fill="#848DA0" mask="url(#a)"/></svg>