<svg fill="none" xmlns="http://www.w3.org/2000/svg" viewBox="0 0 50 50"><path d="M9.268 13.549H34.73v4.39H9.268v-4.39ZM9.268 26.72H34.73v4.39H9.268v-4.39Z" fill="#848DA0"/><path d="M5.286 5.384H38.9c.091 0 .16.034.206.08.046.046.08.115.08.206v7.718c0 .091-.034.16-.08.206a.283.283 0 0 1-.206.08H5.285a.283.283 0 0 1-.206-.08.283.283 0 0 1-.08-.206V5.67c0-.091.034-.16.08-.206a.283.283 0 0 1 .206-.08Z" stroke="#848DA0" stroke-width="2"/><path d="M11.717 9.529c0 .712-.575 1.286-1.286 1.286A1.284 1.284 0 0 1 9.145 9.53c0-.712.574-1.286 1.286-1.286.711 0 1.286.574 1.286 1.286ZM16.861 9.529c0 .712-.574 1.286-1.286 1.286A1.284 1.284 0 0 1 14.29 9.53c0-.712.575-1.286 1.286-1.286.712 0 1.286.574 1.286 1.286Z" fill="#848DA0"/><path d="M5.286 18.246H38.9c.091 0 .16.034.206.08.046.046.08.114.08.206v7.717c0 .092-.034.16-.08.207a.283.283 0 0 1-.206.08H5.285a.283.283 0 0 1-.206-.08.283.283 0 0 1-.08-.207v-7.717c0-.092.034-.16.08-.206a.283.283 0 0 1 .206-.08Z" stroke="#848DA0" stroke-width="2"/><path d="M11.717 22.39c0 .712-.575 1.287-1.286 1.287a1.284 1.284 0 0 1-1.286-1.286c0-.712.574-1.286 1.286-1.286.711 0 1.286.574 1.286 1.286ZM16.861 22.39c0 .712-.574 1.287-1.286 1.287a1.284 1.284 0 0 1-1.286-1.286c0-.712.575-1.286 1.286-1.286.712 0 1.286.574 1.286 1.286Z" fill="#848DA0"/><path d="M5.286 31.108H38.9c.091 0 .16.034.206.08.046.046.08.114.08.206v7.717c0 .092-.034.16-.08.206a.283.283 0 0 1-.206.08H5.285a.283.283 0 0 1-.206-.08.283.283 0 0 1-.08-.206v-7.717c0-.092.034-.16.08-.206a.283.283 0 0 1 .206-.08Z" stroke="#848DA0" stroke-width="2"/><path d="M11.717 35.253c0 .711-.575 1.286-1.286 1.286a1.284 1.284 0 0 1-1.286-1.286c0-.712.574-1.286 1.286-1.286.711 0 1.286.574 1.286 1.286ZM16.861 35.253c0 .711-.574 1.286-1.286 1.286a1.284 1.284 0 0 1-1.286-1.286c0-.712.575-1.286 1.286-1.286.712 0 1.286.574 1.286 1.286Z" fill="#848DA0"/><path d="M45.13 36.305a7.836 7.836 0 1 1-15.673 0 7.836 7.836 0 0 1 15.673 0Z" fill="#848DA0" stroke="#fff" stroke-width="1.742"/><path d="M38.164 32.645a.871.871 0 1 0-1.742 0h1.742Zm1.785 7.266a.871.871 0 0 0 1.081-1.366l-1.081 1.366Zm-3.527-7.266v3.49h1.742v-3.49h-1.742Zm.77 5.083 2.757 2.183 1.081-1.366-2.756-2.183-1.082 1.366Zm-.77-1.593c0 .62.284 1.207.77 1.593l1.082-1.366a.29.29 0 0 1-.11-.227h-1.742Z" fill="#fff"/></svg>