<svg fill="none" xmlns="http://www.w3.org/2000/svg" viewBox="0 0 50 50"><path clip-rule="evenodd" d="M18.7 44.463c.02.512-.139 1.004-.35 1.406-.45.806-1.324 1.253-2.315 1.274l-1.81-.025c-.964-.01-1.87-.529-2.34-1.323a2.646 2.646 0 0 1-.366-1.376c.019-.398-.113-.772-.325-1.13-.656-1.108-2.137-1.512-3.269-.92-1.29.727-2.91.267-3.672-1.02l-.901-1.522c-.769-1.299-.368-2.897.923-3.624a2.359 2.359 0 0 0 .825-3.21c-.219-.37-.485-.667-.841-.84a2.77 2.77 0 0 1-1.04-.996 2.64 2.64 0 0 1-.01-2.65l.89-1.53c.484-.826 1.346-1.341 2.288-1.32.442-.01.978.136 1.417.397.342.225.72.28 1.135.3 1.297.016 2.367-1.034 2.377-2.308-.016-1.468 1.198-2.63 2.687-2.617l1.768.003c1.496.024 2.71 1.19 2.722 2.676.037 1.277 1.145 2.34 2.437 2.373.42.002.817-.087 1.14-.3.425-.268.913-.38 1.376-.356a2.86 2.86 0 0 1 2.34 1.323l.934 1.578c.49.828.463 1.844.012 2.65a2.28 2.28 0 0 1-1.011.972c-.35.167-.628.458-.836.814-.617 1.108-.227 2.575.895 3.256 1.307.741 1.742 2.362 1.008 3.625l-.881 1.496c-.727 1.275-2.365 1.72-3.668.961-1.135-.629-2.603-.25-3.23.865-.198.35-.337.696-.308 1.098Zm-5.557-13.359c-1.763.993-2.325 3.204-1.285 4.961a3.714 3.714 0 0 0 5.028 1.362c1.763-.992 2.356-3.177 1.316-4.934-1.04-1.757-3.296-2.381-5.059-1.389ZM40.19 22.053c.015.426-.115.836-.289 1.171-.371.672-1.09 1.044-1.906 1.062l-1.491-.02a2.28 2.28 0 0 1-1.927-1.104 2.226 2.226 0 0 1-.301-1.146c.015-.332-.093-.644-.268-.942-.54-.923-1.76-1.26-2.692-.767-1.063.606-2.397.223-3.024-.85l-.743-1.268c-.632-1.082-.302-2.414.761-3.02.905-.54 1.22-1.752.68-2.675-.18-.308-.4-.556-.693-.7a2.292 2.292 0 0 1-.856-.83 2.223 2.223 0 0 1-.01-2.208l.733-1.276c.4-.687 1.11-1.117 1.885-1.098.365-.01.806.112 1.167.33.282.187.593.233.935.25a1.946 1.946 0 0 0 1.957-1.924c-.013-1.223.987-2.19 2.213-2.18l1.457.002c1.231.02 2.232.992 2.24 2.23.032 1.064.944 1.95 2.008 1.977.346.002.673-.072.94-.249.349-.224.75-.316 1.132-.297.775.018 1.51.432 1.927 1.102l.77 1.315c.403.69.38 1.537.009 2.208-.18.326-.456.633-.833.81-.288.14-.516.382-.688.679-.508.923-.187 2.146.737 2.713a2.21 2.21 0 0 1 .83 3.021l-.726 1.247a2.18 2.18 0 0 1-3.02.801c-.935-.524-2.144-.208-2.66.72-.163.292-.277.58-.254.916ZM35.613 10.92c-1.451.827-1.914 2.67-1.058 4.135.857 1.464 2.689 1.962 4.14 1.134 1.452-.827 1.94-2.647 1.084-4.111-.856-1.464-2.714-1.985-4.166-1.158Z" stroke="#848DA0" stroke-width="3"/></svg>