<svg viewBox="-64 0 512 512.001" xmlns="http://www.w3.org/2000/svg"><path fill="#848DA0" d="M126.2 343.973c0-5.036 4.3-8.078 11.855-8.078 8.812 0 11.226 3.984 14.476 3.984 3.778 0 5.457-4.824 5.457-7.238 0-6.926-13.746-8.395-19.933-8.395-12.067 0-25.496 5.352-25.496 20.984 0 24.868 33.68 20.04 33.68 35.778 0 6.297-5.458 9.129-11.75 9.129-10.704 0-13.536-8.078-17.837-8.078-3.254 0-5.98 4.406-5.98 7.343 0 6.086 10.492 13.008 24.234 13.008 14.48 0 24.973-7.762 24.973-22.765 0-27.172-33.68-22.665-33.68-35.672zM187.68 343.973c0-5.036 4.3-8.078 11.855-8.078 8.813 0 11.227 3.984 14.477 3.984 3.777 0 5.457-4.824 5.457-7.238 0-6.926-13.746-8.395-19.934-8.395-12.066 0-25.496 5.352-25.496 20.984 0 24.868 33.68 20.04 33.68 35.778 0 6.297-5.457 9.129-11.75 9.129-10.703 0-13.535-8.078-17.836-8.078-3.254 0-5.98 4.406-5.98 7.343 0 6.086 10.492 13.008 24.234 13.008 14.48 0 24.972-7.762 24.972-22.765 0-27.172-33.68-22.665-33.68-35.672zM276.648 389.508h-25.601v-60.54c0-2.937-3.461-4.195-6.82-4.195-3.461 0-6.82 1.258-6.82 4.196v68.195c0 2.836 2.937 4.305 5.98 4.305h33.261c2.727 0 4.09-3.043 4.09-5.98 0-3.044-1.363-5.981-4.09-5.981zm0 0"/><path fill="#848DA0" d="M360.227 223.406h-10.125v-65.469C350.102 70.853 279.254 0 192.164 0 105.078 0 34.227 70.852 34.227 157.938v65.468H24.105C10.812 223.406 0 234.22 0 247.508v240.39C0 501.188 10.813 512 24.105 512h336.122c13.289 0 24.105-10.813 24.105-24.102v-240.39c0-13.29-10.816-24.102-24.105-24.102zm9.105 130.77h-31.355v-28.168h31.355zm-31.355 15h31.355v28.172h-31.355zM49.227 157.938C49.227 79.12 113.347 15 192.164 15c78.816 0 142.938 64.121 142.938 142.938v65.468H306.59v-65.468c0-63.094-51.332-114.422-114.426-114.422-63.09 0-114.422 51.328-114.422 114.422v65.468H49.227zm242.363 65.468H92.742v-65.468c0-54.82 44.602-99.422 99.422-99.422 54.824 0 99.426 44.601 99.426 99.422zM15 369.176h31.352v28.172H15zm31.352-15H15v-28.168h31.352zM360.227 497H24.105c-5.02 0-9.105-4.086-9.105-9.105v-75.551h31.352v11.793c0 8.73 7.105 15.836 15.836 15.836H251.25c4.145 0 7.5-3.356 7.5-7.5 0-4.145-3.355-7.5-7.5-7.5H62.188a.837.837 0 0 1-.836-.836V304.05c0-.461.375-.836.836-.836h35.976a7.5 7.5 0 0 0 7.5-7.5 7.5 7.5 0 0 0-7.5-7.5H62.188c-8.731 0-15.836 7.105-15.836 15.836v6.957H15v-63.5c0-5.02 4.086-9.102 9.105-9.102h336.122c5.02 0 9.105 4.082 9.105 9.102v63.5h-31.355v-6.957c0-8.73-7.102-15.836-15.836-15.836H133.078a7.5 7.5 0 0 0-7.5 7.5 7.5 7.5 0 0 0 7.5 7.5h189.063c.46 0 .836.375.836.836v120.09a.836.836 0 0 1-.836.832h-35.024a7.5 7.5 0 1 0 0 15h35.024c8.734 0 15.836-7.102 15.836-15.832v-11.793h31.355v75.55c0 5.016-4.086 9.102-9.105 9.102zm0 0"/></svg>