<svg fill="none" xmlns="http://www.w3.org/2000/svg" viewBox="0 0 50 50"><path clip-rule="evenodd" d="M10.418 21.75a3 3 0 0 1 3-3h23.167a3 3 0 0 1 3 3v19a3 3 0 0 1-3 3H13.418a3 3 0 0 1-3-3v-19Z" stroke="#848DA0" stroke-width="3" stroke-linejoin="round"/><circle cx="18.752" cy="29.306" r="3.125" fill="#848DA0"/><circle cx="31.252" cy="29.306" r="3.125" fill="#848DA0"/><path d="M39.584 26.042h1.042a5.208 5.208 0 0 1 0 10.417h-1.042V26.041ZM10.418 26.042H9.376a5.208 5.208 0 0 0 0 10.417h1.042V26.041Z" stroke="#848DA0" stroke-width="3" stroke-linejoin="round"/><path d="M25 18.75v-4.167" stroke="#848DA0" stroke-width="3" stroke-linecap="round" stroke-linejoin="round"/><circle cx="25.001" cy="10.417" r="4.167" stroke="#848DA0" stroke-width="3" stroke-linejoin="round"/><path d="M22 36c-1.105 0-2.037.93-1.607 1.947a5.002 5.002 0 0 0 9.213 0C30.037 36.93 29.105 36 28 36h-6Z" fill="#848DA0"/></svg>