<svg fill="none" xmlns="http://www.w3.org/2000/svg" viewBox="0 0 50 50"><path d="M15.185 6.348a1.456 1.456 0 0 0-2.07 0 14.92 14.92 0 0 0-4.414 10.635c0 4.023 1.563 7.793 4.404 10.634.284.284.665.43 1.036.43.37 0 .752-.146 1.035-.43a1.456 1.456 0 0 0 0-2.07 12.041 12.041 0 0 1-3.545-8.564c0-3.233 1.26-6.28 3.545-8.565a1.465 1.465 0 0 0 .01-2.07ZM21.709 11.71a1.456 1.456 0 0 0-2.07 0 7.417 7.417 0 0 0-2.188 5.273c0 1.992.772 3.867 2.188 5.273.283.283.664.43 1.035.43.37 0 .752-.147 1.035-.43a1.456 1.456 0 0 0 0-2.07 4.49 4.49 0 0 1-1.328-3.203 4.49 4.49 0 0 1 1.328-3.204 1.456 1.456 0 0 0 0-2.07Z" fill="#848DA0"/><path d="M8.643 3.193a1.456 1.456 0 0 0 0-2.07 1.456 1.456 0 0 0-2.07 0C2.333 5.361 0 10.986 0 16.983c0 5.996 2.334 11.62 6.572 15.859.283.283.664.43 1.035.43.372 0 .752-.147 1.036-.43a1.456 1.456 0 0 0 0-2.07c-7.608-7.608-7.608-19.971 0-27.579Z" fill="#848DA0"/><path d="M42.514 16.982a4.906 4.906 0 1 1-9.813 0 4.906 4.906 0 0 1 9.813 0ZM29.332 31.515A4.361 4.361 0 0 1 33.3 27.88a9.888 9.888 0 0 0 8.609 0 4.363 4.363 0 0 1 3.967 3.635l2.616 15.759v.001a.451.451 0 0 1-.443.532H27.159a.456.456 0 0 1-.444-.533l2.617-15.759Z" stroke="#848DA0" stroke-width="3"/></svg>