<svg fill="none" xmlns="http://www.w3.org/2000/svg" viewBox="0 0 50 50"><path d="m43.69 7.582 1.852-.902-1.852.902c.123.251.275.8-.684 2.48-.948 1.66-2.615 3.797-5.035 6.89l-6.277 8.018-.002.002-.149.19c-.762.971-1.424 1.815-1.775 2.834-.352 1.02-.35 2.092-.35 3.326l.001.245V34.1c0 1.178-.002 1.922-.056 2.493-.05.53-.132.757-.215.91l1.813.978-1.813-.977c-.082.153-.227.347-.642.68-.448.358-1.068.769-2.052 1.416l-3.736 2.457c-.965.634-1.624 1.064-2.12 1.34-.041-.566-.045-1.352-.045-2.508V31.268c.002-1.234.003-2.306-.348-3.326-.352-1.02-1.014-1.863-1.776-2.834l-.15-.192-6.235-7.964c-2.42-3.093-4.087-5.23-5.035-6.89-.96-1.68-.807-2.229-.685-2.48.122-.25.46-.709 2.375-.989 1.891-.276 4.601-.282 8.528-.282h15.56c3.928 0 6.638.006 8.529.282 1.914.28 2.252.739 2.374.99ZM19.92 43.708Zm.788.418Z" stroke="#848DA0" stroke-width="4.119" stroke-linejoin="round"/></svg>