<svg fill="none" xmlns="http://www.w3.org/2000/svg" viewBox="0 0 50 50"><path d="M36.719 16.406c-.811 0-1.612.18-2.344.529v-6.779a5.468 5.468 0 0 0-8.078-4.805 5.468 5.468 0 0 0-10.672 1.68v2.873a5.467 5.467 0 0 0-7.813 4.94v14.843a17.188 17.188 0 0 0 34.376 0v-7.812a5.475 5.475 0 0 0-5.47-5.469Zm2.343 13.281a14.063 14.063 0 0 1-28.124 0V14.844a2.343 2.343 0 1 1 4.687 0v7.03a1.563 1.563 0 0 0 3.125 0V7.032a2.344 2.344 0 1 1 4.688 0v13.281a1.563 1.563 0 0 0 3.125 0V10.156a2.344 2.344 0 1 1 4.687 0V24.35a9.39 9.39 0 0 0-7.813 9.245 1.562 1.562 0 1 0 3.125 0 6.257 6.257 0 0 1 6.25-6.25 1.562 1.562 0 0 0 1.563-1.563v-3.906a2.344 2.344 0 1 1 4.688 0v7.812Z" fill="#848DA0"/></svg>