<svg fill="none" xmlns="http://www.w3.org/2000/svg" viewBox="0 0 50 50"><path fill-rule="evenodd" clip-rule="evenodd" d="m12.65 20.692.554-.115H36.81l.554.115a5.498 5.498 0 0 1 4.365 5.38v11.194a5.495 5.495 0 0 1-5.495 5.495H13.778a5.495 5.495 0 0 1-5.495-5.495V26.072a5.498 5.498 0 0 1 4.368-5.38Zm33.2 5.38c0-4.636-3.28-8.505-7.646-9.414v-1.555c0-6.611-5.36-11.971-11.97-11.971h-2.45c-6.611 0-11.971 5.36-11.971 11.97v1.554c-4.368.908-7.65 4.779-7.65 9.416v11.194a9.616 9.616 0 0 0 9.615 9.616h22.456a9.616 9.616 0 0 0 9.616-9.616V26.072Zm-29.916-10.97c0-.973.178-1.906.502-2.767a7.853 7.853 0 0 1 7.348-5.082h2.45a7.853 7.853 0 0 1 7.347 5.082c.325.86.502 1.793.502 2.768v1.353H15.935v-1.353Zm11.133 14.711a2.06 2.06 0 0 0-4.122 0v3.711a2.06 2.06 0 0 0 4.122 0v-3.71Z" fill="#848DA0"/></svg>