<svg xmlns="http://www.w3.org/2000/svg" viewBox="0 0 512 512" style="enable-background:new 0 0 512 512" xml:space="preserve"><path d="M456.833 0H55.167c-8.284 0-15 6.716-15 15v281.166c0 28.735 11.632 58.15 34.573 87.427 17.521 22.36 41.762 44.814 72.047 66.736 50.876 36.827 100.974 59.418 103.082 60.361a14.997 14.997 0 0 0 12.258 0c2.108-.943 52.206-23.534 103.083-60.361 30.286-21.923 54.527-44.376 72.049-66.736 22.941-29.276 34.573-58.691 34.573-87.427V15c.001-8.284-6.715-15-14.999-15zm-14.999 296.166c-.001 50.854-51.024 98.536-93.828 129.582-38.38 27.838-77.302 47.587-92.01 54.679-14.645-7.055-53.28-26.649-91.617-54.399-42.979-31.11-94.211-78.895-94.211-129.861V30h371.666v266.166z" fill="#848DA0"/><path d="M351.31 281.898c.011-.599.023-1.196.023-1.798v-64.267c0-.601-.012-1.199-.023-1.798l43.828-43.829c5.858-5.857 5.858-15.355 0-21.213-5.857-5.857-15.355-5.857-21.213 0l-30.001 30.001c-11.186-26.6-34.105-47.096-62.243-54.976l18.933-28.397c4.596-6.893 2.733-16.205-4.16-20.801-6.891-4.596-16.205-2.733-20.801 4.16l-19.654 29.479-19.652-29.479c-4.595-6.895-13.909-8.757-20.801-4.16-6.893 4.595-8.756 13.908-4.161 20.801l18.932 28.397c-28.137 7.881-51.056 28.377-62.242 54.978l-30.002-30.002c-5.857-5.857-15.355-5.857-21.213 0-5.858 5.857-5.858 15.355 0 21.213l43.83 43.829c-.011.599-.023 1.197-.023 1.798V280.1c0 .601.012 1.199.023 1.797l-43.83 43.83c-5.859 5.857-5.859 15.355-.001 21.213a14.947 14.947 0 0 0 10.606 4.393c3.838 0 7.678-1.465 10.606-4.393l30.002-30.002c14.437 34.329 48.41 58.496 87.925 58.496s73.489-24.167 87.926-58.495l30.001 30.001a14.948 14.948 0 0 0 10.606 4.393c3.838 0 7.678-1.465 10.607-4.393 5.858-5.858 5.858-15.355 0-21.213l-43.828-43.829zm-110.311 61.777c-28.815-6.798-50.332-32.712-50.332-63.575v-33.2h50.332v96.775zm80.334-63.575c0 30.863-21.518 56.777-50.334 63.576V246.9h50.334v33.2zm0-63.2H190.667v-1.067c0-36.024 29.308-65.333 65.332-65.333 36.025 0 65.334 29.309 65.334 65.333v1.067z" fill="#848DA0"/></svg>