<svg fill="none" xmlns="http://www.w3.org/2000/svg" viewBox="0 0 50 50"><circle cx="32.703" cy="20.773" r="4.211" fill="#848DA0"/><path fill-rule="evenodd" clip-rule="evenodd" d="M30.625 26.151a5.783 5.783 0 0 1-2.762-2.242l-1.731 1.874a1.477 1.477 0 0 1-1.98.173 5.026 5.026 0 0 0-6.642.485l-3.903 3.996a1.775 1.775 0 1 0 2.539 2.48l3.903-3.995a1.477 1.477 0 0 1 1.952-.143 5.026 5.026 0 0 0 6.738-.587l1.886-2.04Z" fill="#848DA0"/><rect x="6.228" y="6.228" width="37.558" height="37.558" rx="8.927" stroke="#848DA0" stroke-width="4.12"/></svg>