<svg xmlns="http://www.w3.org/2000/svg" style="enable-background:new 0 0 36.25 36.25" xml:space="preserve" viewBox="0 0 36.25 36.25"><path d="M32.553 17.221a7.86 7.86 0 0 0-6.267-6.274A12.59 12.59 0 0 0 15.5 4.875c-6.961 0-12.625 5.664-12.625 12.625 0 .097.001.193.004.289A7.561 7.561 0 0 0 0 23.75c0 4.205 3.42 7.625 7.625 7.625h21c4.205 0 7.625-3.42 7.625-7.625a7.644 7.644 0 0 0-3.697-6.529zm-3.928 11.155h-21A4.63 4.63 0 0 1 3 23.751c0-1.616.827-3.088 2.212-3.938.487-.299.761-.849.708-1.416a9.784 9.784 0 0 1-.046-.895c0-5.307 4.318-9.625 9.625-9.625a9.606 9.606 0 0 1 8.522 5.159c.24.458.699.76 1.215.798a4.826 4.826 0 0 1 4.431 4.454c.039.548.374 1.03.873 1.26a4.634 4.634 0 0 1 2.708 4.204 4.627 4.627 0 0 1-4.623 4.624zm-9.193-5.974h2.729l-5.534 5.533-5.534-5.533h2.729V10.809h5.61v11.593z" fill="#848DA0"/></svg>