<svg fill="none" xmlns="http://www.w3.org/2000/svg" viewBox="0 0 50 50"><path fill-rule="evenodd" clip-rule="evenodd" d="M24.465 15.297a4.446 4.446 0 1 1-8.891 0 4.446 4.446 0 0 1 8.89 0Zm-4.446 11.887c-1.53 0-3.009.157-4.409.44-6.608 1.332-11.44 5.47-11.44 9.184 0 4.5 7.096 6.675 15.85 6.675 8.753 0 15.85-2.174 15.85-6.675 0-3.714-4.833-7.852-11.442-9.185a22.32 22.32 0 0 0-4.409-.439Zm0-3.12a8.767 8.767 0 0 1-8.767-8.767 8.766 8.766 0 1 1 8.768 8.766Zm0 15.098c-4.107 0-7.477-.521-9.652-1.36-1.267-.489-1.717-.89-1.86-1.078.03-.126.125-.392.414-.793.423-.587 1.15-1.296 2.227-1.988 2.157-1.386 5.305-2.438 8.872-2.438 3.566 0 6.715 1.052 8.871 2.438 1.077.692 1.805 1.401 2.228 1.988.288.401.383.667.415.793-.144.189-.595.59-1.861 1.078-2.176.839-5.546 1.36-9.653 1.36ZM8.448 36.608c.006 0 .022.024.033.08-.033-.05-.038-.078-.033-.08Zm23.146 0c.005.002 0 .03-.034.08.012-.056.028-.081.034-.08Zm6.79-6.309a1.98 1.98 0 0 1-1.98-1.98v-2.71a.792.792 0 0 0-.792-.792h-2.709a1.98 1.98 0 1 1 0-3.96h2.71a.792.792 0 0 0 .791-.792v-2.71a1.98 1.98 0 1 1 3.96 0v2.71c0 .437.355.792.793.792h2.71a1.98 1.98 0 1 1 0 3.96h-2.71a.792.792 0 0 0-.792.793v2.709a1.98 1.98 0 0 1-1.98 1.98Z" fill="#848DA0"/></svg>