<svg fill="none" xmlns="http://www.w3.org/2000/svg" viewBox="0 0 50 50"><path d="M44.17 16.152a.738.738 0 0 1-.733-.732v-4.404c0-.4.333-.733.733-.733.4 0 .732.332.732.733v4.404c0 .41-.322.732-.732.732Z" fill="#848DA0"/><path d="M44.541 21.549h-5.094V16.42h5.094c.006 0 .01 0 .013.002a.04.04 0 0 1 .02.02.031.031 0 0 1 .002.013v5.059a.03.03 0 0 1-.002.012.041.041 0 0 1-.02.02.031.031 0 0 1-.013.003ZM10.621 21.549H5.527a.032.032 0 0 1-.013-.002.04.04 0 0 1-.02-.02.03.03 0 0 1-.002-.013v-5.059c0-.007.001-.01.002-.013a.04.04 0 0 1 .02-.02.03.03 0 0 1 .013-.002h5.094v5.129Z" stroke="#848DA0" stroke-width="2"/><path d="M9.864 48.5c.754-7.714 7.26-13.738 15.165-13.738 7.913 0 14.412 6.03 15.166 13.738H9.864Z" stroke="#848DA0" stroke-width="3"/><path d="M43.018 17.988c0 9.932-8.057 17.989-17.989 17.989-9.931 0-17.988-8.057-17.988-17.989C7.041 8.057 15.107 0 25.039 0s17.979 8.057 17.979 17.988Z" fill="#848DA0"/><path d="M24.922 4.023c-7.529.06-13.7 6.163-13.847 13.692-.108 5.644 3.164 10.556 7.92 12.851a1.008 1.008 0 0 0 1.416-.693l.654-2.988c.098-.46.508-.791.986-.791h5.772c.469 0 .879.332.986.79l.674 3.077c.137.635.83.967 1.416.693 4.785-2.216 8.115-7.06 8.115-12.675-.02-7.735-6.338-14.014-14.092-13.956Z" fill="#fff"/><path d="M36.826 19.805a4.147 4.147 0 0 1-4.15 4.15 4.147 4.147 0 0 1-4.15-4.15 4.147 4.147 0 0 1 4.15-4.15 4.153 4.153 0 0 1 4.15 4.15ZM21.855 19.805a4.147 4.147 0 0 1-4.15 4.15 4.147 4.147 0 0 1-4.15-4.15 4.147 4.147 0 0 1 4.15-4.15 4.153 4.153 0 0 1 4.15 4.15Z" fill="#848DA0"/></svg>