<svg fill="none" xmlns="http://www.w3.org/2000/svg" viewBox="0 0 50 50"><path fill-rule="evenodd" clip-rule="evenodd" d="M15.156 8.29h19.61a6.866 6.866 0 0 1 6.867 6.923l-.13 15.645-2.093-2.42a2.015 2.015 0 0 0-.028-.032l-2.828-3.142c-2.811-3.124-7.722-3.08-10.478.091l-2.669 3.071-.999-.706a5.897 5.897 0 0 0-7.712.786l-.309.33-3.488 3.52-2.607 2.59a6.978 6.978 0 0 1-.002-.18v-19.61a6.866 6.866 0 0 1 6.866-6.867Zm-5.27 30.878a6.852 6.852 0 0 0 5.327 2.464l19.448-.162a6.87 6.87 0 0 0 6.473-4.737l-4.828-5.586-2.814-3.127a2.874 2.874 0 0 0-4.306.037l-3.076 3.54a3.433 3.433 0 0 1-4.574.552l-1.507-1.066a1.778 1.778 0 0 0-2.324.237l-.33.352a2.1 2.1 0 0 1-.04.043l-3.516 3.546-.01.01-3.86 3.837-.063.06ZM4.17 15.156c0-6.068 4.919-10.987 10.986-10.987h19.61c6.104 0 11.037 4.975 10.986 11.078l-.162 19.449c-.05 5.996-4.898 10.844-10.894 10.894l-19.448.162c-6.103.05-11.078-4.883-11.078-10.986v-19.61Zm12.793.66a1.484 1.484 0 1 0 0 2.968 1.484 1.484 0 0 0 0-2.969Zm-5.208 1.483a5.208 5.208 0 1 1 10.416 0 5.208 5.208 0 0 1-10.416 0Z" fill="#848DA0"/><path d="M40.986 27.33c.4-.418 1.083-.443 1.515-.05l.674-.74-.674.74 6.17 5.623a.983.983 0 0 1 .052 1.417l-12.71 13.328c-.197.207-.478.33-.778.33L29.448 48c-.58.002-1.027-.433-1.063-.949l-.383-5.644a.988.988 0 0 1 .275-.749l12.71-13.327Z" fill="#848DA0" stroke="#fff" stroke-width="2" stroke-linejoin="round"/></svg>