<svg fill="none" xmlns="http://www.w3.org/2000/svg" viewBox="0 0 50 50"><path d="M39.906 33.594C39.906 41.826 33.233 48.5 25 48.5s-14.906-6.674-14.906-14.906c0-8.233 6.673-14.907 14.906-14.907s14.906 6.674 14.906 14.907Z" stroke="#848DA0" stroke-width="3"/><path d="M31.313 16.406c0 8.233-6.674 14.907-14.907 14.907-8.232 0-14.906-6.674-14.906-14.907C1.5 8.174 8.174 1.5 16.406 1.5c8.233 0 14.907 6.674 14.907 14.906Z" stroke="#848DA0" stroke-width="3"/><path d="M48.5 16.406c0 8.233-6.674 14.907-14.906 14.907-8.233 0-14.907-6.674-14.907-14.907 0-8.232 6.674-14.906 14.907-14.906C41.826 1.5 48.5 8.174 48.5 16.406Z" stroke="#848DA0" stroke-width="3"/><path d="m31.116 18.807-.169 1.065.954.5c3.766 1.972 6.584 5.506 7.592 9.722a14.914 14.914 0 0 1-5.9 1.209c-2.855 0-5.534-.816-7.809-2.21l-.787-.483-.785.485a14.822 14.822 0 0 1-7.806 2.208c-2.094 0-4.089-.428-5.897-1.206a14.953 14.953 0 0 1 7.59-9.725l.965-.506-.183-1.075a14.174 14.174 0 0 1-.194-2.385c0-5.03 2.492-9.484 6.313-12.179a14.864 14.864 0 0 1 6.116 14.58Z" fill="#fff" stroke="#848DA0" stroke-width="3"/><path d="M32.598 19.043c-.772 4.785-3.623 8.887-7.598 11.338a16.38 16.38 0 0 1-7.598-11.338A16.335 16.335 0 0 1 25 17.188c2.734 0 5.332.673 7.598 1.855ZM17.188 26.563h-1.563v1.562h1.563v-1.563ZM25.781 11.719H24.22v1.562h1.562V11.72ZM34.375 26.563h-1.563v1.562h1.563v-1.563Z" fill="#848DA0"/></svg>