<svg fill="none" xmlns="http://www.w3.org/2000/svg" viewBox="0 0 50 50"><path d="M47 25c0-5.878-2.286-11.404-6.445-15.555C36.395 5.295 30.878 3 25 3S13.596 5.286 9.445 9.445C5.295 13.605 3 19.122 3 25s2.286 11.404 6.445 15.555c4.151 4.15 9.668 6.436 15.538 6.445h.034c5.87-.009 11.387-2.294 15.538-6.445C44.715 36.404 47 30.878 47 25ZM26.478 35.785V14.146h5.19c1.616 3.248 2.51 6.978 2.51 10.863 0 3.85-.876 7.545-2.466 10.776h-5.234Zm3.48 2.965a20.294 20.294 0 0 1-3.471 3.841V38.75h3.472Zm-3.48-27.569V7.417a20.677 20.677 0 0 1 3.42 3.764h-3.42Zm6.944 0a24.138 24.138 0 0 0-3.472-4.563 19.016 19.016 0 0 1 8.13 4.563h-4.658Zm-9.9-3.764v3.764h-3.42a20.37 20.37 0 0 1 3.42-3.764Zm-5.19 6.73h5.19v21.638h-5.225c-1.59-3.231-2.466-6.926-2.466-10.776-.01-3.885.885-7.614 2.5-10.863ZM11.92 11.18a19.067 19.067 0 0 1 8.13-4.563 24.138 24.138 0 0 0-3.472 4.563H11.92ZM23.522 38.75v3.841a20.532 20.532 0 0 1-3.472-3.841h3.472Zm-6.995 0a23.818 23.818 0 0 0 3.506 4.623 19.084 19.084 0 0 1-8.181-4.623h4.675Zm16.946 0h4.675a19.084 19.084 0 0 1-8.18 4.623 23.818 23.818 0 0 0 3.505-4.623Zm7.202-2.965H34.96a27.524 27.524 0 0 0 2.174-10.776c0-3.825-.782-7.529-2.208-10.863h5.697A18.92 18.92 0 0 1 44.027 25a18.808 18.808 0 0 1-3.352 10.785ZM9.368 14.146h5.698a27.6 27.6 0 0 0-2.209 10.863c0 3.798.765 7.468 2.174 10.776H9.325A18.964 18.964 0 0 1 5.965 25c0-4.03 1.263-7.769 3.403-10.854Z" fill="#848DA0"/><path d="M45.53 26H4.478C3.662 26 3 25.552 3 25s.662-1 1.478-1h41.044c.816 0 1.478.448 1.478 1s-.653 1-1.47 1Z" fill="#61BDF6"/><path d="M4 25.11c0 2.409.405 4.729 1.152 6.89h39.696A21.01 21.01 0 0 0 46 25.11c0-2.496-.43-4.887-1.222-7.11H5.23A21.152 21.152 0 0 0 4 25.11Z" fill="#fff"/><path d="M10.992 21.846c0-.816.421-1.074 1.074-1.074h2.243c2.003 0 3.842.876 3.842 4.03 0 2.553-1.427 4.03-3.876 4.03h-2.209c-.653 0-1.074-.257-1.074-1.073v-5.913Zm1.83 5.517h1.548c1.47 0 1.933-1.306 1.933-2.552 0-1.59-.601-2.552-1.95-2.552h-1.539v5.104h.009ZM21.691 21.7c0-.765.37-1.074 1.152-1.074.378 0 .713.146.92.481l3.214 5.182h.025v-4.787c0-.593.335-.885.886-.885.55 0 .885.292.885.885v6.325c0 .73-.31 1.143-1.083 1.143-.585 0-.774-.12-1.006-.49l-3.197-5.027h-.025v4.65c0 .592-.335.884-.885.884s-.886-.292-.886-.885V21.7ZM36.903 24.166c1.675.378 2.105 1.375 2.105 2.32 0 1.453-1.1 2.544-3.317 2.544-2.329 0-3.369-1.168-3.369-2.036 0-.447.327-.765.774-.765.997 0 .739 1.452 2.595 1.452.954 0 1.478-.524 1.478-1.065 0-.327-.154-.68-.782-.843l-2.071-.524c-1.667-.43-1.968-1.34-1.968-2.208 0-1.797 1.659-2.467 3.214-2.467 1.435 0 3.128.808 3.128 1.882 0 .456-.395.73-.842.73-.85 0-.696-1.194-2.406-1.194-.851 0-1.324.395-1.324.954 0 .559.67.74 1.255.877l1.53.343Z" fill="#848DA0"/><path d="M25 47c-5.878 0-11.404-2.286-15.555-6.445C5.285 36.404 3 30.878 3 25S5.286 13.596 9.445 9.445C13.605 5.295 19.122 3 25 3s11.404 2.286 15.555 6.445C44.705 13.605 47 19.122 47 25s-2.286 11.404-6.445 15.555C36.395 44.705 30.878 47 25 47Zm0-41.035C14.507 5.965 5.965 14.507 5.965 25S14.507 44.035 25 44.035 44.035 35.493 44.035 25 35.493 5.965 25 5.965Z" fill="#848DA0"/></svg>