<svg fill="none" xmlns="http://www.w3.org/2000/svg" viewBox="0 0 50 50"><g clip-path="url(#a)"><path d="M39.951 10.044c8.262 8.261 8.262 21.657 0 29.919s-21.657 8.262-29.919 0-8.262-21.658 0-29.92c8.262-8.261 21.657-8.261 29.92 0Z" stroke="#848DA0" stroke-width="3"/><path d="M43.603 37.94H33.39c2.275-4.366 3.681-9.034 3.681-12.94 0-3.906-1.406-8.574-3.681-12.94h10.214a20.575 20.575 0 0 0-1.113-1.464h-9.902C30.8 7.49 28.574 4.609 26.133 2.363a21.646 21.646 0 0 0-2.266 0c-2.441 2.246-4.658 5.127-6.455 8.233H7.51c-.39.469-.762.957-1.114 1.465h10.215C14.336 16.426 12.93 21.094 12.93 25c0 3.905 1.406 8.573 3.681 12.939H6.396c.352.507.723.996 1.114 1.464h9.912c1.787 3.106 4.014 5.987 6.455 8.233a21.676 21.676 0 0 0 2.266 0c2.441-2.246 4.658-5.127 6.455-8.233h9.912c.37-.478.742-.966 1.093-1.465ZM25 3.32c2.148 1.944 4.18 4.454 5.889 7.285H19.11c1.71-2.832 3.74-5.341 5.889-7.285Zm0 43.36c-2.148-1.944-4.18-4.453-5.889-7.285H30.89c-1.71 2.832-3.74 5.341-5.889 7.285Zm7.422-10.069c-.225.45-.46.89-.693 1.329H18.271c-.235-.44-.47-.88-.694-1.329-2.05-4.12-3.183-8.252-3.183-11.61 0-3.36 1.132-7.481 3.183-11.612.225-.45.46-.889.694-1.328h13.466c.244.44.469.879.694 1.328 2.05 4.12 3.183 8.252 3.183 11.611 0 3.36-1.133 7.48-3.193 11.611Z" fill="#848DA0"/><path d="M47.139 18.818H2.86A2.86 2.86 0 0 0 0 21.68v6.64a2.86 2.86 0 0 0 2.861 2.862h44.287a2.86 2.86 0 0 0 2.862-2.862v-6.64a2.874 2.874 0 0 0-2.871-2.862Z" fill="#fff"/><path d="M2.861 18.818A2.86 2.86 0 0 0 0 21.68v6.64a2.86 2.86 0 0 0 2.861 2.862h24.063c-3.037-2.012-4.317-7.54-3.047-12.354l-21.016-.01Z" fill="#fff"/><path d="M27.08 28.594a.72.72 0 0 1-.683-.479l-1.396-3.828-1.397 3.828a.73.73 0 0 1-1.367 0l-2.08-5.713a.732.732 0 1 1 1.377-.498l1.396 3.829 1.397-3.829a.725.725 0 0 1 .683-.478.73.73 0 0 1 .684.478l1.396 3.829 1.397-3.829a.732.732 0 1 1 1.377.498l-2.08 5.713a.765.765 0 0 1-.703.479ZM15.89 28.594a.72.72 0 0 1-.684-.479l-1.397-3.828-1.396 3.828a.725.725 0 0 1-.684.479.73.73 0 0 1-.683-.479l-2.08-5.713a.732.732 0 1 1 1.376-.498l1.397 3.829 1.396-3.829a.725.725 0 0 1 .684-.478.73.73 0 0 1 .684.478l1.396 3.829 1.397-3.829a.732.732 0 1 1 1.377.498l-2.08 5.713a.765.765 0 0 1-.704.479ZM38.272 28.594a.72.72 0 0 1-.683-.479l-1.397-3.828-1.397 3.828a.73.73 0 0 1-1.367 0l-2.08-5.713a.732.732 0 1 1 1.377-.498l1.397 3.829 1.396-3.829a.725.725 0 0 1 .684-.478.73.73 0 0 1 .683.478l1.397 3.829 1.396-3.829a.732.732 0 1 1 1.377.498l-2.09 5.703a.737.737 0 0 1-.693.489Z" fill="#848DA0"/></g><defs><clipPath id="a"><path fill="#fff" d="M0 0h50v50H0z"/></clipPath></defs></svg>