<svg xmlns="http://www.w3.org/2000/svg" viewBox="0 0 64 64" fill="#848DA0"><g data-name="24-Email"><path d="M59 64H5a1 1 0 0 1-1-1V27h2v35h52V27h2v36a1 1 0 0 1-1 1z"/><path d="M32 51a1 1 0 0 1-.648-.238l-27-23a1 1 0 0 1-.059-1.469l5-5 1.414 1.414-4.234 4.234L32 48.687l25.527-21.746-4.234-4.234 1.414-1.414 5 5a1 1 0 0 1-.059 1.469l-27 23A1 1 0 0 1 32 51z"/><path d="M55 31h-2V3a1 1 0 0 0-1-1H16.414L11 7.414V31H9V7a1 1 0 0 1 .293-.707l6-6A1 1 0 0 1 16 0h36a3 3 0 0 1 3 3z"/><path d="M16 8h-6V6h5V1h2v6a1 1 0 0 1-1 1zM22 28a9 9 0 1 1 9-9 9.01 9.01 0 0 1-9 9zm0-16a7 7 0 1 0 7 7 7.009 7.009 0 0 0-7-7zM50 28H34a1 1 0 0 1-1-1V11a1 1 0 0 1 1-1h16a1 1 0 0 1 1 1v16a1 1 0 0 1-1 1zm-15-2h14V12H35z"/><path d="M34 22h16v2H34z"/><path d="M41 23h-2v-5h-1v5h-2v-6a1 1 0 0 1 1-1h3a1 1 0 0 1 1 1zM48 23h-2v-7h-1v7h-2v-8a1 1 0 0 1 1-1h3a1 1 0 0 1 1 1zM39 4h12v2H39zM35 4h2v2h-2zM27.293 25.707l-6-6A1 1 0 0 1 21 19v-8h2v7.586l5.707 5.707z"/><path d="M22 18h8v2h-8zM4.288 62.287l19.996-19.996 1.414 1.414L5.702 63.7zM38.284 43.709l1.414-1.414L59.694 62.29l-1.414 1.414zM51 35h-2v-3H15v3h-2v-4a1 1 0 0 1 1-1h36a1 1 0 0 1 1 1z"/><path d="M19 34h2v2h-2zM23 34h22v2H23zM23 38h18v2H23zM14 58h2v2h-2zM18 58h32v2H18z"/></g></svg>