<svg fill="none" xmlns="http://www.w3.org/2000/svg" viewBox="0 0 50 50"><path fill-rule="evenodd" clip-rule="evenodd" d="M34.888 9.117H15.125a3.916 3.916 0 0 0-3.916 3.916V36.98a3.916 3.916 0 0 0 3.916 3.916h19.763a3.916 3.916 0 0 0 3.915-3.916V13.033a3.916 3.916 0 0 0-3.915-3.916ZM15.125 5.201a7.832 7.832 0 0 0-7.832 7.832V36.98a7.832 7.832 0 0 0 7.832 7.832h19.763a7.832 7.832 0 0 0 7.831-7.832V13.033A7.832 7.832 0 0 0 34.888 5.2H15.125Z" fill="#848DA0"/><path d="M19.671 18.602a.769.769 0 0 0-1.045-.284l-.977.567v-1.123a.763.763 0 0 0-1.523 0v1.123l-.977-.567a.758.758 0 0 0-1.044.284.76.76 0 0 0 .283 1.044l.976.567-.976.566a.762.762 0 0 0 .38 1.426c.128 0 .264-.03.382-.107l.976-.567v1.123a.763.763 0 0 0 1.523 0v-1.123l.977.567a.776.776 0 0 0 .38.107.774.774 0 0 0 .665-.38.76.76 0 0 0-.283-1.046l-.977-.566.977-.567a.76.76 0 0 0 .283-1.044ZM27.63 18.836a.769.769 0 0 0-1.045-.283l-.977.566v-1.123a.763.763 0 0 0-1.523 0v1.123l-.977-.566a.758.758 0 0 0-1.044.283.758.758 0 0 0 .283 1.045l.976.566-.976.567a.762.762 0 0 0 .38 1.426c.128 0 .264-.03.381-.108l.977-.566v1.123a.763.763 0 0 0 1.523 0v-1.123l.977.566a.776.776 0 0 0 .38.108.774.774 0 0 0 .665-.381.758.758 0 0 0-.283-1.045l-.977-.567.977-.566a.756.756 0 0 0 .283-1.045ZM35.58 18.836a.769.769 0 0 0-1.046-.283l-.976.566v-1.123a.763.763 0 0 0-1.524 0v1.123l-.976-.566a.758.758 0 0 0-1.045.283.758.758 0 0 0 .283 1.045l.977.566-.977.567a.778.778 0 0 0-.283 1.045c.146.244.4.38.664.38.127 0 .264-.029.38-.107l.977-.566v1.123a.763.763 0 0 0 1.524 0v-1.123l.976.566a.776.776 0 0 0 .381.108.773.773 0 0 0 .664-.381.758.758 0 0 0-.283-1.045l-.977-.567.977-.566a.756.756 0 0 0 .283-1.045Z" fill="#848DA0"/></svg>