<svg fill="#848DA0" xmlns="http://www.w3.org/2000/svg" viewBox="0 0 512 512"><path d="M446.516 49.699h-25.633V24.067C420.883 10.797 410.086 0 396.815 0H82.051C68.779 0 57.982 10.797 57.982 24.067v10.112c-9.583 2.966-16.565 11.91-16.565 22.455v1.133c0 10.545 6.982 19.489 16.565 22.455v61.379c0 4.143 3.357 7.5 7.5 7.5s7.5-3.357 7.5-7.5V81.267h34.2c8.547 0 15.5-6.953 15.5-15.5V48.634c0-8.547-6.953-15.5-15.5-15.5h-34.2v-9.066c0-5 4.068-9.067 9.068-9.067h314.765c5 0 9.067 4.067 9.067 9.067v414.165c0 5-4.067 9.068-9.067 9.068H82.051c-5 0-9.068-4.068-9.068-9.068V171.601c0-4.143-3.357-7.5-7.5-7.5s-7.5 3.357-7.5 7.5v266.632c0 13.272 10.797 24.068 24.068 24.068h25.632v25.632c0 13.271 10.797 24.067 24.067 24.067h218.649c4.143 0 7.5-3.357 7.5-7.5s-3.357-7.5-7.5-7.5H131.75c-5 0-9.067-4.067-9.067-9.067v-25.632h274.133c13.271 0 24.067-10.797 24.067-24.068V64.699h25.633c5 0 9.067 4.068 9.067 9.068v414.165c0 5-4.067 9.067-9.067 9.067H380.4c-4.143 0-7.5 3.357-7.5 7.5s3.357 7.5 7.5 7.5h66.116c13.271 0 24.067-10.797 24.067-24.067V73.768c0-13.272-10.797-24.069-24.067-24.069zm-338.833-1.065v17.133c0 .275-.225.5-.5.5H64.917c-4.687 0-8.5-3.814-8.5-8.5v-1.133c0-4.687 3.813-8.5 8.5-8.5h42.266a.5.5 0 0 1 .5.5z"/><path d="M164.883 230.367c20.021 0 38.193-8.029 51.498-21.021a7.74 7.74 0 0 0 .665-.584c.212-.212.404-.436.585-.665 12.992-13.304 21.019-31.476 21.019-51.496 0-40.675-33.092-73.767-73.767-73.767s-73.767 33.092-73.767 73.767 33.092 73.766 73.767 73.766zm58.766-73.766c0 13.504-4.59 25.949-12.275 35.883L186.35 167.46a23.902 23.902 0 0 0 2.6-10.859c0-10.652-6.959-19.705-16.567-22.865V98.329c28.873 3.697 51.266 28.41 51.266 58.272zm-58.766-9.068c5 0 9.067 4.067 9.067 9.067 0 4.999-4.067 9.066-9.067 9.066-4.999 0-9.066-4.067-9.066-9.066-.001-4.999 4.067-9.067 9.066-9.067zm-7.5-49.204v35.407c-9.608 3.16-16.566 12.212-16.566 22.865 0 13.27 10.796 24.066 24.066 24.066 3.906 0 7.595-.941 10.86-2.6l25.024 25.024c-9.935 7.686-22.38 12.276-35.884 12.276-32.404 0-58.767-26.362-58.767-58.767 0-29.861 22.394-54.574 51.267-58.271zM272.283 130.967h50.267c8.547 0 15.5-6.953 15.5-15.5V98.334c0-8.547-6.953-15.5-15.5-15.5h-50.267c-8.547 0-15.5 6.953-15.5 15.5v17.133c0 8.547 6.953 15.5 15.5 15.5zm-.5-32.633c0-.275.225-.5.5-.5h50.267c.275 0 .5.225.5.5v17.133c0 .275-.225.5-.5.5h-50.267a.501.501 0 0 1-.5-.5zM264.283 164.101H380.25c4.143 0 7.5-3.357 7.5-7.5s-3.357-7.5-7.5-7.5H264.283a7.5 7.5 0 0 0 0 15zM264.283 197.233H380.25c4.143 0 7.5-3.357 7.5-7.5s-3.357-7.5-7.5-7.5H264.283c-4.143 0-7.5 3.357-7.5 7.5s3.358 7.5 7.5 7.5zM264.283 230.367h66.267c4.143 0 7.5-3.357 7.5-7.5s-3.357-7.5-7.5-7.5h-66.267c-4.143 0-7.5 3.357-7.5 7.5s3.358 7.5 7.5 7.5zM91.116 314.267c0 8.547 6.953 15.5 15.5 15.5h50.267c8.547 0 15.5-6.953 15.5-15.5v-17.134c0-8.547-6.953-15.5-15.5-15.5h-50.267c-8.547 0-15.5 6.953-15.5 15.5zm15-17.134c0-.275.225-.5.5-.5h50.267c.275 0 .5.225.5.5v17.134c0 .275-.225.5-.5.5h-50.267a.501.501 0 0 1-.5-.5zM98.616 362.899h115.967c4.143 0 7.5-3.357 7.5-7.5s-3.357-7.5-7.5-7.5H98.616c-4.143 0-7.5 3.357-7.5 7.5s3.358 7.5 7.5 7.5zM98.616 396.033h115.967c4.143 0 7.5-3.357 7.5-7.5s-3.357-7.5-7.5-7.5H98.616c-4.143 0-7.5 3.357-7.5 7.5s3.358 7.5 7.5 7.5zM98.616 429.166h66.267c4.143 0 7.5-3.357 7.5-7.5s-3.357-7.5-7.5-7.5H98.616c-4.143 0-7.5 3.357-7.5 7.5s3.358 7.5 7.5 7.5zM242.414 377.271c1.464 1.464 3.384 2.196 5.303 2.196s3.839-.732 5.304-2.196l29.855-29.856 45.303 15.1a7.51 7.51 0 0 0 7.676-1.811l36.897-36.896V405.1c0 4.999-4.067 9.066-9.067 9.066H247.717c-4.143 0-7.5 3.357-7.5 7.5s3.357 7.5 7.5 7.5h115.966c13.271 0 24.067-10.796 24.067-24.066V289.134c0-4.143-3.357-7.5-7.5-7.5s-7.5 3.357-7.5 7.5v13.46l-44.226 44.226-45.303-15.101a7.505 7.505 0 0 0-7.676 1.811l-33.133 33.135a7.5 7.5 0 0 0 .002 10.606z"/></svg>