<svg fill="none" xmlns="http://www.w3.org/2000/svg" viewBox="0 0 50 50"><path fill-rule="evenodd" clip-rule="evenodd" d="M8.286 27.203v-9.538c0-2.342.019-2.934.098-3.35a5.494 5.494 0 0 1 4.363-4.362c.415-.08 1.007-.098 3.35-.098 2.341 0 2.933.019 3.348.098a5.491 5.491 0 0 1 3.439 2.204l.048.067c.242.339.53.742.8 1.071.262.32.846 1.006 1.772 1.482.835.43 1.619.537 2.103.576.408.034.86.033 1.181.033H29.34c3.306 0 5.49.005 7.15.166 1.596.155 2.268.425 2.675.682a5.495 5.495 0 0 1 1.713 1.713c.258.408.527 1.08.682 2.676.162 1.66.167 3.843.167 7.15 0 3.306-.005 5.489-.166 7.15-.156 1.596-.425 2.267-.683 2.675a5.495 5.495 0 0 1-1.713 1.713c-.407.257-1.079.526-2.675.682-1.66.161-3.844.166-7.15.166h-8.666c-3.306 0-5.49-.005-7.15-.166-1.596-.156-2.268-.425-2.675-.682a5.495 5.495 0 0 1-1.714-1.713l-3.484 2.2 3.484-2.2c-.257-.408-.526-1.08-.682-2.676-.161-1.66-.166-3.843-.166-7.15v-.569Zm-4.12.57c0 6.448 0 9.673 1.484 12.024a9.615 9.615 0 0 0 2.998 2.998c2.351 1.484 5.576 1.484 12.025 1.484h8.666c6.45 0 9.674 0 12.025-1.484a9.615 9.615 0 0 0 2.998-2.998c1.484-2.351 1.484-5.576 1.484-12.024 0-6.45 0-9.674-1.484-12.025a9.614 9.614 0 0 0-2.998-2.998c-2.351-1.484-5.576-1.484-12.025-1.484h-.477c-.785 0-1.177 0-1.473-.152-.296-.153-.581-.553-1.153-1.353a9.612 9.612 0 0 0-6.016-3.855c-.896-.171-1.972-.171-4.124-.171-2.152 0-3.228 0-4.124.171a9.614 9.614 0 0 0-7.634 7.635c-.172.896-.172 1.972-.172 4.124v10.108Zm9.899 4.65a2.06 2.06 0 0 0 0 4.12h21.884a2.06 2.06 0 1 0 0-4.12H14.065Z" fill="#848DA0"/></svg>