<svg fill="none" xmlns="http://www.w3.org/2000/svg" viewBox="0 0 50 50"><path fill-rule="evenodd" clip-rule="evenodd" d="M15.125 9.117h19.763a3.916 3.916 0 0 1 3.915 3.916v23.948a3.916 3.916 0 0 1-3.915 3.916H15.125a3.916 3.916 0 0 1-3.916-3.916V13.033a3.916 3.916 0 0 1 3.916-3.916Zm-7.832 3.916a7.832 7.832 0 0 1 7.832-7.832h19.763a7.832 7.832 0 0 1 7.831 7.832v23.948a7.832 7.832 0 0 1-7.831 7.832H15.125a7.832 7.832 0 0 1-7.832-7.832V13.033Zm20.477 13.93a1.958 1.958 0 1 0 0-3.916H16.467a1.958 1.958 0 0 0 0 3.916H27.77Zm-4.963 5.874a1.958 1.958 0 0 0-1.958-1.958h-4.382a1.958 1.958 0 0 0 0 3.916h4.382a1.958 1.958 0 0 0 1.958-1.958Zm7.536-13.707a1.958 1.958 0 0 0 0-3.916H16.467a1.958 1.958 0 1 0 0 3.916h13.876Z" fill="#848DA0"/></svg>