<svg fill="none" xmlns="http://www.w3.org/2000/svg" viewBox="0 0 50 50"><path fill-rule="evenodd" clip-rule="evenodd" d="M15.125 9.117h19.763a3.916 3.916 0 0 1 3.915 3.916V36.98a3.916 3.916 0 0 1-3.915 3.916H15.125a3.916 3.916 0 0 1-3.916-3.916V13.033a3.916 3.916 0 0 1 3.916-3.916Zm-7.832 3.916A7.832 7.832 0 0 1 15.125 5.2h19.763a7.832 7.832 0 0 1 7.831 7.832V36.98a7.832 7.832 0 0 1-7.831 7.832H15.125a7.832 7.832 0 0 1-7.832-7.832V13.033Zm20.477 13.93a1.958 1.958 0 1 0 0-3.916H16.467a1.958 1.958 0 0 0 0 3.916H27.77Zm-4.963 5.874a1.958 1.958 0 0 0-1.958-1.958h-4.382a1.958 1.958 0 0 0 0 3.916h4.382a1.958 1.958 0 0 0 1.958-1.958Zm7.536-13.707a1.958 1.958 0 0 0 0-3.916H16.467a1.958 1.958 0 1 0 0 3.916h13.876Z" fill="#848DA0"/><path d="M4.501 21.85c.072-4.49 3.67-8.147 8.187-8.366l.833-.04-.428-.716c-.397-.664.3-1.485 1.052-1.15l5.944 2.664a.683.683 0 0 1 .122 1.185h-.001l-5.305 3.768c-.63.447-1.44-.128-1.292-.813l.002-.007a1.473 1.473 0 0 1 .02-.084l.004-.01.004-.011.122-.346.333-.942-.954.298c-2.969.928-5.13 3.683-5.13 6.94 0 2.558 1.33 4.804 3.338 6.101a8.627 8.627 0 0 1-3.474-1.6c-2.086-1.595-3.42-4.103-3.377-6.87Zm0 0-.5-.008.5.008Z" fill="#848DA0" stroke="#fff"/></svg>