<svg fill="none" xmlns="http://www.w3.org/2000/svg" viewBox="0 0 50 50"><path fill-rule="evenodd" clip-rule="evenodd" d="M8.286 27.201v.572c0 3.306.005 5.49.166 7.15.156 1.596.425 2.267.682 2.675l-3.484 2.2c-1.484-2.352-1.484-5.577-1.484-12.026V17.666c0-2.152 0-3.228.172-4.124a9.614 9.614 0 0 1 7.634-7.635c.896-.171 1.972-.171 4.124-.171 2.152 0 3.228 0 4.124.171a9.611 9.611 0 0 1 6.016 3.855c.572.8.857 1.2 1.153 1.353.296.152.688.152 1.473.152h.477c6.45 0 9.674 0 12.025 1.484a9.615 9.615 0 0 1 2.998 2.998c1.484 2.351 1.484 5.576 1.484 12.025 0 6.448 0 9.673-1.484 12.024a9.614 9.614 0 0 1-2.998 2.998c-2.351 1.484-5.576 1.484-12.025 1.484h-8.666c-6.45 0-9.673 0-12.025-1.484a9.613 9.613 0 0 1-2.998-2.998l3.484-2.2a5.494 5.494 0 0 0 1.713 1.714c.408.257 1.08.526 2.676.682 1.66.161 3.844.166 7.15.166h8.666c3.306 0 5.49-.005 7.15-.166 1.596-.156 2.268-.425 2.675-.682a5.493 5.493 0 0 0 1.713-1.713c.258-.408.527-1.08.682-2.676.162-1.66.167-3.843.167-7.15 0-3.306-.005-5.489-.166-7.15-.156-1.596-.425-2.267-.683-2.675a5.494 5.494 0 0 0-1.713-1.713c-.407-.257-1.079-.526-2.675-.682-1.66-.161-3.844-.166-7.15-.166H28.788c-.322 0-.773 0-1.18-.033a5.517 5.517 0 0 1-2.104-.576c-.926-.476-1.51-1.162-1.772-1.482a20.895 20.895 0 0 1-.848-1.138 5.491 5.491 0 0 0-3.439-2.204c-.415-.08-1.006-.098-3.349-.098-2.342 0-2.934.019-3.35.098a5.494 5.494 0 0 0-4.362 4.363c-.08.415-.098 1.007-.098 3.35V27.2Z" fill="#848DA0"/><path d="M15 31.502v-8.936c0-.175.078-.312.234-.41.157-.097.342-.156.547-.156h4.805c.186 0 .322.078.41.225.088.156.137.332.137.546 0 .225-.049.41-.147.567a.459.459 0 0 1-.41.234h-3.799v2.754h2.11c.175 0 .312.069.41.205a.845.845 0 0 1 .146.508.795.795 0 0 1-.146.479.475.475 0 0 1-.41.205h-2.11v3.77c0 .175-.088.312-.273.41-.176.097-.39.156-.625.156a1.2 1.2 0 0 1-.635-.157.443.443 0 0 1-.244-.4ZM22.133 22.781c0-.205.049-.39.146-.547A.464.464 0 0 1 22.7 22h5.83c.186 0 .323.078.42.234.098.157.147.342.147.547 0 .215-.05.4-.157.557-.107.156-.234.234-.41.234h-2.021v7.93c0 .176-.088.312-.274.42-.175.098-.39.156-.625.156-.244 0-.459-.049-.634-.156-.176-.098-.264-.244-.264-.42v-7.93H22.69a.47.47 0 0 1-.41-.224 1.017 1.017 0 0 1-.147-.567ZM30.096 31.502v-8.955a.48.48 0 0 1 .185-.381.72.72 0 0 1 .489-.166h2.773c.947 0 1.7.254 2.275.752.567.498.85 1.28.85 2.344v.078c0 1.074-.293 1.865-.889 2.373-.595.508-1.377.762-2.353.762h-1.543v3.193c0 .176-.088.313-.274.41-.175.098-.39.156-.625.156-.244 0-.459-.048-.634-.156-.166-.098-.254-.234-.254-.41Zm1.797-4.6h1.542c.46 0 .811-.136 1.065-.4.254-.264.38-.664.38-1.182v-.166c0-.527-.126-.918-.38-1.181-.254-.264-.605-.4-1.065-.4h-1.542v3.33Z" fill="#848DA0"/></svg>