<svg fill="none" xmlns="http://www.w3.org/2000/svg" viewBox="0 0 50 50"><path fill-rule="evenodd" clip-rule="evenodd" d="m13.204 20.577-.553.115a5.498 5.498 0 0 0-4.368 5.38v11.194a5.495 5.495 0 0 0 5.495 5.495h22.456a5.495 5.495 0 0 0 5.495-5.495V26.072a5.498 5.498 0 0 0-4.365-5.38l-.554-.115H13.204Zm25-3.92c4.366.91 7.646 4.78 7.646 9.415v11.194a9.616 9.616 0 0 1-9.616 9.616H13.778a9.616 9.616 0 0 1-9.616-9.616V26.072c0-4.637 3.283-8.508 7.651-9.415v-1.554c0-6.611 5.36-11.971 11.97-11.971h2.45c6.612 0 11.971 5.36 11.971 11.97v1.556Zm-21.768-4.322a7.833 7.833 0 0 0-.502 2.768v1.353h18.149v-1.353c0-.974-.177-1.907-.502-2.768a7.853 7.853 0 0 0-7.348-5.082h-2.45a7.853 7.853 0 0 0-7.347 5.082Z" fill="#848DA0"/></svg>