<svg fill="#848DA0" xmlns="http://www.w3.org/2000/svg" viewBox="0 0 512 512"><path d="M480 88a40.045 40.045 0 0 0-40-40H40A40.045 40.045 0 0 0 0 88v256a40.045 40.045 0 0 0 40 40h252.666A111.989 111.989 0 1 0 480 273.7zM40 64h400a24.035 24.035 0 0 1 23.6 19.652l-211.463 123.96a24.021 24.021 0 0 1-24.274 0L16.4 83.652A24.035 24.035 0 0 1 40 64zm0 304a24.028 24.028 0 0 1-24-24V101.963l203.771 119.452a40.039 40.039 0 0 0 40.458 0L464 101.963v158.178A111.975 111.975 0 0 0 289.148 368zm360 80a96 96 0 1 1 96-96 96.108 96.108 0 0 1-96 96z"/><path d="M471.049 313.344a8 8 0 0 0-11.094 2.218l-4.92 7.38a64 64 0 0 0-118.262-6.375 8 8 0 0 0 14.454 6.866 48 48 0 0 1 88.25 3.529l-8.428-5.618a8 8 0 1 0-8.875 13.312l24 16a8 8 0 0 0 11.094-2.218l16-24a8 8 0 0 0-2.219-11.094zM459.433 376.773a8 8 0 0 0-10.66 3.794 48 48 0 0 1-88.25-3.529l8.428 5.618a8 8 0 1 0 8.875-13.312l-24-16a8 8 0 0 0-11.094 2.218l-16 24a8 8 0 1 0 13.313 8.876l4.92-7.38a64 64 0 0 0 118.262 6.375 8 8 0 0 0-3.794-10.66z"/></svg>