<svg fill="none" xmlns="http://www.w3.org/2000/svg" viewBox="0 0 50 50"><path d="M48.453 24.954c0 12.953-10.5 23.452-23.454 23.452S1.545 37.906 1.545 24.952c0-12.953 10.5-23.452 23.454-23.452S48.453 12 48.453 24.954Z" fill="#fff" stroke="#848DA0" stroke-width="3"/><path d="M37.867 26.11c-.59-3.78-4.497-6.229-7.408-8.075-1.27-.807-3.332-1.858-3.599-3.554-.11-.701-.105-1.425-.129-2.133-.01-.278-.014-.557-.038-.835-.032-.358-.39.083-.587-.23-.487-.772-.299.234-.251.642.112.956.246 1.91.237 2.874-.014 1.843-.307 3.609-.76 5.386-1.062 4.16-1.9 8.422-.849 12.68.218.882.5 1.752.872 2.58.112.25.327.949.638 1.033 1.114.302 1.957.389 2.846 1.23.553.523.967.236 1.62-.029 1.98-.803 3.696-1.815 5.097-3.47 1.974-2.328 2.787-5.052 2.311-8.1Zm-2.093 3.805c-.176 1.555-1.136 2.947-2.118 4.102-.712.837-1.673 1.924-2.728 2.304-.379.137.07-.634.125-.718.326-.498.729-.937 1.102-1.4.554-.68 1.031-1.395 1.355-2.222 1.075-2.74.83-6.06-.76-8.528-.864-1.343-2.052-2.479-3.25-3.515-.578-.5-1.164-.974-1.65-1.573-.112-.138-1.106-1.459-.797-1.654.1-.063 2.272 2.255 2.509 2.436.898.689 1.822 1.326 2.654 2.1 1.126 1.05 2.281 2.222 2.927 3.65.707 1.564.822 3.327.63 5.018Z" fill="#848DA0"/><path d="M24.624 8.016c.296.21.362 1.435.362 2.556 0 1.12.098 5.953-.23 7.248-.33 1.296-1.086 2.731-1.908 3.991-.822 1.26-1.776 3.922-1.743 5.568.033 1.645.921 4.341 1.612 5.462.693 1.124 1.87 2.692 1.612 3.047-.46.63-2.335-1.542-3.322-2.802-.987-1.26-1.974-3.816-2.006-5.812-.033-1.995 1.02-3.851 1.776-4.972.757-1.12 2.237-3.045 2.632-3.921.395-.875.822-1.821.954-3.047.131-1.225 0-5.603 0-5.603s-.034-1.925.261-1.715Z" fill="#848DA0"/><path d="M23.979 10.019c.327.144.364.541.364.938 0 .398-.109 2.022-.219 3.611-.109 1.59-1.386 2.925-2.333 3.864-.948.938-3.683 3.864-4.703 5.307-1.021 1.444-1.53 3.346-1.422 4.947.108 1.624.51 3.213 2.04 4.91 1.532 1.697 2.59 2.491 3.391 2.889.802.397 1.605.685 1.422 1.046-.182.36-.947.108-1.786-.18-.84-.29-3.683-1.444-5.323-3.286-1.64-1.841-2.479-4.297-2.406-6.644.072-2.347.73-3.32 1.823-4.837 1.094-1.517 4.12-3.755 5.068-4.333.948-.578 2.223-1.553 2.843-2.347.62-.795.948-1.444.912-2.528-.037-1.083.073-2.058.036-2.419-.035-.36-.035-1.082.293-.938Zm.091 28.3c.149-.005.056.632-.207.947-.261.316-.712.505-.766.379-.055-.128.325-.2.603-.508.256-.281.188-.81.37-.817Zm2.951-.016c-.148-.005-.055.63.208.946.261.316.712.505.766.379.055-.127-.325-.2-.604-.508-.257-.281-.189-.81-.37-.817Zm-1.312.691c0 .556.028 1.006-.093 1.006-.151 0-.095-.45-.095-1.006 0-.555-.05-1.006.095-1.006.133-.001.093.45.093 1.006Z" fill="#848DA0"/></svg>