<svg fill="none" xmlns="http://www.w3.org/2000/svg" viewBox="0 0 50 50"><path d="M27 35.14v3.72c0 .638-.88 1.14-2 1.14s-2-.502-2-1.14v-3.72c0-.639.88-1.14 2-1.14s2 .501 2 1.14ZM27 11.177v4.02c0 .659-.88.803-2 .803s-2-.145-2-.804v-4.019c0-.66.88-1.177 2-1.177s2 .518 2 1.177ZM16.684 22c-.221 0-.446-.062-.652-.196l-6.37-4.02c-.63-.409-.85-1.318-.488-2.031.36-.715 1.161-.967 1.793-.554l6.37 4.02c.63.409.85 1.317.49 2.031-.243.481-.686.75-1.143.75ZM10.322 35c-.459 0-.904-.27-1.147-.755-.363-.718-.142-1.633.491-2.044l6.358-4.002c.63-.414 1.44-.16 1.801.558.363.718.143 1.632-.49 2.043l-6.359 4.003a1.19 1.19 0 0 1-.654.197ZM39.678 35c-.222 0-.448-.062-.654-.196l-6.358-4.022c-.633-.408-.854-1.317-.491-2.03.36-.714 1.165-.965 1.801-.554l6.358 4.021c.633.409.854 1.317.491 2.031-.243.481-.688.75-1.147.75ZM33.392 22c-.483 0-.952-.27-1.208-.755-.382-.718-.15-1.632.517-2.044L38.5 15.5c.667-.415 1.516-.162 1.897.557.382.719.15 1.633-.517 2.044l-5.8 3.702a1.303 1.303 0 0 1-.688.197Z" fill="#848DA0"/><path d="M41.956 18C40.337 18 39 16.664 39 15s1.337-3 2.956-3C43.603 12 45 13.365 45 15s-1.397 3-3.044 3ZM41.956 38C40.337 38 39 36.664 39 35s1.337-3 2.956-3C43.603 32 45 33.365 45 35s-1.397 3-3.044 3ZM7.773 37.535C6.262 37.535 5 36.3 5 34.844c0-1.455 1.262-2.692 2.773-2.692a2.696 2.696 0 0 1 2.692 2.692 2.696 2.696 0 0 1-2.692 2.691ZM22.309 42.227c0-1.49 1.2-2.692 2.691-2.692 1.49 0 2.691 1.201 2.691 2.692C27.691 43.746 26.462 45 25 45c-1.462 0-2.691-1.255-2.691-2.773ZM22.309 7.773C22.309 6.254 23.538 5 25 5c1.462 0 2.691 1.254 2.691 2.773A2.686 2.686 0 0 1 25 10.465a2.686 2.686 0 0 1-2.691-2.692ZM7.773 17.848C6.262 17.848 5 16.61 5 15.156s1.262-2.691 2.773-2.691a2.696 2.696 0 0 1 2.692 2.691 2.696 2.696 0 0 1-2.692 2.692Z" stroke="#848DA0" stroke-width="2"/><path d="M16 25c0-4.958 4.042-9 9-9s9 4.042 9 9c0 4.957-4.043 9-9 9s-9-4.043-9-9Z" stroke="#848DA0" stroke-width="4"/></svg>