<svg fill="none" xmlns="http://www.w3.org/2000/svg" viewBox="0 0 50 50"><path fill-rule="evenodd" clip-rule="evenodd" d="M28.251 7.667c.996 0 1.191.012 1.356.05.182.043.357.113.519.207.146.084.296.21 1.021.893l6.446 6.074c.787.742.932.897 1.03 1.05.108.171.189.358.238.554.045.176.059.389.059 1.47V36.64a5.707 5.707 0 0 1-5.707 5.706H16.8a5.707 5.707 0 0 1-5.707-5.706V13.374A5.707 5.707 0 0 1 16.8 7.667H28.25Zm2.225-3.653c-.65-.153-1.315-.152-2.07-.151H16.8a9.51 9.51 0 0 0-9.51 9.51V36.64a9.51 9.51 0 0 0 9.51 9.51h16.413a9.51 9.51 0 0 0 9.511-9.51V17.797c.001-.82.002-1.541-.175-2.239a5.706 5.706 0 0 0-.716-1.658c-.386-.607-.912-1.102-1.508-1.662l-.123-.116-6.446-6.074-.112-.106c-.55-.518-1.034-.976-1.61-1.31a5.706 5.706 0 0 0-1.558-.618ZM29.18 9.85a.76.76 0 0 0-1.275.56v4.901c0 1.4 1.135 2.536 2.536 2.536h5.314a.76.76 0 0 0 .53-1.307l-3.31-3.203L29.18 9.85ZM15.727 25.006c0-1.05.852-1.902 1.903-1.902h6.682a1.902 1.902 0 0 1 0 3.805H17.63a1.902 1.902 0 0 1-1.902-1.903Zm1.903 5.95a1.902 1.902 0 0 0 0 3.804h13.364a1.902 1.902 0 1 0 0-3.804H17.63Z" fill="#848DA0"/></svg>