<svg fill="none" xmlns="http://www.w3.org/2000/svg" viewBox="0 0 50 50"><path d="M34.33 21.234c-.354.566-.142 1.351.521 1.425a5.736 5.736 0 1 0 .554-11.435c-.667.01-.954.772-.657 1.37a8.84 8.84 0 0 1 .923 3.946 8.836 8.836 0 0 1-1.341 4.694ZM41.903 33.347c.188.598.81 1.04 1.383.783 1.605-.72 2.577-1.748 2.577-3.096 0-2.945-4.643-6.297-10.37-6.297-.636 0-1.259.042-1.863.12-.963.123-.91 1.38.01 1.693 4.282 1.455 7.422 4.129 8.263 6.797ZM14.546 22.695c.217 0 .43-.012.642-.036.663-.073.875-.86.521-1.425a8.836 8.836 0 0 1-1.341-4.694 8.84 8.84 0 0 1 .923-3.945c.297-.599.01-1.36-.658-1.37l-.087-.001a5.735 5.735 0 1 0 0 11.47ZM4.176 31.034c0 1.348.973 2.376 2.577 3.096.572.257 1.195-.185 1.383-.783.84-2.668 3.981-5.342 8.263-6.797.92-.313.973-1.57.01-1.694a14.654 14.654 0 0 0-1.863-.119c-5.727 0-10.37 3.352-10.37 6.297Z" fill="#848DA0"/><path d="M30.98 16.54a5.861 5.861 0 1 1-11.723 0 5.861 5.861 0 0 1 11.723 0Zm-5.862 22.814c-3.709 0-6.922-.466-9.138-1.32-2.303-.889-2.906-1.906-2.906-2.716 0-1.056.922-2.684 3.23-4.167 2.208-1.42 5.33-2.443 8.814-2.443 3.485 0 6.607 1.023 8.816 2.443 2.308 1.483 3.23 3.111 3.23 4.167 0 .81-.603 1.827-2.907 2.715-2.216.855-5.43 1.32-9.139 1.32Z" stroke="#848DA0" stroke-width="3.582"/></svg>