<svg fill="none" xmlns="http://www.w3.org/2000/svg" viewBox="0 0 50 50"><path fill-rule="evenodd" clip-rule="evenodd" d="M22.218 4.153c-9.992 0-18.052 8.181-18.052 18.223S12.226 40.6 22.218 40.6c9.992 0 18.052-8.18 18.052-18.223A18.31 18.31 0 0 0 34.99 9.5a17.967 17.967 0 0 0-12.772-5.346ZM8.522 22.376c0-7.68 6.154-13.867 13.696-13.867a13.61 13.61 0 0 1 9.676 4.054 13.954 13.954 0 0 1 4.02 9.813c0 7.68-6.154 13.867-13.696 13.867S8.522 30.057 8.522 22.376Zm31.303 14.381a2.178 2.178 0 0 0-3.08 3.08l5.384 5.384a2.178 2.178 0 1 0 3.08-3.08l-5.384-5.384Z" fill="#848DA0"/></svg>