<svg fill="none" xmlns="http://www.w3.org/2000/svg" viewBox="0 0 50 50"><mask id="a" fill="#fff"><path d="M4.166 16.09a9.614 9.614 0 0 1 9.614-9.614h22.453a9.614 9.614 0 0 1 9.614 9.614v17.833a9.614 9.614 0 0 1-9.614 9.615H13.78a9.614 9.614 0 0 1-9.614-9.614V16.09Z"/></mask><path d="M13.78 10.597h22.453V2.356H13.78v8.24Zm27.947 5.493v17.833h8.24V16.09h-8.24Zm-5.494 23.327H13.78v8.241h22.453v-8.24ZM8.286 33.923V16.09H.046v17.833h8.24Zm5.494 5.494a5.494 5.494 0 0 1-5.494-5.494H.046c0 7.586 6.149 13.735 13.734 13.735v-8.24Zm27.947-5.494a5.494 5.494 0 0 1-5.494 5.494v8.241c7.585 0 13.734-6.15 13.734-13.735h-8.24Zm-5.494-23.326a5.494 5.494 0 0 1 5.494 5.493h8.24c0-7.585-6.149-13.734-13.734-13.734v8.24ZM13.78 2.356C6.195 2.356.046 8.505.046 16.09h8.24a5.494 5.494 0 0 1 5.494-5.493V2.356Z" fill="#848DA0" mask="url(#a)"/><path d="M12.754 16.316c-.933-.457-2.021.017-2.43 1.06-.41 1.041.015 2.256.948 2.713l12.99 6.364.028.014a1.671 1.671 0 0 0 1.464-.014l12.99-6.364c.932-.457 1.357-1.672.948-2.714-.41-1.042-1.497-1.516-2.43-1.06l-11.046 5.412a2.747 2.747 0 0 1-2.417 0l-11.045-5.411Z" fill="#848DA0"/><path d="M34.501 32.608v-.012c-.002-.016.002-.034.022-.054.02-.02.054-.04.105-.042l6.99.386c.026.002.04.01.05.016a.099.099 0 0 1 .03.043.1.1 0 0 1 .006.053.082.082 0 0 1-.025.045l-.484.483c-.43.43-.43 1.12 0 1.55l6.275 6.277c.022.021.03.046.03.068a.095.095 0 0 1-.03.068l-3.98 3.981a.094.094 0 0 1-.069.03.094.094 0 0 1-.068-.03l-6.275-6.276c-.43-.43-1.12-.43-1.55 0l-.484.484a.082.082 0 0 1-.044.025.1.1 0 0 1-.053-.006.099.099 0 0 1-.043-.03.084.084 0 0 1-.016-.05l-.387-7.009Z" fill="#848DA0" stroke="#fff"/></svg>