<svg fill="none" xmlns="http://www.w3.org/2000/svg" viewBox="0 0 50 50"><mask id="a" fill="#fff"><path d="M4.166 16.09a9.614 9.614 0 0 1 9.614-9.614h22.453a9.614 9.614 0 0 1 9.614 9.614v17.833a9.614 9.614 0 0 1-9.614 9.615H13.78a9.614 9.614 0 0 1-9.614-9.615V16.09Z"/></mask><path d="M13.78 10.597h22.453V2.356H13.78v8.24Zm27.947 5.493v17.833h8.24V16.09h-8.24Zm-5.494 23.327H13.78v8.241h22.453v-8.24ZM8.286 33.923V16.09H.046v17.833h8.24Zm5.494 5.494a5.494 5.494 0 0 1-5.494-5.494H.046c0 7.586 6.149 13.735 13.734 13.735v-8.24Zm27.947-5.494a5.494 5.494 0 0 1-5.494 5.494v8.241c7.585 0 13.734-6.15 13.734-13.735h-8.24Zm-5.494-23.327a5.494 5.494 0 0 1 5.494 5.494h8.24c0-7.585-6.149-13.734-13.734-13.734v8.24ZM13.78 2.356C6.195 2.356.046 8.505.046 16.09h8.24a5.494 5.494 0 0 1 5.494-5.493V2.356Z" fill="#848DA0" mask="url(#a)"/><path d="M12.754 16.316c-.933-.457-2.021.017-2.43 1.06-.41 1.041.015 2.256.948 2.713l12.99 6.364.028.014a1.673 1.673 0 0 0 1.464-.014l12.99-6.364c.932-.457 1.357-1.672.948-2.714-.41-1.042-1.497-1.516-2.43-1.06l-11.046 5.412a2.747 2.747 0 0 1-2.417 0l-11.045-5.411Z" fill="#848DA0"/><path d="M48.842 36.917a8.925 8.925 0 1 1-17.85 0 8.925 8.925 0 0 1 17.85 0Z" fill="#848DA0" stroke="#fff" stroke-width="1.984"/><path d="M40.91 32.75a.992.992 0 1 0-1.984 0h1.984Zm2.032 8.274a.992.992 0 0 0 1.232-1.555l-1.232 1.555Zm-4.016-8.275v3.974h1.984V32.75h-1.984Zm.877 5.789 3.14 2.486 1.231-1.555-3.139-2.487-1.232 1.556Zm-.877-1.815c0 .707.323 1.376.877 1.815l1.232-1.556a.33.33 0 0 1-.125-.259h-1.984Z" fill="#fff"/></svg>