<svg fill="none" xmlns="http://www.w3.org/2000/svg" viewBox="0 0 50 50"><path d="m9.94 24.804.007.007-.008-.007Zm.007.385a.031.031 0 0 1-.008.007l.008-.007Zm8.114.007a.03.03 0 0 1-.008-.007l.008.007Zm-.008-.385a.03.03 0 0 1 .008-.007l-.008.007ZM30.94 24.804l.007.007-.008-.007Zm.007.385a.03.03 0 0 1-.008.007l.008-.007Zm8.114.007a.03.03 0 0 1-.008-.007l.008.007Zm-.008-.385a.03.03 0 0 1 .008-.007l-.008.007ZM16 41h-2.667a.333.333 0 1 1 0-.667H16A2.334 2.334 0 0 0 18.333 38v-6.667a.333.333 0 1 1 .667 0V38c0 1.653-1.347 3-3 3ZM18.667 19a.333.333 0 0 1-.334-.333V12A2.334 2.334 0 0 0 16 9.667h-2.667a.333.333 0 1 1 0-.667H16c1.653 0 3 1.347 3 3v6.667a.333.333 0 0 1-.333.333ZM35.667 41H33c-1.653 0-3-1.347-3-3v-6.667a.333.333 0 1 1 .667 0V38A2.334 2.334 0 0 0 33 40.333h2.667a.333.333 0 1 1 0 .667ZM30.333 19a.333.333 0 0 1-.333-.333V12c0-1.653 1.347-3 3-3h2.667a.333.333 0 1 1 0 .667H33A2.334 2.334 0 0 0 30.667 12v6.667a.333.333 0 0 1-.334.333Z" fill="#5A5D9D" stroke="#848DA0" stroke-width="2"/><path d="M19.608 19.5h9.784c1.212 0 2.108.934 2.108 2v7c0 1.065-.897 2-2.108 2h-9.784c-1.211 0-2.108-.935-2.108-2v-7c0-1.066.896-2 2.108-2ZM8.25 28.5h-2.5c-1.24 0-2.25-1.01-2.25-2.25v-2.5c0-1.24 1.01-2.25 2.25-2.25h2.5c1.24 0 2.25 1.01 2.25 2.25v2.5c0 1.24-1.01 2.25-2.25 2.25ZM43.25 28.5h-2.5c-1.24 0-2.25-1.01-2.25-2.25v-2.5c0-1.24 1.01-2.25 2.25-2.25h2.5c1.24 0 2.25 1.01 2.25 2.25v2.5c0 1.24-1.01 2.25-2.25 2.25ZM39.875 44.5h-2.75a2.63 2.63 0 0 1-2.625-2.625v-2.75a2.63 2.63 0 0 1 2.625-2.625h2.75a2.63 2.63 0 0 1 2.625 2.625v2.75a2.63 2.63 0 0 1-2.625 2.625ZM11.875 44.5h-2.75A2.63 2.63 0 0 1 6.5 41.875v-2.75A2.63 2.63 0 0 1 9.125 36.5h2.75a2.63 2.63 0 0 1 2.625 2.625v2.75a2.63 2.63 0 0 1-2.625 2.625ZM39.875 13.5h-2.75a2.63 2.63 0 0 1-2.625-2.625v-2.75A2.63 2.63 0 0 1 37.125 5.5h2.75A2.63 2.63 0 0 1 42.5 8.125v2.75a2.63 2.63 0 0 1-2.625 2.625ZM11.875 13.5h-2.75A2.63 2.63 0 0 1 6.5 10.875v-2.75A2.63 2.63 0 0 1 9.125 5.5h2.75A2.63 2.63 0 0 1 14.5 8.125v2.75a2.63 2.63 0 0 1-2.625 2.625Z" stroke="#848DA0" stroke-width="3"/></svg>