<svg fill="none" xmlns="http://www.w3.org/2000/svg" viewBox="0 0 50 50"><mask id="a" fill="#fff"><path d="M23.334 43.105c0 1.309 0 1.963-.414 2.367-.413.405-1.056.39-2.341.36-2.825-.065-4.63-.276-6.136-.965a10.995 10.995 0 0 1-5.433-5.433c-.994-2.176-.994-4.972-.994-10.566v-7.722c0-5.594 0-8.391.994-10.567a10.995 10.995 0 0 1 5.433-5.433c1.506-.688 3.31-.9 6.136-.965 1.285-.03 1.928-.045 2.341.36.414.404.414 1.058.414 2.367v1.646a2.062 2.062 0 1 0 4.123 0V6.919c0-1.316 0-1.974.42-2.38.421-.405 1.062-.382 2.344-.335 2.385.087 3.992.32 5.355.942a10.995 10.995 0 0 1 5.433 5.433c.994 2.176.994 4.973.994 10.567v7.722c0 5.594 0 8.39-.994 10.566a10.995 10.995 0 0 1-5.433 5.433c-1.363.623-2.97.856-5.355.943-1.282.046-1.923.07-2.343-.336-.42-.405-.42-1.063-.42-2.38V41.46a2.062 2.062 0 1 0-4.124 0v1.645Z"/></mask><path d="m14.443 44.867-1.713 3.75 1.713-3.75ZM9.01 39.434l-3.75 1.714 3.75-1.714Zm0-28.855 3.75 1.713-3.75-1.713Zm5.433-5.433-1.713-3.75 1.713 3.75Zm21.133 0 1.713-3.75-1.713 3.75Zm5.433 5.433-3.75 1.713 3.75-1.713Zm0 28.855-3.75-1.713 3.75 1.713Zm-5.433 5.433-1.713-3.75 1.713 3.75Zm-5.355.943.15 4.12-.15-4.12ZM20.579 4.18 20.484.06l.095 4.122Zm2.341.36L20.04 7.49l2.881-2.95Zm7.3-.336-.15 4.12.15-4.12Zm-2.342.335-2.862-2.968 2.862 2.968Zm-7.3 41.294.096-4.123-.095 4.123Zm-7.848 2.785c2.34 1.069 4.895 1.27 7.754 1.337l.19-8.245c-2.791-.064-3.844-.285-4.518-.593l-3.426 7.5Zm-7.47-7.47a15.118 15.118 0 0 0 7.47 7.47l3.426-7.501a6.872 6.872 0 0 1-3.396-3.396l-7.5 3.427Zm-1.368-12.28c0 2.735-.002 5.012.136 6.87.141 1.901.447 3.692 1.231 5.41l7.501-3.427c-.21-.458-.401-1.154-.508-2.594-.11-1.482-.113-3.4-.113-6.26H3.892Zm0-7.722v7.722h8.247v-7.722H3.892ZM5.26 8.866c-.784 1.717-1.09 3.508-1.231 5.409-.138 1.859-.136 4.135-.136 6.87h8.247c0-2.858.003-4.776.113-6.258.107-1.44.299-2.136.508-2.595l-7.5-3.426Zm7.47-7.47a15.118 15.118 0 0 0-7.47 7.47l7.501 3.426a6.872 6.872 0 0 1 3.396-3.396l-3.426-7.5ZM20.485.058c-2.859.066-5.415.268-7.755 1.336l3.427 7.501c.674-.307 1.727-.529 4.518-.593l-.19-8.244Zm6.973 8.495V6.908h-8.246v1.646h8.246Zm-2.061-2.062c1.138 0 2.061.923 2.061 2.062h-8.246a6.185 6.185 0 0 0 6.185 6.185V6.492Zm-2.062 2.062c0-1.139.923-2.062 2.062-2.062v8.247a6.185 6.185 0 0 0 6.185-6.185h-8.247Zm0-1.635v1.635h8.247V6.919h-8.247ZM37.29 1.395C35.156.421 32.871.175 30.371.083l-.3 8.241c2.27.083 3.198.301 3.792.572l3.426-7.5Zm7.47 7.47a15.118 15.118 0 0 0-7.47-7.47l-3.426 7.501a6.872 6.872 0 0 1 3.395 3.396l7.502-3.426Zm1.367 12.28c0-2.735.003-5.011-.135-6.87-.142-1.9-.447-3.692-1.231-5.41l-7.502 3.427c.21.459.402 1.154.509 2.595.11 1.482.113 3.4.113 6.259h8.246Zm0 7.723v-7.722H37.88v7.722h8.246Zm-1.366 12.28c.784-1.718 1.09-3.509 1.23-5.41.139-1.858.136-4.135.136-6.87H37.88c0 2.858-.003 4.777-.113 6.259-.107 1.44-.3 2.136-.509 2.594l7.502 3.427Zm-7.47 7.47a15.118 15.118 0 0 0 7.47-7.47l-7.502-3.427a6.872 6.872 0 0 1-3.395 3.396l3.426 7.5Zm-6.92 1.312c2.5-.091 4.786-.338 6.92-1.312l-3.427-7.501c-.594.271-1.522.49-3.792.572l.3 8.241Zm-7.036-8.47v1.634h8.247V41.46h-8.247Zm2.062 2.061a2.062 2.062 0 0 1-2.062-2.061h8.247a6.185 6.185 0 0 0-6.185-6.185v8.246Zm2.061-2.061a2.062 2.062 0 0 1-2.061 2.061v-8.246a6.185 6.185 0 0 0-6.185 6.185h8.246Zm0 1.645V41.46h-8.246v1.645h8.246Zm2.614-1.416c-.337.012-.558.02-.738.022-.183.002-.218-.005-.178 0 .045.004.27.03.58.15.34.133.694.346 1.005.645l-5.724 5.936c1.119 1.08 2.406 1.379 3.282 1.47.73.077 1.554.037 2.073.018l-.3-8.24Zm-6.737 1.405c0 .538-.01 1.37.092 2.097.118.857.454 2.156 1.59 3.251l5.724-5.936c.321.31.548.664.69 1 .128.3.16.52.164.555.005.031-.003-.013-.008-.203a31.8 31.8 0 0 1-.005-.764h-8.247Zm-2.66-34.791c.337-.008.56-.013.742-.012.184 0 .223.007.187.003a2.293 2.293 0 0 1-.564-.152 3.058 3.058 0 0 1-1-.652l5.763-5.898C24.692.508 23.41.202 22.55.102 21.826.018 21.006.047 20.484.06l.19 8.244Zm6.783-1.395c0-.535.01-1.36-.09-2.082-.116-.848-.444-2.139-1.565-3.234L20.04 7.49a3.065 3.065 0 0 1-.681-.997 2.258 2.258 0 0 1-.16-.548c-.005-.03.003.014.008.204.005.188.005.416.005.759h8.246Zm4.124.011c0-.345 0-.575.005-.763.005-.191.013-.235.008-.203a2.269 2.269 0 0 1-.164.555 3.06 3.06 0 0 1-.69 1L25.016 1.57c-1.136 1.095-1.472 2.394-1.59 3.251-.101.728-.092 1.559-.092 2.097h8.247ZM30.37.083c-.519-.019-1.343-.058-2.073.018-.876.092-2.163.391-3.282 1.47l5.724 5.936c-.31.3-.664.513-1.006.646-.308.12-.534.145-.579.15-.04.004-.005-.002.178 0 .18.001.401.009.738.021l.3-8.24Zm-9.887 49.872c.522.012 1.342.04 2.066-.044.86-.1 2.143-.405 3.252-1.49l-5.763-5.897a3.056 3.056 0 0 1 1-.653c.303-.12.524-.147.564-.152.036-.004-.003.003-.187.003-.183.001-.405-.004-.742-.012l-.19 8.245Zm-1.273-6.85c0 .343 0 .572-.005.76-.005.19-.013.234-.009.203.005-.033.036-.25.16-.548.14-.332.363-.685.682-.996l5.763 5.898c1.12-1.096 1.45-2.387 1.566-3.234.099-.723.09-1.547.09-2.083H19.21Z" fill="#848DA0" mask="url(#a)"/><path fill-rule="evenodd" clip-rule="evenodd" d="M30.975 24.537a2.062 2.062 0 1 0-.008-4.123l-10.972.021a2.062 2.062 0 1 0 .008 4.123l10.972-.021Zm0 6a2.062 2.062 0 1 0-.008-4.123l-10.972.021a2.061 2.061 0 1 0 .008 4.123l10.972-.021Z" fill="#848DA0"/></svg>