<svg fill="none" xmlns="http://www.w3.org/2000/svg" viewBox="0 0 50 50"><path d="M8.4 13.328h26.1v4.5H8.4v-4.5ZM8.4 26.828h26.1v4.5H8.4v-4.5Z" fill="#848DA0"/><path d="M4.318 4.934h34.454c.186 0 .318.133.318.319v7.91a.306.306 0 0 1-.319.318H4.319A.306.306 0 0 1 4 13.163v-7.91c0-.186.132-.319.318-.319Z" stroke="#848DA0" stroke-width="2"/><path d="M10.91 9.208c0 .73-.589 1.318-1.318 1.318-.73 0-1.319-.589-1.319-1.318 0-.73.59-1.319 1.319-1.319.73 0 1.318.59 1.318 1.319ZM16.184 9.208c0 .73-.59 1.318-1.319 1.318-.73 0-1.318-.589-1.318-1.318 0-.73.589-1.319 1.318-1.319.73 0 1.319.59 1.319 1.319Z" fill="#848DA0"/><path d="M4.318 18.118h34.454c.186 0 .318.132.318.318v7.91a.306.306 0 0 1-.319.319H4.319A.306.306 0 0 1 4 26.346v-7.91c0-.186.132-.318.318-.318Z" stroke="#848DA0" stroke-width="2"/><path d="M10.91 22.391c0 .73-.589 1.319-1.318 1.319-.73 0-1.319-.59-1.319-1.319 0-.73.59-1.318 1.319-1.318.73 0 1.318.589 1.318 1.318ZM16.184 22.391c0 .73-.59 1.319-1.319 1.319-.73 0-1.318-.59-1.318-1.319 0-.73.589-1.318 1.318-1.318.73 0 1.319.589 1.319 1.318Z" fill="#848DA0"/><path d="M4.318 31.302h34.454c.186 0 .318.132.318.318v7.91a.306.306 0 0 1-.319.318H4.319A.306.306 0 0 1 4 39.53v-7.91c0-.186.132-.318.318-.318Z" stroke="#848DA0" stroke-width="2"/><path d="M10.91 35.575c0 .73-.589 1.318-1.318 1.318-.73 0-1.319-.589-1.319-1.318 0-.73.59-1.318 1.319-1.318.73 0 1.318.589 1.318 1.318ZM16.184 35.575c0 .73-.59 1.318-1.319 1.318-.73 0-1.318-.589-1.318-1.318 0-.73.589-1.318 1.318-1.318.73 0 1.319.589 1.319 1.318Z" fill="#848DA0"/><path d="M30.466 35.25H19.225v2.03h11.24v-2.03Z" fill="#fff"/><path d="M36.778 30.875c2.71 0 5.013 1.538 6.096 3.75a1.69 1.69 0 0 0-1.19.498 1.625 1.625 0 0 0 .004 2.382l2.131 2.095c.275.404.732.668 1.206.747a1.71 1.71 0 0 0 1.516-.473l2.437-2.368a1.625 1.625 0 0 0 .004-2.383A1.707 1.707 0 0 0 46.708 35c-1.147-4.31-5.15-7.501-9.93-7.501-5.665 0-10.278 4.462-10.278 10s4.613 10 10.278 10c3.233 0 6.338-1.519 8.268-4.044l.005-.006.004-.007c.538-.751.422-1.807-.385-2.36-.765-.566-1.82-.386-2.392.333l-.007.01c-1.274 1.678-3.325 2.699-5.493 2.699-3.771 0-6.834-2.996-6.834-6.625 0-3.63 3.063-6.625 6.834-6.625Z" fill="#848DA0" stroke="#fff"/></svg>