<svg fill="none" xmlns="http://www.w3.org/2000/svg" viewBox="0 0 50 50"><path fill-rule="evenodd" clip-rule="evenodd" d="M37.722 4.383a2.123 2.123 0 1 0-1.597 3.934 9.99 9.99 0 0 1 5.871 6.595 2.123 2.123 0 0 0 4.092-1.13 14.236 14.236 0 0 0-8.366-9.399Zm-10.21 2.572c-.751-.75-1.709-.941-2.5-.886-.769.053-1.493.335-2.095.688-1.179.69-2.35 1.926-2.793 3.484l-2.748 9.672a6.578 6.578 0 0 1-1.676 2.854l-2.272 2.271c-1.004 1.004-1.776 2.172-2.224 3.365a2 2 0 0 0-2.618 3.011l10 10a2 2 0 0 0 3.323-2.01c.978-.335 1.944-.89 2.823-1.614l2.154 1.678a2.546 2.546 0 0 0 2.762.228l3.088-1.632c.954-.51 1.44-1.527 1.206-2.545l-.652-2.831a.857.857 0 0 0-.11-.263l7.108-2.02c1.558-.443 2.794-1.614 3.484-2.793.353-.602.635-1.326.688-2.096.055-.79-.135-1.748-.886-2.499L27.512 6.955Zm3.954 25.957-.85.241a6.579 6.579 0 0 0-2.853 1.676l-1.717 1.717 2.015 1.565a.64.64 0 0 0 .689.058l3.088-1.632a.575.575 0 0 0 .301-.638l-.652-2.83a.85.85 0 0 1-.021-.157Zm-7.662-21.625c.118-.414.525-.924 1.045-1.228.093-.055.173-.092.238-.118l15.501 15.501a1.788 1.788 0 0 1-.118.238c-.304.52-.814.928-1.228 1.045l-9.671 2.748a10.404 10.404 0 0 0-4.514 2.651l-2.271 2.272c-.822.821-1.703 1.297-2.387 1.468-.338.085-.576.082-.713.059a.438.438 0 0 1-.13-.041v-.002h-.001l-4.906-4.906-.001-.002a.438.438 0 0 1-.04-.13c-.025-.136-.027-.374.057-.712.171-.684.647-1.565 1.468-2.386l2.272-2.272a10.405 10.405 0 0 0 2.651-4.514l2.748-9.671Z" fill="#848DA0"/></svg>