<svg fill="none" xmlns="http://www.w3.org/2000/svg" viewBox="0 0 50 50"><path fill-rule="evenodd" clip-rule="evenodd" d="M15.156 8.29h19.702a6.866 6.866 0 0 1 6.866 6.866v19.702a6.866 6.866 0 0 1-6.866 6.866H15.156a6.866 6.866 0 0 1-6.866-6.866V15.156a6.866 6.866 0 0 1 6.866-6.866ZM4.17 15.156C4.17 9.089 9.088 4.17 15.156 4.17h19.702c6.067 0 10.986 4.919 10.986 10.986v19.702c0 6.067-4.919 10.986-10.986 10.986H15.156c-6.068 0-10.986-4.919-10.986-10.986V15.156Zm12.796.661a1.486 1.486 0 1 0 0 2.972 1.486 1.486 0 0 0 0-2.972Zm-5.21 1.486a5.21 5.21 0 1 1 10.42 0 5.21 5.21 0 0 1-10.42 0Zm14.32 8.05c2.755-3.171 7.666-3.214 10.477-.09l2.828 3.142a2.06 2.06 0 1 1-3.062 2.756l-2.828-3.143a2.874 2.874 0 0 0-4.306.038l-3.076 3.54a3.433 3.433 0 0 1-4.574.551l-1.506-1.065a1.777 1.777 0 0 0-2.325.237l-.329.352a2.1 2.1 0 0 1-.041.043l-3.515 3.545a2.06 2.06 0 0 1-2.926-2.9l3.494-3.524.309-.33a5.897 5.897 0 0 1 7.712-.787l.999.707 2.668-3.071Z" fill="#848DA0"/></svg>