<svg fill="none" xmlns="http://www.w3.org/2000/svg" viewBox="0 0 50 50"><mask id="a" fill="#fff"><path d="M14.584 41.667c0-1.151.933-2.084 2.083-2.084h16.667a2.083 2.083 0 1 1 0 4.167H16.667a2.083 2.083 0 0 1-2.083-2.083Z"/></mask><path d="M23.584 41.667a6.917 6.917 0 0 1-6.917 6.916v-18c-6.12 0-11.083 4.962-11.083 11.084h18Zm-6.917 6.916h16.667v-18H16.667v18Zm16.667 0a6.917 6.917 0 0 1-6.917-6.916h18c0-6.122-4.962-11.084-11.083-11.084v18Zm-6.917-6.916a6.917 6.917 0 0 1 6.917-6.917v18c6.121 0 11.083-4.962 11.083-11.083h-18Zm6.917-6.917H16.667v18h16.667v-18Zm-16.667 0a6.917 6.917 0 0 1 6.917 6.917h-18c0 6.12 4.962 11.083 11.083 11.083v-18Z" fill="#848DA0" mask="url(#a)"/><path d="M10.344 8.268 9.693 6.99l.65 1.278c.422-.215.975-.36 1.924-.438.967-.079 2.208-.08 3.983-.08h17.5c1.775 0 3.016.001 3.983.08.95.078 1.502.223 1.923.438a4.75 4.75 0 0 1 2.076 2.075c.215.422.36.975.438 1.924.079.967.08 2.208.08 3.983v9.167c0 1.775-.001 3.016-.08 3.982-.078.95-.223 1.502-.438 1.924a4.75 4.75 0 0 1-2.075 2.076c-.422.215-.975.36-1.924.438-.967.078-2.208.08-3.983.08h-17.5c-1.775 0-3.016-.002-3.983-.08-.95-.078-1.502-.223-1.923-.438a4.75 4.75 0 0 1-2.076-2.076c-.215-.422-.36-.974-.438-1.924-.079-.966-.08-2.207-.08-3.982V16.25c0-1.775.001-3.016.08-3.983.078-.95.223-1.502.438-1.923a4.75 4.75 0 0 1 2.075-2.076Z" stroke="#848DA0" stroke-width="3"/><path d="M25.71 29.42a6.29 6.29 0 0 1-6.29-6.291V12l.178.075a8.623 8.623 0 0 1 5.212 7.003 1.907 1.907 0 0 0 3.803-.208v-2.98l.643.638A9.31 9.31 0 0 1 32 23.13a6.29 6.29 0 0 1-6.29 6.29Z" fill="#848DA0"/><path d="M25.71 27.484a4.844 4.844 0 0 1-4.839-4.839v-2.42a.484.484 0 0 1 .968 0v2.42a3.876 3.876 0 0 0 5.591 3.469.486.486 0 0 1 .649.218.484.484 0 0 1-.218.649 4.792 4.792 0 0 1-2.151.503ZM29.331 25.548a.483.483 0 0 1-.401-.753 3.852 3.852 0 0 0 .651-2.15v-.968a.484.484 0 0 1 .968 0v.968a4.815 4.815 0 0 1-.815 2.689.484.484 0 0 1-.403.214ZM21.355 18.774a.484.484 0 0 1-.484-.484v-2.419a.484.484 0 0 1 .968 0v2.42a.484.484 0 0 1-.484.483Z" fill="#9CA2B0"/><path d="M26.677 18.29a.484.484 0 0 1-.484-.483v-.484a.483.483 0 1 1 .968 0v.483a.484.484 0 0 1-.484.484ZM26.677 16.355a.484.484 0 0 1-.484-.484v-.968a.484.484 0 1 1 .968 0v.968a.484.484 0 0 1-.484.484ZM17.484 22.161a.484.484 0 0 1-.484-.484v-.483a.484.484 0 0 1 .968 0v.483a.483.483 0 0 1-.484.484ZM17.484 19.742a.484.484 0 0 1-.484-.484v-1.451a.484.484 0 0 1 .968 0v1.451a.484.484 0 0 1-.484.484Z" fill="#848DA0"/></svg>