<svg fill="none" xmlns="http://www.w3.org/2000/svg" viewBox="0 0 50 50"><path fill-rule="evenodd" clip-rule="evenodd" d="M24.466 19.742a4.446 4.446 0 1 0 0-8.89 4.446 4.446 0 0 0 0 8.89ZM20.2 27.674a22.29 22.29 0 0 1 4.65-.489c1.44 0 2.834.139 4.16.39 6.735 1.278 11.69 5.473 11.69 9.234 0 4.5-7.097 6.675-15.85 6.675-8.754 0-15.85-2.174-15.85-6.675 0-3.669 4.715-7.751 11.2-9.135Zm.457-4.478a8.733 8.733 0 0 0 4.193.86 8.766 8.766 0 0 0 8.383-8.758 8.766 8.766 0 1 0-12.576 7.898Zm-5.46 14.607c2.175.839 5.545 1.36 9.653 1.36 4.107 0 7.477-.521 9.653-1.36 1.266-.489 1.717-.89 1.86-1.078-.03-.126-.126-.392-.414-.793-.423-.587-1.15-1.296-2.227-1.988-2.157-1.386-5.306-2.438-8.872-2.438-3.567 0-6.715 1.052-8.872 2.438-1.076.692-1.803 1.4-2.227 1.988-.288.401-.383.667-.415.793.144.189.594.59 1.861 1.078Zm-1.92-1.194c.006 0 .023.024.034.08-.034-.05-.04-.078-.034-.08Zm23.146 0c.005.002 0 .03-.033.08.01-.056.027-.081.033-.08Z" fill="#848DA0"/><path d="m35.825 35.173-2.59 2.948h1.331m1.26-2.948 9.314-2.714m-9.315 2.714a1.015 1.015 0 0 0-.092-1.428m.092 1.428-2.159 6.07.846 1m.054-4.122-.878 1H38.375a6.712 6.712 0 0 0 6.765-6.662m-10.574 5.662H38.384a5.712 5.712 0 0 0 5.756-5.668m-9.574 5.668 2.01-2.288a2.015 2.015 0 0 0-.155-2.815m8.719-.559-1-.008v.002m1 .006h-1v-.006m0 0c0-.064.005-.12.01-.155v-.009l.006-.057a1.956 1.956 0 0 1 1.95-1.739l.044-.017.203.004c1.06.02 1.929.89 1.929 1.969V32.513c-.068 5.436-4.526 9.796-9.963 9.73h-3.807m1.91-9.224-.03-.03-.044-.035a2.056 2.056 0 0 0-2.884.305m2.957-.24.01.01.01.01-.708.707m.688-.727a3.577 3.577 0 0 0-.028-.025l-.513.584-.147.168m-2.269-.487-4.935 5.779m4.935-5.779.01-.01.76.65m-.77-.64-.011.015.78.624m-5.704 5.14a2.011 2.011 0 0 0 0 2.719m0-2.72.02-.021.727.687m-.747-.665-.014.016.76.65m-.746 2.053 4.934 5.776m-4.934-5.776-.014-.017.76-.65m-.746.667.02.022.727-.688m4.187 6.442c.695.86 1.946.993 2.809.31l.046-.036.012-.012m-2.867-.262-.014-.017.785-.62m-.771.637.01.012.76-.65m2.097.9.02-.017.07-.062m-.09.079.029-.029a.728.728 0 0 1-.046.043l-.006.004s.002 0 .005-.004l.018-.014Zm.09-.08a2.225 2.225 0 0 0 .188-2.993l-.01-.011-.01-.012-2.076-2.455m1.907 5.472-.005.005-.69-.723m.695.718a.542.542 0 0 0 .011-.011l-.707-.707m-1.211-4.754h-1.31l2.623 3.101c.398.5.357 1.214-.102 1.653m0 0a.435.435 0 0 1-.036.03c-.012.01-.025.02-.035.031a1.007 1.007 0 0 1-1.418-.163m0 0-4.959-5.805m0 0c-.367-.388-.367-1 0-1.388m0 0 4.959-5.804m0 0c.367-.46 1.03-.531 1.49-.164l.01.01M16.296 1.71l-.009-.009a2.053 2.053 0 0 0-2.899-.19 2.166 2.166 0 0 0-.2 3.054l2.072 2.45h-4.297C5.526 6.951 1.068 11.31 1 16.746V16.809c0 1.114.897 2.01 2.01 2.01h.003a1.955 1.955 0 0 0 2.102-1.732l.007-.057v-.008c.004-.036.01-.095.01-.161 0-3.16 2.561-5.713 5.713-5.713H15.196L13.2 13.42a1.964 1.964 0 0 0 .043 2.742v.001c.019.019.097.1.198.173.4.307.889.43 1.334.412h.012l.013-.002a2.177 2.177 0 0 0 1.469-.702l.01-.012.01-.011 4.95-5.797c.703-.79.713-1.976.01-2.766L16.296 1.71Z" fill="#848DA0" stroke="#fff" stroke-width="2"/></svg>