<svg fill="none" xmlns="http://www.w3.org/2000/svg" viewBox="0 0 50 50"><path d="M10.955 14.787H39.04v5.107H10.955v-5.107ZM10.955 29.255H39.04v5.107H10.955v-5.107Z" fill="#848DA0"/><path d="M6.422 6.426h37.156c.27 0 .422.186.422.383v8.297c0 .197-.152.383-.422.383H6.422c-.27 0-.422-.186-.422-.383V6.81c0-.197.152-.383.422-.383Z" stroke="#848DA0" stroke-width="2"/><path d="M13.508 10.957c0 .707-.57 1.277-1.276 1.277-.707 0-1.277-.57-1.277-1.277 0-.706.57-1.276 1.277-1.276.706 0 1.276.57 1.276 1.277ZM19.47 10.957c0 .707-.571 1.277-1.277 1.277-.707 0-1.277-.57-1.277-1.277 0-.706.57-1.276 1.277-1.276.706 0 1.276.57 1.276 1.277Z" fill="#848DA0"/><path d="M6.422 20.043h37.156c.27 0 .422.186.422.383v8.298c0 .196-.152.382-.422.382H6.422c-.27 0-.422-.186-.422-.383v-8.297c0-.197.152-.383.422-.383Z" stroke="#848DA0" stroke-width="2"/><path d="M13.508 24.574c0 .707-.57 1.277-1.276 1.277-.707 0-1.277-.57-1.277-1.277 0-.706.57-1.276 1.277-1.276.706 0 1.276.57 1.276 1.276ZM19.47 24.574c0 .707-.571 1.277-1.277 1.277-.707 0-1.277-.57-1.277-1.277 0-.706.57-1.276 1.277-1.276.706 0 1.276.57 1.276 1.276Z" fill="#848DA0"/><path d="M6.422 34.51h37.156c.27 0 .422.187.422.384v8.297c0 .197-.152.383-.422.383H6.422c-.27 0-.422-.186-.422-.383v-8.297c0-.197.152-.383.422-.383Z" stroke="#848DA0" stroke-width="2"/><path d="M13.508 39.042c0 .707-.57 1.277-1.276 1.277-.707 0-1.277-.57-1.277-1.277 0-.706.57-1.276 1.277-1.276.706 0 1.276.57 1.276 1.276ZM19.47 39.042c0 .707-.571 1.277-1.277 1.277-.707 0-1.277-.57-1.277-1.277 0-.706.57-1.276 1.277-1.276.706 0 1.276.57 1.276 1.276Z" fill="#848DA0"/></svg>