<svg fill="none" xmlns="http://www.w3.org/2000/svg" viewBox="0 0 50 50"><mask id="a" fill="#fff"><path d="M4 25.614A9.614 9.614 0 0 1 13.614 16h11.772A9.614 9.614 0 0 1 35 25.614v8.772A9.614 9.614 0 0 1 25.386 44H13.614A9.614 9.614 0 0 1 4 34.386v-8.772Z"/></mask><path d="M13.614 20.12h11.772v-8.24H13.614v8.24Zm17.266 5.494v8.772h8.24v-8.772h-8.24ZM25.386 39.88H13.614v8.24h11.772v-8.24ZM8.12 34.386v-8.772H-.12v8.772h8.24Zm5.494 5.494a5.494 5.494 0 0 1-5.494-5.494H-.12c0 7.585 6.149 13.734 13.734 13.734v-8.24Zm17.266-5.494a5.494 5.494 0 0 1-5.494 5.494v8.24c7.585 0 13.734-6.149 13.734-13.734h-8.24ZM25.386 20.12a5.494 5.494 0 0 1 5.494 5.494h8.24c0-7.585-6.149-13.734-13.734-13.734v8.24Zm-11.772-8.24C6.03 11.88-.12 18.029-.12 25.614h8.24a5.494 5.494 0 0 1 5.494-5.494v-8.24Z" fill="#848DA0" mask="url(#a)"/><path d="M12.568 24.1c-.566-.262-1.225.01-1.473.605-.249.597.009 1.292.575 1.553l7.877 3.64.018.009a1.065 1.065 0 0 0 .87 0l.018-.008 7.877-3.64c.566-.262.824-.957.576-1.553-.249-.597-.908-.868-1.474-.606L21.152 27a2.747 2.747 0 0 1-2.304 0l-6.28-2.901Z" fill="#848DA0"/><path d="M36.563 12.906c-.998 0-1.813.815-1.813 1.813 0 .997.815 1.812 1.813 1.812.997 0 1.812-.815 1.812-1.812 0-.998-.815-1.813-1.813-1.813ZM41.781 14.719c0 .568.464 1.031 1.032 1.031.567 0 1.03-.463 1.03-1.031 0-4.015-3.266-7.281-7.28-7.281-.568 0-1.032.463-1.032 1.03 0 .569.464 1.032 1.032 1.032 2.879 0 5.218 2.34 5.218 5.219Z" fill="#848DA0" stroke="#848DA0" stroke-width=".5"/><path d="M46.469 14.719c0 .568.463 1.031 1.031 1.031.568 0 1.031-.463 1.031-1.031 0-6.603-5.366-11.969-11.968-11.969-.568 0-1.032.463-1.032 1.031 0 .568.464 1.031 1.032 1.031 5.457 0 9.906 4.45 9.906 9.907Z" fill="#848DA0" stroke="#848DA0" stroke-width=".5"/></svg>