<svg fill="none" xmlns="http://www.w3.org/2000/svg" viewBox="0 0 50 50"><mask id="a" fill="#fff"><path d="M14.584 41.667c0-1.15.933-2.084 2.083-2.084h16.667a2.083 2.083 0 0 1 0 4.167H16.667a2.083 2.083 0 0 1-2.083-2.083Z"/></mask><path d="M23.584 41.667a6.917 6.917 0 0 1-6.917 6.916v-18c-6.12 0-11.083 4.962-11.083 11.084h18Zm-6.917 6.916h16.667v-18H16.667v18Zm16.667 0a6.917 6.917 0 0 1-6.917-6.916h18c0-6.122-4.962-11.084-11.083-11.084v18Zm-6.917-6.916a6.917 6.917 0 0 1 6.917-6.917v18c6.121 0 11.083-4.962 11.083-11.083h-18Zm6.917-6.917H16.667v18h16.667v-18Zm-16.667 0a6.917 6.917 0 0 1 6.917 6.917h-18c0 6.12 4.962 11.083 11.083 11.083v-18Z" fill="#848DA0" mask="url(#a)"/><path d="M10.344 8.268 9.693 6.99l.65 1.278c.422-.215.975-.36 1.924-.438.967-.079 2.208-.08 3.983-.08h17.5c1.775 0 3.016.001 3.983.08.95.078 1.502.223 1.924.438a4.75 4.75 0 0 1 2.075 2.075c.215.422.36.975.438 1.924.079.967.08 2.208.08 3.983v9.167c0 1.775-.001 3.016-.08 3.982-.078.95-.223 1.502-.438 1.924a4.75 4.75 0 0 1-2.075 2.076c-.422.215-.975.36-1.924.438-.967.078-2.208.08-3.983.08h-17.5c-1.775 0-3.016-.002-3.983-.08-.95-.078-1.502-.223-1.923-.438a4.75 4.75 0 0 1-2.076-2.076c-.215-.422-.36-.974-.438-1.924-.079-.966-.08-2.207-.08-3.982V16.25c0-1.775.001-3.016.08-3.983.078-.95.223-1.502.438-1.923a4.75 4.75 0 0 1 2.075-2.076Z" stroke="#848DA0" stroke-width="3"/><path d="M35.945 26H31.99A.994.994 0 0 1 31 25v-8c0-.553.442-1 .989-1 .546 0 .989.447.989 1v7h2.967c.547 0 1.055.447 1.055 1 0 .553-.508 1-1.055 1ZM25 16c-.34 0-.68.04-1 .14-1.72.44-3 2-3 3.86v2a3.99 3.99 0 0 0 3 3.86c.32.1.66.14 1 .14 2.2 0 4-1.8 4-4v-2c0-2.2-1.8-4-4-4Zm2 6c0 1.1-.9 2-2 2-.36 0-.7-.1-1-.28-.6-.34-1-.98-1-1.72v-2c0-.74.4-1.38 1-1.72.3-.18.64-.28 1-.28 1.1 0 2 .9 2 2v2ZM16 26h-2a1 1 0 1 1 0-2h2a1 1 0 0 0 0-2c-1.654 0-3-1.346-3-3s1.346-3 3-3h2a1 1 0 1 1 0 2h-2a1 1 0 0 0 0 2c1.654 0 3 1.346 3 3s-1.346 3-3 3Z" fill="#848DA0"/><path d="M28 26a.997.997 0 0 1-.707-.293l-2-2a1 1 0 1 1 1.414-1.414l2 2A1 1 0 0 1 28 26Z" fill="#848DA0"/></svg>