<svg fill="none" xmlns="http://www.w3.org/2000/svg" viewBox="0 0 50 50"><path d="M8.4 13.328h26.1v4.5H8.4v-4.5ZM8.4 26.828h26.1v4.5H8.4v-4.5Z" fill="#848DA0"/><path d="M4.318 4.934h34.454c.186 0 .318.133.318.319v7.91a.306.306 0 0 1-.319.318H4.319A.306.306 0 0 1 4 13.163v-7.91c0-.186.132-.319.318-.319Z" stroke="#848DA0" stroke-width="2"/><path d="M10.91 9.208c0 .73-.589 1.318-1.318 1.318-.73 0-1.319-.589-1.319-1.318 0-.73.59-1.319 1.319-1.319.73 0 1.318.59 1.318 1.319ZM16.184 9.208c0 .73-.59 1.318-1.319 1.318-.73 0-1.318-.589-1.318-1.318 0-.73.589-1.319 1.318-1.319.73 0 1.319.59 1.319 1.319Z" fill="#848DA0"/><path d="M4.318 18.118h34.454c.186 0 .318.132.318.318v7.91a.306.306 0 0 1-.319.319H4.319A.306.306 0 0 1 4 26.346v-7.91c0-.186.132-.318.318-.318Z" stroke="#848DA0" stroke-width="2"/><path d="M10.91 22.391c0 .73-.589 1.319-1.318 1.319-.73 0-1.319-.59-1.319-1.319 0-.73.59-1.318 1.319-1.318.73 0 1.318.589 1.318 1.318ZM16.184 22.391c0 .73-.59 1.319-1.319 1.319-.73 0-1.318-.59-1.318-1.319 0-.73.589-1.318 1.318-1.318.73 0 1.319.589 1.319 1.318Z" fill="#848DA0"/><path d="M4.318 31.302h34.454c.186 0 .318.132.318.318v7.91a.306.306 0 0 1-.319.318H4.319A.306.306 0 0 1 4 39.53v-7.91c0-.186.132-.319.318-.319Z" stroke="#848DA0" stroke-width="2"/><path d="M40.09 31.62v7.91c0 .738-.58 1.318-1.319 1.318H21.546V30.302h17.227c.738 0 1.318.58 1.318 1.318ZM10.91 35.575c0 .73-.589 1.318-1.318 1.318-.73 0-1.319-.589-1.319-1.318 0-.73.59-1.318 1.319-1.318.73 0 1.318.589 1.318 1.318ZM16.184 35.575c0 .73-.59 1.318-1.319 1.318-.73 0-1.318-.589-1.318-1.318 0-.73.589-1.318 1.318-1.318.73 0 1.319.589 1.319 1.318Z" fill="#848DA0"/><rect x="13.8" y="28.628" width="33.3" height="17.1" rx="4.5" fill="#848DA0" stroke="#fff" stroke-width="1.8"/><path d="M41.708 35.25H30.467l-1.354 1.02 1.354 1.01h11.241v-2.03ZM36.627 41.35v-2.03h-6.161l-2.03 1.01 2.03 1.02h6.161Z" fill="#fff"/><path d="M30.466 39.32h-6.161v2.03h6.16v-2.03ZM30.466 35.25H19.225v2.03h11.24v-2.03Z" fill="#fff"/></svg>