<svg fill="none" xmlns="http://www.w3.org/2000/svg" viewBox="0 0 50 50"><g clip-path="url(#a)"><path d="M4.716 25.031V13.3L25.02 1.573l20.267 11.698v23.482L27.72 46.906l-.01.006-.01.006a86.325 86.325 0 0 1-2.674 1.536L4.717 36.749V25.031Z" stroke="#848DA0" stroke-width="3"/><path d="M17.784 20.594V34.5c0 1.572-1.25 2.96-2.914 2.914-1.015-.047-1.803-.462-2.343-1.34-.279-.416-.37-.879-.37-1.388V15.369c0-1.297.785-2.219 1.802-2.636 1.018-.417 2.035-.324 3.053 0 .972.278 1.711.878 2.344 1.619L31.66 29.106c.047.047.094.14.185.231V15.275c0-1.48 1.015-2.636 2.453-2.775 1.803-.231 3.006 1.063 3.19 2.406v19.688c0 1.093-.509 1.897-1.434 2.406-.694.37-1.434.462-2.219.416a5.047 5.047 0 0 1-3.053-1.296c-.462-.415-.786-.925-1.203-1.387L17.875 20.717c0-.047-.047-.094-.094-.14l.003.017Z" fill="#848DA0"/></g><defs><clipPath id="a"><path fill="#fff" d="M0 0h50v50H0z"/></clipPath></defs></svg>