<svg fill="none" xmlns="http://www.w3.org/2000/svg" viewBox="0 0 50 58"><path d="M47.33 52.11h.362v-.807h.286a.82.82 0 0 1 .403.067.504.504 0 0 1 .192.47v.165l.008.062a.12.12 0 0 1 .005.026c.002.01.003.013.008.017h.336l-.012-.023a.237.237 0 0 1-.016-.105c-.005-.058-.005-.107-.005-.153v-.153a.586.586 0 0 0-.112-.32.522.522 0 0 0-.358-.2.885.885 0 0 0 .298-.098.447.447 0 0 0 .2-.406.505.505 0 0 0-.316-.522 1.58 1.58 0 0 0-.563-.073h-.717v2.053Zm1.03-1.107a.937.937 0 0 1-.344.046h-.324v-.748H48c.15-.009.299.019.435.08a.31.31 0 0 1 .137.3.316.316 0 0 1-.213.322Zm1.053-1.234a1.821 1.821 0 0 0-1.331-.544 1.873 1.873 0 1 0 1.043 3.43 1.876 1.876 0 0 0 .288-2.886Zm-.19.186a1.533 1.533 0 0 1 .47 1.14 1.609 1.609 0 0 1-2.751 1.144 1.59 1.59 0 0 1-.468-1.145 1.615 1.615 0 0 1 2.228-1.498c.197.082.374.204.52.359" fill="#848DA0"/><mask id="a" fill="#fff"><path d="M3.334 41c.22.378.541.69.927.905L23.24 52.664a2.525 2.525 0 0 0 2.523 0l18.977-10.76c.386-.215.706-.527.928-.904A2.41 2.41 0 0 0 46 39.76V18.242A2.41 2.41 0 0 0 45.665 17a2.468 2.468 0 0 0-.928-.904L25.76 5.337a2.522 2.522 0 0 0-2.52 0L4.262 16.097a2.466 2.466 0 0 0-.928.903 2.41 2.41 0 0 0-.333 1.241V39.76c-.005.435.11.864.332 1.24"/></mask><path d="m4.261 41.905 1.973-3.48-.017-.01-.017-.01-1.939 3.5ZM23.24 52.664l-1.973 3.48 2.623 1.487 2.152-2.113-2.802-2.854Zm0 0 1.999-3.466-2.633-1.518-2.168 2.13 2.802 2.853Zm2.523 0-1.973-3.48-.013.007-.013.007 1.998 3.465Zm18.977-10.76-1.946-3.494-.013.007-.013.007 1.972 3.48ZM46 39.76h-4v.015l.001.016 4-.031Zm0-21.518h4v-1.678l-1.197-1.176L46 18.242Zm0 0-4-.031-.013 1.696 1.21 1.188L46 18.241Zm-1.26-2.146-1.974 3.48.014.008.013.007 1.946-3.495ZM25.76 5.337h-4v2.33l2.028 1.15 1.972-3.48Zm0 0h4v-2.31l-2-1.154-2 3.464ZM24.5 5v4-4Zm-1.26.337-2-3.464-2 1.154v2.31h4Zm0 0 1.973 3.48 2.027-1.15v-2.33h-4ZM4.262 16.097l1.945 3.495.014-.008.014-.008-1.973-3.48ZM3.001 18.24l2.802 2.855 1.21-1.19-.012-1.696-4 .031Zm0 0L.197 15.388-1 16.563v1.679h4ZM3 39.76 7 39.8v-.04H3Zm-3.12 3.26a6.448 6.448 0 0 0 2.442 2.383L6.2 38.407c.236.13.44.327.586.575l-6.905 4.04Zm2.407 2.364 18.978 10.76 3.945-6.96L6.234 38.425l-3.946 6.96Zm23.753 10.134-5.604-5.709h-.001l5.605 5.709Zm-4.8.61A6.526 6.526 0 0 0 24.5 57v-8c.254 0 .508.066.737.198l-3.997 6.93ZM24.5 57c1.14 0 2.266-.3 3.259-.872l-3.997-6.93c.228-.132.483-.198.737-.198v8Zm3.233-.857 18.978-10.76-3.945-6.959-18.978 10.76 3.945 6.959Zm18.952-10.745a6.466 6.466 0 0 0 2.429-2.37l-6.897-4.055c.143-.243.344-.435.575-.563l3.893 6.988Zm2.429-2.37A6.409 6.409 0 0 0 50 39.729l-8 .062a1.591 1.591 0 0 1 .218-.818l6.897 4.055ZM50 39.76V18.242h-8V39.76h8Zm-1.197-24.372h-.001l-5.605 5.707 5.605-5.707Zm1.196 2.884a6.41 6.41 0 0 0-.885-3.3l-6.896 4.056a1.589 1.589 0 0 1-.219-.817l8 .06Zm-.885-3.3a6.468 6.468 0 0 0-2.43-2.37l-3.892 6.989a1.532 1.532 0 0 1-.574-.563l6.896-4.055Zm-2.403-2.355L27.733 1.857l-3.945 6.96 18.977 10.76 3.946-6.96Zm-16.95-7.28h-8 8ZM27.76 1.873A6.522 6.522 0 0 0 24.5 1v8c-.256 0-.51-.067-.74-.199l4-6.928ZM24.5 1c-1.142 0-2.267.3-3.26.873l4 6.928A1.479 1.479 0 0 1 24.5 9V1Zm-5.26 4.337h8-8Zm2.027-3.48L2.29 12.618l3.945 6.96 18.977-10.76-3.945-6.96ZM2.317 12.602a6.467 6.467 0 0 0-2.43 2.37l6.895 4.058a1.533 1.533 0 0 1-.575.563l-3.89-6.991Zm-2.43 2.37A6.41 6.41 0 0 0-1 18.273l8-.062a1.59 1.59 0 0 1-.219.819l-6.895-4.057Zm.312.416H.198l5.604 5.71v-.001L.2 15.386ZM-1 18.242V39.76h8V18.242h-8Zm0 21.479a6.396 6.396 0 0 0 .887 3.311L6.78 38.97c.145.247.224.534.22.83L-1 39.721Z" fill="#848DA0" mask="url(#a)"/><path d="M17.395 33.647c.08.138.195.252.333.33l6.819 3.937a.89.89 0 0 0 .906 0l6.818-3.936a.885.885 0 0 0 .453-.785V25.32a.896.896 0 0 0-.453-.785L25.453 20.6a.89.89 0 0 0-.906 0l-6.818 3.936a.891.891 0 0 0-.453.785v7.873c-.002.16.04.316.12.454" fill="#fff"/></svg>