<svg fill="none" xmlns="http://www.w3.org/2000/svg" viewBox="0 0 50 50"><path fill-rule="evenodd" clip-rule="evenodd" d="M8.286 27.201v.572c0 3.306.005 5.49.166 7.15.156 1.596.425 2.267.682 2.675l-3.484 2.2c-1.484-2.352-1.484-5.577-1.484-12.026V17.666c0-2.152 0-3.228.172-4.124a9.614 9.614 0 0 1 7.634-7.635c.896-.171 1.972-.171 4.124-.171 2.152 0 3.228 0 4.124.171a9.611 9.611 0 0 1 6.016 3.855c.572.8.857 1.2 1.153 1.353.296.152.688.152 1.473.152h.477c6.45 0 9.674 0 12.025 1.484a9.615 9.615 0 0 1 2.998 2.998c1.484 2.351 1.484 5.576 1.484 12.025 0 6.448 0 9.673-1.484 12.024a9.614 9.614 0 0 1-2.998 2.998c-2.351 1.484-5.576 1.484-12.025 1.484h-8.666c-6.45 0-9.673 0-12.025-1.484a9.613 9.613 0 0 1-2.998-2.998l3.484-2.2a5.494 5.494 0 0 0 1.713 1.714c.408.257 1.08.526 2.676.682 1.66.161 3.844.166 7.15.166h8.666c3.306 0 5.49-.005 7.15-.166 1.596-.156 2.268-.425 2.675-.682a5.493 5.493 0 0 0 1.713-1.713c.258-.408.527-1.08.682-2.676.162-1.66.167-3.843.167-7.15 0-3.306-.005-5.489-.166-7.15-.156-1.596-.425-2.267-.683-2.675a5.494 5.494 0 0 0-1.713-1.713c-.407-.257-1.079-.526-2.675-.682-1.66-.161-3.844-.166-7.15-.166H28.788c-.322 0-.773 0-1.18-.033a5.517 5.517 0 0 1-2.104-.576c-.926-.476-1.51-1.162-1.772-1.482a20.895 20.895 0 0 1-.848-1.138 5.491 5.491 0 0 0-3.439-2.204c-.415-.08-1.006-.098-3.349-.098-2.342 0-2.934.019-3.35.098a5.494 5.494 0 0 0-4.362 4.363c-.08.415-.098 1.007-.098 3.35V27.2Z" fill="#848DA0"/><path d="M28.49 26.939a.449.449 0 1 1-.897 0v-2.948A2.596 2.596 0 0 0 25 21.397a2.596 2.596 0 0 0-2.594 2.594v2.948a.449.449 0 0 1-.897 0v-2.948a3.496 3.496 0 0 1 3.491-3.491 3.496 3.496 0 0 1 3.491 3.491v2.948Z" fill="#fff" stroke="#848DA0"/><path d="M21 33.232v-6.457h8v6.457h-8Z" fill="#fff" stroke="#848DA0" stroke-width="2"/></svg>