<svg fill="none" xmlns="http://www.w3.org/2000/svg" viewBox="0 0 50 50"><mask id="a" fill="#fff"><path d="M14.584 41.667c0-1.151.933-2.084 2.083-2.084h16.667a2.083 2.083 0 1 1 0 4.167H16.667a2.083 2.083 0 0 1-2.083-2.083Z"/></mask><path d="M23.584 41.667a6.917 6.917 0 0 1-6.917 6.916v-18c-6.12 0-11.083 4.962-11.083 11.084h18Zm-6.917 6.916h16.667v-18H16.667v18Zm16.667 0a6.917 6.917 0 0 1-6.917-6.916h18c0-6.122-4.962-11.084-11.083-11.084v18Zm-6.917-6.916a6.917 6.917 0 0 1 6.917-6.917v18c6.121 0 11.083-4.962 11.083-11.083h-18Zm6.917-6.917H16.667v18h16.667v-18Zm-16.667 0a6.917 6.917 0 0 1 6.917 6.917h-18c0 6.12 4.962 11.083 11.083 11.083v-18Z" fill="#848DA0" mask="url(#a)"/><path d="M10.344 8.268 9.693 6.99l.65 1.278c.422-.215.975-.36 1.924-.438.967-.079 2.208-.08 3.983-.08h17.5c1.775 0 3.016.001 3.983.08.95.078 1.502.223 1.923.438a4.75 4.75 0 0 1 2.076 2.075c.215.422.36.975.438 1.924.079.967.08 2.208.08 3.983v9.167c0 1.775-.001 3.016-.08 3.982-.078.95-.223 1.502-.438 1.924a4.75 4.75 0 0 1-2.075 2.076c-.422.215-.975.36-1.924.438-.967.078-2.208.08-3.983.08h-17.5c-1.775 0-3.016-.002-3.983-.08-.95-.078-1.502-.223-1.923-.438a4.75 4.75 0 0 1-2.076-2.076c-.215-.422-.36-.974-.438-1.924-.079-.966-.08-2.207-.08-3.982V16.25c0-1.775.001-3.016.08-3.983.078-.95.223-1.502.438-1.923a4.75 4.75 0 0 1 2.075-2.076Z" stroke="#848DA0" stroke-width="3"/><path d="M15.692 22.328v3.144H14V17h3.084c1 0 1.752.24 2.256.72.512.48.768 1.132.768 1.956 0 .808-.264 1.452-.792 1.932-.52.48-1.264.72-2.232.72h-1.392Zm1.212-1.356c.992 0 1.488-.432 1.488-1.296 0-.424-.116-.748-.348-.972-.232-.224-.612-.336-1.14-.336h-1.212v2.604h1.212ZM28.656 17v8.472h-1.704v-3.684h-3.624v3.684h-1.692V17h1.692v3.432h3.624V17h1.704ZM32.31 22.328v3.144H30.62V17h3.084c1 0 1.752.24 2.256.72.512.48.768 1.132.768 1.956 0 .808-.264 1.452-.792 1.932-.52.48-1.264.72-2.232.72H32.31Zm1.213-1.356c.992 0 1.488-.432 1.488-1.296 0-.424-.116-.748-.348-.972-.232-.224-.612-.336-1.14-.336H32.31v2.604h1.212Z" fill="#848DA0"/></svg>