<svg fill="none" xmlns="http://www.w3.org/2000/svg" viewBox="0 0 50 50"><path d="M36 22.5c0 .84-.568 1.5-1.291 1.5H24.29C23.568 24 23 23.34 23 22.5s.568-1.5 1.291-1.5H34.71c.723 0 1.291.66 1.291 1.5ZM12.198 33c-.262 0-.527-.1-.748-.304-.517-.481-.6-1.356-.188-1.956l3.601-5.22c.416-.594 1.17-.697 1.687-.216.517.48.601 1.355.188 1.956l-3.601 5.218c-.238.343-.586.522-.939.522ZM15.721 20c-.376 0-.747-.175-1-.513L9.28 12.222c-.441-.59-.351-1.45.2-1.923.552-.471 1.356-.375 1.8.214l5.44 7.265c.441.59.351 1.45-.2 1.923-.236.201-.518.299-.799.299ZM22.279 20c-.28 0-.563-.098-.8-.3-.55-.472-.64-1.332-.2-1.922l5.442-7.266c.442-.588 1.248-.684 1.799-.214.551.473.641 1.333.2 1.923l-5.44 7.266a1.252 1.252 0 0 1-1.002.513ZM28.577 40c-.495 0-.975-.234-1.238-.654l-7.15-11.402c-.392-.622-.154-1.415.529-1.77.68-.361 1.552-.14 1.943.482l7.15 11.403c.392.622.154 1.415-.529 1.77-.223.117-.466.171-.705.171Z" fill="#A2AABB"/><path d="M36 22c0 1.12-.568 2-1.291 2H24.29C23.568 24 23 23.12 23 22h13Z" fill="#A2AABB"/><path d="M19.5 16a6.502 6.502 0 0 0-6.5 6.5c0 3.588 2.912 6.5 6.5 6.5s6.5-2.912 6.5-6.5-2.912-6.5-6.5-6.5ZM8.5 42A6.508 6.508 0 0 1 2 35.5C2 31.916 4.916 29 8.5 29s6.5 2.916 6.5 6.5S12.084 42 8.5 42ZM40.543 16C36.979 16 34 18.912 34 22.5s2.979 6.5 6.543 6.5S47 26.088 47 22.5 44.107 16 40.543 16ZM30 45c-2.206 0-4-1.794-4-4s1.794-4 4-4 4 1.794 4 4-1.794 4-4 4ZM9 13c-2.206 0-4-1.794-4-4s1.794-4 4-4 4 1.794 4 4-1.794 4-4 4ZM30 13c-2.206 0-4-1.794-4-4s1.794-4 4-4 4 1.794 4 4-1.557 4-4 4Z" fill="#848DA0"/><path d="M13 22h13c0 3.864-2.912 7-6.5 7S13 25.864 13 22ZM47 22c0 3.864-2.893 7-6.457 7S34 25.864 34 22h13Z" fill="#848DA0"/></svg>