<svg fill="none" xmlns="http://www.w3.org/2000/svg" viewBox="0 0 50 50"><path d="m21.357 22.5-.395 22.107-12.37-4.973c-.047-.02-.092-.073-.092-.155V22.5h12.857ZM34.38 39.643 22.5 44.587V22.5h12v16.982c0 .046-.031.12-.12.161Z" stroke="#848DA0" stroke-width="2"/><path d="m20.785 23.27-4.042 4.175-.001.002a.153.153 0 0 1-.076.043.093.093 0 0 1-.06-.007l-.01-.005L5.113 22.52c-.091-.041-.145-.151-.095-.269l.005-.012.004-.01.022-.02.036-.04L7.947 19h27.114l2.86 3.168.01.01.009.01c.076.08.081.206.012.292a.649.649 0 0 1-.092.067l-11.444 4.944a.136.136 0 0 1-.078.006.14.14 0 0 1-.071-.036l-4.043-4.19-.719-.745-.72.743Z" fill="#fff" stroke="#848DA0" stroke-width="2"/><path d="m37.944 16.303-.012.013-.013.014-2.86 3.17H7.941l-2.855-3.164a.914.914 0 0 1-.068-.088l-.002-.004a.203.203 0 0 1-.002-.157.209.209 0 0 1 .102-.117l11.46-4.952a.16.16 0 0 1 .088-.01.122.122 0 0 1 .064.036l4.028 4.3.728.779.73-.777 4.043-4.302a.15.15 0 0 1 .074-.042.077.077 0 0 1 .049.003l.007.003.008.004 11.486 4.964.013.005.002.001a.269.269 0 0 1 .017.015l.01.01.01.01a.198.198 0 0 1 .01.286Z" fill="#fff" stroke="#848DA0" stroke-width="2"/><path d="M7.5 19.313 21.5 25l14-5.688-14-5.687-14 5.688Z" fill="#848DA0"/><path d="M45.662 13.42a.485.485 0 0 0 .306-.403c.02-.234.032-.474.032-.708 0-.234-.013-.474-.032-.708a.484.484 0 0 0-.306-.403l-1.339-.533a6.79 6.79 0 0 0-.78-1.877l.572-1.332a.496.496 0 0 0-.065-.5 7.32 7.32 0 0 0-.48-.527 7.317 7.317 0 0 0-.527-.48.469.469 0 0 0-.5-.065l-1.333.571a6.8 6.8 0 0 0-1.878-.78l-.533-1.338a.485.485 0 0 0-.403-.305A8.616 8.616 0 0 0 37.688 4c-.24 0-.475.013-.709.032a.484.484 0 0 0-.403.305l-.533 1.339a6.799 6.799 0 0 0-1.878.78l-1.332-.572a.496.496 0 0 0-.5.065c-.183.15-.358.312-.527.48a7.343 7.343 0 0 0-.481.527.468.468 0 0 0-.065.5l.572 1.332a6.797 6.797 0 0 0-.78 1.877l-1.339.533a.484.484 0 0 0-.306.403c-.019.234-.032.474-.032.714s.013.475.032.709c.02.182.137.338.306.403l1.339.532c.162.663.429 1.293.78 1.878l-.572 1.332a.496.496 0 0 0 .065.5c.15.182.312.357.48.526.17.169.345.331.527.48a.469.469 0 0 0 .5.066l1.333-.572a6.8 6.8 0 0 0 1.878.78l.533 1.338c.065.169.221.286.403.305.234.02.475.033.709.033.234 0 .474-.013.708-.033a.485.485 0 0 0 .403-.305l.533-1.338a6.8 6.8 0 0 0 1.878-.78l1.333.572a.497.497 0 0 0 .5-.065c.182-.15.358-.312.526-.48.17-.17.332-.345.481-.527a.468.468 0 0 0 .066-.5l-.572-1.332a6.79 6.79 0 0 0 .78-1.878l1.338-.539Z" fill="#848DA0"/><path d="M37.688 17.125a4.813 4.813 0 1 0 0-9.625 4.813 4.813 0 0 0 0 9.625Z" fill="#fff"/><path d="M37.688 14.5a2.188 2.188 0 1 0 0-4.375 2.188 2.188 0 0 0 0 4.375Z" fill="#848DA0"/></svg>