<svg fill="none" xmlns="http://www.w3.org/2000/svg" viewBox="0 0 50 50"><g clip-path="url(#a)"><path d="M1.5 32.68v-5.79h35.281v5.79H1.5ZM1.5 20.96v-5.788h26.492v5.789H1.5ZM1.5 9.242V3.453h16.14v5.79H1.5Z" stroke="#848DA0" stroke-width="3"/><path d="M38.857 38.447a1.49 1.49 0 0 0-.761 1.29V41.2l-36.621-.068A1.45 1.45 0 0 0 .01 42.597L0 45.527c0 .82.645 1.465 1.465 1.465l36.62.068v1.465c0 .528.294 1.026.763 1.29a1.494 1.494 0 0 0 1.523-.06l5.87-4.384c.41-.293.644-.733.644-1.23 0-.498-.235-.938-.645-1.231l-5.85-4.404a1.56 1.56 0 0 0-1.533-.059Z" fill="#848DA0"/></g><defs><clipPath id="a"><path fill="#fff" d="M0 0h50v50H0z"/></clipPath></defs></svg>