<svg fill="none" xmlns="http://www.w3.org/2000/svg" viewBox="0 0 50 50"><path d="M48.5 25c0 12.979-10.521 23.5-23.5 23.5S1.5 37.979 1.5 25 12.021 1.5 25 1.5 48.5 12.021 48.5 25Z" stroke="#848DA0" stroke-width="3"/><path d="M16.524 31.892h-4.942V16.229l9.256-9.255h9.054l10.333 10.332v14.148l-6.748.438H16.524Z" fill="#fff"/><path d="M35.925 25c0 3.016-1.222 5.748-3.2 7.724a10.886 10.886 0 0 1-7.724 3.2 10.886 10.886 0 0 1-7.725-3.2 10.886 10.886 0 0 1-3.2-7.724c0-3.016 1.222-5.748 3.2-7.724a10.886 10.886 0 0 1 7.725-3.2c3.016 0 5.747 1.222 7.724 3.2a10.886 10.886 0 0 1 3.2 7.724Z" fill="#fff"/><path d="M5.896 24.4a19.04 19.04 0 0 1 5.282-12.6l4.694.236.372 4.87a11.879 11.879 0 0 0-3.156 7.54l-3.196 2.048L5.896 24.4Z" fill="#fff" stroke="#848DA0" stroke-width="2"/><path d="M15.748 32.523a.251.251 0 0 1-.021.335l-4.74 4.74a.255.255 0 0 1-.372-.013A19.03 19.03 0 0 1 5.912 26h7.204a11.872 11.872 0 0 0 2.632 6.523ZM12.212 10.797a19.033 19.033 0 0 1 12.283-4.903l2.766 3.813-2.744 3.378a11.873 11.873 0 0 0-7.212 2.806l-5.093-5.094ZM34.965 12.616l3.916-.753a19.038 19.038 0 0 1 5.22 12.467l-4.303 1.74-2.888-1.657a11.877 11.877 0 0 0-3.078-7.425l1.133-4.372Z" fill="#fff" stroke="#848DA0" stroke-width="2"/><path d="M26 5.913a19.031 19.031 0 0 1 11.789 4.884l-5.094 5.094A11.872 11.872 0 0 0 26 13.117V5.913ZM44.087 26a19.03 19.03 0 0 1-4.703 11.585.255.255 0 0 1-.372.012l-4.74-4.739a.251.251 0 0 1-.02-.335A11.87 11.87 0 0 0 36.883 26h7.204Z" fill="#fff" stroke="#848DA0" stroke-width="2"/><path d="m22.687 22.686 12.246-9.752a1.518 1.518 0 0 1 2.134 2.134l-9.752 12.246a3.294 3.294 0 1 1-4.628-4.628Z" fill="#848DA0"/><path d="M26.074 25a1.073 1.073 0 1 1-2.146 0 1.073 1.073 0 0 1 2.146 0Z" fill="#fff"/></svg>