<svg fill="none" xmlns="http://www.w3.org/2000/svg" viewBox="0 0 50 50"><path d="M45.991 45.147c0 .283-.075.476-.217.639-.224.157-.38.214-.616.214H4.833c-.175 0-.4-.07-.619-.217-.14-.163-.214-.355-.214-.636V19h42l-.009 26.147Z" stroke="#848DA0" stroke-width="2"/><path d="M25.004 29.334 43.877 46H6.124l18.88-16.666Z" stroke="#848DA0" stroke-width="2"/><path d="m25.602 32.772-.008.006-.009.006c-.382.29-.895.285-1.262.004l-.01-.008-.01-.007L9.818 22.226 4.7 18.5l5.124-3.725.002-.001 13.562-9.802.008-.006 1.009-.744.01-.007c.382-.29.895-.285 1.262-.004l.008.006.007.005 1.009.744.006.005 6.51 4.72.003.002 3.206 2.308 3.75 2.768.006.004L45.3 18.5l-5.124 3.725-.002.001-14.572 10.547Z" stroke="#848DA0" stroke-width="2"/><path d="m25.623 32.767-.008.006-.009.006a1.082 1.082 0 0 1-1.305.004l-.01-.008-.01-.007L10 22.463V5.861c0-.472.39-.861.86-.861h23.865L40 10.18v12.281L25.623 32.767Z" fill="#fff" stroke="#848DA0" stroke-width="2"/><path d="M36.546 9A.528.528 0 0 1 36 8.451V6.414L38.586 9h-2.04Z" stroke="#848DA0" stroke-width="2"/><path d="m25.014 16.37-8.03-4.392v9.66l8.03 4.4V16.37Z" fill="#A2AABB"/><path d="m25.014 16.37-8.03-4.392v9.66l8.03 4.4V16.37Z" fill="#A2AABB"/><path d="m33.035 11.978-8.021 4.392v9.669l8.02-4.4v-9.661Z" fill="#A2AABB"/><path d="m25.014 16.37-8.03-4.392 8.021-4.383 8.03 4.383-8.02 4.392Z" fill="#A2AABB"/><path d="m18.685 13.985-.298-.166a.376.376 0 0 0-.518.149.376.376 0 0 0 .15.517l.298.167a.357.357 0 0 0 .184.043c.131 0 .263-.07.333-.201a.363.363 0 0 0-.15-.509ZM23.971 16.878l-4.207-2.305a.376.376 0 0 0-.518.149.376.376 0 0 0 .15.517l4.207 2.306a.355.355 0 0 0 .184.043c.132 0 .263-.07.333-.201a.368.368 0 0 0-.149-.509Z" fill="#fff"/><path d="M33.238 11.645c-.01 0-.01 0 0 0l-.01-.009L25.2 7.262a.391.391 0 0 0-.368 0l-8.021 4.383s-.009 0-.009.009a.386.386 0 0 0-.184.333v9.669c0 .14.08.271.202.333l8.03 4.4a.357.357 0 0 0 .184.044.47.47 0 0 0 .184-.043l8.03-4.401a.384.384 0 0 0 .201-.333v-9.678a.485.485 0 0 0-.21-.333Zm-8.232-3.612 7.232 3.945-7.232 3.954-4.576-2.508-2.656-1.455 7.232-3.936Zm-7.644 4.585 7.267 3.971v8.801l-7.267-3.98v-8.792Zm8.03 12.772v-8.792l7.258-3.971v8.792l-7.258 3.971Z" fill="#7F8594"/></svg>