<svg fill="none" xmlns="http://www.w3.org/2000/svg" viewBox="0 0 50 50"><path fill-rule="evenodd" clip-rule="evenodd" d="m13.204 20.577-.553.115a5.498 5.498 0 0 0-4.368 5.38v11.194a5.495 5.495 0 0 0 5.495 5.495h22.456a5.495 5.495 0 0 0 5.495-5.495V26.072a5.498 5.498 0 0 0-4.365-5.38l-.554-.115H13.204Zm25-3.92c4.366.91 7.646 4.78 7.646 9.415v11.194a9.616 9.616 0 0 1-9.616 9.616H13.778a9.616 9.616 0 0 1-9.616-9.616V26.072c0-4.637 3.283-8.508 7.651-9.415v-1.554c0-6.611 5.36-11.971 11.97-11.971h2.45c6.612 0 11.971 5.36 11.971 11.97v1.556Zm-21.768-4.322a7.833 7.833 0 0 0-.502 2.768v1.353h18.149v-1.353c0-.974-.177-1.907-.502-2.768a7.853 7.853 0 0 0-7.348-5.082h-2.45a7.853 7.853 0 0 0-7.347 5.082Z" fill="#848DA0"/><path d="M26.255 32.781c-.061.023-.107.076-.107.128v.951A1.14 1.14 0 0 1 25.005 35a1.14 1.14 0 0 1-1.143-1.14v-.95c0-.846.44-1.608 1.143-2.046.167-.105.34-.189.538-.249a1.716 1.716 0 0 0 1.18-1.75 1.72 1.72 0 0 0-1.718-1.593c-.946 0-1.718.762-1.718 1.713a1.14 1.14 0 0 1-1.144 1.14A1.14 1.14 0 0 1 21 28.985c0-2.159 1.749-3.992 3.998-3.985a4.003 4.003 0 0 1 3.99 3.706 3.95 3.95 0 0 1-2.733 4.075ZM26 37.959v.082c0 .527-.444.959-1 .959-.55 0-1-.425-1-.959v-.082c0-.527.444-.959 1-.959.55.006 1 .432 1 .959Z" fill="#848DA0"/></svg>