<svg fill="none" xmlns="http://www.w3.org/2000/svg" viewBox="0 0 50 50"><path fill-rule="evenodd" clip-rule="evenodd" d="M29.607 7.718c-.165-.04-.36-.05-1.356-.05H16.8a5.707 5.707 0 0 0-5.707 5.706V36.64a5.707 5.707 0 0 0 5.707 5.706h16.413a5.707 5.707 0 0 0 5.707-5.706V17.964c0-1.08-.014-1.293-.059-1.47a1.901 1.901 0 0 0-.238-.552c-.098-.154-.243-.31-1.03-1.05l-6.446-6.075c-.725-.683-.875-.809-1.021-.893a1.903 1.903 0 0 0-.52-.207Zm-1.202-3.855c.756 0 1.422-.002 2.07.15a5.706 5.706 0 0 1 1.558.619c.577.334 1.062.792 1.61 1.31l.113.106 6.446 6.074.123.116c.596.56 1.122 1.055 1.508 1.662.325.511.567 1.071.716 1.659.177.697.176 1.419.175 2.238V36.64a9.51 9.51 0 0 1-9.51 9.51H16.8a9.51 9.51 0 0 1-9.51-9.51V13.374a9.51 9.51 0 0 1 9.51-9.511h11.605ZM15.727 16c0-1.05.851-1.902 1.902-1.902h6.682a1.902 1.902 0 0 1 0 3.804H17.63A1.902 1.902 0 0 1 15.727 16Zm1.902 5.95a1.902 1.902 0 0 0 0 3.804h13.364a1.902 1.902 0 0 0 0-3.804H17.63Z" fill="#848DA0"/></svg>