<svg fill="none" xmlns="http://www.w3.org/2000/svg" viewBox="0 0 50 50"><path d="M17.5 13a3.495 3.495 0 0 0-3.5 3.5c0 1.936 1.563 3.5 3.5 3.5s3.5-1.564 3.5-3.5c0-1.937-1.563-3.5-3.5-3.5ZM30.5 11C28.57 11 27 9.447 27 7.538 27 5.63 28.57 4 30.5 4S34 5.63 34 7.538C34 9.448 32.43 11 30.5 11ZM36.5 26a4.505 4.505 0 0 1-4.5-4.5c0-2.482 2.018-4.5 4.5-4.5s4.5 2.018 4.5 4.5-2.018 4.5-4.5 4.5ZM26 38c-3.308 0-6-2.692-6-6s2.692-6 6-6 6 2.692 6 6-2.692 6-6 6Z" fill="#848DA0"/><path d="M46 42.309v2.46c0 .69-.541 1.231-1.23 1.231-.69 0-1.23-.541-1.23-1.23v-1.23h-5.005v1.23c0 .688-.541 1.23-1.23 1.23-.69 0-1.23-.541-1.23-1.23v-1.23h-4.923v1.23c0 .688-.54 1.23-1.23 1.23s-1.23-.541-1.23-1.23v-1.23H23.77v1.23c0 .688-.542 1.23-1.23 1.23-.69 0-1.231-.541-1.231-1.23v-1.23h-4.922v1.23c0 .688-.542 1.23-1.23 1.23-.69 0-1.231-.541-1.231-1.23v-1.23H8.922v1.23c0 .688-.541 1.23-1.23 1.23-.69 0-1.231-.541-1.231-1.23v-1.23H5.23C4.54 43.54 4 42.997 4 42.308c0-.69.541-1.23 1.23-1.23h1.23v-5.005H5.23c-.689 0-1.23-.541-1.23-1.23 0-.69.541-1.23 1.23-1.23h1.23V28.69H5.23c-.689 0-1.23-.541-1.23-1.23 0-.69.541-1.23 1.23-1.23h1.23v-4.922H5.23c-.689 0-1.23-.542-1.23-1.23 0-.69.541-1.231 1.23-1.231h1.23v-4.922H5.23c-.689 0-1.23-.542-1.23-1.23 0-.69.541-1.231 1.23-1.231h1.23V6.46H5.23C4.541 6.46 4 5.919 4 5.23 4 4.54 4.541 4 5.23 4h2.461c.69 0 1.23.541 1.23 1.23v35.848H44.77c.689 0 1.23.541 1.23 1.23Z" fill="#848DA0"/></svg>