<svg fill="none" xmlns="http://www.w3.org/2000/svg" viewBox="0 0 50 50"><path fill-rule="evenodd" clip-rule="evenodd" d="M15.125 9.117h19.763a3.916 3.916 0 0 1 3.915 3.916V36.98a3.916 3.916 0 0 1-3.915 3.916H15.125a3.916 3.916 0 0 1-3.916-3.916V13.033a3.916 3.916 0 0 1 3.916-3.916Zm-7.832 3.916A7.832 7.832 0 0 1 15.125 5.2h19.763a7.832 7.832 0 0 1 7.831 7.832V36.98a7.832 7.832 0 0 1-7.831 7.832H15.125a7.832 7.832 0 0 1-7.832-7.832V13.033Zm16.749 10.733a1.958 1.958 0 0 1 3.915 0v11.303a1.958 1.958 0 0 1-3.915 0V23.766ZM32 37.105a1.958 1.958 0 0 1-1.958-1.958v-4.381a1.958 1.958 0 0 1 3.916 0v4.38A1.958 1.958 0 0 1 32 37.106ZM17.708 21a1.958 1.958 0 0 1 3.916 0v13.876a1.958 1.958 0 0 1-3.916 0V21Z" fill="#848DA0"/></svg>