<svg fill="none" xmlns="http://www.w3.org/2000/svg" viewBox="0 0 50 50"><path fill-rule="evenodd" clip-rule="evenodd" d="M15.156 8.29H34.86a6.866 6.866 0 0 1 6.866 6.866v15.96l-2.315-2.679a2.015 2.015 0 0 0-.028-.03l-2.828-3.143c-2.811-3.124-7.722-3.08-10.478.091l-2.669 3.071-.999-.706a5.897 5.897 0 0 0-7.712.786l-.309.33-3.488 3.52-2.609 2.592V15.156a6.866 6.866 0 0 1 6.866-6.867ZM9.842 39.206a6.853 6.853 0 0 0 5.314 2.517H34.86a6.87 6.87 0 0 0 6.52-4.708l-5.073-5.869-2.814-3.127a2.874 2.874 0 0 0-4.306.037l-3.076 3.54a3.433 3.433 0 0 1-4.574.552l-1.507-1.066a1.778 1.778 0 0 0-2.324.237l-.33.352a2.1 2.1 0 0 1-.04.043l-3.516 3.546-.01.01-3.86 3.837c-.034.035-.07.068-.107.1ZM4.17 15.156c0-6.068 4.919-10.987 10.986-10.987H34.86c6.067 0 10.986 4.92 10.986 10.987v19.702c0 6.068-4.919 10.986-10.986 10.986H15.156c-6.067 0-10.986-4.918-10.986-10.986V15.156Zm12.793.66a1.484 1.484 0 1 0 0 2.968 1.484 1.484 0 0 0 0-2.969Zm-5.208 1.483a5.208 5.208 0 1 1 10.416 0 5.208 5.208 0 0 1-10.416 0Z" fill="#848DA0"/></svg>