<svg fill="none" xmlns="http://www.w3.org/2000/svg" viewBox="0 0 50 50"><path fill-rule="evenodd" clip-rule="evenodd" d="M34.888 9.117H15.125a3.916 3.916 0 0 0-3.916 3.916V36.98a3.916 3.916 0 0 0 3.916 3.916h19.763a3.916 3.916 0 0 0 3.915-3.916V13.033a3.916 3.916 0 0 0-3.915-3.916ZM15.125 5.201a7.832 7.832 0 0 0-7.832 7.832V36.98a7.832 7.832 0 0 0 7.832 7.832h19.763a7.832 7.832 0 0 0 7.831-7.832V13.033A7.832 7.832 0 0 0 34.888 5.2H15.125Z" fill="#848DA0"/><path d="M25.5 16c-4.69 0-8.5 3.81-8.5 8.5 0 4.69 3.81 8.5 8.5 8.5 4.69 0 8.5-3.81 8.5-8.5 0-4.69-3.81-8.5-8.5-8.5Z" fill="#848DA0"/><path d="M29 20h-2v3h2v-3ZM24 20h-2v3h2v-3ZM25.5 31c-3.036 0-5.5-2.688-5.5-6h2.2c0 1.984 1.481 3.6 3.3 3.6 1.819 0 3.3-1.616 3.3-3.6H31c0 3.312-2.464 6-5.5 6Z" fill="#fff"/></svg>