<svg fill="none" xmlns="http://www.w3.org/2000/svg" viewBox="0 0 50 50"><path fill-rule="evenodd" clip-rule="evenodd" d="M34.888 9.117H15.125a3.916 3.916 0 0 0-3.916 3.916V36.98a3.916 3.916 0 0 0 3.916 3.916h19.763a3.916 3.916 0 0 0 3.915-3.916V13.033a3.916 3.916 0 0 0-3.915-3.916ZM15.125 5.201a7.832 7.832 0 0 0-7.832 7.832V36.98a7.832 7.832 0 0 0 7.832 7.832h19.763a7.832 7.832 0 0 0 7.831-7.832V13.033A7.832 7.832 0 0 0 34.888 5.2H15.125Z" fill="#848DA0"/><path d="M25.082 28.136A2.089 2.089 0 0 1 23 26.054V17.48c0-1.145.937-2.082 2.082-2.082 1.146 0 2.083.937 2.083 2.082v8.573c.035 1.146-.902 2.083-2.082 2.083ZM25.082 35.634A2.089 2.089 0 0 1 23 33.55c0-.139 0-.278.035-.416.034-.14.07-.278.104-.382.035-.139.104-.243.173-.347.07-.104.174-.209.278-.313a2.043 2.043 0 0 1 2.916-.034c.104.104.208.208.277.347.07.104.14.243.208.347a.79.79 0 0 1 .105.382 2.058 2.058 0 0 1-.556 1.874c-.104.104-.208.173-.312.278-.104.069-.243.138-.347.208-.139.035-.243.104-.382.104-.139.035-.278.035-.416.035Z" fill="#848DA0"/></svg>