<svg fill="none" xmlns="http://www.w3.org/2000/svg" viewBox="0 0 50 50"><path fill-rule="evenodd" clip-rule="evenodd" d="M35.265 5.27a13.24 13.24 0 0 1 10.058 9.239c.629 2.116.722 4.356.272 6.52a13.4 13.4 0 0 1-12.973 10.526c-1.281 0-2.556-.185-3.78-.556l-2.34 2.743-1.108.511h-2.85v4.386l-1.463 1.462h-4.386v4.386l-1.462 1.462H6.462L5 44.487V37.74l.427-1.032L19.97 22.166a13.053 13.053 0 0 1-.585-4.108 13.239 13.239 0 0 1 15.88-12.792v.003Zm3.853 21.05a10.433 10.433 0 0 0 3.623-5.861l.012.014A10.36 10.36 0 0 0 30.496 8.161a10.456 10.456 0 0 0-8.187 9.94 9.869 9.869 0 0 0 .699 3.89l-.322 1.587L7.924 38.347v4.678h5.848v-4.386l1.461-1.462h4.386v-4.386l1.462-1.462h3.64l2.562-2.97 1.64-.41c1.182.462 2.44.698 3.71.696a10.432 10.432 0 0 0 6.485-2.324Zm-2.45-7.987a2.924 2.924 0 1 0-4.737-3.429 2.924 2.924 0 0 0 4.737 3.429Z" fill="#848DA0"/></svg>