<svg fill="none" xmlns="http://www.w3.org/2000/svg" viewBox="0 0 50 50"><g clip-path="url(#a)"><path d="M17.584 27.78h14.822v20.467l-6.377-2.83a2.547 2.547 0 0 0-2.058 0l-6.387 2.834V27.78Z" stroke="#848DA0" stroke-width="3"/><path d="M37.334 7.158c.187-2.117-1.953-3.669-3.907-2.84l-.39-.92.393.92a4.806 4.806 0 0 1-6.016-1.948m9.92 4.788L33.037 36.65m4.297-29.492a4.815 4.815 0 0 0 3.71 5.115h.001c2.065.475 2.882 2.99 1.492 4.59m-5.203-9.705.996.088a3.815 3.815 0 0 0 2.94 4.053c2.802.644 3.905 4.052 2.02 6.22M27.415 2.37l.857-.514-.857.515Zm0 0C26.318.547 23.68.547 22.585 2.37l-.001.003a4.823 4.823 0 0 1-6.012 1.946c-1.963-.83-4.093.722-3.906 2.839a4.815 4.815 0 0 1-3.71 5.115h-.002c-2.07.476-2.887 2.992-1.492 4.588v.002a4.815 4.815 0 0 1 .001 6.322c-1.39 1.6-.574 4.115 1.491 4.59h.002a4.815 4.815 0 0 1 3.71 5.115c-.187 2.117 1.952 3.669 3.906 2.84l.39.92m0 0-.393-.92a4.806 4.806 0 0 1 6.016 1.948c1.096 1.824 3.733 1.824 4.829 0l.002-.002a4.823 4.823 0 0 1 6.01-1.947m-16.463.921a3.806 3.806 0 0 1 4.765 1.543L6.708 17.519a3.815 3.815 0 0 1 0 5.01c-1.884 2.168-.78 5.576 2.022 6.22a3.815 3.815 0 0 1 2.94 4.053c-.254 2.871 2.646 4.971 5.293 3.848Zm16.463-.92h.002l-.391.92m.39-.92v-.001l-.39.921m.39-.92c1.964.83 4.094-.722 3.907-2.84a4.815 4.815 0 0 1 3.71-5.115h.001c2.07-.476 2.887-2.992 1.493-4.588l-.001-.001a4.815 4.815 0 0 1 0-6.323m-9.5 19.787c2.656 1.123 5.547-.977 5.293-3.848a3.815 3.815 0 0 1 2.94-4.052c2.802-.645 3.915-4.053 2.02-6.221a3.815 3.815 0 0 1 0-5.01m-.753-.656.754.656m-.754-.656.754.656" fill="#848DA0" stroke="#848DA0" stroke-width="2"/><path d="M25 33.76c7.589 0 13.74-6.152 13.74-13.74C38.74 12.43 32.59 6.28 25 6.28c-7.588 0-13.74 6.151-13.74 13.74 0 7.588 6.152 13.74 13.74 13.74Z" fill="#fff"/><path d="M31.25 24.287a.726.726 0 0 1-.605-.723v-6.816c0-.4.332-.732.732-.732.4 0 .732.332.732.732v6.084c.46 0 1.075 0 1.65-.01a.731.731 0 1 1 0 1.465c-.204.01-2.333.03-2.509 0ZM18.515 24.307c-1.113 0-2.207-.47-2.92-1.25a.738.738 0 0 1 .05-1.036.738.738 0 0 1 1.034.05c.44.478 1.123.77 1.836.77 1.192 0 2.08-1.288.342-1.933-.322-.117-1.924-.742-2.129-.879-1.484-.967-1.172-3.29.742-3.867 1.797-.547 3.291.684 3.35.733a.73.73 0 0 1 .088 1.035.72.72 0 0 1-1.026.087c-.02-.019-.957-.761-1.982-.459-.713.215-.791.909-.4 1.212.224.097 1.015.439 1.875.761 3.222 1.192 2.021 4.776-.86 4.776ZM25.78 24.307c-1.113 0-2.206-.47-2.92-1.25a.737.737 0 0 1 .05-1.036.738.738 0 0 1 1.035.05c.44.478 1.123.77 1.836.77 1.191 0 2.08-1.288.342-1.933-.323-.117-1.924-.742-2.13-.879-1.484-.967-1.171-3.29.743-3.867 1.797-.547 3.29.684 3.35.733a.73.73 0 0 1 .087 1.035.72.72 0 0 1-1.025.087c-.02-.019-.957-.761-1.982-.459-.713.215-.791.909-.4 1.212.224.097 1.015.439 1.874.761 3.233 1.192 2.031 4.776-.86 4.776Z" fill="#848DA0"/></g><defs><clipPath id="a"><path fill="#fff" d="M0 0h50v50H0z"/></clipPath></defs></svg>