<svg fill="none" xmlns="http://www.w3.org/2000/svg" viewBox="0 0 50 50"><mask id="a" fill="#fff"><path d="M14.584 41.667c0-1.15.933-2.084 2.083-2.084h16.667a2.083 2.083 0 0 1 0 4.167H16.667a2.083 2.083 0 0 1-2.083-2.083Z"/></mask><path d="M23.584 41.667a6.917 6.917 0 0 1-6.917 6.916v-18c-6.12 0-11.083 4.962-11.083 11.084h18Zm-6.917 6.916h16.667v-18H16.667v18Zm16.667 0a6.917 6.917 0 0 1-6.917-6.916h18c0-6.122-4.962-11.084-11.083-11.084v18Zm-6.917-6.916a6.917 6.917 0 0 1 6.917-6.917v18c6.121 0 11.083-4.962 11.083-11.083h-18Zm6.917-6.917H16.667v18h16.667v-18Zm-16.667 0a6.917 6.917 0 0 1 6.917 6.917h-18c0 6.12 4.962 11.083 11.083 11.083v-18Z" fill="#848DA0" mask="url(#a)"/><path d="M10.344 8.268 9.693 6.99l.65 1.278c.422-.215.975-.36 1.924-.438.967-.079 2.208-.08 3.983-.08h17.5c1.775 0 3.016.001 3.983.08.95.078 1.502.223 1.924.438a4.75 4.75 0 0 1 2.075 2.075c.215.422.36.975.438 1.924.079.967.08 2.208.08 3.983v9.167c0 1.775-.001 3.016-.08 3.982-.078.95-.223 1.502-.438 1.924a4.75 4.75 0 0 1-2.075 2.076c-.422.215-.975.36-1.924.438-.967.078-2.208.08-3.983.08h-17.5c-1.775 0-3.016-.002-3.983-.08-.95-.078-1.502-.223-1.923-.438a4.75 4.75 0 0 1-2.076-2.076c-.215-.422-.36-.974-.438-1.924-.079-.966-.08-2.207-.08-3.982V16.25c0-1.775.001-3.016.08-3.983.078-.95.223-1.502.438-1.923a4.75 4.75 0 0 1 2.075-2.076Z" stroke="#848DA0" stroke-width="3"/><path d="M18.335 23.56a.781.781 0 0 1-.578-.264l-1.037-1.214-1.037 1.214a.762.762 0 0 1-.714.254.74.74 0 0 1-.568-.499l-1.36-4.05a.755.755 0 0 1 .48-.96.755.755 0 0 1 .959.48l.93 2.779.743-.871a.766.766 0 0 1 1.154 0l.744.87.93-2.778a.763.763 0 0 1 .958-.48.767.767 0 0 1 .48.96l-1.35 4.04a.754.754 0 0 1-.568.5c-.068.01-.117.019-.166.019ZM26.69 23.56a.78.78 0 0 1-.577-.264l-1.037-1.213-1.047 1.213a.762.762 0 0 1-.714.254.739.739 0 0 1-.568-.499l-1.35-4.04a.763.763 0 0 1 .48-.96.755.755 0 0 1 .958.48l.93 2.779.743-.871a.765.765 0 0 1 1.155 0l.753.87.93-2.778a.763.763 0 0 1 .959-.48.767.767 0 0 1 .48.96l-1.35 4.04a.754.754 0 0 1-.569.5c-.078 0-.127.01-.176.01ZM35.048 23.56a.781.781 0 0 1-.578-.264l-1.037-1.214-1.047 1.214a.762.762 0 0 1-.714.254.739.739 0 0 1-.567-.499l-1.35-4.041a.755.755 0 0 1 .479-.959.763.763 0 0 1 .958.48l.93 2.778.754-.87a.765.765 0 0 1 1.154 0l.753.87.93-2.779a.763.763 0 0 1 .959-.479.767.767 0 0 1 .48.959l-1.35 4.041a.754.754 0 0 1-.568.499c-.098 0-.147.01-.186.01Z" fill="#848DA0"/></svg>