<svg fill="none" xmlns="http://www.w3.org/2000/svg" viewBox="0 0 50 50"><path fill-rule="evenodd" clip-rule="evenodd" d="M15.154 8.287h19.705a6.867 6.867 0 0 1 6.868 6.867v19.705a6.867 6.867 0 0 1-6.868 6.868H15.154a6.867 6.867 0 0 1-6.868-6.868V15.154a6.867 6.867 0 0 1 6.868-6.867ZM4.166 15.154c0-6.068 4.92-10.988 10.988-10.988h19.705c6.069 0 10.988 4.92 10.988 10.988v19.705c0 6.069-4.92 10.988-10.988 10.988H15.154c-6.069 0-10.988-4.92-10.988-10.988V15.154Zm18.483 18.695a2.36 2.36 0 1 1 4.72 0 2.36 2.36 0 0 1-4.72 0Zm2.358-4.505a2.402 2.402 0 0 1-2.402-2.402V16.208a2.402 2.402 0 1 1 4.804 0v10.734a2.402 2.402 0 0 1-2.402 2.402Z" fill="#848DA0"/></svg>