<svg fill="none" xmlns="http://www.w3.org/2000/svg" viewBox="0 0 50 50"><path fill-rule="evenodd" clip-rule="evenodd" d="M13.498 9.467c.597-.114 1.356-.122 3.4-.122 2.045 0 2.804.008 3.4.122a6.871 6.871 0 0 1 4.302 2.757l.03.042c.234.327.46.645.665.894.202.245.533.62 1.022.871.447.23.882.296 1.209.323.29.024.626.024.938.023h.485c2.971 0 5.065.002 6.687.16 1.594.155 2.534.447 3.254.902a6.875 6.875 0 0 1 2.143 2.143c.455.72.746 1.66.902 3.254.157 1.622.16 3.716.16 6.687s-.002 5.065-.16 6.688c-.156 1.593-.447 2.533-.902 3.253a6.873 6.873 0 0 1-2.143 2.144c-.72.454-1.66.746-3.254.9-1.622.159-3.716.16-6.687.16h-7.886c-2.971 0-5.065-.001-6.688-.16-1.593-.154-2.533-.446-3.253-.9a6.872 6.872 0 0 1-2.143-2.144l-1.586 1 1.585-1c-.454-.72-.746-1.66-.9-3.253-.159-1.623-.16-3.717-.16-6.688v-9.197c0-2.045.008-2.804.122-3.4a6.874 6.874 0 0 1 5.458-5.459Zm3.4-3.872h-.22c-1.747 0-2.892 0-3.885.19a10.623 10.623 0 0 0-8.435 8.435c-.19.993-.19 2.139-.19 3.885V27.622c0 2.851 0 5.127.178 6.953.182 1.875.566 3.472 1.462 4.892a10.624 10.624 0 0 0 3.312 3.312c1.42.896 3.017 1.28 4.892 1.462 1.826.178 4.102.178 6.953.178h8.082c2.85 0 5.127 0 6.953-.178 1.875-.182 3.472-.566 4.891-1.462a10.623 10.623 0 0 0 3.313-3.312c.896-1.42 1.28-3.017 1.462-4.892.178-1.826.178-4.102.178-6.953v-.196c0-2.851 0-5.127-.178-6.953-.182-1.875-.566-3.472-1.462-4.891a10.622 10.622 0 0 0-3.313-3.313c-1.419-.896-3.016-1.28-4.891-1.462-1.826-.178-4.102-.178-6.953-.178h-.532c-.183 0-.323 0-.443-.002-.1-.133-.232-.316-.422-.582a10.62 10.62 0 0 0-6.646-4.259c-.993-.19-2.139-.19-3.885-.19h-.22Zm-2.82 17.042c0-.698.566-1.264 1.264-1.264H34.67c.698 0 1.264.566 1.264 1.264a1.875 1.875 0 0 0 3.749 0 5.013 5.013 0 0 0-5.013-5.013H15.342a5.013 5.013 0 0 0-5.013 5.013 1.875 1.875 0 0 0 3.75 0Z" fill="#848DA0"/></svg>