<svg xmlns="http://www.w3.org/2000/svg" viewBox="0 0 512 512"><g fill="#848DA0"><path d="M458.213 0H53.787C24.129 0 0 24.128 0 53.787v404.427C0 487.872 24.129 512 53.787 512h404.426C487.871 512 512 487.872 512 458.213V53.787C512 24.128 487.871 0 458.213 0zM53.787 30h404.426C471.329 30 482 40.67 482 53.787V110H30V53.787C30 40.67 40.671 30 53.787 30zm404.426 452H53.787C40.671 482 30 471.33 30 458.213V140h452v318.213C482 471.33 471.329 482 458.213 482z"/><circle cx="437" cy="70" r="15"/><circle cx="377" cy="70" r="15"/><path d="M424.525 313.007c-8.284 0-15 6.716-15 15v40.042H360.64v-40.042c0-8.284-6.716-15-15-15s-15 6.716-15 15V442c0 8.284 6.716 15 15 15s15-6.716 15-15v-43.951h48.885V442c0 8.284 6.716 15 15 15s15-6.716 15-15V328.007c0-8.284-6.715-15-15-15zM89.018 273.991l36.363-43.579a15.001 15.001 0 0 0-.192-19.446l-36.363-41.869c-5.433-6.254-14.907-6.922-21.161-1.489-6.255 5.432-6.921 14.906-1.489 21.161l27.99 32.228-28.184 33.773c-5.307 6.361-4.453 15.82 1.907 21.127 6.363 5.31 15.822 4.452 21.129-1.906zM434.5 249.38H153.863c-8.284 0-15 6.716-15 15s6.716 15 15 15H434.5c8.284 0 15-6.716 15-15s-6.716-15-15-15zM175.907 419.927c-3.84 21.48-24.32 37.07-48.71 37.07-19.74 0-38.27-7.95-50.84-21.82-5.56-6.14-5.09-15.63 1.04-21.19 6.14-5.56 15.63-5.09 21.19 1.04 6.79 7.5 17.49 11.97 28.61 11.97 10.62 0 18.09-6.27 19.17-12.34 1.46-8.14-10.7-13.29-14.46-14.68-11.846-4.37-33.362-13.116-36.17-14.96-12.26-7.99-18.58-22.02-16.49-36.6 2.23-15.52 13.56-28.16 29.58-32.98 31.52-9.5 57.47 11.89 58.56 12.81 0 0 10.378 10.586 1.2 21.54-8.232 9.825-19.62 2.14-20.46 1.46-.01-.01-.02-.02-.03-.02 0-.01 0-.01-.01-.01-1.19-.93-15.4-11.64-30.6-7.06-9.423 2.836-10.597 11.484-6.1 15.19 4.1 1.79 17.03 7.37 30.9 12.48 29.2 10.77 36.51 31.91 33.62 48.1zM304.932 419.927c-3.84 21.48-24.32 37.07-48.71 37.07-19.74 0-38.27-7.95-50.84-21.82-5.56-6.14-5.09-15.63 1.04-21.19 6.14-5.56 15.63-5.09 21.19 1.04 6.79 7.5 17.49 11.97 28.61 11.97 10.62 0 18.09-6.27 19.17-12.34 1.46-8.14-10.7-13.29-14.46-14.68-11.846-4.37-33.362-13.116-36.17-14.96-12.26-7.99-18.58-22.02-16.49-36.6 2.23-15.52 13.56-28.16 29.58-32.98 31.52-9.5 57.47 11.89 58.56 12.81 0 0 10.378 10.586 1.2 21.54-8.232 9.825-19.62 2.14-20.46 1.46-.01-.01-.02-.02-.03-.02 0-.01 0-.01-.01-.01-1.19-.93-15.4-11.64-30.6-7.06-9.423 2.836-10.597 11.484-6.1 15.19 4.1 1.79 17.03 7.37 30.9 12.48 29.2 10.77 36.51 31.91 33.62 48.1z"/></g></svg>