<svg fill="none" xmlns="http://www.w3.org/2000/svg" viewBox="0 0 50 50"><mask id="a" fill="#fff"><path d="M14.584 41.667c0-1.15.933-2.084 2.083-2.084h16.667a2.083 2.083 0 0 1 0 4.167H16.667a2.083 2.083 0 0 1-2.083-2.083Z"/></mask><path d="M23.584 41.667a6.917 6.917 0 0 1-6.917 6.916v-18c-6.12 0-11.083 4.962-11.083 11.084h18Zm-6.917 6.916h16.667v-18H16.667v18Zm16.667 0a6.917 6.917 0 0 1-6.917-6.916h18c0-6.122-4.962-11.084-11.083-11.084v18Zm-6.917-6.916a6.917 6.917 0 0 1 6.917-6.917v18c6.121 0 11.083-4.962 11.083-11.083h-18Zm6.917-6.917H16.667v18h16.667v-18Zm-16.667 0a6.917 6.917 0 0 1 6.917 6.917h-18c0 6.12 4.962 11.083 11.083 11.083v-18Z" fill="#848DA0" mask="url(#a)"/><path d="M10.344 8.268 9.693 6.99l.65 1.278c.422-.215.975-.36 1.924-.438.967-.079 2.208-.08 3.983-.08h17.5c1.775 0 3.016.001 3.983.08.95.078 1.502.223 1.924.438a4.75 4.75 0 0 1 2.075 2.075c.215.422.36.975.438 1.924.079.967.08 2.208.08 3.983v9.167c0 1.775-.001 3.016-.08 3.982-.078.95-.223 1.502-.438 1.924a4.75 4.75 0 0 1-2.075 2.076c-.422.215-.975.36-1.924.438-.967.078-2.208.08-3.983.08h-17.5c-1.775 0-3.016-.002-3.983-.08-.95-.078-1.502-.223-1.923-.438a4.75 4.75 0 0 1-2.076-2.076c-.215-.422-.36-.974-.438-1.924-.079-.966-.08-2.207-.08-3.982V16.25c0-1.775.001-3.016.08-3.983.078-.95.223-1.502.438-1.923a4.75 4.75 0 0 1 2.075-2.076Z" stroke="#848DA0" stroke-width="3"/><circle cx="25" cy="17.196" r="2.872" stroke="#848DA0" stroke-width="2"/><path d="M19 26.696c0 .35.255.841 1.41 1.287 1.106.426 2.72.661 4.59.661 1.87 0 3.483-.235 4.59-.661 1.155-.446 1.41-.938 1.41-1.287 0-.486-.434-1.285-1.591-2.03-1.102-.707-2.664-1.22-4.41-1.22-1.745 0-3.306.513-4.408 1.22-1.158.745-1.591 1.544-1.591 2.03Z" stroke="#848DA0" stroke-width="2"/></svg>