<svg version="1.0" xmlns="http://www.w3.org/2000/svg" viewBox="0 0 512 512"><g fill="#848DA0"><path d="M236.5.6c-38.2 3.9-66.7 12.1-97.5 28.1-23.7 12.2-43.9 27.1-63.5 46.8C28.6 122.3 2.8 181.3.3 247c-1 28.8 3.2 57.7 12.8 86.5 7.4 22.2 10.3 26.3 19 27.2 8.3.8 15.9-5.8 15.9-13.9 0-2.2-2.4-11.2-5.4-20.1-13.6-40.4-16-75-8-115.2C54 113.7 136.8 39.8 237 30.9c46.6-4.1 93.7 7.3 137.7 33.4l10.3 6-5.1 1.7c-6.4 2.2-9.4 5.1-10.9 10.6-1.1 3.8-1 5.1.4 8.9 1 2.5 3.1 5.4 4.7 6.6 4.6 3.3 67.5 23.9 72.9 23.9 7.7 0 13.1-4.6 14.4-12.3 1-5.5-21.1-72.1-25.2-75.9-3.9-3.6-6.5-4.8-10.9-4.8-10.2 0-17.2 11.3-13.3 21.5 1.2 3.3 1.7 3.5-11-5.1-33.2-22.5-70.1-36.9-110-42.9C281 1 245-.3 236.5.6z"/><path d="M218.8 93.1c-6.4 3.3-7.8 7.6-7.8 22.9v13l-2.7 1.2c-9.8 3.9-25.9 12.6-32.1 17.3-4 3-7.5 5.5-7.8 5.5-.3 0-5.7-2.9-12.2-6.5-12.8-7.1-16.4-7.9-21.8-4.6-1.8 1.1-4.3 3.4-5.7 5.3-5.3 7.1-31.8 54.6-32.4 58-.4 2.6.1 4.9 1.6 8.1 1.9 3.9 3.6 5.2 13.7 11.2l11.6 6.9-.9 7c-1 9.1-1 26.1 0 35.2l.9 7-11.6 6.9c-10.1 6-11.8 7.3-13.7 11.2-1.5 3.2-2 5.5-1.6 8.1.6 3.4 27.1 50.9 32.4 58 1.4 1.9 3.9 4.2 5.7 5.3 5.4 3.3 9 2.5 21.8-4.6 6.5-3.6 11.9-6.5 12.2-6.5.3 0 3.8 2.5 7.8 5.5 6.2 4.7 22.3 13.4 32.1 17.3l2.7 1.2v13c0 15.5 1.4 19.6 8 23 3.7 1.9 5.8 2 37 2s33.3-.1 37-2c6.6-3.4 8-7.5 8-23v-13.1l3.3-1.1c7-2.4 24.6-12.1 31.5-17.3 4-3 7.5-5.5 7.8-5.5.3 0 5.7 2.9 12.2 6.5 12.9 7.2 16.1 7.8 22.2 4.4 4-2.3 5.5-4.6 26.4-40.9 5.9-10.2 10.9-20.2 11.2-22.2.5-2.6 0-4.9-1.5-8.1-1.9-3.9-3.6-5.2-13.7-11.2l-11.6-6.9.9-7c.4-3.9.8-11.8.8-17.6 0-5.8-.4-13.7-.8-17.6l-.9-7 11.6-6.9c10.1-6 11.8-7.3 13.7-11.2 1.5-3.2 2-5.5 1.6-8.1-.4-2-5.7-12.4-11.9-23.2-20.2-35.3-21.7-37.6-25.8-39.9-6.1-3.4-9.3-2.8-22.2 4.4-6.5 3.6-11.9 6.5-12.2 6.5-.3 0-3.8-2.5-7.8-5.5-6.9-5.2-24.5-14.9-31.5-17.3l-3.3-1.1V116c0-15.5-1.4-19.6-8-23-3.7-1.9-5.8-2-37.2-2-31.2.1-33.5.2-37 2.1zm52.2 39c0 17.1 1.5 19.2 17 24.5 16.5 5.6 25.6 10.8 39.3 22.6 11.4 9.9 14.3 10 28.8 1.7 4.8-2.7 8.9-4.9 9.1-4.9.5 0 14.8 24.4 14.8 25.3 0 .2-4 2.8-8.9 5.6-14.7 8.5-16.5 12.1-13.2 26.1 3.9 16.2 3.8 31.4-.5 48.4-2.9 11.2-.3 15.6 13.7 23.7 4.9 2.8 8.9 5.4 8.9 5.6 0 .9-14.3 25.3-14.8 25.3-.2 0-4.3-2.2-9.1-4.9-14.5-8.3-17.4-8.2-28.8 1.7-13.7 11.8-22.8 17-39.3 22.6-15.5 5.3-17 7.4-17 24.5V391h-30v-11.1c0-16.5-2.2-19.9-15-23.8-15.4-4.7-28.2-12-41.8-23.7-10.8-9.4-13.9-9.6-28.2-1.3-4.7 2.7-8.8 4.9-9.1 4.9-.6 0-14.9-24.3-14.9-25.3 0-.3 3.4-2.5 7.6-4.8 16-8.8 17.9-12.4 14.3-27-3.3-13.3-3.3-32.5 0-45.8 3.6-14.6 1.7-18.2-14.3-27-4.2-2.3-7.6-4.5-7.6-4.8 0-1 14.3-25.3 14.9-25.3.3 0 4.4 2.2 9.1 4.9 14.3 8.3 17.4 8.1 28.2-1.3 13.6-11.7 26.4-19 41.8-23.7 12.8-3.9 15-7.3 15-23.8V121h30v11.1z"/><path d="M240.5 182.7C206.2 190 181 221.1 181 256c0 35.1 25.5 66.2 60.2 73.4 24.6 5.1 49.9-2.6 67.7-20.7 13.8-14 20.5-28.9 21.8-48.7 2.7-42.5-32.5-79.4-75.4-78.9-4.3 0-10.9.7-14.8 1.6zm24.7 29.4c8.7 1.8 15.8 5.8 22.3 12.3 25.8 25.9 11.8 69.6-24.4 75.8-14.1 2.4-28.1-2.2-38.6-12.7-17.8-17.7-17.8-45.4-.1-63 11.1-11.1 25.8-15.5 40.8-12.4z"/><path d="M472 152.8c-4.7 2.3-8 7.5-8 12.4 0 2.2 2.5 11.2 5.4 20.1 9.5 28.1 13.3 52.8 12.2 79.2-1.3 32.7-8.3 60.7-22.6 90.1-22.2 45.8-58.5 82-104.5 104.5-21.6 10.5-40.8 16.5-66 20.5-13.5 2.2-48.8 2.5-61 .6-34.3-5.6-61-15.2-90.2-32.5l-10.3-6 5-1.7c6.3-2.1 8.5-4.1 10.5-9.5 2.1-5.4.7-11.6-3.6-15.6-3.8-3.5-67-24.9-73.7-24.9-7.7 0-13.5 4.7-14.7 12-.6 3.3 1.1 9.1 10.9 38.7 6.4 19.1 12.2 35.5 12.9 36.4 2.2 2.9 8.1 5.9 11.7 5.9 10.7 0 18-11.1 14-21.5-1.2-3.3-1.7-3.5 11 5.1 33.7 22.6 70.5 37 110.5 43 16.8 2.6 53.2 2.6 70 0 55.5-8.4 104.9-33.1 144.1-72.1 21.8-21.7 37.1-42.9 49.9-69 9.2-18.7 13.6-30.7 18.5-49.9 12.5-49.4 10.2-97.4-7.1-145.9-2.2-6.5-5.1-13.2-6.3-15-2.5-3.7-7.8-6.7-12.1-6.7-1.6 0-4.6.8-6.5 1.8z"/></g></svg>