<svg xmlns="http://www.w3.org/2000/svg" viewBox="0 0 512 512" style="enable-background:new 0 0 512 512" xml:space="preserve"><path d="M256 31C132 31 31 131.9 31 256c0 124 101 225 225 225s225-101 225-225c0-124.1-101-225-225-225zM53.7 256c0-29.3 6.3-57.2 17.5-82.3l96.5 264.4C100.2 405.2 53.7 336 53.7 256zM256 458.3c-19.9 0-39-2.9-57.2-8.3l60.7-176.4L321.6 444c.5 1 .9 1.9 1.5 2.8-20.9 7.4-43.5 11.5-67.1 11.5zm27.9-297.1c12.2-.6 23.1-1.9 23.1-1.9 10.9-1.3 9.6-17.3-1.3-16.7 0 0-32.8 2.5-53.9 2.5-19.9 0-53.3-2.5-53.3-2.5-10.9-.6-12.2 16.1-1.3 16.7 0 0 10.3 1.3 21.2 1.9l31.5 86.4-44.3 132.7-73.7-219.1c12.2-.6 23.1-1.9 23.1-1.9 10.9-1.3 9.6-17.3-1.3-16.7 0 0-32.8 2.5-53.9 2.5-3.8 0-8.3-.1-13.1-.3 36.2-54.9 98.3-91.2 169-91.2 52.6 0 100.6 20.1 136.6 53.1-.9-.1-1.7-.2-2.6-.2-19.9 0-33.9 17.3-33.9 35.9 0 16.7 9.6 30.8 19.9 47.4 7.7 13.4 16.7 30.8 16.7 55.8 0 17.3-6.6 37.4-15.4 65.4l-20.1 67.4-73-217.2zm73.8 269.6 61.8-178.6c11.5-28.9 15.4-51.9 15.4-72.5 0-7.4-.5-14.3-1.4-20.8 15.8 28.9 24.8 61.9 24.8 97.1 0 74.7-40.4 139.8-100.6 174.8z" fill="#848DA0"/></svg>