<svg viewBox="-65 0 511 512" xmlns="http://www.w3.org/2000/svg"><path d="M300.89 264.719V154.98c0-60.738-49.413-110.152-110.152-110.152S80.586 94.242 80.586 154.98V264.72H35.762V154.98C35.762 69.523 105.282 0 190.738 0c85.453 0 154.977 69.523 154.977 154.98V264.72zm0 0" fill="#bebebe"/><path d="M363.871 512H17.605C8.156 512 .5 504.344.5 494.895V247.254c0-9.45 7.656-17.106 17.105-17.106h346.266c9.445 0 17.106 7.657 17.106 17.106v247.64c0 9.45-7.66 17.106-17.106 17.106zm0 0" fill="#676a75"/><path d="M363.871 230.148h-34.777V478.66a8.921 8.921 0 0 1-8.922 8.922H.5v7.313C.5 504.344 8.156 512 17.605 512h346.266c9.445 0 17.106-7.656 17.106-17.105V247.254c0-9.45-7.66-17.106-17.106-17.106zm0 0" fill="#454851"/><path d="M324.637 437.8H56.84a8.588 8.588 0 0 1-8.586-8.585V305.5a8.586 8.586 0 0 1 8.586-8.586h267.797a8.586 8.586 0 0 1 8.586 8.586v123.715c.004 4.738-3.844 8.586-8.586 8.586zm0 0" fill="#a4d852"/><path d="M324.637 296.914H281.34v140.887h43.297a8.586 8.586 0 0 0 8.586-8.586V305.5c.004-4.742-3.844-8.586-8.586-8.586zm0 0" fill="#97c63e"/><path d="M143.426 384.781c0-16.21-34.696-11.242-34.696-36.855 0-16.106 13.832-21.617 26.262-21.617 6.38 0 20.54 1.511 20.54 8.644 0 2.488-1.731 7.457-5.622 7.457-3.351 0-5.836-4.105-14.918-4.105-7.781 0-12.21 3.132-12.21 8.324 0 13.402 34.695 8.754 34.695 36.746 0 15.457-10.809 23.457-25.723 23.457-14.16 0-24.969-7.137-24.969-13.402 0-3.028 2.809-7.567 6.16-7.567 4.434 0 7.352 8.325 18.375 8.325 6.485-.004 12.106-2.922 12.106-9.407zM206.762 384.781c0-16.21-34.696-11.242-34.696-36.855 0-16.106 13.832-21.617 26.262-21.617 6.379 0 20.54 1.511 20.54 8.644 0 2.488-1.731 7.457-5.622 7.457-3.351 0-5.836-4.105-14.918-4.105-7.781 0-12.21 3.132-12.21 8.324 0 13.402 34.695 8.754 34.695 36.746 0 15.457-10.81 23.457-25.723 23.457-14.16 0-24.969-7.137-24.969-13.402 0-3.028 2.809-7.567 6.16-7.567 4.434 0 7.352 8.325 18.375 8.325 6.485-.004 12.106-2.922 12.106-9.407zM243.508 405.86c-3.137 0-6.16-1.516-6.16-4.434v-70.254c0-3.027 3.457-4.324 7.023-4.324 3.461 0 7.027 1.297 7.027 4.324v62.363h26.372c2.812 0 4.214 3.028 4.214 6.16 0 3.028-1.402 6.16-4.214 6.16h-34.262zm0 0" fill="#ededed"/><g fill="#d6d6d6"><path d="M333.227 401.613h47.75v15.453h-47.75zM333.227 312.668h47.75v15.453h-47.75zM333.227 357.14h47.75v15.454h-47.75zM.5 357.14h47.75v15.454H.5zM.5 312.668h47.75v15.453H.5zM.5 401.613h47.75v15.453H.5zm0 0"/></g></svg>