<svg fill="none" xmlns="http://www.w3.org/2000/svg" viewBox="0 0 50 50"><g clip-path="url(#a)"><path d="M41.214 26.466v3.018l-8.731 1.377-2.989 7.325H1.464A1.45 1.45 0 0 1 0 36.72V26.466l2.93-2.93h35.354l2.93 2.93Z" fill="#5A5D9D"/><path d="M41.214 26.466v3.018l-8.73 1.377-2.99 7.325h-8.887v-14.65h17.677l2.93 2.93Z" fill="#5A5D9D"/><path d="M41.214 14.747v11.72H0v-11.72l2.93-2.93h35.354l2.93 2.93Z" fill="#888BBD"/><path d="M41.214 14.747v11.72H20.607v-14.65h17.677l2.93 2.93Z" fill="#5A5D9D"/><path d="M41.214 4.492v10.255H0V4.492c0-.82.644-1.465 1.465-1.465h38.284c.82 0 1.465.645 1.465 1.465Z" fill="#5A5D9D"/><path d="M41.214 4.492v10.255H20.607V3.027H39.75c.82 0 1.464.645 1.464 1.465Z" fill="#5A5D9D"/><path d="M8.79 32.326a1.465 1.465 0 1 1-2.93 0 1.465 1.465 0 0 1 2.93 0ZM14.648 32.326a1.465 1.465 0 1 1-2.929 0 1.465 1.465 0 0 1 2.93 0ZM8.79 20.607a1.465 1.465 0 1 1-2.93 0 1.465 1.465 0 0 1 2.93 0ZM14.648 20.607a1.465 1.465 0 1 1-2.929 0 1.465 1.465 0 0 1 2.93 0ZM8.79 8.887a1.465 1.465 0 1 1-2.93 0 1.465 1.465 0 0 1 2.93 0ZM14.648 8.887a1.465 1.465 0 1 1-2.929 0 1.465 1.465 0 0 1 2.93 0Z" fill="#61BDF6"/><path d="m49.272 38.215-2.344-1.348a9.717 9.717 0 0 0 .146-1.611c0-.557-.058-1.084-.146-1.612l2.344-1.347c.703-.41.937-1.29.527-1.993l-1.465-2.549a1.446 1.446 0 0 0-1.992-.527l-2.373 1.377a8.972 8.972 0 0 0-2.755-1.611V25a1.45 1.45 0 0 0-1.464-1.465h-2.93a1.45 1.45 0 0 0-1.465 1.465v1.992a8.966 8.966 0 0 0-2.755 1.612l-2.373-1.377a1.446 1.446 0 0 0-1.992.527l-1.465 2.55a1.446 1.446 0 0 0 .528 1.992l2.344 1.347a9.706 9.706 0 0 0-.147 1.612c0 .557.059 1.084.146 1.611l-2.343 1.348a1.446 1.446 0 0 0-.528 1.993l1.465 2.549c.41.703 1.29.937 1.992.527l2.373-1.377a8.967 8.967 0 0 0 2.755 1.611v1.992c0 .821.644 1.466 1.465 1.466h2.93a1.45 1.45 0 0 0 1.465-1.465v-1.993a8.965 8.965 0 0 0 2.754-1.611l2.373 1.377c.703.41 1.582.176 1.992-.527l1.465-2.55a1.446 1.446 0 0 0-.527-1.992Zm-10.987 1.436a4.389 4.389 0 0 1-4.395-4.395 4.388 4.388 0 0 1 4.395-4.395 4.388 4.388 0 0 1 4.394 4.395 4.389 4.389 0 0 1-4.395 4.395Z" fill="#6BC5D2"/><path d="m49.798 40.207-1.465 2.55c-.41.703-1.29.937-1.992.527l-2.373-1.377a8.957 8.957 0 0 1-2.755 1.611v1.992a1.45 1.45 0 0 1-1.465 1.465h-1.465v-7.324a4.389 4.389 0 0 0 4.395-4.395 4.388 4.388 0 0 0-4.395-4.395v-7.325h1.465c.821 0 1.465.645 1.465 1.465v1.992a8.966 8.966 0 0 1 2.755 1.612l2.373-1.377a1.446 1.446 0 0 1 1.992.528l1.465 2.549c.41.703.176 1.582-.528 1.992l-2.344 1.348c.088.527.147 1.055.147 1.611 0 .557-.059 1.084-.147 1.611l2.344 1.348c.704.41.938 1.29.528 1.992Z" fill="#6BC5D2"/></g><defs><clipPath id="a"><path fill="#fff" d="M0 0h50v50H0z"/></clipPath></defs></svg>