<svg fill="none" xmlns="http://www.w3.org/2000/svg" viewBox="0 0 50 50"><path d="M5.86 10.352h29.492v8.789H5.859v-8.79Z" fill="#5A5D9D"/><path d="M20.605 10.352h14.747v8.789H20.606v-8.79Z" fill="#2C3B73"/><path d="M5.86 25h29.492v8.79H5.859V25Z" fill="#5A5D9D"/><path d="M20.605 25h14.747v8.79H20.606V25Z" fill="#2C3B73"/><path d="M39.746 1.563H1.465A1.45 1.45 0 0 0 0 3.026v8.79c0 .82.644 1.464 1.465 1.464h38.281a1.45 1.45 0 0 0 1.465-1.465V3.027a1.45 1.45 0 0 0-1.465-1.465Z" fill="#888BBD"/><path d="M41.21 3.027v8.79a1.45 1.45 0 0 1-1.464 1.464h-19.14V1.562h19.14c.82 0 1.465.645 1.465 1.465Z" fill="#5A5D9D"/><path d="M8.79 7.422a1.465 1.465 0 1 1-2.93 0 1.465 1.465 0 0 1 2.93 0ZM14.648 7.422a1.465 1.465 0 1 1-2.929 0 1.465 1.465 0 0 1 2.93 0Z" fill="#61BDF6"/><path d="M39.746 16.21H1.465A1.45 1.45 0 0 0 0 17.677v8.789c0 .82.644 1.465 1.465 1.465h38.281a1.45 1.45 0 0 0 1.465-1.465v-8.79a1.45 1.45 0 0 0-1.465-1.464Z" fill="#888BBD"/><path d="M41.21 17.676v8.789a1.45 1.45 0 0 1-1.464 1.465h-19.14V16.21h19.14c.82 0 1.465.645 1.465 1.466Z" fill="#5A5D9D"/><path d="M8.79 22.07a1.465 1.465 0 1 1-2.93 0 1.465 1.465 0 0 1 2.93 0ZM14.648 22.07a1.465 1.465 0 1 1-2.93 0 1.465 1.465 0 0 1 2.93 0Z" fill="#61BDF6"/><path d="M39.746 30.86H1.465A1.45 1.45 0 0 0 0 32.323v8.79c0 .82.644 1.464 1.465 1.464h38.281a1.45 1.45 0 0 0 1.465-1.465v-8.789a1.45 1.45 0 0 0-1.465-1.465Z" fill="#888BBD"/><path d="M41.21 32.324v8.79a1.45 1.45 0 0 1-1.464 1.464h-19.14V30.86h19.14c.82 0 1.465.645 1.465 1.465Z" fill="#5A5D9D"/><path d="M8.79 36.719a1.465 1.465 0 1 1-2.93 0 1.465 1.465 0 0 1 2.93 0ZM14.648 36.719a1.465 1.465 0 1 1-2.929 0 1.465 1.465 0 0 1 2.93 0ZM36.816 22.07c-7.265 0-13.183 5.918-13.183 13.184 0 7.265 5.918 13.184 13.183 13.184C44.082 48.438 50 42.519 50 35.254c0-7.266-5.918-13.184-13.184-13.184Z" fill="#61BDF6"/><path d="M50 35.254c0 7.265-5.918 13.184-13.184 13.184V22.07C44.082 22.07 50 27.988 50 35.254Z" fill="#61BDF6"/><path d="M36.816 45.508c-5.654 0-10.254-4.6-10.254-10.254S31.163 25 36.816 25c5.655 0 10.254 4.6 10.254 10.254s-4.6 10.254-10.254 10.254Z" fill="#E0F4FF"/><path d="M47.07 35.254C47.07 29.6 42.47 25 36.816 25v20.508c5.655 0 10.254-4.6 10.254-10.254Z" fill="#E0F4FF"/><path d="M44.14 35.254a1.45 1.45 0 0 1-1.464 1.465h-5.86a1.45 1.45 0 0 1-1.464-1.465v-5.86c0-.82.644-1.464 1.464-1.464s1.465.644 1.465 1.465v4.394h4.395c.82 0 1.465.644 1.465 1.465Z" fill="#5A5D9D"/><path d="M44.14 35.254a1.45 1.45 0 0 1-1.464 1.465h-5.86v-8.79c.82 0 1.465.645 1.465 1.466v4.394h4.395c.82 0 1.465.644 1.465 1.465Z" fill="#5A5D9D"/></svg>