<svg fill="none" xmlns="http://www.w3.org/2000/svg" viewBox="0 0 50 50"><path d="M29.541 6.816A4.539 4.539 0 0 0 25 2.276a4.539 4.539 0 0 0-4.541 4.54c0 1.68.918 3.155 2.275 3.936v8.184h4.541v-8.184a4.535 4.535 0 0 0 2.266-3.936Z" fill="#E0F4FF"/><path d="M25 2.275v16.67h2.275v-8.183a4.543 4.543 0 0 0 2.276-3.936A4.555 4.555 0 0 0 25 2.276ZM20.238 23.486H4a4 4 0 0 0-4 4v4.12a4 4 0 0 0 4 4h16.238a4 4 0 0 0 4-4v-4.12a4 4 0 0 0-4-4ZM46 23.486H29.762a4 4 0 0 0-4 4v4.12a4 4 0 0 0 4 4H46a4 4 0 0 0 4-4v-4.12a4 4 0 0 0-4-4Z" fill="#E0F4FF"/><path d="M31.816 35.605H18.184v12.12h13.632v-12.12Z" fill="#E0F4FF"/><path d="M31.816 35.605H25v12.12h6.816v-12.12Z" fill="#E0F4FF"/><path d="M39.45 15.908H10.54a6 6 0 0 0-6 6v15.276a6 6 0 0 0 6 6h28.908a6 6 0 0 0 6-6V21.908a6 6 0 0 0-6-6Z" fill="#61BDF6"/><path d="M31.821 15.908H25v27.276h6.821c7.532 0 13.638-6.106 13.638-13.638s-6.106-13.638-13.638-13.638Z" fill="#61BDF6"/><path d="M18.936 26.514a3.03 3.03 0 0 1-3.028 3.027 3.03 3.03 0 0 1-3.027-3.027 3.03 3.03 0 0 1 3.027-3.028 3.03 3.03 0 0 1 3.028 3.028ZM37.12 26.514a3.03 3.03 0 0 1-3.028 3.027 3.03 3.03 0 0 1-3.027-3.027 3.03 3.03 0 0 1 3.027-3.028 3.03 3.03 0 0 1 3.027 3.028ZM27 34.092c-1.105 0-2 .897-2 2.001v2.815c0 1.105.915 2.03 1.972 1.71a6.831 6.831 0 0 0 4.555-4.554c.319-1.058-.606-1.972-1.71-1.972H27Z" fill="#fff"/></svg>