<svg fill="none" xmlns="http://www.w3.org/2000/svg" viewBox="0 0 50 49"><g clip-path="url(#a)"><path d="M32.639 27.657a26.721 26.721 0 0 0 2.907-1.593l.097-.06c-.376.954-.192 2.628-.188 2.621.593-1.735 1.326-3.262 2.438-4.233.424.38.746 1.091 1.01 1.994.131-1.243-.093-1.937-.202-2.19.546.647 1.536 1.009 2.602 1.323-1.197-.727-1.99-1.444-2.3-2.148 3.415-1.05 7.114-2.308 10.998-3.701-.305-.23-.632-.259-.972-.159-.701.255-5.311 1.916-11.582 3.812l-.539.162-.15.045a231.995 231.995 0 0 1-2.505.735l-1.726 3.447.112-.055Z" fill="url(#b)"/><path d="M.96 31.353c.954.36 1.98.454 2.987.563.593.056 1.187.096 1.782.125l1.225-2.566c-1.575.043-3.154.01-4.72-.177 1.547.156 3.107.093 4.657.009-1.119-1.333-2.346-2.572-3.597-3.78C2.118 26.12.98 26.945.363 28.14c-.315.727-.498 1.576-.241 2.349.137.395.453.708.838.864Z" fill="url(#c)"/><path d="M20.57 22.378c.126.118.254.241.386.367l.003.002a6.485 6.485 0 0 0-.389-.369Z" fill="#BE202E"/><path opacity=".35" d="M20.57 22.378c.126.118.254.241.386.367l.003.002a6.485 6.485 0 0 0-.389-.369Z" fill="#BE202E"/><path d="M18.542 23.328h.002c0 .002.001 0 .002.002l-.06-.06a5.141 5.141 0 0 0-.246-.232l.302.29Z" fill="#BE202E"/><path opacity=".35" d="M18.542 23.328h.002c0 .002.001 0 .002.002l-.06-.06a5.141 5.141 0 0 0-.246-.232l.302.29Z" fill="#BE202E"/><path d="M14.504 28.761c-.848.126-1.686.237-2.51.332-.857.1-1.699.182-2.522.245l-.146.012c-.81.061-1.603.103-2.374.124L5.727 32.04a59.928 59.928 0 0 0 2.426.062 74.068 74.068 0 0 0 4.82-.137 82.31 82.31 0 0 0 2.142-.154l.08-.007c.666-1.108 1.145-2.286 1.717-3.429-.81.14-1.612.268-2.408.386Z" fill="url(#d)"/><path d="M31.781 24.961a189.835 189.835 0 0 1-7.332 1.87 138.215 138.215 0 0 1-5.91 1.252c-.516.097-1.03.19-1.542.279l-.083.013-1.717 3.43.162-.015a76.576 76.576 0 0 0 6.778-.897l.41-.075c.849-.16 1.654-.333 2.418-.515a45.414 45.414 0 0 0 3.852-1.098c.382-.133.761-.27 1.135-.411a35.86 35.86 0 0 0 2.575-1.082c.582-1.131 1.184-2.28 1.726-3.447a243.024 243.024 0 0 1-2.471.696Z" fill="url(#e)"/><path d="m16.985 27.987.337-.063 1.032-.198c.38-.074.767-.152 1.162-.234.199-.04.398-.083.601-.125a145.727 145.727 0 0 0 4.316-.975 196.29 196.29 0 0 0 7.3-1.916c.038-.01.077-.02.115-.033.79-.223 1.598-.458 2.424-.702l.056-.017-.957-1.034.038.076c-1.165-1.221-3.496-2.264-5.594-2.5-.967-.109-2-.092-3.12.046-.835.103-1.718.274-2.66.511-.823.207-1.69.464-2.61.771.393.189.775.454 1.147.783a8.09 8.09 0 0 1 .389.369l-.003-.002c-1.412-.897-2.931-.997-4.499-.727.47.164 1.163.482 1.78 1.02.085.073.166.15.247.231l.06.06h-.003s0-.002-.002-.001a6.36 6.36 0 0 0-1.458-.657 4.9 4.9 0 0 0-1.085-.189 5.436 5.436 0 0 0-.98.029l-.327.055c-.482.086-.9.18-1.259.273a11.271 11.271 0 0 0-1.1.346 4.326 4.326 0 0 0-.428.19c.065.018.135.041.209.072.507.21 1.194.708 1.68 1.16l-.88-.948.88.949.021.02.143.14c-.011-.007-.022-.009-.032-.016l3.008 3.244.052-.008Z" fill="url(#f)"/><path d="M6.89 29.305a59.368 59.368 0 0 0 2.413-.197l.141-.014c.774-.08 1.615-.178 2.525-.301a108.63 108.63 0 0 0 4.964-.797l-2.974-3.23c-1.237-.677-2.041-.839-2.992-.826-.26.008-.527.02-.8.04a27.75 27.75 0 0 0-2.58.305c-.827.137-1.621.306-2.311.495-.439.121-.834.25-1.167.382-.293.117-.563.24-.814.365 1.255 1.203 2.73 2.721 3.596 3.778Z" fill="url(#g)"/><path d="M20.768 22.557Z" fill="#BE202E"/><path opacity=".35" d="M20.768 22.557Z" fill="#BE202E"/><path d="M20.768 22.557Z" fill="url(#h)"/><path d="m18.546 23.33-.06-.06.06.06Z" fill="#BE202E"/><path opacity=".35" d="m18.546 23.33-.06-.06.06.06Z" fill="#BE202E"/><path d="m18.546 23.33-.06-.06.06.06Z" fill="url(#i)"/><path d="M18.543 23.329h-.002.002Z" fill="#BE202E"/><path opacity=".35" d="M18.543 23.329h-.002.002Z" fill="#BE202E"/><path d="M18.543 23.329h-.002.002Z" fill="url(#j)"/><path d="M47.992 31.019v.129h.302V32h.14v-.853h.304v-.129h-.746Zm1.745-.001-.337.685-.34-.685h-.169V32h.13v-.78l.334.676h.089l.333-.675V32h.13v-.982h-.17Z" fill="#6D6E71"/><path d="M34.69 23.618c.643-.192 1.295-.389 1.96-.593l.028-.01.282-.086c.447-.138.848-.266 1.759-.556-.117-.549.13-1.243.458-1.969a2.793 2.793 0 0 0-1.003 1.87c-1.407-2.088-3.209-3.45-5.353-3.255a4.656 4.656 0 0 0-.582.09c.822.023 1.419.367 2.073 1.362l.007.005-.007-.005c-1.672-.939-2.798-1.197-4.261-1.078-.347.029-.713.077-1.11.144 2.174.293 3.59 1.452 4.43 3.154l.038.075.919.959c.12-.035.241-.07.362-.107Z" fill="url(#k)"/></g><defs><linearGradient id="b" x1="47.196" y1="23.052" x2="23.032" y2="27.992" gradientUnits="userSpaceOnUse"><stop stop-color="#282662"/><stop offset=".095" stop-color="#662E8D"/><stop offset=".788" stop-color="#9F2064"/><stop offset=".949" stop-color="#CD2032"/></linearGradient><linearGradient id="c" x1="5.303" y1="30.952" x2="-2.682" y2="24.733" gradientUnits="userSpaceOnUse"><stop stop-color="#F69923"/><stop offset=".312" stop-color="#F79A23"/><stop offset=".838" stop-color="#E97826"/></linearGradient><linearGradient id="d" x1="53.169" y1="22.032" x2="7.19" y2="31.432" gradientUnits="userSpaceOnUse"><stop offset=".323" stop-color="#9E2064"/><stop offset=".63" stop-color="#C92037"/><stop offset=".751" stop-color="#CD2335"/><stop offset="1" stop-color="#E97826"/></linearGradient><linearGradient id="e" x1="50.676" y1="22.988" x2="4.697" y2="32.389" gradientUnits="userSpaceOnUse"><stop offset=".323" stop-color="#9E2064"/><stop offset=".63" stop-color="#C92037"/><stop offset=".751" stop-color="#CD2335"/><stop offset="1" stop-color="#E97826"/></linearGradient><linearGradient id="f" x1="49.702" y1="18.23" x2="3.723" y2="27.63" gradientUnits="userSpaceOnUse"><stop offset=".323" stop-color="#9E2064"/><stop offset=".63" stop-color="#C92037"/><stop offset=".751" stop-color="#CD2335"/><stop offset="1" stop-color="#E97826"/></linearGradient><linearGradient id="g" x1="52.603" y1="17.883" x2="6.624" y2="27.283" gradientUnits="userSpaceOnUse"><stop offset=".323" stop-color="#9E2064"/><stop offset=".63" stop-color="#C92037"/><stop offset=".751" stop-color="#CD2335"/><stop offset="1" stop-color="#E97826"/></linearGradient><linearGradient id="h" x1="49.414" y1="16.815" x2="3.435" y2="26.215" gradientUnits="userSpaceOnUse"><stop offset=".323" stop-color="#9E2064"/><stop offset=".63" stop-color="#C92037"/><stop offset=".751" stop-color="#CD2335"/><stop offset="1" stop-color="#E97826"/></linearGradient><linearGradient id="i" x1="49.445" y1="16.976" x2="3.468" y2="26.376" gradientUnits="userSpaceOnUse"><stop offset=".323" stop-color="#9E2064"/><stop offset=".63" stop-color="#C92037"/><stop offset=".751" stop-color="#CD2335"/><stop offset="1" stop-color="#E97826"/></linearGradient><linearGradient id="j" x1="23.621" y1="22.286" x2="13.456" y2="24.357" gradientUnits="userSpaceOnUse"><stop offset=".323" stop-color="#9E2064"/><stop offset=".63" stop-color="#C92037"/><stop offset=".751" stop-color="#CD2335"/><stop offset="1" stop-color="#E97826"/></linearGradient><linearGradient id="k" x1="46.677" y1="18.555" x2="19.278" y2="24.156" gradientUnits="userSpaceOnUse"><stop stop-color="#282662"/><stop offset=".095" stop-color="#662E8D"/><stop offset=".788" stop-color="#9F2064"/><stop offset=".949" stop-color="#CD2032"/></linearGradient><clipPath id="a"><path fill="#fff" d="M0 0h50v49H0z"/></clipPath></defs></svg>