<svg fill="none" xmlns="http://www.w3.org/2000/svg" viewBox="0 0 50 50"><path d="M15.185 6.348a1.456 1.456 0 0 0-2.07 0 14.92 14.92 0 0 0-4.414 10.635c0 4.023 1.563 7.793 4.404 10.634.284.284.665.43 1.036.43.37 0 .752-.146 1.035-.43a1.456 1.456 0 0 0 0-2.07 12.041 12.041 0 0 1-3.545-8.564c0-3.233 1.26-6.28 3.545-8.565a1.465 1.465 0 0 0 .01-2.07ZM21.709 11.71a1.456 1.456 0 0 0-2.07 0 7.417 7.417 0 0 0-2.188 5.273c0 1.992.772 3.867 2.188 5.273.283.283.664.43 1.035.43.37 0 .752-.147 1.035-.43a1.456 1.456 0 0 0 0-2.07 4.49 4.49 0 0 1-1.328-3.203 4.49 4.49 0 0 1 1.328-3.204 1.456 1.456 0 0 0 0-2.07Z" fill="#5A5D9D"/><path d="M8.643 3.193a1.456 1.456 0 0 0 0-2.07 1.456 1.456 0 0 0-2.07 0C2.333 5.361 0 10.986 0 16.983c0 5.996 2.334 11.62 6.572 15.859.283.283.664.43 1.035.43.372 0 .752-.147 1.036-.43a1.456 1.456 0 0 0 0-2.07c-7.608-7.608-7.608-19.971 0-27.579Z" fill="#5A5D9D"/><path d="M37.607 23.389a6.406 6.406 0 1 0 0-12.813 6.406 6.406 0 0 0 0 12.813ZM49.972 47.031 47.354 31.27a5.862 5.862 0 0 0-5.78-4.903 10.436 10.436 0 0 1-7.94 0 5.86 5.86 0 0 0-5.782 4.902l-2.617 15.762a1.956 1.956 0 0 0 1.924 2.276h20.889c1.21 0 2.119-1.084 1.924-2.276Z" fill="#6ACA8B"/></svg>