<svg fill="none" xmlns="http://www.w3.org/2000/svg" viewBox="0 0 50 50"><g clip-path="url(#a)"><path d="M25.195 27.831v17.773c0 .382-.146.762-.44 1.026l-2.587 2.49-.44.44c-.41.439-1.054.556-1.581.322a1.46 1.46 0 0 1-.909-1.348V27.831c0-.82.645-1.464 1.465-1.464h3.027c.82 0 1.465.644 1.465 1.464Z" fill="#61BDF6"/><path d="M25.195 27.831v17.773c0 .381-.146.762-.44 1.026l-2.587 2.49V26.367h1.563c.82 0 1.464.644 1.464 1.464Z" fill="#61BDF6"/><path d="M41.308 4.395 25.195 29.296h-5.957L3.125 4.395h38.183Z" fill="#61BDF6"/><path d="M41.308 4.395 25.195 29.296h-3.027V4.395h19.14Z" fill="#61BDF6"/><path d="M38.378 0H1.562A1.45 1.45 0 0 0 .099 1.465v2.93c0 .82.644 1.464 1.464 1.464h36.816a1.45 1.45 0 0 0 1.465-1.464v-2.93A1.45 1.45 0 0 0 38.378 0Z" fill="#E0F4FF"/><path d="M39.843 1.465v2.93a1.45 1.45 0 0 1-1.465 1.464h-16.21V0h16.21c.82 0 1.465.644 1.465 1.465Z" fill="#E0F4FF"/><path d="M36.914 0C29.648 0 23.73 5.918 23.73 13.183c0 7.266 5.918 13.184 13.184 13.184 7.265 0 13.183-5.918 13.183-13.184C50.097 5.918 44.179 0 36.914 0Z" fill="#FAAB63"/><path d="M50.097 13.183c0 7.266-5.918 13.184-13.183 13.184V0c7.265 0 13.183 5.918 13.183 13.183Z" fill="#FAAB63"/><path d="M42.099 16.289a1.503 1.503 0 0 1 0 2.08 1.504 1.504 0 0 1-2.08 0l-3.105-3.105-3.106 3.105a1.504 1.504 0 0 1-2.08 0 1.504 1.504 0 0 1 0-2.08l3.105-3.106-3.105-3.105a1.504 1.504 0 0 1 0-2.08 1.504 1.504 0 0 1 2.08 0l3.106 3.105 3.105-3.105a1.505 1.505 0 0 1 2.08 0 1.504 1.504 0 0 1 0 2.08l-3.105 3.105 3.105 3.106Z" fill="#E0F4FF"/><path d="M42.1 16.289a1.503 1.503 0 0 1 0 2.08 1.504 1.504 0 0 1-2.08 0l-3.106-3.105v-4.16l3.105-3.106a1.505 1.505 0 0 1 2.08 0 1.504 1.504 0 0 1 0 2.08l-3.105 3.106 3.105 3.105Z" fill="#BBDCFF"/></g><defs><clipPath id="a"><path fill="#fff" d="M0 0h50v50H0z"/></clipPath></defs></svg>