<svg fill="none" xmlns="http://www.w3.org/2000/svg" viewBox="0 0 50 50"><g clip-path="url(#a)"><path d="M46.025 3.799v24.297c0 1.26-.107 2.48-.322 3.681a20.935 20.935 0 0 1-5.84 11.192 21.152 21.152 0 0 1-6.152 4.277A21.09 21.09 0 0 1 25 49.121c-.225 0-.45 0-.664-.01-11.299-.351-20.361-9.629-20.361-21.015V17.48a6.27 6.27 0 0 1 1.855-4.472 6.31 6.31 0 0 1 4.473-1.856c.703 0 1.27.567 1.27 1.27v3.262c0 .566.234 1.074.595 1.445a2.05 2.05 0 0 0 3.496-1.455v-10a3.82 3.82 0 0 1 1.113-2.686 3.797 3.797 0 0 1 6.484 2.686V3.799A3.803 3.803 0 0 1 27.062 0c2.1 0 3.798 1.7 3.798 3.799A3.803 3.803 0 0 1 34.66 0c2.099 0 3.798 1.7 3.798 3.799A3.766 3.766 0 0 1 42.227 0c2.1 0 3.798 1.7 3.798 3.799Z" fill="#FAAB63"/><path d="M6.23 28.096V17.48a6.27 6.27 0 0 1 1.856-4.472 6.259 6.259 0 0 1 2.89-1.65 1.244 1.244 0 0 0-.683-.196 6.27 6.27 0 0 0-4.473 1.855 6.31 6.31 0 0 0-1.855 4.473v10.615c0 11.387 9.053 20.665 20.361 21.016.225.01.44.01.664.01.381 0 .762-.01 1.143-.03C15.049 48.507 6.23 39.327 6.23 28.097Z" fill="#F2A35C"/><path d="M45.703 31.777a20.935 20.935 0 0 1-5.84 11.192 21.152 21.152 0 0 1-6.152 4.277A21.09 21.09 0 0 1 25 49.121c-.225 0-.45 0-.664-.01 4.17-9.326.87-12.265.87-12.265a14.972 14.972 0 0 0-11.808-8.682 2.07 2.07 0 0 1-1.835-2.05v-10.43c0 .566.234 1.074.595 1.445a2.05 2.05 0 0 0 3.496-1.455v3.681s5.967 12.178 23.409 10.977c2.792-.186 4.96.371 6.64 1.445ZM28.027.127a3.797 3.797 0 0 0-4.775 3.672v14.98a1.953 1.953 0 0 0 1.953-1.953V3.8A3.805 3.805 0 0 1 28.027.127ZM35.615.127a3.797 3.797 0 0 0-4.775 3.672v14.98a1.953 1.953 0 0 0 1.953-1.953V3.8A3.805 3.805 0 0 1 35.615.127ZM43.203.127a3.797 3.797 0 0 0-4.775 3.672v18.926a1.953 1.953 0 0 0 1.953-1.954V3.8A3.817 3.817 0 0 1 43.203.127Z" fill="#F2A35C"/><path d="M20.43 2.002a3.797 3.797 0 0 0-4.775 3.672v14.98l1.952 4.122V5.674a3.817 3.817 0 0 1 2.823-3.672Z" fill="#F2A35C"/><path d="M21.124 13.77a.74.74 0 0 1-.527-.225.754.754 0 0 1 0-1.065l4.267-4.267a.754.754 0 0 1 1.065 0 .754.754 0 0 1 0 1.064l-4.268 4.268a.798.798 0 0 1-.537.225Z" fill="#61BDF6"/><path d="M25.38 13.77a.74.74 0 0 1-.527-.225l-4.268-4.268a.754.754 0 0 1 0-1.064.754.754 0 0 1 1.064 0l4.268 4.267a.754.754 0 0 1-.537 1.29ZM28.71 13.77a.74.74 0 0 1-.527-.225.754.754 0 0 1 0-1.065l4.267-4.267a.754.754 0 0 1 1.065 0 .754.754 0 0 1 0 1.064l-4.268 4.268a.78.78 0 0 1-.537.225Z" fill="#61BDF6"/><path d="M32.98 13.77a.74.74 0 0 1-.528-.225l-4.277-4.268a.754.754 0 0 1 0-1.064.755.755 0 0 1 1.064 0l4.268 4.267a.754.754 0 0 1-.527 1.29ZM36.298 13.77a.74.74 0 0 1-.528-.225.754.754 0 0 1 0-1.065l4.268-4.267a.754.754 0 0 1 1.065 0 .754.754 0 0 1 0 1.064l-4.268 4.268a.762.762 0 0 1-.537.225Z" fill="#61BDF6"/><path d="M40.565 13.77a.74.74 0 0 1-.527-.225l-4.267-4.268a.754.754 0 0 1 0-1.064.755.755 0 0 1 1.064 0l4.267 4.267a.754.754 0 0 1-.537 1.29ZM14.219 48.525a.685.685 0 0 1-.381-.107.742.742 0 0 1-.264-1.026l1.533-2.607a.742.742 0 0 1 1.026-.264.75.75 0 0 1 .264 1.026l-1.534 2.607a.733.733 0 0 1-.644.371ZM17.559 50a.685.685 0 0 1-.381-.108.742.742 0 0 1-.264-1.025l1.533-2.607a.742.742 0 0 1 1.026-.264.742.742 0 0 1 .263 1.025l-1.533 2.608a.742.742 0 0 1-.644.37ZM36.152 48.525a.754.754 0 0 1-.644-.37l-1.534-2.608a.746.746 0 0 1 .264-1.025.746.746 0 0 1 1.026.263l1.533 2.608a.746.746 0 0 1-.264 1.025.707.707 0 0 1-.38.107ZM32.803 50a.754.754 0 0 1-.645-.371l-1.533-2.608a.746.746 0 0 1 .264-1.025.746.746 0 0 1 1.025.264l1.533 2.607a.746.746 0 0 1-.264 1.026.685.685 0 0 1-.38.107Z" fill="#61BDF6"/></g><defs><clipPath id="a"><path fill="#fff" d="M0 0h50v50H0z"/></clipPath></defs></svg>