<svg fill="none" xmlns="http://www.w3.org/2000/svg" viewBox="0 0 50 50"><path d="M50 3.027V30.86l-2.93 2.93H2.93L0 30.86V3.027c0-.82.644-1.465 1.465-1.465h47.07c.82 0 1.465.645 1.465 1.465Z" fill="#5A5D9D"/><path d="M50 3.027V30.86l-2.93 2.93H25V1.562h23.535c.82 0 1.465.645 1.465 1.465Z" fill="#5A5D9D"/><path d="M2.93 4.492h44.14V27.93H2.93V4.492Z" fill="#61BDF6"/><path d="M25 4.492h22.07V27.93H25V4.492Z" fill="#61BDF6"/><path d="m36.719 45.508-2.93 1.465H16.211l-2.93-1.465a4.388 4.388 0 0 0 4.395-4.395V36.72h14.648v4.394a4.388 4.388 0 0 0 4.395 4.395Z" fill="#ECF9FB"/><path d="m36.719 45.508-2.93 1.465H25V36.719h7.324v4.394a4.388 4.388 0 0 0 4.395 4.395Z" fill="#ECF9FB"/><path d="M50 30.86v7.324a1.45 1.45 0 0 1-1.465 1.464H1.465A1.45 1.45 0 0 1 0 38.184v-7.325h50Z" fill="#ECF9FB"/><path d="M50 30.86v7.324a1.45 1.45 0 0 1-1.465 1.464H25V30.86h25Z" fill="#ECF9FB"/><path d="M41.113 46.973a1.45 1.45 0 0 1-1.465 1.465H10.352a1.45 1.45 0 0 1-1.465-1.465c0-.82.644-1.465 1.465-1.465h29.296c.821 0 1.465.644 1.465 1.465Z" fill="#5A5D9D"/><path d="M41.113 46.973a1.45 1.45 0 0 1-1.465 1.465H25v-2.93h14.648c.821 0 1.465.644 1.465 1.465Z" fill="#5A5D9D"/><path d="M32.324 14.746v5.86a1.45 1.45 0 0 1-1.465 1.464 1.45 1.45 0 0 1-1.465-1.465v-5.859A4.388 4.388 0 0 0 25 10.352a4.388 4.388 0 0 0-4.395 4.394v5.86a1.45 1.45 0 0 1-1.464 1.464 1.45 1.45 0 0 1-1.465-1.465v-5.859A7.327 7.327 0 0 1 25 7.422a7.327 7.327 0 0 1 7.324 7.324Z" fill="#61729B"/><path d="M32.324 14.746v5.86a1.45 1.45 0 0 1-1.465 1.464 1.45 1.45 0 0 1-1.465-1.465v-5.859A4.388 4.388 0 0 0 25 10.352v-2.93a7.327 7.327 0 0 1 7.324 7.324Z" fill="#47568C"/><path d="M35.254 20.605v11.72a1.45 1.45 0 0 1-1.465 1.464H16.211a1.45 1.45 0 0 1-1.465-1.465V20.606c0-.821.644-1.465 1.465-1.465h7.324L25 22.07l1.465-2.93h7.324c.82 0 1.465.644 1.465 1.465Z" fill="#FAAB63"/><path d="M35.254 20.605v11.72a1.45 1.45 0 0 1-1.465 1.464H25V22.07l1.465-2.93h7.324c.82 0 1.465.645 1.465 1.465Z" fill="#FAAB63"/><path d="M26.465 19.14v7.325A1.45 1.45 0 0 1 25 27.93a1.45 1.45 0 0 1-1.465-1.465V19.14h2.93Z" fill="#61729B"/><path d="M26.465 19.14v7.325A1.45 1.45 0 0 1 25 27.93v-8.79h1.465Z" fill="#47568C"/></svg>