<svg xmlns="http://www.w3.org/2000/svg" viewBox="0 0 512 512" style="enable-background:new 0 0 512 512" xml:space="preserve"><path style="fill:#91eb90" d="M55.167 15v281.166C55.167 407.086 255.999 497 255.999 497s200.834-89.914 200.834-200.834V15H55.167z"/><path style="fill:#00ab94" d="M255.999 15v482s200.834-89.914 200.834-200.834V15H255.999z"/><path style="fill:#deecf1" d="M255.999 512c-2.09 0-4.18-.436-6.129-1.31-2.108-.943-52.206-23.534-103.082-60.361-30.286-21.923-54.526-44.376-72.048-66.736-22.94-29.276-34.573-58.691-34.573-87.427V15c0-8.284 6.716-15 15-15h401.666c8.284 0 15 6.716 15 15v281.166c0 28.735-11.633 58.15-34.574 87.427-17.521 22.36-41.762 44.814-72.047 66.736-50.878 36.827-100.976 59.418-103.084 60.361a14.974 14.974 0 0 1-6.129 1.31zM70.167 30v266.166c0 50.967 51.232 98.751 94.211 129.861 38.338 27.75 76.973 47.345 91.617 54.399 14.709-7.092 53.631-26.841 92.01-54.679 42.805-31.046 93.828-78.728 93.828-129.582V30H70.167z"/><path style="fill:#ff8700" d="M255.999 150.5a14.997 14.997 0 0 1-12.48-6.68l-32.133-48.2c-4.596-6.893-2.732-16.206 4.16-20.801 6.892-4.597 16.205-2.734 20.801 4.16l19.652 29.479 19.654-29.479c4.596-6.894 13.909-8.755 20.801-4.16 6.893 4.596 8.756 13.908 4.16 20.801l-32.135 48.2a14.997 14.997 0 0 1-12.48 6.68z"/><path style="fill:#ff4b00" d="m268.479 143.82 32.135-48.2c4.596-6.893 2.732-16.205-4.16-20.801-6.892-4.595-16.205-2.733-20.801 4.16l-19.654 29.479v-.001V150.5c5.016 0 9.699-2.507 12.48-6.68zM336.333 222.8a14.95 14.95 0 0 1-10.606-4.394c-5.858-5.857-5.858-15.355-.001-21.213l48.199-48.2c5.859-5.857 15.357-5.857 21.214 0 5.858 5.857 5.858 15.355.001 21.213l-48.199 48.2a14.958 14.958 0 0 1-10.608 4.394zM384.532 351.333c-3.84 0-7.678-1.464-10.607-4.393l-48.199-48.2c-5.857-5.857-5.857-15.355.001-21.213s15.354-5.858 21.214 0l48.199 48.2c5.858 5.857 5.858 15.355-.001 21.213a14.959 14.959 0 0 1-10.607 4.393z"/><path style="fill:#ff8700" d="M175.667 222.8a14.954 14.954 0 0 1-10.607-4.394l-48.201-48.2c-5.858-5.857-5.858-15.355 0-21.213 5.857-5.857 15.355-5.857 21.213 0l48.201 48.2c5.858 5.857 5.858 15.355 0 21.213a14.95 14.95 0 0 1-10.606 4.394zM127.466 351.333c-3.84 0-7.678-1.464-10.606-4.393-5.858-5.858-5.858-15.355 0-21.213l48.201-48.2c5.858-5.858 15.355-5.858 21.213 0 5.858 5.857 5.858 15.355 0 21.213l-48.201 48.2a14.959 14.959 0 0 1-10.607 4.393z"/><path style="fill:#ffd400" d="M255.999 120.5c-52.566 0-95.332 42.767-95.332 95.333V280.1c0 52.567 42.766 95.334 95.332 95.334 52.567 0 95.334-42.767 95.334-95.334v-64.267c0-52.566-42.767-95.333-95.334-95.333z"/><path style="fill:#ff9f00" d="M255.999 120.5v254.934c52.567 0 95.334-42.767 95.334-95.334v-64.267c0-52.566-42.767-95.333-95.334-95.333z"/><path style="fill:#ff8700" d="M336.333 216.9H175.667c-8.284 0-15 6.716-15 15s6.716 15 15 15h65.332v113.533c0 8.284 6.716 15 15 15s15-6.716 15-15V246.9h65.334c8.284 0 15-6.716 15-15s-6.716-15-15-15z"/><path style="fill:#a2d8f4" d="M456.833 0H255.999v30h185.834v266.166c0 50.854-51.023 98.536-93.828 129.582-38.377 27.836-77.295 47.584-92.006 54.678V512c2.09 0 4.18-.436 6.129-1.31 2.108-.943 52.206-23.534 103.084-60.361 30.285-21.923 54.525-44.376 72.047-66.736 22.941-29.276 34.574-58.691 34.574-87.427V15c0-8.284-6.716-15-15-15z"/><path style="fill:#ff4b00" d="M336.333 216.9h-80.334v158.533c8.284 0 15-6.716 15-15V246.9h65.334c8.284 0 15-6.716 15-15s-6.716-15-15-15z"/></svg>