<svg fill="none" xmlns="http://www.w3.org/2000/svg" viewBox="0 0 50 50"><path d="M15.11 32.967c-.32 0-.644-.105-.914-.32a1.468 1.468 0 0 1-.23-2.06l8.06-10.075a1.473 1.473 0 0 1 2.06-.229c.631.507.734 1.428.23 2.06l-8.06 10.074c-.29.36-.716.55-1.146.55ZM34.746 30.253a1.46 1.46 0 0 1-1.036-.43l-7.673-7.575a1.464 1.464 0 1 1 2.071-2.072l7.674 7.576a1.464 1.464 0 0 1-1.036 2.5ZM37.973 29.63a1.464 1.464 0 0 1-1.346-2.042l6.48-15.12a1.459 1.459 0 0 1 1.923-.77c.744.32 1.088 1.181.77 1.923l-6.48 15.121a1.462 1.462 0 0 1-1.347.889Z" fill="#5A5D9D"/><path d="M50 45.605v2.93A1.45 1.45 0 0 1 48.535 50a1.45 1.45 0 0 1-1.465-1.465V47.07h-5.86v1.465A1.45 1.45 0 0 1 39.747 50a1.45 1.45 0 0 1-1.465-1.465V47.07h-5.957v1.465A1.45 1.45 0 0 1 30.86 50a1.45 1.45 0 0 1-1.465-1.465V47.07h-5.859v1.465A1.45 1.45 0 0 1 22.07 50a1.45 1.45 0 0 1-1.465-1.465V47.07h-5.859v1.465A1.45 1.45 0 0 1 13.281 50a1.45 1.45 0 0 1-1.465-1.465V47.07H5.86v1.465A1.45 1.45 0 0 1 4.395 50a1.45 1.45 0 0 1-1.465-1.465V47.07H1.465A1.45 1.45 0 0 1 0 45.605c0-.82.644-1.464 1.465-1.464H2.93v-5.957H1.465A1.45 1.45 0 0 1 0 36.719c0-.82.644-1.465 1.465-1.465H2.93v-5.86H1.465A1.45 1.45 0 0 1 0 27.93c0-.82.644-1.465 1.465-1.465H2.93v-5.86H1.465A1.45 1.45 0 0 1 0 19.142c0-.82.644-1.465 1.465-1.465H2.93v-5.86H1.465A1.45 1.45 0 0 1 0 10.352c0-.821.644-1.465 1.465-1.465H2.93V2.93H1.465A1.45 1.45 0 0 1 0 1.465C0 .645.644 0 1.465 0h2.93c.82 0 1.464.644 1.464 1.465V44.14h42.676c.82 0 1.465.644 1.465 1.465Z" fill="#5A5D9D"/><path d="M50 45.605v2.93A1.45 1.45 0 0 1 48.535 50a1.45 1.45 0 0 1-1.465-1.465V47.07h-5.86v1.465A1.45 1.45 0 0 1 39.747 50a1.45 1.45 0 0 1-1.465-1.465V47.07h-5.957v1.465A1.45 1.45 0 0 1 30.86 50a1.45 1.45 0 0 1-1.465-1.465V47.07H25v-2.93h23.535c.82 0 1.465.645 1.465 1.465Z" fill="#5A5D9D"/><path d="M25 14.746a4.388 4.388 0 0 0-4.395 4.395A4.389 4.389 0 0 0 25 23.535a4.389 4.389 0 0 0 4.395-4.394A4.388 4.388 0 0 0 25 14.746ZM13.281 38.184c-2.423 0-4.492-1.972-4.492-4.395 0-2.423 2.07-4.395 4.492-4.395a4.4 4.4 0 0 1 4.395 4.395 4.4 4.4 0 0 1-4.395 4.395ZM36.816 35.254c-2.423 0-4.492-1.971-4.492-4.395 0-2.423 2.07-4.394 4.492-4.394a4.4 4.4 0 0 1 4.395 4.394 4.4 4.4 0 0 1-4.395 4.395ZM45.605 14.746a4.4 4.4 0 0 1-4.394-4.394 4.4 4.4 0 0 1 4.395-4.395A4.4 4.4 0 0 1 50 10.352a4.4 4.4 0 0 1-4.395 4.394Z" fill="#61BDF6"/><path d="M13.281 29.395a4.4 4.4 0 0 1 4.395 4.394 4.4 4.4 0 0 1-4.395 4.395M36.816 26.465a4.4 4.4 0 0 1 4.395 4.394 4.4 4.4 0 0 1-4.395 4.395M45.605 5.957A4.4 4.4 0 0 1 50 10.352a4.4 4.4 0 0 1-4.395 4.394M25 23.535v-8.789a4.388 4.388 0 0 1 4.395 4.395A4.389 4.389 0 0 1 25 23.535Z" fill="#61BDF6"/></svg>