<svg fill="none" xmlns="http://www.w3.org/2000/svg" viewBox="0 0 50 50"><g clip-path="url(#a)"><path d="M33.867 3.828a12.088 12.088 0 0 1 3.613 8.838 11.984 11.984 0 0 1-3.613 8.73c-4.844 4.893-12.773 4.932-17.666.088a12.353 12.353 0 0 1-3.691-8.818 12.057 12.057 0 0 1 3.613-8.838c4.766-4.892 12.607-4.99 17.52-.254l.224.254ZM0 47.93c.019-8.612 5.778-16.104 14.038-18.426.558-.157 1.15-.025 1.636.29a17.18 17.18 0 0 0 9.443 2.765 17.706 17.706 0 0 0 9.44-2.77c.488-.313 1.081-.438 1.64-.282 7.624 2.141 11.014 7.412 11.285 15.297a1.93 1.93 0 0 1-1.035 1.758l-6.006 3.203A2 2 0 0 1 39.5 50H2a2 2 0 0 1-2-2v-.07Z" fill="#61BDF6"/><path d="M39.746 49c-5.102 0-9.254-4.152-9.254-9.254 0-1.941.613-3.825 1.78-5.445 1.779-2.394 4.577-3.809 7.474-3.809 5.102 0 9.254 4.152 9.254 9.254C49 44.848 44.848 49 39.746 49Z" fill="#FAAB63" stroke="#fff" stroke-width="2"/><path d="M42.676 38.281H41.21v-1.465c0-.81-.654-1.464-1.465-1.464-.81 0-1.465.654-1.465 1.464v1.465h-1.465c-.81 0-1.464.654-1.464 1.465 0 .81.654 1.465 1.464 1.465h1.465v1.465c0 .81.654 1.465 1.465 1.465.81 0 1.465-.655 1.465-1.465V41.21h1.465c.81 0 1.465-.654 1.465-1.465 0-.81-.655-1.465-1.465-1.465Z" fill="#fff"/><path d="M41.21 42.676V41.21h1.466c.81 0 1.465-.654 1.465-1.465 0-.81-.655-1.465-1.465-1.465H41.21v-1.465c0-.81-.654-1.464-1.465-1.464v8.789c.81 0 1.465-.655 1.465-1.465Z" fill="#fff"/></g><defs><clipPath id="a"><path fill="#fff" d="M0 0h50v50H0z"/></clipPath></defs></svg>