<svg fill="none" xmlns="http://www.w3.org/2000/svg" viewBox="0 0 50 50"><path d="M17.676 17.676h-8.79v8.789h8.79v-8.79Z" fill="#5A5D9D"/><path d="M17.676 17.676H13.28v8.789h4.395v-8.79Z" fill="#2C3B73"/><path d="M2.93 11.816 0 14.746v1.465a4.401 4.401 0 0 0 4.395 4.395H22.07a4.401 4.401 0 0 0 4.395-4.395v-1.465l-2.93-2.93H2.93Z" fill="#5A5D9D"/><path d="M13.281 11.816v8.79h8.79a4.401 4.401 0 0 0 4.394-4.395v-1.465l-2.93-2.93H13.281Z" fill="#5A5D9D"/><path d="M22.07 0H4.395A4.401 4.401 0 0 0 0 4.395v10.351h26.465V4.395A4.401 4.401 0 0 0 22.07 0Z" fill="#5A5D9D"/><path d="M22.07 0h-8.789v14.746h13.184V4.395A4.401 4.401 0 0 0 22.07 0Z" fill="#5A5D9D"/><path d="M23.535 14.746H2.93V4.238c0-.722.586-1.308 1.308-1.308h17.989c.722 0 1.308.586 1.308 1.308v10.508Z" fill="#E0F4FF"/><path d="M22.07 2.93h-8.789v11.816h10.254V4.102c0-.645-.654-1.172-1.465-1.172Z" fill="#E0F4FF"/><path d="M20.605 42.676a1.45 1.45 0 0 1-1.464 1.465 7.297 7.297 0 0 1-5.86-2.93c-.908-1.201-1.465-2.852-1.465-4.492v-2.315l-.439.41a1.416 1.416 0 0 1-2.05 0 1.416 1.416 0 0 1 0-2.05l2.929-2.93c.264-.293.644-.44 1.025-.44.381 0 .762.147 1.026.44l2.93 2.93a1.416 1.416 0 0 1 0 2.05 1.416 1.416 0 0 1-2.051 0l-.44-.41v2.315c0 2.431 1.963 4.492 4.395 4.492.82 0 1.465.645 1.465 1.465ZM40.674 17.236l-2.93 2.93c-.264.293-.644.44-1.025.44-.381 0-.762-.147-1.026-.44l-2.93-2.93a1.416 1.416 0 0 1 0-2.05 1.416 1.416 0 0 1 2.052 0l.439.41V13.28a4.389 4.389 0 0 0-4.395-4.394 1.45 1.45 0 0 1-1.465-1.465c0-.82.645-1.465 1.465-1.465a7.281 7.281 0 0 1 5.86 2.959c.937 1.201 1.465 2.725 1.465 4.365v2.315l.439-.41a1.416 1.416 0 0 1 2.05 0 1.416 1.416 0 0 1 0 2.05Z" fill="#61BDF6"/><path d="M19.14 26.465H7.423c-.81 0-1.465-.654-1.465-1.465 0-.81.654-1.465 1.465-1.465H19.14c.81 0 1.465.654 1.465 1.465 0 .81-.655 1.465-1.465 1.465Z" fill="#5A5D9D"/><path d="M19.14 23.535h-5.859v2.93h5.86c.81 0 1.465-.654 1.465-1.465 0-.81-.655-1.465-1.465-1.465Z" fill="#5A5D9D"/><path d="M20.605 42.676a1.45 1.45 0 0 1-1.464 1.465 7.297 7.297 0 0 1-5.86-2.93V29.395c.381 0 .762.146 1.026.439l2.93 2.93a1.416 1.416 0 0 1 0 2.05 1.416 1.416 0 0 1-2.051 0l-.44-.41v2.315c0 2.431 1.963 4.492 4.395 4.492.82 0 1.465.645 1.465 1.465Z" fill="#61BDF6"/><path d="M41.113 41.21h-8.789V50h8.79v-8.79Z" fill="#5A5D9D"/><path d="M41.113 41.21H36.72V50h4.394v-8.79Z" fill="#2C3B73"/><path d="m26.465 35.254-2.93 3.027v1.465a4.401 4.401 0 0 0 4.395 4.395h17.675A4.401 4.401 0 0 0 50 39.746v-1.465l-2.93-3.027H26.465Z" fill="#5A5D9D"/><path d="M36.719 35.254v8.887h8.886A4.401 4.401 0 0 0 50 39.746v-1.465l-2.93-3.027H36.72Z" fill="#5A5D9D"/><path d="M45.605 23.535H27.93a4.401 4.401 0 0 0-4.395 4.395V38.28H50V27.93a4.401 4.401 0 0 0-4.395-4.395Z" fill="#5A5D9D"/><path d="M45.605 23.535H36.72v14.746H50V27.93a4.401 4.401 0 0 0-4.395-4.395Z" fill="#5A5D9D"/><path d="M47.07 38.281H26.465V27.773c0-.722.586-1.308 1.308-1.308h17.989c.722 0 1.308.586 1.308 1.308v10.508Z" fill="#E0F4FF"/><path d="M45.605 26.465H36.72V38.28H47.07V27.637c0-.645-.654-1.172-1.465-1.172Z" fill="#E0F4FF"/><path d="M42.578 50H30.86c-.81 0-1.465-.654-1.465-1.465 0-.81.655-1.465 1.465-1.465h11.72c.81 0 1.464.655 1.464 1.465S43.389 50 42.578 50Z" fill="#5A5D9D"/><path d="M42.578 47.07h-5.86V50h5.86c.81 0 1.465-.654 1.465-1.465 0-.81-.654-1.465-1.465-1.465Z" fill="#5A5D9D"/><path d="m40.674 17.236-2.93 2.93c-.264.293-.644.44-1.025.44V8.915c.937 1.201 1.465 2.725 1.465 4.365v2.315l.439-.41a1.416 1.416 0 0 1 2.05 0 1.416 1.416 0 0 1 0 2.05Z" fill="#61BDF6"/></svg>