<svg fill="none" xmlns="http://www.w3.org/2000/svg" viewBox="0 0 50 50"><g clip-path="url(#a)"><path d="M40.027 0h-8.236c-.84 0-1.564.598-1.748 1.438L29.02 6.13h-8.052l-1.024-4.693A1.782 1.782 0 0 0 18.207 0H9.972a1.773 1.773 0 0 0-1.806 1.806v46.388c0 1.024.782 1.806 1.806 1.806h8.235c.783 0 1.438-.483 1.68-1.265l1.622-4.866h7.453l1.024 4.693c.184.84.897 1.438 1.748 1.438h8.293a1.773 1.773 0 0 0 1.806-1.806V1.806C41.82.782 41.039 0 40.027 0Z" fill="#5A5D9D"/><path d="M32.505 28.847a1.773 1.773 0 0 0 1.806-1.806 1.773 1.773 0 0 0-1.806-1.805H17.484a1.773 1.773 0 0 0-1.806 1.805c0 1.024.782 1.806 1.806 1.806h15.021ZM18.864 21.337h12.262a1.773 1.773 0 0 0 1.806-1.806 1.773 1.773 0 0 0-1.806-1.806H18.864a1.773 1.773 0 0 0-1.805 1.806c.011 1.023.793 1.806 1.805 1.806Z" fill="#888BBD"/><path d="M37.923 48.885c-6.108 0-11.077-4.97-11.077-11.077 0-2.325.735-4.58 2.13-6.518 2.128-2.865 5.477-4.56 8.947-4.56C44.031 26.73 49 31.7 49 37.808c0 6.107-4.97 11.077-11.077 11.077Z" fill="#61BDF6" stroke="#fff" stroke-width="2"/><path d="M41.375 36.082h-1.726v-1.725c0-.955-.77-1.725-1.725-1.725-.955 0-1.725.77-1.725 1.725v1.725h-1.726c-.954 0-1.725.771-1.725 1.726 0 .954.77 1.725 1.725 1.725H36.2v1.725c0 .955.77 1.726 1.725 1.726.955 0 1.725-.77 1.725-1.726v-1.725h1.726c.954 0 1.725-.77 1.725-1.725 0-.955-.77-1.726-1.725-1.726Z" fill="#E6EEFF"/></g><defs><clipPath id="a"><path fill="#fff" d="M0 0h50v50H0z"/></clipPath></defs></svg>