<svg fill="none" xmlns="http://www.w3.org/2000/svg" viewBox="0 0 50 50"><path d="M44.17 16.152a.738.738 0 0 1-.733-.732v-4.404c0-.4.333-.733.733-.733.4 0 .732.332.732.733v4.404c0 .41-.322.732-.732.732Z" fill="#5A5D9D"/><path d="M38.447 22.549h6.094c.576 0 1.035-.469 1.035-1.035v-5.059c0-.576-.469-1.035-1.035-1.035h-6.094v7.129ZM11.621 22.549H5.527a1.036 1.036 0 0 1-1.035-1.035v-5.059c0-.576.469-1.035 1.035-1.035h6.094v7.129Z" fill="#5A5D9D"/><path d="M8.291 50c0-9.248 7.5-16.738 16.738-16.738 9.248 0 16.739 7.5 16.739 16.738H8.29Z" fill="#E3E3E3"/><path d="M27.11 33.389a16.252 16.252 0 0 0-2.07-.127C15.79 33.262 8.3 40.762 8.3 50h4.151c-.01-8.545 6.397-15.596 14.658-16.611Z" fill="#D1D1D1"/><path d="M13.242 38.125h3.438c.966 0 1.758.781 1.758 1.758 0 .966.78 1.758 1.757 1.758h9.707c.967 0 1.758-.782 1.758-1.758 0-.967.781-1.758 1.758-1.758h3.438a16.686 16.686 0 0 0-11.797-4.863 16.68 16.68 0 0 0-11.817 4.863Z" fill="#5A5D9D"/><path d="M17.285 38.232a16.672 16.672 0 0 1 9.834-4.843 16.253 16.253 0 0 0-2.07-.127c-4.6 0-8.77 1.855-11.797 4.863h3.437c.196 0 .4.039.596.107Z" fill="#5A5D9D"/><path d="M43.018 17.988c0 9.932-8.057 17.989-17.989 17.989-9.931 0-17.988-8.057-17.988-17.989C7.041 8.057 15.107 0 25.039 0s17.979 8.057 17.979 17.988Z" fill="#F4F4F4"/><path d="M11.201 17.988c0-9.228 6.953-16.836 15.908-17.861A18.262 18.262 0 0 0 25.04.01C15.107 0 7.051 8.057 7.051 17.988c0 9.932 8.056 17.989 17.988 17.989.703 0 1.396-.04 2.07-.118-8.955-1.035-15.908-8.642-15.908-17.87Z" fill="#E3E3E3"/><path d="M24.922 4.023c-7.529.06-13.7 6.163-13.847 13.692-.108 5.644 3.164 10.556 7.92 12.851a1.008 1.008 0 0 0 1.416-.693l.654-2.988c.098-.46.508-.791.986-.791h5.772c.469 0 .879.332.986.79l.674 3.077c.137.635.83.967 1.416.693 4.785-2.216 8.115-7.06 8.115-12.675-.02-7.735-6.338-14.014-14.092-13.956Z" fill="#5A5D9D"/><path d="M15.098 17.988c0-7.011 5.205-12.841 11.953-13.818a15.285 15.285 0 0 0-2.128-.146c-7.53.058-13.702 6.162-13.848 13.69-.108 5.645 3.164 10.558 7.92 12.853a1.008 1.008 0 0 0 1.416-.694l.176-.8c-3.33-2.56-5.489-6.573-5.489-11.085Z" fill="#5A5D9D"/><path d="M36.826 19.805a4.147 4.147 0 0 1-4.15 4.15 4.147 4.147 0 0 1-4.15-4.15 4.147 4.147 0 0 1 4.15-4.15 4.153 4.153 0 0 1 4.15 4.15Z" fill="#61BDF6"/><path d="M31.64 19.805a4.153 4.153 0 0 1 2.598-3.848 4.147 4.147 0 0 0-5.703 3.848 4.147 4.147 0 0 0 5.703 3.847 4.143 4.143 0 0 1-2.597-3.847ZM29.19 43.643a4.147 4.147 0 0 1-4.15 4.15 4.147 4.147 0 0 1-4.151-4.15 4.147 4.147 0 0 1 4.15-4.15 4.153 4.153 0 0 1 4.15 4.15Z" fill="#61BDF6"/><path d="M24.004 43.643a4.153 4.153 0 0 1 2.598-3.848 4.147 4.147 0 0 0-5.703 3.848 4.147 4.147 0 0 0 5.703 3.847 4.139 4.139 0 0 1-2.598-3.847ZM21.855 19.805a4.147 4.147 0 0 1-4.15 4.15 4.147 4.147 0 0 1-4.15-4.15 4.147 4.147 0 0 1 4.15-4.15 4.153 4.153 0 0 1 4.15 4.15Z" fill="#61BDF6"/><path d="M16.67 19.805a4.153 4.153 0 0 1 2.598-3.848 4.147 4.147 0 0 0-5.703 3.848 4.147 4.147 0 0 0 5.703 3.847 4.129 4.129 0 0 1-2.598-3.847Z" fill="#61BDF6"/></svg>