<svg fill="none" xmlns="http://www.w3.org/2000/svg" viewBox="0 0 50 50"><g clip-path="url(#a)"><path d="M47.78 9.638 43.044 37.25a2.24 2.24 0 0 1-.91 1.438L26.704 49.49a2.798 2.798 0 0 1-1.615.509h-.059a2.784 2.784 0 0 1-1.556-.509L8.28 38.855a2.98 2.98 0 0 1-.783-.822 2.975 2.975 0 0 1-.411-1.056l-4.599-26.87a2.802 2.802 0 0 1 .342-1.878 2.805 2.805 0 0 1 1.478-1.204L24.14.157A2.75 2.75 0 0 1 25.03 0c.342-.01.685.049 1.008.157l20.284 7.025a2.195 2.195 0 0 1 1.457 2.456Z" fill="#61BDF6"/><path d="M47.779 9.638 43.043 37.25a2.24 2.24 0 0 1-.91 1.438L26.703 49.49a2.798 2.798 0 0 1-1.615.509h-.059V0c.343-.01.685.049 1.008.157l20.284 7.025a2.195 2.195 0 0 1 1.458 2.456Z" fill="#61BDF6"/><path d="M37.34 26.468c0 .812-.656 1.467-1.468 1.467H14.698a1.466 1.466 0 0 1-1.468-1.467c0-.812.656-1.468 1.468-1.468h21.184c.803 0 1.458.656 1.458 1.468Z" fill="#fff"/><path d="M37.339 26.468c0 .812-.656 1.467-1.468 1.467H25.029V25h10.842c.812 0 1.468.656 1.468 1.468ZM13.035 22.798V17.32h1.145v5.48h-1.145Zm3.542-5.479h1.125v5.48h-1.125v-2.183h-1.751l-.519-1.017h2.27v-2.28ZM20.912 17.319v5.48h-1.126v-4.521h-1.614v-.959h2.74Zm.166 0h1.448v.959h-.969l-.48-.959ZM25.658 17.319v5.48h-1.126v-4.521h-1.614v-.959h2.74Zm.166 0h1.448v.959h-.968l-.48-.959ZM30.961 17.476c.235.097.44.244.617.41.176.177.313.382.42.617.108.235.157.49.157.753 0 .264-.049.519-.156.754-.108.235-.245.44-.421.606a1.89 1.89 0 0 1-.617.411c-.234.098-.489.157-.753.157h-.607l-.597-1.096h1.204a.71.71 0 0 0 .323-.068.994.994 0 0 0 .264-.186c.068-.079.127-.177.176-.294a.9.9 0 0 0 .069-.372.78.78 0 0 0-.069-.332 1.166 1.166 0 0 0-.176-.284.799.799 0 0 0-.587-.284h-1.39v4.53h-1.086V17.32h2.476c.274 0 .519.049.753.157ZM36.04 17.534c.333.147.626.343.87.587.245.245.441.539.588.871.147.333.215.685.215 1.067 0 .381-.068.734-.215 1.066a2.845 2.845 0 0 1-.587.871c-.245.245-.538.44-.871.587a2.6 2.6 0 0 1-1.067.215h-.45l-.518-.958h.968c.225 0 .44-.05.636-.137.206-.088.372-.216.529-.372a1.853 1.853 0 0 0 .48-1.282 1.843 1.843 0 0 0-.48-1.272 1.564 1.564 0 0 0-.529-.372 1.58 1.58 0 0 0-.636-.137h-1.252v4.53h-1.096V17.32h2.348c.372 0 .734.069 1.067.215Z" fill="#fff"/></g><defs><clipPath id="a"><path fill="#fff" d="M0 0h50v50H0z"/></clipPath></defs></svg>