<svg fill="none" xmlns="http://www.w3.org/2000/svg" viewBox="0 0 50 50"><path d="M25 50c9.06 0 16.406-7.345 16.406-16.406S34.061 17.187 25 17.187c-9.06 0-16.406 7.346-16.406 16.407C8.594 42.654 15.939 50 25 50Z" fill="#FAAB63"/><path d="M16.406 32.813c9.061 0 16.407-7.346 16.407-16.407C32.813 7.346 25.466 0 16.405 0 7.346 0 0 7.345 0 16.406s7.345 16.407 16.406 16.407Z" fill="#61BDF6"/><path d="M33.594 32.813c9.06 0 16.406-7.346 16.406-16.407C50 7.346 42.655 0 33.594 0S17.187 7.345 17.187 16.406s7.346 16.407 16.407 16.407Z" fill="#E1697F"/><path d="M32.598 19.043A16.37 16.37 0 0 0 25 2.432a16.383 16.383 0 0 0-7.813 13.974c0 .899.069 1.778.215 2.637-4.492 2.354-7.754 6.729-8.593 11.904a16.335 16.335 0 0 0 7.597 1.856c3.145 0 6.094-.889 8.594-2.432a16.412 16.412 0 0 0 8.594 2.432c2.744 0 5.332-.674 7.597-1.856-.83-5.175-4.101-9.55-8.593-11.904Z" fill="#fff"/><path d="M32.598 19.043c-.772 4.785-3.623 8.887-7.598 11.338a16.38 16.38 0 0 1-7.598-11.338A16.335 16.335 0 0 1 25 17.188c2.734 0 5.332.673 7.598 1.855ZM17.188 26.563h-1.563v1.562h1.563v-1.563ZM25.781 11.719H24.22v1.562h1.562V11.72ZM34.375 26.563h-1.563v1.562h1.563v-1.563Z" fill="#5A5D9D"/></svg>