<svg xmlns="http://www.w3.org/2000/svg" viewBox="0 0 512.002 512.002" style="enable-background:new 0 0 512.002 512.002" xml:space="preserve"><path style="fill:#fff" d="M479.572 370.72H32.428c-13.71 0-24.824-11.114-24.824-24.824V70.484c0-13.71 11.114-24.824 24.824-24.824h447.144c13.71 0 24.824 11.114 24.824 24.824v275.414c0 13.709-11.115 24.822-24.824 24.822z"/><path style="fill:#e0e0e2" d="M504.396 70.484c0-13.71-11.114-24.824-24.824-24.824H32.428c-13.71 0-24.824 11.114-24.824 24.824v24.832h496.791V70.484h.001z"/><path style="fill:#ff3502" d="M35.995 191.628h136.484v80.094H35.995z"/><path style="fill:#2487ff" d="M199.687 191.628h278.352v80.094H199.687z"/><path style="fill:#ffa834" d="M35.995 121.673h442.037v46.637H35.995z"/><path style="fill:#898890" d="M358.456 437.437H153.544l30.179-66.717h144.554z"/><path style="fill:#2e2e30" d="M128.748 437.436h254.506v28.906H128.748z"/><path style="fill:#77767e" d="M337.039 390.093H174.96l8.997-19.373h144.086z"/><path style="fill:#c6c5cb" d="M7.604 293.442v52.454c0 13.71 11.114 24.824 24.824 24.824h447.144c13.71 0 24.824-11.114 24.824-24.824v-52.454H7.604z"/><path style="fill:#fff" d="M91.125 62.88h329.754v15.208H91.125zM415.089 324.473h53.764v15.208h-53.764zM382.727 224.071h72.997v15.208h-72.997zM346.908 224.071h25.009v15.208h-25.009zM421.933 137.387h33.792v15.208h-33.792zM307.703 137.387h103.412v15.208H307.703zM56.269 210.05h86.512v15.208H56.269zM56.269 233.703h40.888v15.208H56.269z"/><path style="fill:#010101" d="M180.078 279.328v-95.302H28.391v95.302h151.687zm-136.48-80.094H164.87v64.886H43.598v-64.886zM192.081 279.328h293.554v-95.302H192.081v95.302zm15.208-80.094h263.139v64.886H207.289v-64.886zM485.636 114.071H28.391v61.845h457.245v-61.845zm-15.208 46.637H43.598v-31.429h426.83v31.429z"/><path style="fill:#010101" d="M511.626 65.552c-2.383-15.548-15.848-27.497-32.054-27.497H32.428c-1.676 0-3.323.128-4.932.374C11.947 40.812 0 54.279 0 70.484V345.896c0 2.076.204 4.105.579 6.074.034.182.065.366.103.547 1.812 8.698 7.122 16.122 14.384 20.745a32.55 32.55 0 0 0 2.771 1.579 32.284 32.284 0 0 0 4.96 2.022l.012.003a32.304 32.304 0 0 0 9.62 1.457h139.508l-23.3 51.51h-27.498v44.113h269.719v-44.113H363.36l-23.3-51.51h139.51c3.348 0 6.58-.51 9.62-1.457l.012-.003a32.67 32.67 0 0 0 7.731-3.601c7.261-4.623 12.573-12.048 14.384-20.745.038-.181.068-.365.103-.547.375-1.969.579-3.998.579-6.074V70.484a32.479 32.479 0 0 0-.373-4.932zM32.428 53.263h447.143c9.496 0 17.22 7.726 17.22 17.22V87.71H15.208V70.484a17.12 17.12 0 0 1 3.701-10.632c3.156-4.005 8.037-6.589 13.519-6.589zM375.652 445.04v13.698H136.348V445.04h239.304zm-28.981-15.207H165.329l23.3-51.51h134.74l23.302 51.51zm-13.489-66.716H32.428c-7.715 0-14.262-5.1-16.445-12.104a17.158 17.158 0 0 1-.776-5.115v-44.851h481.585v44.851c0 1.78-.272 3.499-.776 5.115-2.184 7.006-8.73 12.104-16.445 12.104H333.182zm163.61-77.279H15.208V102.919h481.585v182.919z"/></svg>