<svg fill="none" xmlns="http://www.w3.org/2000/svg" viewBox="0 0 50 50"><path d="M50 11.719v36.816A1.45 1.45 0 0 1 48.535 50H1.465A1.45 1.45 0 0 1 0 48.535V11.72l2.93-2.93h44.14L50 11.72Z" fill="#E0F4FF"/><path d="M50 1.465C50 .655 49.345 0 48.535 0H35.254l-2.93 8.79 2.93 2.929H50V1.465Z" fill="#61BDF6"/><path d="M35.254 0v11.719H0V1.465C0 .645.644 0 1.465 0h33.789Z" fill="#61729B"/><path d="M8.887 5.86a1.465 1.465 0 1 1-2.93 0 1.465 1.465 0 0 1 2.93 0ZM14.746 5.86a1.465 1.465 0 1 1-2.93 0 1.465 1.465 0 0 1 2.93 0ZM20.605 5.86a1.465 1.465 0 1 1-2.93 0 1.465 1.465 0 0 1 2.93 0Z" fill="#61BDF6"/><path d="M25 17.676c-7.265 0-13.184 5.918-13.184 13.183 0 7.266 5.918 13.184 13.184 13.184 7.266 0 13.184-5.918 13.184-13.184 0-7.266-5.918-13.183-13.184-13.183Z" fill="#FAAB63"/><path d="M30.185 33.965a1.504 1.504 0 0 1 0 2.08 1.504 1.504 0 0 1-2.08 0L25 32.94l-3.106 3.105a1.504 1.504 0 0 1-2.08 0 1.504 1.504 0 0 1 0-2.08l3.105-3.106-3.105-3.105a1.504 1.504 0 0 1 0-2.08 1.505 1.505 0 0 1 2.08 0L25 28.779l3.105-3.105a1.505 1.505 0 0 1 2.08 0 1.504 1.504 0 0 1 0 2.08l-3.105 3.105 3.105 3.106Z" fill="#E0F4FF"/></svg>