<svg fill="none" xmlns="http://www.w3.org/2000/svg" viewBox="0 0 50 50"><path d="M46.973 5.86v42.675A1.45 1.45 0 0 1 45.508 50H4.492a1.45 1.45 0 0 1-1.465-1.465V5.86l2.93-2.93h38.086l2.93 2.93Z" fill="#E0F4FF"/><path d="M46.973 5.86v42.675A1.45 1.45 0 0 1 45.508 50H25V2.93h19.043l2.93 2.93Z" fill="#E0F4FF"/><path d="M39.648 11.719H10.352a1.45 1.45 0 0 0-1.465 1.465v5.957c0 .82.644 1.465 1.465 1.465h29.296a1.45 1.45 0 0 0 1.465-1.465v-5.957a1.45 1.45 0 0 0-1.465-1.465ZM25 23.535H10.352A1.45 1.45 0 0 0 8.887 25v17.676c0 .82.644 1.465 1.465 1.465H25a1.45 1.45 0 0 0 1.465-1.465V25A1.45 1.45 0 0 0 25 23.535Z" fill="#61BDF6"/><path d="M39.648 32.324H30.86c-.81 0-1.465-.655-1.465-1.465V25c0-.81.656-1.465 1.465-1.465h8.79c.809 0 1.464.655 1.464 1.465v5.86c0 .809-.655 1.464-1.465 1.464ZM39.648 44.14H30.86c-.81 0-1.465-.655-1.465-1.464v-5.957c0-.81.656-1.465 1.465-1.465h8.79c.809 0 1.464.655 1.464 1.465v5.957c0 .81-.655 1.465-1.465 1.465Z" fill="#fff"/><path d="M26.465 25v17.676A1.45 1.45 0 0 1 25 44.14V23.535c.82 0 1.465.645 1.465 1.465ZM41.113 13.184v5.957a1.45 1.45 0 0 1-1.465 1.465H25v-8.887h14.648c.821 0 1.465.644 1.465 1.465Z" fill="#61BDF6"/><path d="M46.973 1.465v4.394H3.027V1.465C3.027.645 3.672 0 4.492 0h41.016c.82 0 1.465.644 1.465 1.465Z" fill="#5A5D9D"/><path d="M46.973 1.465v4.394H25V0h20.508c.82 0 1.465.644 1.465 1.465Z" fill="#5A5D9D"/></svg>