<svg xmlns="http://www.w3.org/2000/svg" viewBox="0 0 512 512"><path d="M240 408c0 30.928 60.889 56 136 56s136-25.072 136-56v-64c0 30.928-272 30.928-272 0z" fill="#528fd8"/><ellipse cx="376" cy="344" fill="#0573ce" rx="136" ry="56"/><path d="M240 312c0 30.928 60.889 56 136 56s136-25.072 136-56v-64c0 30.928-272 30.928-272 0z" fill="#528fd8"/><ellipse cx="376" cy="248" fill="#0573ce" rx="136" ry="56"/><path d="M240 216c0 30.928 60.889 56 136 56s136-25.072 136-56v-64c0 30.928-272 30.928-272 0z" fill="#528fd8"/><ellipse cx="376" cy="152" fill="#b2caec" rx="136" ry="56"/><path d="M458.182 107.377C467.031 114.808 472 123.165 472 132c0 30.928-60.889 56-136 56-30.878 0-59.353-4.237-82.182-11.377C275.948 195.206 322.345 208 376 208c75.111 0 136-25.072 136-56 0-18.213-21.117-34.396-53.818-44.623z" fill="#82aee3"/><g fill="#0573ce"><path d="M320.008 242.556c-.456 0-.917-.042-1.382-.128-19.015-3.542-36.275-8.935-49.916-15.594a7.5 7.5 0 0 1 6.581-13.479c12.443 6.075 28.377 11.029 46.082 14.328a7.501 7.501 0 0 1 6 8.747 7.503 7.503 0 0 1-7.365 6.126zM320.008 338.556c-.456 0-.917-.042-1.382-.128-19.015-3.542-36.275-8.935-49.916-15.594a7.5 7.5 0 0 1-3.449-10.03 7.499 7.499 0 0 1 10.03-3.449c12.443 6.075 28.377 11.029 46.082 14.328a7.501 7.501 0 0 1 6 8.747 7.503 7.503 0 0 1-7.365 6.126zM320.008 434.556c-.456 0-.917-.042-1.382-.128-19.015-3.542-36.275-8.935-49.916-15.594a7.5 7.5 0 0 1 6.581-13.479c12.443 6.075 28.377 11.029 46.082 14.328a7.501 7.501 0 0 1 6 8.747 7.503 7.503 0 0 1-7.365 6.126z"/></g><circle cx="480.005" cy="220.093" fill="#fe7d43" r="7.5"/><circle cx="448" cy="231.521" fill="#ffd15b" r="7.5"/><circle cx="480.005" cy="316.093" fill="#ffd15b" r="7.5"/><circle cx="448" cy="327.521" fill="#fe7d43" r="7.5"/><circle cx="480.005" cy="412.093" fill="#fe7d43" r="7.5"/><circle cx="448" cy="423.521" fill="#ffd15b" r="7.5"/><path d="M171.933 312.198c70.287 22.852 149.363-5.63 187.799-72.204 44.229-76.607 17.872-174.598-58.892-218.66-76.642-43.992-173.914-17.79-218.098 58.742-38.419 66.547-23.575 149.228 31.304 198.679 5.93 5.343 6.831 14.313 2.06 20.712l-40.063 53.729 17.259 28.43 33.251.731 26.499-61.559c3.142-7.299 11.323-11.057 18.881-8.6z" fill="#0055a3"/><path d="M8.468 443.822c-15.265 20.473-9.246 49.68 12.87 62.449 22.116 12.769 50.42 3.378 60.517-20.079l44.697-103.835-50.51-29.162z" fill="#fd6930"/><circle cx="221.238" cy="160" fill="#99e6fc" r="128"/><path d="M253.497 36.1c40.976 21.341 68.956 64.202 68.956 113.598 0 70.692-57.308 128-128 128a128.205 128.205 0 0 1-32.259-4.1C179.86 282.799 199.941 288 221.238 288c70.692 0 128-57.308 128-128 0-59.549-40.666-109.601-95.741-123.9z" fill="#62dbfb"/><path d="M157.238 95.453v129.095c0 8.534 6.918 15.453 15.453 15.453h97.095c8.534 0 15.453-6.918 15.453-15.453v-54.793c0-12.988-6.816-30.914-16-40.098L235.582 96c-9.184-9.184-27.11-16-40.098-16h-22.793c-8.535 0-15.453 6.918-15.453 15.453z" fill="#dff6fd"/><path d="m235.582 94.344 35.313 35.313a48.972 48.972 0 0 1 14.344 34.628v5.47c0-14.224-11.531-25.755-25.755-25.755h-22.793c-8.534 0-15.453-6.918-15.453-15.453v-22.793c0-14.224-11.531-25.755-25.755-25.755h5.47a48.98 48.98 0 0 1 34.629 14.345z" fill="#f2fbff"/><path d="M221.238 215.5a7.499 7.499 0 0 1-7.5-7.5v-16c0-4.143 3.357-7.5 7.5-7.5s7.5 3.357 7.5 7.5v16c0 4.143-3.357 7.5-7.5 7.5z" fill="#fe7d43"/><path d="M189.238 215.5a7.499 7.499 0 0 1-7.5-7.5v-64c0-4.143 3.357-7.5 7.5-7.5s7.5 3.357 7.5 7.5v64c0 4.143-3.357 7.5-7.5 7.5z" fill="#80d261"/><path d="M253.238 215.5a7.499 7.499 0 0 1-7.5-7.5v-32c0-4.143 3.357-7.5 7.5-7.5s7.5 3.357 7.5 7.5v32c0 4.143-3.357 7.5-7.5 7.5z" fill="#ffc344"/></svg>