<svg fill="none" xmlns="http://www.w3.org/2000/svg" viewBox="0 0 50 50"><g clip-path="url(#a)"><path d="M48.32 25c0 12.88-10.44 23.32-23.32 23.32S1.68 37.88 1.68 25 12.12 1.68 25 1.68 48.32 12.12 48.32 25Z" fill="#61BDF6"/><path d="M36.797 4.883a24.976 24.976 0 0 1 5.43 15.586c0 13.857-11.23 25.088-25.088 25.088a24.49 24.49 0 0 1-3.614-.264A23.177 23.177 0 0 0 25.01 48.31c12.88 0 23.32-10.439 23.32-23.32-.01-8.564-4.639-16.054-11.533-20.107Z" fill="#5A5D9D"/><path d="M50 25c0-6.68-2.598-12.959-7.324-17.676C37.949 2.607 31.68 0 25 0 18.32 0 12.041 2.598 7.324 7.324 2.607 12.051 0 18.32 0 25c0 6.68 2.598 12.959 7.324 17.676C12.041 47.393 18.311 49.99 24.981 50h.039c6.67-.01 12.939-2.607 17.656-7.324C47.402 37.959 50 31.68 50 25ZM26.68 37.256v-24.59h5.898c1.836 3.691 2.852 7.93 2.852 12.344 0 4.375-.996 8.574-2.803 12.246H26.68Zm3.955 3.369a23.063 23.063 0 0 1-3.946 4.365v-4.365h3.946ZM26.68 9.297V5.02a23.497 23.497 0 0 1 3.886 4.277H26.68Zm7.89 0a27.426 27.426 0 0 0-3.945-5.186 21.61 21.61 0 0 1 9.238 5.186H34.57ZM23.32 5.02v4.277h-3.886A23.15 23.15 0 0 1 23.32 5.02Zm-5.898 7.646h5.898v24.59h-5.937c-1.807-3.672-2.803-7.871-2.803-12.246-.01-4.414 1.006-8.653 2.842-12.344Zm-7.285-3.37a21.666 21.666 0 0 1 9.238-5.185 27.426 27.426 0 0 0-3.945 5.186h-5.293ZM23.32 40.626v4.365a23.331 23.331 0 0 1-3.945-4.365h3.945Zm-7.949 0a27.067 27.067 0 0 0 3.984 5.254 21.686 21.686 0 0 1-9.296-5.254h5.312Zm19.258 0h5.312a21.686 21.686 0 0 1-9.297 5.254 27.067 27.067 0 0 0 3.985-5.254Zm8.184-3.37h-6.495c1.602-3.759 2.471-7.929 2.471-12.245 0-4.346-.889-8.555-2.51-12.344h6.475A21.5 21.5 0 0 1 46.62 25c.01 4.55-1.396 8.77-3.809 12.256ZM7.236 12.667h6.475c-1.621 3.78-2.51 7.988-2.51 12.344 0 4.316.87 8.486 2.47 12.246H7.189A21.55 21.55 0 0 1 3.369 25c0-4.58 1.436-8.828 3.867-12.334Z" fill="#5A5D9D"/><path d="M48.32 26.68H1.68a1.68 1.68 0 1 1 0-3.36h46.63c.928 0 1.68.752 1.68 1.68 0 .928-.742 1.68-1.67 1.68Z" fill="#61BDF6"/><path d="M1.68 25c0 2.666.449 5.235 1.279 7.627h44.082A23.192 23.192 0 0 0 48.321 25c0-2.764-.48-5.41-1.358-7.871H3.047A23.35 23.35 0 0 0 1.68 25Z" fill="#E0F4FF"/><path d="M41.387 17.129c.234 1.328.361 2.686.361 4.082 0 4.15-1.084 8.037-2.978 11.416h8.28A23.192 23.192 0 0 0 48.33 25c0-2.764-.478-5.41-1.367-7.871h-5.576Z" fill="#DEF4F8"/><path d="M9.082 21.416c0-.928.479-1.22 1.22-1.22h2.55c2.275 0 4.365.995 4.365 4.58 0 2.9-1.621 4.58-4.404 4.58h-2.51c-.742 0-1.221-.294-1.221-1.221v-6.719Zm2.08 6.27h1.758c1.67 0 2.197-1.485 2.197-2.9 0-1.808-.683-2.901-2.217-2.901h-1.748v5.8h.01ZM21.24 21.25c0-.87.42-1.22 1.309-1.22.43 0 .81.165 1.045.546l3.652 5.889h.03v-5.44c0-.673.38-1.005 1.005-1.005.625 0 1.006.332 1.006 1.005v7.188c0 .83-.351 1.299-1.23 1.299-.664 0-.88-.137-1.143-.557l-3.633-5.713h-.029v5.283c0 .674-.38 1.006-1.006 1.006-.625 0-1.006-.332-1.006-1.006V21.25ZM38.525 24.053c1.905.43 2.393 1.562 2.393 2.636 0 1.65-1.25 2.891-3.77 2.891-2.646 0-3.828-1.328-3.828-2.314 0-.508.371-.87.88-.87 1.132 0 .84 1.65 2.948 1.65 1.084 0 1.68-.595 1.68-1.21 0-.371-.176-.771-.889-.957l-2.353-.596c-1.895-.488-2.236-1.523-2.236-2.51 0-2.04 1.884-2.802 3.652-2.802 1.63 0 3.555.918 3.555 2.138 0 .518-.45.83-.957.83-.967 0-.791-1.357-2.735-1.357-.967 0-1.504.45-1.504 1.084 0 .635.762.84 1.426.996l1.738.39Z" fill="#61BDF6"/><path d="M42.676 7.324a24.948 24.948 0 0 0-9.131-5.83 25.283 25.283 0 0 1 5.83 7.354c.166.146.332.302.498.449h-.264a25.378 25.378 0 0 1 1.377 3.369h1.778A21.5 21.5 0 0 1 46.63 25c0 4.55-1.416 8.77-3.819 12.256h-6.494c.166-.4.332-.81.489-1.22a25.219 25.219 0 0 1-7.598 6.425 23.7 23.7 0 0 1-2.52 2.53v-1.32c-1.084.45-2.207.821-3.369 1.114v.205c-.058-.049-.117-.107-.185-.166a24.191 24.191 0 0 1-4.15.654c.126.137.244.264.37.391-.39-.107-.771-.224-1.152-.351-.351.01-.703.02-1.064.02-2.852 0-5.586-.48-8.145-1.348 4.483 3.76 10.078 5.8 15.986 5.81h.04c6.67-.01 12.939-2.607 17.656-7.324C47.402 37.949 50 31.68 50 25c0-6.68-2.598-12.959-7.324-17.676ZM30.644 45.88a27.67 27.67 0 0 0 3.985-5.254h5.312a21.629 21.629 0 0 1-9.297 5.254Z" fill="#888BBD"/><path d="M25 50c-6.68 0-12.959-2.598-17.676-7.324C2.598 37.959 0 31.68 0 25c0-6.68 2.598-12.959 7.324-17.676C12.051 2.607 18.32 0 25 0c6.68 0 12.959 2.598 17.676 7.324C47.393 12.051 50 18.32 50 25c0 6.68-2.598 12.959-7.324 17.676C37.949 47.393 31.68 50 25 50Zm0-46.63C13.076 3.37 3.37 13.075 3.37 25S13.075 46.63 25 46.63 46.63 36.925 46.63 25 36.925 3.37 25 3.37Z" fill="#5A5D9D"/><path d="M42.676 7.324C37.959 2.598 31.68 0 25 0c-.283 0-.566.01-.85.02a24.836 24.836 0 0 1 16.827 7.304C45.703 12.051 48.3 18.32 48.3 25c0 6.68-2.598 12.959-7.324 17.676A24.836 24.836 0 0 1 24.15 49.98c.284.01.567.02.85.02 6.68 0 12.959-2.598 17.676-7.324C47.393 37.949 50 31.68 50 25c0-6.68-2.598-12.959-7.324-17.676Z" fill="#2C3B73"/></g><defs><clipPath id="a"><path fill="#fff" d="M0 0h50v50H0z"/></clipPath></defs></svg>