<svg fill="none" xmlns="http://www.w3.org/2000/svg" viewBox="0 0 50 50"><g clip-path="url(#a)"><path d="M24.424 38.887h-4.6v5.146h4.6v-5.146Z" fill="#BBDCFF"/><path d="M24.424 38.887h-4.6v2.187h4.6v-2.187Z" fill="#C7B9BF"/><path d="M25.225 44.023h-6.211l-6.641 1.368a.385.385 0 0 0-.303.37v1.085c0 .215.176.38.381.38h19.336c.215 0 .381-.175.381-.38v-1.084a.37.37 0 0 0-.303-.371l-6.64-1.368Z" fill="#6E82A6"/><path d="m31.865 45.39-6.64-1.367h-1.71l5.782 1.368c.156.039.264.195.264.37v1.085c0 .215-.147.38-.332.38h2.558c.215 0 .381-.175.381-.38v-1.084c.01-.176-.127-.332-.303-.371Z" fill="#3F5173"/><path d="M0 9.912V36.3a2.592 2.592 0 0 0 2.588 2.588H41.66a2.592 2.592 0 0 0 2.588-2.588V9.912a2.592 2.592 0 0 0-2.588-2.588H2.588A2.586 2.586 0 0 0 0 9.912Z" fill="#47568C"/><path d="M4.063 36.016a1.196 1.196 0 0 1-1.192-1.192V11.387c0-.655.537-1.192 1.192-1.192h36.113c.654 0 1.191.537 1.191 1.192v23.437c0 .654-.537 1.192-1.191 1.192H4.062Z" fill="#FAAB63"/><path d="M6.24 4.365v26.211c0 .88.713 1.592 1.592 1.592h22.813c.878 0 1.591-.713 1.591-1.592V4.366c0-.88-.713-1.593-1.591-1.593H7.832A1.58 1.58 0 0 0 6.24 4.365Z" fill="#E0F4FF"/><path d="M30.654 2.764h-2.129c.88 0 1.592.713 1.592 1.591v26.211c0 .88-.713 1.592-1.592 1.592h2.13c.878 0 1.591-.713 1.591-1.592v-26.2c0-.89-.713-1.602-1.592-1.602Z" fill="#BBDCFF"/><path d="M30.654 2.764H7.832c-.879 0-1.592.713-1.592 1.591v5h26.006v-4.99c0-.888-.713-1.601-1.592-1.601Z" fill="#61BDF6"/><path d="M31.885 3.34a1.594 1.594 0 0 0-1.23-.576h-2.13c.88 0 1.592.713 1.592 1.591v5h2.13v-4.99a1.597 1.597 0 0 0-.333-.976c-.01-.02-.02-.03-.03-.05Z" fill="#61BDF6"/><path d="M28.535 7.246a1.143 1.143 0 1 0 0-2.285 1.143 1.143 0 0 0 0 2.285Z" fill="#E1697F"/><path d="M24.033 7.246a1.143 1.143 0 1 0 0-2.285 1.143 1.143 0 0 0 0 2.285Z" fill="#FAAB63"/><path d="M19.531 7.246a1.143 1.143 0 1 0 0-2.285 1.143 1.143 0 0 0 0 2.285Z" fill="#5BC980"/><path d="M15.234 21.855c-.058.137-.224.176-.4.176-.195 0-.371-.058-.42-.175l-.605-1.71-.596 1.7c-.049.127-.234.185-.43.185-.166 0-.332-.049-.39-.185L11.19 18.75a.328.328 0 0 1-.039-.146c0-.245.391-.42.655-.42.136 0 .253.058.293.166l.78 2.226.587-1.933c.058-.176.185-.206.342-.206.146 0 .293.02.341.206l.577 1.943.79-2.236c.04-.098.147-.166.293-.166.254 0 .655.175.655.42a.31.31 0 0 1-.03.136l-1.2 3.116ZM20.664 21.855c-.059.137-.225.176-.4.176-.196 0-.371-.058-.42-.175l-.606-1.71-.595 1.7c-.05.127-.235.185-.43.185-.166 0-.332-.049-.39-.185L16.62 18.75a.328.328 0 0 1-.039-.146c0-.245.39-.42.654-.42.137 0 .254.058.293.166l.782 2.226.585-1.933c.06-.176.186-.206.342-.206.147 0 .293.02.342.206l.576 1.943.791-2.236c.04-.098.147-.166.293-.166.254 0 .655.175.655.42a.31.31 0 0 1-.03.136l-1.2 3.116ZM26.094 21.855c-.059.137-.225.176-.4.176-.196 0-.372-.058-.42-.175l-.606-1.71-.596 1.7c-.049.127-.234.185-.43.185-.165 0-.331-.049-.39-.185l-1.201-3.096a.328.328 0 0 1-.04-.146c0-.245.391-.42.655-.42.137 0 .254.058.293.166l.781 2.226.586-1.933c.059-.176.186-.206.342-.206.146 0 .293.02.342.206l.576 1.943.791-2.236c.039-.098.146-.166.293-.166.254 0 .654.175.654.42a.31.31 0 0 1-.03.136l-1.2 3.116Z" fill="#5A5D9D"/><path d="m21.299 25.137 10.01 5.175-6.543 3.39-3.467-8.565Z" fill="#61BDF6"/><path d="m31.309 30.313.332 3.857 2.744-5.674-13.086-3.36 10.01 5.177Z" fill="#4C98C8"/><path d="m31.64 34.17-3.27-2.334 2.939-1.523.332 3.857Z" fill="#50A5DA"/><path d="m21.299 25.137 17.1 1.533-4.014 1.826-13.086-3.36Z" fill="#61BDF6"/><path d="M45.127 42.217a.731.731 0 0 1-.723-.586c-.088-.4.166-.8.566-.889.41-.088.801-.244 1.182-.459a.74.74 0 0 1 1.016.283.74.74 0 0 1-.284 1.016 5.848 5.848 0 0 1-1.591.615c-.059.01-.108.02-.166.02Zm-2.94-.156a.745.745 0 0 1-.205-.03 9.274 9.274 0 0 1-1.504-.576.75.75 0 0 1 .635-1.357c.44.205.869.37 1.28.488.39.117.624.527.507.918a.737.737 0 0 1-.713.557Zm-3.926-2.1a.718.718 0 0 1-.449-.156c-.4-.303-.8-.635-1.191-.987a.744.744 0 0 1-.059-1.054.744.744 0 0 1 1.055-.059c.37.322.742.635 1.103.908.332.245.391.713.147 1.045a.753.753 0 0 1-.606.303Zm10.332-.371a.75.75 0 0 1-.654-1.113c.215-.371.38-.772.488-1.202a.747.747 0 0 1 .918-.527c.4.108.635.518.528.918a6.74 6.74 0 0 1-.635 1.553.711.711 0 0 1-.645.37ZM35.02 36.895a.765.765 0 0 1-.566-.254c-.352-.41-.674-.82-.967-1.211a.748.748 0 0 1 1.201-.889c.264.361.567.742.899 1.123a.745.745 0 0 1-.079 1.055.77.77 0 0 1-.488.176Zm14.238-1.631a.742.742 0 0 1-.732-.606 6.571 6.571 0 0 0-.39-1.27.735.735 0 0 1 .39-.976c.38-.166.82.01.977.39.214.509.38 1.036.488 1.573a.743.743 0 0 1-.586.87c-.059.019-.108.019-.147.019Zm-2.128-3.858a.724.724 0 0 1-.518-.215 7.441 7.441 0 0 0-1.055-.85.75.75 0 0 1-.205-1.034.75.75 0 0 1 1.035-.205c.46.302.88.644 1.26 1.015a.752.752 0 0 1 .02 1.055.698.698 0 0 1-.537.234Z" fill="#5A5D9D"/></g><defs><clipPath id="a"><path fill="#fff" d="M0 0h50v50H0z"/></clipPath></defs></svg>