<svg fill="none" xmlns="http://www.w3.org/2000/svg" viewBox="0 0 50 50"><path d="M36.356 50H13.644C11.085 50 9 47.588 9 44.629V5.37C9 2.412 11.085 0 13.644 0h22.712C38.914 0 41 2.412 41 5.371V44.63C41 47.588 38.923 50 36.356 50Z" fill="#ECF9FB"/><path d="M36.348 0H25v50h11.356C38.914 50 41 47.588 41 44.629V5.37C40.992 2.412 38.914 0 36.348 0Z" fill="#ECF9FB"/><path d="M28.66 6h-7.32C20.597 6 20 5.553 20 5c0-.553.598-1 1.34-1h7.32c.742 0 1.34.447 1.34 1 0 .553-.607 1-1.34 1ZM9 43v1.867C9 47.695 11.085 50 13.644 50h22.712C38.914 50 41 47.695 41 44.867V43H9Z" fill="#61BDF6"/><path d="M28.66 4H25v2h3.66C29.403 6 30 5.553 30 5c0-.553-.607-1-1.34-1ZM25 43v7h11.356C38.914 50 41 47.695 41 44.867V43H25Z" fill="#61BDF6"/><circle cx="25" cy="46.5" r="1.5" fill="#fff"/><path d="M45.39 16.21H21.964c-1.084 0-1.963.977-1.963 2.179v15.166c0 1.2.879 2.177 1.963 2.177H45.39c1.084 0 1.962-.976 1.962-2.177V18.389c0-1.201-.878-2.178-1.962-2.178Z" fill="#FFC278"/><path d="M21.963 16.21c-1.084 0-1.963.977-1.963 2.179v15.166c0 1.2.879 2.177 1.963 2.177h11.709V16.211h-11.71ZM45.39 16.21H33.683v19.532H45.39c1.084 0 1.962-.976 1.962-2.177V18.389c0-1.201-.878-2.178-1.962-2.178Z" fill="#FAAB63"/><path d="m30.791 26.191-10.195 8.936c.351.38.83.615 1.367.615H45.39c.527 0 1.015-.234 1.367-.615l-10.196-8.936h-5.771Z" fill="#FAAB63"/><path d="m46.758 35.127-10.196-8.936h-2.88v9.551H45.39c.527 0 1.006-.234 1.367-.615Z" fill="#FAAB63"/><path d="m34.6 27.705 12.5-10.371c-.332-.664-.977-1.123-1.71-1.123H21.964c-.733 0-1.377.45-1.71 1.123l12.51 10.38a1.43 1.43 0 0 0 1.837-.009Z" fill="#FFB876"/><path d="M45.39 16.21H33.683v11.827c.332 0 .654-.107.918-.332l12.5-10.371c-.332-.674-.977-1.123-1.71-1.123Z" fill="#FFB876"/></svg>