<svg viewBox="0 0 497 497" xmlns="http://www.w3.org/2000/svg"><path d="M107.683 447.301v33.131c0 9.15 7.418 16.568 16.568 16.568h314.766c9.15 0 16.568-7.418 16.568-16.568V66.267c0-9.15-7.417-16.567-16.568-16.567h-33.132z" fill="#d3e2eb"/><path d="M57.983 430.733c0 9.15 7.418 16.568 16.567 16.568h314.766c9.15 0 16.568-7.417 16.568-16.568V16.567c0-9.15-7.417-16.567-16.568-16.567H74.55C65.4 0 57.983 7.418 57.983 16.567z" fill="#ecf0f9"/><path d="M389.316 0h-23c9.15 0 16.567 7.418 16.567 16.567v414.165c0 9.15-7.417 16.568-16.567 16.568h23c9.15 0 16.567-7.417 16.567-16.568V16.567C405.883 7.418 398.466 0 389.316 0z" fill="#d8e4f0"/><path d="M439.016 49.7h-23c9.15 0 16.568 7.417 16.568 16.567v414.165c0 9.15-7.417 16.568-16.568 16.568h23c9.15 0 16.568-7.418 16.568-16.568V66.267c-.001-9.15-7.418-16.567-16.568-16.567z" fill="#b0c4d8"/><path d="M157.383 82.834c-36.598 0-66.267 29.668-66.267 66.267 0 36.598 29.669 66.267 66.267 66.267s66.267-29.669 66.267-66.267c0-36.599-29.669-66.267-66.267-66.267zm0 82.833c-9.15 0-16.567-7.417-16.567-16.567 0-9.149 7.417-16.567 16.567-16.567s16.567 7.417 16.567 16.567c0 9.149-7.417 16.567-16.567 16.567z" fill="#90c962"/><path d="M315.05 115.967h-50.267a8 8 0 0 1-8-8V90.834a8 8 0 0 1 8-8h50.267a8 8 0 0 1 8 8v17.133a8 8 0 0 1-8 8z" fill="#4c9cd6"/><path d="M372.75 156.6H256.783c-4.143 0-7.5-3.357-7.5-7.5s3.357-7.5 7.5-7.5H372.75c4.143 0 7.5 3.357 7.5 7.5a7.5 7.5 0 0 1-7.5 7.5zM372.75 189.733H256.783c-4.143 0-7.5-3.357-7.5-7.5s3.357-7.5 7.5-7.5H372.75c4.143 0 7.5 3.357 7.5 7.5s-3.357 7.5-7.5 7.5zM323.05 222.866h-66.267c-4.143 0-7.5-3.357-7.5-7.5s3.357-7.5 7.5-7.5h66.267c4.143 0 7.5 3.357 7.5 7.5s-3.358 7.5-7.5 7.5z" fill="#595a66"/><path d="M149.383 314.767H99.117a8 8 0 0 1-8-8v-17.133a8 8 0 0 1 8-8h50.267a8 8 0 0 1 8 8v17.133a8.002 8.002 0 0 1-8.001 8z" fill="#4c9cd6"/><path d="M207.083 355.4H91.116c-4.143 0-7.5-3.357-7.5-7.5s3.357-7.5 7.5-7.5h115.967c4.143 0 7.5 3.357 7.5 7.5s-3.357 7.5-7.5 7.5zM207.083 388.533H91.116c-4.143 0-7.5-3.357-7.5-7.5s3.357-7.5 7.5-7.5h115.967c4.143 0 7.5 3.357 7.5 7.5s-3.357 7.5-7.5 7.5zM157.383 421.667H91.116c-4.143 0-7.5-3.357-7.5-7.5s3.357-7.5 7.5-7.5h66.267c4.143 0 7.5 3.357 7.5 7.5s-3.358 7.5-7.5 7.5z" fill="#595a66"/><path d="M240.217 371.967a7.498 7.498 0 0 1-5.304-12.802l33.133-33.135a7.506 7.506 0 0 1 7.676-1.811l45.303 15.102 46.422-46.423a7.5 7.5 0 0 1 10.607 10.607l-49.7 49.7a7.502 7.502 0 0 1-7.676 1.811l-45.303-15.102-29.854 29.856a7.482 7.482 0 0 1-5.304 2.197z" fill="#4c9cd6"/><path d="M356.183 421.667H240.217c-4.143 0-7.5-3.357-7.5-7.5s3.357-7.5 7.5-7.5h115.966c5 0 9.067-4.067 9.067-9.067V281.634c0-4.143 3.357-7.5 7.5-7.5s7.5 3.357 7.5 7.5V397.6c0 13.27-10.797 24.067-24.067 24.067z" fill="#595a66"/><path d="M157.383 82.834v49.7c9.15 0 16.567 7.417 16.567 16.567 0 4.575-1.854 8.716-4.852 11.714l35.143 35.143c11.992-11.992 19.409-28.558 19.409-46.857 0-36.599-29.669-66.267-66.267-66.267zM99.683 66.267H57.417c-8.837 0-16-7.163-16-16v-1.133c0-8.836 7.163-16 16-16h42.266a8 8 0 0 1 8 8v17.133a8 8 0 0 1-8 8z" fill="#ffcb5b"/><path d="M99.683 33.133h-23a8 8 0 0 1 8 8v17.133a8 8 0 0 1-8 8h23a8 8 0 0 0 8-8V41.133a8 8 0 0 0-8-8z" fill="#ffb85b"/></svg>