<svg viewBox="0 0 64 64" xmlns="http://www.w3.org/2000/svg"><g data-name="24-Email"><path d="M16 1v6h-6z" fill="#acaeaf"/><path d="M10 26v35a2.006 2.006 0 0 0 2 2h40a2.006 2.006 0 0 0 2-2v-2c-30 0-44-33-44-33z" fill="#cfd9dc"/><path d="M52 1H16v6h-6v19s14 33 44 33V3a2.006 2.006 0 0 0-2-2z" fill="#f4f4f4"/><path d="M30 19h-8v-8a8 8 0 0 1 8 8z" fill="#ff7d81"/><path d="M22 19h8a8.014 8.014 0 0 1-2.34 5.66z" fill="#ffd03e"/><path d="m22 19 5.66 5.66A8 8 0 1 1 22 11z" fill="#7099cf"/><path d="M44 15h3v8h-3z" fill="#fbb040"/><path d="M37 17h3v6h-3z" fill="#ffd03e"/><path d="M50 23v4H34v-4h13z" fill="#314a66"/><path d="M50 11v12h-3v-8h-3v8h-4v-6h-3v6h-3V11z" fill="#263540"/><path d="M40 17h2v6h-2zM34 11h2v12h-2zM47 15h2v8h-2z" fill="#2c4354"/><path d="M14 31h36v22H14z" fill="#a0cbe0"/><path d="M40 49a22 22 0 0 1-21.63-18H14v22h36v-4z" fill="#7ea8c2"/><path d="M10 22v9.26L5 27zM54 31.26V22l5 5z" fill="#a37862"/><path d="m14 34.67 3.06 2.61 4.29 3.65 3.09 2.63L5 63V27l5 4.26zM54 31.26 59 27v36L39.56 43.56l3.09-2.63 4.29-3.65L50 34.67z" fill="#f7941d"/><path d="M59 63H5l19.44-19.44L32 50l7.56-6.44z" fill="#ffd03e"/><path d="M5 34v29l14.013-14.013C8.22 42.029 5 34 5 34zM59 63v-4q-2.088 0-4.074-.074z" fill="#fe7f2d"/><path d="M19.013 48.987 5 63h54l-4.074-4.074c-16.817-.616-28.265-5.009-35.913-9.939z" fill="#fbb040"/><path d="M39 4h12v2H39zM35 4h2v2h-2z" fill="#a8b8bf"/><g fill="#f4f4f4"><path d="M19 34h2v2h-2zM23 34h22v2H23zM23 38h18v2H23z"/></g><path d="M14 58h2v2h-2zM18 58h32v2H18z" fill="#fe7f2d"/></g></svg>