<svg fill="none" xmlns="http://www.w3.org/2000/svg" viewBox="0 0 50 50"><g clip-path="url(#a)"><path d="M49.97 47.919c0 .627-.21 1.145-.628 1.563-.418.309-.836.518-1.454.518H2.111c-.518 0-1.036-.21-1.454-.518-.419-.418-.628-.936-.628-1.563V17.427h49.95l-.01 30.492Z" fill="#FAAB63"/><path d="M49.344 49.472c-.419.31-.837.518-1.454.518H2.112c-.518 0-1.036-.209-1.454-.518L25.006 28.56l24.338 20.912Z" fill="#FFB876"/><path d="m49.97 17.427-7.08 5.099-16.541 11.86a2.33 2.33 0 0 1-2.808 0L7.1 22.526.03 17.427l7.08-5.098L22.505 1.305 23.65.468a2.33 2.33 0 0 1 2.808 0l1.146.837 7.389 5.308 3.644 2.599 4.262 3.117 7.07 5.098Z" fill="#61BDF6"/><path d="M42.9 7.748v14.778l-16.551 11.86a2.33 2.33 0 0 1-2.808 0L7.1 22.526V3.386c0-1.145.936-2.081 2.08-2.081h27.157l6.562 6.443Z" fill="#E0F4FF"/><path d="M36.447 6.085c0 .936.727 1.663 1.663 1.663h4.79l-6.453-6.443v4.78Z" fill="#fff"/><path d="M15.671 17.395a.769.769 0 0 0-1.045-.284l-.976.567v-1.123a.763.763 0 0 0-1.524 0v1.123l-.976-.567a.758.758 0 0 0-1.046.284.76.76 0 0 0 .284 1.044l.976.567-.976.566a.762.762 0 0 0 .38 1.426c.128 0 .264-.03.382-.107l.976-.567v1.123a.763.763 0 0 0 1.524 0v-1.123l.976.567a.776.776 0 0 0 .38.107.774.774 0 0 0 .665-.38.76.76 0 0 0-.283-1.046l-.977-.566.977-.567a.76.76 0 0 0 .283-1.044ZM23.63 17.629a.769.769 0 0 0-1.045-.283l-.977.566V16.79a.763.763 0 0 0-1.523 0v1.123l-.977-.566a.758.758 0 0 0-1.044.283.758.758 0 0 0 .283 1.045l.976.566-.976.567a.762.762 0 0 0 .38 1.426c.128 0 .264-.03.381-.108l.977-.566v1.123a.763.763 0 0 0 1.523 0v-1.123l.977.566a.776.776 0 0 0 .38.108.774.774 0 0 0 .665-.381.758.758 0 0 0-.283-1.045l-.977-.567.977-.566a.756.756 0 0 0 .283-1.045ZM31.58 17.629a.769.769 0 0 0-1.046-.283l-.976.566V16.79a.763.763 0 0 0-1.524 0v1.123l-.976-.566a.758.758 0 0 0-1.045.283.758.758 0 0 0 .283 1.045l.977.566-.977.567a.778.778 0 0 0-.283 1.045c.146.244.4.38.664.38.127 0 .264-.029.38-.107l.977-.566v1.123a.763.763 0 0 0 1.524 0v-1.123l.976.566a.776.776 0 0 0 .381.108.773.773 0 0 0 .664-.381.758.758 0 0 0-.283-1.045l-.977-.567.977-.566a.756.756 0 0 0 .283-1.045ZM39.255 19.807l-.977-.567.977-.566a.777.777 0 0 0 .283-1.045.777.777 0 0 0-1.045-.283l-.976.566V16.79a.763.763 0 0 0-1.524 0v1.123l-.976-.566a.758.758 0 0 0-1.045.283.758.758 0 0 0 .283 1.045l.976.566-.976.567a.777.777 0 0 0-.283 1.045c.146.244.4.38.664.38.127 0 .264-.029.38-.107l.977-.566v1.123a.763.763 0 0 0 1.524 0v-1.123l.976.566a.776.776 0 0 0 .381.108.764.764 0 0 0 .38-1.426Z" fill="#FAAB63"/><path d="M18.639 9.523h12.353a.763.763 0 0 0 0-1.523H18.64a.763.763 0 0 0 0 1.523ZM14.01 12.58H35.62a.763.763 0 0 0 0-1.523H14.01a.763.763 0 0 0 0 1.523Z" fill="#5A5D9D"/></g><defs><clipPath id="a"><path fill="#fff" d="M0 0h50v50H0z"/></clipPath></defs></svg>