<svg fill="none" xmlns="http://www.w3.org/2000/svg" viewBox="0 0 50 50"><path d="M39.146.833H10.854A3.359 3.359 0 0 0 7.5 4.188V45.812c0 1.855 1.5 3.355 3.354 3.355h28.292c1.854 0 3.354-1.5 3.354-3.355V4.189c0-1.844-1.5-3.355-3.354-3.355Z" fill="#E0F4FF"/><path d="M39.145 50H10.853a4.188 4.188 0 0 1-4.187-4.188V4.188A4.188 4.188 0 0 1 10.854 0h28.28a4.19 4.19 0 0 1 4.199 4.188v41.614A4.19 4.19 0 0 1 39.145 50ZM10.853 1.667a2.53 2.53 0 0 0-2.52 2.52v41.615a2.523 2.523 0 0 0 2.52 2.52h28.282a2.523 2.523 0 0 0 2.52-2.52V4.188a2.523 2.523 0 0 0-2.52-2.521H10.854Z" fill="#61BDF6"/><path d="M35.154 26H14.846c-.465 0-.846-.675-.846-1.5s.38-1.5.846-1.5h20.308c.465 0 .846.675.846 1.5s-.38 1.5-.846 1.5ZM35.154 36H14.846c-.465 0-.846-.675-.846-1.5s.38-1.5.846-1.5h20.308c.465 0 .846.675.846 1.5s-.38 1.5-.846 1.5ZM35.154 17H14.846c-.465 0-.846-.675-.846-1.5s.38-1.5.846-1.5h20.308c.465 0 .846.675.846 1.5s-.38 1.5-.846 1.5Z" fill="#61BDF6"/></svg>