<svg fill="none" xmlns="http://www.w3.org/2000/svg" viewBox="0 0 50 50"><path d="M13.184 48.535H1.464a1.464 1.464 0 1 1 0-2.93h11.72c.81 0 1.562.656 1.562 1.465 0 .81-.753 1.465-1.562 1.465ZM48.535 48.535H36.816a1.464 1.464 0 1 1 0-2.93h11.72a1.464 1.464 0 1 1 0 2.93ZM23.535 35.352h2.93V47.07h-2.93V35.352Z" fill="#5A5D9D"/><path d="M25 35.352h1.465V47.07H25V35.352Z" fill="#5A5D9D"/><path d="M44.14 4.395v13.28H14.747V2.93h27.93c.82 0 1.465.644 1.465 1.465Z" fill="#FFB876"/><path d="M44.14 4.395v13.28H25V2.93h17.676c.82 0 1.465.644 1.465 1.465Z" fill="#FFB876"/><path d="M45.605 8.79h-25.41L17.588.995C17.412.41 16.855 0 16.211 0H4.395A1.45 1.45 0 0 0 2.93 1.465v35.351c0 .82.644 1.465 1.465 1.465h41.21a1.45 1.45 0 0 0 1.465-1.465V10.254a1.45 1.45 0 0 0-1.465-1.465Z" fill="#FAAB63"/><path d="M47.07 10.254v26.562a1.45 1.45 0 0 1-1.465 1.465H25V8.79h20.605c.821 0 1.465.644 1.465 1.465Z" fill="#FAAB63"/><path d="M39.746 26.563H30.86a1.464 1.464 0 1 1 0-2.93h8.887a1.464 1.464 0 1 1 0 2.93ZM39.746 32.422H30.86a1.464 1.464 0 1 1 0-2.93h8.887a1.464 1.464 0 1 1 0 2.93Z" fill="#fff"/><path d="M36.816 44.14H13.184a1.45 1.45 0 0 0-1.465 1.465v2.93c0 .82.644 1.465 1.465 1.465h23.632a1.45 1.45 0 0 0 1.465-1.465v-2.93a1.45 1.45 0 0 0-1.465-1.464Z" fill="#61BDF6"/><path d="M38.281 45.605v2.93A1.45 1.45 0 0 1 36.816 50H25v-5.86h11.816c.82 0 1.465.645 1.465 1.465Z" fill="#61BDF6"/></svg>