<svg fill="none" xmlns="http://www.w3.org/2000/svg" viewBox="0 0 50 50"><path d="M48.262 19.19v26.796A4.014 4.014 0 0 1 44.248 50H11.289a4.02 4.02 0 0 1-3.906-3.076l-.01-2.295-.098-13.662V4.014C7.285 1.797 9.082 0 11.29 0h17.774c1.601 0 6.777 4.414 11.357 9.053 4.17 4.248 7.842 8.681 7.842 10.136Z" fill="#E0F4FF"/><path d="M48.262 19.19v9.814-.04c-.303-12.04-10.117-12.597-13.32-15.81l5.478-4.111c4.17 4.258 7.842 8.691 7.842 10.146Z" fill="#CBE2FF"/><path d="M29.072 0h-9.814.039c12.04.303 12.598 10.117 15.81 13.32l4.112-5.478C34.96 3.672 30.527 0 29.072 0Z" fill="#CBE2FF"/><path d="M48.262 19.19v1.699c0-3.575-2.9-6.475-6.475-6.475h-3.935a4.014 4.014 0 0 1-4.014-4.014V6.475C33.838 2.9 30.938 0 27.363 0h1.7a11.49 11.49 0 0 1 8.154 3.379l7.666 7.666a11.484 11.484 0 0 1 3.379 8.144Z" fill="#BBDCFF"/><path d="M42.695 26.66H15.264a.752.752 0 0 1-.752-.752c0-.41.341-.752.752-.752h27.431c.42 0 .752.342.752.752s-.342.752-.752.752ZM42.695 30.674H15.264a.752.752 0 0 1-.752-.752c0-.41.341-.752.752-.752h27.431c.42 0 .752.342.752.752s-.342.752-.752.752ZM42.695 34.687H15.264a.752.752 0 0 1-.752-.752c0-.41.341-.752.752-.752h27.431a.752.752 0 0 1 0 1.504ZM25.342 38.701H15.264a.752.752 0 0 1-.752-.752c0-.41.341-.752.752-.752h10.078c.42 0 .752.342.752.752s-.342.752-.752.752Z" fill="#5A5D9D"/><path d="M7.725 38.37c2.011 1.552 4.404 2.626 7.011 3.017.293.049.596.078.899.107.43.04.86.059 1.298.059h.02c.361 0 .44-.498.098-.615a11.47 11.47 0 0 1-7.754-10.86c0-5.127 3.369-9.473 8.008-10.937l-.206.586a1.632 1.632 0 0 0-.078.293c-.41 1.914 1.787 3.447 3.467 2.246l8.887-6.377c1.26-.899 1.064-2.822-.342-3.467l-9.96-4.512c-1.974-.888-3.927 1.29-2.823 3.155-7.998.39-14.385 6.933-14.512 14.99-.078 4.97 2.295 9.463 5.987 12.314Z" fill="#E1697F"/><path d="M7.726 38.37c2.011 1.552 4.404 2.626 7.011 3.017.293.048.596.078.899.107.43.04.86.059 1.299.059h.02c.36 0 .439-.498.097-.615a11.47 11.47 0 0 1-7.754-10.86c0-5.127 3.369-9.473 8.008-10.937a1.936 1.936 0 0 0-2.5-1.524C9.952 19.2-.84 24.443 7.726 38.37Z" fill="#E1697F"/></svg>