<svg fill="none" xmlns="http://www.w3.org/2000/svg" viewBox="0 0 50 50"><path d="M49.19 21.494C49.19 10.04 39.901.742 28.438.742 16.973.742 7.686 10.04 7.686 21.494c0 11.455 9.287 20.752 20.752 20.752 11.464 0 20.752-9.287 20.752-20.752Z" fill="#61BDF6"/><path d="M29.346.772C37.949 3.73 44.13 11.895 44.13 21.494c0 9.61-6.182 17.774-14.785 20.733 11.045-.47 19.844-9.57 19.844-20.733 0-11.152-8.81-20.254-19.844-20.722Z" fill="#61BDF6"/><path d="M43.643 6.299A21.363 21.363 0 0 0 28.437 0a21.363 21.363 0 0 0-15.205 6.299C9.18 10.36 6.943 15.752 6.943 21.494a21.394 21.394 0 0 0 6.29 15.205 21.363 21.363 0 0 0 15.204 6.299 21.363 21.363 0 0 0 15.206-6.299 21.363 21.363 0 0 0 6.298-15.205c0-5.742-2.236-11.133-6.298-15.195Zm-3.536 14.453a38.235 38.235 0 0 0-.879-7.559c1.27.41 2.462.899 3.545 1.455 3.301 1.69 5.254 3.838 5.616 6.104h-8.282Zm-1.504.459H29.19v-9.59c2.96.059 5.801.43 8.38 1.094.624 2.48.986 5.674 1.034 8.496ZM29.19 10.117V1.553c2.354.342 4.57 2.314 6.309 5.625.625 1.181 1.152 2.48 1.602 3.887-2.471-.577-5.147-.899-7.91-.948Zm-1.503-8.564v8.564c-2.764.049-5.44.371-7.91.938.439-1.397.976-2.705 1.601-3.887 1.748-3.3 3.965-5.273 6.309-5.615Zm0 10.068v9.6H18.27c.05-2.832.41-6.016 1.036-8.506 2.578-.664 5.42-1.045 8.379-1.094Zm-10.909 9.131h-8.28c.35-2.275 2.313-4.414 5.614-6.104a23.787 23.787 0 0 1 3.545-1.455 36.832 36.832 0 0 0-.879 7.559Zm0 1.494c.05 2.637.352 5.186.88 7.559a23.798 23.798 0 0 1-3.546-1.455c-3.3-1.69-5.263-3.829-5.615-6.104h8.281Zm1.494 0h9.415v9.131c-2.96-.059-5.801-.43-8.38-1.094-.624-2.48-.986-5.205-1.035-8.037Zm9.415 10.635v8.564c-2.354-.342-4.57-2.314-6.309-5.625-.625-1.181-1.152-2.48-1.602-3.886 2.471.576 5.147.888 7.91.947Zm1.503 8.564v-8.564c2.764-.049 5.44-.371 7.91-.938a23.281 23.281 0 0 1-1.601 3.887c-1.738 3.3-3.955 5.264-6.308 5.615Zm0-10.068v-9.13h9.414c-.048 2.831-.41 5.546-1.035 8.036-2.578.664-5.42 1.045-8.378 1.094Zm10.918-9.13h8.282c-.352 2.274-2.315 4.413-5.616 6.103a23.796 23.796 0 0 1-3.545 1.455c.528-2.373.83-4.922.88-7.559Zm7.696-5.753c-1.075-1.172-2.54-2.256-4.356-3.184-1.406-.722-2.978-1.328-4.658-1.816-.517-1.826-1.172-3.515-1.973-5.02-.937-1.787-2.021-3.232-3.213-4.296 6.944 1.865 12.403 7.363 14.2 14.316ZM23.262 2.178c-1.182 1.064-2.266 2.51-3.213 4.297-.791 1.504-1.455 3.193-1.973 5.02-1.69.487-3.252 1.093-4.658 1.816-1.816.927-3.281 2.011-4.355 3.183 1.806-6.953 7.265-12.451 14.199-14.316ZM9.072 26.504c1.075 1.172 2.54 2.256 4.356 3.183 1.406.723 2.978 1.329 4.658 1.817.518 1.826 1.172 3.515 1.973 5.02.937 1.786 2.021 3.232 3.212 4.296-6.943-1.865-12.402-7.363-14.199-14.316ZM33.613 40.82c1.182-1.064 2.266-2.51 3.213-4.297.791-1.504 1.455-3.193 1.973-5.02 1.69-.487 3.252-1.093 4.658-1.816 1.816-.927 3.281-2.011 4.355-3.183-1.806 6.953-7.265 12.451-14.199 14.316Z" fill="#5DB3E9"/><path d="M48.34 35.107a.752.752 0 0 0-.752.752v6.328c0 1.378-1.123 2.5-2.5 2.5h-1.143l.723-.722a.755.755 0 0 0 0-1.065.754.754 0 0 0-1.065 0l-1.913 1.915a.75.75 0 0 0-.323.615v.02c0 .194.078.39.215.527l1.983 1.982a.746.746 0 0 0 .527.215c.195 0 .38-.078.527-.215a.754.754 0 0 0 0-1.065l-.722-.722h1.171a3.993 3.993 0 0 0 3.995-3.994V35.84c.029-.4-.313-.733-.723-.733Z" fill="#E1697F"/><path d="M9.59 3.33 7.607 1.348a.754.754 0 0 0-1.064 0 .754.754 0 0 0 0 1.064l.723.723H6.094A3.993 3.993 0 0 0 2.1 7.129v6.338a.752.752 0 0 0 1.504 0V7.119c0-1.377 1.123-2.5 2.5-2.5h1.142l-.723.723a.754.754 0 0 0 0 1.064.746.746 0 0 0 .528.215c.195 0 .38-.078.527-.215l1.914-1.914a.75.75 0 0 0 .322-.615v-.01a.723.723 0 0 0-.224-.537Z" fill="#6ACA8B"/><path d="M43.643 6.299A21.363 21.363 0 0 0 28.437 0c-.556 0-1.103.02-1.65.059a21.751 21.751 0 0 1 8.291 3.691 11.997 11.997 0 0 0-1.465-1.572 20.055 20.055 0 0 1 14.19 14.316c-1.075-1.172-2.54-2.256-4.356-3.184a17.444 17.444 0 0 0-1.133-.537c.293.665.547 1.348.772 2.042 3.105 1.66 4.941 3.74 5.293 5.937H44.12c.01.254.01.498.01.752s-.01.498-.01.752h4.258c-.342 2.197-2.188 4.277-5.293 5.937a21.397 21.397 0 0 1-.771 2.041c.39-.175.761-.351 1.132-.537 1.817-.927 3.281-2.011 4.356-3.183-1.797 6.953-7.256 12.45-14.19 14.316.508-.459.996-.986 1.465-1.572a21.75 21.75 0 0 1-8.29 3.691c.546.04 1.093.059 1.65.059a21.363 21.363 0 0 0 15.205-6.299 21.363 21.363 0 0 0 6.298-15.205 21.363 21.363 0 0 0-6.298-15.205Z" fill="#5DB3E9"/><path d="M35.87 50H3.495A3.49 3.49 0 0 1 0 46.514V18.125a.65.65 0 0 1 .645-.645h13.642c.215 0 .42.108.537.284l1.895 2.841a.65.65 0 0 0 .537.284H38.72a.65.65 0 0 1 .644.644v24.97A3.493 3.493 0 0 1 35.87 50Z" fill="#FAAB63"/><path d="M38.72 20.898H17.257a.65.65 0 0 1-.537-.283l-1.895-2.842a.649.649 0 0 0-.537-.283H.645a.636.636 0 0 0-.645.635v2.558h9.375c1.28 0 2.48.645 3.193 1.71a3.852 3.852 0 0 0 3.194 1.709h16.553a3.838 3.838 0 0 1 3.837 3.837v21.768c0 .098-.01.185-.01.273a3.484 3.484 0 0 0 3.213-3.476V21.543a.636.636 0 0 0-.634-.645Z" fill="#EB9F5A"/><path d="M9.893 39.317V30.38c0-.176.078-.313.234-.41.156-.098.342-.156.547-.156h4.805c.185 0 .322.078.41.224.088.156.136.332.136.547 0 .225-.048.41-.146.567a.46.46 0 0 1-.41.234h-3.8v2.754h2.11c.176 0 .313.068.41.205a.845.845 0 0 1 .147.508.795.795 0 0 1-.146.478.475.475 0 0 1-.41.205h-2.11v3.77c0 .176-.088.312-.274.41-.175.098-.39.156-.625.156-.244 0-.459-.049-.634-.156a.443.443 0 0 1-.244-.4ZM16.23 30.586c0-.205.05-.39.147-.547a.464.464 0 0 1 .42-.234h5.83c.186 0 .322.078.42.234.098.156.146.342.146.547 0 .215-.049.4-.156.557-.107.156-.234.234-.41.234h-2.021v7.93c0 .175-.088.312-.274.42-.176.097-.39.156-.625.156a1.2 1.2 0 0 1-.635-.156c-.175-.098-.263-.244-.263-.42v-7.93h-2.022a.47.47 0 0 1-.41-.225 1.017 1.017 0 0 1-.146-.566ZM24.16 39.317V30.36a.48.48 0 0 1 .186-.38.72.72 0 0 1 .488-.166h2.773c.948 0 1.7.253 2.276.752.566.498.85 1.279.85 2.343v.079c0 1.074-.294 1.865-.89 2.373-.595.507-1.376.761-2.353.761h-1.543v3.194c0 .175-.088.312-.273.41-.176.097-.39.156-.625.156a1.2 1.2 0 0 1-.635-.156c-.166-.098-.254-.235-.254-.41Zm1.797-4.6H27.5c.459 0 .81-.137 1.064-.4.254-.264.381-.664.381-1.182v-.166c0-.527-.127-.918-.38-1.182-.255-.263-.606-.4-1.065-.4h-1.543v3.33Z" fill="#5A5D9D"/></svg>