<svg xmlns="http://www.w3.org/2000/svg" xml:space="preserve" viewBox="0 0 122.52 122.52"><path d="M901.543 500.352 500.352 901.527c-23.094 23.11-60.567 23.11-83.692 0l-83.301-83.316 105.672-105.676c24.563 8.293 52.727 2.727 72.297-16.847 19.688-19.696 25.203-48.102 16.699-72.75l101.856-101.844c24.648 8.496 53.066 3.004 72.754-16.711 27.5-27.492 27.5-72.059 0-99.574-27.52-27.516-72.078-27.516-99.61 0-20.683 20.703-25.8 51.097-15.312 76.582l-95 94.992V326.414c6.699-3.32 13.027-7.742 18.613-13.312 27.5-27.497 27.5-72.059 0-99.598-27.5-27.488-72.09-27.488-99.57 0-27.5 27.539-27.5 72.101 0 99.598 6.797 6.789 14.668 11.925 23.066 15.363v252.281a69.79 69.79 0 0 0-23.066 15.367c-20.828 20.821-25.84 51.395-15.156 76.977l-104.18 104.195L17.324 502.211c-23.105-23.129-23.105-60.602 0-83.711L418.535 17.324c23.098-23.105 60.559-23.105 83.692 0l399.316 399.317c23.113 23.113 23.113 60.605 0 83.711" style="fill:#f03c2e;fill-opacity:1;fill-rule:nonzero;stroke:none" transform="matrix(.13333 0 0 -.13333 0 122.52)"/></svg>