<svg fill="none" xmlns="http://www.w3.org/2000/svg" viewBox="0 0 50 50"><path d="M41.113 16.113v4.395a1.45 1.45 0 0 1-1.465 1.465 1.45 1.45 0 0 1-1.464-1.465v-4.395C38.184 8.848 32.266 2.93 25 2.93c-7.265 0-13.184 5.918-13.184 13.183v4.395a1.45 1.45 0 0 1-1.464 1.465 1.45 1.45 0 0 1-1.465-1.465v-4.395C8.887 7.236 16.123 0 25 0c8.877 0 16.113 7.236 16.113 16.113Z" fill="#5A5D9D"/><path d="M41.113 16.113v4.395a1.45 1.45 0 0 1-1.465 1.465 1.45 1.45 0 0 1-1.464-1.465v-4.395C38.184 8.848 32.266 2.93 25 2.93V0c8.877 0 16.113 7.236 16.113 16.113Z" fill="#5A5D9D"/><path d="M17.676 26.367h-5.86a2.93 2.93 0 0 1-2.93-2.93v-2.93a2.93 2.93 0 0 1 2.93-2.929h5.86v8.79ZM38.184 26.367h-5.86v-8.789h5.86a2.93 2.93 0 0 1 2.93 2.93v2.93a2.93 2.93 0 0 1-2.93 2.93ZM41.113 39.55v8.985A1.45 1.45 0 0 1 39.648 50h-4.394l-1.465-2.93L32.324 50H17.676l-1.465-2.93L14.746 50h-4.394a1.45 1.45 0 0 1-1.465-1.465v-8.984a7.327 7.327 0 0 1 7.324-7.324h17.578a7.327 7.327 0 0 1 7.324 7.324Z" fill="#61BDF6"/><path d="M41.113 39.55v8.985A1.45 1.45 0 0 1 39.648 50h-4.394l-1.465-2.93L32.324 50H25V32.227h8.79a7.327 7.327 0 0 1 7.323 7.324Z" fill="#61BDF6"/><path d="M35.254 16.113v5.86c0 .498-.03.996-.117 1.465l-2.813 1.464 1.934 1.465a10.184 10.184 0 0 1-4.864 4.863v.997l-3.076 5.038c-.263.528-.79.82-1.318.82a1.478 1.478 0 0 1-1.318-.82l-3.076-5.038v-.996a10.246 10.246 0 0 1-5.86-9.258v-4.395L25 10.108l4.395-3.223c3.456 1.67 5.859 5.156 5.859 9.228Z" fill="#FDE4E4"/><path d="M35.254 16.113v5.86c0 .498-.03.996-.117 1.465l-2.813 1.464 1.934 1.465a10.184 10.184 0 0 1-4.864 4.863v.997l-3.076 5.038c-.263.528-.79.82-1.318.82V10.108l4.395-3.222c3.456 1.67 5.859 5.156 5.859 9.228Z" fill="#FDE4E4"/><path d="M29.395 6.885v3.369A7.298 7.298 0 0 1 25 16.963a7.101 7.101 0 0 1-2.93.615h-7.324v-1.465c0-.497.088-.996.147-1.465.732-4.95 4.95-8.789 10.107-8.789.498 0 .996.088 1.465.147a9.98 9.98 0 0 1 2.93.879Z" fill="#5A5D9D"/><path d="M16.21 41.016c-.809 0-1.464.753-1.464 1.562V50h2.93v-7.422c0-.81-.656-1.562-1.465-1.562ZM33.79 41.016c-.81 0-1.466.753-1.466 1.562V50h2.93v-7.422c0-.81-.655-1.562-1.465-1.562Z" fill="#fff"/><path d="M35.137 23.438a9.984 9.984 0 0 1-.88 2.93H25a1.45 1.45 0 0 1-1.465-1.466c0-.82.645-1.465 1.465-1.465h10.137ZM25 16.963V5.859c.498 0 .996.088 1.465.147a9.98 9.98 0 0 1 2.93.879v3.369A7.298 7.298 0 0 1 25 16.963Z" fill="#5A5D9D"/><path d="M35.137 23.438a9.984 9.984 0 0 1-.88 2.93H25v-2.93h10.137Z" fill="#5A5D9D"/></svg>