<svg fill="none" xmlns="http://www.w3.org/2000/svg" viewBox="0 0 50 50"><path d="M35.689 27.712a3.333 3.333 0 0 1-3.333-3.333V14.023c0-4.057-3.3-7.357-7.357-7.357-4.056 0-7.356 3.3-7.356 7.357v10.356a3.333 3.333 0 0 1-6.666 0V14.023C10.977 6.29 17.267 0 24.999 0s14.023 6.29 14.023 14.023v10.355a3.333 3.333 0 0 1-3.333 3.334Z" fill="#61BDF6"/><g opacity=".1" fill="#000"><path opacity=".1" d="M14.312 27.712a3.333 3.333 0 0 0 3.333-3.333v-7.424h-6.666v7.424a3.333 3.333 0 0 0 3.333 3.333ZM32.357 16.955v7.424a3.333 3.333 0 0 0 6.666 0v-7.424h-6.666Z"/></g><path d="M39.459 20.288H10.54a3.108 3.108 0 0 0-3.107 3.107v23.497A3.108 3.108 0 0 0 10.54 50H39.46a3.108 3.108 0 0 0 3.107-3.108V23.395a3.108 3.108 0 0 0-3.108-3.107Z" fill="#5A5D9D"/></svg>