<svg xmlns="http://www.w3.org/2000/svg" viewBox="0 0 512 512"><rect fill="#ffb632" height="320" rx="32" width="464" x="8" y="56"/><path d="M472 88v9.27L260.23 221.41a40.018 40.018 0 0 1-40.46 0L8 97.27V88a31.906 31.906 0 0 1 .99-7.93 7.824 7.824 0 0 1 3.06 1.03l215.81 126.51a24.027 24.027 0 0 0 24.28 0L467.95 81.1a7.824 7.824 0 0 1 3.06-1.03A31.906 31.906 0 0 1 472 88z" fill="#e09f2c"/><circle cx="400" cy="352" fill="#fbe9d8" r="104"/><g fill="#9aa3a8"><path d="M471.049 313.344a8 8 0 0 0-11.094 2.218l-4.92 7.38a64 64 0 0 0-118.262-6.375 8 8 0 0 0 14.454 6.866 48 48 0 0 1 88.25 3.529l-8.428-5.618a8 8 0 1 0-8.875 13.312l24 16a8 8 0 0 0 11.094-2.218l16-24a8 8 0 0 0-2.219-11.094zM459.433 376.773a8 8 0 0 0-10.66 3.794 48 48 0 0 1-88.25-3.529l8.428 5.618a8 8 0 1 0 8.875-13.312l-24-16a8 8 0 0 0-11.094 2.218l-16 24a8 8 0 1 0 13.313 8.876l4.92-7.38a64 64 0 0 0 118.262 6.375 8 8 0 0 0-3.794-10.66z"/></g></svg>