<svg fill="none" xmlns="http://www.w3.org/2000/svg" viewBox="0 0 50 50"><path d="M49.953 24.954c0 13.782-11.172 24.952-24.954 24.952S.045 38.734.045 24.952 11.217 0 24.999 0s24.954 11.172 24.954 24.954Z" fill="#5A5D9D"/><path d="M42.381 26.798c-.84-5.306-6.406-8.742-10.552-11.334-1.81-1.132-4.746-2.608-5.126-4.988-.156-.984-.15-2-.184-2.994-.014-.39-.02-.782-.054-1.172-.046-.502-.556.116-.836-.322-.694-1.084-.426.328-.358.9.16 1.342.35 2.68.338 4.034-.02 2.588-.438 5.066-1.084 7.56-1.512 5.84-2.704 11.822-1.208 17.798a21.04 21.04 0 0 0 1.242 3.622c.16.352.466 1.332.908 1.45 1.588.424 2.788.546 4.054 1.726.788.734 1.378.332 2.308-.04 2.82-1.128 5.264-2.548 7.26-4.872 2.812-3.266 3.97-7.09 3.292-11.368Zm-2.982 5.342c-.25 2.182-1.618 4.136-3.016 5.758-1.014 1.174-2.384 2.7-3.886 3.234-.54.192.1-.89.178-1.008.464-.7 1.038-1.316 1.57-1.964.788-.956 1.468-1.96 1.93-3.12 1.53-3.846 1.182-8.506-1.082-11.97-1.232-1.886-2.924-3.48-4.63-4.934-.824-.702-1.658-1.368-2.35-2.208-.16-.194-1.576-2.048-1.136-2.322.142-.088 3.236 3.166 3.574 3.42 1.28.966 2.596 1.86 3.78 2.948 1.604 1.474 3.25 3.118 4.17 5.122 1.006 2.196 1.17 4.67.898 7.044Z" fill="#fff"/><path d="M24.081.672c.464.31.568 2.116.568 3.768 0 1.652.154 8.776-.362 10.686-.516 1.91-1.704 4.026-2.994 5.884-1.29 1.858-2.788 5.782-2.736 8.208.052 2.426 1.446 6.4 2.53 8.052 1.088 1.658 2.936 3.97 2.53 4.492-.722.93-3.664-2.272-5.214-4.13-1.548-1.858-3.098-5.626-3.148-8.568-.052-2.942 1.6-5.678 2.788-7.33 1.188-1.652 3.51-4.49 4.13-5.782.62-1.29 1.29-2.684 1.498-4.492.206-1.806 0-8.26 0-8.26s-.054-2.838.41-2.528Z" fill="#fff"/><path d="M22.841 3.718c.464.206.516.774.516 1.342 0 .568-.154 2.89-.31 5.162-.154 2.272-1.962 4.182-3.304 5.524-1.342 1.342-5.214 5.524-6.658 7.588-1.446 2.064-2.166 4.784-2.014 7.072.154 2.322.722 4.594 2.89 7.02 2.168 2.426 3.666 3.562 4.8 4.13 1.136.568 2.272.98 2.014 1.496s-1.342.154-2.53-.258c-1.188-.414-5.214-2.064-7.536-4.698-2.322-2.632-3.51-6.142-3.406-9.498.102-3.356 1.032-4.748 2.58-6.916 1.55-2.168 5.834-5.368 7.176-6.194 1.342-.826 3.148-2.22 4.026-3.356.878-1.136 1.342-2.064 1.29-3.614-.052-1.548.104-2.942.052-3.458-.05-.516-.05-1.548.414-1.342Zm.13 40.462c.21-.008.078.902-.294 1.352-.37.452-1.008.722-1.084.542-.078-.182.46-.286.854-.726.362-.402.266-1.158.524-1.168Zm4.178-.024c-.21-.008-.078.9.294 1.352.37.452 1.008.722 1.084.542.078-.182-.46-.286-.854-.726-.364-.402-.268-1.158-.524-1.168Zm-1.858.988c0 .794.04 1.438-.132 1.438-.214 0-.134-.644-.134-1.438 0-.794-.072-1.438.134-1.438.188-.002.132.642.132 1.438Z" fill="#fff"/></svg>