<svg fill="none" xmlns="http://www.w3.org/2000/svg" viewBox="0 0 50 50"><path d="M26.465 36.719v5.86A1.45 1.45 0 0 1 25 44.042a1.45 1.45 0 0 1-1.465-1.465v-5.86c0-.82.645-1.464 1.465-1.464.82 0 1.465.644 1.465 1.465ZM26.465 7.422v5.86A1.45 1.45 0 0 1 25 14.745a1.45 1.45 0 0 1-1.465-1.465v-5.86c0-.82.645-1.464 1.465-1.464.82 0 1.465.644 1.465 1.465ZM14.822 20.65c-.246 0-.497-.062-.726-.193l-7.787-4.45a1.464 1.464 0 0 1-.545-2 1.458 1.458 0 0 1 1.998-.544l7.788 4.45a1.464 1.464 0 0 1-.728 2.737ZM7.037 36.73a1.464 1.464 0 0 1-.728-2.737l7.788-4.45a1.462 1.462 0 0 1 1.998.545 1.464 1.464 0 0 1-.545 1.999l-7.788 4.45a1.45 1.45 0 0 1-.725.193ZM42.963 36.73c-.246 0-.497-.061-.726-.193l-7.788-4.45a1.464 1.464 0 0 1-.544-1.999 1.46 1.46 0 0 1 1.998-.545l7.787 4.45a1.464 1.464 0 0 1-.727 2.737ZM35.178 20.65a1.464 1.464 0 0 1-.728-2.737l7.787-4.45a1.459 1.459 0 0 1 1.998.545 1.464 1.464 0 0 1-.544 1.998l-7.788 4.45c-.229.132-.48.194-.725.194Z" fill="#5A5D9D"/><path d="M25 14.746V5.957c.82 0 1.465.644 1.465 1.465v5.86A1.45 1.45 0 0 1 25 14.745ZM26.465 36.719v5.86A1.45 1.45 0 0 1 25 44.042v-8.79c.82 0 1.465.645 1.465 1.466Z" fill="#5A5D9D"/><path d="M45.508 17.676a4.4 4.4 0 0 1-4.395-4.395 4.4 4.4 0 0 1 4.395-4.394C47.93 8.887 50 10.858 50 13.28s-2.07 4.395-4.492 4.395ZM45.508 41.113a4.4 4.4 0 0 1-4.395-4.394 4.4 4.4 0 0 1 4.395-4.395c2.423 0 4.492 1.972 4.492 4.395 0 2.423-2.07 4.394-4.492 4.394ZM4.492 41.113C2.07 41.113 0 39.142 0 36.72s2.07-4.395 4.492-4.395a4.4 4.4 0 0 1 4.395 4.395 4.4 4.4 0 0 1-4.395 4.394ZM25 41.113a4.388 4.388 0 0 0-4.395 4.395C20.605 47.939 22.569 50 25 50c2.432 0 4.395-2.06 4.395-4.492A4.388 4.388 0 0 0 25 41.113ZM25 0c-2.432 0-4.395 2.06-4.395 4.492A4.389 4.389 0 0 0 25 8.887a4.389 4.389 0 0 0 4.395-4.395C29.395 2.06 27.431 0 25 0ZM4.492 17.676C2.07 17.676 0 15.704 0 13.28c0-2.423 2.07-4.394 4.492-4.394a4.4 4.4 0 0 1 4.395 4.394 4.4 4.4 0 0 1-4.395 4.395ZM11.477 11.88l1.282-.548a1.464 1.464 0 1 0-1.153-2.693l-1.282.55a1.464 1.464 0 1 0 1.153 2.692ZM5.957 20.605a1.464 1.464 0 1 0-2.93 0v1.465a1.464 1.464 0 1 0 2.93 0v-1.465ZM4.492 26.465c-.81 0-1.465.655-1.465 1.465v1.465a1.464 1.464 0 1 0 2.93 0V27.93c0-.81-.655-1.465-1.465-1.465ZM12.759 38.668l-1.282-.549a1.46 1.46 0 0 0-1.923.77 1.464 1.464 0 0 0 .77 1.922l1.282.55a1.464 1.464 0 1 0 1.153-2.693ZM19.167 41.415l-1.282-.55a1.46 1.46 0 0 0-1.922.77 1.464 1.464 0 0 0 .77 1.923l1.281.55a1.464 1.464 0 1 0 1.153-2.693ZM32.114 40.866l-1.282.549a1.464 1.464 0 1 0 1.153 2.692l1.282-.549a1.464 1.464 0 0 0 .77-1.923 1.459 1.459 0 0 0-1.923-.77ZM38.522 38.12l-1.282.548a1.464 1.464 0 1 0 1.153 2.693l1.282-.55a1.464 1.464 0 0 0 .77-1.922 1.459 1.459 0 0 0-1.923-.77ZM45.508 26.465c-.81 0-1.465.655-1.465 1.465v1.465a1.464 1.464 0 1 0 2.93 0V27.93c0-.81-.656-1.465-1.465-1.465ZM46.973 20.605a1.464 1.464 0 1 0-2.93 0v1.465a1.464 1.464 0 1 0 2.93 0v-1.465ZM37.24 11.332l1.282.549a1.464 1.464 0 1 0 1.153-2.692l-1.282-.55a1.464 1.464 0 1 0-1.153 2.693ZM30.832 8.585l1.282.55a1.464 1.464 0 1 0 1.153-2.693l-1.282-.55a1.46 1.46 0 0 0-1.923.77 1.464 1.464 0 0 0 .77 1.923ZM17.885 9.134l1.282-.549a1.464 1.464 0 0 0 .77-1.923 1.459 1.459 0 0 0-1.923-.77l-1.282.55a1.464 1.464 0 1 0 1.153 2.692Z" fill="#61BDF6"/><path d="M29.395 45.508C29.395 47.939 27.431 50 25 50v-8.887a4.388 4.388 0 0 1 4.395 4.395ZM25 8.887V0c2.432 0 4.395 2.06 4.395 4.492A4.389 4.389 0 0 1 25 8.887ZM25 11.816c-7.265 0-13.184 5.918-13.184 13.184 0 7.266 5.918 13.184 13.184 13.184 7.266 0 13.184-5.918 13.184-13.184 0-7.266-5.918-13.184-13.184-13.184Z" fill="#61BDF6"/><path d="M38.184 25c0 7.266-5.918 13.184-13.184 13.184V11.816c7.266 0 13.184 5.918 13.184 13.184Z" fill="#61BDF6"/><path d="M35.254 25c0 5.654-4.6 10.254-10.254 10.254S14.746 30.654 14.746 25 19.346 14.746 25 14.746 35.254 19.346 35.254 25Z" fill="#61BDF6"/><path d="M35.254 25c0 5.654-4.6 10.254-10.254 10.254V14.746c5.654 0 10.254 4.6 10.254 10.254Z" fill="#61BDF6"/><path d="M38.184 25a1.45 1.45 0 0 1-1.465 1.465H13.28A1.45 1.45 0 0 1 11.816 25c0-.82.645-1.465 1.465-1.465H36.72c.82 0 1.465.645 1.465 1.465Z" fill="#61BDF6"/><path d="M25 11.816c-3.838 0-5.86 6.622-5.86 13.184 0 6.562 2.022 13.184 5.86 13.184 3.838 0 5.86-6.622 5.86-13.184 0-6.562-2.022-13.184-5.86-13.184Zm0 23.438c-.85 0-2.93-3.604-2.93-10.254 0-6.65 2.08-10.254 2.93-10.254.85 0 2.93 3.603 2.93 10.254 0 6.65-2.08 10.254-2.93 10.254Z" fill="#61BDF6"/><path d="M38.184 25a1.45 1.45 0 0 1-1.465 1.465H25v-2.93h11.719c.82 0 1.465.645 1.465 1.465Z" fill="#61BDF6"/><path d="M30.86 25c0 6.562-2.022 13.184-5.86 13.184v-2.93c.85 0 2.93-3.604 2.93-10.254 0-6.65-2.08-10.254-2.93-10.254v-2.93c3.838 0 5.86 6.622 5.86 13.184Z" fill="#61BDF6"/></svg>