<svg fill="none" xmlns="http://www.w3.org/2000/svg" viewBox="0 0 50 50"><path d="M41.113 47.07a2.938 2.938 0 0 1-2.93-2.93v-4.394c0-.81-.654-1.465-1.464-1.465H11.963l-3.076 2.93H4.492a1.47 1.47 0 0 0-1.465 1.465c0 4.043 3.291 7.324 7.325 7.324h30.761c.81 0 1.465-.654 1.465-1.465 0-.81-.654-1.465-1.465-1.465Z" fill="#D4ECFA"/><path d="M42.578 48.535c0 .81-.654 1.465-1.465 1.465H29.395V38.281h7.324c.81 0 1.465.654 1.465 1.465v4.395a2.938 2.938 0 0 0 2.93 2.93c.81 0 1.464.654 1.464 1.464Z" fill="#D4ECFA"/><path d="M45.508 0H10.352C9.54 0 8.887.654 8.887 1.465V41.21h26.367V45c0 3.125 3.144 5 5.86 5a5.864 5.864 0 0 0 5.859-5.86V1.466c0-.81-.655-1.465-1.465-1.465Z" fill="#E0F4FF"/><path d="M46.973 1.465V44.14A5.864 5.864 0 0 1 41.113 50c-2.715 0-5.86-1.875-5.86-5v-3.79h-5.858V0h16.113c.81 0 1.465.654 1.465 1.465Z" fill="#61BDF6"/><path d="M38.184 10.45c0 .81-.655 1.464-1.465 1.464H19.14c-.81 0-1.465-.654-1.465-1.465 0-.81.654-1.465 1.465-1.465h17.578c.81 0 1.465.655 1.465 1.465Z" fill="#fff"/><path d="M38.184 10.45c0 .81-.655 1.464-1.465 1.464h-7.325v-2.93h7.325c.81 0 1.465.655 1.465 1.465ZM27.93 17.773h-8.79c-.81 0-1.464-.654-1.464-1.464 0-.811.654-1.465 1.465-1.465h8.789c.81 0 1.465.654 1.465 1.465 0 .81-.655 1.464-1.465 1.464Z" fill="#fff"/></svg>