<svg fill="none" xmlns="http://www.w3.org/2000/svg" viewBox="0 0 50 50"><path d="M30.178 12.052c2.317 1.41 3.94 3.802 4.229 6.577a7.453 7.453 0 0 0 3.093.677c4.055 0 7.333-3.193 7.333-7.142 0-3.949-3.278-7.141-7.333-7.141-4.008-.012-7.264 3.136-7.322 7.029Zm-4.807 14.621c4.054 0 7.333-3.204 7.333-7.141 0-3.95-3.279-7.142-7.333-7.142-4.055 0-7.333 3.193-7.333 7.142 0 3.948 3.29 7.141 7.333 7.141Zm3.116.486h-6.221c-5.178 0-9.395 4.106-9.395 9.15v7.412l.023.113.521.158C18.362 45.492 22.648 46 26.182 46c6.904 0 10.9-1.918 11.144-2.042l.487-.237h.046v-7.412c.012-5.044-4.194-9.15-9.372-9.15Zm12.13-7.368h-6.175c-.07 2.403-1.124 4.57-2.792 6.138 4.599 1.331 7.97 5.494 7.97 10.402v2.28c6.094-.215 9.615-1.896 9.847-2.02l.487-.249H50V28.93c.012-5.043-4.205-9.139-9.384-9.139ZM12.5 19.295a7.406 7.406 0 0 0 3.904-1.106c.36-2.279 1.622-4.276 3.418-5.641.011-.136.023-.27.023-.406 0-3.95-3.29-7.142-7.333-7.142-4.055 0-7.334 3.193-7.334 7.142-.011 3.96 3.279 7.153 7.322 7.153Zm6.592 6.622a8.726 8.726 0 0 1-2.792-6.103c-.232-.012-.452-.034-.684-.034h-6.22C4.215 19.79 0 23.887 0 28.93v7.412l.023.113.521.158c3.962 1.207 7.507 1.76 10.577 1.94V36.32c0-4.908 3.372-9.071 7.97-10.403Z" fill="#61BDF6"/></svg>