<svg fill="none" xmlns="http://www.w3.org/2000/svg" viewBox="0 0 50 50"><g clip-path="url(#a)"><path d="M49.463 47.998a1.416 1.416 0 0 1-2.051 0l-8.437-8.438a1.416 1.416 0 0 1 0-2.05 1.416 1.416 0 0 1 2.05 0l8.438 8.437a1.416 1.416 0 0 1 0 2.05Z" fill="#5A5D9D"/><path d="M41.111 25v10.254a1.45 1.45 0 0 1-1.464 1.465H1.365A1.45 1.45 0 0 1-.1 35.254V25l2.93-2.93h35.352l2.93 2.93Z" fill="#888BBD"/><path d="m38.184 22.07 2.93 2.93v10.254a1.45 1.45 0 0 1-1.466 1.465h-19.14V22.07h17.676Z" fill="#5A5D9D"/><path d="M41.111 13.281V25H-.099V13.28l2.93-2.93h35.35l2.93 2.93Z" fill="#888BBD"/><path d="M41.111 3.027v10.254H-.099V3.027c0-.82.644-1.465 1.464-1.465h38.282c.82 0 1.464.645 1.464 1.465Z" fill="#888BBD"/><path d="M41.113 3.027v10.254H20.508V1.562h19.14c.821 0 1.465.645 1.465 1.465Z" fill="#5A5D9D"/><path d="M8.69 30.86a1.465 1.465 0 1 1-2.93 0 1.465 1.465 0 0 1 2.93 0ZM14.549 30.86a1.465 1.465 0 1 1-2.93 0 1.465 1.465 0 0 1 2.93 0ZM8.69 19.14a1.465 1.465 0 1 1-2.93 0 1.465 1.465 0 0 1 2.93 0ZM14.549 19.14a1.465 1.465 0 1 1-2.93 0 1.465 1.465 0 0 1 2.93 0ZM8.69 7.422a1.465 1.465 0 1 1-2.93 0 1.465 1.465 0 0 1 2.93 0ZM14.549 7.422a1.465 1.465 0 1 1-2.93 0 1.465 1.465 0 0 1 2.93 0Z" fill="#61BDF6"/><path d="M41.026 25.088c-4.014-4.014-10.489-4.014-14.473 0-4.014 4.013-4.014 10.488 0 14.472 4.014 4.014 10.488 4.014 14.473 0 4.013-4.013 4.013-10.488 0-14.472Z" fill="#E0F4FF"/><path d="M33.79 42.558c5.675 0 10.253-4.579 10.233-10.234 0-5.676-4.578-10.255-10.234-10.234v20.468Z" fill="#E0F4FF"/><path d="M38.973 37.51a7.374 7.374 0 0 1-10.371 0 7.374 7.374 0 0 1 0-10.372 7.375 7.375 0 0 1 10.371 0 7.374 7.374 0 0 1 0 10.371Z" fill="#61BDF6"/><path d="M41.122 32.324a7.374 7.374 0 0 0-7.333-7.333v14.667a7.373 7.373 0 0 0 7.333-7.334Z" fill="#61BDF6"/></g><defs><clipPath id="a"><path fill="#fff" d="M0 0h50v50H0z"/></clipPath></defs></svg>