<svg fill="none" xmlns="http://www.w3.org/2000/svg" viewBox="0 0 50 50"><path d="M36.455 18.75c3.447 0 6.65 1.006 9.375 2.715V5.42L24.668 15.898a3.994 3.994 0 0 1-3.496 0L0 5.42v19.062c0 2.588 2.1 4.688 4.688 4.688h15.654c2.783-6.133 8.955-10.42 16.113-10.42Z" fill="#E0F4FF"/><path d="M45.83 4.688v1.25L24.668 16.416a3.994 3.994 0 0 1-3.496 0L0 5.937v-1.25C0 2.1 2.1 0 4.688 0h36.455c2.587 0 4.687 2.1 4.687 4.688ZM36.453 50c7.48 0 13.545-6.064 13.545-13.545 0-7.48-6.064-13.545-13.545-13.545-7.48 0-13.545 6.064-13.545 13.545 0 7.48 6.064 13.545 13.545 13.545Z" fill="#61BDF6"/><path d="M42.188 38.017h-5.733c-.86 0-1.562-.703-1.562-1.562v-5.732c0-.86.703-1.563 1.562-1.563.86 0 1.563.703 1.563 1.563v4.17h4.17c.859 0 1.562.703 1.562 1.562 0 .86-.703 1.563-1.563 1.563Z" fill="#fff"/></svg>