<svg fill="none" xmlns="http://www.w3.org/2000/svg" viewBox="0 0 50 50"><g clip-path="url(#a)"><path d="M49.97 47.919c0 .627-.21 1.145-.628 1.563-.418.309-.836.518-1.454.518H2.111c-.518 0-1.036-.21-1.454-.518-.419-.418-.628-.936-.628-1.563V17.427h49.95l-.01 30.492Z" fill="#FAAB63"/><path d="M49.344 49.472c-.419.31-.837.518-1.454.518H2.112c-.518 0-1.036-.209-1.454-.518L25.006 28.56l24.338 20.912Z" fill="#FFB876"/><path d="m49.97 17.427-7.08 5.099-16.541 11.86a2.33 2.33 0 0 1-2.808 0L7.1 22.526.03 17.427l7.08-5.098L22.505 1.305 23.65.468a2.33 2.33 0 0 1 2.808 0l1.146.837 7.389 5.308 3.644 2.599 4.262 3.117 7.07 5.098Z" fill="#61BDF6"/><path d="M42.9 7.748v14.778l-16.551 11.86a2.33 2.33 0 0 1-2.808 0L7.1 22.526V3.386c0-1.145.936-2.081 2.08-2.081h27.157l6.562 6.443Z" fill="#E0F4FF"/><path d="M36.447 6.085c0 .936.727 1.663 1.663 1.663h4.79l-6.453-6.443v4.78Z" fill="#fff"/><path d="M35.29 10.563H14.78A.784.784 0 0 1 14 9.78c0-.43.352-.781.781-.781H35.29c.43 0 .781.352.781.781 0 .43-.351.781-.78.781ZM35.29 15.25H14.78a.784.784 0 0 1-.781-.781c0-.43.352-.781.781-.781H35.29c.43 0 .781.351.781.78 0 .43-.351.782-.78.782ZM35.29 19.938H14.78a.784.784 0 0 1-.781-.782c0-.43.352-.781.781-.781H35.29c.43 0 .781.352.781.781 0 .43-.351.782-.78.782ZM35.29 24.625H14.78a.784.784 0 0 1-.781-.781c0-.43.352-.782.781-.782H35.29c.43 0 .781.352.781.782 0 .43-.351.781-.78.781Z" fill="#61729B"/><path d="M39.684 43.367A4.689 4.689 0 0 1 35 38.684 4.689 4.689 0 0 1 39.684 34a4.689 4.689 0 0 1 4.683 4.684 4.695 4.695 0 0 1-4.683 4.683Z" fill="#E1697F" stroke="#fff" stroke-width="2"/><path d="m39.837 39.129 4.687.259-.212.212a.918.918 0 0 0 0 1.302l4.378 4.378-2.701 2.701-4.378-4.378a.918.918 0 0 0-1.303 0l-.212.212-.259-4.686Zm6.207 8.908Zm2.701-2.701Zm-9.412-6.262.274 4.951-.274-4.95Z" fill="#61BDF6" stroke="#fff"/></g><defs><clipPath id="a"><path fill="#fff" d="M0 0h50v50H0z"/></clipPath></defs></svg>