<svg viewBox="0 0 16.933 16.933" xmlns="http://www.w3.org/2000/svg"><path d="M2.355.53a.265.265 0 0 0-.162.451L3.97 2.755v.576l-.639.638h-.574L.98 2.194a.265.265 0 0 0-.45.187V4.5a.265.265 0 0 0 .077.185L1.93 6.008a.265.265 0 0 0 .187.077h2.006l6.724 6.724v2.008a.265.265 0 0 0 .079.187l1.322 1.323a.265.265 0 0 0 .187.078h2.118a.265.265 0 0 0 .185-.453l-1.773-1.774v-.574l.638-.64h.575l1.775 1.775a.265.265 0 0 0 .451-.188v-2.115a.265.265 0 0 0-.078-.187l-1.322-1.325a.265.265 0 0 0-.188-.076h-2.005L6.086 4.123V2.116a.265.265 0 0 0-.078-.186L4.686.606A.265.265 0 0 0 4.498.53H2.38a.265.265 0 0 0-.026 0z" fill="#33658a"/><path d="M15.316.53a.272.272 0 0 0-.09.027l-2.644 1.322a.265.265 0 0 0-.146.237v.949L5.898 9.602l1.432 1.434 6.537-6.538h.95c.1 0 .191-.056.236-.146l1.324-2.647a.265.265 0 0 0-.05-.304l-.794-.795a.265.265 0 0 0-.217-.076z" fill="#dbe9ee"/><path d="M5.553 8.995a.265.265 0 0 0-.184.078L1.092 13.35c-.718.717-.76 1.864-.067 2.557.693.693 1.84.65 2.557-.067l4.277-4.277a.265.265 0 0 0 0-.373L5.744 9.073a.265.265 0 0 0-.191-.078z" fill="#33b9ef"/><path d="m4.575 9.867 2.49 2.49.794-.794a.265.265 0 0 0 0-.373L5.744 9.072a.265.265 0 0 0-.191-.078.265.265 0 0 0-.184.078z" fill="#2fa9da"/></svg>