<svg fill="none" xmlns="http://www.w3.org/2000/svg" viewBox="0 0 50 50"><g clip-path="url(#a)"><path d="M5.762 11.816h29.492v8.79H5.762v-8.79Z" fill="#5A5D9D"/><path d="M20.508 11.816h14.746v8.79H20.508v-8.79Z" fill="#2C3B73"/><path d="M5.762 26.465h29.492v8.789H5.762v-8.79Z" fill="#5A5D9D"/><path d="M20.508 26.465h14.746v8.789H20.508v-8.79Z" fill="#2C3B73"/><path d="M39.648 3.027H1.368A1.45 1.45 0 0 0-.099 4.492v8.79c0 .82.645 1.464 1.465 1.464h38.281a1.45 1.45 0 0 0 1.465-1.465V4.492a1.45 1.45 0 0 0-1.465-1.465Z" fill="#888BBD"/><path d="M41.113 4.492v8.79a1.45 1.45 0 0 1-1.465 1.464h-19.14V3.027h19.14c.821 0 1.465.645 1.465 1.465Z" fill="#5A5D9D"/><path d="M8.691 8.887a1.465 1.465 0 1 1-2.93 0 1.465 1.465 0 0 1 2.93 0ZM14.55 8.887a1.465 1.465 0 1 1-2.929 0 1.465 1.465 0 0 1 2.93 0Z" fill="#61BDF6"/><path d="M39.648 17.676H1.368A1.45 1.45 0 0 0-.099 19.14v8.789c0 .82.645 1.465 1.465 1.465h38.281a1.45 1.45 0 0 0 1.465-1.465v-8.79a1.45 1.45 0 0 0-1.465-1.464Z" fill="#888BBD"/><path d="M41.113 19.14v8.79a1.45 1.45 0 0 1-1.465 1.465h-19.14v-11.72h19.14c.821 0 1.465.645 1.465 1.466Z" fill="#5A5D9D"/><path d="M8.691 23.535a1.465 1.465 0 1 1-2.929 0 1.465 1.465 0 0 1 2.93 0ZM14.55 23.535a1.465 1.465 0 1 1-2.929 0 1.465 1.465 0 0 1 2.93 0Z" fill="#61BDF6"/><path d="M39.648 32.324H1.368A1.45 1.45 0 0 0-.099 33.79v8.79c0 .82.645 1.464 1.465 1.464h38.281a1.45 1.45 0 0 0 1.465-1.465V33.79a1.45 1.45 0 0 0-1.465-1.465Z" fill="#888BBD"/><path d="M41.113 33.79v8.788a1.45 1.45 0 0 1-1.465 1.465h-19.14V32.324h19.14c.821 0 1.465.645 1.465 1.465Z" fill="#5A5D9D"/><path d="M8.691 38.184a1.465 1.465 0 1 1-2.929 0 1.465 1.465 0 0 1 2.93 0ZM14.55 38.184a1.465 1.465 0 1 1-2.929 0 1.465 1.465 0 0 1 2.93 0ZM49.463 34.815l-2.93 2.93c-.732.76-1.934.439-2.373-.294l-2.607-2.636a1.416 1.416 0 0 1 0-2.051 1.416 1.416 0 0 1 2.05 0c-1.054-3.633-4.365-6.3-8.35-6.3-4.833 0-8.788 3.956-8.788 8.79s3.955 8.789 8.789 8.789a8.811 8.811 0 0 0 7.06-3.574c.498-.645 1.407-.791 2.051-.293.674.468.791 1.377.322 2.05a11.835 11.835 0 0 1-9.433 4.747c-6.475 0-11.719-5.244-11.719-11.72 0-6.474 5.244-11.718 11.719-11.718 5.83 0 10.635 4.278 11.543 9.844l.615-.615a1.416 1.416 0 0 1 2.05 0 1.416 1.416 0 0 1 0 2.05Z" fill="#61BDF6"/><path d="M44.365 40.176c.674.468.791 1.377.323 2.05a11.837 11.837 0 0 1-9.434 4.747v-2.93a8.811 8.811 0 0 0 7.06-3.574c.499-.645 1.407-.791 2.051-.293ZM49.463 34.814l-2.93 2.93c-.732.762-1.934.44-2.373-.293l-2.607-2.637a1.416 1.416 0 0 1 0-2.05 1.416 1.416 0 0 1 2.05 0c-1.054-3.633-4.365-6.3-8.35-6.3v-2.929c5.83 0 10.636 4.278 11.544 9.844l.615-.615a1.416 1.416 0 0 1 2.05 0 1.416 1.416 0 0 1 0 2.05Z" fill="#61BDF6"/></g><defs><clipPath id="a"><path fill="#fff" d="M0 0h50v50H0z"/></clipPath></defs></svg>