<svg fill="none" xmlns="http://www.w3.org/2000/svg" viewBox="0 0 50 50"><path d="M16.113 26.465h-5.86a1.464 1.464 0 1 1 0-2.93h5.86a1.464 1.464 0 1 1 0 2.93ZM39.746 26.465h-5.86a1.464 1.464 0 1 1 0-2.93h5.86a1.464 1.464 0 1 1 0 2.93ZM16.113 44.043h-2.93a1.464 1.464 0 1 1 0-2.93h2.93c.809 0 1.465-.656 1.465-1.465v-7.324a1.464 1.464 0 1 1 2.93 0v7.324a4.4 4.4 0 0 1-4.395 4.395ZM19.043 19.14c-.81 0-1.465-.655-1.465-1.464v-7.324c0-.809-.656-1.465-1.465-1.465h-2.93a1.464 1.464 0 1 1 0-2.93h2.93a4.4 4.4 0 0 1 4.395 4.395v7.324c0 .81-.656 1.465-1.465 1.465ZM36.816 44.043h-2.93a4.4 4.4 0 0 1-4.394-4.395v-7.324a1.464 1.464 0 1 1 2.93 0v7.324c0 .809.656 1.465 1.465 1.465h2.93a1.464 1.464 0 1 1 0 2.93ZM30.957 19.14c-.81 0-1.465-.655-1.465-1.464v-7.324a4.4 4.4 0 0 1 4.395-4.395h2.93a1.464 1.464 0 1 1 0 2.93h-2.93c-.809 0-1.465.656-1.465 1.465v7.324c0 .81-.655 1.465-1.465 1.465Z" fill="#5A5D9D"/><path d="M30.957 16.21H19.043a4.388 4.388 0 0 0-4.395 4.395v8.79a4.389 4.389 0 0 0 4.395 4.394h11.914a4.389 4.389 0 0 0 4.395-4.395v-8.788a4.388 4.388 0 0 0-4.395-4.395Z" fill="#FAAB63"/><path d="M35.352 20.605v8.79a4.389 4.389 0 0 1-4.395 4.394H25V16.211h5.957a4.388 4.388 0 0 1 4.395 4.395Z" fill="#FAAB63"/><path d="M7.324 30.86h-2.93A4.4 4.4 0 0 1 0 26.464v-2.93a4.4 4.4 0 0 1 4.395-4.394h2.93a4.4 4.4 0 0 1 4.394 4.394v2.93a4.4 4.4 0 0 1-4.395 4.394ZM45.605 30.86h-2.93a4.4 4.4 0 0 1-4.394-4.395v-2.93a4.4 4.4 0 0 1 4.395-4.394h2.93A4.4 4.4 0 0 1 50 23.535v2.93a4.4 4.4 0 0 1-4.395 4.394ZM42.676 48.438h-2.93a4.4 4.4 0 0 1-4.394-4.395v-2.93a4.4 4.4 0 0 1 4.394-4.394h2.93a4.4 4.4 0 0 1 4.394 4.394v2.93a4.4 4.4 0 0 1-4.394 4.395ZM10.254 48.438h-2.93a4.4 4.4 0 0 1-4.394-4.395v-2.93a4.4 4.4 0 0 1 4.394-4.394h2.93a4.4 4.4 0 0 1 4.394 4.394v2.93a4.4 4.4 0 0 1-4.394 4.395ZM42.676 13.281h-2.93a4.4 4.4 0 0 1-4.394-4.394v-2.93a4.4 4.4 0 0 1 4.394-4.394h2.93a4.4 4.4 0 0 1 4.394 4.394v2.93a4.4 4.4 0 0 1-4.394 4.394ZM10.254 13.281h-2.93A4.4 4.4 0 0 1 2.93 8.887v-2.93a4.4 4.4 0 0 1 4.394-4.394h2.93a4.4 4.4 0 0 1 4.394 4.394v2.93a4.4 4.4 0 0 1-4.394 4.394Z" fill="#61BDF6"/></svg>