<svg fill="none" xmlns="http://www.w3.org/2000/svg" viewBox="0 0 50 50"><path d="M50 1.465v30.762l-2.93 2.93H2.93L0 32.226V1.465C0 .645.644 0 1.465 0h47.07C49.355 0 50 .644 50 1.465Z" fill="#5A5D9D"/><path d="M50 1.465v30.762l-2.93 2.93H25V0h23.535C49.355 0 50 .644 50 1.465Z" fill="#5A5D9D"/><path d="M2.93 2.93h44.14v26.367H2.93V2.93Z" fill="#61BDF6"/><path d="M25 2.93h22.07v26.367H25V2.93Z" fill="#61BDF6"/><path d="m36.719 47.07-2.93 1.465H16.211l-2.93-1.465a4.388 4.388 0 0 0 4.395-4.394V38.28h14.648v4.395a4.388 4.388 0 0 0 4.395 4.394Z" fill="#ECF9FB"/><path d="m36.719 47.07-2.93 1.465H25V38.281h7.324v4.395a4.388 4.388 0 0 0 4.395 4.394Z" fill="#ECF9FB"/><path d="M50 32.227v7.52a1.45 1.45 0 0 1-1.465 1.464H1.465A1.45 1.45 0 0 1 0 39.746v-7.52h50Z" fill="#ECF9FB"/><path d="M50 32.227v7.52a1.45 1.45 0 0 1-1.465 1.464H25v-8.984h25Z" fill="#ECF9FB"/><path d="M41.113 48.535A1.45 1.45 0 0 1 39.648 50H10.352a1.45 1.45 0 0 1-1.465-1.465c0-.82.644-1.465 1.465-1.465h29.296c.821 0 1.465.645 1.465 1.465Z" fill="#5A5D9D"/><path d="M41.113 48.535A1.45 1.45 0 0 1 39.648 50H25v-2.93h14.648c.821 0 1.465.645 1.465 1.465ZM41.21 16.113v7.325a1.45 1.45 0 0 1-1.464 1.464H10.352a1.45 1.45 0 0 1-1.465-1.465v-7.324l2.93-2.93H38.28l2.93 2.93Z" fill="#5A5D9D"/><path d="M41.21 16.113v7.325a1.45 1.45 0 0 1-1.464 1.464H25V13.184h13.281l2.93 2.93Z" fill="#5A5D9D"/><path d="M41.21 8.79v7.323H8.888V8.79c0-.82.644-1.465 1.465-1.465h29.394c.82 0 1.465.645 1.465 1.465Z" fill="#888BBD"/><path d="M41.21 8.79v7.323H25V7.324h14.746c.82 0 1.465.645 1.465 1.465Z" fill="#5A5D9D"/><path d="M16.21 11.719a1.465 1.465 0 1 1-2.929 0 1.465 1.465 0 0 1 2.93 0ZM22.07 11.719a1.465 1.465 0 1 1-2.93 0 1.465 1.465 0 0 1 2.93 0Z" fill="#fff"/><path d="M16.21 20.508a1.465 1.465 0 1 1-2.929 0 1.465 1.465 0 0 1 2.93 0ZM22.07 20.508a1.465 1.465 0 1 1-2.93 0 1.465 1.465 0 0 1 2.93 0Z" fill="#ECF9FB"/></svg>