<svg fill="none" xmlns="http://www.w3.org/2000/svg" viewBox="0 0 50 50"><path d="M40.027 0h-8.236c-.84 0-1.564.598-1.748 1.438L29.02 6.13h-8.052l-1.024-4.693A1.782 1.782 0 0 0 18.207 0H9.972a1.773 1.773 0 0 0-1.806 1.806v46.388c0 1.024.782 1.806 1.806 1.806h8.235c.783 0 1.438-.483 1.68-1.265l1.622-4.866h7.453l1.024 4.693c.184.84.897 1.438 1.748 1.438h8.293a1.773 1.773 0 0 0 1.806-1.806V1.806C41.82.782 41.039 0 40.027 0Z" fill="#5A5D9D"/><path d="M32.505 28.848a1.773 1.773 0 0 0 1.806-1.806 1.773 1.773 0 0 0-1.806-1.806H17.484a1.773 1.773 0 0 0-1.806 1.806c0 1.023.782 1.805 1.806 1.805h15.021ZM18.864 21.336h12.262a1.773 1.773 0 0 0 1.806-1.805 1.773 1.773 0 0 0-1.806-1.806H18.864a1.773 1.773 0 0 0-1.805 1.806c.011 1.023.793 1.805 1.805 1.805Z" fill="#888BBD"/></svg>