<svg fill="none" xmlns="http://www.w3.org/2000/svg" viewBox="0 0 50 50"><g clip-path="url(#a)"><path d="M23.32 48.144a3.915 3.915 0 0 1-2.47-.888l-4.044-3.31a1.46 1.46 0 0 1-.205-2.061 1.46 1.46 0 0 1 2.06-.205l4.053 3.31a.976.976 0 0 0 1.094.098l4.902-2.725a.977.977 0 0 0 .479-1.064l-1.035-4.727a1.464 1.464 0 1 1 2.861-.635l1.035 4.727c.371 1.7-.4 3.398-1.914 4.248l-4.902 2.725a3.875 3.875 0 0 1-1.914.507Z" fill="#FFB876"/><path d="M9.297 48.535c-.381 0-.752-.146-1.035-.43l-6.367-6.367A1.48 1.48 0 0 1 1.64 40L20.82 4.795a1.46 1.46 0 0 1 2.314-.342l22.402 22.402a1.462 1.462 0 0 1-.342 2.315L9.99 48.36a1.462 1.462 0 0 1-.693.175Z" fill="#FAAB63"/><path d="M45.957 28.106a1.452 1.452 0 0 0-.41-1.24L34.336 15.663 5.068 44.932l3.184 3.183c.283.284.654.43 1.035.43.234 0 .479-.059.703-.176l35.215-19.18c.4-.234.684-.634.752-1.083Z" fill="#FAAB63"/><path d="M10.752 50c-.37 0-.752-.147-1.035-.43L.43 40.283a1.456 1.456 0 0 1 0-2.07 1.456 1.456 0 0 1 2.07 0l9.288 9.287a1.456 1.456 0 0 1 0 2.07c-.284.283-.665.43-1.036.43Z" fill="#FFB876"/><path d="M41.953 17.774c-.81 0-1.465-.655-1.465-1.465a6.802 6.802 0 0 0-6.797-6.797c-.81 0-1.464-.654-1.464-1.465 0-.81.654-1.465 1.464-1.465 5.362 0 9.727 4.365 9.727 9.727 0 .81-.654 1.465-1.465 1.465Z" fill="#61BDF6"/><path d="M48.535 15.684c-.81 0-1.465-.655-1.465-1.465 0-6.23-5.058-11.29-11.289-11.29-.81 0-1.465-.654-1.465-1.464 0-.81.655-1.465 1.465-1.465C43.623 0 50 6.377 50 14.219c0 .8-.654 1.465-1.465 1.465Z" fill="#61BDF6"/><path d="M45.83 30.684c-.37 0-.751-.147-1.035-.43L19.747 5.205a1.456 1.456 0 0 1 0-2.07 1.456 1.456 0 0 1 2.07 0l25.049 25.049a1.456 1.456 0 0 1 0 2.07c-.283.283-.664.43-1.035.43Z" fill="#FFB876"/><path d="M40.488 16.308c0 .811.655 1.465 1.465 1.465s1.465-.654 1.465-1.465a9.698 9.698 0 0 0-2.852-6.875l-2.07 2.07a6.776 6.776 0 0 1 1.992 4.805ZM50 14.219c0-3.916-1.592-7.471-4.17-10.05L43.76 6.24a11.256 11.256 0 0 1 3.31 7.979c0 .81.655 1.465 1.465 1.465A1.47 1.47 0 0 0 50 14.219Z" fill="#61BDF6"/><path d="m46.865 28.184-12.53-12.52-2.07 2.07 12.53 12.53c.283.283.664.43 1.035.43a1.468 1.468 0 0 0 1.035-2.51ZM11.787 47.5l-4.639-4.639-2.07 2.07 4.639 4.64c.283.283.664.43 1.035.43.371 0 .752-.147 1.035-.43a1.456 1.456 0 0 0 0-2.07Z" fill="#FFB876"/></g><defs><clipPath id="a"><path fill="#fff" d="M0 0h50v50H0z"/></clipPath></defs></svg>