<svg fill="none" xmlns="http://www.w3.org/2000/svg" viewBox="0 0 50 50"><path d="M48.906 24.98c0 2.764-.449 5.42-1.299 7.9-.058.167-.478.323-.537.48a23.816 23.816 0 0 1-.918 2.177c-.049.108.254.225.205.332-4.004 8.047-12.304 13.584-21.904 13.584-5.322 0-10.254-1.7-14.268-4.59v-9.277C10.185 29.96 5.625 25.4 0 25.4V25c0-3.496.732-6.826 2.06-9.834.069-.146.762-.322.83-.469.342-.742.42-1.406.84-2.11.079-.126-.175-.292-.097-.42C7.939 5.196 15.654.548 24.453.548c13.506 0 24.434 10.918 24.453 24.433Z" fill="#61BDF6"/><path d="M21.621 13.32a.495.495 0 0 1 0 .703l-7.539 7.54a.495.495 0 0 1-.703 0l-1.416-1.417a.495.495 0 0 1 0-.703l4.277-4.277H2.06a25.718 25.718 0 0 1 1.573-2.998H16.25L11.973 7.89a.495.495 0 0 1 0-.704l1.406-1.406a.495.495 0 0 1 .703 0l7.54 7.54Z" fill="#fff"/><path d="m21.621 14.023-7.539 7.54a.495.495 0 0 1-.703 0l-1.416-1.417a.495.495 0 0 1 0-.703l4.277-4.277H7.686c-.83 0-1.495-.674-1.495-1.494a1.5 1.5 0 0 1 1.495-1.494h8.564L11.973 7.9a.495.495 0 0 1 0-.703l1.406-1.416a.495.495 0 0 1 .703 0l7.54 7.54a.495.495 0 0 1 0 .702Z" fill="#fff"/><path d="M46.357 35.869h-14.11l4.276 4.277a.495.495 0 0 1 0 .703l-1.416 1.417a.495.495 0 0 1-.703 0l-7.539-7.54a.495.495 0 0 1 0-.703l7.54-7.539a.495.495 0 0 1 .702 0l1.416 1.416a.495.495 0 0 1 0 .703l-4.277 4.278h15.352a22.913 22.913 0 0 1-1.24 2.988Z" fill="#5A5D9D"/><path d="M49.004 23.399H25.049a1 1 0 0 1-.996-.997V4.942a1 1 0 0 1 .996-.997h23.955a1 1 0 0 1 .996.997v17.46c0 .557-.45.997-.996.997Z" fill="#6ACA8B"/><path d="M33.75 10.176a3.247 3.247 0 0 1-3.242 3.242 3.247 3.247 0 0 1-3.242-3.242 3.247 3.247 0 0 1 3.242-3.242 3.24 3.24 0 0 1 3.242 3.242Z" fill="#fff"/><path d="m36.757 18.457 4.258-6.66a.812.812 0 0 1 1.367 0l4.258 6.66a.813.813 0 0 1-.684 1.25H37.45a.81.81 0 0 1-.693-1.25Z" fill="#3FAA60"/><path d="m33.261 18.701 3.418-5.351c.254-.4.84-.4 1.104 0l3.418 5.351c.273.43-.04 1.006-.547 1.006h-6.846a.656.656 0 0 1-.547-1.006Z" fill="#78DB9A"/><path d="M24.854 26.396v17.461a1 1 0 0 1-.997.996H10.186C4.12 40.498.127 33.418 0 25.4h23.848c.556 0 1.006.45 1.006.996Z" fill="#E1697F"/><path d="M11.875 29.395a5.987 5.987 0 0 0-5.986 5.986c0 3.3 2.685 5.986 5.986 5.986 3.3 0 5.986-2.685 5.986-5.986 0-3.301-2.676-5.986-5.986-5.986Z" fill="#ED7E93"/><path d="m10.537 32.012 4.717 2.851c.38.235.38.791 0 1.026l-4.717 2.851a.598.598 0 0 1-.908-.508V32.53c0-.469.508-.761.908-.517Z" fill="#fff"/></svg>