<svg fill="none" xmlns="http://www.w3.org/2000/svg" viewBox="0 0 50 50"><path d="M46.094 6.25H3.906c-.863 0-1.562.7-1.562 1.563V37.5c0 .863.7 1.563 1.562 1.563h42.188c.863 0 1.562-.7 1.562-1.563V7.812c0-.862-.7-1.562-1.562-1.562Z" fill="#61BDF6"/><path d="M47.656 13.281v21.875H2.344V13.281h20.312l3.907 5.469 3.906-5.469h17.187Z" fill="#CC4C64"/><path d="M47.656 16.406H29.688l-3.125.782-2.344-.782H2.344v-3.125h45.312v3.125Z" fill="#DBDBDB"/><path d="M25 30.469a10.157 10.157 0 0 1-10.156-10.157V2.345l.287.121a13.922 13.922 0 0 1 8.416 11.306 3.079 3.079 0 0 0 6.14-.336V8.624l1.038 1.031a15.029 15.029 0 0 1 4.431 10.658A10.157 10.157 0 0 1 25 30.468Z" fill="#FAAB63"/><path d="M25 27.344a7.822 7.822 0 0 1-7.813-7.813v-3.906a.781.781 0 1 1 1.563 0v3.906a6.257 6.257 0 0 0 9.027 5.601.783.783 0 0 1 1.127.646.782.782 0 0 1-.431.753 7.736 7.736 0 0 1-3.473.813ZM30.847 24.219a.782.782 0 0 1-.649-1.216 6.22 6.22 0 0 0 1.052-3.472V17.97a.781.781 0 1 1 1.563 0v1.562a7.777 7.777 0 0 1-1.316 4.341.78.78 0 0 1-.65.347ZM17.969 13.281a.781.781 0 0 1-.782-.781V8.594a.781.781 0 1 1 1.563 0V12.5a.781.781 0 0 1-.781.781Z" fill="#F7BA61"/><path d="M26.563 12.5a.781.781 0 0 1-.782-.781v-.781a.781.781 0 0 1 1.563 0v.78a.781.781 0 0 1-.782.782ZM26.563 9.375a.781.781 0 0 1-.782-.781V7.03a.781.781 0 0 1 1.563 0v1.563a.781.781 0 0 1-.782.781ZM11.719 18.75a.781.781 0 0 1-.781-.781v-.782a.781.781 0 1 1 1.562 0v.782a.781.781 0 0 1-.781.781ZM11.719 14.844a.781.781 0 0 1-.781-.781v-2.344a.781.781 0 1 1 1.562 0v2.344a.781.781 0 0 1-.781.78Z" fill="#FFB876"/><path d="M20.313 39.063h9.375a7.543 7.543 0 0 0 2.21 5.334l.133.134H17.97l.134-.134a7.544 7.544 0 0 0 2.21-5.334Z" fill="#C3C3C3"/><path d="M17.188 44.531h15.106a1.563 1.563 0 0 1 1.563 1.563v1.562H15.624v-1.562a1.562 1.562 0 0 1 1.563-1.563Z" fill="#DBDBDB"/><path d="M17.188 30.469a.781.781 0 0 1-.782.781H11.72v3.906a.781.781 0 0 1-1.563 0V31.25H2.344v-1.563H6.25v-3.125H2.344V25h7.812v-3.125H2.344v-1.563H6.25v-3.125H2.344v-1.562h6.25a.781.781 0 1 1 0 1.563h-.781v3.125h3.125a.781.781 0 0 1 .78.78V25h.782a.781.781 0 1 1 0 1.563H7.812v3.125h8.594a.781.781 0 0 1 .782.78ZM20.313 32.031a.781.781 0 0 0-.782.782v2.343a.781.781 0 0 0 1.563 0v-2.343a.781.781 0 0 0-.782-.782ZM28.906 32.031a.781.781 0 0 0-.781.782v2.343a.781.781 0 1 0 1.563 0v-2.343a.781.781 0 0 0-.782-.782ZM44.531 17.188v3.125h3.125v1.562h-7.031V25h7.031v1.563h-3.125v3.125h3.125v1.562h-7.031v3.906a.781.781 0 1 1-1.563 0V31.25h-6.25a.781.781 0 1 1 0-1.563h3.126v-1.562a.781.781 0 1 1 1.562 0v1.563h5.469v-3.125h-6.25a.781.781 0 1 1 0-1.563h2.343v-3.125h-.78a.781.781 0 1 1 0-1.563h4.687v-3.125h-3.125a.781.781 0 1 1 0-1.562h7.812v1.563h-3.125Z" fill="#E1697F"/><path d="M47.656 12.5v1.563H37.5a.781.781 0 1 1 0-1.563h10.156ZM9.375 13.281a.781.781 0 0 1-.781.781h-6.25V12.5h6.25a.781.781 0 0 1 .781.781Z" fill="#C3C3C3"/><path d="M46.094 39.063H3.906A1.563 1.563 0 0 1 2.344 37.5v-2.344h45.312V37.5a1.563 1.563 0 0 1-1.562 1.563Z" fill="#DBDBDB"/></svg>