<svg fill="none" xmlns="http://www.w3.org/2000/svg" viewBox="0 0 50 50"><g clip-path="url(#a)"><path d="M30.686 10.542c1.52 1.591 2.353 3.75 2.313 6.009.026 2.23-.807 4.375-2.313 5.938-3.105 3.324-8.186 3.353-11.319.057-1.519-1.591-2.366-3.736-2.366-5.995-.04-2.259.793-4.432 2.313-6.01 3.051-3.323 8.079-3.394 11.224-.17.054.057.108.114.148.17ZM8 40.603C8.014 34.577 12.209 29.369 18.144 28a11.718 11.718 0 0 0 6.934 2.216A12.082 12.082 0 0 0 32.013 28C37.89 29.397 42.028 34.619 42 40.603V42H8v-1.397Z" fill="#FAAB63"/><path d="M34.461 40.471H39.38a6.212 6.212 0 0 0 6.26-6.164v-.002l.5.005c0-.02.002-.039.005-.056.002-.018.005-.036.005-.057L34.46 40.471Zm0 0 2.74-3.118c.545-.62.49-1.57-.124-2.122l-.02-.02-.022-.017a1.556 1.556 0 0 0-2.186.235l-4.946 5.79a1.511 1.511 0 0 0 0 2.055l4.945 5.79c.52.65 1.463.751 2.114.237l.023-.018.01-.011.005-.003v-.001a1.406 1.406 0 0 0 .072-.062 1.725 1.725 0 0 0 .144-2.323l-.004-.006-.005-.005-2.773-3.279h4.888c5.161.063 9.395-4.075 9.46-9.236V34.3c0-.806-.649-1.454-1.439-1.47l-.101-.002-.048.02a1.455 1.455 0 0 0-1.541 1.292l-.003.029v.013l-11.189 6.29ZM14.917.888l-.004-.005a1.553 1.553 0 0 0-2.195-.146 1.666 1.666 0 0 0-.15 2.354l2.77 3.275H9.96C4.798 6.303.565 10.442.5 15.603V15.66c0 .837.673 1.51 1.51 1.51H2.036a1.455 1.455 0 0 0 1.584-1.29l.003-.028v-.017a.857.857 0 0 0 .01-.124 6.212 6.212 0 0 1 6.213-6.213H15.3l-2.732 3.11a1.464 1.464 0 0 0 .027 2.05c0 .002.002.003.003.004a1.561 1.561 0 0 0 1.155.436h.012a1.676 1.676 0 0 0 1.133-.54l.005-.006.005-.006 4.954-5.8c.54-.604.545-1.509.01-2.108L14.917.888Z" fill="#61BDF6" stroke="#fff"/></g><defs><clipPath id="a"><path fill="#fff" d="M0 0h50v50H0z"/></clipPath></defs></svg>