<svg fill="none" xmlns="http://www.w3.org/2000/svg" viewBox="0 0 50 50"><path d="M5.86 29.395h38.28v8.789H5.86v-8.79ZM5.86 11.816h38.28v8.79H5.86v-8.79Z" fill="#5A5D9D"/><path d="M25 11.816h19.14v8.79H25v-8.79ZM25 29.395h19.14v8.789H25v-8.79Z" fill="#2C3B73"/><path d="M48.535 0H1.465A1.45 1.45 0 0 0 0 1.465V13.28c0 .82.644 1.465 1.465 1.465h47.07A1.45 1.45 0 0 0 50 13.281V1.465A1.45 1.45 0 0 0 48.535 0ZM48.535 17.676H1.465A1.45 1.45 0 0 0 0 19.14v11.718c0 .82.644 1.465 1.465 1.465h47.07A1.45 1.45 0 0 0 50 30.86V19.141a1.45 1.45 0 0 0-1.465-1.465ZM48.535 35.254H1.465A1.45 1.45 0 0 0 0 36.719v11.816C0 49.355.644 50 1.465 50h47.07A1.45 1.45 0 0 0 50 48.535V36.72a1.45 1.45 0 0 0-1.465-1.465Z" fill="#888BBD"/><path d="M50 1.465V13.28a1.45 1.45 0 0 1-1.465 1.465H25V0h23.535C49.355 0 50 .644 50 1.465ZM50 19.14v11.72a1.45 1.45 0 0 1-1.465 1.464H25V17.676h23.535c.82 0 1.465.644 1.465 1.465ZM50 36.719v11.816A1.45 1.45 0 0 1 48.535 50H25V35.254h23.535c.82 0 1.465.644 1.465 1.465Z" fill="#5A5D9D"/><path d="M8.79 42.578a1.465 1.465 0 1 1-2.93 0 1.465 1.465 0 0 1 2.93 0ZM14.648 42.578a1.465 1.465 0 1 1-2.93 0 1.465 1.465 0 0 1 2.93 0ZM20.508 42.578a1.465 1.465 0 1 1-2.93 0 1.465 1.465 0 0 1 2.93 0ZM8.79 25a1.465 1.465 0 1 1-2.93 0 1.465 1.465 0 0 1 2.93 0ZM14.648 25a1.465 1.465 0 1 1-2.929 0 1.465 1.465 0 0 1 2.93 0ZM20.508 25a1.465 1.465 0 1 1-2.93 0 1.465 1.465 0 0 1 2.93 0ZM8.79 7.422a1.465 1.465 0 1 1-2.93 0 1.465 1.465 0 0 1 2.93 0ZM14.648 7.422a1.465 1.465 0 1 1-2.929 0 1.465 1.465 0 0 1 2.93 0ZM20.508 7.422a1.465 1.465 0 1 1-2.93 0 1.465 1.465 0 0 1 2.93 0Z" fill="#61BDF6"/></svg>