<svg fill="none" xmlns="http://www.w3.org/2000/svg" viewBox="0 0 50 50"><path d="M25.39 0H1.954a.784.784 0 0 0-.781.781V43.75c0 .43.351.781.781.781h23.438c.43 0 .78-.351.78-.781V.781a.784.784 0 0 0-.78-.781Z" fill="#5A5D9D"/><path d="M3.516 42.969a.784.784 0 0 1-.782-.782V0h-.78a.784.784 0 0 0-.782.781V43.75c0 .43.351.781.781.781h23.438c.43 0 .78-.351.78-.781v-.781H3.517Z" fill="#5A5D9D"/><path d="M26.172 10.938h-25V12.5h25v-1.563Z" fill="#888BBD"/><path d="M13.672 17.188a3.905 3.905 0 0 0-3.906 3.906A3.905 3.905 0 0 0 13.672 25a3.905 3.905 0 0 0 3.906-3.906 3.905 3.905 0 0 0-3.906-3.907Z" fill="#FAAB63"/><path d="M13.672 18.75a2.35 2.35 0 0 0-2.344 2.344 2.35 2.35 0 0 0 2.344 2.343 2.35 2.35 0 0 0 2.344-2.343 2.35 2.35 0 0 0-2.344-2.344Z" fill="#fff"/><path d="M13.672 17.188c-.264 0-.527.029-.781.078v3.047c0 .43.351.78.78.78.43 0 .782-.35.782-.78v-3.047a4.158 4.158 0 0 0-.781-.078Z" fill="#fff"/><path d="M22.266 1.563H5.078a.784.784 0 0 0-.781.78v6.25c0 .43.351.782.781.782h17.188c.43 0 .78-.352.78-.781v-6.25a.784.784 0 0 0-.78-.781Z" fill="#888BBD"/><path d="M21.484 3.125H5.86v4.688h15.625V3.125Z" fill="#5A5D9D"/><path d="M19.922 28.906H5.078a.783.783 0 0 1-.781-.781c0-.43.351-.781.781-.781h14.844c.43 0 .781.351.781.781 0 .43-.351.781-.781.781ZM19.922 32.813H5.078a.784.784 0 0 1-.781-.782c0-.43.351-.781.781-.781h14.844c.43 0 .781.352.781.781 0 .43-.351.782-.781.782ZM13.672 36.719H5.078a.784.784 0 0 1-.781-.782c0-.43.351-.78.781-.78h8.594c.43 0 .781.35.781.78 0 .43-.351.782-.781.782Z" fill="#888BBD"/><path d="M41.797 50H13.672a.784.784 0 0 1-.781-.781V32.03c0-.43.351-.781.78-.781h28.126c.43 0 .781.352.781.781V49.22c0 .43-.351.781-.781.781Z" fill="#FAAB63"/><path d="M42.578 32.031a.784.784 0 0 0-.781-.781H13.672a.784.784 0 0 0-.781.781v2.022l13.271 11.943a2.367 2.367 0 0 0 3.135 0l13.281-11.943V32.03Z" fill="#FFB876"/><path d="M13.672 31.25c-.724 0-.463.99.075 1.474l13.46 12.11a.79.79 0 0 0 1.045 0l13.468-12.11c.54-.484.803-1.474.077-1.474H13.672Z" fill="#FAAB63"/><path d="M31.64 22.656a3.134 3.134 0 0 0-3.124 3.125 3.134 3.134 0 0 0 3.125 3.125 3.134 3.134 0 0 0 3.125-3.125 3.134 3.134 0 0 0-3.125-3.125Z" fill="#6ACA8B"/><path d="M31.64 24.219c-.859 0-1.562.703-1.562 1.562 0 .86.703 1.563 1.563 1.563.859 0 1.562-.703 1.562-1.563s-.703-1.562-1.562-1.562ZM37.89 26.563a.784.784 0 0 1-.78-.782 5.472 5.472 0 0 0-5.47-5.468.784.784 0 0 1-.78-.782c0-.43.35-.781.78-.781a7.04 7.04 0 0 1 7.032 7.031c0 .43-.352.782-.781.782Z" fill="#6ACA8B"/><path d="M42.578 26.563a.784.784 0 0 1-.781-.782c0-5.595-4.56-10.156-10.156-10.156a.784.784 0 0 1-.782-.781c0-.43.352-.781.782-.781 6.465 0 11.718 5.253 11.718 11.718 0 .43-.351.782-.78.782Z" fill="#6ACA8B"/><path d="M48.047 26.563a.784.784 0 0 1-.781-.782c0-8.613-7.012-15.625-15.625-15.625a.783.783 0 0 1-.782-.781c0-.43.352-.781.782-.781 9.472 0 17.187 7.715 17.187 17.187 0 .43-.351.782-.781.782Z" fill="#6ACA8B"/></svg>