<svg fill="none" xmlns="http://www.w3.org/2000/svg" viewBox="0 0 50 50"><path d="M50 11.719v36.816A1.45 1.45 0 0 1 48.535 50H1.465A1.45 1.45 0 0 1 0 48.535V11.72l2.93-2.93h44.14L50 11.72Z" fill="#E0F4FF"/><path d="M50 1.465C50 .655 49.345 0 48.535 0H35.254l-2.93 8.79 2.93 2.929H50V1.465Z" fill="#61BDF6"/><path d="M35.254 0v11.719H0V1.465C0 .645.644 0 1.465 0h33.789Z" fill="#5A5D9D"/><path d="M8.887 5.86a1.465 1.465 0 1 1-2.93 0 1.465 1.465 0 0 1 2.93 0ZM14.746 5.86a1.465 1.465 0 1 1-2.93 0 1.465 1.465 0 0 1 2.93 0ZM20.605 5.86a1.465 1.465 0 1 1-2.93 0 1.465 1.465 0 0 1 2.93 0ZM42.578 38.184h-5.86c-.809 0-1.464-.656-1.464-1.465V25a1.464 1.464 0 1 1 2.93 0v10.254h4.394c.81 0 1.563.655 1.563 1.465s-.753 1.465-1.563 1.465ZM26.465 23.535c-.498 0-.996.058-1.465.205-2.52.645-4.395 2.93-4.395 5.655v2.93c0 2.724 1.875 5.01 4.395 5.653.469.147.967.206 1.465.206 3.223 0 5.86-2.637 5.86-5.86v-2.93c0-3.222-2.638-5.859-5.86-5.859Zm2.93 8.79a2.938 2.938 0 0 1-2.93 2.929 2.832 2.832 0 0 1-1.465-.41 2.882 2.882 0 0 1-1.465-2.52v-2.93c0-1.084.586-2.02 1.465-2.52.44-.263.938-.41 1.465-.41a2.938 2.938 0 0 1 2.93 2.93v2.93ZM13.281 38.184h-2.93a1.464 1.464 0 1 1 0-2.93h2.93a1.466 1.466 0 0 0 0-2.93 4.4 4.4 0 0 1-4.394-4.394 4.4 4.4 0 0 1 4.394-4.395h2.93a1.464 1.464 0 1 1 0 2.93h-2.93a1.466 1.466 0 0 0 0 2.93 4.4 4.4 0 0 1 4.395 4.394 4.4 4.4 0 0 1-4.395 4.395Z" fill="#61BDF6"/><path d="M30.86 38.184a1.46 1.46 0 0 1-1.036-.43l-2.93-2.93a1.464 1.464 0 1 1 2.071-2.07l2.93 2.93a1.464 1.464 0 0 1-1.036 2.5Z" fill="#61BDF6"/><path d="M32.324 29.395v2.93c0 3.222-2.636 5.859-5.86 5.859-.497 0-.995-.06-1.464-.206v-3.134c.44.263.938.41 1.465.41a2.938 2.938 0 0 0 2.93-2.93v-2.93a2.938 2.938 0 0 0-2.93-2.93c-.527 0-1.026.147-1.465.41V23.74a4.906 4.906 0 0 1 1.465-.205c3.223 0 5.86 2.637 5.86 5.86Z" fill="#61BDF6"/></svg>