<svg fill="none" xmlns="http://www.w3.org/2000/svg" viewBox="0 0 50 50"><path d="M5.86 10.352h29.492v8.789H5.859v-8.79Z" fill="#5A5D9D"/><path d="M20.605 10.352h14.747v8.789H20.606v-8.79Z" fill="#2C3B73"/><path d="M5.86 25h29.492v8.79H5.859V25Z" fill="#5A5D9D"/><path d="M20.605 25h14.747v8.79H20.606V25Z" fill="#2C3B73"/><path d="M39.746 1.563H1.465A1.45 1.45 0 0 0 0 3.026v8.79c0 .82.645 1.464 1.465 1.464h38.281a1.45 1.45 0 0 0 1.465-1.465V3.027a1.45 1.45 0 0 0-1.465-1.465Z" fill="#888BBD"/><path d="M41.21 3.027v8.79a1.45 1.45 0 0 1-1.464 1.464h-19.14V1.562h19.14c.82 0 1.465.645 1.465 1.465Z" fill="#5A5D9D"/><path d="M8.79 7.422c0 .81-.655 1.465-1.466 1.465-.81 0-1.465-.655-1.465-1.465s.655-1.465 1.465-1.465 1.465.654 1.465 1.465ZM14.648 7.422c0 .81-.654 1.465-1.464 1.465-.811 0-1.465-.655-1.465-1.465s.654-1.465 1.465-1.465c.81 0 1.464.654 1.464 1.465Z" fill="#61BDF6"/><path d="M39.746 16.21H1.465A1.45 1.45 0 0 0 0 17.677v8.789c0 .82.645 1.465 1.465 1.465h38.281a1.45 1.45 0 0 0 1.465-1.465v-8.79a1.45 1.45 0 0 0-1.465-1.464Z" fill="#888BBD"/><path d="M41.21 17.676v8.789a1.45 1.45 0 0 1-1.464 1.465h-19.14V16.21h19.14c.82 0 1.465.645 1.465 1.466Z" fill="#5A5D9D"/><path d="M8.79 22.07c0 .81-.655 1.465-1.466 1.465-.81 0-1.465-.654-1.465-1.465 0-.81.655-1.465 1.465-1.465s1.465.655 1.465 1.465ZM14.648 22.07c0 .81-.654 1.465-1.464 1.465-.811 0-1.465-.654-1.465-1.465 0-.81.654-1.465 1.465-1.465.81 0 1.464.655 1.464 1.465Z" fill="#61BDF6"/><path d="M39.746 30.86H1.465A1.45 1.45 0 0 0 0 32.323v8.79c0 .82.645 1.464 1.465 1.464h38.281a1.45 1.45 0 0 0 1.465-1.465v-8.789a1.45 1.45 0 0 0-1.465-1.465Z" fill="#888BBD"/><path d="M41.21 32.324v8.79a1.45 1.45 0 0 1-1.464 1.464h-19.14V30.86h19.14c.82 0 1.465.645 1.465 1.465Z" fill="#5A5D9D"/><path d="M8.79 36.719c0 .81-.655 1.465-1.466 1.465-.81 0-1.465-.655-1.465-1.465s.655-1.465 1.465-1.465 1.465.654 1.465 1.465ZM14.648 36.719c0 .81-.654 1.465-1.464 1.465-.811 0-1.465-.655-1.465-1.465s.654-1.465 1.465-1.465c.81 0 1.464.654 1.464 1.465ZM45.264 29.59H30.518l-4.512 10.156 4.512 10.156h14.746a4.514 4.514 0 0 0 4.511-4.511V34.1a4.514 4.514 0 0 0-4.511-4.511Z" fill="#61BDF6"/><path d="M15.771 29.59a4.514 4.514 0 0 0-4.511 4.512V45.39a4.514 4.514 0 0 0 4.511 4.511h14.747V29.59H15.77Z" fill="#61BDF6"/><path d="M43.008 36.358h-12.49l-1.504 1.132 1.504 1.123h12.49v-2.255ZM37.363 43.135V40.88h-6.845l-2.256 1.123 2.256 1.133h6.845Z" fill="#fff"/><path d="M30.518 40.88h-6.846v2.255h6.846V40.88ZM30.518 36.358h-12.49v2.255h12.49v-2.255Z" fill="#fff"/></svg>