<svg fill="none" xmlns="http://www.w3.org/2000/svg" viewBox="0 0 50 58"><g clip-path="url(#a)"><path d="M47.33 52.11h.362v-.807h.286a.82.82 0 0 1 .403.067.504.504 0 0 1 .192.47v.165l.008.062a.12.12 0 0 1 .005.026c.002.01.003.013.008.017h.336l-.012-.023a.237.237 0 0 1-.016-.105c-.005-.058-.005-.107-.005-.153v-.153a.586.586 0 0 0-.112-.32.522.522 0 0 0-.358-.2.885.885 0 0 0 .298-.098.447.447 0 0 0 .2-.406.505.505 0 0 0-.316-.522 1.58 1.58 0 0 0-.563-.073h-.717v2.053Zm1.03-1.107a.937.937 0 0 1-.344.046h-.324v-.748H48c.15-.009.299.019.435.08a.31.31 0 0 1 .137.3.316.316 0 0 1-.213.322Zm1.053-1.234a1.821 1.821 0 0 0-1.331-.544 1.873 1.873 0 1 0 1.043 3.43 1.876 1.876 0 0 0 .288-2.886Zm-.19.186a1.533 1.533 0 0 1 .47 1.14 1.609 1.609 0 0 1-2.751 1.144 1.59 1.59 0 0 1-.468-1.145 1.615 1.615 0 0 1 2.228-1.498c.197.082.374.204.52.359" fill="#999"/><path d="M.398 43.183c.256.447.629.816 1.078 1.07l22.058 12.735h.001a2.894 2.894 0 0 0 2.932 0l22.06-12.736a2.893 2.893 0 0 0 1.465-2.538V16.242a2.894 2.894 0 0 0-1.467-2.539L26.465.968V.967a2.891 2.891 0 0 0-2.93 0L1.478 13.704a2.893 2.893 0 0 0-1.466 2.539H.01v25.472a2.876 2.876 0 0 0 .387 1.469" fill="#6ACA8B"/><path d="M17.395 33.647c.08.138.195.252.333.33l6.819 3.937a.89.89 0 0 0 .906 0l6.818-3.936a.885.885 0 0 0 .453-.785V25.32a.896.896 0 0 0-.453-.785L25.453 20.6a.89.89 0 0 0-.906 0l-6.818 3.936a.891.891 0 0 0-.453.785v7.873c-.002.16.04.316.12.454" fill="#fff"/></g><defs><clipPath id="a"><path fill="#fff" d="M0 0h50v57.955H0z"/></clipPath></defs></svg>