<svg fill="none" xmlns="http://www.w3.org/2000/svg" viewBox="0 0 50 50"><g clip-path="url(#a)"><path d="M3.216 25.036V13.103a1.063 1.063 0 0 1 .602-1.017L24.401.198c.37-.23.786-.278 1.156-.046l20.675 11.932a1.11 1.11 0 0 1 .555 1.018v23.82a1.109 1.109 0 0 1-.555 1.017l-17.76 10.266a88.01 88.01 0 0 1-2.823 1.619 1.213 1.213 0 0 1-1.25 0L3.771 37.936c-.37-.231-.555-.51-.555-.972V25.031v.005Z" fill="#6ACA8B"/><path d="M17.784 20.594V34.5c0 1.572-1.25 2.96-2.914 2.914-1.015-.047-1.803-.462-2.343-1.34-.279-.416-.37-.879-.37-1.388V15.369c0-1.297.785-2.219 1.802-2.636 1.018-.417 2.035-.324 3.053 0 .972.278 1.711.878 2.344 1.619L31.66 29.106c.047.047.094.14.185.231V15.275c0-1.48 1.015-2.636 2.453-2.775 1.803-.231 3.006 1.063 3.19 2.406v19.688c0 1.093-.509 1.897-1.434 2.406-.694.37-1.434.462-2.219.416a5.047 5.047 0 0 1-3.053-1.296c-.462-.415-.786-.925-1.203-1.387L17.875 20.717c0-.047-.047-.094-.094-.14l.003.017Z" fill="#FEFEFE"/></g><defs><clipPath id="a"><path fill="#fff" d="M0 0h50v50H0z"/></clipPath></defs></svg>