<svg fill="none" xmlns="http://www.w3.org/2000/svg" viewBox="0 0 50 50"><path d="M39.996 36.163H1.666A1.668 1.668 0 0 1 0 34.497V3.011c0-.918.747-1.666 1.666-1.666h8.53c.438 0 .865.171 1.175.48l4.068 4.037c.31.31.736.48 1.174.48h23.393c.919 0 1.666.747 1.666 1.666v26.489a1.677 1.677 0 0 1-1.676 1.666Z" fill="#FAAB63"/><path d="m33.354 17.884-1.014-.587 1.014-.588a.926.926 0 0 0 .342-1.26.926.926 0 0 0-1.26-.341l-1.014.587v-1.174a.93.93 0 0 0-1.858 0v1.174l-1.025-.587a.914.914 0 0 0-1.26.342.93.93 0 0 0 .342 1.27l1.025.587-1.014.588a.926.926 0 0 0-.342 1.26.926.926 0 0 0 1.26.341l1.014-.587v1.174a.93.93 0 0 0 1.858 0V18.91l1.014.587a.912.912 0 0 0 1.26-.341.927.927 0 0 0-.342-1.271ZM23.704 17.884l-1.014-.587 1.014-.588a.926.926 0 0 0 .342-1.26.926.926 0 0 0-1.26-.341l-1.015.587v-1.174a.93.93 0 0 0-1.857 0v1.174l-1.025-.587a.914.914 0 0 0-1.26.342.93.93 0 0 0 .341 1.27l1.026.587-1.015.588a.926.926 0 0 0-.341 1.26.926.926 0 0 0 1.26.341l1.014-.587v1.174a.93.93 0 0 0 1.857 0V18.91l1.015.587a.912.912 0 0 0 1.26-.341.936.936 0 0 0-.342-1.271ZM14.052 17.884l-1.015-.587 1.015-.588a.926.926 0 0 0 .341-1.26.926.926 0 0 0-1.26-.341l-1.014.587v-1.174a.93.93 0 0 0-1.858 0v1.174l-1.025-.587a.912.912 0 0 0-1.26.342.93.93 0 0 0 .342 1.27l1.025.587-1.014.588a.926.926 0 0 0-.342 1.26.926.926 0 0 0 1.26.341l1.014-.587v1.174a.93.93 0 0 0 1.858 0V18.91l1.014.587a.912.912 0 0 0 1.26-.341.936.936 0 0 0-.341-1.271Z" fill="#fff"/><path d="M47.331 48.654H36.003a2.67 2.67 0 0 1-2.669-2.669v-9.48c0-.364.299-.663.662-.663h15.332c.363 0 .662.3.662.662v9.481a2.654 2.654 0 0 1-2.659 2.67Z" fill="#5A5D9D"/><path d="M43.39 27.023h-3.448a4.766 4.766 0 0 0-4.762 4.762v4.057h2.551v-4.057c0-1.217.993-2.21 2.21-2.21h3.45c1.216 0 2.21.993 2.21 2.21v4.057h2.551v-4.057a4.76 4.76 0 0 0-4.762-4.762Z" fill="#61BDF6"/><path d="M43.264 43.007a1.6 1.6 0 0 0-1.602-1.602 1.6 1.6 0 0 0-.694 3.043l-.15 2.68h1.677l-.15-2.68c.545-.256.919-.8.919-1.441Z" fill="#fff"/></svg>