<svg fill="none" xmlns="http://www.w3.org/2000/svg" viewBox="0 0 50 50"><path d="M50 11.719v36.816A1.45 1.45 0 0 1 48.535 50H1.465A1.45 1.45 0 0 1 0 48.535V11.72l2.93-2.93h44.14L50 11.72Z" fill="#E0F4FF"/><path d="M50 11.719v36.816A1.45 1.45 0 0 1 48.535 50H25V8.79h22.07L50 11.718Z" fill="#E0F4FF"/><path d="M50 1.465C50 .655 49.345 0 48.535 0H35.254l-2.93 8.79 2.93 2.929H50V1.465Z" fill="#61BDF6"/><path d="M35.254 0v11.719H0V1.465C0 .645.644 0 1.465 0h33.789Z" fill="#5A5D9D"/><path d="M25 0h10.254v11.719H25V0Z" fill="#5A5D9D"/><path d="M8.887 5.86a1.465 1.465 0 1 1-2.93 0 1.465 1.465 0 0 1 2.93 0ZM14.746 5.86a1.465 1.465 0 1 1-2.93 0 1.465 1.465 0 0 1 2.93 0ZM20.605 5.86a1.465 1.465 0 1 1-2.93 0 1.465 1.465 0 0 1 2.93 0ZM20.605 38.184c-.809 0-1.464-.656-1.464-1.465V25a1.464 1.464 0 1 1 2.93 0v11.719c0 .81-.656 1.465-1.466 1.465ZM29.395 38.184c-.81 0-1.465-.656-1.465-1.465V25a1.464 1.464 0 1 1 2.93 0v11.719c0 .81-.656 1.465-1.465 1.465ZM11.934 23.535H7.539c-.02 0-.038.011-.058.012-.021 0-.039-.012-.06-.012-.809 0-1.464.655-1.464 1.465v11.719a1.464 1.464 0 1 0 2.93 0v-4.395h3.046a4.4 4.4 0 0 0 4.395-4.394 4.4 4.4 0 0 0-4.394-4.395Zm0 5.86H8.886v-2.93h3.046a1.466 1.466 0 0 1 0 2.93ZM39.766 23.535H35.37c-.02 0-.038.011-.058.012-.02 0-.038-.012-.06-.012-.809 0-1.464.655-1.464 1.465v11.719a1.464 1.464 0 1 0 2.93 0v-4.395h3.047a4.4 4.4 0 0 0 4.394-4.394 4.4 4.4 0 0 0-4.394-4.395Zm0 5.86h-3.047v-2.93h3.047a1.466 1.466 0 0 1 0 2.93Z" fill="#61BDF6"/><path d="M30.86 30.86a1.45 1.45 0 0 1-1.465 1.464h-8.79a1.45 1.45 0 0 1-1.464-1.465c0-.82.644-1.465 1.465-1.465h8.788c.821 0 1.465.645 1.465 1.465Z" fill="#61BDF6"/><path d="M30.86 30.86a1.45 1.45 0 0 1-1.465 1.464H25v-2.93h4.395c.82 0 1.464.645 1.464 1.465Z" fill="#61BDF6"/></svg>