<svg fill="none" xmlns="http://www.w3.org/2000/svg" viewBox="0 0 50 50"><path d="M1.973 16.606h2.33c.7 0 1.215.2 1.543.6.328.402.435.96.32 1.676a2.825 2.825 0 0 1-.253.808c-.122.246-.282.47-.481.673-.237.245-.503.42-.796.525-.294.106-.67.158-1.127.158H2.47l-.258 1.606H1l.973-6.046Zm1.058.956L2.623 20.1h.737c.489 0 .851-.1 1.087-.301.235-.201.39-.535.466-1.002.073-.451.03-.77-.126-.955-.157-.186-.465-.279-.926-.279h-.83ZM7.527 15H8.73l-.258 1.606h1.07c.674 0 1.14.128 1.4.385.261.256.346.67.254 1.24l-.453 2.815H9.522l.43-2.68c.05-.304.026-.511-.07-.621-.097-.11-.3-.165-.606-.165h-.96l-.558 3.466H6.555L7.527 15ZM12.504 16.606h2.33c.701 0 1.215.2 1.543.6.328.402.435.96.32 1.676a2.83 2.83 0 0 1-.253.808c-.122.246-.282.47-.481.673-.237.245-.503.42-.796.525-.294.106-.67.158-1.127.158h-1.038l-.259 1.606h-1.212l.973-6.046Zm1.058.956-.408 2.537h.737c.489 0 .851-.1 1.087-.301.236-.201.391-.535.466-1.002.073-.451.03-.77-.126-.955-.157-.186-.465-.279-.925-.279h-.83Z" fill="#6C78AF"/><path d="M2.628 25.255h2.331l1.024 5.622 2.833-5.622h2.322L9.96 32.58H8.404l1.046-5.707-2.856 5.707H4.907l-1.073-5.766-.768 5.766H1.449l1.179-7.326ZM13.936 31.395h1.177l.674-4.194h1.464l-.843 5.236c-.114.711-.37 1.239-.768 1.581-.397.343-.949.514-1.654.514h-2.869l.176-1.09h2.617c.28 0 .507-.066.68-.197.171-.132.277-.323.318-.574l.014-.09h-1.295c-.828 0-1.393-.159-1.695-.476-.301-.317-.392-.846-.273-1.587l.534-3.317h1.446l-.516 3.207c-.065.406-.045.672.06.798.104.126.355.19.753.19ZM21.192 25.255h1.684l2.042 7.326h-1.767l-.413-1.744h-3.281l-.954 1.744h-1.685l4.374-7.326Zm.546 1.454-1.558 2.82h2.25l-.692-2.82ZM30.433 32.581h-2.811c-.85 0-1.473-.243-1.872-.728-.398-.485-.526-1.162-.387-2.03.057-.355.16-.682.307-.98.147-.297.341-.569.583-.815a2.53 2.53 0 0 1 .968-.636c.358-.127.813-.191 1.364-.191h1.255l.313-1.946h1.458l-1.178 7.326Zm-1.273-1.154.494-3.067h-.885c-.593 0-1.034.12-1.321.361-.288.241-.477.643-.567 1.205-.088.545-.036.932.155 1.16.192.227.566.341 1.121.341h1.003ZM32.573 27.2h5.618c.815 0 1.377.155 1.687.464.31.309.408.81.297 1.505l-.55 3.412h-1.473l.519-3.227c.064-.396.044-.657-.059-.784-.103-.126-.346-.19-.728-.19h-.821l-.676 4.201h-1.496l.676-4.2h-1.71l-.676 4.2h-1.474l.866-5.38ZM43.432 26.59h-1.535l.215-1.335h1.535l-.215 1.334Zm-.964 5.991h-1.534l.865-5.38h1.534l-.865 5.38ZM44.598 27.2h2.753c.832 0 1.401.153 1.709.457.307.304.404.808.29 1.512l-.548 3.412h-1.464l.521-3.237c.065-.403.043-.664-.067-.784-.109-.12-.357-.18-.744-.18H45.87l-.675 4.201h-1.464l.866-5.38Z" fill="#F89C0E"/></svg>