<svg fill="none" xmlns="http://www.w3.org/2000/svg" viewBox="0 0 50 50"><path d="m22 21-1.303 28c-.169 0-.337-.031-.49-.11L5.811 42.782A1.328 1.328 0 0 1 5 41.547V21h17Z" fill="#FAAB63"/><path d="M37 21v20.551a1.36 1.36 0 0 1-.828 1.234L21.5 48.89c-.156.078-.328.109-.5.109V21h16Z" fill="#FAAB63"/><path d="m37.005 18 3.61 3.998a1.399 1.399 0 0 1-.015 1.943c-.126.111-.25.207-.407.286l-13.126 5.67a1.308 1.308 0 0 1-1.437-.286l-4.626-4.794-4.625 4.778c-.375.382-.938.51-1.438.286l-13.126-5.67a1.371 1.371 0 0 1-.703-1.8c.063-.159.156-.302.281-.413L5.003 18h32.002ZM37.003 18l3.61-4a1.369 1.369 0 0 0-.047-1.954 1.154 1.154 0 0 0-.39-.266L27.047 6.107a1.277 1.277 0 0 0-1.438.297l-4.626 4.923-4.61-4.923c-.375-.39-.937-.5-1.438-.297L1.81 11.78c-.688.313-1 1.14-.688 1.829.063.14.157.265.266.39L4.997 18h32.006Z" fill="#FFB876"/><path d="M5 18.5 21 25l16-6.5L21 12 5 18.5Z" fill="#FFD8B3"/><path d="M48.614 11.766a.554.554 0 0 0 .349-.46 9.87 9.87 0 0 0 .037-.81 9.87 9.87 0 0 0-.037-.809.554.554 0 0 0-.35-.46l-1.53-.61a7.764 7.764 0 0 0-.89-2.145l.653-1.522a.567.567 0 0 0-.074-.572 8.339 8.339 0 0 0-.55-.601 8.355 8.355 0 0 0-.602-.55.536.536 0 0 0-.572-.074l-1.522.654a7.77 7.77 0 0 0-2.147-.891l-.609-1.53a.554.554 0 0 0-.46-.349A9.846 9.846 0 0 0 39.5 1c-.275 0-.542.015-.81.037a.554.554 0 0 0-.46.35l-.61 1.529a7.77 7.77 0 0 0-2.146.89l-1.522-.653a.567.567 0 0 0-.572.074c-.208.171-.409.357-.602.55a8.339 8.339 0 0 0-.55.601.535.535 0 0 0-.074.572l.654 1.522a7.764 7.764 0 0 0-.892 2.146l-1.53.609a.554.554 0 0 0-.349.46 9.9 9.9 0 0 0-.037.817c0 .274.015.542.037.809a.554.554 0 0 0 .35.46l1.53.61c.185.757.49 1.477.89 2.145l-.653 1.522a.567.567 0 0 0 .074.572c.171.208.357.408.55.601.193.193.394.379.602.55a.536.536 0 0 0 .572.074l1.522-.654a7.768 7.768 0 0 0 2.147.891l.609 1.53a.554.554 0 0 0 .46.349c.268.022.543.037.81.037s.542-.015.81-.037a.554.554 0 0 0 .46-.35l.61-1.529a7.768 7.768 0 0 0 2.146-.89l1.522.653a.567.567 0 0 0 .572-.074c.208-.171.409-.357.602-.55.193-.193.379-.393.55-.601a.535.535 0 0 0 .074-.572l-.654-1.522a7.764 7.764 0 0 0 .892-2.146l1.53-.616Z" fill="#61BDF6"/><path d="M39.5 16a5.5 5.5 0 1 0 0-11 5.5 5.5 0 0 0 0 11Z" fill="#fff"/><path d="M39.5 13a2.5 2.5 0 1 0 0-5 2.5 2.5 0 0 0 0 5Z" fill="#61BDF6"/></svg>