<svg fill="none" xmlns="http://www.w3.org/2000/svg" viewBox="0 0 50 50"><path d="M38.184 22.07a1.45 1.45 0 0 1-1.465 1.465H24.902a1.45 1.45 0 0 1-1.465-1.465c0-.82.645-1.465 1.465-1.465H36.72c.82 0 1.465.645 1.465 1.465ZM10.985 33.608c-.32 0-.644-.105-.914-.32a1.468 1.468 0 0 1-.23-2.06l4.398-5.497a1.47 1.47 0 0 1 2.06-.229c.631.507.734 1.428.23 2.06l-4.398 5.496c-.29.36-.716.55-1.146.55ZM15.384 18.959c-.43 0-.855-.188-1.146-.55L8.01 10.626a1.468 1.468 0 0 1 .229-2.06 1.468 1.468 0 0 1 2.06.228l6.228 7.785a1.467 1.467 0 0 1-1.143 2.38ZM22.704 18.959a1.468 1.468 0 0 1-1.143-2.38l6.228-7.786a1.47 1.47 0 0 1 2.06-.228c.631.506.734 1.427.229 2.06l-6.229 7.785c-.29.36-.715.549-1.145.549ZM29.308 41.5c-.509 0-1.003-.265-1.273-.739l-7.357-12.875a1.464 1.464 0 0 1 .545-1.999 1.459 1.459 0 0 1 1.998.545l7.358 12.876a1.464 1.464 0 0 1-1.27 2.191Z" fill="#5A5D9D"/><path d="M38.184 22.07a1.45 1.45 0 0 1-1.465 1.465H24.902a1.45 1.45 0 0 1-1.465-1.465h14.747Z" fill="#5A5D9D"/><path d="M19.043 14.746a7.327 7.327 0 0 0-7.324 7.324 7.327 7.327 0 0 0 7.324 7.325 7.327 7.327 0 0 0 7.324-7.325 7.327 7.327 0 0 0-7.324-7.324Z" fill="#E1697F"/><path d="M7.324 44.043C3.286 44.043 0 40.757 0 36.719s3.286-7.325 7.324-7.325c4.039 0 7.324 3.287 7.324 7.325s-3.285 7.324-7.324 7.324Z" fill="#6ACA8B"/><path d="M42.676 14.746c-4.043 0-7.422 3.281-7.422 7.324 0 4.043 3.379 7.325 7.422 7.325A7.327 7.327 0 0 0 50 22.07a7.327 7.327 0 0 0-7.324-7.324Z" fill="#FAAB63"/><path d="M30.762 46.973a4.4 4.4 0 0 1-4.395-4.395 4.4 4.4 0 0 1 4.395-4.394 4.4 4.4 0 0 1 4.394 4.394 4.4 4.4 0 0 1-4.394 4.395ZM7.324 11.816A4.4 4.4 0 0 1 2.93 7.422a4.4 4.4 0 0 1 4.394-4.395 4.4 4.4 0 0 1 4.395 4.395 4.4 4.4 0 0 1-4.395 4.394Z" fill="#61BDF6"/><path d="M30.762 11.816a4.4 4.4 0 0 1-4.395-4.394 4.4 4.4 0 0 1 4.395-4.395 4.4 4.4 0 0 1 4.394 4.395c0 2.423-1.71 4.394-4.394 4.394Z" fill="#6ACA8B"/><path d="M11.719 22.07h14.648a7.327 7.327 0 0 1-7.324 7.325 7.327 7.327 0 0 1-7.324-7.325Z" fill="#E1697F"/><path d="M50 22.07a7.327 7.327 0 0 1-7.324 7.325c-4.043 0-7.422-3.282-7.422-7.325H50Z" fill="#FAAB63"/></svg>