<svg fill="none" xmlns="http://www.w3.org/2000/svg" viewBox="0 0 50 50"><path d="M45.508 0H4.492a1.45 1.45 0 0 0-1.465 1.465v47.07c0 .82.645 1.465 1.465 1.465h41.016a1.45 1.45 0 0 0 1.465-1.465V1.465A1.45 1.45 0 0 0 45.508 0Z" fill="#5A5D9D"/><path d="M46.973 1.465v47.07A1.45 1.45 0 0 1 45.508 50H25V0h20.508c.82 0 1.465.644 1.465 1.465Z" fill="#5A5D9D"/><path d="m44.043 14.746-1.465 1.465 1.465 1.465v17.578l-1.465 1.465 1.465 1.465v8.886H5.957v-8.886l1.465-1.465-1.465-1.465V17.676l1.465-1.465-1.465-1.465V2.93h38.086v11.816Z" fill="#61BDF6"/><path d="m44.043 14.746-1.465 1.465 1.465 1.465v17.578l-1.465 1.465 1.465 1.465v8.886H25V2.93h19.043v11.816Z" fill="#61BDF6"/><path d="M44.043 14.746v2.93h-3.486l-2.52 5.039a1.48 1.48 0 0 1-1.23.82c-.557.03-1.026-.205-1.319-.645l-4.629-6.972-4.629 6.972c-.292.41-.732.645-1.23.645h-.146c-.557-.059-1.026-.41-1.202-.908l-4.511-11.25-4.512 11.25a1.44 1.44 0 0 1-1.289.908c-.615 0-1.114-.293-1.377-.82l-2.52-5.04H5.957v-2.929h4.395c.556 0 1.054.322 1.318.82l1.465 2.93 4.658-11.63c.44-1.114 2.256-1.114 2.695 0L25 18.144l.322.79 4.307-6.474c.557-.82 1.904-.82 2.461 0l4.453 6.709 1.787-3.604c.264-.498.762-.82 1.318-.82h4.395Z" fill="#E0F4FF"/><path d="M44.043 35.254v2.93h-3.486l-2.52 5.038c-.264.498-.762.82-1.318.82h-.117c-.586-.058-1.084-.439-1.26-.995l-4.746-14.239-4.278 8.555c-.205.44-.615.732-1.084.79-.088.03-.146.03-.234.03-.381 0-.762-.146-1.025-.44l-1.26-1.23-2.198 6.534c-.175.556-.673.937-1.26.996-.615.058-1.171-.293-1.435-.82l-4.54-9.083-1.612 3.223c-.264.498-.762.82-1.318.82H5.957v-2.93h3.486l2.52-5.039c.498-.996 2.139-.996 2.637 0l4.277 8.555 1.817-5.45c.146-.468.556-.849 1.054-.966a1.39 1.39 0 0 1 1.348.41l1.494 1.495.41-.821 4.541-9.082c.264-.527.82-.85 1.436-.82.585.058 1.084.44 1.26.996l4.745 14.238 1.348-2.695c.264-.498.762-.82 1.318-.82h4.395Z" fill="#E0F4FF"/><path d="M44.043 14.746v2.93h-3.486l-2.52 5.039a1.48 1.48 0 0 1-1.23.82c-.557.03-1.026-.205-1.319-.645l-4.629-6.972-4.629 6.973c-.292.41-.732.644-1.23.644v-5.39l.322.79 4.307-6.474c.557-.82 1.904-.82 2.461 0l4.453 6.709 1.787-3.604c.264-.498.762-.82 1.318-.82h4.395Z" fill="#E0F4FF"/><path d="M39.648 35.254h4.395v2.93h-3.486l-2.52 5.038c-.264.498-.762.82-1.318.82h-.117c-.586-.058-1.084-.439-1.26-.995l-4.746-14.239-4.278 8.555c-.205.44-.615.732-1.084.79-.088.03-.146.03-.234.03v-4.746l4.541-9.082c.264-.527.82-.85 1.436-.82.585.058 1.084.44 1.26.996l4.745 14.238 1.348-2.695c.264-.498.762-.82 1.318-.82Z" fill="#E0F4FF"/></svg>