<svg fill="none" xmlns="http://www.w3.org/2000/svg" viewBox="0 0 50 50"><g clip-path="url(#a)"><path d="M36.816 25.39H1.465A1.45 1.45 0 0 0 0 26.856v5.86c0 .82.645 1.465 1.465 1.465h35.351a1.45 1.45 0 0 0 1.465-1.465v-5.86a1.45 1.45 0 0 0-1.465-1.464ZM28.027 13.672H1.465A1.45 1.45 0 0 0 0 15.137v5.86c0 .82.645 1.464 1.465 1.464h26.562a1.45 1.45 0 0 0 1.465-1.465v-5.86a1.45 1.45 0 0 0-1.465-1.464ZM17.676 1.953H1.465A1.45 1.45 0 0 0 0 3.418v5.86c0 .82.645 1.464 1.465 1.464h16.21a1.45 1.45 0 0 0 1.466-1.465V3.418a1.45 1.45 0 0 0-1.465-1.465Z" fill="#61BDF6"/><path d="M38.857 38.447a1.49 1.49 0 0 0-.761 1.29V41.2l-36.621-.068A1.45 1.45 0 0 0 .01 42.597L0 45.527c0 .82.645 1.465 1.465 1.465l36.62.068v1.465c0 .528.294 1.026.763 1.29a1.494 1.494 0 0 0 1.523-.06l5.87-4.384c.41-.293.644-.733.644-1.23 0-.498-.235-.938-.645-1.231l-5.85-4.404a1.56 1.56 0 0 0-1.533-.059Z" fill="#FAAB63"/><path d="m40.38 38.516 5.85 4.404c.41.293.645.732.645 1.23L0 44.072v-1.465c0-.82.645-1.465 1.465-1.465l36.62.069v-1.465c0-.527.294-1.025.763-1.289a1.511 1.511 0 0 1 1.533.059Z" fill="#FAAB63"/></g><defs><clipPath id="a"><path fill="#fff" d="M0 0h50v50H0z"/></clipPath></defs></svg>