<svg fill="none" xmlns="http://www.w3.org/2000/svg" viewBox="0 0 50 50"><path d="M50 25c0 13.807-11.193 25-25 25S0 38.807 0 25 11.193 0 25 0s25 11.193 25 25Z" fill="#61BDF6"/><path d="M16.524 31.892h-4.942V16.229l9.256-9.255h9.054l10.333 10.332v14.148l-6.748.438H16.524Z" fill="#fff"/><path d="M35.925 25c0 3.016-1.222 5.748-3.2 7.724a10.886 10.886 0 0 1-7.724 3.2 10.886 10.886 0 0 1-7.725-3.2 10.886 10.886 0 0 1-3.2-7.724c0-3.016 1.222-5.748 3.2-7.724a10.886 10.886 0 0 1 7.725-3.2c3.016 0 5.747 1.222 7.724 3.2a10.886 10.886 0 0 1 3.2 7.724ZM18.294 42.256a.754.754 0 0 1-.755-.754v-1.214a.755.755 0 1 1 1.51 0v1.214a.755.755 0 0 1-.755.754ZM31.708 42.256a.755.755 0 0 1-.755-.754v-1.214a.755.755 0 0 1 1.51 0v1.214a.754.754 0 0 1-.755.754ZM25 42.904c-.863 0-1.673-.361-2.224-.99a.754.754 0 1 1 1.137-.993c.263.301.66.474 1.087.474.427 0 .823-.173 1.087-.474a.754.754 0 1 1 1.137.993c-.551.629-1.361.99-2.224.99Z" fill="#fff"/><path d="m16.802 11.081-6.024-.302A20.048 20.048 0 0 0 4.887 25l5.055 2.65L14.075 25c0-3.016 1.222-5.748 3.2-7.724l-.473-6.195Z" fill="#E1697F"/><path d="M25 4.887a20.048 20.048 0 0 0-14.22 5.892l6.496 6.497a10.886 10.886 0 0 1 7.724-3.2l3.521-4.334-3.52-4.855Z" fill="#FAAB63"/><path d="m39.221 10.779-5.066.975-1.43 5.522a10.886 10.886 0 0 1 3.2 7.724l3.797 2.18 5.39-2.18a20.048 20.048 0 0 0-5.89-14.221Z" fill="#6ACA8B"/><path d="m16.434 33.566-4.74 4.738a1.255 1.255 0 0 1-1.831-.06A20.036 20.036 0 0 1 4.887 25h9.188c0 2.613.917 5.012 2.448 6.892a1.25 1.25 0 0 1-.09 1.674Z" fill="#E1697F"/><path d="m39.221 10.779-6.497 6.497a10.886 10.886 0 0 0-7.724-3.2V4.886a20.048 20.048 0 0 1 14.221 5.892Z" fill="#FAAB63"/><path d="M45.112 25c0 5.072-1.877 9.706-4.976 13.244a1.255 1.255 0 0 1-1.832.06l-4.739-4.739a1.25 1.25 0 0 1-.089-1.673A10.877 10.877 0 0 0 35.925 25h9.188Z" fill="#6ACA8B"/><path d="m22.687 22.686 12.246-9.752a1.518 1.518 0 0 1 2.134 2.134l-9.752 12.246a3.294 3.294 0 1 1-4.628-4.628Z" fill="#E1697F"/><path d="M26.074 25a1.073 1.073 0 1 1-2.146 0 1.073 1.073 0 0 1 2.146 0Z" fill="#61BDF6"/></svg>