<svg fill="none" xmlns="http://www.w3.org/2000/svg" viewBox="0 0 50 50"><g clip-path="url(#a)"><path d="M49.97 47.919c0 .627-.21 1.145-.628 1.563-.418.309-.836.518-1.454.518H2.111c-.518 0-1.036-.21-1.454-.518-.419-.418-.628-.936-.628-1.563V17.427h49.95l-.01 30.492Z" fill="#FAAB63"/><path d="M49.344 49.472c-.419.31-.837.518-1.454.518H2.112c-.518 0-1.036-.209-1.454-.518L25.006 28.56l24.338 20.912Z" fill="#FFB876"/><path d="m49.97 17.427-7.08 5.099-16.541 11.86a2.33 2.33 0 0 1-2.808 0L7.1 22.526.03 17.427l7.08-5.098L22.505 1.305 23.65.468a2.33 2.33 0 0 1 2.808 0l1.146.837 7.389 5.308 3.644 2.599 4.262 3.117 7.07 5.098Z" fill="#61BDF6"/><path d="M42.9 7.748v14.778l-16.551 11.86a2.33 2.33 0 0 1-2.808 0L7.1 22.526V3.386c0-1.145.936-2.081 2.08-2.081h27.157l6.562 6.443Z" fill="#E0F4FF"/><path d="M36.447 6.085a1.64 1.64 0 0 0 1.663 1.663h4.79l-6.453-6.443v4.78Z" fill="#fff"/><path d="m25.005 15.196-9.122-4.989v10.974l9.122 4.999V15.196Z" fill="#61BDF6"/><path d="m25.005 15.196-9.122-4.989v10.974l9.122 4.999V15.196Z" fill="#61BDF6"/><path d="m34.116 10.207-9.112 4.99V26.18l9.112-5V10.208Z" fill="#61BDF6"/><path d="m25.005 15.196-9.122-4.989 9.111-4.979 9.122 4.98-9.111 4.988Z" fill="#61BDF6"/><path d="m17.814 12.488-.339-.19a.427.427 0 0 0-.587.17c-.12.209-.04.477.17.587l.338.19c.07.04.14.05.209.05.15 0 .299-.08.378-.23.12-.2.05-.458-.169-.577ZM23.82 15.774l-4.78-2.619a.427.427 0 0 0-.588.17c-.12.209-.04.477.17.587l4.78 2.619c.07.04.139.05.209.05.149 0 .298-.08.378-.23.12-.198.04-.467-.17-.577Z" fill="#fff"/><path d="M34.346 9.829c-.01 0-.01 0 0 0l-.01-.01-9.122-4.97a.444.444 0 0 0-.418 0l-9.112 4.98s-.01 0-.01.01c-.13.08-.21.219-.21.378v10.984c0 .16.09.309.23.378l9.122 5c.07.04.139.05.209.05.07 0 .14-.02.209-.05l9.121-5c.14-.08.23-.219.23-.378V10.207a.55.55 0 0 0-.24-.378Zm-9.351-4.103 8.215 4.481-8.215 4.491-5.198-2.848-3.018-1.653 8.216-4.47Zm-8.684 5.208 8.256 4.511v9.998l-8.256-4.52v-9.989Zm9.122 14.51v-9.989l8.245-4.51v9.987l-8.245 4.511Z" fill="#fff"/></g><defs><clipPath id="a"><path fill="#fff" d="M0 0h50v50H0z"/></clipPath></defs></svg>