<svg fill="none" xmlns="http://www.w3.org/2000/svg" viewBox="0 0 50 50"><g clip-path="url(#a)"><path d="M40.986 15.986V25h-7.295v-9.014c0-4.795-3.896-8.691-8.691-8.691-4.795 0-8.691 3.896-8.691 8.691V25H9.014v-9.014C9.014 7.168 16.182 0 25 0c8.818 0 15.986 7.168 15.986 15.986Z" fill="#61BDF6"/><path d="M40.986 15.986V25h-7.295v-9.014c0-4.795-3.896-8.691-8.691-8.691V0c8.818 0 15.986 7.168 15.986 15.986Z" fill="#61BDF6"/><path d="M46.768 25.254v21.621A3.122 3.122 0 0 1 43.643 50H6.357a3.122 3.122 0 0 1-3.125-3.125v-21.62a3.122 3.122 0 0 1 3.125-3.126h37.295a3.126 3.126 0 0 1 3.116 3.125Z" fill="#5A5D9D"/><path d="M46.768 25.254v21.621A3.122 3.122 0 0 1 43.643 50H25V22.13h18.643a3.128 3.128 0 0 1 3.125 3.124Z" fill="#5A5D9D"/><path d="M26.602 37.08c-.079.03-.137.098-.137.166v1.23c0 .811-.654 1.475-1.475 1.475-.81 0-1.474-.654-1.474-1.474v-1.23A3.11 3.11 0 0 1 24.99 34.6c.215-.137.44-.244.694-.323a2.22 2.22 0 0 0 1.523-2.265 2.22 2.22 0 0 0-4.434.156 1.473 1.473 0 1 1-2.95 0c.001-2.793 2.257-5.166 5.157-5.156a5.17 5.17 0 0 1 5.147 4.795 5.112 5.112 0 0 1-3.525 5.273Z" fill="#61BDF6"/><path d="M26.602 37.08c-.079.03-.137.098-.137.166v1.23c0 .81-.654 1.475-1.475 1.475v-5.342c.215-.137.44-.244.694-.322a2.22 2.22 0 0 0 1.523-2.266 2.22 2.22 0 0 0-2.217-2.06v-2.94a5.17 5.17 0 0 1 5.147 4.795 5.126 5.126 0 0 1-3.535 5.264ZM26.475 43.554v.127c0 .81-.655 1.475-1.475 1.475-.81 0-1.475-.654-1.475-1.475v-.127c0-.81.655-1.474 1.475-1.474.81.01 1.475.664 1.475 1.474Z" fill="#61BDF6"/><path d="M26.475 43.555v.127c0 .81-.655 1.474-1.475 1.474V42.09c.81 0 1.475.654 1.475 1.465Z" fill="#61BDF6"/></g><defs><clipPath id="a"><path fill="#fff" d="M0 0h50v50H0z"/></clipPath></defs></svg>