<svg fill="none" xmlns="http://www.w3.org/2000/svg" viewBox="0 0 50 50"><path d="M13.281 38.184c-2.423 0-4.492-1.972-4.492-4.395 0-2.423 2.07-4.395 4.492-4.395a4.4 4.4 0 0 1 4.395 4.395 4.4 4.4 0 0 1-4.395 4.395Z" fill="#6ACA8B"/><path d="M25 17.676a4.388 4.388 0 0 0-4.395 4.394A4.389 4.389 0 0 0 25 26.465a4.389 4.389 0 0 0 4.395-4.395A4.388 4.388 0 0 0 25 17.676Z" fill="#FAAB63"/><path d="M30.86 8.887a4.4 4.4 0 0 1-4.395-4.395C26.465 2.07 28.436 0 30.859 0s4.395 2.07 4.395 4.492a4.4 4.4 0 0 1-4.395 4.395Z" fill="#6ACA8B"/><path d="M14.746 17.676c-3.231 0-5.957-2.628-5.957-5.86 0-3.231 2.726-5.859 5.957-5.859a5.865 5.865 0 0 1 5.86 5.86 5.865 5.865 0 0 1-5.86 5.859Z" fill="#61BDF6"/><path d="M41.113 20.605a5.865 5.865 0 0 1-5.86-5.859 5.865 5.865 0 0 1 5.86-5.86 5.865 5.865 0 0 1 5.86 5.86 5.865 5.865 0 0 1-5.86 5.86Z" fill="#FAAB63"/><path d="M33.79 41.113c-4.04 0-7.325-3.286-7.325-7.324s3.286-7.324 7.324-7.324 7.324 3.286 7.324 7.324-3.286 7.324-7.324 7.324Z" fill="#61BDF6"/><path d="M13.281 29.395a4.4 4.4 0 0 1 4.395 4.394 4.4 4.4 0 0 1-4.395 4.395M30.86 0c2.422 0 4.394 2.07 4.394 4.492a4.4 4.4 0 0 1-4.395 4.395" fill="#6ACA8B"/><path d="M14.746 5.957a5.865 5.865 0 0 1 5.86 5.86 5.865 5.865 0 0 1-5.86 5.859" fill="#61BDF6"/><path d="M41.113 8.887a5.865 5.865 0 0 1 5.86 5.86 5.865 5.865 0 0 1-5.86 5.858" fill="#FAAB63"/><path d="M33.79 26.465c4.037 0 7.323 3.286 7.323 7.324s-3.286 7.324-7.324 7.324" fill="#61BDF6"/><path d="M50 45.605v2.93A1.45 1.45 0 0 1 48.535 50a1.45 1.45 0 0 1-1.465-1.465V47.07h-5.957v1.465A1.45 1.45 0 0 1 39.648 50a1.45 1.45 0 0 1-1.464-1.465V47.07h-5.86v1.465A1.45 1.45 0 0 1 30.86 50a1.45 1.45 0 0 1-1.465-1.465V47.07h-5.859v1.465A1.45 1.45 0 0 1 22.07 50a1.45 1.45 0 0 1-1.465-1.465V47.07h-5.859v1.465A1.45 1.45 0 0 1 13.281 50a1.45 1.45 0 0 1-1.465-1.465V47.07H5.86v1.465A1.45 1.45 0 0 1 4.395 50a1.45 1.45 0 0 1-1.465-1.465V47.07H1.465A1.45 1.45 0 0 1 0 45.605c0-.82.644-1.464 1.465-1.464H2.93v-5.957H1.465A1.45 1.45 0 0 1 0 36.719c0-.82.644-1.465 1.465-1.465H2.93v-5.86H1.465A1.45 1.45 0 0 1 0 27.93c0-.82.644-1.465 1.465-1.465H2.93v-5.86H1.465A1.45 1.45 0 0 1 0 19.142c0-.82.644-1.465 1.465-1.465H2.93v-5.86H1.465A1.45 1.45 0 0 1 0 10.352c0-.821.644-1.465 1.465-1.465H2.93V2.93H1.465A1.45 1.45 0 0 1 0 1.465C0 .645.644 0 1.465 0h2.93c.82 0 1.464.644 1.464 1.465V44.14h42.676c.82 0 1.465.644 1.465 1.465Z" fill="#5A5D9D"/><path d="M50 45.605v2.93A1.45 1.45 0 0 1 48.535 50a1.45 1.45 0 0 1-1.465-1.465V47.07h-5.957v1.465A1.45 1.45 0 0 1 39.648 50a1.45 1.45 0 0 1-1.464-1.465V47.07h-5.86v1.465A1.45 1.45 0 0 1 30.86 50a1.45 1.45 0 0 1-1.465-1.465V47.07H25v-2.93h23.535c.82 0 1.465.645 1.465 1.465Z" fill="#5A5D9D"/><path d="M29.395 22.07A4.389 4.389 0 0 1 25 26.465v-8.79a4.388 4.388 0 0 1 4.395 4.395Z" fill="#FAAB63"/></svg>