<svg fill="none" xmlns="http://www.w3.org/2000/svg" viewBox="0 0 50 50"><path d="M7.803 18.73h28.134V49.22H7.803V18.73Z" fill="#888BBD"/><path d="M7.803 28.896h28.134v10.156H7.803V28.896Z" fill="#5A5D9D"/><path d="M40.635 14.043V24.21h-.01l-4.688 4.688V18.73l4.698-4.688Z" fill="#888BBD"/><path d="M15.635 16.397h17.187v-2.354h7.813l-4.697 4.688H7.802l4.687-4.688H15.635v2.354Z" fill="#696CA0"/><path d="M40.635 24.209v10.224h-.078l-4.62 4.62V28.895l4.698-4.687Z" fill="#5A5D9D"/><path d="M40.635 34.434v10.088l-.01.01-4.688 4.687V39.053l4.62-4.619h.078Z" fill="#888BBD"/><path d="M30.86 42.578c.859 0 1.562.703 1.562 1.563 0 .859-.703 1.562-1.563 1.562-.859 0-1.562-.703-1.562-1.562 0-.86.703-1.563 1.562-1.563ZM30.86 32.412c.859 0 1.562.703 1.562 1.562 0 .86-.703 1.563-1.563 1.563-.859 0-1.562-.703-1.562-1.563s.703-1.562 1.562-1.562ZM30.86 22.256c.859 0 1.562.703 1.562 1.562 0 .86-.703 1.563-1.563 1.563-.859 0-1.562-.704-1.562-1.563 0-.86.703-1.563 1.562-1.563Z" fill="#61BDF6"/><path d="M10.928 25.771a.776.776 0 0 1-.645-1.21l1.563-2.344a.774.774 0 0 1 1.084-.215.776.776 0 0 1 .214 1.084l-1.562 2.344a.79.79 0 0 1-.654.341ZM14.834 25.771a.776.776 0 0 1-.645-1.21l1.563-2.344a.774.774 0 0 1 1.084-.215.776.776 0 0 1 .215 1.084l-1.563 2.344a.79.79 0 0 1-.654.341ZM18.74 25.771a.776.776 0 0 1-.645-1.21l1.563-2.344a.774.774 0 0 1 1.084-.215.776.776 0 0 1 .215 1.084l-1.563 2.344a.79.79 0 0 1-.654.341ZM10.928 35.938a.774.774 0 0 1-.645-1.21l1.563-2.345a.774.774 0 0 1 1.084-.215.774.774 0 0 1 .214 1.084l-1.562 2.344a.815.815 0 0 1-.654.342ZM14.834 35.938a.774.774 0 0 1-.645-1.21l1.563-2.345a.774.774 0 0 1 1.084-.215.774.774 0 0 1 .215 1.084l-1.563 2.344a.815.815 0 0 1-.654.342ZM18.74 35.938a.774.774 0 0 1-.645-1.21l1.563-2.345a.774.774 0 0 1 1.084-.215.774.774 0 0 1 .215 1.084l-1.563 2.344a.815.815 0 0 1-.654.342ZM10.928 46.094a.776.776 0 0 1-.645-1.211l1.563-2.344a.774.774 0 0 1 1.084-.215.776.776 0 0 1 .214 1.084l-1.562 2.344a.815.815 0 0 1-.654.342ZM14.834 46.094a.776.776 0 0 1-.645-1.211l1.563-2.344a.774.774 0 0 1 1.084-.215.776.776 0 0 1 .215 1.084l-1.563 2.344a.815.815 0 0 1-.654.342ZM18.74 46.094a.776.776 0 0 1-.645-1.211l1.563-2.344a.774.774 0 0 1 1.084-.215.776.776 0 0 1 .215 1.084l-1.563 2.344a.815.815 0 0 1-.654.342Z" fill="#696CA0"/><path d="M33.603 17.177h-18.75a.784.784 0 0 1-.78-.78c0-.43.35-.782.78-.782h18.75c.43 0 .782.351.782.781 0 .43-.352.781-.782.781Z" fill="#4B4E84"/><path d="M37.51 8.584a2.338 2.338 0 0 0 2.343 2.344h-7.03V3.125A2.338 2.338 0 0 1 35.165.781a2.338 2.338 0 0 1 2.344 2.344v5.459Z" fill="#CCD1D9"/><path d="m41.416 7.802.781-.78v1.562a2.338 2.338 0 0 1-2.344 2.343 2.338 2.338 0 0 1-2.343-2.343V7.02l.781.781.781-.78.781.78.782-.78.781.78ZM17.979.781h17.187a2.338 2.338 0 0 0-2.344 2.344V17.178H15.635V3.125A2.338 2.338 0 0 1 17.979.781Z" fill="#E6E9ED"/><path d="M29.688 7.031H19.53a.784.784 0 0 1-.781-.781c0-.43.352-.781.781-.781h10.157c.43 0 .78.351.78.781 0 .43-.35.781-.78.781ZM29.688 10.156H19.53a.784.784 0 0 1-.781-.781c0-.43.352-.781.781-.781h10.157c.43 0 .78.351.78.781 0 .43-.35.781-.78.781ZM29.688 13.281H19.53a.784.784 0 0 1-.781-.781c0-.43.352-.781.781-.781h10.157c.43 0 .78.351.78.781 0 .43-.35.781-.78.781Z" fill="#CCD1D9"/></svg>