<svg fill="none" xmlns="http://www.w3.org/2000/svg" viewBox="0 0 50 50"><path d="M17.996 6.992C17.996 3.124 21.136 0 25 0c3.864 0 7.004 3.135 7.004 6.992s-3.14 6.991-7.004 6.991c-3.864 0-7.004-3.134-7.004-6.991Zm10.378 11.754a7.574 7.574 0 0 1 1.438-4.101 9.05 9.05 0 0 0-1.835-.194h-5.944c-.622 0-1.243.061-1.825.184a7.6 7.6 0 0 1 1.448 4.406 7.61 7.61 0 0 1 3.68-.946c1.07.02 2.1.244 3.038.651Zm1.183.631c2.039 1.272 3.466 3.43 3.721 5.933A6.442 6.442 0 1 0 36 13.036c-3.527-.01-6.392 2.83-6.443 6.341Zm-4.23 13.19c3.567 0 6.452-2.89 6.452-6.442a6.442 6.442 0 0 0-6.453-6.442 6.442 6.442 0 0 0-6.453 6.442c0 3.561 2.895 6.442 6.453 6.442Zm2.742.437h-5.475c-4.557 0-8.268 3.705-8.268 8.254v6.686l.02.102.46.142C19.158 49.542 22.93 50 26.04 50c6.076 0 9.593-1.73 9.807-1.842l.428-.214h.041v-6.686c.01-4.55-3.69-8.254-8.247-8.254Zm10.673-6.645H33.31a7.982 7.982 0 0 1-2.457 5.536c4.047 1.2 7.014 4.956 7.014 9.383v2.056c5.362-.193 8.461-1.71 8.665-1.822l.428-.224H47v-6.686c.01-4.55-3.7-8.243-8.258-8.243ZM14 25.91a6.4 6.4 0 0 0 3.436-.998 8.006 8.006 0 0 1 3.007-5.088c.01-.122.02-.244.02-.366 0-3.562-2.895-6.442-6.453-6.442a6.442 6.442 0 0 0-6.453 6.442C7.547 23.03 10.442 25.91 14 25.91Zm5.8 5.974a7.957 7.957 0 0 1-2.456-5.506c-.204-.01-.398-.03-.602-.03h-5.474C6.71 26.359 3 30.053 3 34.602v6.686l.02.102.46.143c3.486 1.089 6.605 1.587 9.307 1.75v-2.015c0-4.427 2.966-8.182 7.014-9.383Z" fill="#61BDF6"/></svg>