<svg fill="none" xmlns="http://www.w3.org/2000/svg" viewBox="0 0 50 50"><g clip-path="url(#a)"><path d="M39.395 0H17.227a4.926 4.926 0 0 0-4.922 4.922v38.232c0 .752.605 1.358 1.357 1.358h25.732a4.926 4.926 0 0 0 4.922-4.922V4.922C44.306 2.207 42.11 0 39.394 0Z" fill="#61BDF6"/><path d="M35.586 13.291v31.924A4.793 4.793 0 0 1 30.8 50H10.479a4.793 4.793 0 0 1-4.786-4.785V13.291a4.793 4.793 0 0 1 4.786-4.785H30.8a4.793 4.793 0 0 1 4.785 4.785Z" fill="#A5F4FF"/><path d="M18.477 21.377h-4.434a1.85 1.85 0 0 0-1.846 1.845V36.63a1.85 1.85 0 0 0 1.846 1.846h4.434a1.85 1.85 0 0 0 1.845-1.846V23.222c0-1.015-.82-1.845-1.845-1.845Z" fill="#61BDF6"/><path d="M28.828 25.605h-4.433a1.85 1.85 0 0 0-1.846 1.846v9.18a1.85 1.85 0 0 0 1.846 1.845h4.433a1.85 1.85 0 0 0 1.846-1.845v-9.18a1.85 1.85 0 0 0-1.846-1.846Z" fill="#5A5D9D"/><path d="M25.488 17.246V36.63a1.85 1.85 0 0 1-1.845 1.845h-4.434a1.85 1.85 0 0 1-1.846-1.845V17.246A1.85 1.85 0 0 1 19.21 15.4h4.434a1.85 1.85 0 0 1 1.845 1.846Z" fill="#FAAB63"/><path d="M30.38 42.06c0 .81-.653 1.465-1.464 1.465H13.662c-.81 0-1.465-.654-1.465-1.465 0-.81.655-1.465 1.465-1.465h15.244c.81 0 1.475.655 1.475 1.465Z" fill="#61BDF6"/><path d="M30.38 42.06c0 .81-.653 1.465-1.464 1.465h-7.47v-2.93h7.46c.81 0 1.475.655 1.475 1.465Z" fill="#61BDF6"/></g><defs><clipPath id="a"><path fill="#fff" d="M0 0h50v50H0z"/></clipPath></defs></svg>