<svg fill="none" xmlns="http://www.w3.org/2000/svg" viewBox="0 0 50 50"><g clip-path="url(#a)"><path d="M23.916 3.333v-2.5M23.916 49.167V33.333M23.916 16.667V20" stroke="#5A5D9D" stroke-width="2" stroke-miterlimit="10" stroke-linecap="round"/><path d="M40.5 16.667H8.415c-1.083 0-2-.917-2-2V5.333c0-1.083.833-2 2-2h32.083l7.25 6.5c.084.084.084.167 0 .25l-7.25 6.584Z" fill="#FAAB63"/><path d="M9.5 33.333h32.333c1.084 0 2-.916 2-2V22c0-1.083-.916-2-2-2H9.5l-7.25 6.5c-.083.083-.083.167 0 .25l7.25 6.583Z" fill="#61BDF6"/></g><defs><clipPath id="a"><path fill="#fff" d="M0 0h50v50H0z"/></clipPath></defs></svg>