<svg fill="none" xmlns="http://www.w3.org/2000/svg" viewBox="0 0 50 50"><path d="M50 5.86V25a1.45 1.45 0 0 1-1.465 1.465H13.281A1.45 1.45 0 0 1 11.816 25V5.86l2.93-2.93H47.07L50 5.86Z" fill="#E0F4FF"/><path d="M50 5.86V25a1.45 1.45 0 0 1-1.465 1.465H30.86V2.93H47.07L50 5.86Z" fill="#BBDCFF"/><path d="M50 1.465C50 .655 49.345 0 48.535 0H38.184l-2.93 2.93 2.93 2.93H50V1.464Z" fill="#61BDF6"/><path d="M38.184 0v5.86H11.816V1.464c0-.82.645-1.465 1.465-1.465h24.903Z" fill="#5A5D9D"/><path d="M30.86 0h7.324v5.86h-7.325V0Z" fill="#5A5D9D"/><path d="M44.043 17.676v19.043a1.45 1.45 0 0 1-1.465 1.465H7.324a1.45 1.45 0 0 1-1.465-1.465V17.676l2.93-2.93h32.324l2.93 2.93Z" fill="#E0F4FF"/><path d="M44.043 17.676v19.043a1.45 1.45 0 0 1-1.465 1.465H25V14.746h16.113l2.93 2.93Z" fill="#BBDCFF"/><path d="M44.043 13.281c0-.81-.655-1.465-1.465-1.465H32.324l-2.93 2.93 2.93 2.93h11.719V13.28Z" fill="#61BDF6"/><path d="M32.324 11.816v5.86H5.86V13.28c0-.82.645-1.465 1.465-1.465h25Z" fill="#5A5D9D"/><path d="M25 11.816h7.324v5.86H25v-5.86Z" fill="#2C3B73"/><path d="M38.184 29.395v19.14A1.45 1.45 0 0 1 36.719 50H1.465A1.45 1.45 0 0 1 0 48.535v-19.14l2.93-2.93h32.324l2.93 2.93Z" fill="#E0F4FF"/><path d="M38.184 29.395v19.14A1.45 1.45 0 0 1 36.719 50H19.14V26.465h16.113l2.93 2.93Z" fill="#BBDCFF"/><path d="M32.324 38.184h-8.789a1.464 1.464 0 1 1 0-2.93h8.79a1.464 1.464 0 1 1 0 2.93ZM32.324 44.043h-8.789a1.464 1.464 0 1 1 0-2.93h8.79a1.464 1.464 0 1 1 0 2.93Z" fill="#fff"/><path d="M14.746 44.043H5.86c-.81 0-1.464-.655-1.464-1.465v-5.86c0-.809.655-1.464 1.464-1.464h8.887c.81 0 1.465.655 1.465 1.465v5.86c0 .809-.655 1.464-1.465 1.464ZM38.184 25c0-.81-.656-1.465-1.465-1.465H26.465l-2.93 2.93 2.93 2.93h11.719V25Z" fill="#61BDF6"/><path d="M26.465 23.535v5.86H0V25c0-.82.644-1.465 1.465-1.465h25Z" fill="#5A5D9D"/><path d="M19.14 23.535h7.325v5.86H19.14v-5.86Z" fill="#5A5D9D"/></svg>