<svg fill="none" xmlns="http://www.w3.org/2000/svg" viewBox="0 0 50 50"><g clip-path="url(#a)"><path d="M49.97 47.919c0 .627-.21 1.145-.628 1.563-.418.309-.836.518-1.454.518H2.111c-.518 0-1.036-.21-1.454-.518-.419-.418-.628-.936-.628-1.563V17.427h49.95l-.01 30.492Z" fill="#FAAB63"/><path d="M49.344 49.472c-.419.31-.837.518-1.454.518H2.112c-.518 0-1.036-.209-1.454-.518L25.006 28.56l24.338 20.912Z" fill="#FFB876"/><path d="m49.97 17.427-7.08 5.099-16.541 11.86a2.33 2.33 0 0 1-2.808 0L7.1 22.526.03 17.427l7.08-5.098L22.505 1.305 23.65.468a2.33 2.33 0 0 1 2.808 0l1.146.837 7.389 5.308 3.644 2.599 4.262 3.117 7.07 5.098Z" fill="#61BDF6"/><path d="M42.9 7.748v14.778l-16.551 11.86a2.33 2.33 0 0 1-2.808 0L7.1 22.526V3.386c0-1.145.936-2.081 2.08-2.081h27.157l6.562 6.443Z" fill="#E0F4FF"/><path d="M36.447 6.085c0 .936.727 1.663 1.663 1.663h4.79l-6.453-6.443v4.78ZM24.346 16.345l-6.114 8.877a1.303 1.303 0 0 0 .332 1.816c.215.146.479.234.743.234h12.216c.723 0 1.309-.586 1.309-1.308 0-.264-.078-.528-.234-.742l-6.094-8.878a1.303 1.303 0 0 0-1.817-.332 1.233 1.233 0 0 0-.341.332Z" fill="#fff"/><path d="M25.42 23.033a.588.588 0 0 1-.586-.586v-2.412c0-.322.264-.586.586-.586.322 0 .586.264.586.586v2.412a.575.575 0 0 1-.586.586ZM25.42 25.143a.588.588 0 0 1-.586-.586c0-.04 0-.078.01-.117a1.6 1.6 0 0 1 .029-.108c.01-.039.03-.068.049-.098a.63.63 0 0 1 .078-.087.575.575 0 0 1 .82-.01c.03.03.059.058.078.098.02.029.04.068.059.097.02.04.03.069.03.108.038.195-.02.39-.157.527-.03.03-.058.049-.088.078-.03.02-.068.04-.098.059-.038.01-.068.029-.107.029-.039.01-.078.01-.117.01Z" fill="#FAAB63"/><path d="M18.33 12.096c.244.127.606.244.986.244.41 0 .625-.166.625-.43 0-.244-.185-.39-.664-.556-.654-.225-1.084-.596-1.084-1.163 0-.673.567-1.191 1.494-1.191.45 0 .772.098 1.006.195l-.195.723a1.852 1.852 0 0 0-.83-.186c-.39 0-.576.176-.576.381 0 .254.224.362.732.557.694.254 1.026.625 1.026 1.182 0 .664-.508 1.22-1.592 1.22-.45 0-.899-.117-1.123-.244l.195-.732ZM21.465 9.117c.273-.049.664-.078 1.21-.078.548 0 .948.107 1.212.312.254.196.42.528.42.918s-.127.713-.362.938c-.302.283-.752.42-1.279.42-.117 0-.225-.01-.303-.02v1.406h-.888V9.117h-.01Zm.889 1.797c.078.02.166.02.302.02.479 0 .772-.245.772-.645 0-.362-.254-.576-.694-.576-.185 0-.302.02-.37.039v1.162h-.01ZM25.44 11.998l-.284 1.016h-.927l1.21-3.946h1.172l1.221 3.946h-.957l-.303-1.016H25.44Zm1.005-.664-.244-.84c-.068-.234-.137-.527-.195-.762h-.01c-.058.235-.117.537-.185.762l-.235.84h.87ZM31.7 11.5a40.048 40.048 0 0 1-.04-1.621h-.02a21.782 21.782 0 0 1-.439 1.533l-.478 1.543h-.694l-.42-1.533a19.982 19.982 0 0 1-.361-1.543h-.01c-.02.537-.039 1.142-.068 1.63l-.068 1.505h-.83l.253-3.946h1.192l.39 1.319c.127.458.245.947.332 1.416h.02c.107-.46.244-.977.371-1.417l.42-1.308h1.162l.215 3.945h-.87L31.7 11.5Z" fill="#61BDF6"/></g><defs><clipPath id="a"><path fill="#fff" d="M0 0h50v50H0z"/></clipPath></defs></svg>