<svg fill="none" xmlns="http://www.w3.org/2000/svg" viewBox="0 0 50 50"><g clip-path="url(#a)"><path d="M49.97 47.919c0 .627-.21 1.145-.628 1.563-.418.309-.836.518-1.454.518H2.111c-.518 0-1.036-.21-1.454-.518-.419-.418-.628-.936-.628-1.563V17.427h49.95l-.01 30.492Z" fill="#FAAB63"/><path d="M49.344 49.472c-.419.31-.837.518-1.454.518H2.112c-.518 0-1.036-.209-1.454-.518L25.006 28.56l24.338 20.912Z" fill="#FFB876"/><path d="m49.97 17.427-7.08 5.099-16.541 11.86a2.33 2.33 0 0 1-2.808 0L7.1 22.526.03 17.427l7.08-5.098L22.505 1.305 23.65.468a2.33 2.33 0 0 1 2.808 0l1.146.837 7.389 5.308 3.644 2.599 4.262 3.117 7.07 5.098Z" fill="#61BDF6"/><path d="M42.9 7.748v14.778l-16.551 11.86a2.33 2.33 0 0 1-2.808 0L7.1 22.526V3.386c0-1.145.936-2.081 2.08-2.081h27.157l6.562 6.443Z" fill="#E0F4FF"/><path d="M36.447 6.085c0 .936.727 1.663 1.663 1.663h4.79l-6.453-6.443v4.78Z" fill="#fff"/><path d="M24.742 6.836C18.814 6.836 14 11.65 14 17.578c0 5.928 4.814 10.742 10.742 10.742 5.928 0 10.742-4.814 10.742-10.742 0-5.928-4.814-10.742-10.742-10.742Z" fill="#FAAB63"/><path d="M29.625 12.207h-2.93v2.93h2.93v-2.93ZM22.79 12.207h-2.93v2.93h2.93v-2.93ZM24.742 24.902a7.327 7.327 0 0 1-7.324-7.324h2.93a4.401 4.401 0 0 0 4.394 4.395 4.401 4.401 0 0 0 4.395-4.395h2.93a7.327 7.327 0 0 1-7.325 7.324Z" fill="#fff"/></g><defs><clipPath id="a"><path fill="#fff" d="M0 0h50v50H0z"/></clipPath></defs></svg>