<svg fill="none" xmlns="http://www.w3.org/2000/svg" viewBox="0 0 50 50"><path d="M.781 45.313c0 .43.352.78.781.78h46.876c.43 0 .78-.35.78-.78V7.03H.782v38.282Z" fill="#E0F4FF"/><path d="M49.219 5.469V7.03H.78V5.47c0-.867.696-1.563 1.563-1.563h45.312c.867 0 1.563.696 1.563 1.563Z" fill="#61BDF6"/><path d="M3.129 4.686H3.12a.777.777 0 0 0-.777.781.784.784 0 0 0 1.566 0 .78.78 0 0 0-.781-.781ZM5.473 4.686h-.008a.778.778 0 0 0-.777.781c0 .431.353.781.785.781a.781.781 0 1 0 0-1.562ZM7.818 4.686h-.007a.777.777 0 0 0-.778.781.784.784 0 0 0 1.567 0 .78.78 0 0 0-.782-.781Z" fill="#5A5D9D"/><path d="M41.014 27.336h5.47v10.156h-5.47V27.336Z" fill="#FAAB63"/><path d="M41.014 21.875h5.47v5.46h-5.47v-5.46Z" fill="#6BC5D2"/><path d="M33.982 32.023h5.47v5.47h-5.47v-5.47Z" fill="#FAAB63"/><path d="M33.982 19.531h5.47v12.492h-5.47V19.531Z" fill="#6BC5D2"/><path d="M26.951 34.367h5.47v3.125h-5.47v-3.125Z" fill="#FAAB63"/><path d="M26.951 30.469h5.47v3.898h-5.47V30.47Z" fill="#6BC5D2"/><path d="M19.92 25.773h5.47v11.72h-5.47v-11.72Z" fill="#FAAB63"/><path d="M19.92 21.094h5.47v4.68h-5.47v-4.68Z" fill="#6BC5D2"/><path d="M12.889 35.148h5.47v2.344h-5.47v-2.344Z" fill="#FAAB63"/><path d="M12.889 22.656h5.47v12.492h-5.47V22.656Z" fill="#6BC5D2"/><path d="M5.857 25.773h5.47v11.72h-5.47v-11.72Z" fill="#FAAB63"/><path d="M5.857 17.188h5.47v8.585h-5.47v-8.585Z" fill="#6BC5D2"/><path d="M45.702 19.531h-3.907a.784.784 0 0 0-.781.782v1.562H46.483V20.312a.784.784 0 0 0-.781-.78ZM38.67 13.281h-3.906a.784.784 0 0 0-.782.781v5.47h5.47v-5.47a.784.784 0 0 0-.781-.78ZM31.64 28.133h-3.908a.783.783 0 0 0-.78.781v1.56h5.469v-1.56a.784.784 0 0 0-.781-.781ZM17.577 20.31H13.67a.784.784 0 0 0-.781.78v1.561h5.47v-1.56a.784.784 0 0 0-.782-.782ZM24.608 17.188h-3.907a.784.784 0 0 0-.781.78v3.124h5.47V17.97a.784.784 0 0 0-.782-.782ZM10.546 12.5H6.639a.784.784 0 0 0-.782.781v3.905h5.47V13.28a.784.784 0 0 0-.781-.781Z" fill="#00C0F1"/><path d="M3.516 38.276a.78.78 0 0 1-.782-.782V10.157a.78.78 0 1 1 1.563 0v27.339a.78.78 0 0 1-.781.78Z" fill="#61BDF6"/><path d="M46.484 38.276H3.516a.78.78 0 1 1 0-1.563h42.968a.78.78 0 1 1 0 1.563Z" fill="#61BDF6"/><path d="M39.062 41.406H10.938a.78.78 0 1 1 0-1.563h28.124a.78.78 0 1 1 0 1.563ZM32 43.752H18.002a.78.78 0 1 1 0-1.563H32a.78.78 0 1 1 0 1.563Z" fill="#fff"/></svg>