<svg fill="none" xmlns="http://www.w3.org/2000/svg" viewBox="0 0 50 50"><g clip-path="url(#a)"><path d="M5.957 29.395h26.465v8.789H5.957v-8.79ZM5.957 11.816h26.465v8.79H5.957v-8.79Z" fill="#5A5D9D"/><path d="M25.098 11.816h7.324v8.79h-7.324v-8.79ZM25.098 29.395h7.324v8.789h-7.324v-8.79Z" fill="#2C3B73"/><path d="m29.492 9.853 1.465 4.893H1.465A1.45 1.45 0 0 1 0 13.281V1.465C0 .645.644 0 1.465 0h35.351l-7.324 9.853ZM36.816 17.676H1.465A1.45 1.45 0 0 0 0 19.14v11.718c0 .82.644 1.465 1.465 1.465h35.351a1.45 1.45 0 0 0 1.465-1.465V19.141a1.45 1.45 0 0 0-1.465-1.465ZM35.352 35.254H1.465c-.81 0-1.465.656-1.465 1.465v11.816C0 49.345.656 50 1.465 50h35.351V36.719c0-.81-.655-1.465-1.464-1.465Z" fill="#888BBD"/><path d="M38.281 19.14v11.72a1.45 1.45 0 0 1-1.465 1.464H25.098V17.676h11.718c.82 0 1.465.644 1.465 1.465ZM36.816 36.719V50H25.098V35.254h10.254c.809 0 1.464.656 1.464 1.465Z" fill="#5A5D9D"/><path d="M8.887 42.578a1.465 1.465 0 1 1-2.93 0 1.465 1.465 0 0 1 2.93 0ZM14.746 42.578a1.465 1.465 0 1 1-2.93 0 1.465 1.465 0 0 1 2.93 0ZM20.605 42.578a1.465 1.465 0 1 1-2.93 0 1.465 1.465 0 0 1 2.93 0ZM8.887 25a1.465 1.465 0 1 1-2.93 0 1.465 1.465 0 0 1 2.93 0ZM14.746 25a1.465 1.465 0 1 1-2.93 0 1.465 1.465 0 0 1 2.93 0ZM20.605 25a1.465 1.465 0 1 1-2.929 0 1.465 1.465 0 0 1 2.93 0ZM8.887 7.422a1.465 1.465 0 1 1-2.93 0 1.465 1.465 0 0 1 2.93 0ZM14.746 7.422a1.465 1.465 0 1 1-2.93 0 1.465 1.465 0 0 1 2.93 0ZM20.605 7.422a1.465 1.465 0 1 1-2.93 0 1.465 1.465 0 0 1 2.93 0Z" fill="#61BDF6"/><path d="m29.492 9.853 1.465 4.893h-5.86V0h11.72l-7.325 9.853Z" fill="#5A5D9D"/><path d="M36.816 0c-7.265 0-13.183 6.015-13.183 13.281 0 4.365 2.227 8.438 5.86 10.899v20.36c0 .47.234.938.644 1.202l5.859 4.023c.264.147.527.235.82.235.381 0 .762-.147 1.026-.44l5.86-5.957c.292-.263.439-.644.439-1.025v-4.394c0-.381-.147-.762-.44-1.026l-1.494-1.494 1.113-.557c.498-.263.82-.761.82-1.318v-2.93c0-.38-.146-.761-.439-1.025l-1.494-1.494 1.113-.557c.498-.263.82-.762.82-1.318V24.18C47.774 21.719 50 17.646 50 13.28 50 6.015 44.082 0 36.816 0Zm0 14.746a4.389 4.389 0 0 1-4.394-4.394 4.388 4.388 0 0 1 4.394-4.395 4.388 4.388 0 0 1 4.395 4.395 4.389 4.389 0 0 1-4.395 4.394Z" fill="#F2C94C"/><path d="M50 13.281c0 4.365-2.227 8.438-5.86 10.899v2.285c0 .556-.322 1.055-.82 1.318l-1.113.557 1.494 1.494c.293.264.44.645.44 1.025v2.93c0 .557-.323 1.055-.82 1.318l-1.114.557 1.494 1.494c.293.264.44.645.44 1.026v4.394c0 .38-.147.762-.44 1.025l-5.86 5.957c-.263.293-.644.44-1.025.44V14.746a4.389 4.389 0 0 0 4.395-4.394 4.388 4.388 0 0 0-4.395-4.395V0C44.082 0 50 6.015 50 13.281Z" fill="#F2C94C"/></g><defs><clipPath id="a"><path fill="#fff" d="M0 0h50v50H0z"/></clipPath></defs></svg>