<svg fill="none" xmlns="http://www.w3.org/2000/svg" viewBox="0 0 50 50"><g clip-path="url(#a)"><path d="m32.46 49.912-7.04-3.124a1.047 1.047 0 0 0-.84 0l-7.04 3.124a1.035 1.035 0 0 1-1.456-.947V26.28h17.822v22.695c.01.742-.761 1.24-1.445.937Z" fill="#FAAB63"/><path d="M27.666 26.28h-5.332v21.504l2.246-.996c.264-.118.576-.118.84 0l2.246.996V26.28Z" fill="#FAAB63"/><path d="M28.271 1.855a3.806 3.806 0 0 0 4.766 1.543c2.646-1.123 5.547.977 5.293 3.848a3.815 3.815 0 0 0 2.94 4.053c2.802.644 3.905 4.052 2.02 6.22a3.815 3.815 0 0 0 0 5.01c1.895 2.168.782 5.576-2.02 6.22a3.815 3.815 0 0 0-2.94 4.053c.254 2.871-2.637 4.971-5.293 3.848a3.823 3.823 0 0 0-4.766 1.543c-1.484 2.47-5.058 2.47-6.543 0a3.806 3.806 0 0 0-4.765-1.543c-2.647 1.123-5.547-.977-5.293-3.848a3.815 3.815 0 0 0-2.94-4.052c-2.803-.645-3.906-4.053-2.021-6.221a3.815 3.815 0 0 0 0-5.01c-1.895-2.168-.782-5.576 2.021-6.22a3.815 3.815 0 0 0 2.94-4.053c-.254-2.871 2.636-4.971 5.293-3.848a3.823 3.823 0 0 0 4.765-1.543c1.485-2.47 5.059-2.47 6.543 0Z" fill="#61BDF6"/><path d="M25 33.76c7.589 0 13.74-6.152 13.74-13.74C38.74 12.43 32.59 6.28 25 6.28c-7.588 0-13.74 6.151-13.74 13.74 0 7.588 6.152 13.74 13.74 13.74Z" fill="#E0F4FF"/><path d="M43.291 22.52a3.815 3.815 0 0 1 0-5.01c1.895-2.168.781-5.576-2.021-6.22a3.815 3.815 0 0 1-2.94-4.053c.254-2.871-2.637-4.971-5.293-3.848a3.888 3.888 0 0 1-1.074.283c5.107 3.633 8.447 9.59 8.447 16.338 0 6.748-3.33 12.705-8.447 16.338a3.57 3.57 0 0 1 1.074.283c2.647 1.123 5.547-.976 5.293-3.848a3.815 3.815 0 0 1 2.94-4.052c2.802-.635 3.906-4.043 2.021-6.211Z" fill="#61BDF6"/><path d="M31.25 24.287a.726.726 0 0 1-.605-.723v-6.816c0-.4.332-.732.732-.732.4 0 .732.332.732.732v6.084c.46 0 1.075 0 1.65-.01a.731.731 0 1 1 0 1.465c-.204.01-2.333.03-2.509 0ZM18.515 24.307c-1.113 0-2.207-.47-2.92-1.25a.738.738 0 0 1 .05-1.036.738.738 0 0 1 1.034.05c.44.478 1.123.77 1.836.77 1.192 0 2.08-1.288.342-1.933-.322-.117-1.924-.742-2.129-.879-1.484-.967-1.172-3.29.742-3.867 1.797-.547 3.291.684 3.35.733a.73.73 0 0 1 .088 1.035.72.72 0 0 1-1.026.087c-.02-.019-.957-.761-1.982-.459-.713.215-.791.909-.4 1.212.224.097 1.015.439 1.875.761 3.222 1.192 2.021 4.776-.86 4.776ZM25.78 24.307c-1.113 0-2.206-.47-2.92-1.25a.737.737 0 0 1 .05-1.036.738.738 0 0 1 1.035.05c.44.478 1.123.77 1.836.77 1.191 0 2.08-1.288.342-1.933-.323-.117-1.924-.742-2.13-.879-1.484-.967-1.171-3.29.743-3.867 1.797-.547 3.29.684 3.35.733a.73.73 0 0 1 .087 1.035.72.72 0 0 1-1.025.087c-.02-.019-.957-.761-1.982-.459-.713.215-.791.909-.4 1.212.224.097 1.015.439 1.874.761 3.233 1.192 2.031 4.776-.86 4.776Z" fill="#5A5D9D"/></g><defs><clipPath id="a"><path fill="#fff" d="M0 0h50v50H0z"/></clipPath></defs></svg>