<svg fill="none" xmlns="http://www.w3.org/2000/svg" viewBox="0 0 50 50"><g clip-path="url(#a)"><path d="M50 19.686v18.22c0 .557-.45 1.008-1.008 1.008H10.235C4.628 38.913-.039 34.323 0 28.727a10.092 10.092 0 0 1 2.965-7.085 10.095 10.095 0 0 1 7.153-2.964h38.874c.558 0 1.008.45 1.008 1.008Z" fill="#5A5D9D"/><path d="M50 21.703V35.9H10.117a7.099 7.099 0 0 1 0-14.198H50Z" fill="#E0F4FF"/><path d="M48.99 16.008H28.776c-.557 0-1.007-.45-1.007-1.008v-2.104c0-.558.45-1.008 1.007-1.008h20.216c.557 0 1.008.45 1.008 1.008V15c0 .558-.45 1.008-1.008 1.008Z" fill="#61BDF6"/><path d="M31.447 16.008h-2.672c-.557 0-1.007-.45-1.007-1.008v-2.104c0-.558.45-1.008 1.007-1.008h2.672v4.12Z" fill="#E1697F"/><path d="M35.508 11.888h3.777v4.12h-3.777v-4.12Z" fill="#6ACA8B"/><path d="M31.447 11.888h4.07v4.12h-4.07v-4.12Z" fill="#FAAB63"/><path d="M17.133 16.76h-.538a.754.754 0 0 1 0-1.506h.538a.754.754 0 0 1 0 1.507ZM25.45 14.706h-8.855a.754.754 0 0 1 0-1.507h8.855a.754.754 0 0 1 0 1.507ZM22.838 12.642h-6.233a.754.754 0 0 1 0-1.507h6.233a.754.754 0 0 1 0 1.507ZM25.45 12.642h-.597a.754.754 0 0 1 0-1.507h.607c.42 0 .753.343.753.754a.769.769 0 0 1-.763.753ZM25.451 16.76h-6.233a.754.754 0 0 1 0-1.506h6.233c.42 0 .754.343.754.754a.742.742 0 0 1-.754.753ZM25.253 31.576a.78.78 0 0 1-.578-.265l-1.037-1.213-1.037 1.213a.762.762 0 0 1-.714.255.739.739 0 0 1-.568-.5l-1.36-4.05a.755.755 0 0 1 .48-.959.755.755 0 0 1 .959.48l.93 2.778.743-.87a.765.765 0 0 1 1.154 0l.744.87.93-2.779a.763.763 0 0 1 .959-.479.767.767 0 0 1 .479.959l-1.35 4.041a.754.754 0 0 1-.568.499c-.068.01-.117.02-.166.02ZM33.608 31.576a.781.781 0 0 1-.577-.264l-1.037-1.213-1.047 1.213a.763.763 0 0 1-.714.254.74.74 0 0 1-.568-.499l-1.35-4.04a.763.763 0 0 1 .48-.96.755.755 0 0 1 .958.48l.93 2.779.743-.871a.765.765 0 0 1 1.155 0l.753.87.93-2.778a.763.763 0 0 1 .959-.48.767.767 0 0 1 .48.96l-1.351 4.04a.754.754 0 0 1-.567.5c-.079 0-.128.009-.177.009ZM41.966 31.576a.78.78 0 0 1-.578-.265l-1.037-1.213-1.047 1.213a.762.762 0 0 1-.714.255.74.74 0 0 1-.568-.5l-1.35-4.04a.755.755 0 0 1 .48-.96.763.763 0 0 1 .959.48l.929 2.779.754-.87a.765.765 0 0 1 1.154 0l.754.87.929-2.779a.763.763 0 0 1 .959-.48.767.767 0 0 1 .48.96l-1.35 4.04a.754.754 0 0 1-.568.5c-.098 0-.147.01-.186.01ZM10.85 31.301a.756.756 0 0 1-.538-1.292l3.493-3.492a.756.756 0 0 1 1.067 0 .756.756 0 0 1 0 1.066l-3.493 3.493a.742.742 0 0 1-.529.225ZM14.002 31.301a.756.756 0 0 1-.538-1.292l3.493-3.492a.756.756 0 0 1 1.067 0 .756.756 0 0 1 0 1.066l-3.493 3.493a.725.725 0 0 1-.529.225ZM46.025 31.488a.754.754 0 0 1-.753-.754v-.049a.754.754 0 0 1 1.506 0v.05a.76.76 0 0 1-.753.753Z" fill="#5A5D9D"/></g><defs><clipPath id="a"><path fill="#fff" d="M0 0h50v50H0z"/></clipPath></defs></svg>