<svg fill="none" xmlns="http://www.w3.org/2000/svg" viewBox="0 0 50 50"><g clip-path="url(#a)"><path d="M1.729 0H48.28c.957 0 1.729.771 1.729 1.729V48.28c0 .957-.772 1.729-1.729 1.729H1.73A1.74 1.74 0 0 1 0 48.272V1.729C0 .77.771 0 1.729 0Z" fill="#E0F4FF"/><path d="M15.518 10.341v16.377H4.307a.86.86 0 0 1-.86-.859V11.211c0-.479.39-.86.86-.86h11.21v-.01Z" fill="#FAAB63"/><path d="M50 1.729v5.175H0V1.73C0 .77.771 0 1.729 0H48.28C49.228 0 50 .771 50 1.729Z" fill="#61BDF6"/><path d="M6.035 2.588H4.307a.86.86 0 0 0-.86.86c0 .468.39.859.86.859h1.728a.86.86 0 0 0 .86-.86.86.86 0 0 0-.86-.86ZM45.693 2.588h-1.728a.86.86 0 0 0-.86.86c0 .468.391.859.86.859h1.728a.86.86 0 0 0 .86-.86c0-.468-.39-.86-.86-.86ZM37.07 2.588H12.93a.86.86 0 0 0-.86.86c0 .468.39.859.86.859h24.14a.86.86 0 0 0 .86-.86.86.86 0 0 0-.86-.86ZM9.482 12.93a3.447 3.447 0 0 0-3.447 3.447c0 .478.39.859.86.859.468 0 .859-.39.859-.86 0-.956.771-1.728 1.728-1.728.958 0 1.729.772 1.729 1.729 0 .957-.771 1.728-1.729 1.728a.834.834 0 0 0-.605.254.85.85 0 0 0-.254.605v.86c0 .478.39.86.86.86.468 0 .859-.391.859-.86v-.108a3.449 3.449 0 0 0 2.558-3.77 3.44 3.44 0 0 0-3.418-3.017ZM10.098 22.666a.874.874 0 0 0-1.221 0 1.09 1.09 0 0 0-.186.283.75.75 0 0 0-.068.332.86.86 0 0 0 .38.723.886.886 0 0 0 1.095-.108.856.856 0 0 0 .185-.937.885.885 0 0 0-.185-.293ZM46.553 11.21V25.87a.86.86 0 0 1-.86.86H15.518V10.34h30.175c.47 0 .86.391.86.87Z" fill="#fff"/><path d="M15.518 30.176v16.377H4.307a.86.86 0 0 1-.86-.86V31.035c0-.478.39-.86.86-.86h11.21Z" fill="#FAAB63"/><path d="M46.553 31.035v14.658a.86.86 0 0 1-.86.86H15.518V30.176h30.175c.47 0 .86.38.86.86Z" fill="#fff"/><path d="M18.963 15.518h2.588a.86.86 0 0 0 .86-.86c0-.468-.392-.859-.86-.859h-2.588a.86.86 0 0 0-.86.86c0 .468.381.859.86.859ZM18.963 19.825h12.07a.86.86 0 0 0 .86-.86c0-.468-.391-.859-.86-.859h-12.07a.86.86 0 0 0-.86.86c0 .468.381.859.86.859ZM34.482 19.825h4.307a.86.86 0 0 0 .86-.86c0-.468-.391-.859-.86-.859h-4.307a.86.86 0 0 0-.859.86c0 .468.38.859.86.859ZM42.246 19.825h.86a.86.86 0 0 0 .859-.86c0-.468-.39-.859-.86-.859h-.859a.86.86 0 0 0-.86.86c0 .468.382.859.86.859ZM26.729 21.553h-7.754a.86.86 0 0 0-.86.859c0 .469.39.86.86.86h7.753a.86.86 0 0 0 .86-.86c0-.469-.39-.86-.86-.86ZM36.21 21.553h-6.034a.86.86 0 0 0-.86.859c0 .469.391.86.86.86h6.035a.86.86 0 0 0 .86-.86c0-.469-.391-.86-.86-.86ZM43.105 21.553h-3.447a.86.86 0 0 0-.86.859c0 .469.392.86.86.86h3.447a.86.86 0 0 0 0-1.72Z" fill="#61BDF6"/><path d="M9.482 32.755c-.8 0-1.494.546-1.68 1.328L6.044 42.93a.873.873 0 0 0 .674 1.016.87.87 0 0 0 1.016-.674l.537-2.754h2.402l.547 2.754c.078.4.43.693.84.693a.885.885 0 0 0 .713-.38.833.833 0 0 0 .127-.645l-1.768-8.906a1.684 1.684 0 0 0-1.65-1.28Zm-.87 6.035.85-4.366.87 4.366h-1.72Z" fill="#fff"/><path d="M18.963 35.342h2.588a.86.86 0 0 0 .86-.86c0-.468-.392-.859-.86-.859h-2.588a.86.86 0 0 0-.86.86c0 .468.381.859.86.859ZM18.963 39.658h6.894a.86.86 0 0 0 0-1.719h-6.894a.86.86 0 0 0-.86.86c0 .469.381.86.86.86ZM37.068 38.79a.834.834 0 0 0-.253-.606.85.85 0 0 0-.606-.254h-6.895a.86.86 0 0 0-.859.86c0 .478.39.859.86.859h6.894c.225 0 .45-.088.605-.254a.818.818 0 0 0 .254-.605ZM39.658 39.658h3.447a.86.86 0 0 0 0-1.718h-3.447a.86.86 0 0 0-.86.859c0 .469.382.86.86.86ZM28.445 41.377h-9.482a.86.86 0 0 0-.86.86c0 .468.391.859.86.859h9.482a.86.86 0 0 0 .86-.86.86.86 0 0 0-.86-.86ZM32.754 41.377h-.86a.86.86 0 0 0-.859.86c0 .468.39.859.86.859h.859a.86.86 0 0 0 .86-.86.86.86 0 0 0-.86-.86ZM43.71 41.63a.88.88 0 0 0-1.21 0 1.092 1.092 0 0 0-.186.284.845.845 0 0 0 0 .654.793.793 0 0 0 .185.283.86.86 0 0 0 1.212 0 .804.804 0 0 0 .253-.615.85.85 0 0 0-.254-.605ZM39.658 41.377h-3.447a.86.86 0 0 0-.86.86c0 .468.391.859.86.859h3.447a.86.86 0 0 0 .86-.86c0-.468-.391-.86-.86-.86Z" fill="#61BDF6"/></g><defs><clipPath id="a"><path fill="#fff" d="M0 0h50v50H0z"/></clipPath></defs></svg>