<svg fill="none" xmlns="http://www.w3.org/2000/svg" viewBox="0 0 50 50"><path d="M16.795 15.918c-.306 0-.614-.096-.877-.294l-7.032-5.273a1.465 1.465 0 0 1 1.757-2.343l7.032 5.273c.648.485.78 1.404.293 2.05a1.458 1.458 0 0 1-1.173.587ZM40.233 15.918c-.307 0-.614-.096-.877-.294l-7.033-5.273a1.465 1.465 0 0 1 1.757-2.343l7.032 5.273c.648.485.78 1.404.294 2.05a1.458 1.458 0 0 1-1.173.587ZM29.393 10.352 25 13.662l-2.637 1.963a1.44 1.44 0 0 1-.879.293c-.44 0-.878-.205-1.172-.586-.498-.644-.351-1.553.294-2.05L24.998 10l2.637-1.992c.644-.498 1.552-.352 2.05.293.499.644.352 1.553-.293 2.05Z" fill="#5A5D9D"/><path d="M29.395 10.352 25 13.662V10l2.637-1.992c.644-.498 1.552-.352 2.05.293.499.644.352 1.553-.293 2.05Z" fill="#5A5D9D"/><path d="M11.816 22.07v23.438H3.027V22.07c0-.82.645-1.465 1.465-1.465h5.86c.82 0 1.464.645 1.464 1.465Z" fill="#61BDF6"/><path d="M23.535 30.86v14.648h-8.789V30.859c0-.82.644-1.465 1.465-1.465h5.86c.82 0 1.464.645 1.464 1.465Z" fill="#6ACA8B"/><path d="M46.973 30.86v14.648h-8.79V30.859c0-.82.645-1.465 1.465-1.465h5.86c.82 0 1.465.645 1.465 1.465Z" fill="#E1697F"/><path d="M35.254 22.07v23.438h-8.79V22.07c0-.82.645-1.465 1.466-1.465h5.86c.82 0 1.464.645 1.464 1.465Z" fill="#FAAB63"/><path d="M7.422 3.027a4.388 4.388 0 0 0-4.395 4.395 4.389 4.389 0 0 0 4.395 4.394 4.389 4.389 0 0 0 4.394-4.394 4.388 4.388 0 0 0-4.394-4.395Z" fill="#61BDF6"/><path d="M19.14 11.816a4.388 4.388 0 0 0-4.394 4.395 4.389 4.389 0 0 0 4.395 4.395 4.389 4.389 0 0 0 4.394-4.395 4.388 4.388 0 0 0-4.394-4.395Z" fill="#6ACA8B"/><path d="M42.578 11.816a4.388 4.388 0 0 0-4.394 4.395 4.389 4.389 0 0 0 4.394 4.395 4.389 4.389 0 0 0 4.395-4.395 4.388 4.388 0 0 0-4.395-4.395Z" fill="#E1697F"/><path d="M30.86 3.027a4.388 4.388 0 0 0-4.395 4.395 4.389 4.389 0 0 0 4.394 4.394 4.389 4.389 0 0 0 4.395-4.394 4.388 4.388 0 0 0-4.395-4.395Z" fill="#FAAB63"/><path d="M7.422 11.816V3.027a4.388 4.388 0 0 1 4.394 4.395 4.389 4.389 0 0 1-4.394 4.394ZM11.816 22.07v23.438H7.422V20.605h2.93c.82 0 1.464.645 1.464 1.465Z" fill="#61BDF6"/><path d="M19.14 20.605v-8.789a4.388 4.388 0 0 1 4.395 4.395 4.389 4.389 0 0 1-4.394 4.395ZM23.535 30.86v14.648h-4.394V29.394h2.93c.82 0 1.464.645 1.464 1.465Z" fill="#6ACA8B"/><path d="M30.86 11.816V3.027a4.388 4.388 0 0 1 4.394 4.395 4.389 4.389 0 0 1-4.395 4.394ZM35.254 22.07v23.438h-4.395V20.605h2.93c.82 0 1.465.645 1.465 1.465Z" fill="#FAAB63"/><path d="M42.578 20.605v-8.789a4.388 4.388 0 0 1 4.395 4.395 4.389 4.389 0 0 1-4.395 4.395ZM46.973 30.86v14.648h-4.395V29.394h2.93c.82 0 1.465.645 1.465 1.465Z" fill="#E1697F"/><path d="M50 45.508a1.45 1.45 0 0 1-1.465 1.465H1.465A1.45 1.45 0 0 1 0 45.508c0-.82.644-1.465 1.465-1.465h47.07c.82 0 1.465.644 1.465 1.465Z" fill="#5A5D9D"/><path d="M50 45.508a1.45 1.45 0 0 1-1.465 1.465H25v-2.93h23.535c.82 0 1.465.644 1.465 1.465Z" fill="#5A5D9D"/></svg>