<svg fill="none" xmlns="http://www.w3.org/2000/svg" viewBox="0 0 50 50"><path d="M50 22.07c0 6.475-5.342 11.72-11.816 11.72H11.816C5.342 33.79 0 28.544 0 22.07c0-5.596 4.111-10.468 9.531-11.553a5.87 5.87 0 0 1 5.215-3.193c2.49-3.31 6.182-5.39 10.254-5.771.498-.059.967-.088 1.465-.088 5.86 0 11.162 3.574 13.447 8.965C45.596 11.28 50 16.27 50 22.07Z" fill="#E0F4FF"/><path d="M50 22.07c0 6.475-5.342 11.72-11.816 11.72H25V1.552c.498-.059.967-.088 1.465-.088 5.86 0 11.162 3.574 13.447 8.965C45.596 11.28 50 16.27 50 22.07Z" fill="#E0F4FF"/><path d="M35.254 32.324v4.395l-2.93 2.93H17.676l-2.93-2.93v-4.395c0-.82.644-1.465 1.465-1.465h17.578c.82 0 1.465.645 1.465 1.465Z" fill="#5A5D9D"/><path d="M35.254 32.324v4.395l-2.93 2.93H25v-8.79h8.79c.82 0 1.464.645 1.464 1.465Z" fill="#5A5D9D"/><path d="M35.254 36.719v5.86l-2.93 2.929H17.676l-2.93-2.93v-5.86h20.508Z" fill="#5A5D9D"/><path d="M25 36.719h10.254v5.86l-2.93 2.929H25v-8.79Z" fill="#888BBD"/><path d="M35.254 42.578v4.395a1.45 1.45 0 0 1-1.465 1.465H16.211a1.45 1.45 0 0 1-1.465-1.465v-4.395h20.508Z" fill="#5A5D9D"/><path d="M25 42.578h10.254v4.395a1.45 1.45 0 0 1-1.465 1.465H25v-5.86Z" fill="#5A5D9D"/></svg>