<svg fill="none" xmlns="http://www.w3.org/2000/svg" viewBox="0 0 50 50"><path d="m43.399 39.54-3.75 6.065H10.352l-3.75-6.064L21.719 9.238h6.563l15.117 30.303Z" fill="#5A5D9D"/><path d="m43.399 39.54-3.75 6.065H25V9.238h3.281L43.4 39.541Z" fill="#5A5D9D"/><path d="M26.465 10.352V25A1.45 1.45 0 0 1 25 26.465 1.45 1.45 0 0 1 23.535 25V10.352c0-.821.645-1.465 1.465-1.465.82 0 1.465.644 1.465 1.465ZM9.44 42.926a1.465 1.465 0 0 1-.894-2.626l12.077-9.387a1.465 1.465 0 0 1 1.786 2.323l-12.077 9.387a1.453 1.453 0 0 1-.891.303ZM21.515 28.18c-.313 0-.626-.099-.892-.303l-12.076-9.29a1.465 1.465 0 0 1 1.785-2.323l12.077 9.29a1.466 1.466 0 0 1-.894 2.626ZM9.95 14.368a1.464 1.464 0 0 1-.616-2.795L20.395 6.47a1.464 1.464 0 1 1 1.227 2.66l-11.06 5.105a1.466 1.466 0 0 1-.613.134ZM40.05 14.369a1.46 1.46 0 0 1-.612-.135L28.378 9.13a1.464 1.464 0 1 1 1.227-2.66l11.06 5.104a1.464 1.464 0 0 1-.615 2.795Z" fill="#E0F4FF"/><path d="M26.465 10.352V25A1.45 1.45 0 0 1 25 26.465V8.887c.82 0 1.465.644 1.465 1.465Z" fill="#E0F4FF"/><path d="M44.043 50a5.865 5.865 0 0 1-5.86-5.86 5.865 5.865 0 0 1 5.86-5.859c3.231 0 5.957 2.628 5.957 5.86C50 47.372 47.274 50 44.043 50ZM5.957 50C2.726 50 0 47.372 0 44.14c0-3.23 2.726-5.859 5.957-5.859a5.865 5.865 0 0 1 5.86 5.86A5.865 5.865 0 0 1 5.956 50Z" fill="#FAAB63"/><path d="M25 23.535c-3.223 0-5.86 2.637-5.86 5.86 0 3.222 2.637 5.859 5.86 5.859 3.223 0 5.86-2.637 5.86-5.86 0-3.222-2.637-5.859-5.86-5.859ZM44.043 20.605a5.865 5.865 0 0 1-5.86-5.859 5.865 5.865 0 0 1 5.86-5.86c3.231 0 5.957 2.629 5.957 5.86 0 3.231-2.726 5.86-5.957 5.86ZM5.957 20.605C2.726 20.605 0 17.977 0 14.746s2.726-5.86 5.957-5.86a5.865 5.865 0 0 1 5.86 5.86 5.865 5.865 0 0 1-5.86 5.86Z" fill="#61BDF6"/><path d="M30.86 29.395c0 3.222-2.637 5.859-5.86 5.859V23.535c3.223 0 5.86 2.637 5.86 5.86Z" fill="#61BDF6"/><path d="M25 0c-3.223 0-5.86 2.734-5.86 5.957s2.637 5.86 5.86 5.86c3.223 0 5.86-2.637 5.86-5.86C30.86 2.734 28.222 0 25 0Z" fill="#FAAB63"/><path d="M25 11.816V0c3.223 0 5.86 2.734 5.86 5.957s-2.637 5.86-5.86 5.86Z" fill="#FAAB63"/></svg>