<svg xmlns="http://www.w3.org/2000/svg" viewBox="0 0 512 512"><path d="M512 116.01v342.2c0 29.66-24.13 53.79-53.79 53.79H53.79C24.13 512 0 487.87 0 458.21v-342.2l39.25-23.37h444.02z" fill="#574d8c"/><path d="M512 116.01v342.2c0 29.66-24.13 53.79-53.79 53.79H256V92.64h227.27z" fill="#3e3373"/><path d="M278.224 26.534 256 0H53.79C24.13 0 0 24.13 0 53.79v62.22h256l22.224-25.755z" fill="#a9f"/><path d="M512 53.79v62.22H256V0h202.21C487.87 0 512 24.13 512 53.79z" fill="#96f"/><circle cx="447" cy="58.005" fill="#ff4d88" r="15"/><circle cx="387" cy="58.005" fill="#ffd480" r="15"/><path d="M77.492 259.381a14.94 14.94 0 0 1-9.603-3.483c-6.36-5.308-7.214-14.767-1.907-21.127l28.183-33.774-27.99-32.228c-5.432-6.255-4.766-15.729 1.489-21.161 6.254-5.433 15.729-4.765 21.161 1.489l36.363 41.869a15.001 15.001 0 0 1 .192 19.446l-36.363 43.579a14.976 14.976 0 0 1-11.525 5.39zM256 229.38H153.86c-8.28 0-15 6.72-15 15s6.72 15 15 15H256l24.121-16.696z" fill="#9df"/><path d="M424.525 313.007c-8.284 0-15 6.716-15 15v40.042H360.64v-40.042c0-8.284-6.716-15-15-15s-15 6.716-15 15V442c0 8.284 6.716 15 15 15s15-6.716 15-15v-43.951h48.885V442c0 8.284 6.716 15 15 15s15-6.716 15-15V328.007c0-8.284-6.715-15-15-15z" fill="#ccd6e7"/><g fill="#e4ebf2"><path d="M142.289 371.829c-13.873-5.117-26.799-10.688-30.901-12.482-2.727-2.255-2.632-5.362-2.444-6.666.269-1.869 1.638-6.441 8.54-8.521 11.531-3.474 22.486 1.843 27.628 5.022 1.362.842 2.605 1.846 3.847 2.857 4.272 3.476 15.301 5.935 21.628-4.673 6.824-11.441-3.202-19.123-3.202-19.123-1.088-.915-27.027-22.305-58.554-12.808-16.021 4.826-27.355 17.464-29.583 32.983-2.093 14.579 4.228 28.604 16.494 36.602 3.175 2.069 26.08 11.236 36.164 14.955 3.762 1.387 15.92 6.546 14.467 14.683-1.083 6.067-8.552 12.342-19.174 12.342-11.122 0-21.817-4.475-28.609-11.97-5.563-6.138-15.049-6.606-21.188-1.042-6.139 5.563-6.605 15.049-1.043 21.188 12.569 13.87 31.1 21.825 50.84 21.825 24.388 0 44.871-15.59 48.707-37.069 2.891-16.194-4.422-37.334-33.617-48.103zM226.85 386.15c.6.27 13.55 6.04 29.15 11.98l6.906-13.127L256 365.89c-7.29-2.95-13.08-5.45-15.58-6.54-2.73-2.26-2.63-5.37-2.45-6.67.27-1.87 1.64-6.44 8.54-8.52 3.25-.98 6.45-1.26 9.49-1.08l11.034-16.079L256 313.04c-5.72-.17-11.82.49-18.14 2.4-16.02 4.82-27.35 17.46-29.58 32.98-2.8 19.5 9.8 33.82 18.57 37.73zM267.034 443.783 256 427c-11.04-.06-21.64-4.52-28.38-11.97-5.56-6.14-15.05-6.61-21.19-1.04-6.14 5.56-6.6 15.05-1.04 21.19 12.52 13.81 30.96 21.76 50.61 21.82z"/></g><path d="M449.5 244.38c0 8.28-6.72 15-15 15H256v-30h178.5c8.28 0 15 6.72 15 15z" fill="#80bfff"/><path d="M274.013 349.096c-3.719-2.28-10.345-5.586-18.013-6.016v-30.04c22.8.65 39.55 14.47 40.41 15.2 0 0 10.03 7.69 3.21 19.13-6.333 10.604-17.356 8.146-21.629 4.666-1.283-1.045-2.568-2.076-3.978-2.94zM304.94 419.93C301.1 441.41 280.62 457 256.23 457H256v-30h.23c10.62 0 18.09-6.28 19.17-12.34 1.46-8.14-10.7-13.3-14.46-14.68-1.67-.61-3.32-1.23-4.94-1.85v-32.24c4.65 1.88 9.91 3.94 15.32 5.94 29.19 10.77 36.51 31.91 33.62 48.1z" fill="#ccd6e7"/></svg>