<svg fill="none" xmlns="http://www.w3.org/2000/svg" viewBox="0 0 50 50"><path d="M0 6.897h50v25.862H0V6.897Z" fill="#E0F4FF"/><path d="M50 6.897v25.862H0c22.63-2.856 39.817-10.96 50-25.862Z" fill="#E0F4FF"/><path d="M34.483 46.552a1.73 1.73 0 0 1 1.724 1.724A1.743 1.743 0 0 1 34.483 50H15.517a1.73 1.73 0 0 1-1.724-1.724 1.743 1.743 0 0 1 1.724-1.724h18.966Z" fill="#9ABADB"/><path d="M31.897 46.552H18.104l.862-6.897h12.069l.862 6.897Z" fill="#BBDCFF"/><path d="M50 32.759v3.448a3.458 3.458 0 0 1-3.448 3.448H3.448A3.458 3.458 0 0 1 0 36.207v-3.448h50ZM50 3.448v3.449H0V3.448A3.458 3.458 0 0 1 3.448 0h43.104A3.445 3.445 0 0 1 50 3.448Z" fill="#61BDF6"/><path d="M31.25 41.38h-12.5l.215-1.725h12.07l.215 1.724Z" fill="#9ABADB"/><path d="M29.311 29.31H17.242v-2.564a3.453 3.453 0 0 1 2.5-3.32l2.285-.656L25 25l2.974-2.23 2.284.657a3.453 3.453 0 0 1 2.5 3.319v2.565h-3.448Z" fill="#61BDF6"/><path d="M25 10.345a4.31 4.31 0 0 1 4.31 4.31v.862h-.657c-.065 0-.14 0-.205-.021a1.7 1.7 0 0 1-1.336-.938l-.388-.765-1.282.851a5.154 5.154 0 0 1-2.867.873H20.69v-.862a4.31 4.31 0 0 1 4.31-4.31Z" fill="#5A5D9D"/><path d="M27.974 22.77 25 25l-2.975-2.23 1.25-.356v-2.188a3.405 3.405 0 0 0 3.449 0v2.188l1.25.355Z" fill="#FFB655"/><path d="M28.447 15.517v1.724c0 .916-.366 1.79-1.013 2.436a3.864 3.864 0 0 1-.71.538 3.448 3.448 0 0 1-5.172-2.985v-1.723h1.012a5.103 5.103 0 0 0 2.866-.873l1.293-.84.388.764c.259.517.754.873 1.336.938v.021Z" fill="#FFC477"/><path d="M39.656 13.793h-1.724v-2.586h-2.586V9.483h3.448c.474 0 .862.388.862.862v3.448ZM12.07 13.793h-1.724v-3.448c0-.474.388-.862.862-.862h3.448v1.724H12.07v2.586ZM38.794 30.172h-3.448v-1.724h2.586v-2.586h1.724v3.448a.865.865 0 0 1-.862.863ZM14.656 30.172h-3.448a.865.865 0 0 1-.862-.862v-3.448h1.724v2.586h2.586v1.724Z" fill="#5A5D9D"/><path d="M19.828 26.724h1.724v2.586h-1.724v-2.586ZM28.45 26.724h1.723v2.586H28.45v-2.586Z" fill="#56AFE7"/><path d="M43.965 35.345h1.724v1.724h-1.724v-1.724ZM4.31 2.586h1.725V4.31H4.31V2.586ZM7.758 2.586h1.724V4.31H7.758V2.586ZM11.207 2.586h1.724V4.31h-1.724V2.586Z" fill="#fff"/></svg>