<svg fill="none" xmlns="http://www.w3.org/2000/svg" viewBox="0 0 50 50"><g clip-path="url(#a)"><path d="M49.97 47.919c0 .627-.21 1.145-.628 1.563-.418.309-.836.518-1.454.518H2.111c-.518 0-1.036-.21-1.454-.518-.419-.418-.628-.936-.628-1.563V17.427h49.95l-.01 30.492Z" fill="#FAAB63"/><path d="M49.344 49.472c-.419.31-.837.518-1.454.518H2.112c-.518 0-1.036-.209-1.454-.518L25.006 28.56l24.338 20.912Z" fill="#FFB876"/><path d="m49.97 17.427-7.08 5.099-16.541 11.86a2.33 2.33 0 0 1-2.808 0L7.1 22.526.03 17.427l7.08-5.098L22.505 1.305 23.65.468a2.33 2.33 0 0 1 2.808 0l1.146.837 7.389 5.308 3.644 2.599 4.262 3.117 7.07 5.098Z" fill="#61BDF6"/><path d="M42.9 7.748v14.778l-16.551 11.86a2.33 2.33 0 0 1-2.808 0L7.1 22.526V3.386c0-1.145.936-2.081 2.08-2.081h27.157l6.562 6.443Z" fill="#E0F4FF"/><path d="M36.447 6.085c0 .936.727 1.663 1.663 1.663h4.79l-6.453-6.443v4.78ZM32.451 17.382c-.468-.339-1.006-.458-1.544-.309-.577.15-1.075.588-1.334 1.175-.398.906-.219 1.743-.05 2.49.05.239.1.458.13.687.11.747 0 1.494-.27 1.882-.029.05-.069.09-.109.14l-.03.328a5.16 5.16 0 0 1-.169 1.085c-.01.05-.03.1-.05.15.528-.19.986-.538 1.325-1.036.657-.956.528-2.32.468-2.718a8.088 8.088 0 0 0-.15-.767c-.139-.648-.268-1.205-.02-1.763.11-.249.33-.448.558-.508.18-.05.419-.06.538.12.13.179.01.468.01.468-.289.687.697 1.205 1.075.567 0-.01.01-.01.01-.02.339-.587.28-1.473-.388-1.971Z" fill="#fff"/><path d="M32.451 17.93c-.468-.34-1.006-.459-1.544-.31-.577.15-1.075.588-1.334 1.176-.398.906-.219 1.742-.05 2.49.05.238.1.457.13.686.11.747 0 1.494-.27 1.883-.029.05-.069.09-.109.139l-.03.329c-.02.388-.08.756-.169 1.085-.01.05-.03.1-.05.15.528-.19.986-.538 1.325-1.036.657-.956.528-2.32.468-2.719a8.088 8.088 0 0 0-.15-.767c-.139-.647-.268-1.205-.02-1.762.11-.25.33-.448.558-.508.18-.05.419-.06.538.12.13.179.01.467.01.467-.289.688.697 1.205 1.075.568 0-.01.01-.01.01-.02.339-.587.28-1.474-.388-1.972Z" fill="#61BDF6"/><path d="M28.588 25.946c.199-.319.368-.687.488-1.095.1-.329.15-.697.17-1.086.109-.816-.01-1.693-.28-2.559a4.802 4.802 0 0 0-.229-.647c-.498-1.225-1.264-2.37-2.061-3.177a6.288 6.288 0 0 1-.677-.846c-.707.159-1.464.239-2.26.239-.967 0-1.883-.12-2.72-.349-.258.369-.507.707-.756.966-1.683 1.693-3.266 4.94-2.35 7.26.02.07.338.976.547 1.304-.488.11-1.055.428-1.025 1.354h12.189c.02-.936-.548-1.254-1.036-1.364Z" fill="#61BDF6"/><path d="M29.803 27.42c0-.797-.587-1.434-1.314-1.434-.359 0-.678.16-.916.408-.09.11-.16.239-.22.408v-.06c0-.796-.667-1.443-1.493-1.443-.697 0-1.275.458-1.444 1.075-.03-.577-.04-1.464.01-2.828-.23-.239-.488-.378-.777-.378-.17 0-.498.12-.657.209-.03.866-.04 1.892-.06 2.788-.249-.508-.807-.866-1.464-.866-.846 0-1.533.597-1.593 1.344-.24-.388-.637-.647-1.105-.647-.359 0-.678.159-.917.408-.179.229-.308.558-.289 1.036h6.951c.01-.01.01-.03 0-.07.01.02.02.05.04.07h2.63c.039-.08.079-.16.109-.25-.01.08-.01.16-.01.25l2.52-.02Z" fill="#FFEDF0"/><path d="M23.737 16.785c-1.025 0-2.001-.13-2.878-.398.28.717 1.424 1.254 2.789 1.254 1.324 0 2.44-.507 2.758-1.205a9.937 9.937 0 0 1-2.669.349Z" fill="#E1697F"/><path d="M30.17 9.734c-.368-.896-.886-1.882-1.603-3.286-.25-.488-.976-.259-1.056.2l-.318 1.812c-1.016-.05-2.191.01-3.456.01-1.264 0-2.44-.06-3.455-.01l-.309-1.813c-.08-.458-.807-.687-1.056-.199-.717 1.394-1.224 2.38-1.603 3.266-.249.429-.388.996-.388 1.743 0 3.535 3.047 5.318 6.811 5.318s6.812-1.773 6.812-5.318c0-.737-.14-1.295-.379-1.723Z" fill="#61BDF6"/><path d="M19.277 15.68c1.195.736 2.759 1.095 4.472 1.095 1.653 0 3.156-.34 4.341-1.026-.209-2.181-2.1-3.884-4.411-3.884-2.28.01-4.153 1.673-4.402 3.814ZM23.54 19.155a1.026 1.026 0 1 0 0-2.052 1.026 1.026 0 0 0 0 2.052Z" fill="#FFEDF0"/><path d="M32.56 17.243c-.507-.379-1.115-.498-1.693-.339-.627.17-1.175.648-1.453 1.275-.429.966-.24 1.832-.07 2.599.05.229.1.448.13.667.06.428.05.857-.03 1.205a6.467 6.467 0 0 0-.31-1.484 4.766 4.766 0 0 0-.238-.677c-.488-1.195-1.245-2.37-2.101-3.216a4.174 4.174 0 0 1-.399-.468c.05-.07.1-.13.13-.2.408-.119.787-.248 1.145-.418.09-.04.13-.15.09-.239a.183.183 0 0 0-.24-.09c-.388.18-.806.33-1.254.449-.03.01-.05.01-.08.02-.1.03-.209.05-.319.07l-.318.06-.19.029c-.109.02-.218.03-.338.04-.06.01-.13.02-.19.02l-.368.03c-.05 0-.1.01-.149.01h-.05c-.169.01-.348.01-.527.01-.12 0-.25 0-.369-.01-.04 0-.09 0-.13-.01-.08 0-.159-.01-.229-.01-.05 0-.099-.01-.149-.01-.07-.01-.13-.01-.199-.02-.05-.01-.11-.01-.16-.02-.06-.01-.129-.01-.188-.02a.877.877 0 0 0-.16-.02l-.18-.03c-.049-.01-.099-.02-.158-.03-.06-.01-.12-.02-.18-.04l-.15-.03c-.059-.01-.119-.03-.178-.04a.73.73 0 0 1-.14-.04c-.08-.019-.159-.039-.239-.069-1.812-.557-3.077-1.673-3.575-3.196h.329c.1 0 .18-.08.18-.18 0-.1-.08-.179-.18-.179h-.428a5.344 5.344 0 0 1-.11-.697h.548c.1 0 .18-.08.18-.18 0-.099-.08-.179-.18-.179h-.568v-.119c0-.21.01-.398.03-.578h.538c.1 0 .18-.08.18-.179 0-.1-.08-.179-.18-.179h-.478c.06-.269.15-.508.269-.707 0-.01.01-.01.01-.02.358-.866.856-1.822 1.543-3.157l.05-.1c.09-.179.259-.179.358-.169.16.02.33.14.359.31l.309 1.812c.02.09.1.159.189.149.338-.02.687-.02 1.066-.02.119.956.378 1.613.677 1.613.298 0 .557-.657.677-1.603h.348c.03 1.424.349 2.55.747 2.55.389 0 .717-1.126.747-2.55h.349c.12.946.378 1.603.677 1.603.299 0 .557-.667.677-1.613.319 0 .627.01.926.02.09.01.17-.06.19-.15l.308-1.812c.03-.17.209-.289.358-.309.09-.01.26-.01.359.17l.05.11c.687 1.334 1.185 2.3 1.543 3.166 0 .01.01.01.01.02.12.199.21.438.269.697h-.468c-.1 0-.18.08-.18.18 0 .099.08.178.18.178h.538c.02.18.03.369.03.578v.12h-.558c-.1 0-.18.08-.18.179 0 .1.08.179.18.179h.548c-.02.239-.06.468-.11.697h-.438c-.1 0-.18.08-.18.18 0 .099.08.179.18.179h.338a4.272 4.272 0 0 1-.866 1.553c-.07.08-.06.19.02.259.08.07.19.06.259-.02a4.777 4.777 0 0 0 .976-1.792h.777c.1 0 .179-.08.179-.18 0-.1-.08-.179-.18-.179h-.686c.05-.229.09-.458.109-.697h.588c.1 0 .179-.08.179-.18 0-.099-.08-.178-.18-.178h-.567v-.12c0-.2-.01-.398-.03-.578h.598c.1 0 .179-.08.179-.179 0-.1-.08-.18-.18-.18h-.657a2.794 2.794 0 0 0-.318-.865c-.369-.877-.867-1.843-1.554-3.187l-.05-.11a.682.682 0 0 0-.736-.358c-.34.05-.618.309-.668.607l-.279 1.653c-.607-.02-1.274-.01-1.981 0-.857.02-1.783.02-2.64 0-.706-.01-1.373-.02-1.98 0l-.32-1.663c-.05-.308-.328-.557-.667-.607a.688.688 0 0 0-.736.358l-.05.1c-.688 1.334-1.185 2.3-1.554 3.177-.15.259-.259.547-.319.886h-.647c-.1 0-.179.08-.179.18 0 .099.08.178.18.178h.597c-.02.18-.03.369-.03.578v.12h-.568c-.1 0-.179.08-.179.179 0 .1.08.179.18.179h.587c.02.239.05.468.1.697h-.688c-.1 0-.179.08-.179.18 0 .099.08.179.18.179h.786c.498 1.673 1.832 2.907 3.764 3.525a5.818 5.818 0 0 1-.597.727c-1.584 1.593-3.376 4.959-2.39 7.448.04.12.259.737.448 1.126-.637.219-.966.737-.946 1.464 0 .1.08.179.179.179h12.189c.1 0 .18-.08.18-.18.019-.726-.31-1.244-.937-1.463.12-.22.229-.458.309-.697a2.93 2.93 0 0 0 1.324-1.066c.697-1.006.558-2.44.498-2.848-.04-.279-.1-.548-.15-.787-.139-.637-.248-1.145-.03-1.643.09-.199.26-.358.439-.408.1-.03.269-.05.349.05.05.08.02.229-.01.299-.19.448.05.856.388 1.015.309.16.757.13 1.006-.289l.01-.02c.378-.637.318-1.642-.429-2.19Zm-9.022.597c-.1 0-.179.08-.179.18v.926a.833.833 0 0 1-.657-.817c0-.458.378-.836.836-.836.458 0 .837.378.837.836a.833.833 0 0 1-.657.817v-.927c0-.1-.08-.179-.18-.179Zm-.508-.896H23.14c.05 0 .09 0 .14.01-.26.06-.489.2-.658.388-.567-.13-1.045-.358-1.334-.657.538.13 1.125.22 1.742.259Zm.787.02c.16 0 .319 0 .478-.01h.01c.09 0 .18-.01.269-.02.09-.01.18-.01.259-.02h.02c.1-.01.199-.02.299-.04l.209-.03h.02c.1-.01.189-.03.278-.05.07-.01.14-.02.21-.04.01 0 .02 0 .03-.01 0 .01.01.01.01.02-.33.29-.847.509-1.454.618a1.025 1.025 0 0 0-.638-.418Zm5.617 10.157h-1.912c.06-.249.04-.647 0-1.215-.07-1.045-.16-2.49.239-3.943.03-.1-.03-.2-.13-.23-.1-.029-.199.03-.229.13-.418 1.524-.319 3.048-.249 4.063.03.498.07 1.056-.01 1.175h-.986v-.667c0-.1-.08-.18-.179-.18-.1 0-.18.08-.18.18v.667h-.378v-.667c0-.1-.08-.18-.179-.18-.1 0-.18.08-.18.18v.667h-.238a.336.336 0 0 1-.339-.338V22.55c0-.1-.08-.179-.179-.179-.1 0-.18.08-.18.18v4.212c0 .13.04.259.1.358h-1.364c.06-.11.1-.229.1-.358V22.55c0-.1-.08-.179-.18-.179-.1 0-.179.08-.179.18v4.212c0 .189-.15.338-.338.338h-.24v-.667c0-.1-.079-.18-.179-.18-.1 0-.179.08-.179.18v.667h-.378v-.667c0-.1-.08-.18-.18-.18-.099 0-.179.08-.179.18v.667h-.986c-.08-.12-.04-.677-.01-1.175.07-1.015.17-2.549-.248-4.063a.184.184 0 0 0-.23-.13c-.1.03-.159.13-.129.23.398 1.464.309 2.898.239 3.943-.04.578-.06.966 0 1.215h-1.912c.04-.537.329-.866.886-.986 0 0 .309-.06.508.12.04.03.08.05.13.05s.1-.02.13-.06c.069-.07.069-.19-.01-.259-.23-.219-.529-.239-.698-.229a9.582 9.582 0 0 1-.468-1.155c0-.01 0-.02-.01-.02-.926-2.34.787-5.537 2.31-7.06.17-.17.349-.389.558-.668.319.369.837.658 1.474.817a1.203 1.203 0 0 0 1.115 1.663 1.203 1.203 0 0 0 1.135-1.613c.598-.13 1.116-.359 1.484-.667.14.179.269.338.399.458.816.826 1.553 1.961 2.021 3.117 0 .01.01.01.01.02.08.159.15.368.219.607.249.777.349 1.504.299 2.18 0 .02 0 .05-.01.07-.01.08-.01.16-.03.24-.02.398-.08.746-.16 1.045 0 .01-.01.02-.01.03-.01.03-.02.06-.03.08l-.01.03c-.099.288-.218.557-.368.816-.13-.02-.508-.05-.796.22-.07.069-.08.188-.01.258.04.04.08.06.13.06.04 0 .089-.02.129-.05.199-.18.498-.12.508-.12.03.01.06 0 .09-.01 0 0 .01 0 .01.01.507.14.806.469.846 1.006Zm3.246-7.847c-.14.24-.368.23-.528.15-.18-.09-.319-.3-.219-.548.02-.04.15-.388-.03-.647-.15-.21-.408-.28-.737-.19-.288.08-.547.31-.677.608-.269.607-.14 1.225.01 1.872.05.239.11.488.15.757.05.378.179 1.693-.439 2.589a2.508 2.508 0 0 1-.896.817v-.01c0-.02.01-.04.01-.06.01-.06.03-.13.04-.19 0-.03.01-.06.01-.079.01-.06.02-.12.02-.19 0-.03.01-.049.01-.079.01-.09.02-.18.02-.269 0-.03.01-.07.01-.1.01-.06.01-.119.02-.179.03-.03.05-.07.08-.1.298-.437.417-1.204.298-2.01-.03-.23-.08-.459-.14-.698-.159-.717-.338-1.523.04-2.37.24-.528.687-.926 1.215-1.065.478-.13.966-.03 1.384.278.598.399.648 1.186.349 1.713Z" fill="#5A5D9D"/><path d="M21.387 11.357a.557.557 0 1 0-1.114-.001.557.557 0 0 0 1.114.001ZM27.293 11.357a.557.557 0 1 0-1.114-.001.557.557 0 0 0 1.114.001ZM22.514 14.694c.527 0 .986-.29 1.224-.717a1.4 1.4 0 0 0 1.225.717c.777 0 1.404-.628 1.404-1.405 0-.1-.08-.179-.179-.179-.1 0-.18.08-.18.18 0 .577-.467 1.045-1.045 1.045-.488 0-.886-.329-1.006-.777.459-.03.807-.139.807-.268 0-.15-.458-.27-1.026-.27-.567 0-1.025.12-1.025.27 0 .129.348.239.806.268-.12.449-.527.777-1.005.777a1.045 1.045 0 0 1-1.046-1.046c0-.1-.08-.179-.18-.179-.099 0-.178.08-.178.18a1.396 1.396 0 0 0 1.404 1.404ZM28.747 15.072c-.15.13-.309.239-.478.358-.08.06-.11.17-.05.25.04.05.09.08.15.08.03 0 .07-.01.099-.03.18-.12.349-.25.508-.38.08-.059.09-.178.02-.258a.185.185 0 0 0-.25-.02Z" fill="#5A5D9D"/></g><defs><clipPath id="a"><path fill="#fff" d="M0 0h50v50H0z"/></clipPath></defs></svg>