<svg xmlns="http://www.w3.org/2000/svg" viewBox="0 0 400 400"><g fill-rule="evenodd"><path d="M200.4 117.954v47.154l2.534-.204c1.676-.134 2.861-.027 3.5.317.531.287 1.506.534 2.166.55.66.016 1.164.227 1.12.47-.048.262.315.365.896.254.748-.143 1.064.034 1.355.759.208.52.39.721.404.446.03-.589 1.625-.687 1.625-.1 0 .22.36.4.8.4.44 0 .8.18.8.4 0 .22.36.4.8.4.44 0 .8.18.8.4 0 .22.236.4.525.4.288 0 .911.36 1.383.8.472.44 1.035.8 1.25.8 1.204 0 10.042 9.832 10.042 11.172 0 .235.18.428.4.428.22 0 .4.36.4.8 0 .44.18.8.4.8.22 0 .4.36.4.8 0 .44.18.8.4.8.579 0 .493 1.496-.1 1.735-.275.111-.081.216.432.233.814.028.9.177.679 1.181-.189.863-.085 1.214.417 1.406.497.191.61.557.438 1.416-.145.722-.035 1.323.292 1.594.388.322.523 1.978.523 6.435s-.135 6.113-.523 6.435c-.314.261-.437.871-.307 1.522.144.716.003 1.267-.413 1.611-.408.339-.546.859-.391 1.478.201.798.086.959-.704.986-.518.017-.718.122-.443.233.593.239.679 1.735.1 1.735-.22 0-.4.36-.4.8 0 .44-.18.8-.4.8-.22 0-.4.36-.4.8 0 .44-.18.8-.4.8-.22 0-.4.193-.4.428 0 1.176-7.971 10.372-8.991 10.372-.133 0-.629.36-1.101.8-.472.44-1.364 1.024-1.983 1.297-.619.274-1.125.634-1.125.801 0 .166-.36.302-.8.302-.44 0-.8.18-.8.4 0 .22-.36.4-.8.4-.44 0-.8.18-.8.4 0 .22-.45.4-1 .4s-1 .2-1 .443c0 .268-.378.349-.954.204-.604-.151-1.136-.02-1.449.357-.669.805-1.866.753-2.365-.104-.38-.652-.409-.653-.42-.014-.02 1.116-1.524 1.633-4.078 1.401l-2.334-.211V329.2h12.624c7.661 0 12.533-.146 12.394-.371-.292-.473 1.075-.922 1.874-.615.346.133.707-.035.844-.391.131-.343.491-.623.799-.623 1.501 0 5.239-4.849 5.551-7.2.073-.55.359-.953.636-.896.394.082.496-2.125.473-10.2l-.03-10.304 1.027.077c.564.042.921-.095.792-.303-.129-.209.092-.485.491-.613a15.596 15.596 0 0 0 1.587-.644c.982-.469 1.885-.096 1.48.611-.153.267-.114.329.089.144.197-.181.361-.631.364-1 .003-.37.275-.672.605-.672.33 0 1.563-.495 2.741-1.1 1.177-.605 2.392-1.1 2.7-1.1.307 0 .559-.146.559-.325 0-.179.63-.573 1.4-.875.77-.302 1.4-.696 1.4-.875 0-.179.36-.325.8-.325.44 0 .8-.203.8-.45 0-.293.448-.36 1.286-.193 1.134.227 1.201.195.566-.269-.657-.481-.552-.613 1.214-1.508 1.064-.539 1.994-1.115 2.067-1.28.074-.165.389-.3.7-.3.312 0 .567-.18.567-.4 0-.22.193-.4.429-.4.235 0 .663-.225.95-.5.288-.275 1.556-1.22 2.818-2.1 1.262-.88 2.949-2.183 3.749-2.895 1.635-1.456 2.119-1.427 4.654.285.88.594 2.185 1.333 2.9 1.642.715.31 1.3.699 1.3.866 0 .166.27.302.6.302.33 0 .6.146.6.325 0 .179.63.573 1.4.875.77.302 1.4.696 1.4.875 0 .179.36.325.8.325.44 0 .8.161.8.358 0 .196.898.781 1.996 1.3 1.097.518 1.929 1.125 1.848 1.348-.088.245.467.347 1.405.258.955-.091 1.551.022 1.551.294 0 .249.699.442 1.6.442.88 0 1.6-.18 1.6-.4 0-.22.63-.4 1.4-.4.77 0 1.4-.18 1.4-.4 0-.22.356-.4.791-.4.916 0 5.209-4.128 5.209-5.009 0-.325.159-.591.353-.591.195 0 .454-.315.576-.7.217-.685 1.475-2.904 1.871-3.3.11-.11.574-.92 1.03-1.8 1.076-2.073 1.919-3.549 2.171-3.8.11-.11.47-.74.799-1.4.329-.66.693-1.29.808-1.4.114-.11.426-.695.692-1.3.265-.605.667-1.1.891-1.1.225 0 .409-.324.409-.72 0-.396.158-.891.351-1.1.192-.209.797-1.19 1.343-2.18.546-.99 1.406-2.52 1.911-3.4.505-.88 1.295-2.32 1.757-3.2.461-.879 1.153-1.948 1.538-2.375.385-.427.7-1.012.7-1.3 0-.289.18-.525.4-.525.22 0 .4-.36.4-.8 0-.44.159-.8.353-.8.195 0 .454-.315.576-.7.237-.747 1.517-2.967 1.903-3.3.128-.11.487-.785.798-1.5.311-.715.701-1.3.868-1.3.166 0 .302-.27.302-.6 0-.33.18-.6.4-.6.22 0 .4-.444.4-.987 0-.638.181-.918.511-.792.378.145.472-.225.358-1.412-.095-1.001.014-1.609.289-1.609.243 0 .442-.54.442-1.2 0-.66-.18-1.2-.4-1.2-.22 0-.4-.523-.4-1.162 0-2.219-4.219-8.038-5.827-8.038-.315 0-.573-.18-.573-.4 0-.22-.36-.4-.8-.4-.44 0-.8-.18-.8-.4 0-.22-.236-.4-.525-.4-.288 0-.911-.36-1.383-.8-.472-.44-1.136-.8-1.475-.8-.339 0-.617-.18-.617-.4 0-.22-.236-.4-.525-.4-.288 0-.92-.369-1.405-.82-.484-.452-1.047-.718-1.251-.592-.203.126-.516-.01-.694-.303-.179-.292-1.18-.927-2.225-1.41-1.045-.484-1.9-1.058-1.9-1.277 0-.219-.27-.398-.6-.398-.373 0-.6-.378-.6-1 0-.55.225-1 .5-1 .352 0 .459-.594.361-2.011-.086-1.234.057-2.249.369-2.625.319-.384.52-1.907.539-4.088.023-2.555.164-3.449.531-3.376.381.076.499-1.211.494-5.4-.004-3.225-.148-5.276-.35-4.957-.632.997-.916-.264-.793-3.516.083-2.186-.044-3.336-.417-3.786-.355-.428-.471-1.311-.345-2.624.137-1.429.04-2.035-.35-2.185-.9-.345-.683-1.963.231-1.724.533.139.706.035.562-.34-.134-.351.475-.863 1.73-1.455 1.066-.502 2.078-1.131 2.249-1.396.17-.266.575-.382.9-.258.324.125.589.023.589-.225s.495-.669 1.1-.934c.605-.266 1.19-.577 1.3-.692.376-.391 2.599-1.657 3.3-1.879.385-.122.7-.381.7-.576 0-.194.36-.353.8-.353.44 0 .8-.18.8-.4 0-.22.225-.401.5-.402 1.678-.008 5.9-5.758 5.9-8.036 0-.639.18-1.162.4-1.162.22 0 .4-.54.4-1.2 0-.66-.18-1.2-.4-1.2-.22 0-.4-.72-.4-1.6 0-.88-.18-1.6-.4-1.6-.22 0-.4-.36-.4-.8 0-.44-.18-.8-.4-.8-.22 0-.4-.27-.4-.6 0-.33-.136-.6-.302-.6-.167 0-.557-.585-.868-1.3-.311-.715-.76-1.43-.998-1.588-.306-.203-.293-.512.044-1.056.406-.656.374-.742-.219-.587-.463.121-.888-.193-1.275-.944-.319-.619-.671-1.215-.781-1.325-.111-.11-.575-.92-1.031-1.8-1.083-2.087-1.92-3.551-2.173-3.8-.112-.11-.723-1.19-1.358-2.4-.636-1.21-1.372-2.47-1.636-2.8a5.967 5.967 0 0 1-.728-1.2c-.136-.33-.89-1.68-1.676-3-.786-1.32-1.534-2.715-1.661-3.1-.127-.385-.357-.7-.51-.7-.153 0-.526-.63-.828-1.4-.302-.77-.696-1.4-.875-1.4-.461 0-.405-1.506.062-1.667.247-.085.249-.351.006-.733-.325-.512-.382-.497-.387.1-.011 1.227-.651.757-1.638-1.2-.526-1.045-1.05-1.99-1.163-2.1-.114-.11-.461-.695-.773-1.3-.312-.605-.717-1.1-.9-1.1-.182 0-.332-.36-.332-.8 0-.44-.18-.8-.4-.8-.22 0-.4-.245-.4-.544 0-.688-3.294-4.256-3.928-4.256-.26 0-.472-.18-.472-.4 0-.22-.27-.4-.6-.4-.33 0-.6-.18-.6-.4 0-.22-.72-.4-1.6-.4-.88 0-1.6-.18-1.6-.4 0-.22-.619-.4-1.376-.4-.757 0-1.488.18-1.624.4-.136.22-.867.4-1.624.4-.757 0-1.376.138-1.376.306 0 .168-.675.612-1.5.988-1.63.741-3.781 1.968-4.1 2.338-.11.128-.785.487-1.5.798-.715.311-1.3.701-1.3.868 0 .166-.27.302-.6.302-.33 0-.6.136-.6.302 0 .167-.585.556-1.3.866-.715.309-2.02 1.048-2.9 1.642-2.388 1.613-3.065 1.721-4.207.676-.546-.5-1.623-1.348-2.393-1.884-.77-.537-1.632-1.2-1.915-1.475-.283-.274-1.048-.814-1.7-1.199-.652-.385-1.185-.842-1.185-1.014 0-.173-.236-.314-.525-.314-.288 0-.911-.36-1.383-.8-.472-.44-1.046-.8-1.275-.8a.41.41 0 0 1-.417-.4c0-.22-.283-.4-.629-.4-.975 0-2.025-1.196-1.393-1.586.359-.222.378-.394.065-.588-.244-.15-.443-.083-.443.15 0 .233-.36.424-.8.424-.44 0-.8-.18-.8-.4 0-.22-.345-.4-.767-.4-.421 0-.826-.135-.9-.3-.173-.389-6.383-3.425-7.016-3.43-.265-.002-.574-.24-.685-.53-.111-.29-.477-.421-.813-.292-.357.137-.714-.031-.858-.404-.134-.352-.373-.56-.529-.464-.465.287-3.44-.898-3.341-1.331.051-.218-.362-.364-.918-.323l-1.009.074.03-10.052c.027-8.972-.04-10.08-.626-10.305-.467-.179-.607-.595-.484-1.432.109-.743-.023-1.255-.356-1.383-.29-.112-.528-.438-.528-.726 0-.756-4.354-5.178-4.817-4.892-.214.133-.497-.041-.629-.385-.153-.4-.737-.625-1.62-.625-.819 0-1.281-.163-1.134-.4.163-.263-4.063-.4-12.376-.4H200.4v47.154" fill="#94c4dc"/><path d="M178.5.298c-2.035.073-3.7.305-3.7.517 0 .212-1.26.385-2.8.385-1.6 0-2.8.171-2.8.4 0 .22-.979.4-2.176.4s-2.288.18-2.424.4c-.136.22-1.227.4-2.424.4-1.197 0-2.176.18-2.176.4 0 .22-.72.4-1.6.4-.88 0-1.6.18-1.6.4 0 .22-.911.4-2.024.4-1.247 0-1.928.153-1.776.4.151.245-.47.4-1.6.4-1.13 0-1.751.155-1.6.4.149.242-.396.4-1.376.4-.893 0-1.624.18-1.624.4 0 .22-.641.4-1.424.4-.847 0-1.323.162-1.176.4.147.239-.337.4-1.2.4-.796 0-1.348.161-1.226.358.122.197-.452.439-1.276.537-1.666.199-5.387 1.177-5.698 1.498-.11.114-.56.259-1 .323-.775.112-2.065.603-3.495 1.331-.382.194-.95.353-1.262.353-.489 0-1.759.549-4.738 2.05-.382.193-.967.35-1.3.35-.333 0-.605.18-.605.4 0 .22-.461.4-1.024.4-.58 0-.916.173-.776.4.14.226-.188.4-.753.4-.55 0-1.111.18-1.247.4-.136.22-.597.4-1.024.4-.427 0-.776.18-.776.4 0 .22-.36.4-.8.4-.44 0-.8.18-.8.4 0 .22-.36.4-.8.4-.44 0-.8.18-.8.4 0 .22-.36.4-.8.4-.44 0-.8.18-.8.4 0 .22-.36.4-.8.4-.44 0-.8.18-.8.4 0 .22-.36.4-.8.4-.44 0-.8.18-.8.4 0 .22-.27.4-.6.4-.33 0-.6.18-.6.4 0 .22-.36.4-.8.4-.44 0-.8.18-.8.4 0 .22-.36.4-.8.4-.44 0-.8.18-.8.4 0 .22-.345.4-.767.4-.421 0-.826.135-.9.3-.073.165-.853.653-1.733 1.085a38.98 38.98 0 0 0-3.2 1.813c-.88.564-2.14 1.29-2.8 1.611-.66.322-1.47.858-1.8 1.191-.33.333-1.095.86-1.7 1.17-.605.311-1.1.715-1.1.898 0 .182-.32.332-.712.332-.391 0-.971.36-1.288.8-.317.44-.773.8-1.013.8-.24 0-.818.356-1.286.791-.467.436-1.086.841-1.375.9-.289.06-.796.388-1.126.728-.33.34-1.23 1.054-2 1.587-.77.532-1.604 1.154-1.853 1.381-1.109 1.011-3.925 3.249-4.547 3.613-.688.403-3.643 2.77-4.618 3.7-.289.275-.601.5-.693.5-.466 0-17.089 16.058-17.089 16.508 0 .122-.945 1.191-2.1 2.376-1.155 1.185-2.73 2.927-3.5 3.871s-1.819 2.196-2.332 2.781c-.512.585-1.353 1.694-1.868 2.464-.515.77-1.356 1.88-1.868 2.466-1.528 1.749-2.093 2.462-3.119 3.934-.536.77-1.254 1.67-1.594 2-.34.33-.668.837-.728 1.126-.059.289-.464.908-.9 1.375-.435.468-.791 1.046-.791 1.286s-.36.696-.8 1.013c-.44.317-.8.897-.8 1.288 0 .392-.15.712-.332.712-.183 0-.587.495-.898 1.1-.31.605-.837 1.37-1.17 1.7-.333.33-.869 1.14-1.191 1.8-.321.66-1.051 1.92-1.621 2.8-.57.88-1.565 2.68-2.212 4-.647 1.32-1.311 2.46-1.476 2.533-.165.074-.3.479-.3.9 0 .422-.18.767-.4.767-.22 0-.4.36-.4.8 0 .44-.18.8-.4.8-.22 0-.4.36-.4.8 0 .44-.146.8-.325.8-.179 0-.573.63-.875 1.4-.302.77-.696 1.4-.875 1.4-.179 0-.325.36-.325.8 0 .44-.18.8-.4.8-.22 0-.4.36-.4.8 0 .44-.18.8-.4.8-.22 0-.4.36-.4.8 0 .44-.18.8-.4.8-.22 0-.4.265-.4.588 0 .323-.36 1.229-.8 2.012-.44.783-.8 1.779-.8 2.212 0 .433-.18.788-.4.788-.22 0-.4.349-.4.776 0 .427-.18.888-.4 1.024-.22.136-.4.687-.4 1.224 0 .537-.135.977-.3.979-.361.004-1.3 1.942-1.3 2.682 0 .289-.156.838-.346 1.22-.508 1.019-1.323 3.418-1.358 3.995-.016.275-.179.5-.363.5-.183 0-.333.42-.333.933 0 .514-.125 1.059-.278 1.212-.153.153-.333.543-.4.867-.067.323-.198.903-.291 1.288-.094.385-.184 1.206-.2 1.824-.018.641-.203 1.017-.431.876-.239-.147-.4.337-.4 1.2s-.161 1.347-.4 1.2c-.238-.147-.4.329-.4 1.176 0 .783-.18 1.424-.4 1.424-.22 0-.4.731-.4 1.624 0 1.006-.156 1.527-.41 1.37-.225-.139-.384-.105-.353.076.205 1.176-.098 3.34-.437 3.13-.244-.151-.4.455-.4 1.553 0 .99-.18 1.911-.4 2.047-.22.136-.4.957-.4 1.824 0 .867-.18 1.576-.4 1.576-.22 0-.4.889-.4 1.976s-.18 2.088-.4 2.224c-.22.136-.4 1.317-.4 2.624 0 1.317-.178 2.376-.4 2.376-.228 0-.4 1.189-.4 2.767 0 1.857-.164 2.821-.5 2.933-.73.243-.73 48.03 0 48.76.284.284.5 1.493.5 2.796 0 1.263.18 2.408.4 2.544.22.136.4 1.216.4 2.4s.18 2.264.4 2.4c.22.136.4 1.137.4 2.224 0 1.087.18 1.976.4 1.976.22 0 .4.731.4 1.624 0 .98.158 1.525.4 1.376.244-.151.4.455.4 1.553 0 .99.18 1.911.4 2.047.22.136.4.957.4 1.824 0 .867.18 1.576.4 1.576.22 0 .4.63.4 1.4 0 .77.18 1.4.4 1.4.22 0 .4.529.4 1.176 0 .647.18 1.288.4 1.424.22.136.4.766.4 1.4 0 .634.156 1.249.347 1.368.192.118.487.983.656 1.923.468 2.588 1.934 7.022 3.044 9.204.194.382.353.933.353 1.224 0 .292.36 1.276.8 2.187.44.91.8 1.823.8 2.029 0 .205.261.876.58 1.491.318.614.488 1.265.376 1.445-.112.181-.013.329.22.329s.424.27.424.6c0 .33.18.6.4.6.22 0 .4.201.4.446 0 .598 2.819 3.154 3.478 3.154.287 0 .522.18.522.4 0 .22.36.4.8.4.44 0 .8.18.8.4 0 .243 1.8.4 4.6.4s4.6-.157 4.6-.4c0-.22.36-.4.8-.4.44 0 .8-.18.8-.4 0-.22.243-.4.541-.4.706 0 2.768-1.984 3.698-3.558.403-.683.835-1.242.96-1.242s.267-.485.316-1.078c.049-.592.238-1.177.421-1.3 1.135-.76.125-7.856-1.555-10.917-.21-.382-.381-.967-.381-1.3 0-.333-.18-.605-.4-.605-.22 0-.4-.439-.4-.976 0-.537-.18-1.088-.4-1.224-.22-.136-.4-.687-.4-1.224 0-.537-.18-.976-.4-.976-.22 0-.4-.54-.4-1.2 0-.66-.18-1.2-.4-1.2-.22 0-.4-.529-.4-1.176 0-.647-.18-1.288-.4-1.424-.22-.136-.4-.676-.4-1.2 0-.524-.18-1.064-.4-1.2-.22-.136-.4-.777-.4-1.424 0-.647-.18-1.176-.4-1.176-.22 0-.4-.63-.4-1.4 0-.77-.18-1.4-.4-1.4-.22 0-.4-.54-.4-1.2 0-.66-.18-1.2-.4-1.2-.22 0-.4-.72-.4-1.6 0-.88-.162-1.6-.36-1.6-.198 0-.462-.765-.587-1.7-.605-4.516-.761-5.327-1.094-5.68-.197-.209-.359-1.244-.359-2.3 0-1.056-.18-1.92-.4-1.92-.221 0-.4-1.04-.4-2.32 0-1.276-.163-2.491-.362-2.7-1.508-1.582-1.49-44.58.018-44.58.189 0 .344-1.17.344-2.6 0-1.467.174-2.6.4-2.6.22 0 .4-.889.4-1.976s.18-2.088.4-2.224c.22-.136.4-1.036.4-2s.18-1.864.4-2c.22-.136.4-.867.4-1.624 0-.757.146-1.376.325-1.376.179 0 .37-.851.423-1.891.054-1.04.241-1.985.416-2.1.327-.216.734-1.651 1.108-3.909.119-.715.376-1.3.572-1.3.196 0 .356-.619.356-1.376 0-.757.18-1.488.4-1.624.22-.136.4-.697.4-1.247 0-.55.142-.913.315-.805.173.107.354-.278.402-.854.048-.577.221-1.149.385-1.272.164-.122.35-.582.414-1.022.112-.775.603-2.065 1.331-3.495.194-.382.353-.969.353-1.305 0-.336.159-.923.353-1.305.195-.382.535-1.145.757-1.695.222-.55.963-2.223 1.647-3.718.683-1.495 1.243-2.795 1.243-2.888 0-.094.45-1.154 1-2.357.55-1.202 1-2.377 1-2.611 0-.234.18-.426.4-.426.22 0 .4-.36.4-.8 0-.44.18-.8.4-.8.22 0 .4-.36.4-.8 0-.44.18-.8.4-.8.22 0 .4-.36.4-.8 0-.44.18-.8.4-.8.22 0 .4-.36.4-.8 0-.44.18-.8.4-.8.22 0 .4-.278.4-.617 0-.339.36-1.003.8-1.475.44-.472.8-1.095.8-1.383 0-.289.18-.525.4-.525.22 0 .4-.36.4-.8 0-.44.158-.8.351-.8.194 0 .576-.54.849-1.2.273-.66.655-1.2.849-1.2.193 0 .351-.268.351-.595 0-.548.63-1.483 1.9-2.821.275-.29.5-.72.5-.955 0-.236.18-.429.4-.429.22 0 .4-.27.4-.6 0-.33.18-.6.4-.6.22 0 .4-.294.4-.653 0-.359.388-.989.861-1.4.474-.411.731-.747.572-.747-.16 0-.052-.264.238-.586C57.244 98.113 57.62 97.6 57.4 97.6c-.127 0 .136-.394.584-.875.449-.482.816-1.072.816-1.312s.36-.696.8-1.013c.44-.317.8-.817.8-1.112 0-.294.18-.424.4-.288.22.136.4-.008.4-.32 0-.55 1.146-1.949 4.7-5.74.935-.997 1.7-1.959 1.7-2.138 0-.178 1.423-1.781 3.162-3.563C72.501 79.458 73.847 78 73.754 78c-.093 0 .779-.963 1.938-2.141 1.159-1.177 2.243-2.067 2.408-1.976.165.09.3-.116.3-.459s.166-.624.369-.624c.202 0 1.573-1.17 3.046-2.6 1.473-1.43 2.813-2.6 2.978-2.6.277 0 2.476-1.902 5.896-5.1.765-.715 1.654-1.3 1.975-1.3.321 0 .472-.18.336-.4-.136-.22-.006-.4.288-.4.295 0 .795-.36 1.112-.8.317-.44.773-.8 1.013-.8.24 0 .811-.349 1.269-.776.458-.427.942-.667 1.075-.533.134.133.243.044.243-.197 0-.242.366-.556.813-.698.447-.142 1.249-.694 1.782-1.227.533-.533 1.207-.969 1.499-.969.291 0 .789-.36 1.106-.8.317-.44.82-.8 1.117-.8.297 0 .777-.225 1.067-.5 1.338-1.27 2.273-1.9 2.821-1.9.327 0 .595-.158.595-.351 0-.194.54-.576 1.2-.849.66-.273 1.2-.655 1.2-.849 0-.193.36-.351.8-.351.44 0 .8-.18.8-.4 0-.22.236-.4.525-.4.288 0 .911-.36 1.383-.8.472-.44 1.136-.8 1.475-.8.339 0 .617-.18.617-.4 0-.22.36-.4.8-.4.44 0 .8-.18.8-.4 0-.22.36-.4.8-.4.44 0 .801-.135.803-.3.004-.365 1.946-1.3 2.7-1.3.299 0 .433-.18.297-.4-.136-.22.078-.401.476-.402.398-.001 1.61-.451 2.692-1 1.082-.549 2.114-.998 2.293-.998.18 0 1.441-.54 2.804-1.2 1.362-.66 2.634-1.2 2.825-1.2.192 0 1.094-.36 2.004-.8.911-.44 1.982-.8 2.381-.8.399 0 .725-.147.725-.328 0-.339 3.968-1.549 4.5-1.372.165.055.3-.08.3-.3 0-.22.54-.4 1.2-.4.66 0 1.2-.18 1.2-.4 0-.22.349-.4.776-.4.427 0 .888-.18 1.024-.4.136-.22.867-.4 1.624-.4.757 0 1.376-.16 1.376-.356 0-.196.585-.453 1.3-.572 2.258-.374 3.693-.781 3.909-1.108.115-.175 1.06-.362 2.1-.416 1.04-.053 1.891-.244 1.891-.423s.619-.325 1.376-.325c.757 0 1.488-.18 1.624-.4.136-.22 1.036-.4 2-.4s1.864-.18 2-.4c.136-.22 1.137-.4 2.224-.4 1.087 0 1.976-.18 1.976-.4 0-.226 1.133-.4 2.6-.4 1.43 0 2.6-.153 2.6-.341 0-.39 6.66-.857 15.4-1.081 3.3-.084 6.405-.252 6.9-.373l.9-.22V0l-8.9.083c-4.895.046-10.565.142-12.6.215M375.314 193.4c.003 1.1.081 1.503.173.895.092-.609.09-1.509-.005-2-.095-.492-.171.005-.168 1.105m.006 13.8c0 1.21.075 1.705.167 1.1a8.899 8.899 0 0 0 0-2.2c-.092-.605-.167-.11-.167 1.1M47.2 304c0 .22-.416.4-.925.4-.508 0-1.311.36-1.783.8-.472.44-.962.8-1.089.8-.519 0-3.003 2.821-3.003 3.41 0 .351-.18.526-.4.39-.227-.14-.4.196-.4.776 0 .563-.18 1.024-.4 1.024-.243 0-.4 1.8-.4 4.6s.157 4.6.4 4.6c.22 0 .4.439.4.976 0 .537.18 1.088.4 1.224.22.136.4.687.4 1.224 0 .537.18.976.4.976.22 0 .4.54.4 1.2 0 .66.18 1.2.4 1.2.22 0 .4.453.4 1.008 0 .554.45 2.295 1 3.869.55 1.574 1 3.191 1 3.593 0 .401.18.73.4.73.22 0 .4.54.4 1.2 0 .66.18 1.2.4 1.2.22 0 .4.54.4 1.2 0 .66.18 1.2.4 1.2.22 0 .4.54.4 1.2 0 .66.18 1.2.4 1.2.22 0 .4.54.4 1.2 0 .66.18 1.2.4 1.2.22 0 .4.54.4 1.2 0 .66.18 1.2.4 1.2.22 0 .4.54.4 1.2 0 .66.18 1.2.4 1.2.22 0 .4.45.4 1s.18 1 .4 1c.22 0 .4.529.4 1.176 0 .647.18 1.288.4 1.424.22.136.4.687.4 1.224 0 .537.18.976.4.976.22 0 .4.54.4 1.2 0 .66.18 1.2.4 1.2.22 0 .4.54.4 1.2 0 .66.18 1.2.4 1.2.22 0 .4.439.4.976 0 .537.18 1.088.4 1.224.22.136.4.676.4 1.2 0 .524.18 1.064.4 1.2.22.136.4.777.4 1.424 0 .647.18 1.176.4 1.176.22 0 .4.36.4.8 0 .44.18.8.4.8.22 0 .4.371.4.824 0 .453.147.732.327.621.179-.111.618.292.974.896.357.603 1.11 1.344 1.674 1.645.564.302 1.025.699 1.025.882 0 .182.349.332.776.332.427 0 .888.18 1.024.4.136.22.946.4 1.8.4.854 0 1.664.18 1.8.4.136.22.777.4 1.424.4.647 0 1.176-.18 1.176-.4 0-.22.709-.4 1.576-.4.867 0 1.688-.18 1.824-.4.136-.22.597-.4 1.024-.4.427 0 .776-.18.776-.4 0-.22.186-.4.413-.4.538 0 3.187-2.649 3.187-3.187 0-.227.18-.413.4-.413.22 0 .4-.36.4-.8 0-.44.18-.8.4-.8.22 0 .4-.641.4-1.424 0-.783.151-1.33.335-1.216.184.114.373-.85.42-2.141.047-1.301-.103-2.463-.335-2.607-.231-.142-.42-.753-.42-1.356 0-.603-.225-1.323-.5-1.6-.401-.404-.342-.444.3-.204.44.164 1.277.805 1.86 1.423.584.619 1.309 1.125 1.612 1.125.303 0 .811.36 1.128.8.317.44.857.8 1.2.8.343 0 .883.36 1.2.8.317.44.882.8 1.255.8.373 0 .738.145.812.323.151.367 3.747 2.877 4.122 2.877.134 0 .6.331 1.034.736.435.405 1.282.99 1.884 1.299.601.31 1.183.668 1.293.796.353.411 4.989 2.569 5.3 2.467.165-.054.3.082.3.302 0 .22.281.4.624.4.343 0 .512.18.376.4-.136.22-.002.4.297.4.754 0 2.696.935 2.7 1.3.002.165.363.3.803.3.44 0 .8.18.8.4 0 .22.36.4.8.4.44 0 .8.18.8.4 0 .22.36.4.8.4.44 0 .8.18.8.4 0 .22.371.4.824.4.453 0 .712.18.576.4-.141.228.204.4.8.4.596 0 .941.172.8.4-.136.22.118.4.564.4.447 0 1.453.36 2.236.8.783.44 1.689.8 2.012.8.323 0 .588.18.588.4 0 .22.236.4.525.4.289 0 1.27.36 2.181.8.91.44 1.934.8 2.275.8.34 0 .619.18.619.4 0 .22.355.4.788.4.433 0 1.429.36 2.212.8.783.44 1.779.8 2.212.8.433 0 .788.18.788.4 0 .22.504.4 1.12.4.616 0 1.295.175 1.509.389.213.213.744.456 1.18.538.435.083 1.331.374 1.991.647 1.382.572 2.208.784 4.3 1.103.825.125 1.5.385 1.5.576 0 .191.641.347 1.424.347.847 0 1.323.162 1.176.4-.149.242.396.4 1.376.4.893 0 1.624.16 1.624.356 0 .335.919.56 4.498 1.101.824.125 1.418.355 1.322.511-.097.157.669.328 1.702.38 1.033.052 1.938.265 2.011.473.074.209.918.379 1.877.379.958 0 1.854.18 1.99.4.136.22 1.036.4 2 .4s1.864.18 2 .4c.136.22 1.227.4 2.424.4 1.197 0 2.176.18 2.176.4 0 .227 1.173.4 2.72.4 1.496 0 2.912.192 3.147.427.271.271 4.731.512 12.286.662l11.859.236-.106-12.124c-.103-11.773-.129-12.129-.906-12.256-.44-.072-3.5-.22-6.8-.328-9.548-.312-14.6-.68-14.6-1.062 0-.195-1.08-.355-2.4-.355-1.333 0-2.4-.178-2.4-.4 0-.22-.99-.4-2.2-.4-1.21 0-2.2-.18-2.2-.4 0-.22-.9-.4-2-.4s-2-.18-2-.4c0-.22-.72-.4-1.6-.4-.88 0-1.6-.18-1.6-.4 0-.22-.72-.4-1.6-.4-.88 0-1.6-.18-1.6-.4 0-.22-.731-.4-1.624-.4-.893 0-1.524-.16-1.403-.357.121-.196-.408-.466-1.176-.6l-2.797-.487c-.77-.134-1.4-.404-1.4-.6 0-.196-.54-.356-1.2-.356-.66 0-1.2-.18-1.2-.4 0-.22-.54-.4-1.2-.4-.66 0-1.2-.18-1.2-.4 0-.22-.54-.4-1.2-.4-.66 0-1.2-.18-1.2-.4 0-.22-.551-.4-1.224-.4-.673 0-1.131-.15-1.018-.333.113-.183-.686-.575-1.776-.872-1.09-.297-1.982-.648-1.982-.78s-.829-.485-1.842-.784c-1.013-.299-2.534-.879-3.38-1.287-.847-.409-1.745-.744-1.997-.744s-1.025-.404-1.719-.898c-.694-.495-1.306-.859-1.36-.81-.289.262-2.455-.444-2.272-.741.12-.193-.028-.351-.327-.351-.754 0-2.696-.935-2.7-1.3-.002-.165-.363-.3-.803-.3-.44 0-.8-.18-.8-.4 0-.22-.36-.4-.8-.4-.44 0-.8-.18-.8-.4 0-.22-.36-.4-.8-.4-.44 0-.8-.145-.8-.321 0-.177-.897-.762-1.994-1.3-1.096-.539-1.996-1.114-2-1.279-.003-.165-.366-.3-.806-.3-.44 0-.8-.18-.8-.4 0-.22-.27-.4-.6-.4-.33 0-.6-.18-.6-.4 0-.22-.27-.4-.6-.4-.33 0-.6-.136-.6-.302 0-.167-.585-.558-1.3-.87-.715-.312-1.57-.852-1.9-1.2-.33-.349-1.095-.888-1.7-1.198-1.362-.7-1.415-1.23-.124-1.23.537 0 1.088-.18 1.224-.4.136-.22.614-.4 1.062-.4 1.296 0 5.138-2.995 5.138-4.005 0-.243.18-.331.4-.195.22.136.4-.123.4-.576 0-.453.18-.824.4-.824.22 0 .4-.45.4-1s.18-1 .4-1c.24 0 .4-1.608.4-4.024 0-2.58-.143-3.935-.4-3.776-.227.14-.4-.194-.4-.769 0-1.51-4.304-6.231-5.68-6.231-.422 0-.656-.18-.52-.4.144-.233-.263-.4-.976-.4-.673 0-1.224-.18-1.224-.4 0-.22-.54-.4-1.2-.4-.66 0-1.2-.18-1.2-.4 0-.22-.54-.4-1.2-.4-.66 0-1.2-.18-1.2-.4 0-.22-.54-.4-1.2-.4-.66 0-1.2-.18-1.2-.4 0-.22-.54-.4-1.2-.4-.66 0-1.2-.18-1.2-.4 0-.22-.54-.4-1.2-.4-.66 0-1.2-.18-1.2-.4 0-.22-.45-.4-1-.4s-1-.18-1-.4c0-.22-.54-.4-1.2-.4-.66 0-1.2-.18-1.2-.4 0-.22-.529-.4-1.176-.4-.647 0-1.288-.18-1.424-.4-.136-.22-.676-.4-1.2-.4-.524 0-1.064-.18-1.2-.4-.136-.22-.676-.4-1.2-.4-.524 0-1.064-.18-1.2-.4-.136-.22-.676-.4-1.2-.4-.524 0-1.064-.18-1.2-.4-.136-.22-.676-.4-1.2-.4-.524 0-1.064-.18-1.2-.4-.136-.22-.687-.4-1.224-.4-.537 0-.976-.137-.976-.305 0-.316-3.222-1.247-5.5-1.588-.715-.107-1.3-.355-1.3-.551 0-.196-.54-.356-1.2-.356-.66 0-1.2-.18-1.2-.4 0-.22-.54-.4-1.2-.4-.66 0-1.2-.18-1.2-.4 0-.22-.54-.4-1.2-.4-.66 0-1.2-.18-1.2-.4 0-.22-.551-.4-1.224-.4-.713 0-1.12-.167-.976-.4.144-.233-.263-.4-.976-.4-.673 0-1.224-.18-1.224-.4 0-.237-1.467-.4-3.6-.4s-3.6.163-3.6.4m158.9 71.487a8.899 8.899 0 0 0 2.2 0c.605-.092.11-.167-1.1-.167-1.21 0-1.705.075-1.1.167" fill="#346cb4"/><path d="M200.094 12.038 200.2 24.2l1 .094c.55.052 2.71.167 4.8.256 10.33.438 15.437.773 15.8 1.034.22.158 1.39.332 2.6.387 1.21.054 2.46.308 2.777.564.464.375.511.348.241-.135-.273-.488-.235-.507.203-.1.297.275 1.313.5 2.259.5s1.72.18 1.72.4c0 .22.709.4 1.576.4.867 0 1.688.18 1.824.4.136.22 1.126.4 2.2.4 1.074 0 2.064.18 2.2.4.136.22.766.4 1.4.4.634 0 1.264.18 1.4.4.136.22.877.4 1.647.4.832 0 1.3.162 1.153.4-.144.233.263.4.976.4.673 0 1.224.18 1.224.4 0 .22.709.4 1.576.4.867 0 1.688.18 1.824.4.136.22.687.4 1.224.4.537 0 .976.18.976.4 0 .22.529.4 1.176.4.647 0 1.288.18 1.424.4.136.22.687.4 1.224.4.537 0 .976.18.976.4 0 .22.45.4 1 .4s1 .18 1 .4c0 .22.349.4.776.4.427 0 .888.18 1.024.4.136.22.787.4 1.447.4s1.108.15.995.333c-.113.183.686.575 1.776.872 1.09.297 1.982.687 1.982.867 0 .181.45.328 1 .328s1 .144 1 .32c0 .175.675.55 1.5.833.825.282 2.04.744 2.7 1.027.66.282 1.785.761 2.5 1.064.715.303 1.3.698 1.3.877 0 .18.165.224.368.099.202-.125.639.044.971.376.332.332.761.604.953.604.602 0 2.502.986 2.505 1.3.002.165.363.3.803.3.44 0 .8.16.8.357 0 .196.675.64 1.5.988 1.838.774 3.854 1.951 4.033 2.355.074.165.389.3.7.3.312 0 .567.18.567.4 0 .22.208.4.462.4s1.064.459 1.8 1.02c.736.562 1.341.877 1.344.7.003-.176.138-.139.3.081.162.221 1.092.941 2.066 1.6L298.545 55l-1.473.124c-.809.068-1.472.293-1.472.5 0 .207-.521.376-1.157.376-.705 0-1.256.257-1.41.657-.138.362-.361.548-.495.414-.134-.133-.736.284-1.338.929-.602.645-1.208 1.058-1.347.919s-.253.081-.253.489c0 .407-.355 1.119-.789 1.581-.435.462-.85 1.234-.923 1.715-.074.482-.259 1-.411 1.152-.414.415-.334 7.656.086 7.811.2.073.425.493.5.933.076.44.407 1.073.737 1.406.33.333.808.963 1.063 1.4.254.437.659.749.9.694.24-.055.392.035.337.2-.156.468 1.631 2.1 2.3 2.1.33 0 .6.18.6.4 0 .22.54.4 1.2.4.66 0 1.2.18 1.2.4 0 .22.54.4 1.2.4.66 0 1.2.18 1.2.4 0 .22.54.4 1.2.4.66 0 1.2.18 1.2.4 0 .22.54.4 1.2.4.66 0 1.2.18 1.2.4 0 .22.54.4 1.2.4.66 0 1.2.18 1.2.4 0 .22.54.4 1.2.4.66 0 1.2.18 1.2.4 0 .22.439.4.976.4.537 0 1.088.18 1.224.4.136.22.787.4 1.447.4.698 0 1.097.167.953.4-.144.233.263.4.976.4.673 0 1.224.18 1.224.4 0 .22.54.4 1.2.4.66 0 1.2.18 1.2.4 0 .22.54.4 1.2.4.66 0 1.2.141 1.2.313 0 .172.495.353 1.1.403.605.05 1.16.269 1.233.487.074.219.659.397 1.3.397.642 0 1.167.18 1.167.4 0 .22.362.4.805.4.443 0 1.118.163 1.5.363 1.142.597 4.917 1.637 5.941 1.637.525 0 .954.18.954.4 0 .22.54.4 1.2.4.66 0 1.2.18 1.2.4 0 .22.54.4 1.2.4.66 0 1.2.18 1.2.4 0 .22.54.4 1.2.4.66 0 1.2.18 1.2.4 0 .22.45.4 1 .4s1 .18 1 .4c0 .22.72.4 1.6.4.88 0 1.6.189 1.6.421 0 .266 1.179.392 3.2.343 1.76-.042 3.2-.231 3.2-.42 0-.189.585-.347 1.3-.35.986-.005 1.155-.1.7-.394-.468-.302-.357-.389.5-.394.605-.003 1.1-.186 1.1-.406 0-.22.281-.4.624-.4.343 0 .532-.147.421-.327-.111-.18.148-.58.576-.888.429-.309.779-.863.779-1.231 0-.367.25-.764.556-.882 1.551-.595 2.92-11.472 1.444-11.472-.22 0-.4-.439-.4-.976 0-.537-.18-1.088-.4-1.224-.22-.136-.4-.687-.4-1.224 0-.537-.146-.976-.325-.976-.178 0-.658-1.485-1.066-3.3-.408-1.815-1.002-3.705-1.321-4.2-.319-.495-.478-.9-.354-.9s-.038-.63-.36-1.4c-.322-.77-.456-1.4-.299-1.4.157 0 .069-.216-.195-.48s-.48-.883-.48-1.376c0-.493-.18-1.008-.4-1.144-.22-.136-.4-.672-.4-1.19 0-.519-.178-1.003-.397-1.077-.218-.073-.437-.628-.487-1.233-.05-.605-.199-1.1-.331-1.1-.273 0-1.455-4.117-1.25-4.355.073-.086-.061-.276-.299-.423-.238-.147-.471-.739-.519-1.316-.048-.576-.229-.961-.402-.854-.173.108-.315-.265-.315-.828s-.141-1.024-.313-1.024c-.172 0-.353-.485-.402-1.078-.049-.592-.288-1.2-.532-1.351-.306-.189-.274-.341.102-.491.387-.154.4-.226.045-.248-.275-.018-.5-.381-.5-.808 0-.427-.18-.888-.4-1.024-.22-.136-.4-.777-.4-1.424 0-.647-.18-1.176-.4-1.176-.22 0-.4-.54-.4-1.2 0-.66-.18-1.2-.4-1.2-.22 0-.4-.54-.4-1.2 0-.66-.18-1.2-.4-1.2-.22 0-.4-.54-.4-1.2 0-.66-.18-1.2-.4-1.2-.22 0-.4-.54-.4-1.2 0-.66-.18-1.2-.4-1.2-.22 0-.4-.36-.4-.8 0-.44-.18-.8-.4-.8-.22 0-.4-.371-.4-.824 0-.453-.18-.712-.4-.576-.22.136-.4.063-.4-.163 0-.678-2.323-2.837-3.053-2.837-.374 0-.563-.117-.42-.261.402-.401-1.679-1.339-2.973-1.339-.635 0-1.154-.169-1.154-.377 0-.211-.923-.295-2.1-.191-3.43.302-5.1.633-5.1 1.012 0 .196-.36.356-.8.356-.44 0-.8.18-.8.4 0 .22-.27.4-.6.4-.33 0-.601.135-.601.3-.001.165-.54.66-1.199 1.1-.659.44-1.198 1.115-1.199 1.5 0 .385-.181.7-.401.7-.22 0-.4.36-.4.8 0 .44-.18.8-.4.8-.22 0-.4.641-.4 1.424 0 .783-.151 1.33-.335 1.216-.184-.114-.374.866-.421 2.177-.047 1.31.067 2.383.253 2.383.187 0 .382.63.434 1.4.111 1.657-.333 1.762-1.695.4-.55-.55-1.189-1-1.421-1-.232 0-.987-.54-1.678-1.2-.691-.66-1.499-1.2-1.796-1.2-.298 0-.541-.136-.541-.302 0-.167-.506-.527-1.125-.801-.619-.273-1.511-.857-1.983-1.297-.472-.44-1.046-.8-1.275-.8a.422.422 0 0 1-.417-.424c0-.233-.181-.311-.403-.174-.221.137-.506-.02-.632-.349-.126-.328-.755-.78-1.397-1.004-.642-.224-1.168-.597-1.168-.828 0-.232-.278-.421-.617-.421-.339 0-1.003-.36-1.475-.8-.472-.44-1.098-.8-1.391-.8-.293 0-1.246-.45-2.117-1s-1.768-1-1.992-1c-.224 0-.411-.225-.414-.5-.004-.333-.136-.3-.394.1s-.39.433-.394.1c-.003-.275-.284-.5-.623-.5s-1.003-.36-1.475-.8c-.472-.44-1.095-.8-1.383-.8-.289 0-.525-.18-.525-.4 0-.22-.36-.4-.8-.4-.44 0-.8-.144-.8-.32 0-.175-.63-.547-1.4-.826-.77-.278-1.4-.674-1.4-.88 0-.206-.458-.374-1.017-.374-.559 0-1.403-.36-1.875-.8-.472-.44-1.174-.8-1.56-.8-.385 0-.812-.18-.948-.4-.136-.22-.597-.4-1.024-.4-.427 0-.776-.18-.776-.4 0-.22-.36-.4-.8-.4-.44 0-.8-.18-.8-.4 0-.22-.36-.4-.8-.4-.44 0-.8-.141-.8-.313 0-.172-.495-.353-1.1-.403-.605-.05-1.16-.269-1.233-.487-.074-.219-.468-.397-.877-.397-.408 0-.854-.18-.99-.4-.136-.22-.597-.4-1.024-.4-.427 0-.776-.141-.776-.313 0-.172-.485-.353-1.078-.402-.592-.049-1.177-.223-1.3-.387-.122-.164-.582-.359-1.022-.435-.44-.075-.86-.3-.933-.5-.074-.199-.558-.363-1.077-.363-.518 0-1.054-.18-1.19-.4-.136-.22-.665-.4-1.175-.4s-1.574-.27-2.363-.6c-.79-.33-1.892-.6-2.449-.6-.557 0-1.013-.18-1.013-.4 0-.22-.731-.4-1.624-.4-.98 0-1.525-.158-1.376-.4.141-.228-.205-.4-.803-.4-.577 0-1.372-.173-1.766-.384-.395-.211-1.373-.427-2.174-.481-.801-.054-1.457-.242-1.457-.417s-.54-.318-1.2-.318c-.66 0-1.2-.18-1.2-.4 0-.22-.9-.4-2-.4s-2-.162-2-.36c0-.336-.975-.523-5.7-1.089-1.045-.126-1.9-.391-1.9-.59 0-.198-1.08-.361-2.4-.361-1.333 0-2.4-.178-2.4-.4 0-.227-1.173-.4-2.72-.4-1.496 0-2.912-.192-3.148-.428-.273-.273-4.713-.512-12.286-.662l-11.858-.235.106 12.163M186.9 24.676c.385.1 1.015.1 1.4 0 .385-.101.07-.183-.7-.183s-1.085.082-.7.183M369.4 118c-.136.22-.597.4-1.024.4-.427 0-.776.18-.776.4 0 .22-.288.4-.64.4-.861 0-4.16 3.539-4.16 4.464 0 .405-.18.736-.4.736-.22 0-.4.349-.4.776 0 .427-.18.888-.4 1.024-.22.136-.4 1.677-.4 3.424 0 1.851.167 3.176.4 3.176.22 0 .4.54.4 1.2 0 .66.18 1.2.4 1.2.22 0 .4.529.4 1.176 0 .647.18 1.288.4 1.424.22.136.4.597.4 1.024 0 .427.18.776.4.776.22 0 .4.27.4.6 0 .33.225.603.5.606.333.004.3.136-.1.394s-.433.39-.1.394c.29.003.5.521.5 1.23 0 .713.167 1.12.4.976.233-.144.4.255.4.953 0 .66.18 1.311.4 1.447.22.136.4.697.4 1.247 0 .565.174.893.4.753.239-.147.4.337.4 1.2s.161 1.347.4 1.2c.241-.149.4.385.4 1.343 0 .875.174 1.65.387 1.724.213.073.432.718.485 1.433.054.715.24 1.3.413 1.3s.315.54.315 1.2c0 .66.18 1.2.4 1.2.22 0 .4.799.4 1.776s.18 1.888.4 2.024c.22.136.4.856.4 1.6 0 .744.18 1.464.4 1.6.22.136.4 1.057.4 2.047 0 1.098.156 1.704.4 1.553.246-.152.4.521.4 1.753 0 1.1.18 2.111.4 2.247.22.136.4 1.396.4 2.8s.155 2.649.345 2.766c.35.216.807 6.473 1.112 15.234.092 2.64.207 5.655.255 6.7.049 1.045-.033 1.9-.182 1.9-.148 0-.238 1.485-.2 3.3.105 4.958-.542 16.047-.962 16.48-.202.209-.368 1.514-.368 2.9 0 1.413-.176 2.52-.4 2.52-.223 0-.4 1.075-.4 2.424 0 1.513-.15 2.33-.4 2.176-.246-.152-.4.521-.4 1.753 0 1.1-.18 2.111-.4 2.247-.22.136-.4.867-.4 1.624 0 .757-.18 1.376-.4 1.376-.22 0-.4.709-.4 1.576 0 .867-.18 1.688-.4 1.824-.22.136-.4.766-.4 1.4 0 .634-.18 1.264-.4 1.4-.22.136-.4.867-.4 1.624 0 .757-.18 1.376-.4 1.376-.22 0-.4.63-.4 1.4 0 .77-.18 1.4-.4 1.4-.22 0-.4.45-.4 1s-.18 1-.4 1c-.22 0-.379.135-.353.3.17 1.072-.11 2.508-.447 2.3-.242-.149-.4.396-.4 1.376 0 .893-.18 1.624-.4 1.624-.22 0-.4.27-.4.6 0 .33-.191.6-.424.6-.233 0-.335.142-.228.316.177.287-.444 1.984-1.384 3.779-.2.382-.364 1.057-.364 1.5 0 .443-.18.805-.4.805-.22 0-.4.45-.4 1s-.18 1-.4 1c-.22 0-.4.45-.4 1s-.136 1-.302 1c-.167 0-.545.585-.841 1.3-.296.715-.789 1.867-1.097 2.56-.308.694-.56 1.459-.56 1.7 0 .242-.18.44-.4.44-.22 0-.4.36-.4.8 0 .44-.18.8-.4.8-.22 0-.4.234-.4.52 0 .736-.941 2.673-1.3 2.677-.165.002-.3.286-.3.632 0 .345-.27.898-.599 1.228-.33.329-.719 1.081-.864 1.671-.146.59-.596 1.363-1.001 1.719-.405.356-.736.858-.736 1.117 0 .258-.36.856-.8 1.328-.44.472-.8 1.095-.8 1.383 0 .289-.18.525-.4.525-.22 0-.4.27-.4.6 0 .33-.18.6-.4.6-.22 0-.4.27-.4.6 0 .33-.191.6-.424.6-.233 0-.311.181-.174.403.137.221-.033.511-.377.643s-.625.456-.625.721c0 .265-.36.869-.8 1.341-.44.472-.8 1.046-.8 1.275a.41.41 0 0 1-.4.417c-.22 0-.4.27-.4.6 0 .33-.191.6-.424.6-.233 0-.312.18-.176.4.136.22.086.4-.112.4s-.703.718-1.124 1.595c-.42.878-1.034 1.612-1.364 1.632-.409.025-.442.1-.102.237.318.128-.095.772-1.132 1.769-.897.862-1.409 1.567-1.137 1.567.484 0-.351.836-1.97 1.973-.449.315-.74.696-.647.847.094.151-.812 1.288-2.012 2.527s-2.051 2.258-1.891 2.265c.16.007-.024.196-.409.42-.385.224-.7.589-.7.81 0 .221-1.09 1.472-2.423 2.78-1.332 1.308-2.331 2.378-2.219 2.378.111 0-.858 1.035-2.154 2.3-6.155 6.005-8.413 8.1-8.734 8.1-.191 0-1.483 1.08-2.87 2.4-1.387 1.32-2.775 2.4-3.085 2.4-.309 0-.451.18-.315.4.136.22-.021.4-.349.4-.329 0-.711.36-.851.8-.14.44-.526.8-.858.8-.333 0-1.311.735-2.173 1.633-.863.898-1.569 1.438-1.569 1.2s-.329-.118-.73.267c-1.492 1.431-3.012 2.46-3.336 2.259-.184-.113-.334-.016-.334.217 0 .233-.27.424-.6.424-.33 0-.6.18-.6.4 0 .22-.27.4-.6.4-.33 0-.6.184-.6.409 0 .224-.495.626-1.1.891-.605.266-1.246.716-1.425 1-.178.284-.493.412-.7.285-.206-.128-.375-.042-.375.191s-.27.424-.6.424c-.33 0-.6.18-.6.4 0 .22-.27.4-.6.4-.33 0-.6.18-.6.4 0 .22-.236.4-.525.4-.288 0-.911.36-1.383.8-.472.44-1.096.8-1.387.8-.291 0-.788.36-1.105.8-.356.494-1.041.802-1.788.806-.93.005-1.072.097-.612.394.485.314.428.389-.3.394-.495.003-.901.141-.903.306-.004.359-1.941 1.3-2.677 1.3-.286 0-.521.135-.523.3-.004.365-1.946 1.3-2.7 1.3-.299 0-.433.18-.297.4.136.22-.051.4-.416.4s-1.32.291-2.124.646l-2.644 1.172c-.651.289-1.354.42-1.562.292-.208-.128-.249-.026-.092.228.169.274.03.462-.344.462-.346 0-.986.18-1.423.4l-1.59.8c-.437.22-1.067.4-1.4.4-.333 0-.605.18-.605.4 0 .22-.339.4-.754.4s-1.257.261-1.872.58c-.614.318-1.265.488-1.445.376-.181-.112-.329-.013-.329.22s-.27.424-.6.424c-.33 0-.6.18-.6.4 0 .22-.54.4-1.2.4-.66 0-1.2.18-1.2.4 0 .22-.615.4-1.367.4-.751 0-1.426.174-1.5.387-.073.213-.718.432-1.433.485-.715.054-1.3.24-1.3.413s-.54.315-1.2.315c-.66 0-1.2.18-1.2.4 0 .22-.54.4-1.2.4-.66 0-1.2.143-1.2.318 0 .175-.675.364-1.499.419-.825.056-1.671.273-1.88.482-.21.21-1.065.381-1.901.381-.836 0-1.52.18-1.52.4 0 .22-.72.4-1.6.4-.88 0-1.6.18-1.6.4 0 .22-.911.4-2.024.4-1.247 0-1.928.153-1.776.4.152.247-.529.4-1.776.4-1.113 0-2.024.18-2.024.4 0 .224-1.107.4-2.52.4-1.462 0-2.746.21-3.059.5-.438.407-.476.388-.203-.1.268-.479.22-.509-.241-.149-.588.459-6.984.93-15.977 1.175-2.75.075-5.36.207-5.8.293-.776.152-.803.519-.906 12.281l-.106 12.125 12.106-.282c13.965-.325 13.106-.279 13.106-.71 0-.183 1.26-.333 2.8-.333 1.6 0 2.8-.171 2.8-.4 0-.22.9-.4 2-.4s2-.164 2-.364c0-.201 1.035-.462 2.3-.58 3.812-.357 5.879-.718 6.28-1.097.209-.197 1.053-.359 1.876-.359s1.608-.18 1.744-.4c.136-.22.629-.4 1.095-.4.876 0 1.466-.155 5.958-1.566 1.458-.459 3.134-.834 3.723-.834.612 0 .965-.171.824-.4-.144-.233.254-.4.95-.4.659 0 1.705-.208 2.324-.461.619-.254 1.486-.525 1.926-.604 1.132-.201 4.323-1.382 5.895-2.182.382-.194.962-.353 1.29-.353.328 0 1.185-.359 1.905-.799.721-.439 1.715-.799 2.21-.8.495 0 .9-.181.9-.401 0-.22.36-.4.8-.4.44 0 .8-.18.8-.4 0-.22.585-.403 1.3-.406.986-.005 1.155-.1.7-.394-.455-.294-.286-.389.7-.394.715-.003 1.3-.186 1.3-.406 0-.22.36-.4.8-.4.44 0 .8-.18.8-.4 0-.22.36-.4.8-.4.44 0 .8-.18.8-.4 0-.22.36-.4.8-.4.44 0 .8-.18.8-.4 0-.22.265-.4.589-.4.324 0 1.359-.458 2.3-1.018.941-.559 2.026-1.12 2.411-1.246.385-.126.7-.388.7-.583 0-.194.36-.353.8-.353.44 0 .8-.18.8-.4 0-.22.36-.4.8-.4.44 0 .8-.18.8-.4 0-.22.283-.4.629-.4.345 0 .9-.272 1.232-.604.332-.332.769-.501.971-.376.203.125.368.04.368-.189s.489-.538 1.087-.688c.597-.15 1.272-.426 1.5-.614 1.11-.914 3.414-2.271 3.425-2.017.007.158.196-.027.42-.412.224-.385.656-.7.959-.7.303 0 .905-.45 1.338-1 .432-.55 1.075-1 1.429-1 .353 0 .642-.18.642-.4 0-.22.294-.4.653-.4.359 0 .956-.349 1.325-.775.37-.426.931-.831 1.247-.9.316-.069.845-.397 1.175-.73.33-.333 1.274-1.053 2.097-1.6.824-.547 1.499-1.13 1.5-1.295.002-.165.258-.3.569-.3.311 0 1.214-.63 2.007-1.4.793-.77 1.612-1.4 1.82-1.4.209 0 .926-.534 1.593-1.187.668-.652 1.22-1.057 1.227-.9.008.158.368-.138.8-.657.433-.52.787-.816.787-.658 0 .158.522-.272 1.16-.956.639-.683 1.449-1.242 1.8-1.242.352 0 .64-.3.64-.667 0-.366.101-.565.225-.442.123.124 1.248-.804 2.5-2.062 1.251-1.257 2.59-2.403 2.975-2.545.385-.142.7-.535.7-.871 0-.337.33-.613.732-.613.403 0 .972-.447 1.264-.993.293-.547.863-1.099 1.268-1.227.405-.129.736-.377.736-.551 0-.174.645-.927 1.434-1.673.789-.746 1.644-1.592 1.9-1.881.256-.289.961-.994 1.566-1.566.605-.573 1.1-1.281 1.1-1.575 0-.294.276-.534.613-.534.336 0 .733-.315.881-.7.147-.385 1.106-1.538 2.13-2.561 1.023-1.024 1.971-2.149 2.106-2.5.135-.352.521-.639.857-.639.337 0 .613-.288.613-.64 0-.351.559-1.161 1.242-1.8.684-.638 1.114-1.16.956-1.16-.158 0 .138-.354.658-.787.519-.432.8-.792.623-.8-.176-.007.127-.428.674-.935.547-.507 1.052-1.177 1.121-1.49.069-.313.756-1.208 1.526-1.988s1.459-1.683 1.532-2.005c.073-.323.261-.679.419-.791.158-.112.72-.834 1.249-1.604.529-.77 1.313-1.715 1.742-2.1.429-.385.571-.7.316-.7-.256 0 .077-.567.739-1.259.661-.693 1.203-1.503 1.203-1.8 0-.298.18-.541.4-.541.22 0 .4-.289.4-.642 0-.354.459-1.004 1.021-1.446.562-.442.925-.899.807-1.017-.117-.118.171-.547.64-.954.47-.408.742-.741.605-.741-.228 0 1.231-2.415 2.075-3.433.198-.239.479-.98.626-1.646.146-.667.617-1.59 1.046-2.05.429-.461.78-1.115.78-1.454 0-.339.18-.617.4-.617.22 0 .4-.36.4-.8 0-.44.18-.8.4-.8.22 0 .4-.36.4-.8 0-.44.159-.8.353-.8.195 0 .457-.315.583-.7.126-.385.687-1.47 1.246-2.411.56-.941 1.018-1.976 1.018-2.3 0-.324.18-.589.4-.589.22 0 .4-.36.4-.8 0-.44.18-.8.4-.8.22 0 .4-.349.4-.776 0-.427.18-.888.4-1.024.22-.136.4-.607.4-1.047 0-.44.18-.689.4-.553.22.136.4-.123.4-.576 0-.453.18-.824.4-.824.22 0 .4-.54.4-1.2 0-.66.18-1.2.4-1.2.22 0 .4-.36.4-.8 0-.44.18-.8.4-.8.22 0 .4-.349.4-.776 0-.427.183-.89.407-1.028.223-.138.319-.392.212-.565-.106-.172.065-.655.381-1.072.316-.417.58-1.076.587-1.464.007-.388.172-1.018.366-1.4.932-1.832 1.288-2.782 1.35-3.602.037-.491.179-.893.315-.893.137 0 .268-.225.292-.5.062-.722.304-1.545.829-2.826.253-.619.461-1.466.461-1.881 0-.416.16-1.169.356-1.674.196-.506.749-2.269 1.229-3.919.48-1.65 1.04-3.553 1.244-4.228.204-.676.371-1.61.371-2.077 0-.466.18-.959.4-1.095.22-.136.4-1.032.4-1.99 0-.959.17-1.803.379-1.877.208-.073.421-.988.474-2.033.053-1.045.243-1.9.422-1.9s.328-1.035.331-2.3c.004-1.633.119-2.126.394-1.7.273.423.39-.138.394-1.9.003-1.396.183-2.5.406-2.5.231 0 .4-1.275.4-3.024 0-1.663.15-2.931.333-2.817.506.312.497.595.633-20.759.136-21.392.001-27.551-.595-27.182-.296.183-.632-4.566-.418-5.918.026-.165-.133-.3-.353-.3-.22 0-.4-.774-.4-1.72s-.225-1.962-.5-2.259c-.4-.431-.4-.482 0-.256.275.155.5.107.5-.108s-.177-.45-.394-.524c-.216-.073-.425-.988-.464-2.033-.04-1.045-.204-1.9-.365-1.9-.276 0-.488-1.053-1.03-5.1-.125-.935-.389-1.7-.587-1.7-.198 0-.36-.619-.36-1.376 0-.757-.16-1.476-.356-1.597-.195-.121-.465-.851-.6-1.623l-.488-2.804c-.134-.77-.404-1.4-.6-1.4-.196 0-.356-.435-.356-.967 0-.531-.158-1.026-.351-1.1-.193-.073-.452-.98-.576-2.015-.125-1.036-.417-2.239-.65-2.674-.232-.435-.423-1.264-.423-1.841 0-.598-.172-.944-.4-.803-.226.14-.4-.19-.4-.758 0-.998-.23-1.684-1.657-4.938-.408-.932-.743-1.931-.743-2.22 0-.288-.165-.695-.367-.904-.201-.209-.426-.74-.5-1.18-.073-.44-.277-.906-.453-1.036s-.349-.625-.385-1.1c-.036-.475-.207-.864-.38-.864-.173 0-.315-.241-.315-.536 0-.776-3.404-4.264-4.16-4.264-.352 0-.64-.18-.64-.4 0-.22-.45-.4-1-.4s-1-.18-1-.4c0-.241-1.659-.4-4.176-.4-2.353 0-4.285.175-4.424.4M24.493 187.6c0 .77.082 1.085.183.7.1-.385.1-1.015 0-1.4-.101-.385-.183-.07-.183.7m0 5.6c0 .77.082 1.085.183.7.1-.385.1-1.015 0-1.4-.101-.385-.183-.07-.183.7m0 18.4c0 .77.082 1.085.183.7.1-.385.1-1.015 0-1.4-.101-.385-.183-.07-.183.7m162.612 163.883c.497.096 1.217.092 1.6-.008.382-.1-.025-.179-.905-.174-.88.004-1.193.086-.695.182" fill="#044484"/><path d="M171.8 71.2c-.136.22-.506.4-.821.4-.758 0-4.979 3.978-4.979 4.692 0 .305-.18.444-.4.308-.22-.136-.4.113-.4.553 0 .44-.18.911-.4 1.047-.251.155-.4 4.337-.4 11.224 0 10.709-.019 10.976-.8 10.976-.44 0-.8.18-.8.4 0 .22-.45.4-1 .4s-1 .18-1 .4c0 .22-.54.4-1.2.4-.66 0-1.2.18-1.2.4 0 .22-.36.4-.8.4-.44 0-.8.18-.8.4 0 .22-.36.4-.8.4-.44 0-.8.18-.8.4 0 .22-.36.4-.8.4-.44 0-.8.18-.8.4 0 .22-.36.4-.8.4-.44 0-.8.18-.8.4 0 .22-.36.4-.8.4-.44 0-.8.18-.8.4 0 .22-.36.4-.8.4-.44 0-.8.18-.8.4 0 .22-.345.4-.767.4-.421 0-.83.19-.907.422-.077.232-.434.465-.793.517a3.18 3.18 0 0 0-1.193.495c-.297.22-1.035.647-1.64.95-.605.303-1.1.701-1.1.884 0 .182-.27.332-.6.332-.33 0-.6.18-.6.4 0 .22-.281.4-.624.4-.343 0-.512.18-.376.4.136.22-.123.4-.576.4-.453 0-.824.18-.824.4 0 .22-.243.4-.541.4-.297 0-1.105.54-1.796 1.2-.691.66-1.448 1.2-1.683 1.2-.235 0-.316.18-.18.4.136.22-.002.4-.307.4-.304 0-.957.43-1.451.955-.834.888-2.221 1.022-2.842.275-.11-.133-1.055-.672-2.1-1.198-1.045-.527-1.9-1.109-1.9-1.295 0-.185-.345-.337-.767-.337-.421 0-.826-.142-.9-.314-.239-.566-2.641-2.086-3.295-2.086-.351 0-.638-.18-.638-.4 0-.22-.27-.4-.6-.4-.33 0-.6-.159-.6-.353 0-.277-1.305-.837-1.914-.821-.063.001-.393-.276-.733-.615-.339-.34-.768-.526-.951-.412-.184.113-.408-.018-.499-.291-.186-.557-8.201-.843-8.903-.318-.22.165-.901.419-1.513.566-1.232.294-5.887 4.785-5.887 5.679 0 .311-.18.565-.4.565-.22 0-.4.36-.4.8 0 .44-.136.8-.302.8-.363 0-1.519 2.46-1.377 2.93.054.181-.086.215-.311.076-.226-.139-.41.027-.41.37 0 .343-.191.624-.424.624-.233 0-.321.165-.196.368.125.202-.007.607-.293.9-.287.292-.758 1.111-1.047 1.819-.289.707-.777 1.494-1.083 1.749-.306.254-.557.766-.557 1.138 0 .371-.36 1.062-.8 1.534-.44.472-.8 1.046-.8 1.275a.41.41 0 0 1-.4.417c-.22 0-.4.36-.4.8 0 .44-.18.8-.4.8-.22 0-.4.36-.4.8 0 .44-.159.8-.353.8-.195 0-.454.315-.576.7-.217.685-1.475 2.904-1.871 3.3-.421.421-1.2 2.01-1.2 2.448 0 .252-.329.749-.73 1.105-.402.356-.986 1.232-1.298 1.947-.312.715-.682 1.3-.821 1.3-.14 0-.478.54-.751 1.2-.273.66-.666 1.2-.872 1.2-.206 0-.273.165-.148.368.125.202-.052.647-.393.988-.341.341-.81 1.166-1.043 1.832-.232.667-.585 1.212-.783 1.212-.199 0-.361.27-.361.6 0 .33-.199.6-.443.6-.243 0-.341.265-.216.589.124.326-.081.769-.458.988-.375.219-.503.407-.283.417.22.01.18.158-.09.329-.269.172-.55.704-.623 1.184-.073.48-.258.997-.41 1.149-.636.636-.271 8.318.472 9.944 1.054 2.309 4.71 5.798 5.751 5.489.165-.049.3.069.3.262 0 .353 2.148 1.391 2.613 1.264.136-.037.57.304.964.759.394.454 1.011.826 1.37.826.359 0 .653.18.653.4 0 .22.32.4.712.4.391 0 .971.36 1.288.8.317.44.897.8 1.288.8.392 0 .712.146.712.325 0 .179.63.573 1.4.875.77.302 1.4.696 1.4.875 0 .179.322.325.715.325.507 0 .741.348.806 1.2.051.66-.067 1.2-.262 1.2-.637 0-.992 6.013-.992 16.8s.355 16.8.992 16.8c.195 0 .313.54.262 1.2-.065.852-.299 1.2-.806 1.2-.393 0-.715.146-.715.325 0 .179-.63.573-1.4.875-.77.302-1.4.696-1.4.875 0 .179-.32.325-.712.325-.391 0-.971.36-1.288.8-.317.44-.897.8-1.288.8-.392 0-.712.18-.712.4 0 .22-.294.4-.653.4-.359 0-.989.388-1.4.861-.411.474-.747.74-.747.592 0-1.652-7.646 4.482-8.825 7.08-.767 1.689-1.149 9.36-.498 10.011.152.152.338.677.412 1.166.074.49.31.95.525 1.024.215.074.289.299.165.5-.124.201-.036.366.197.366s.424.36.424.8c0 .44.137.8.305.8.302 0 .535.362 1.69 2.631.328.643.824 1.409 1.104 1.701.28.293.406.698.281.9-.125.203-.058.368.148.368s.599.54.872 1.2c.273.66.611 1.2.751 1.2.139 0 .509.585.821 1.3.312.715.896 1.591 1.298 1.947.401.356.73.853.73 1.105 0 .438.779 2.027 1.2 2.448.396.396 1.654 2.615 1.871 3.3.122.385.381.7.576.7.194 0 .353.36.353.8 0 .44.18.8.4.8.22 0 .4.36.4.8 0 .44.18.8.4.8.22 0 .4.188.4.417 0 .229.36.803.8 1.275.44.472.8 1.163.8 1.534 0 .372.251.884.557 1.138.306.255.794 1.042 1.083 1.749.289.708.76 1.527 1.047 1.819.286.293.418.698.293.9-.125.203-.037.368.196.368s.424.236.424.525c0 .288.36.911.8 1.383.44.472.8 1.136.8 1.475 0 .339.18.617.4.617.22 0 .4.36.4.8 0 .44.18.8.4.8.22 0 .4.242.4.537 0 .877 4.692 5.422 5.893 5.709.609.145 1.287.403 1.507.572.781.6 8.594.238 9.009-.418.208-.33.382-.437.385-.238.003.199.321.077.706-.272.385-.348.79-.651.9-.673 1.244-.247 2-.574 2-.864 0-.194.27-.353.6-.353.33 0 .6-.18.6-.4 0-.22.287-.4.638-.4.654 0 3.056-1.52 3.295-2.086.074-.172.479-.314.9-.314.422 0 .767-.152.767-.337 0-.186.855-.768 1.9-1.295 1.045-.526 1.99-1.065 2.1-1.198.688-.827 1.939-.558 3.201.688.748.738 1.506 1.342 1.683 1.342.178 0 .888.54 1.579 1.2.691.66 1.471 1.2 1.734 1.2.264 0 .805.36 1.203.8.398.44.884.8 1.079.8.195 0 .71.331 1.144.736.435.405 1.282.982 1.884 1.283.601.302 1.336.727 1.633.947a3.18 3.18 0 0 0 1.193.495c.359.052.716.285.793.517.077.232.486.422.907.422.422 0 .767.18.767.4 0 .22.36.4.8.4.44 0 .8.18.8.4 0 .22.36.4.8.4.44 0 .8.18.8.4 0 .22.36.4.8.4.44 0 .8.18.8.4 0 .22.36.4.8.4.44 0 .8.18.8.4 0 .22.36.4.8.4.44 0 .8.18.8.4 0 .22.36.4.8.4.44 0 .8.18.8.4 0 .22.54.4 1.2.4.66 0 1.2.18 1.2.4 0 .22.45.4 1 .4s1 .18 1 .4c0 .22.36.4.8.4.781 0 .8.267.8 10.976 0 6.887.149 11.069.4 11.224.22.136.404.552.409.924.011.765 4.023 4.876 4.759 4.876.264 0 .351.208.194.462-.158.256-.112.354.105.22.215-.132.893.02 1.507.338.911.473 3.617.58 14.672.58H200V282c0-25.96.045-47.335.1-47.5.055-.165-1.43-.359-3.3-.431-1.87-.072-3.46-.297-3.533-.5-.074-.203-.738-.369-1.477-.369-.738 0-1.454-.18-1.59-.4-.136-.22-.787-.4-1.447-.4s-1.112-.143-1.004-.317c.107-.174-.181-.345-.641-.38-.46-.035-.942-.217-1.072-.406-.13-.188-.821-.579-1.536-.868-.715-.289-1.3-.684-1.3-.878 0-.193-.277-.351-.616-.351-1 0-3.528-1.932-6.806-5.2-3.058-3.049-3.378-3.414-3.378-3.852 0-.233-.36-.75-.8-1.148-.44-.398-.8-1.056-.8-1.462 0-.406-.16-.738-.357-.738-.196 0-.64-.675-.988-1.5-.347-.825-.884-1.95-1.194-2.5-.791-1.407-1.461-3.666-1.461-4.928 0-.59-.18-1.072-.4-1.072-.23 0-.4-1.24-.4-2.92 0-1.738-.194-3.114-.48-3.4-.373-.373-.373-.587 0-.96.292-.292.48-1.712.48-3.624 0-1.729.144-3.054.32-2.945.176.108.365-.466.419-1.276.055-.81.271-1.645.48-1.854.21-.21.381-.722.381-1.139 0-.417.332-1.236.737-1.82.406-.584.99-1.647 1.298-2.362.308-.715.696-1.3.863-1.3.166 0 .302-.332.302-.738 0-.406.36-1.064.8-1.462.44-.398.8-.915.8-1.148 0-.438.32-.803 3.378-3.852 2.662-2.654 3.751-3.6 4.146-3.6.193 0 .678-.36 1.076-.8.398-.44 1.041-.8 1.429-.8.387 0 .764-.135.838-.3.195-.44 3.511-2.1 4.194-2.1.323 0 .475-.18.339-.4-.14-.226.188-.4.753-.4.55 0 1.099-.16 1.22-.356.293-.474 2.461-.847 6.827-1.174 1.98-.149 3.555-.405 3.5-.57-.055-.165-.1-21.54-.1-47.5V70.8h-13.976c-8.887 0-14.067.146-14.224.4m143.4 153.953c0 .195.37.451.823.569.675.176.738.113.351-.353-.528-.637-1.174-.755-1.174-.216" fill="#bce4ec"/><path d="M200.104 117.8c-.05 25.96.04 47.398.202 47.639.162.242 1.642.48 3.289.53 1.647.05 3.221.278 3.496.507.276.229 1.043.336 1.705.239.823-.12 1.204-.008 1.204.354 0 .3.436.531 1 .531 1.143 0 1.348-.714.3-1.049a15.045 15.045 0 0 1-1.54-.623c-.462-.219-1.182-.346-1.6-.281-.418.064-1.195-.122-1.726-.414-.649-.357-1.798-.465-3.498-.329l-2.533.204-.103-47.254-.103-47.254-.093 47.2M225.4 71.2c-.147.237.315.4 1.134.4.883 0 1.467.225 1.62.625.224.583 1.05.465 1.043-.149-.01-.841-3.343-1.611-3.797-.876m4.2 1.247c0 .246.9 1.356 2 2.468 1.1 1.112 2 2.251 2 2.533 0 .282.225.656.5.832.275.176.5.845.5 1.487 0 .641.225 1.241.5 1.333.608.203.701-2.128.1-2.5-.22-.136-.4-.59-.4-1.009 0-.418-1.073-1.848-2.385-3.176-2.454-2.484-2.815-2.737-2.815-1.968m5.798 28.356c-.303.491.797.971 1.389.605.234-.145.322-.431.196-.636-.305-.494-1.272-.475-1.585.031m2 .8c-.137.221.078.506.477.632.399.127 1.143.398 1.655.603.964.386 1.67.191 1.67-.462 0-.207-.45-.376-1-.376s-1-.18-1-.4c0-.522-1.479-.52-1.802.003m3.903 1.697c.092.275.475.502.85.503.375.002.81.182.966.4.156.219.534.451.84.516.897.192 6.63 3.052 6.776 3.381.074.165.479.3.9.3.422 0 .767.18.767.4 0 .22.32.4.712.4.391 0 .971.36 1.288.8.317.44.897.8 1.288.8.392 0 .712.18.712.4 0 .22.188.4.417.4.229 0 .803.36 1.275.8.472.44 1.095.8 1.383.8.289 0 .525.141.525.314 0 .172.533.629 1.185 1.014s1.417.925 1.7 1.199c.283.275 1.145.938 1.915 1.475.77.536 1.847 1.384 2.393 1.884 1.142 1.045 1.819.937 4.207-.676.88-.594 2.185-1.333 2.9-1.642.715-.31 1.3-.699 1.3-.866 0-.166.27-.302.6-.302.33 0 .6-.136.6-.302 0-.167.585-.557 1.3-.868.715-.311 1.39-.67 1.5-.798.319-.37 2.47-1.597 4.1-2.338.825-.376 1.5-.82 1.5-.988 0-.168.619-.306 1.376-.306.757 0 1.488-.18 1.624-.4.136-.22.867-.4 1.624-.4.757 0 1.376.18 1.376.4 0 .22.72.4 1.6.4.88 0 1.6.18 1.6.4 0 .22.27.4.6.4.33 0 .6.18.6.4 0 .22.212.4.472.4.634 0 3.928 3.568 3.928 4.256 0 .299.18.544.4.544.22 0 .4.36.4.8 0 .44.15.8.332.8.183 0 .588.495.9 1.1.312.605.659 1.19.773 1.3.113.11.637 1.055 1.163 2.1.527 1.045 1.109 1.9 1.295 1.9.185 0 .337.36.337.8 0 .44.136.8.302.8.167 0 .557.585.868 1.3.311.715.67 1.39.798 1.5.128.11.542.74.922 1.4.379.66.868 1.157 1.085 1.105.218-.053.3.156.182.463-.118.306.249 1.291.814 2.187.566.896 1.029 1.754 1.029 1.906 0 .152.244.56.542.908.298.347 1.061 1.621 1.697 2.831.635 1.21 1.246 2.29 1.358 2.4.253.249 1.09 1.713 2.173 3.8.456.88.92 1.69 1.031 1.8.11.11.455.695.767 1.3.312.605.79 1.1 1.062 1.1.298 0 .412.318.286.8-.115.44-.042.8.163.8.204 0 .619.63.921 1.4.302.77.696 1.4.875 1.4.179 0 .325.27.325.6 0 .33.18.6.4.6.22 0 .4.36.4.8 0 .44.18.8.4.8.22 0 .4.72.4 1.6 0 .88.18 1.6.4 1.6.22 0 .4-.619.4-1.376 0-.757-.18-1.488-.4-1.624-.22-.136-.4-.475-.4-.754 0-.687-4.439-8.841-6.047-11.108-.414-.584-.753-1.259-.753-1.5 0-.241-.146-.438-.325-.438-.179 0-.573-.63-.875-1.4-.302-.77-.696-1.4-.875-1.4-.179 0-.325-.27-.325-.6 0-.33-.18-.6-.4-.6-.22 0-.4-.36-.4-.8 0-.44-.18-.8-.4-.8-.22 0-.4-.36-.4-.8 0-.44-.18-.8-.4-.8-.22 0-.4-.27-.4-.6 0-.33-.18-.6-.4-.6-.22 0-.4-.27-.4-.6 0-.33-.18-.6-.4-.6-.22 0-.4-.36-.4-.8 0-.44-.18-.8-.4-.8-.22 0-.4-.236-.4-.525 0-.288-.32-.873-.711-1.3-.392-.426-1.206-1.791-1.81-3.034-.603-1.242-1.363-2.479-1.688-2.749-.325-.269-.591-.738-.591-1.041 0-.303-.191-.551-.424-.551-.233 0-.312-.18-.176-.4.136-.22.046-.4-.2-.4s-.349-.159-.229-.353c.12-.194-.23-1.011-.777-1.817s-.994-1.713-.994-2.014c0-.302-.142-.609-.315-.683-.173-.073-.813-.992-1.422-2.042-3.5-6.034-11.282-8.473-17.263-5.41-2.733 1.399-3.72 1.959-5.692 3.229-.931.6-1.876 1.09-2.1 1.09a.406.406 0 0 0-.408.4c0 .22-.36.4-.8.4-.44 0-.8.18-.8.4 0 .22-.281.4-.624.4-.343 0-.512.18-.376.4.136.22-.123.4-.576.4-.453 0-.824.18-.824.4 0 .22-.197.4-.438.4s-.994.395-1.672.879c-.679.483-1.101.663-.939.4.163-.264.095-.479-.151-.479-.482 0-3.391-2.159-4.447-3.3-.356-.385-.773-.7-.928-.7-.278 0-3.84-2.338-4.225-2.774-.207-.233-2.317-1.418-3.897-2.189-.493-.24-.898-.572-.9-.737-.002-.165-.273-.3-.603-.3-.33 0-.6-.18-.6-.4 0-.22-.36-.4-.8-.4-.44 0-.8-.18-.8-.4 0-.22-.36-.4-.8-.4-.44 0-.8-.18-.8-.4 0-.22-.36-.4-.8-.4-.44 0-.8-.18-.8-.4 0-.22-.234-.4-.52-.4-.736 0-2.673-.941-2.677-1.3-.002-.165-.363-.3-.803-.3-.44 0-.8-.18-.8-.4 0-.22-.465-.4-1.033-.4-.65 0-.971.186-.866.5m83.099 60.662c0 2.278-4.222 8.028-5.9 8.036-.275.001-.5.182-.5.402 0 .22-.36.4-.8.4-.44 0-.8.159-.8.353 0 .195-.315.454-.7.576-.701.222-2.924 1.488-3.3 1.879-.11.115-.695.426-1.3.692-.605.265-1.1.686-1.1.934s-.265.35-.589.225c-.325-.124-.73-.008-.9.258-.171.265-1.166.886-2.211 1.378-1.045.492-1.9 1.077-1.9 1.3 0 .223-.283.405-.628.405-.417 0-.585.292-.5.869.181 1.231 1.128 1.432 1.128.239 0-.724.342-1.093 1.4-1.508.77-.302 1.4-.675 1.4-.828 0-.153.315-.379.7-.501.696-.22 2.918-1.484 3.3-1.876.11-.113 1.055-.637 2.1-1.163 1.045-.527 1.9-1.109 1.9-1.295 0-.185.253-.337.562-.337 2.123 0 8.065-5.036 8.498-7.202.132-.659.398-1.198.59-1.198.193 0 .35-.72.35-1.6 0-.88-.18-1.6-.4-1.6-.22 0-.4.523-.4 1.162m-112 3.838c0 .33.265.6.588.6.323 0 1.223.36 2 .8.777.44 2.087 1.178 2.912 1.64 3.426 1.919 10.933 8.994 10.258 9.669-.098.097.097.405.432.683.336.278.61.739.61 1.024 0 .284.135.577.3.651.432.192 2.1 3.505 2.1 4.171 0 .309.27.562.6.562.333 0 .6-.356.6-.8 0-.44-.18-.8-.4-.8-.22 0-.4-.36-.4-.8 0-.44-.18-.8-.4-.8-.22 0-.4-.36-.4-.8 0-.44-.18-.8-.4-.8-.22 0-.4-.193-.4-.428 0-1.34-8.838-11.172-10.042-11.172-.215 0-.778-.36-1.25-.8-.472-.44-1.095-.8-1.383-.8-.289 0-.525-.18-.525-.4 0-.22-.36-.4-.8-.4-.44 0-.8-.18-.8-.4 0-.22-.36-.4-.8-.4-.44 0-.8-.18-.8-.4 0-.22-.36-.4-.8-.4-.444 0-.8.267-.8.6m91.856 15.678c-.503.502-.256 3.624.325 4.107.498.413.573.158.523-1.776-.057-2.176-.309-2.871-.848-2.331M232.4 189c0 1.117.584 1.341.957.367.384-1.001.289-1.367-.357-1.367-.373 0-.6.378-.6 1m72.673-.339c-.407.406-.33 6.056.085 6.313.551.34.843-.814.836-3.307-.006-2.25-.398-3.53-.921-3.006m-71.873 2.826c0 .634.196 1.349.436 1.589.279.279.436 2.776.436 6.924 0 4.148-.157 6.645-.436 6.924-.24.24-.436 1.03-.436 1.756s-.18 1.32-.4 1.32c-.22 0-.4.45-.4 1 0 .652.224 1 .643 1 .479 0 .582-.245.404-.954-.155-.619-.017-1.139.391-1.478.416-.344.557-.895.413-1.611-.13-.654-.007-1.262.311-1.525.685-.569.759-11.941.083-12.795-.245-.31-.445-1.103-.445-1.763 0-.66-.225-1.276-.5-1.37-.324-.111-.5.236-.5.983m71.856 13.591c-.395.394-.303 6.046.102 6.296.565.349.842-.83.842-3.583 0-2.367-.333-3.325-.944-2.713m-.556 7.377c-.588.594-.681 4.345-.108 4.345.543 0 .889-1.583.736-3.363-.103-1.192-.227-1.386-.628-.982m-72.9.533c0 .323-.343 1.198-.762 1.945l-1.3 2.312c-.296.525-.791 1.27-1.1 1.655-.309.385-.445.7-.303.7.402 0-1.291 1.96-3.974 4.6-2.918 2.871-4.561 4.289-4.561 3.935 0-.142-.315.023-.7.368-1.142 1.024-7.026 3.886-8 3.892-.495.003-.9.185-.9.405 0 .22-.645.4-1.433.4-.969 0-1.38.162-1.267.5.254.763 1.477.844 2.245.15a1.771 1.771 0 0 1 1.57-.388c.523.137.885.049.885-.215 0-.246.45-.447 1-.447s1-.18 1-.4c0-.22.36-.4.8-.4.44 0 .8-.18.8-.4 0-.22.36-.4.8-.4.44 0 .8-.136.8-.302 0-.167.506-.527 1.125-.801.619-.273 1.511-.857 1.983-1.297.472-.44.968-.8 1.101-.8 1.02 0 8.991-9.196 8.991-10.372 0-.235.18-.428.4-.428.22 0 .4-.36.4-.8 0-.44.18-.8.4-.8.22 0 .4-.36.4-.8 0-.44.18-.8.4-.8.22 0 .4-.36.4-.8 0-.444-.267-.8-.6-.8-.33 0-.6.265-.6.588m71.6 5.212c0 .622.227 1 .6 1 .33 0 .6.179.6.398 0 .219.855.793 1.9 1.277 1.045.483 2.046 1.118 2.225 1.41.178.293.491.429.694.303.204-.126.767.14 1.251.592.485.451 1.117.82 1.405.82.289 0 .525.18.525.4 0 .22.278.4.617.4.339 0 1.003.36 1.475.8.472.44 1.095.8 1.383.8.289 0 .525.18.525.4 0 .22.36.4.8.4.44 0 .8.18.8.4 0 .22.258.4.573.4 1.608 0 5.827 5.819 5.827 8.038 0 .639.18 1.162.4 1.162.22 0 .4-.72.4-1.6 0-.88-.157-1.6-.35-1.6-.192 0-.451-.503-.574-1.118-.442-2.21-4.019-5.507-7.476-6.892-.77-.308-1.749-.882-2.175-1.275-.427-.393-1.012-.715-1.3-.715-.289 0-.525-.18-.525-.4 0-.22-.36-.4-.8-.4-.44 0-.8-.159-.8-.353 0-.195-.315-.454-.7-.576-.685-.217-2.904-1.475-3.3-1.871-.11-.11-.74-.502-1.4-.871-.66-.37-1.258-1.045-1.328-1.5-.184-1.195-1.272-1.049-1.272.171m-103.002 16.7c-.12.495-.167 21.96-.106 47.7l.111 46.8.099-47.254.098-47.254 2.5.189c1.875.142 2.7.034 3.3-.433.743-.578.564-.623-2.492-.635-3.089-.012-3.306.043-3.51.887M324.4 241c0 .77.18 1.4.4 1.4.22 0 .4-.63.4-1.4 0-.77-.18-1.4-.4-1.4-.22 0-.4.63-.4 1.4m-.8 2.376c0 .563-.18 1.024-.4 1.024-.22 0-.4.27-.4.6 0 .33-.136.6-.302.6-.167 0-.557.585-.868 1.3-.311.715-.67 1.39-.798 1.5-.386.333-1.666 2.553-1.903 3.3-.122.385-.381.7-.576.7-.194 0-.353.36-.353.8 0 .44-.18.8-.4.8-.22 0-.4.236-.4.525 0 .288-.315.873-.7 1.3-.385.427-1.077 1.496-1.538 2.375-.462.88-1.252 2.32-1.757 3.2-.505.88-1.367 2.41-1.915 3.4-.548.99-1.173 2.023-1.388 2.295-.215.272-.287.767-.159 1.1.143.373.004.605-.364.605-.328 0-.814.495-1.079 1.1-.266.605-.578 1.19-.692 1.3-.115.11-.479.74-.808 1.4-.329.66-.689 1.29-.799 1.4-.252.251-1.095 1.727-2.171 3.8-.456.88-.92 1.69-1.03 1.8-.396.396-1.654 2.615-1.871 3.3-.122.385-.381.7-.576.7-.194 0-.353.266-.353.591 0 .881-4.293 5.009-5.209 5.009-.435 0-.791.18-.791.4 0 .22-.63.4-1.4.4-.77 0-1.4.18-1.4.4 0 .22-.72.4-1.6.4-.88 0-1.6-.18-1.6-.4 0-.22-.615-.4-1.367-.4-.751 0-1.426-.135-1.5-.3-.073-.165-.988-.733-2.033-1.263-1.045-.529-1.9-1.114-1.9-1.3 0-.185-.36-.337-.8-.337-.44 0-.8-.146-.8-.325 0-.179-.63-.573-1.4-.875-.77-.302-1.4-.696-1.4-.875 0-.179-.27-.325-.6-.325-.33 0-.6-.136-.6-.302 0-.167-.585-.556-1.3-.866-.715-.309-2.02-1.048-2.9-1.642-2.535-1.712-3.019-1.741-4.654-.285-.8.712-2.487 2.015-3.749 2.895-1.262.88-2.53 1.825-2.818 2.1-.287.275-.715.5-.95.5-.236 0-.429.18-.429.4 0 .22-.255.4-.567.4-.311 0-.626.135-.7.3-.073.165-.993.736-2.044 1.269-1.276.646-1.778 1.102-1.511 1.369.267.267.703.238 1.311-.088l2.111-1.131c.66-.354 1.29-.759 1.4-.902.11-.142 1.37-1.06 2.8-2.038 1.43-.978 2.69-1.869 2.8-1.979.84-.84 3.64-2.8 4-2.8.246 0 .314-.215.151-.479-.162-.263.26-.083.939.4.678.484 1.431.879 1.672.879.241 0 .438.18.438.4 0 .22.371.4.824.4.453 0 .712.18.576.4-.136.22.033.4.376.4.343 0 .624.18.624.4 0 .22.36.4.8.4.44 0 .8.18.8.4 0 .22.199.4.442.4s1.242.54 2.22 1.2c.978.66 1.863 1.2 1.966 1.2.103 0 .902.451 1.775 1.002.872.551 1.904 1.064 2.292 1.14.388.076 1.065.3 1.505.498 4.744 2.135 12.133-.877 15.305-6.24.586-.99 1.207-1.86 1.38-1.933.173-.074.315-.381.315-.683 0-.301.447-1.208.994-2.014.547-.806.897-1.623.777-1.817-.12-.194-.017-.353.229-.353s.336-.18.2-.4c-.136-.22-.057-.4.176-.4.233 0 .424-.248.424-.551 0-.303.266-.772.592-1.042.701-.583 1.808-2.705 1.808-3.468 0-.297.18-.539.4-.539.22 0 .4-.242.4-.538 0-.296.325-.832.722-1.191.397-.36.971-1.288 1.275-2.062.304-.775.699-1.409.878-1.409.179 0 .325-.27.325-.6 0-.33.18-.6.4-.6.22 0 .4-.27.4-.6 0-.33.18-.6.4-.6.22 0 .4-.36.4-.8 0-.44.18-.8.4-.8.22 0 .4-.36.4-.8 0-.44.152-.8.337-.8.186 0 .771-.855 1.3-1.9.53-1.045 1.098-1.96 1.263-2.033.165-.074.3-.316.3-.539 0-.222.339-.882.753-1.466.87-1.227 2-3.191 3.945-6.862.758-1.43 1.541-2.771 1.74-2.98.483-.508.461-1.712-.038-2.02-.227-.14-.4.196-.4.776M252.4 291.2c0 .22-.36.4-.8.4-.44 0-.8.146-.8.325 0 .179-.63.573-1.4.875-.77.302-1.4.696-1.4.875 0 .179-.252.325-.559.325-.308 0-1.527.509-2.709 1.131-1.182.621-2.37 1.056-2.64.966-.27-.09-.601.12-.734.467-.133.347-.42.521-.638.387-.218-.135-.784-.06-1.258.166s-1.188.516-1.587.644-.614.415-.477.636c.323.523 1.802.525 1.802.003 0-.22.272-.4.605-.4.333 0 .963-.18 1.4-.4l1.59-.8c.437-.22 1.067-.4 1.4-.4.333 0 .605-.18.605-.4 0-.22.36-.4.8-.4.44 0 .8-.18.8-.4 0-.22.36-.4.8-.4.44 0 .8-.18.8-.4 0-.22.36-.4.8-.4.44 0 .8-.18.8-.4 0-.22.36-.4.8-.4.44 0 .8-.146.8-.325 0-.179.63-.573 1.4-.875 1.545-.606 1.842-1.2.6-1.2-.44 0-.8.18-.8.4m-17.002 7.603c-.303.491.797.971 1.389.605.234-.145.322-.431.196-.636-.305-.494-1.272-.475-1.585.031m-.742 20.275c-.141.14-.256.648-.256 1.127 0 1.928-3.333 6.209-5.465 7.02-.944.359-1.297 1.175-.509 1.175 1.155 0 5.574-3.77 5.574-4.756 0-.244.18-.444.4-.444.22 0 .4-.349.4-.776 0-.427.18-.888.4-1.024.22-.136.4-.676.4-1.2 0-.984-.495-1.572-.944-1.122m-8.958 9.183c-.787.324-.159.939.959.939.63 0 .947-.188.843-.5-.184-.553-1.027-.758-1.802-.439" fill="#9cccdc"/></g></svg>