<svg fill="none" xmlns="http://www.w3.org/2000/svg" viewBox="0 0 50 50"><path d="M13.281 1.465c0-.81-.654-1.465-1.465-1.465H1.465C.655 0 0 .654 0 1.465V7.52c0 .81.654 1.464 1.465 1.464H13.28v-7.52Z" fill="#61BDF6"/><path d="M50 1.465V7.52c0 .81-.654 1.464-1.465 1.464H11.816V0h36.72C49.345 0 50 .654 50 1.465Z" fill="#5A5D9D"/><path d="M50 7.52v41.015c0 .81-.654 1.465-1.465 1.465H1.465C.655 50 0 49.346 0 48.535V7.52h50Z" fill="#E0F4FF"/><path d="M36.719 11.914H13.28c-.81 0-1.465.654-1.465 1.465v17.578c0 .81.655 1.465 1.465 1.465h4.395v2.93L25 32.422h11.719c.81 0 1.465-.654 1.465-1.465V13.379c0-.81-.655-1.465-1.465-1.465Z" fill="#61BDF6"/><path d="M19.14 23.633a1.465 1.465 0 1 0 0-2.93 1.465 1.465 0 0 0 0 2.93ZM25 23.633a1.465 1.465 0 1 0 0-2.93 1.465 1.465 0 0 0 0 2.93Z" fill="#FFF5F5"/><path d="M30.86 23.633a1.465 1.465 0 1 0 0-2.93 1.465 1.465 0 0 0 0 2.93Z" fill="#fff"/><path d="M32 39.167v4.666C32 44.48 31.448 45 30.765 45H17.177c-.19 0-.38-.039-.552-.124l-4.941-2.334A1.153 1.153 0 0 1 11 41.5c0-.443.264-.848.684-1.042l4.94-2.334c.174-.077.363-.124.553-.124h13.588c.683 0 1.235.521 1.235 1.167Z" fill="#FAAB63"/><path d="M32 39.167v4.666C32 44.48 31.404 45 30.667 45H24v-7h6.667c.737 0 1.333.521 1.333 1.167Z" fill="#FAAB63"/><path d="M38 39.167v4.666C38 44.48 37.464 45 36.8 45h-3.6c-.664 0-1.2-.521-1.2-1.167v-4.666c0-.646.536-1.167 1.2-1.167h3.6c.664 0 1.2.521 1.2 1.167Z" fill="#61BDF6"/><path d="M31 38h2v7h-2v-7Z" fill="#fff"/></svg>