<svg fill="none" xmlns="http://www.w3.org/2000/svg" viewBox="0 0 102 97"><path d="M48.563 13.156s.813.266 1.37 2.997l4.364-4.859-1.008-1.436-4.727 3.298Z" fill="#FFB6AD"/><path d="M43.902 4.513c-.146.187-1.103 2.141-1.284 3.151-.114.666 1.694.752 1.694.752l.066-3.583-.476-.32Z" fill="#FF8178"/><path d="M51.883 12.423c2.184-1.552 2.52-4.855.751-7.378-1.77-2.523-4.975-3.31-7.16-1.758-2.184 1.552-2.52 4.855-.75 7.378 1.77 2.523 4.975 3.31 7.159 1.758Z" fill="#FFB6AD"/><path d="M52.25 6.98c-.592.364-.846 1.15-.705 1.836.102.503.382.954.507 1.45.234.926-.088 1.9-.505 2.759-.416.858-.936 1.682-1.135 2.616l4.125-4.258-2.286-4.402Z" fill="#FF9C90"/><path d="M47.355 10.903a2.055 2.055 0 0 0 2.048-2.06 2.055 2.055 0 0 0-2.048-2.062 2.055 2.055 0 0 0-2.048 2.061c0 1.139.917 2.061 2.048 2.061Z" fill="#FF8178"/><path d="M45.812 6.75c.262-.026.451-.274.424-.554-.028-.281-.262-.487-.524-.461-.262.026-.451.274-.424.555.028.28.262.487.524.46Z" fill="#211E21"/><path d="M56.733 8.079c.119-.189.234-.382.342-.577a13.262 13.262 0 0 0 1.582-6.393c0-.443-.676-.69-.881-.241-.75 1.595-2.426 1.897-3.885 1.344-.807-.444-1.563-.983-2.39-1.418A6.043 6.043 0 0 0 48.794 0c-1.7-.018-3.254 1.043-4.231 2.44-.38.54-.697 1.161-.686 1.831 0 .744 1.092.981 1.815 1.128.73.108 1.472.115 2.204.022a6.736 6.736 0 0 1 2.194.082c.251-.413.342 0 .705-.309.325-.277.646-.275 1.052.13.252.25-.026 1.903 0 2.236a3.44 3.44 0 0 0 .624 1.746c.36.396.791.721 1.27.959.247.068.706.221.952.16.422-.12 1-.944 1.273-1.283.275-.34.531-.695.767-1.063Z" fill="#6A3445"/><path d="M47.375 12.692a3.895 3.895 0 0 1-1.8-.508.719.719 0 0 1-.254-.984.718.718 0 0 1 .436-.332.71.71 0 0 1 .542.075c.366.208.78.313 1.201.304.86-.093 1.455-.426 1.821-1.014.922-1.488.21-4.337-.143-5.31a.723.723 0 0 1 .442-.885.71.71 0 0 1 .9.4c.062.168 1.491 4.169.016 6.56-.604.977-1.574 1.554-2.881 1.687a2.4 2.4 0 0 1-.28.007Z" fill="#6A3445"/><path d="M45.104 4.507a1.337 1.337 0 0 1-1.125-.358 1.757 1.757 0 0 1-.52-1.083" stroke="#6A3445" stroke-width="6" stroke-miterlimit="10" stroke-linecap="round"/><path d="M78.242 86.225s-19.792.238-28.84 0c-9.048-.237-33.355-1.091-37.815-.444-2.361.34-4.747.273-7.1.702-.7.126-1.494.359-1.778 1.016-.252.575.022 1.273.487 1.69.465.418 1.08.617 1.682.782 5.902 1.617 12.267.914 18.099 2.753 1.43.444 2.588 1.44 4.014 1.895 3.239 1.036 6.983.901 10.33.963 9.92.184 19.808 1.052 29.723 1.332 2.826.08 5.732.2 8.536-.163.662-.086 1.605-.142 2.168-.548 1.239-.887-.12-2.582-1.045-3.213-.882-.599-1.914-.938-2.831-1.484a.332.332 0 0 1-.168-.166c-.061-.193.205-.313.406-.335 5.849-.666 11.724-.338 17.571.25 2.223.165 4.022.058 4.127-1.753.106-1.81-5.61-3.37-17.567-3.277Z" fill="#A9DEFF"/><path d="M82.872 87.674c10.564 0 19.128-8.619 19.128-19.25 0-10.633-8.564-19.252-19.128-19.252s-19.128 8.62-19.128 19.251c0 10.632 8.564 19.251 19.128 19.251Z" fill="#FAAB63"/><path d="M66.92 73.056c-.001-3.866 1.155-7.642 3.318-10.837a19.147 19.147 0 0 1 8.805-7.076 19.01 19.01 0 0 1 11.236-.86 19.099 19.099 0 0 1 9.766 5.657 19.233 19.233 0 0 0-5.068-6.422 19.084 19.084 0 0 0-7.264-3.716 19.012 19.012 0 0 0-8.142-.336 19.06 19.06 0 0 0-7.543 3.105 19.203 19.203 0 0 0-5.573 5.983 19.368 19.368 0 0 0-1.735 15.93 19.276 19.276 0 0 0 4.153 7.057 19.29 19.29 0 0 1-1.954-8.485Z" fill="#DD904A"/><path d="M76.168 59.523c-.974-.168-1.71.584-2.317 1.267a8.204 8.204 0 0 0-1.492 2.479c-.38.954 1.155 1.369 1.53.424a6.113 6.113 0 0 1 .882-1.554 6.496 6.496 0 0 1 .908-.923c.13-.11.297-.122.057-.162 1.01.187 1.429-1.367.432-1.53Z" fill="#DD904A"/><path d="m10.111 78.055 2.575 3.79a21.106 21.106 0 0 1-2.103 2.5c-3.887-1.189-2.946-4.688-2.946-4.688.98.067 2.474-1.602 2.474-1.602ZM66.03 78.122c0 .046 0 3.06-5.476 2.536.57-1.666-1.91-4.107-1.91-4.107L63.6 73.64a11.69 11.69 0 0 0 2.425 4.484l.006-.002Z" fill="#fff"/><path d="M64.135 75.109c-.458.739-1.323 1.36-1.962 1.81a3.688 3.688 0 0 1-2.646.666c.117.155.234.322.349.497a3.906 3.906 0 0 0 2.53-.748c.662-.46 1.438-1.023 1.954-1.717-.07-.164-.15-.333-.225-.508Z" fill="#2E3257"/><path d="M64.897 76.584c-.089-.144-.175-.295-.263-.444-1.036 1.51-2.632 2.663-4.497 2.372.092.165.175.335.249.508 1.836.13 3.428-.954 4.51-2.436Z" fill="#2E3257"/><path d="M65.296 77.19a6.625 6.625 0 0 1-1.905 1.644c-.847.524-1.841 1.09-2.826.717.042.17.066.342.072.517.869.222 1.733-.093 2.54-.548a7.93 7.93 0 0 0 2.412-1.935 10.099 10.099 0 0 1-.293-.395ZM1.702 73.888s-1.257.333-.661 2.124c.272.78.587 1.545.943 2.29.86 1.83 2.205 4.036 4.028 5.547 2.278 1.866 2.745 1.955 2.838 1.932-1.905 1.139-4.055-1.886-5.763-3.931C1.377 79.804-1.27 74.947.7 73.986c.311-.15.665-.19 1.001-.111v.013ZM67.587 79.828c.661.888.621 1.729-.986 3.723-3.688 4.576-6.962 4.063-10.141 4.123-3.18.06-3.21-.635-3.21-.635-.078-.108-.144-.221-.203-.312 0 0 1.693.137 3.508.193 1.593.049 3.28.035 3.997-.193a11.085 11.085 0 0 0 4.317-2.624 11.178 11.178 0 0 0 2.718-4.275Z" fill="#2E3257"/><path d="M3.969 75.521s.22 1.815-1.984 2.78a22.33 22.33 0 0 1-.933-2.3c-.604-1.791.661-2.124.661-2.124.741.162 1.524.821 2.256 1.644ZM56.301 84.253s1.237.82.254 2.662a78.808 78.808 0 0 1-3.508-.193c-1.453-2.423 1.588-2.252 2.809-2.38.151-.014.3-.044.445-.09Z" fill="#B57A60"/><path d="M10.583 84.346a9.97 9.97 0 0 1-1.711 1.413l-.022.013c-.093.023-.56-.066-2.838-1.932-1.834-1.502-3.168-3.708-4.028-5.547 2.205-.966 1.985-2.78 1.985-2.78.96 1.076 1.85 2.44 2.513 3.359.384.537.78.75 1.15.774.005.011-.936 3.51 2.95 4.7Z" fill="#DA9C80"/><path d="M5.701 76.784c-.126-.282-.533-.036-.41.244.19.424.183 1.05-.348 1.194-.22.057-.236.424 0 .461a.312.312 0 0 0 .258-.042c.736-.304.793-1.203.5-1.857ZM4.813 76.15c-.122-.282-.532-.038-.41.241.185.426.174 1.052-.36 1.192-.22.057-.238.421 0 .461a.308.308 0 0 0 .258-.04c.736-.297.8-1.191.512-1.855ZM7.938 78.022a3.348 3.348 0 0 0-.836.118c-.066.017-.134.033-.198.055 0-.162-.011-.324-.011-.472a.24.24 0 0 0-.238-.24.238.238 0 0 0-.238.24c0 .221.068.605-.033.814a.796.796 0 0 1-.34.32.25.25 0 0 0-.095.024l-.13.062c-.262.124-.064.481.183.444a1 1 0 0 0 .34-.142c-.016.532.062 1.14.61 1.125.327 0 .442-.273.442-.566 0-.169-.025-.335-.045-.502.527.149 1.149.05 1.21-.472.04-.42-.18-.797-.62-.808Zm-1.02 1.857c-.051-.192-.08-.39-.087-.588v-.184c0 .073.025.147.033.222.01.075.11.504.053.55Zm1.137-1.134c-.068.173-.375.136-.531.098a1.393 1.393 0 0 1-.272-.102c0-.049-.02-.1-.028-.149.145-.035.292-.06.44-.073.177-.018.495-.069.39.229v-.003Z" fill="#2E3257"/><path d="M8.173 79.555c-.145.06-.3.095-.456.102.324 1.62 1.265 3.832 2.842 4.678l.03.01c.12-.119.234-.239.349-.359-1.552-.705-2.452-2.889-2.765-4.43ZM8.848 79.183a6.277 6.277 0 0 0 3.058 3.692c.11-.136.22-.262.3-.377a5.791 5.791 0 0 1-1.852-1.502 5.834 5.834 0 0 1-1.094-2.124c-.137.106-.273.213-.412.31Z" fill="#2E3257"/><path d="M8.744 79.251a3.58 3.58 0 0 1-.441.247c.383 1.582 1.495 3.328 2.95 4.122.114-.126.22-.25.326-.373-1.409-.723-2.494-2.48-2.835-3.996Z" fill="#2E3257"/><path d="M2.705 77.9a12.373 12.373 0 0 0 2.76 4.365 12.277 12.277 0 0 0 4.295 2.846c.135-.113.27-.222.4-.353a.24.24 0 0 0-.043-.02 11.671 11.671 0 0 1-3.873-2.382h1.715a3.71 3.71 0 0 1-.203-.48H5.964a.218.218 0 0 0-.16.06 11.811 11.811 0 0 1-2.706-4.353 3.273 3.273 0 0 1-.393.317Z" fill="#B57A60"/><path d="M66.03 78.122c.626.714 1.195 1.218 1.557 1.706a11.179 11.179 0 0 1-2.718 4.275 11.085 11.085 0 0 1-4.318 2.624c-.716.221-2.403.242-3.997.193.984-1.846-.253-2.663-.253-2.663 1.14-.35 2.357-1.553 3.847-2.973.184-.17.323-.384.403-.622 5.48.52 5.48-2.494 5.48-2.54Z" fill="#DA9C80"/><path d="M66.936 79.09c-.946 1.477-1.945 2.977-3.292 4.109.157-.909.23-1.83.22-2.752-.149.045-.305.085-.475.12.006.968-.084 1.934-.267 2.885a.245.245 0 0 0 .015.15c-1.684 1.216-4.083 2.313-6.204 2.137a2.637 2.637 0 0 1-.083.468c2.204.182 4.57-.858 6.356-2.072 1.737-1.178 2.945-2.936 4.072-4.684-.108-.118-.223-.237-.342-.362Z" fill="#B57A60"/><path d="M58.989 83.853c-.318-.708-1.296-.887-1.984-.76-.302.05-.175.514.125.46.487-.081 1.222.045 1.444.542.128.28.54.038.415-.242ZM59.541 83.099c-.322-.788-1.137-.874-1.89-.843-.306.013-.306.492 0 .479.483-.02 1.207-.06 1.432.49.114.282.575.158.458-.126ZM61.45 81.497c-.22-.444-.805-.47-1.261-.258.022-.579-.22-1.2-.8-1.276-.825-.108-.609.937-.327 1.591-.092-.022-.183-.037-.26-.053-.3-.053-.428.408-.126.464.216.036.428.093.633.169.185.07.498.162.536.379.053.304.514.175.46-.127a.657.657 0 0 0-.07-.19c.266.13.564.174.856.126a.567.567 0 0 0 .379-.325.575.575 0 0 0-.02-.5Zm-2.143-1.065c.262-.05.375.444.388.623.024.192 0 .388-.07.568a1.676 1.676 0 0 1-.318-1.191Zm1.012 1.28c.291-.144.712-.186.714.042.002.229-.46.06-.714-.042ZM67.974 40.383c.849 8.033-.27 8.137-3.556 8.91-3.288.771-19.049-5.87-19.049-5.87 1.764-.563 10.038-1.997 15.464-3.004l.035.19a30.82 30.82 0 0 0 7.106-.226Z" fill="#2E3257"/><path d="M89.44 43.852s-2.884-1.496-2.977-2.94c-.093-1.445-.549-5.645-.366-6.721.183-1.077 2.445-2.204 2.445-2.204-1.832-2.864-4.48-5.247-6.497-6.816 0 0 .055 12.971-14.07 15.219.848 8.032-.27 8.137-3.557 8.909-3.287.772-19.048-5.87-19.048-5.87-.905.276-1.79.615-2.646 1.017-.822.39-1.59.884-2.288 1.469a4.367 4.367 0 0 1 2.478 1.817 4.415 4.415 0 0 1-.774 5.726 4.35 4.35 0 0 1-2.87 1.084c-.11 0-.221 0-.325-.013.243.583.517 1.153.823 1.706a38.445 38.445 0 0 0 2.425 3.803c4.497 6.304 11.04 12.275 14.436 15.017 5.574-.912 6.411-5.114 6.411-5.114-.549-2.574-1.483-5.678-2.751-7.746-2.304-3.752-6.802-6.621-6.802-6.621 24.016 0 32.69-4.165 35.952-11.722Z" fill="#444A72"/><path d="M88.543 31.987c1.677 2.614 2.676 5.63 1.909 8.794a18.895 18.895 0 0 1-1.012 3.07s-2.884-1.495-2.977-2.94c-.092-1.444-.548-5.644-.365-6.72.183-1.077 2.445-2.204 2.445-2.204ZM82.592 40.805c-.22-2.643-1.556-5.294-3.11-7.411a16.739 16.739 0 0 0 2.564-8.223 31.918 31.918 0 0 0-2.898-2.035c1.744 12.162-11.177 15.767-13.92 16.42-.743.18-2.368.49-4.39.86l.036.192c2.369.2 4.753.125 7.106-.222l.114-.02a.244.244 0 0 0 .1.461c1.92.035 3.798.57 5.452 1.553a.238.238 0 0 0 .35-.268.242.242 0 0 0-.11-.147 11.56 11.56 0 0 0-5.688-1.626c5.681-.959 9.04-3.668 11.008-6.537 1.47 2.044 2.778 4.613 2.928 7.138.156 2.663-2.009 4.178-4.178 5.153a29.836 29.836 0 0 1-8.429 2.405c-2.775.355-5.578.34-8.378.393-4.883.093-10.238.383-14.46 3.155-1.543 1.007-2.804 2.7-1.744 4.533 1.09 1.884 3.441 3.117 5.243 4.19 2.38 1.415 4.801 2.788 6.614 4.943 1.812 2.154 3.018 4.835 4.169 7.426-.961.828-2.348 1.578-4.346 1.904a19.78 19.78 0 0 0 2.02 1.509c1.764.994 4.716-.994 4.936-2.219.097-.546-.09-2.294-.538-4.398a6.204 6.204 0 0 1-1.697 2.885c-.986-2.22-1.998-4.46-3.426-6.435-1.358-1.875-3.087-3.308-5.023-4.535-2.11-1.332-4.376-2.441-6.276-4.087-1.048-.904-2.077-2.173-1.345-3.608.56-1.11 1.75-1.791 2.804-2.341 4.85-2.53 10.512-2.366 15.825-2.474 5.26-.111 10.603-.768 15.312-3.317 2.004-1.09 3.585-2.779 3.375-5.217ZM42.635 47.34a4.41 4.41 0 0 1-.203 5.846l.203-5.846Z" fill="#2E3257"/><path d="m42.74 44.313.333-.024c-.934.44-1.816.986-2.628 1.626l-.143.124c-.082.076-.163.151-.243.222l-.086.087c-.037.035-.072.073-.11.11-.037.038-.128.14-.19.223-.061.082-.083.095-.123.144a6.701 6.701 0 0 0-.251.322 4.386 4.386 0 0 0-.82-1.554 26.915 26.915 0 0 1 4.261-1.28Z" fill="#191C3A"/><path d="m42.635 47.34-.203 5.846a4.352 4.352 0 0 1-3.152 1.356c-.11 0-.219-.005-.325-.013l-.103-.262-.08-.209-.04-.104a10.39 10.39 0 0 1-.295-.94 9.212 9.212 0 0 1-.273-1.492 4.428 4.428 0 0 0 1.135-4.38 6.858 6.858 0 0 1 .375-.466 5.82 5.82 0 0 0 .19-.222c.064-.08.073-.075.11-.11l.086-.087c.08-.078.161-.153.243-.222l.143-.124c.858.24 1.622.738 2.19 1.428Z" fill="#2E3257"/><path d="M42.193 60.038v.06a18.18 18.18 0 0 1-1.792 3.528c-4.013-3.224-5.047-7.464-5.089-10.86a4.321 4.321 0 0 0 2.851-1.242c.052.503.145 1.001.278 1.49.08.303.178.616.295.94l.04.104c.024.067.05.138.08.209l.103.262c.242.583.517 1.153.822 1.706a38.473 38.473 0 0 0 2.412 3.803Z" fill="#232644"/><path d="M40.396 63.626c-5.291 8.197-16.881 13.95-20.255 15.017a27.94 27.94 0 0 0-4.12 1.711s-3.64-1.331-3.931-5.299c3.748-3.357 10.408-8.846 12.549-10.761 1.903-1.702 5.434-7.686 8.157-12.188a4.303 4.303 0 0 0 2.313.665h.198c.042 3.39 1.07 7.631 5.089 10.855ZM39.3 47.142a4.428 4.428 0 0 1-1.136 4.38c-.01-.106-.019-.21-.026-.313a7.817 7.817 0 0 1 0-.819c0-.048 0-.1.01-.146v-.08c0-.055.012-.11.018-.164.007-.053.016-.127.027-.189.01-.062.018-.126.029-.186a6.297 6.297 0 0 1 .159-.663c.026-.08.05-.16.079-.24l.05-.142c.018-.047.04-.098.058-.149.046-.11.097-.222.147-.33.051-.11.093-.185.141-.276.049-.09.069-.117.102-.175l.086-.14c.086-.126.17-.248.256-.368Z" fill="#2E3257"/><path d="M39.299 47.142c-.086.12-.17.242-.25.368-.03.047-.057.094-.085.14a4.643 4.643 0 0 0-.243.45c-.044.094-.101.222-.148.331a2.94 2.94 0 0 0-.057.149c-.018.05-.035.093-.05.142l-.08.24a5.442 5.442 0 0 0-.121.479c-.014.062-.027.122-.038.184-.01.062-.022.124-.028.186-.007.063-.02.125-.027.189-.006.064-.013.109-.017.164v.08c0 .047 0 .098-.012.147a7.26 7.26 0 0 0 0 .818c0 .104.014.209.023.315a4.32 4.32 0 0 1-2.851 1.243 18.392 18.392 0 0 1 .842-5.803c.04-.04.08-.077.124-.115l.09-.08a2.39 2.39 0 0 1 .117-.095l.11-.078.029-.022.112-.08a8.39 8.39 0 0 1 1.06-.599l.164-.075c.167-.078.34-.154.513-.222.375.453.655.979.823 1.544Z" fill="#191C3A"/><path d="M35.835 47.342c.1-.132.207-.258.322-.377a18.395 18.395 0 0 0-.849 5.802h-.198a4.303 4.303 0 0 1-2.313-.666c.613-1.018 1.186-1.959 1.69-2.76l.115-.18.137-.222c.064-.104.13-.204.192-.3a5.25 5.25 0 0 1 .106-.161c.121-.182.233-.355.342-.51.136-.203.264-.382.381-.538l.075-.088ZM36.157 54.04c-2.775 4.827-5.604 9.741-9.608 13.664-2.13 2.088-4.548 3.886-6.92 5.683-2.125 1.606-4.321 3.124-6.716 4.293a5.945 5.945 0 0 1-.809-2.625c-1.433 1.287-2.436 2.26-2.586 2.594-.549 1.216 1.984 4.307 3.18 4.196.696-.064 1.794-.714 3.337-1.49a6.744 6.744 0 0 1-2.866-2.27c2.472-1.212 4.731-2.792 6.92-4.459 2.327-1.775 4.699-3.532 6.791-5.582 4.033-3.952 6.885-8.9 9.683-13.757a.241.241 0 0 0-.092-.308.237.237 0 0 0-.313.062Z" fill="#232644"/><path d="M54.896 55.567a23.597 23.597 0 0 0-7.286-1.73c-.307-.023-.304.456 0 .479 2.035.154 4.042.577 5.968 1.258l1.318-.007Z" fill="#2E3257"/><path d="M69.346 44.173c.046.888.026 1.85-.505 2.559a2.74 2.74 0 0 1-1.572.94c-.35.08-.71.12-1.07.118h-.176c-.092 0-.187 0-.282-.018a1.045 1.045 0 0 1-.115 0 11.664 11.664 0 0 1-1.724-.322 4.407 4.407 0 0 1 1.312-3.045 4.351 4.351 0 0 1 4.068-1.133l.029.367c.013.17.024.352.035.534Z" fill="#FF9C90"/><path d="M69.346 44.173c-.011-.182-.022-.364-.035-.546.013.182.024.364.035.546ZM68.512 38.08l-9.655-1.553c-.269-.73-.536-1.46-.802-2.19.987.062 2.079-.044 2.938-.069a33.44 33.44 0 0 0 6.502-.843c.141.621.282 1.243.421 1.868.21.923.408 1.853.596 2.787Z" fill="#FF9C90"/><path d="M65.627 47.761Z" fill="#FFB6AD"/><path d="M61.76 17.866a4.571 4.571 0 0 0-2.895-.645v-.027s4.205-1.063 7.11 4.107c2.906 5.17 6.86 15.228 6.86 15.228a25.023 25.023 0 0 1-4.19 2.252 56.575 56.575 0 0 0-.134-.694c-.188-.934-.39-1.864-.598-2.792a392.67 392.67 0 0 0-.42-1.868 329.27 329.27 0 0 0-1.86-7.837c-.376-1.524-.764-3.053-1.39-4.49-.552-1.272-1.323-2.497-2.483-3.234Z" fill="#DD904A"/><path d="M65.634 25.584c-.377-1.525-.765-3.054-1.391-4.491-.552-1.265-1.323-2.49-2.483-3.227a4.667 4.667 0 0 0-5.573.562 5.017 5.017 0 0 0-1.103 1.606 7.18 7.18 0 0 0-.529 3.29c0 .08.011.158.018.238.148 1.689.738 3.308 1.323 4.902l2.156 5.869c.987.062 2.079-.045 2.939-.07a33.44 33.44 0 0 0 6.501-.842 427.12 427.12 0 0 0-1.858-7.837Z" fill="#F2C94C"/><path d="M79.303 23.298c-.06-.277-1.254-.887-1.506-1.08a97.221 97.221 0 0 1-1.508-1.11c-4.13-3.013-8.31-6.22-12.86-8.574-1.466-.759-4.167-2.219-5.864-1.457-.576.256-1.13.56-1.658.905-.236.153-.468.313-.695.477-.99.714-1.969 1.447-2.934 2.197-.401.3-.784.627-1.144.976a4.04 4.04 0 0 0-.805 1.11c-.09.187-.164.383-.22.583-.091.343-.154.692-.188 1.045-.322 3.009.505 5.99 1.843 8.727a29.873 29.873 0 0 0 1.879 3.275c1.816 2.771 4.021 5.252 5.877 7.988a161.98 161.98 0 0 1-.661-1.826c-.27-.73-.537-1.46-.803-2.19l-2.156-5.87c-.586-1.592-1.177-3.212-1.323-4.9 0-.08-.013-.158-.017-.238a7.18 7.18 0 0 1 .529-3.29 5.018 5.018 0 0 1 1.102-1.607 4.541 4.541 0 0 1 2.674-1.218v-.027s4.205-1.063 7.11 4.107c2.906 5.17 6.86 15.228 6.86 15.228a18.13 18.13 0 0 0 2.557-2.083c2.921-2.88 4.753-7.127 3.911-11.148Z" fill="#FAAB63"/><path d="M55.41 10.89a.54.54 0 0 0-.166-.222.451.451 0 0 0-.379 0 2.179 2.179 0 0 0-.589.35 98.475 98.475 0 0 0-2.12 1.627c-.86.68-1.813 1.398-2.329 2.395-.165.31-.24.66-.22 1.011.007.075.02.15.037.222.038.136.09.268.157.393.037.075.081.15.121.222.04.07.124.26.203.424.057-.2.13-.396.22-.584.204-.413.476-.789.805-1.11.36-.35.742-.676 1.144-.976.966-.748 1.944-1.48 2.935-2.196.22-.165.458-.324.694-.477a8.835 8.835 0 0 0-.513-1.079Z" fill="#F2C94C"/><path d="M50.115 17.325c-.09.343-.153.692-.187 1.045-.322 3.009.505 5.99 1.843 8.727-.637.619-1.28 1.211-1.85 1.775-.32.318-.642.632-.965.943l-1.41-12.344a8.322 8.322 0 0 1 2.051-1.424c.008.075.02.149.038.222.038.136.09.268.156.393.038.077.082.15.122.221.04.071.134.278.202.442Z" fill="#CD8F09"/><path d="M46.52 32.092a86.081 86.081 0 0 1-.92-1.76c-1.15-2.328-2.191-4.702-3.19-7.1-.068-.171-.148-.344-.22-.515a317.492 317.492 0 0 1 4.552-4.473c.27-.26.543-.52.82-.768l1.41 12.343c-.817.773-1.635 1.527-2.453 2.273Z" fill="#E09C06"/><path d="M40.605 24.303c.52-.532 1.044-1.061 1.57-1.586.08.17.159.344.22.515 1 2.398 2.04 4.772 3.19 7.1.074.146.49.938.92 1.76-.882.803-1.797 1.597-2.707 2.383-.064-.078-.117-.142-.161-.187l-.93-.947c-.13-.131-.258-.267-.393-.395l-1.709-8.643Z" fill="#F7887B"/><path d="M68.645 38.775a54.423 54.423 0 0 0-.135-.695l-9.654-1.553c.224.608.444 1.217.661 1.826l.18.486c-5.043-.956-10.233-2.328-15.191-3.657-.199-.053-.498-.443-.712-.703a3.952 3.952 0 0 0-.161-.189c-.311-.313-.62-.628-.93-.945-.13-.133-.259-.266-.393-.395a2.75 2.75 0 0 0-1.177-.754.84.84 0 0 0-.567.013c-.53.255-.055 1.775.39 1.926-.778-.268-1.594-.541-2.41-.43-.815.11-1.627.734-1.662 1.564-.033.763.562 1.391 1.142 1.886.441.377.898.73 1.371 1.06a17.49 17.49 0 0 0 1.672 1.037c3.408 1.844 7.158 3.164 10.803 4.477a135.095 135.095 0 0 0 11.486 3.57l.547.145a4.407 4.407 0 0 1 1.311-3.045 4.35 4.35 0 0 1 4.068-1.133 42.25 42.25 0 0 0-.64-4.491Z" fill="#FFB6AD"/><path d="M63.087 39.18a82.853 82.853 0 0 0-3.583-.887l.198.54c1.095.25 2.185.52 3.27.812a.237.237 0 0 0 .27-.179.241.241 0 0 0-.155-.285ZM39.827 34.878a28.24 28.24 0 0 1-.44 2.16.24.24 0 0 0 .166.289.237.237 0 0 0 .292-.161c.179-.714.326-1.435.44-2.161.062-.302-.407-.43-.458-.127Z" fill="#FF9C90"/><path d="m40.603 24.303 1.727 8.643a2.752 2.752 0 0 0-1.178-.755.842.842 0 0 0-.566.014c-.53.255-.055 1.775.39 1.926-.778-.269-1.594-.542-2.41-.43-.816.11-1.627.734-1.662 1.563-.033.764.562 1.392 1.142 1.886.44.378.9.733 1.371 1.061l-.395.33c-.533.456-1.1.87-1.697 1.239a4.389 4.389 0 0 0-1.251-1.744 4.35 4.35 0 0 0-4.06-.84c-.692.21-1.322.59-1.832 1.106.061.131.123.26.192.384-.662-1.252-1.103-2.738-1.581-3.772-1.288-2.76-2.688-5.48-3.925-8.265-.35-.79-3.148-8.477-3.527-8.459-2.015.085-5.172-.932-5.812-2.776l10.885 2.82c.271.569.507 1.141.754 1.627 1.164 2.299 2.725 4.314 4.189 6.435.256.366 3.307 4.24 2.987 4.575a283.165 283.165 0 0 1 6.26-6.568Z" fill="#FF9C90"/><path d="M35.747 33.782a48.036 48.036 0 0 0-1.025-3.328l-.369.388c.344 1.01.656 2.03.935 3.058a.24.24 0 0 0 .282.147.238.238 0 0 0 .177-.265ZM37.321 39.78l-.158.095c-.221.129-.441.251-.662.364l-.328.162a9.565 9.565 0 0 1-.664.277h-.026c-.221.083-.452.154-.68.222a2.636 2.636 0 0 1-.19.047 3.527 3.527 0 0 1-2.424-.21 2.693 2.693 0 0 1-.324-.198l-.126-.093a1.118 1.118 0 0 1-.1-.08 1.228 1.228 0 0 1-.1-.087l-.025-.022-.115-.109c-.04-.04-.079-.08-.117-.124-.037-.044-.063-.067-.092-.102l-.049-.058a2.227 2.227 0 0 1-.108-.133l-.103-.135-.04-.058a2.973 2.973 0 0 1-.095-.135c-.03-.047-.077-.116-.112-.173-.035-.058-.075-.118-.11-.178l-.104-.182c-.035-.062-.068-.126-.101-.188a6.798 6.798 0 0 1-.192-.384 4.334 4.334 0 0 1 5.892-.266 4.389 4.389 0 0 1 1.251 1.743l.002.005Z" fill="#F7887B"/><path d="m37.162 39.875.159-.095-.159.095ZM36.178 40.401l.328-.162c-.108.056-.218.111-.328.162ZM35.829 40.554c-.104.045-.21.087-.315.124.105-.04.203-.073.315-.124ZM34.809 40.905ZM31.748 40.45l.126.093-.126-.093Z" fill="#FF9C90"/><path d="M31.541 40.283c.032.031.066.06.101.087-.035-.027-.068-.058-.101-.087ZM31.4 40.161l.115.11-.115-.11Z" fill="#F7887B"/><path d="M31.193 39.926c.029.036.062.07.093.102a1.316 1.316 0 0 1-.093-.102ZM31.035 39.736ZM30.932 39.6l.103.136a2.008 2.008 0 0 1-.103-.136ZM30.797 39.407ZM30.684 39.234ZM30.576 39.052ZM30.47 38.874l.104.182c-.035-.06-.07-.12-.103-.181Z" fill="#FF9C90"/><path d="m26.406 18.232-10.884-2.82c2.244.036 4.188-.062 6.435-.024.778.013 1.578.029 2.293.328 1.03.435 1.651 1.465 2.156 2.516Z" fill="#F7887B"/><path d="M58.494 12.98c-.022.515-.043 1.033-.062 1.554-.013.308.463.308.476 0 .02-.515.04-1.033.062-1.554.01-.308-.465-.308-.476 0Z" fill="#fff"/><path d="M70.314 34.583c-.022.515-.043 1.033-.062 1.553-.013.309.463.307.477 0 .019-.514.04-1.032.061-1.553.011-.308-.46-.308-.476 0Z" fill="#FFE7E0"/><path d="M77.406 24.838c-.022.515-.043 1.032-.062 1.553-.013.309.463.306.476 0 .02-.515.04-1.032.062-1.553.011-.308-.465-.308-.476 0ZM54.697 17.797l-1.09-.712c-.257-.17-.495.244-.24.415l1.09.712c.258.171.496-.24.24-.415ZM73.5 20.917l-1.09-.725c-.257-.171-.495.244-.241.412l1.102.726c.245.17.485-.25.23-.413ZM74.497 28.994l-.033-1.316c0-.308-.483-.268-.474.038l.031 1.316c.009.308.483.268.476-.038ZM52.007 21.126a27.05 27.05 0 0 0-.441 1.577.24.24 0 0 0 .17.282.237.237 0 0 0 .289-.155c.132-.53.28-1.054.44-1.575.093-.296-.366-.422-.458-.13ZM63.372 15.066l-1.638.19c-.3.036-.304.516 0 .48l1.638-.19c.3-.036.305-.515 0-.48ZM53.909 27.882a4.347 4.347 0 0 1-1.04-.479c-.263-.164-.501.25-.24.413.36.227.748.404 1.154.528.294.09.42-.373.126-.462ZM71.135 24.805a4.263 4.263 0 0 1-1.04-.48c-.262-.164-.5.251-.24.415.36.226.749.404 1.155.529.293.088.423-.373.125-.464ZM56.207 31.938a7.727 7.727 0 0 1-.066.903.24.24 0 0 0 .238.24.238.238 0 0 0 .238-.24c.04-.299.062-.6.066-.903a.24.24 0 0 0-.238-.24.238.238 0 0 0-.238.24ZM65.906 18.936l-.066 1.225c-.015.308.461.306.476 0l.067-1.225c.017-.297-.463-.297-.477 0ZM69.26 17.973l-.535.903a.241.241 0 0 0 .092.315.237.237 0 0 0 .318-.073l.533-.901a.24.24 0 0 0-.092-.31.236.236 0 0 0-.315.066Z" fill="#fff"/><path d="M68.887 27.39c-.43.198-.847.42-1.252.665a.24.24 0 0 0-.073.32.238.238 0 0 0 .313.093c.405-.245.823-.467 1.252-.666.278-.128.038-.541-.24-.412Z" fill="#FFE7E0"/><path d="M74.722 32.884a5.275 5.275 0 0 0-1.067-.444.237.237 0 0 0-.28.17.241.241 0 0 0 .155.291c.331.1.65.238.952.409a.242.242 0 0 0 .332-.092.247.247 0 0 0-.091-.334Z" fill="#fff"/></svg>