<svg fill="none" xmlns="http://www.w3.org/2000/svg" viewBox="0 0 121 130"><path d="M17.948 115.072c-1.971 1.225-4.098 3.047-3.828 5.358.243 2.082 2.425 3.425 4.503 3.591 2.079.167 4.102-.52 6.139-.937 10.95-2.241 21.783 3.377 32.73 5.649 15.075 3.123 30.66-.138 45.726-3.4 3.153-.694 7.119-2.429 6.728-5.635-.347-2.818-3.811-3.88-6.61-4.303l-46.905-7.086c-13.212-1.995-27.131-1.78-38.483 6.763Z" fill="#F6D3C8"/><path d="M64.413 96.317c-2.63 3.994-4.794 8.442-8.494 11.468-5.948 4.858-16.32 5.528-23.72 4.882-14.497-1.28-27.103-12.8-30.297-27.003C.194 78.074-.125 69.99.038 62.224c.108-5.23 1.808-12.044 7.275-14.047 2.612-.954 5.702-.596 7.988-2.175 2.83-1.957 3.198-5.951 3.056-9.39-.205-4.91-.887-9.83-.388-14.716.499-4.886 2.383-9.9 6.298-12.84 6.055-4.573 14.726-2.855 21.658.23 3.56 1.582 7.274 3.421 10.506 5.628 2.938 2.01 5.283 4.945 8.695 6.211 3.305 1.229 7.008.608 10.365-.475 7.351-2.367 15.724-6.513 23.623-5.594 4.908.573 9.872 4.199 10.125 9.144.142 2.797-1.188 5.42-2.033 8.088-.845 2.669-1.085 5.92.838 7.95 1.161 1.229 2.862 1.735 4.372 2.488 6.104 3.03 8.906 10.25 8.543 16.77-.43 7.773-5.121 14.304-10.275 19.78-3.97 4.223-8.422 8.178-13.78 10.371a20.887 20.887 0 0 1-10.74 1.465c-3.675-.524-7.14-3.678-10.839-3.446-4.614.281-8.584 5.122-10.912 8.65Z" fill="#FFAF03"/><path d="M114.906 100.755a6.172 6.172 0 0 0-3.629 1.61 6.195 6.195 0 0 0-1.29 7.419 6.182 6.182 0 0 0 2.872 2.745c-3.232 4.313-9.246 6.429-16.628 6.318a33.65 33.65 0 0 0 3.267-15.094c-.08-3.918-2.293-7.495-4.69-10.24 2.282-1.475 4.783-3.227 7.53-5.299 3.97 2.058 10.632 6.32 12.568 12.541Z" fill="#00A1B3"/><path d="M103.946 104.839c-1.327 1.062-2.962.743-4.451.219v-1.302c-.08-3.917-2.294-7.495-4.691-10.24 2.283-1.474 4.784-3.227 7.531-5.298a33.394 33.394 0 0 0-3.055-1.413l-10.5 1.333-6.26.788a30.455 30.455 0 0 1 9.229 6.499 18.743 18.743 0 0 1 4.475 7.46c.438 1.454.658 2.965.655 4.484 0 2.991-1.258 5.489-3.301 7.54a19.187 19.187 0 0 1-4.3 3.165l.021.093a43.3 43.3 0 0 0 6.929.694 33.447 33.447 0 0 0 3.235-12.863c1.732.555 3.551.743 5.117-.507.45-.374-.187-1.009-.634-.652ZM114.907 100.755c.397 1.257.581 2.572.544 3.89-.09 3.147-1.009 5.781-2.588 7.884a6.198 6.198 0 0 1-1.582-10.164 6.17 6.17 0 0 1 3.629-1.61h-.003Z" fill="#008897"/><path d="M18.904 89.831c.412.233 2.238 1.676 4.677 2.488 0 0-2.31-.371-3.094.733-.783 1.103-2.303 4.413-7.801 2.952-5.498-1.46-5.612-1.18-5.726-.673-.115.507 2.244.44 2.425 2.884-6.413-1.648-9.617-3.314-8.623-5.9 1.067-2.775 9.53 2.61 11.668-.93 2.137-3.538 5.899-1.883 6.474-1.554Z" fill="#2E3257"/><path d="M29.792 93.052s-2.92.117-3.218 11.083a128.003 128.003 0 0 0-4.452-1.846c-.658-3.443 4.66-9.415 4.66-9.415.931 0 1.97.07 3.01.178Z" fill="#FF9C90"/><path d="M23.58 92.32c1.034.356 2.119.543 3.212.555 0 0-5.314 5.971-4.66 9.414a90.93 90.93 0 0 0-11.279-3.7 84.103 84.103 0 0 1-1.483-.37c-.166-2.43-2.521-2.378-2.424-2.884.097-.507.225-.788 5.726.673 5.5 1.46 7.015-1.853 7.801-2.953.787-1.1 3.094-.732 3.094-.732l.014-.004Z" fill="#FFB6AD"/><path d="M33.256 93.51c.426.065.832.131 1.21.197.027 0-2.855 6.867-2.56 12.912-.448-.222-.898-.441-1.352-.659a47.953 47.953 0 0 1 2.702-12.45ZM31.663 93.274s-2.28 3.5-2.74 11.912c-.776-.356-1.556-.703-2.339-1.041.298-10.965 3.218-11.083 3.218-11.083.624.052 1.251.128 1.86.212ZM82.52 88.912 42.77 84.428s-3.24.087-4.93 3.037c0 0 30.51 5.281 31.064 6.714.554 1.433.26 4.133 3.7 5.781 2.078 1 5.604 1.711 12.238-1.04a55.129 55.129 0 0 0 6.908-3.495 30.453 30.453 0 0 0-9.229-6.513ZM96.224 102.875c.438 1.454.658 2.965.655 4.483 0 2.991-1.257 5.49-3.301 7.541a6.194 6.194 0 0 1-2.112-10.584 6.173 6.173 0 0 1 4.007-1.489c.251.001.502.017.751.049Z" fill="#00A1B3"/><path d="M33.256 93.51a47.957 47.957 0 0 0-2.702 12.45c-.54-.259-1.085-.517-1.635-.774.46-8.411 2.74-11.913 2.74-11.913.558.07 1.091.153 1.597.237ZM95.473 102.826c.251.001.502.017.751.049a18.739 18.739 0 0 0-4.475-7.45 55.137 55.137 0 0 1-6.908 3.512c-6.634 2.744-10.157 2.033-12.239 1.04-3.44-1.648-3.142-4.344-3.7-5.78-.557-1.437-31.063-6.715-31.063-6.715-.831 1.444-1.288 3.574-.814 6.715 0 0-1.04-.216-2.556-.472.027 0-2.855 6.867-2.56 12.911a74.455 74.455 0 0 1 8.196 4.692c8.314 5.597 15.2 11.073 25.143 11.711 6.152.392 16.804-.94 24.03-4.958a19.185 19.185 0 0 0 4.3-3.165 6.176 6.176 0 0 1-3.358-2.648 6.197 6.197 0 0 1 1.245-7.936 6.166 6.166 0 0 1 4.008-1.488v-.018Z" fill="#00B2C6"/><path d="M37.025 94.18s-.37-.077-.987-.192c2.425 6.069 8.868 10.112 14.55 12.707a44.128 44.128 0 0 0 20.143 3.967c3.728-.16 7.944-.538 11.138-2.641.481-.316.031-1.093-.454-.774-2.82 1.857-6.468 2.252-9.766 2.467a43.03 43.03 0 0 1-27.48-7.745c-2.942-2.082-5.748-4.625-7.175-8.001.014.069.02.142.031.211Z" fill="#00A1B3"/><path d="M94.627 39.45s4.504 21.73 2.834 34.648l-1.76-4.885c-1.226-17.16-4.704-33.292-12.01-36.782.204.027 4.888.905 10.936 7.02ZM112.194 68.39c1.386 4.442.665 7.471-2.771 10.41l-.018-.02a6.195 6.195 0 0 1-.011-8.776 6.17 6.17 0 0 1 2.783-1.6l.017-.014Z" fill="#C73109"/><path d="M112.194 68.39c-1.33-4.258-4.593-9.82-9.27-17.84-2.851-4.892-5.699-8.48-8.297-11.103 0 0 4.504 21.73 2.834 34.648l.575 1.62a19.123 19.123 0 0 1-1.905 2.152c-.25.252-.51.502-.78.75l.818.551 6.959 4.698a302.709 302.709 0 0 0 6.076-4.889l.226-.19-.018-.022a6.201 6.201 0 0 1-1.618-5.993 6.195 6.195 0 0 1 1.607-2.782 6.166 6.166 0 0 1 2.783-1.6h.01ZM83.002 33.444c.45 1.01-1.85 6.631-3.748 9.948-1.899 3.318-3.995 2.249-4.75.975-.755-1.273-5.362-9.799-5.588-10.587-.225-.787 2.148-1.901 2.287-1.97a30.434 30.434 0 0 1 9.093-.233s2.259.854 2.706 1.867Z" fill="#DE370B"/><path d="M95.701 69.213c-1.226-17.16-4.704-33.292-12.01-36.782a6.975 6.975 0 0 0-1.732-.573 33.508 33.508 0 0 0-1.66-.264s2.26.847 2.706 1.86c.447 1.014-1.85 6.631-3.748 9.949-1.898 3.317-3.994 2.248-4.75.975-.755-1.274-5.362-9.8-5.587-10.587-.225-.788 2.148-1.902 2.286-1.971a31.318 31.318 0 0 0-9.156 2.998c2.13-.295 3.787-.16 4.795.232a4.638 4.638 0 0 1 2.771 2.603 4.346 4.346 0 0 1 1.562 2.7c.233 1.572-.43 3.123-1.254 4.51-2.078 3.429-4.108 6.885-6.263 10.272-3.706 5.819-7.562 11.538-11.463 17.218-.242.347-.485.694-.73 1.058l2.123.847 2.05.843c9.434 3.883 21.998 9.223 23.682 10.792.613.572.786.968.693 1.235 1.617.132 3.048.347 3.048.347s.908-.53 2.297-1.412a80.786 80.786 0 0 0 8.66-6.246 35.24 35.24 0 0 0 1.344-1.19c.27-.245.53-.495.78-.75a218.455 218.455 0 0 0-.444-8.664ZM31.663 72.766a6.181 6.181 0 0 1-2.66 5.083c-2.984-2.54-3.88-5.736-1.81-11.027a6.17 6.17 0 0 1 3.228 2.223 6.186 6.186 0 0 1 1.242 3.72Z" fill="#FF3D0A"/><path d="M71.165 40.342c.232 1.572-.43 3.123-1.255 4.511-2.078 3.428-4.108 6.885-6.263 10.271-3.706 5.82-7.562 11.538-11.463 17.218a77.78 77.78 0 0 0-.73 1.059c-3.79-1.54-6.41-2.578-6.41-2.578s21.281-23.506 23.36-26.442c1.361-1.922 2.054-4.629 1.198-6.725a4.346 4.346 0 0 1 1.563 2.686Z" fill="#DE370B"/><path d="M62.047 34.807c-6.655.924-17.9 6.01-28.06 20.38-3.388 4.775-5.58 8.557-6.793 11.635a6.173 6.173 0 0 1 4.387 4.94 6.193 6.193 0 0 1-2.579 6.087c2.176 1.843 5.425 3.349 9.45 5.046 1.961.83 4.157 1.658 6.465 2.464l1.978-2.53 6.696-8.571-2.138-.871c-3.79-1.54-6.408-2.578-6.408-2.578s21.28-23.506 23.359-26.442c1.361-1.922 2.054-4.629 1.198-6.724a4.657 4.657 0 0 0-2.771-2.603c-1.012-.392-2.654-.527-4.784-.233Z" fill="#FF5713"/><path d="M45.533 70.267a93.177 93.177 0 0 1-9.82-4.587.346.346 0 0 0-.347.586 94.719 94.719 0 0 0 9.689 4.522l.478-.52Z" fill="#FF3D0A"/><path d="M87.39 48.375a2.25 2.25 0 0 0 2.249-2.252 2.25 2.25 0 0 0-2.248-2.252 2.25 2.25 0 0 0-2.249 2.252 2.25 2.25 0 0 0 2.249 2.252ZM44.078 57.657a2.25 2.25 0 0 0 2.249-2.252 2.25 2.25 0 0 0-2.249-2.252 2.25 2.25 0 0 0-2.248 2.252 2.25 2.25 0 0 0 2.248 2.252ZM80.48 57.654c.828 0 1.5-.673 1.5-1.503 0-.83-.672-1.502-1.5-1.502a1.501 1.501 0 0 0 0 3.005ZM64.596 58.275c.829 0 1.5-.672 1.5-1.502s-.671-1.503-1.5-1.503c-.828 0-1.5.673-1.5 1.503 0 .83.672 1.502 1.5 1.502ZM65.31 43.097c.828 0 1.5-.672 1.5-1.502s-.672-1.503-1.5-1.503-1.5.673-1.5 1.503c0 .83.672 1.502 1.5 1.502ZM57.633 74.688c.829 0 1.5-.672 1.5-1.502a1.501 1.501 0 1 0-3 0c0 .83.672 1.502 1.5 1.502ZM41.265 82.454a1.501 1.501 0 0 0 0-3.005c-.828 0-1.5.673-1.5 1.503 0 .83.672 1.502 1.5 1.502ZM32.255 63.445a1.501 1.501 0 0 0 0-3.005c-.829 0-1.5.673-1.5 1.503 0 .83.671 1.502 1.5 1.502ZM103.135 61.027a1.5 1.5 0 0 0 1.5-1.503 1.5 1.5 0 1 0-3 0c0 .83.672 1.503 1.5 1.503ZM100.458 78.568a1.5 1.5 0 0 0 1.499-1.503 1.5 1.5 0 1 0-3 0c0 .83.672 1.503 1.501 1.503ZM91.139 72.311a1.501 1.501 0 0 0 0-3.005c-.828 0-1.5.673-1.5 1.503 0 .83.672 1.502 1.5 1.502Z" fill="#FFF1ED"/><path d="m53.59 74.258-6.696 8.57-1.977 2.534c1.406.493 2.857.975 4.337 1.444l1.198-2.197 5.197-9.504-2.058-.847ZM84.737 88.19c.347-1.041.62-2.134.62-2.134a76.844 76.844 0 0 1-2.296 1.412s-1.431-.205-3.049-.347c-.322.885-3.575.406-3.915.347 1.335.271 2.62.746 3.811 1.41 1.971 1.103 3.499 2.74 1.985 4.61-.79.98-2.771.643-3.831.538-.86-.083-2.46-.364-4.573-.804-1.04 1.3-1.386 2.776.073 4.233 1.385 1.388 3.692 1.388 6.523.548.114-.1 3.866-3.435 4.555-4.927.69-1.492-1.386-2.53-.693-3.262.354-.493.62-1.042.79-1.624ZM96.176 79.168l-.818-.552c-.43.4-.876.798-1.344 1.19l2.224 2.954 3.045 4.042a201.655 201.655 0 0 0 3.852-2.936l-6.96-4.698Z" fill="#FF9C90"/><path d="m60.606 68.123-.432 12.905a3.814 3.814 0 0 0 3.681 3.943l23.467.788a3.813 3.813 0 0 0 3.936-3.687l.432-12.905a3.814 3.814 0 0 0-3.68-3.943l-23.468-.788a3.813 3.813 0 0 0-3.936 3.687Z" fill="#fff"/><path d="m90.56 65.638-7.167 5.577-6.63 4.532-2.682-1.388-11.172-8.082-1.299-1.159a1.856 1.856 0 0 0-.325.486l.26.548s13.094 13.068 15.11 13.137c2.016.07 14.733-10.66 14.8-10.722a16.911 16.911 0 0 0-.292-2.398 2.426 2.426 0 0 0-.603-.53Z" fill="#FFF1ED"/><path d="M62.275 65.795s12.87 9.9 14.488 9.952c1.617.052 13.163-9.994 13.163-9.994M81.498 72.714l7.801 11.298M71.168 72.367l-8.05 10.764" stroke="#FFE7E0" stroke-width="3" stroke-miterlimit="10" stroke-linecap="round"/><path d="M75.807 69.004a.692.692 0 0 0-.576.653c-.01.317.062.631.208.912.36.836.801 1.634 1.32 2.38a7.408 7.408 0 0 0 1.143-2.255c.13-.286.196-.598.194-.912a.75.75 0 0 0-.53-.694c-.523-.104-.391.718-.835.715-.332 0-.36-.84-.924-.799Z" fill="#FF3D0A"/><path d="M79.922 88.891a13.25 13.25 0 0 0-3.81-1.409c.346.052 3.592.531 3.914-.347.097-.267-.076-.663-.693-1.235-1.684-1.569-14.248-6.909-23.681-10.792l-5.196 9.504-1.199 2.197c8.785 2.804 18.45 5.205 24.25 6.433 2.112.441 3.713.722 4.572.805 1.067.105 3.042.441 3.831-.537 1.51-1.878-.017-3.516-1.988-4.619Z" fill="#FFB6AD"/><path d="m96.238 82.76-2.224-2.95a80.772 80.772 0 0 1-8.66 6.246s-.263 1.097-.62 2.134a5.355 5.355 0 0 1-.78 1.634c-.692.733 1.386 1.735.693 3.262s-4.44 4.827-4.555 4.927c5.504-1.644 12.949-6.572 19.18-11.211l-3.034-4.043ZM72.484 25.817a12.769 12.769 0 0 1-.502 7.915c-.118.239-.184.5-.194.767.026.235.1.463.218.67 1.187 2.42 2.42 4.808 3.7 7.165.156.291.346.614.693.656.426.052.724-.392.918-.778l2.827-5.666a9.089 9.089 0 0 0 .98-2.592 3.764 3.764 0 0 0-1.434 0c.409-.892.817-1.829 1.226-2.72l-8.432-5.417Z" fill="#FFB6AD"/><path d="M79.693 33.947c.41-.885.814-1.811 1.22-2.7l-8.429-5.43a12.769 12.769 0 0 1-.502 7.915c-.118.239-.184.5-.194.767.026.235.1.463.218.67.447.909.901 1.81 1.358 2.713a45.864 45.864 0 0 1 1.732-1.166c1.386-.881 2.79-1.733 4.213-2.554l.384-.215Z" fill="#FF9C90"/><path d="M80.033 31.973c4.806 0 8.702-3.903 8.702-8.717s-3.896-8.717-8.702-8.717-8.702 3.903-8.702 8.717 3.896 8.716 8.702 8.716Z" fill="#FFB6AD"/><path d="M75.311 12.59a3.395 3.395 0 0 0-1.26-1.323 6.064 6.064 0 0 0-4.504-.725A7.747 7.747 0 0 0 65.6 12.87c-.873-.694-2.03-.867-3.135-.989-3.437-.378-7.08 0-10.091 1.805-5.515 3.338-7.843 11.836-4.452 17.443 1.698 2.808 5.37 4.095 8.526 3.89a10.443 10.443 0 0 0 6.599-2.95c1.798-1.81 2.85-4.434 3.464-6.87.274-1.072.45-2.172.627-3.265s.347-2.263.544-3.394c.092-.214.165-.436.218-.663a3.265 3.265 0 0 0 2.532.233 4.085 4.085 0 0 0 2.17-1.735c.283-.455.848-.594 1.316-.85.536-.292 1.101-.614 1.385-1.152a1.966 1.966 0 0 0 .007-1.784Z" fill="#6A3445"/><path d="M72.467 17.697a1.578 1.578 0 0 1-.18-1.298c.136-.434.373-.829.693-1.152.42-.459.928-.83 1.493-1.093.447-.24.963-.319 1.462-.222a1.095 1.095 0 0 1 .859 1.086c-.06.531-.572.868-1.012 1.173a9.616 9.616 0 0 0-1.756 1.62.922.922 0 0 1-1.559-.114Z" fill="#00A1B3"/><path d="M88.142 20.102a8.718 8.718 0 0 0-4.59-4.912 8.691 8.691 0 0 0-11.553 4.493 8.728 8.728 0 0 0-.08 6.727c.235.596.534 1.165.891 1.697.037-.137.046-.28.028-.42-.045-.507.086-.992.041-1.502a3.772 3.772 0 0 0 1.701-.507 6.24 6.24 0 0 0 1.386-1.17 21.538 21.538 0 0 0 2.837-3.584 1.77 1.77 0 0 0 1.282.555c.914.091 1.837.014 2.723-.229a4.448 4.448 0 0 0 1.732-.846c.239-.202.668-.278.838-.542.603.767 1.441 1.433 2.425 1.506.249.026.5-.016.727-.121a8.408 8.408 0 0 0-.388-1.145Z" fill="#6A3445"/><path d="M79.253 30.48a3.19 3.19 0 0 0 3.188-3.192 3.19 3.19 0 0 0-3.188-3.192 3.19 3.19 0 0 0-3.187 3.192 3.19 3.19 0 0 0 3.187 3.192ZM86.857 25.21a3.165 3.165 0 0 1 1.826-1.062 8.75 8.75 0 0 1-2.103 4.858 3.193 3.193 0 0 1 .277-3.796Z" fill="#FF8178"/><path d="M81.652 24.156c.027-.474-.257-.876-.633-.897-.377-.02-.703.347-.73.821-.026.475.258.877.634.898.377.02.703-.347.73-.822ZM87.757 24.312c.262-.028.447-.32.411-.652-.036-.331-.277-.577-.54-.549-.262.028-.446.32-.41.652.035.331.276.577.539.549Z" fill="#211E21"/><path d="M84.491 21.514c.125.06.23.155.302.274.613.816 1.278 1.603 1.16 2.686-.059.524-.377.694-.87.694a3.806 3.806 0 0 1-.948-.403.604.604 0 0 1-.195-.152.653.653 0 0 1-.069-.444l.156-1.788c.024-.267-.07-1.072.464-.867Z" fill="#FF8178"/><path d="M87.692 9.445a4.719 4.719 0 0 0 4.715-4.722A4.719 4.719 0 0 0 87.692 0a4.719 4.719 0 0 0-4.715 4.723 4.719 4.719 0 0 0 4.715 4.722ZM114.19 37.74a2.698 2.698 0 0 0 2.695-2.7c0-1.491-1.207-2.7-2.695-2.7a2.698 2.698 0 0 0-2.696 2.7c0 1.491 1.207 2.7 2.696 2.7ZM4.825 31.577c1.158.902 2.73 1.242 3.624 2.478.606.843.637 1.898 1.216 2.744a3.782 3.782 0 0 0 2.699 1.649c.326.046.66.006.966-.115 1.51-.663.395-3.376 0-4.424-.79-2.082-1.625-4.21-3.118-5.864-1.136-1.26-4.41-3.408-6.204-2.221-1.58 1.04-.838 3.595 0 4.885.223.333.499.626.817.868Z" fill="#FFAF03"/></svg>