<svg fill="none" xmlns="http://www.w3.org/2000/svg" viewBox="0 0 102 160"><path d="M69.95 152.036c2.703.489 6.113 1.929 5.791 4.653-.321 2.655-3.825 3.324-6.502 3.311l-46.188-.251c-2.964-.019-6.01-.048-8.758-1.157-2.748-1.109-5.158-3.559-5.316-6.523-.492-9.202 21.635-4.739 26.809-4.36a323.788 323.788 0 0 1 34.164 4.327Z" fill="#F6D3C8"/><path d="M99.098 35.741a2.9 2.9 0 1 0 0-5.8 2.901 2.901 0 1 0 0 5.8ZM30.631 68.09a2.19 2.19 0 1 0 .002-4.38 2.19 2.19 0 0 0-.002 4.38ZM2.992 73.687a6.49 6.49 0 0 0-.775 2.527 2.997 2.997 0 0 0 .9 2.408 4.105 4.105 0 0 0 1.677.788c1.223.338 2.574.543 3.736.058a5.228 5.228 0 0 0 1.528-1.051 11.251 11.251 0 0 0 3.485-9.044c-.27-3.106-3.697-2.202-5.47-1.203a12.976 12.976 0 0 0-5.08 5.517ZM67.804 115.575a7.422 7.422 0 0 1-1.876 1.865 3.263 3.263 0 0 1-2.539.492c-.582-1.164-.447-2.601.139-3.768.627-1.254 2.706-3.752 4.366-3.424 2.358.466.753 3.713-.09 4.835ZM42.73 71.475c-3.9 6.82-7.08 14.053-11.304 20.666-3.292 5.144-7.204 9.861-10.512 14.992-3.308 5.131-6.049 10.805-6.612 16.882-.438 4.719 1.049 10.288 5.438 12.094 3.893 1.608 8.449-.553 11.239-3.703 2.79-3.151 4.36-7.17 6.525-10.777 6.18-10.288 16.982-16.93 27.96-21.81 5.441-2.418 11.181-4.604 15.445-8.751 3.011-2.93 5.096-6.656 7.14-10.327 3.713-6.674 7.448-13.397 9.935-20.62 1.262-3.66 2.188-7.678 1.001-11.363-1.187-3.684-5.212-6.684-8.897-5.488-5.244 1.708-5.907 8.755-10.81 11.153-.644.322-1.403.582-2.124.437-1.963-.398-1.41-3.343-1.026-4.684.444-1.569 1.161-3.109 1.094-4.739-.116-2.928-3.247-5.346-6.114-4.722-2.198.478-3.793 2.32-5.222 4.06-2.94 3.578-5.55 7.375-9.33 10.056-3.782 2.682-6.932 6.254-9.621 10.022-1.503 2.096-3.05 4.31-4.206 6.623Z" fill="#FF3D0A"/><path d="M56.26 140.083c.215.691.379 1.608.823 2.219 0 0-2.445 3.266-4.846 2.571-.736-.78-1.47-1.564-2.2-2.353 4.694-.119 5.646-3.858 5.71-4.138.168.563.338 1.148.512 1.701Z" fill="#191C3A"/><path d="M59.605 145.639a1.387 1.387 0 0 1-.041 1.729c-2.385 2.852-10.142 11.709-12.652 9.202a1.53 1.53 0 0 1-.473-.891c1.416.592 3.607-.659 5.792-2.456 3.68-3.026 7.355-7.597 7.355-7.597l.02.013ZM71.385 89.508c2.297 2.685 10.766 12.979 6.825 14.596-.168.069-.34.127-.515.174.373-1.141-.18-2.894-1.152-4.823-2.346-4.655-7.118-10.246-7.118-10.246l.593-.135a1.398 1.398 0 0 1 1.367.434Z" fill="#2E3257"/><path d="M48.183 152.503c.087-.055 2.497-1.576 4.054.72-2.191 1.797-4.382 3.048-5.791 2.456-.142-.942.643-2.029 1.74-3.173l-.003-.003Z" fill="#E9E9E9"/><path d="M57.083 142.302c.601.803 1.77 2.346 2.51 3.324 0 0-3.675 4.572-7.356 7.597-1.557-2.296-3.967-.775-4.054-.72 2.394-2.547 6.161-5.392 4.054-7.636 2.4.701 4.846-2.565 4.846-2.565Z" fill="#fff"/><path d="M76.543 99.443c.965 1.929 1.525 3.694 1.151 4.822-1.364.363-2.573-.096-3.661-.964.338-3.637 2.51-3.858 2.51-3.858Z" fill="#E9E9E9"/><path d="M76.543 99.443s-2.172.228-2.51 3.883c-2.272-1.8-3.9-5.35-4.907-6.513-.946-1.097-1.496-1.608-2.831-1.447.421-3.6-2.333-5.028-2.436-5.08 1.85-.28 4.131-.768 5.566-1.09 0 0 4.772 5.591 7.118 10.247Z" fill="#fff"/><path d="M70.876 102.793a4.82 4.82 0 0 1 .438-2.071c.14-.307.32-.593.537-.852.087-.099.18-.192.277-.28.074-.07.153-.133.238-.19a.711.711 0 0 1 .103-.076.35.35 0 0 1 .348-.164h.032a.35.35 0 0 1 .283.401.53.53 0 0 1-.187.293c-.281.218-.54.464-.769.736a3.908 3.908 0 0 0-.608 2.132c0 .444-.692.518-.692.071ZM70.593 100.976a4.593 4.593 0 0 1 1.61-2.92c.34-.285-.065-.848-.41-.562a4.697 4.697 0 0 0-.344.322c.055-1.222-.219-3.148-1.509-2.72-1.094.36-.756 1.543-.206 2.469-.16-.045-.322-.08-.412-.106a1.72 1.72 0 0 0-1.966.746c-.321.569 0 1.115.596 1.286.885.267 1.721-.3 2.574-.47a5.28 5.28 0 0 0-.618 1.833.348.348 0 1 0 .685.122Zm-1.383-2.835c.299.063.586.171.852.321-.592.209-1.235.527-1.76.386-.244.036-.334-.092-.27-.386l.222-.212a1.104 1.104 0 0 1 .956-.11Zm1.576-1.049c.03.257.03.516 0 .772a3.174 3.174 0 0 1-.617-.939 2.323 2.323 0 0 1-.194-.643c-.016-.193.046-.668.364-.488.319.18.406.993.447 1.298ZM47.922 150.336a4.847 4.847 0 0 1 2.095-.322c.336.027.666.096.985.206.121.048.24.103.357.164.092.044.18.096.264.154l.109.071a.363.363 0 0 1 .273.27v.029a.35.35 0 0 1-.276.405.55.55 0 0 1-.341-.071 4.663 4.663 0 0 0-.966-.463 3.863 3.863 0 0 0-2.21.174c-.399.151-.711-.463-.29-.617ZM49.525 149.436a4.618 4.618 0 0 1 3.3.491c.387.219.776-.356.384-.578a5.046 5.046 0 0 0-.419-.212c1.165-.373 2.877-1.303 2.028-2.363-.721-.897-1.715-.171-2.388.668 0-.164-.035-.321-.045-.421a1.71 1.71 0 0 0-1.387-1.578c-.643-.11-1.042.401-1.004 1.006.058.923.882 1.504 1.339 2.25a5.333 5.333 0 0 0-1.93.065.345.345 0 0 0-.22.386.348.348 0 0 0 .342.286Zm2.175-2.286c.046.301.046.608 0 .91-.402-.483-.924-.965-.966-1.515-.119-.215-.029-.344.267-.386l.277.136a1.078 1.078 0 0 1 .422.855Zm1.547 1.102c-.23.117-.473.207-.724.267a3.2 3.2 0 0 1 .666-.906c.159-.163.341-.301.541-.409.177-.083.644-.193.586.174-.058.366-.811.739-1.069.874ZM68.499 93.228a1.357 1.357 0 1 0 0-2.714 1.357 1.357 0 0 0 0 2.714ZM57.022 146.979a1.357 1.357 0 1 0 .002-2.714 1.357 1.357 0 0 0-.002 2.714Z" fill="#232644"/><path d="M57.752 73.787v.045s1.232 10.394-6.548 15.776c-4.067-.44-7.677-.88-7.677-.88 12.668-.39 13.05-10.289 12.484-15.066l1.741.125ZM46.857 101.008a52.66 52.66 0 0 0-3.42 6.353l-12.458-2.164.434-2.089c5.158-.158 10.583-1.032 15.444-2.1ZM34.296 113.913a6.356 6.356 0 0 1-2.552 6.671c-1.467-2.25-2.715-4.607-2.316-7.394.183-1.286.447-2.572.701-3.858a6.348 6.348 0 0 1 4.167 4.581Z" fill="#191C3A"/><path d="m57.752 73.787.643.045c.644 2.656.744 7.073-2.638 12.944a144.807 144.807 0 0 1-1.863 3.115l-2.683-.283c7.78-5.382 6.547-15.776 6.547-15.776l-.006-.045ZM53.09 128.599c.878 3.263 1.708 6.546 2.658 9.793-.065.273-1.017 4.019-5.712 4.138-3.983-4.286-7.886-8.636-11.631-13.137a100.198 100.198 0 0 1-6.4-8.41c-.087-.132-.177-.267-.26-.399a6.364 6.364 0 0 0-1.61-11.252c.059-.28.113-.56.168-.836.215-1.102.437-2.202.666-3.302l12.468 2.167c-.733 1.714-1.13 3.189-1.03 4.356.197 2.286 1.931 3.778 3.746 4.942 2.252 1.43 3.993 2.488 5.077 5.067.895 2.192 1.242 4.571 1.86 6.873Z" fill="#2E3257"/><path d="M54.444 141.025c-3.86-5.575-4.453-12.654-8.188-18.287a15.916 15.916 0 0 0-2.783-3.237c-1.162-1.01-2.574-1.714-3.672-2.807-3.072-3.077-1.139-7.481.502-10.738.203-.395-.399-.749-.598-.35-1.477 2.932-3.111 6.404-1.706 9.683.567 1.322 1.61 2.235 2.748 3.058 1.42 1.019 2.758 1.987 3.88 3.343 4.708 5.707 5.052 13.654 9.216 19.686.254.363.856.019.601-.351Z" fill="#191C3A"/><path d="M61.304 90.499h.77c.498-.03 1.11-.103 1.785-.206.103.051 2.857 1.479 2.436 5.08-.969.162-1.917.427-2.829.79.132-3.301-2.162-5.642-2.162-5.642v-.022ZM16.657 88.942a6.361 6.361 0 0 1-4.53 7.598l-.08.064c-1.59-2.225-2.507-5.125-2.516-8.848a9.037 9.037 0 0 1 1.177-3.723 6.374 6.374 0 0 1 5.95 4.91ZM57.202 70.984l-1.683.125-17.169 1.305 17.668 1.248 1.744.125.643.045a8.624 8.624 0 0 0-1.203-2.848Z" fill="#2E3257"/><path d="M40.474.846a.74.74 0 0 1 .447.964l-.589 1.608s-.321.575-.736.604c-.416.029-3.073-.225-3.469-1.807.257-.517.518-1.042.788-1.578A1.11 1.11 0 0 1 38.29.064l2.185.782Z" fill="#FFB6AD"/><path d="M40.332 3.398s1.583.39 1.287 1.34c-.296.952-2.513.364-2.664 1.22 0 .09-.058.32-.129.707l-3.941-1.93c.39-.826.8-1.678 1.229-2.549.396 1.582 3.057 1.836 3.468 1.807.412-.029.75-.595.75-.595ZM4.254 24.646l1.216 1.749c-2.072.997-2.967-1.64-2.967-1.64l.457-.321a.92.92 0 0 1 1.294.212ZM7.751 30.263 2.954 32.92c-.49-.857-.987-1.743-1.493-2.658l5.656-.643.634.643Z" fill="#FF9C90"/><path d="M7.774 26.041c.765.965-1.423 2.833-.644 3.598l-5.656.643c-.425-.772-.856-1.56-1.287-2.37a1.388 1.388 0 0 1 .418-1.793l1.93-1.36s.863 2.633 2.935 1.636c0 0 1.535-1.34 2.304-.354Z" fill="#FFB6AD"/><path d="m34.898 4.745 3.941 1.93c-.106.59-.27 1.507-.466 2.645l-4.701-1.897c.386-.876.795-1.769 1.226-2.678Z" fill="#CD8F09"/><path d="m45.863 36.593-9.093 5.89c-1.715-1.572-4.69-4.18-6.901-6.668l.087-.074a5.091 5.091 0 0 0-2.726-8.494c.544-3.948 2.207-10.381 6.435-19.833l4.708 1.91c-.853 4.983-2.323 14.242-2.3 19.29 0 0 5.797 3.806 9.79 7.979Z" fill="#E09C06"/><path d="M36.082 27.742a76.228 76.228 0 0 1-1.976-1.588c-.344-.286-.82.218-.476.505a77.186 77.186 0 0 0 2.442 1.954l.01-.87ZM30.419 29.32a5.09 5.09 0 0 1-.467 6.43l-.087.075c-1.531-1.746-2.696-3.402-2.821-4.64a17.476 17.476 0 0 1 .183-3.944c1.294.253 2.438.999 3.192 2.08ZM47.845 38.927c-.3.167-.59.351-.869.553l-.212.154c-.142.106-.28.219-.418.322-.071.054-.139.115-.206.177a9.002 9.002 0 0 0-.602.569c-.196.202-.39.408-.576.623-.064.074-.129.148-.186.222-.058.074-.126.148-.187.225l-.183.232a4.648 4.648 0 0 0-.177.238c-.058.083-.116.148-.168.225l-.122.167-.158.228a22.254 22.254 0 0 0-.685 1.074c-.051.084-.1.17-.151.257a7.426 7.426 0 0 0-.158.28c-.051.096-.074.125-.106.186-.804.139-1.609.3-2.423.48a23.82 23.82 0 0 1-3.475-2.67l9.093-5.889c.705.74 1.362 1.524 1.97 2.347Z" fill="#CD8F09"/><path d="M31.165 60.21v.142c-2.863.321-5.412.321-6.756-.431a21.984 21.984 0 0 1-3.9-3.016 6.373 6.373 0 0 1 10.656 3.305ZM10.126 32.635l-5.32 3.453a224.303 224.303 0 0 1-1.852-3.167l4.797-2.658c.528.533 1.348 1.356 2.375 2.372Z" fill="#FFAF03"/><path d="M54.21 47.778a8.06 8.06 0 0 0-.322-.923c-1.287-2.97-6.114-3.06-11.21-2.183-.805.138-1.61.3-2.423.48a89.412 89.412 0 0 0-12.005 3.684c-5.2-3.608-13.636-11.751-18.125-16.2l-5.318 3.452c6.65 11.114 12.05 17.429 15.702 20.817a6.373 6.373 0 0 1 10.656 3.305v.142c2.153-.248 4.505-.688 6.635-1.138 1.972-.418 3.784-.843 5.148-1.142 4.601-1.01 13.153-3.941 11.261-10.294Z" fill="#FAC942"/><path d="M27.578 48.353a55.943 55.943 0 0 0-3.98 1.73c-.403.196-.052.794.35.601a52.098 52.098 0 0 1 4.299-1.852l-.67-.479Z" fill="#FFAF03"/><path d="m48.782 61.239 10.94-1.186v.697l-11.819 1.286.856-.758.023-.039Z" fill="#fff"/><path d="m47.884 62.05 11.818-1.287c0 .643-.032 1.254-.055 1.855-3.751.717-7.574.84-11.383 1.039-.799.041-1.61.086-2.394.141.632-.55 1.304-1.134 2.014-1.749ZM59.618 63.31c-.032.82-.074 1.607-.116 2.334A984.718 984.718 0 0 1 41.4 67.526c1.027-.826 2.21-1.81 3.575-2.973 1.258-.1 2.52-.168 3.78-.232 3.64-.183 7.282-.344 10.863-1.013ZM59.46 66.344c-.093 1.528-.19 2.797-.247 3.688a.919.919 0 0 1-.853.862L37.015 72.5a.925.925 0 0 1-.994-1.003s1.287-.755 4.385-3.196a931.32 931.32 0 0 0 19.055-1.958Z" fill="#FFAF03"/><path d="M42.961 58.072c4.588-1.01 13.14-3.941 11.261-10.288 0 0 3.746 5.289-5.43 13.461l-11.584 1.258c.183-1.058.39-2.158.621-3.283 1.96-.424 3.771-.849 5.132-1.148Z" fill="#E09C06"/><path d="M41.4 67.515c6.04-.573 12.075-1.2 18.102-1.884 0 .238-.025.472-.041.7a961.987 961.987 0 0 1-19.055 1.971c.316-.231.644-.495.995-.787Z" fill="#fff"/><path d="m48.781 61.239-.041.039-.856.771-10.808 1.174c.038-.235.08-.473.119-.714l11.586-1.27Z" fill="#FAC942"/><path d="M48.264 63.657c3.816-.196 7.638-.322 11.39-1.048 0 .237-.01.472-.03.704-3.58.668-7.223.83-10.862 1.012-1.261.065-2.522.132-3.78.232l.888-.759c.785-.058 1.59-.103 2.394-.141Z" fill="#fff"/><path d="m37.076 63.21 10.808-1.16c-.71.623-1.384 1.209-2.021 1.758-1.206.08-2.413.186-3.61.321-1.812.222-3.607.53-5.425.662.077-.514.174-1.041.248-1.581ZM42.301 64.82c.888-.109 1.78-.196 2.674-.266a165.048 165.048 0 0 1-3.575 2.974 790.74 790.74 0 0 1-5.006.46c.09-.766.203-1.608.322-2.496 1.895-.122 3.722-.44 5.585-.672Z" fill="#E09C06"/><path d="M43.08 43.949c.145-.241.293-.48.444-.71 3.964.32 9.077-2.727 9.617-3.216.54-.488-.257-1.823-.257-1.823 6.014 1.608 6.963 12.86 6.83 21.862L48.776 61.25c9.177-8.173 5.431-13.462 5.431-13.462a8.065 8.065 0 0 0-.321-.922c-1.288-2.97-6.114-3.06-11.21-2.183a2.13 2.13 0 0 1 .106-.187c.051-.096.103-.19.157-.28.055-.09.09-.17.142-.266Z" fill="#FFAF03"/><path d="M41.4 67.515c-.35.28-.678.543-.994.787-1.364.129-2.73.254-4.096.376.026-.228.052-.462.084-.704 1.67-.141 3.34-.294 5.007-.46ZM42.253 64.13a54.184 54.184 0 0 1 3.61-.322l-.888.759c-.894.07-1.786.157-2.674.266-1.863.232-3.706.55-5.576.672.032-.228.065-.463.103-.7 1.818-.145 3.614-.454 5.425-.676Z" fill="#FAC942"/><path d="M40.406 68.315c-3.082 2.44-4.37 3.196-4.37 3.196.058-.678.152-1.643.29-2.82 1.358-.122 2.718-.247 4.08-.376Z" fill="#E09C06"/><path d="M52.884 38.2s.795 1.335.258 1.823c-.538.489-5.654 3.537-9.618 3.215.08-.125.158-.244.242-.363l.157-.228.122-.167a3.72 3.72 0 0 1 .168-.225c.058-.075.116-.161.177-.238l.183-.232c.061-.077.122-.151.187-.225l.186-.222c.187-.215.38-.424.576-.623.197-.2.396-.39.602-.57l.206-.176c.138-.116.277-.229.418-.322l.213-.154c.284-.2.58-.384.884-.55a7.361 7.361 0 0 1 2.549-.849 6.28 6.28 0 0 1 2.49.106Z" fill="#fff"/><path d="M45.242 34.358s2.082 3.717.924 5.569c0 0-2.317 3.01 1.158 1.389l4.402-1.852s.695-.232.463-1.157a5.616 5.616 0 0 1 0-2.778l-6.947-1.17Z" fill="#FFB6AD"/><path d="m52.189 35.529-6.947-1.17c.373.695.682 1.422.924 2.173a10.881 10.881 0 0 1 5.44 2.983l.12-.051s.695-.232.463-1.157a5.616 5.616 0 0 1 0-2.778Z" fill="#FF9C90"/><path d="M46.195 23.074c-.29.106-2.233.73-3.124 1.726-.59.643 1.367 2.01 1.367 2.01l1.757-3.736Z" fill="#FF8178"/><path d="M55.843 30.41c1.011-3.899-.924-7.773-4.323-8.654-3.399-.88-6.974 1.565-7.986 5.463-1.012 3.898.923 7.773 4.322 8.653 3.4.881 6.975-1.565 7.986-5.463Z" fill="#FFB6AD"/><path d="M47.688 32.07a3.023 3.023 0 1 0-3.025-3.023 3.023 3.023 0 0 0 3.025 3.022Z" fill="#FF8178"/><path d="M48.05 25.468c.116-.446-.062-.878-.396-.964-.335-.086-.7.206-.814.652-.115.446.062.877.397.963.334.087.699-.205.814-.651Z" fill="#211E21"/><path d="M62.273 18.573c.234-.05.472-.087.71-.11 1.272-.115 2.575-.038 3.82-.276 1.905-.366 3.6-1.447 5.068-2.717 1.467-1.27 2.741-2.739 4.15-4.07 2.575-2.437 5.856-4.475 9.409-4.388 3.745.09 7.245 2.755 8.5 6.282 1.677 4.7.438 10.973-2 15.223-1.645 2.864-4.206 5.35-7.34 6.398-4.601 1.54-9.589 1.315-14.331.15-4.421-1.083-9.267-3.471-11.796-7.072-.498-.71-.547-1.65-.772-2.485a6.187 6.187 0 0 1-.322-2.145c.225-2.45 2.606-4.295 4.904-4.79Z" fill="#6A3445"/><path d="M58.717 28.613a1.608 1.608 0 0 0 .84-1.054 2.89 2.89 0 0 0 0-1.38 4.853 4.853 0 0 0-.753-1.745 2.252 2.252 0 0 0-1.18-.965 1.13 1.13 0 0 0-1.333.515c-.228.498.052 1.067.283 1.565a9.93 9.93 0 0 1 .699 2.354.964.964 0 0 0 1.444.71Z" fill="#00A1B3"/><path d="M57.273 31.009a6.648 6.648 0 0 1-1.358 2.34 14.03 14.03 0 0 1-3.04 2.71 4.35 4.35 0 0 1-.686.386.428.428 0 0 1-.177.048.453.453 0 0 1-.21-.074 2.44 2.44 0 0 1-.582-.607 3.028 3.028 0 0 1-.55-1.399 5.728 5.728 0 0 1-.167-1.19 1.98 1.98 0 0 1 .322-1.144c.257-.373.669-.608.987-.932.28-.292.487-.644.608-1.03a1.06 1.06 0 0 0 .033-.716.48.48 0 0 0-.583-.302.682.682 0 0 0-.247.202 4.272 4.272 0 0 0-.322.409 2.738 2.738 0 0 1-.402.46.783.783 0 0 1-.563.202.46.46 0 0 1-.412-.386.72.72 0 0 1 .038-.247 5.713 5.713 0 0 1 1.027-1.823 2.543 2.543 0 0 1-.84-.875 5.25 5.25 0 0 1-.705-3.755 1.066 1.066 0 0 1-.521.145 2.127 2.127 0 0 1-.589 0c-.222-.03-.44-.058-.663-.097a2.776 2.776 0 0 1-.695-.186 1.09 1.09 0 0 1-.524-.46 4.988 4.988 0 0 1 2.513-1.357c.388-.064.78-.102 1.174-.112a9.46 9.46 0 0 1 1.448.032 6.291 6.291 0 0 1 4.331 2.54c1.348 1.88 2.13 4.18 1.67 6.452-.052.251-.248.524-.315.766Z" fill="#6A3445"/><path d="M44.627 88.36a.348.348 0 0 1 .239.287c-.425.038-.863.064-1.32.08a31.462 31.462 0 0 0-20.055.225c-.424.148-.604-.524-.186-.672a32.11 32.11 0 0 1 21.322.08Z" fill="#2E3257"/><path d="M61.304 90.515v-.016c-1.538-.042-4.417-.303-7.42-.608l-2.683-.283c-2.574-.28-4.97-.56-6.377-.727l-1.258-.147h-.042.023a31.463 31.463 0 0 0-20.055.225c-.425.147-.605-.525-.187-.672a32.11 32.11 0 0 1 21.323.08.347.347 0 0 1 .238.286c11.351-1.026 11.686-10.371 11.142-14.985l-17.667-1.247c-10.918 1.498-23.698 4.716-27.63 11.619a6.377 6.377 0 0 1 6.07 5.646 6.365 6.365 0 0 1-4.65 6.86l-.081.064c3.755 5.253 11.261 6.752 19.35 6.504 5.174-.157 10.599-1.032 15.46-2.099a128.268 128.268 0 0 0 15.703-4.52c.321-.12.624-.232.907-.322.129-3.318-2.166-5.658-2.166-5.658Z" fill="#444A72"/><path d="M63.685 92.38c-5.733-1.467-11.663-1.113-17.478-.341-6.013.797-12.072 2.105-18.17 1.787-2.428-.125-7.57-.238-7.911-3.482-.27-2.572 1.863-4.944 3.829-6.295 4.582-3.147 10.328-2.974 15.624-3.491 2.774-.27 5.904-.618 8.301-2.164 1.844-1.19 3.083-3.334 2.356-5.533-.142-.421-.814-.241-.673.187 1.11 3.346-2.452 5.298-5.125 6.005-3.083.817-6.29.916-9.454 1.17-4.659.373-9.823 1.232-13.217 4.762-1.413 1.472-2.655 3.565-2.294 5.684.389 2.276 2.551 2.96 4.546 3.36 5.895 1.183 11.97.199 17.838-.672 7.166-1.061 14.508-2.132 21.645-.306a.349.349 0 0 0 .183-.672Z" fill="#2E3257"/></svg>