<svg fill="none" xmlns="http://www.w3.org/2000/svg" viewBox="0 0 157 125"><path d="M50.823 63.631C44.94 67.626 8.745 90.047 12.384 95.524c3.64 5.477 60.006 2.993 74.605 2.292 14.599-.701 34.215 1.252 60.182-30.411 23.02-27.652-.875-29.88-5.884-28.027-5.438 2.008-10.779 4.262-16.179 6.366a216.039 216.039 0 0 1-8.291 3.043c-2.274.78-6.148 1.732-7.947-.56-1.798-2.291-.647-5.539-3.731-7.096-6.892-3.523-30.392 6.195-54.316 22.5ZM115.325 37.595a1.712 1.712 0 0 1-1.803-.835 2.508 2.508 0 0 1-.126-1.987c.635-1.89 6.724-6.19 7.363-2.42.315 1.852-3.093 5.004-5.434 5.242ZM12.384 82.053c2.298 0 4.16-1.85 4.16-4.132 0-2.283-1.862-4.133-4.16-4.133s-4.16 1.85-4.16 4.133c0 2.282 1.862 4.132 4.16 4.132ZM153.159 32.431a1.498 1.498 0 0 1-1.551-.334 1.524 1.524 0 0 1-.323-.705 3.16 3.16 0 0 1 .84-2.801 3.969 3.969 0 0 1 2.761-1.14 1.855 1.855 0 0 1 1.408.464c.647.697.462 1.861-.063 2.559a5.56 5.56 0 0 1-1.584 1.281 5.692 5.692 0 0 1-1.488.676Z" fill="#FFAF03"/><path d="M132.324 30.862c-1.261.522-2.627.88-3.782 1.628-1.887 1.223-2.522 3.531-1.017 5.36 2.605 3.172 6.77 1.795 9.77.096a53.757 53.757 0 0 0 6.274-4.175c1.652-1.252 3.081-2.504 3.476-4.663.659-3.556-1.971-7.405-5.926-5.994-1.37.488-2.437 1.578-3.315 2.73-1.648 2.192-2.833 3.924-5.48 5.018Z" fill="#FFAF03"/><path d="M128.172 111.087c-40.398.718-81.072-4.267-121.36-.551-2.72.254-6.047 1.039-6.724 3.673-.807 3.198 3.064 5.477 6.27 6.333 8.371 2.229 17.07 2.884 25.71 3.527 12.162.91 24.52 1.803 36.455-.705 6.434-1.353 12.675-3.682 19.21-4.392 7.748-.835 15.548.639 23.247 1.699a219.534 219.534 0 0 0 37.052 1.929c1.841-.059 3.761-.167 5.366-1.065 1.606-.897 2.766-2.855 2.152-4.592-.614-1.736-2.58-2.483-4.345-2.964a64.058 64.058 0 0 0-16.6-2.262l-6.433-.63Z" fill="#F6D3C8"/><path d="m126.911 96.18-4.749 10.974c-1.441-.438-3.105-.922-4.921-1.615 5.329-4.346 8.75-10.816 8.75-10.816l.92 1.457ZM130.365 110.143c1.303 2.037 3.097 5.089 6.56 5.561-1.517-.222-3.122-.472-4.585-.764-3.643-.731-4.16-3.557-4.16-3.557s.059-1.883-3.635-3.415c.206.004 4.547.188 5.82 2.175ZM9.665 111.926c.547.809.576 1.953-3.265-.48-.807-6.325 2.845-8.508 2.845-8.508-1.744 2.267.887 5.356.887 5.356-1.98 2.383-1 2.822-.467 3.632ZM25.517 95.399c.516 0 1.038-.02 1.563-.02a15.493 15.493 0 0 0-3.417 10.761c-1.954-1.098-3.286-1.925-3.942-2.217l5.796-8.524Z" fill="#FF9C90"/><path d="m25.517 95.399-5.796 8.545c-2.328-1.031-6.812-3.92-9.808-1.649-.25.186-.475.403-.668.647 0 0-3.64 2.183-2.824 8.508-3.833-2.43-2.702-9.41-2.828-12.453-.126-3.043 1.534-4.871 4.232-5.723 2.496-.789 2.206-1.711 2.151-1.84 2.85 4.996 8.783 4.115 15.54 3.965ZM145.544 115.303c3.27 1.824-1.344 1.461-3.185 1.156-1.101-.179-3.169-.417-5.434-.755-3.463-.472-5.257-3.524-6.56-5.561-1.302-2.037-5.614-2.171-5.82-2.175a14.146 14.146 0 0 0-.966-.363c-.442-.15-.917-.296-1.417-.451l4.749-10.97c1.193 1.882 2.942 4.658 4.291 6.741 2.227 3.469 1.681 6.788 13.266 10.499.005 0-.407.981 1.076 1.879Z" fill="#FFB6AD"/><path d="M9.955 91.42c.055.13.345 1.053-2.151 1.842-2.698.835-4.354 2.68-4.232 5.723.122 3.043-1.005 10.018 2.828 12.452 3.832 2.434 3.811 1.29 3.265.48-.546-.81-1.521-1.252.45-3.627.58-.368 1.328.167 2.004.622.677.455 10.296 6.316.257 5.944C2.336 114.485.512 110.231.512 99.411s6.985-9.372 8.313-9.184c1.328.188 1.13 1.194 1.13 1.194ZM149.553 113.925c5.64 2.2 4.808 3.757 1.626 4.914-3.181 1.156-13.245.208-16.431 0-3.185-.209-6.467-.927-7.295-4.296-.828-3.369.727-3.16.727-3.16s.517 2.826 4.16 3.557c1.463.292 3.068.542 4.585.764 2.265.325 4.333.576 5.434.755 1.84.305 6.455.668 3.185-1.156-1.483-.898-1.071-1.879-1.071-1.879s-.555-1.695 5.08.501Z" fill="#2E3257"/><path d="M27.08 95.378h2.803c-.24.2-3.816 3.302-3.782 12.064-.891-.467-1.681-.91-2.42-1.315a15.492 15.492 0 0 1 3.399-10.749ZM31.257 95.403h1.185c-.059.109-3.61 6.992-3.706 13.358l-1.261-.626c-.034-7.785 3.492-12.365 3.782-12.732ZM24.268 68.57c7.716 18.952 17.961 17.574 33.527 14.727 2.282 1.787 5.102 4.054 7.9 6.487-4.324-1.419-30.072-1.945-30.072-1.945-1.815-.418-3.71-.952-7.228-4.204-7.106-6.575-6.29-13.96-5.282-18.058.387 1.052.769 2.05 1.155 2.993ZM78.033 105.121c.135 4.221-1.756 7.097-5.156 8.863a6.642 6.642 0 0 1-.567-6.595 6.694 6.694 0 0 1 2.2-2.635 6.748 6.748 0 0 1 3.225-1.207 4.88 4.88 0 0 1 .298 1.574Z" fill="#008897"/><path d="M31.257 95.403c-.29.367-3.816 4.947-3.782 12.757-.48-.242-.937-.476-1.374-.705 0-8.767 3.559-11.864 3.782-12.064l1.374.012ZM48.617 96.935c-.21-.154-1.26-1.023-6.051-5.347-3.325-2.998-5.09-3.315-6.943-3.757 0 0 25.748.526 30.072 1.945 5.4 4.7 10.742 10.019 12.04 13.776a6.747 6.747 0 0 0-3.225 1.206 6.693 6.693 0 0 0-2.2 2.635 6.643 6.643 0 0 0 .567 6.595c-4.984 2.584-13.22 2.784-23.113 1.336a73.042 73.042 0 0 1-21.028-6.538c.096-6.374 3.647-13.258 3.706-13.358 4.732.071 8.312.205 10.224.205 2.408-.009 5.556 1.152 5.95 1.302Zm0 0c.071.05.038 0 .038 0a.106.106 0 0 0-.034.004l-.004-.004ZM123.238 90.74l.841 1.194s-7.144 9.405-10.582 11.914c-.42-.209-.815-.438-1.227-.685 2.786-1.377 10.968-12.423 10.968-12.423ZM125.57 94.063l.421.66s-3.421 6.47-8.75 10.816a35.91 35.91 0 0 1-2.786-1.198c3.19-1.399 10.124-11.271 10.266-11.488l.849 1.21ZM52.95 55.353C32.29 57.19 23.113 65.577 23.113 65.577a64.73 64.73 0 0 0 1.139 2.993 18.525 18.525 0 0 1 1.79-1.67c9.342-7.773 28.307-11.075 28.664-11.138-1.1-.275-1.757-.409-1.757-.409ZM98.188 67.689c4.471.601 7.291 1.448 10.926 4.909a6.763 6.763 0 0 1-6.98.877 6.713 6.713 0 0 1-2.796-2.34 6.65 6.65 0 0 1-1.15-3.446Z" fill="#00A1B3"/><path d="m124.079 91.934.643.919c-.143.204-7.077 10.089-10.267 11.488-.315-.159-.634-.318-.958-.493 3.45-2.509 10.582-11.914 10.582-11.914ZM109.118 72.598a6.766 6.766 0 0 1-6.98.877 6.716 6.716 0 0 1-2.796-2.34 6.65 6.65 0 0 1-1.15-3.446l-1.29-.163a107.279 107.279 0 0 1-27.702-7.18 102.12 102.12 0 0 0-14.469-4.592c-.357.063-19.33 3.365-28.664 11.138a18.514 18.514 0 0 0-1.79 1.67c7.715 18.951 17.96 17.574 33.526 14.727 4.963-.91 10.472-1.966 16.616-2.563 26.345-2.555 21.432 5.05 28.904 14.485a32.238 32.238 0 0 0 8.951 7.932c2.786-1.378 10.968-12.424 10.968-12.424-6.711-9.496-10.766-14.923-14.124-18.121Z" fill="#00B2C6"/><path d="M105.218 86.545a46.627 46.627 0 0 0-13.607-9.856c-5.51-2.592-11.392-3.694-17.436-4.141-6.858-.51-13.821-.367-20.545-1.983-4.202-1.002-8.3-2.784-11.573-5.531a7 7 0 0 0 1-3.394c.063-1.048.193-2.358-.315-3.34-.223-.417-.84-.05-.639.368.42.776.273 2.087.219 2.955a6.264 6.264 0 0 1-.84 2.923 18.968 18.968 0 0 1-3.875-4.851.367.367 0 0 0-.635.367c6.182 11.075 20.083 12.332 31.45 12.883 6.678.325 13.402.71 19.726 3.06a44.615 44.615 0 0 1 15.041 9.571 54.26 54.26 0 0 1 6.492 7.514c2.017 2.776 3.963 5.61 6.489 7.969.155-.187.306-.379.462-.571-4.392-4.146-7.228-9.614-11.414-13.943ZM29.143 69.392a.374.374 0 0 0-.504-.13l-3.14 2.121.32.664 2.887-1.941a34.318 34.318 0 0 0 3.728 5.226c.378.418.966.877 1.08 1.44.113.564-.26 1.278-.42 1.854-.22.843-.385 1.699-.492 2.563.223.18.445.355.672.522.145-1.355.427-2.692.84-3.99.248-.773.366-1.136-.16-1.783-1.714-2.142-3.437-4.137-4.81-6.546Z" fill="#00A1B3"/><path d="M65.657 105.693c.332.338.84-.179.522-.518-2.358-2.4-4.837-4.47-7.934-5.844-3.098-1.373-6.304-2.183-9.527-2.972a.365.365 0 0 0-.402.167.356.356 0 0 0-.048.146c.193.163.298.246.349.284l-.345-.125a.333.333 0 0 0 .252.233c3.165.773 6.367 1.553 9.346 2.898 2.98 1.344 5.476 3.377 7.787 5.731Zm-17.036-8.766a.104.104 0 0 1 .038 0s.034.062-.038.012v-.012Z" fill="#008897"/><path d="M70.906 31.763S84.017 33.5 100.68 28.77c-5.74 3.24-11.93 5.607-18.356 7.46-3.253.935-6.54 1.727-9.863 2.375-.517.1-1.034.197-1.555.284v-7.126Z" fill="#C73109"/><path d="M103.697 19.499a1.423 1.423 0 0 0-1.311.865 1.399 1.399 0 0 0 .304 1.535 1.419 1.419 0 0 0 1.544.307c.259-.107.48-.287.636-.518a1.399 1.399 0 0 0-.174-1.776 1.422 1.422 0 0 0-.999-.413Zm-10.926-.175s14.565.793 20.108-2.33c.731-.956-3.11-1.227-5.391-1.173l.89-9.56c1.039.193 2.057.485 3.039.873 1.076.42 2.123.91 3.135 1.465a6.673 6.673 0 0 0 1.012 8.166c-.281.38-.571.734-.84 1.056a43.88 43.88 0 0 1-6.551 5.973 61.06 61.06 0 0 1-7.493 4.968c-16.663 4.73-29.774 2.993-29.774 2.993v-9.63s14.843-.931 19.78-2.242l2.085-.56Zm6.572 6.161a1.4 1.4 0 0 0-.871-1.298 1.425 1.425 0 0 0-1.542.299 1.405 1.405 0 0 0-.315 1.529 1.423 1.423 0 0 0 2.62.012c.072-.172.109-.356.108-.542Z" fill="#DE370B"/><path d="M116.745 10.524c1.324 2.058.164 4.42-1.189 6.24a6.67 6.67 0 0 1-1.004-8.174 6.324 6.324 0 0 1 2.193 1.934ZM107.471 15.821c2.282-.054 6.123.217 5.391 1.173-5.542 3.123-20.108 2.33-20.108 2.33 3.955-1.078 7.014-2.088 8.199-3.828 0 0 1.916.025 3.719.1.936.022 1.871.098 2.799.225Z" fill="#C73109"/><path d="m108.379 6.262-.908 9.56a25.032 25.032 0 0 0-2.799-.226l2.488-9.51v-.05c.42.063.84.134 1.219.226Z" fill="#FF9C90"/><path d="M107.16 6.036v.05l-2.467 9.51c-1.803-.075-3.719-.1-3.719-.1s-11.145-.468-14.04-1.303c-2.895-.835-4.013-2.313-3.753-5.01 0 0-4.156.656-4.05-.521.104-1.177 4.916-2.254 4.916-2.254s-.265-2.158 2.172-2.025c1.53.1 3.026.49 4.409 1.148 0 0 9.669-.576 16.532.505Z" fill="#FFB6AD"/><path d="m85.43 7.026-.068 4.2a.366.366 0 0 0 .368.327.371.371 0 0 0 .368-.328l.05-4.2a.367.367 0 0 0-.36-.28.371.371 0 0 0-.358.28Z" fill="#FF9C90"/><path d="M103.697 19.499a1.424 1.424 0 0 1 1.309.868 1.397 1.397 0 0 1-.307 1.533 1.42 1.42 0 0 1-2.418-.994c0-.373.149-.731.415-.995a1.42 1.42 0 0 1 1.001-.412ZM97.915 24.082c.28 0 .554.083.787.238a1.41 1.41 0 0 1 .601 1.445 1.404 1.404 0 0 1-1.115 1.104 1.425 1.425 0 0 1-1.453-.601 1.4 1.4 0 0 1 .638-2.08 1.42 1.42 0 0 1 .542-.105ZM79.454 25.49c.782 0 1.416-.63 1.416-1.407s-.634-1.407-1.416-1.407c-.782 0-1.416.63-1.416 1.407 0 .776.634 1.406 1.416 1.406ZM87.022 30.862c.782 0 1.416-.63 1.416-1.407s-.634-1.407-1.416-1.407c-.782 0-1.416.63-1.416 1.407s.634 1.407 1.416 1.407Z" fill="#FFE7E0"/><path d="M56.005 22.125a47.422 47.422 0 0 1 9.644-.835c-.038.154-1.681 6.428-1.748 9.075 0 .726-.353 1.449-1.232 1.194-.878-.255-1.302-1.64-1.82-2.355-.579-.81-1-1.72-1.533-2.567-1.055-1.67-2.521-3.69-4.589-4.174a8.556 8.556 0 0 1 1.278-.338ZM58.224 30.858s1.025 4.082-3.497 6.75c-4.521 2.667-2.311 4.433-2.311 4.433s-2.076.063-2.669-1.373c0 0-12.186 1.52-22.932 13.992 3.652-7.906 7.371-13.884 10.88-18.421l20.529-5.381Z" fill="#DE370B"/><path d="M54.727 37.608c4.522-2.668 3.497-6.75 3.497-6.75l-20.529 5.38c7.69-9.939 14.338-12.94 17.032-13.796 2.06.476 3.534 2.505 4.59 4.174.533.835.953 1.758 1.533 2.568.517.713.887 2.087 1.82 2.354.932.267 1.214-.468 1.23-1.194.064-2.646 1.711-8.92 1.749-9.075 3.744.108 5.257.835 5.257.835 5.09 9.839.248 17.812-4.32 22.066-.147.025-3.299.563-4.261-1.42-.962-1.982-1.315-.646-2.521 0-1.207.648-2.8.518-2.782 1.892.016 1.373 3.072-.18 3.916 3.373-3.954 2.638-7.989 7.338-7.989 7.338-15.88.973-29.836 10.224-29.836 10.224.122-1.825 2.034-7.21 2.034-7.21a136.011 136.011 0 0 1 1.647-3.703c10.754-12.473 22.932-13.992 22.932-13.992.593 1.436 2.669 1.373 2.669 1.373s-2.185-1.77 2.332-4.437Z" fill="#FF3D0A"/><path d="M66.586 44.182a18.025 18.025 0 0 1-4 2.893c-.563.283-1.108.601-1.63.952-.841-3.552-3.9-2-3.918-3.373-.016-1.373 1.597-1.252 2.782-1.89 1.185-.64 1.513-2.034 2.522 0 1.008 2.032 4.114 1.444 4.261 1.418h-.017Z" fill="#DE370B"/><path d="M54.366 25.798c.782 0 1.416-.63 1.416-1.407s-.634-1.406-1.416-1.406c-.782 0-1.416.63-1.416 1.406 0 .777.633 1.407 1.416 1.407ZM60.19 37.203c.782 0 1.416-.63 1.416-1.407s-.634-1.407-1.416-1.407c-.782 0-1.416.63-1.416 1.407s.634 1.407 1.416 1.407ZM35.716 54.005c.782 0 1.416-.63 1.416-1.407s-.634-1.407-1.416-1.407c-.782 0-1.416.63-1.416 1.407s.634 1.407 1.416 1.407ZM45.486 45.84c.924 0 1.673-.744 1.673-1.662 0-.917-.749-1.661-1.673-1.661-.923 0-1.672.744-1.672 1.661 0 .918.748 1.662 1.672 1.662ZM69.339 34.06a2.304 2.304 0 0 0 2.31-2.297 2.304 2.304 0 0 0-2.31-2.296 2.304 2.304 0 0 0-2.312 2.297 2.304 2.304 0 0 0 2.312 2.295ZM51.76 53.492a2.304 2.304 0 0 0 2.312-2.296A2.304 2.304 0 0 0 51.76 48.9a2.304 2.304 0 0 0-2.311 2.296 2.304 2.304 0 0 0 2.311 2.296Z" fill="#FFE7E0"/><path d="M57.938 29.789s2.941 4.859-10.031 8.278c-12.973 3.419-21.096 5.347-21.096 5.347s1.139 1.946 2.685 4.655l-9.632 4.003c-.487-.51-.954-.964-1.387-1.352a38.61 38.61 0 0 1-6.038-6.542 6.694 6.694 0 0 0 1.811-1.996 6.648 6.648 0 0 0-.588-7.605c3.294-1.745 9.686-3.506 21.726-5.76 20.83-3.895 21.343-.973 22.55.972Z" fill="#FF5713"/><path d="M27.563 43.243a.322.322 0 0 0-.034-.08 26.23 26.23 0 0 0-3.895-5.593c-.32-.35-.84.167-.521.518a25.296 25.296 0 0 1 3.723 5.326l.727-.17Z" fill="#FF3D0A"/><path d="M36.388 63.669c.206.513 2.362 5.877.962 7.268-1.47 1.457-5.148-2.922-5.148-2.922s-4.916-7.193-9.446-12.662l7.522-5.907c2.698 4.747 6.173 11 7.316 13.697 0 0 .98 1.219.244 1.707-.668.443-1.337-.93-1.45-1.181Z" fill="#FFB6AD"/><path d="m30.278 49.447-7.522 5.906c-1-1.206-1.984-2.329-2.892-3.273l9.632-4.003c.252.439.513.894.782 1.37Z" fill="#FF9C90"/><path d="M13.662 34.577a6.637 6.637 0 0 1 .588 7.605 6.696 6.696 0 0 1-1.811 1.996l-.172-.254-.08-.092c-.076-.121-.156-.238-.227-.355-.072-.117-.143-.23-.21-.346a13.695 13.695 0 0 1-.55-1.027c-.102-.218-.198-.418-.282-.64l.008-.066a9.268 9.268 0 0 1-.315-.948c-.026-.108-.055-.212-.076-.32-.02-.11-.038-.172-.05-.26-.013-.087-.046-.271-.06-.417-.012-.146 0-.175-.02-.259-.021-.084 0-.2 0-.3v-.347c.005-.106.016-.212.034-.317.013-.106.033-.21.058-.313v-.071a.586.586 0 0 1 .026-.092c0-.046.025-.092.042-.142l.05-.15c.03-.08.063-.155.097-.234a.88.88 0 0 1 .054-.109l.068-.13c.07-.126.149-.249.235-.366l.088-.126.177-.217.138-.15c.076-.08.16-.163.244-.242l.13-.117c.147-.125.299-.25.47-.376l.329-.23.084-.054.18-.116.236-.142c.168-.088.336-.18.517-.276Z" fill="#FF3D0A"/><path d="m13.149 34.86-.235.143.235-.142ZM12.914 35.003l-.181.117.18-.117ZM10.62 37.47l-.051.15.05-.15ZM10.506 37.925Z" fill="#FF3D0A"/><path d="M35.3 65.422c-.84.518-1.681 1.002-2.572 1.461-.42.217-.047.835.37.63.88-.456 1.738-.943 2.576-1.46.403-.247.046-.877-.374-.63Z" fill="#FF9C90"/><path d="M35.27 35.086c.924 0 1.673-.743 1.673-1.661s-.75-1.661-1.673-1.661c-.924 0-1.672.743-1.672 1.66 0 .919.748 1.662 1.672 1.662ZM17.124 46.27c.783 0 1.417-.63 1.417-1.407s-.634-1.407-1.417-1.407c-.782 0-1.416.63-1.416 1.407s.634 1.407 1.416 1.407ZM21.28 36.239c.783 0 1.417-.63 1.417-1.407s-.634-1.407-1.416-1.407c-.782 0-1.416.63-1.416 1.407s.634 1.407 1.416 1.407ZM48.57 36.873c.783 0 1.417-.63 1.417-1.407s-.634-1.407-1.416-1.407c-.783 0-1.417.63-1.417 1.407s.634 1.407 1.416 1.407Z" fill="#FFE7E0"/><path d="M57.261 17.9c.244.1.273.418.248.689a6.278 6.278 0 0 1-1.504 3.536c1.723.384 3.126 1.67 4.118 3.101.992 1.432 1.643 3.102 2.416 4.68.48-.96.395-2.087.441-3.156.055-1.188.281-2.362.673-3.486a14.656 14.656 0 0 1 2.248-3.94.134.134 0 0 0-.143.125L57.261 17.9Z" fill="#FFB6AD"/><path d="m65.758 19.44-8.497-1.54c.244.1.273.418.252.689a6.311 6.311 0 0 1-1.508 3.536c.7.163 1.362.459 1.95.872 2.017-1.06 4.378-1.152 6.232-.98a17.453 17.453 0 0 1 1.714-2.693.135.135 0 0 0-.143.116Z" fill="#FF9C90"/><path d="M67.485 6.086c.32.172 2.471 1.228 3.337 2.505.572.864-1.933 2.087-1.933 2.087l-1.404-4.592Z" fill="#FF8178"/><path d="M62.586 20.906c4.129 0 7.476-3.815 7.476-8.52 0-4.706-3.347-8.52-7.476-8.52-4.13 0-7.476 3.814-7.476 8.52 0 4.705 3.347 8.52 7.476 8.52Z" fill="#FFB6AD"/><path d="M64.792 17.741c1.963 0 3.555-1.58 3.555-3.531 0-1.95-1.592-3.532-3.555-3.532-1.964 0-3.555 1.581-3.555 3.532 0 1.95 1.591 3.531 3.555 3.531Z" fill="#FF8178"/><path d="M65.649 11.167c.406 0 .735-.436.735-.973 0-.537-.329-.973-.735-.973-.406 0-.735.436-.735.973 0 .537.329.973.735.973Z" fill="#211E21"/><path d="M52.79 6.187a4.398 4.398 0 0 1-2.042 2.229 3.549 3.549 0 0 1-2.997.1l.21.033c.173.025-.84 3.757-.97 4.095-1.606 4.676-5.094 9.96-10.237 11.213-5.581 1.36-9.166-3.707-9.178-8.741a12.129 12.129 0 0 1 3.362-8.533c2.68-2.7 6.463-3.285 10.115-3.46 1.21-.059 2.488-.067 3.55.521a8.425 8.425 0 0 1 3.85-3.16 6.672 6.672 0 0 1 4.997 0 3.709 3.709 0 0 1 1.6 1.186 2.133 2.133 0 0 1 .333 1.9 3.498 3.498 0 0 1-1.307 1.469c-.47.388-1.06.617-1.286 1.148Z" fill="#6A3445"/><path d="M52.849 7.648a1.704 1.704 0 0 1-.42-1.357c.064-.484.242-.946.52-1.348a5.147 5.147 0 0 1 1.42-1.42 2.423 2.423 0 0 1 1.539-.488c.276.016.537.126.74.311.203.186.335.436.373.707.03.576-.466 1.023-.886 1.424a10.093 10.093 0 0 0-1.601 2.037 1 1 0 0 1-.806.524 1.01 1.01 0 0 1-.88-.39Z" fill="#FFAF03"/><path d="M62.968 7.468a3.68 3.68 0 0 1-.576 2.968 4.716 4.716 0 0 1-.89.914c-.367.33-.815.558-1.3.66-.514.015-1.029.001-1.542-.042a3.328 3.328 0 0 1 1.854 1.996c.327.886.43 1.84.298 2.776a3.544 3.544 0 0 1-.328 1.252 2.709 2.709 0 0 1-2 1.377 4.019 4.019 0 0 1-2.442-.45 5.27 5.27 0 0 1-2.475-2.639 7.446 7.446 0 0 1-.47-1.832 12.585 12.585 0 0 1 1.865-8.8 10.411 10.411 0 0 1 3.302-3.17 10.49 10.49 0 0 1 4.35-1.455 4.516 4.516 0 0 1 3.47 1.211 4.456 4.456 0 0 1 1.393 3.38c.01.424-.11.84-.345 1.195a2.382 2.382 0 0 1-1.68.743 8.836 8.836 0 0 1-2.324-.055l-.16-.029Z" fill="#6A3445"/></svg>