<svg fill="none" xmlns="http://www.w3.org/2000/svg" viewBox="0 0 94 118"><path d="M4.754 48.696c-.639 1.486-.973 3.443.22 4.53 1.084.992 2.838.672 4.128-.035 1.291-.707 2.43-1.746 3.853-2.119 1.423-.373 3.302.36 3.41 1.825.086 1.17-.95 2.079-1.854 2.839-4.873 4.14-8.34 9.68-11.46 15.241-1.44 2.572-2.852 5.27-3.032 8.21a9.83 9.83 0 0 0 2.165 6.815 8.911 8.911 0 0 0 6.346 3.223c4.168.199 7.817-2.648 10.775-5.59 5.159-5.128 9.54-10.984 13.48-17.094 2.162-3.355 4.226-6.885 5.058-10.776.225-.872.272-1.78.138-2.67a7.466 7.466 0 0 0-.713-1.853 46.548 46.548 0 0 0-13.1-16.018c-1.718-1.324-3.674-3.136-5.674-1.618-1.84 1.395-3.533 3.13-5.26 4.666-3.36 2.988-6.68 6.221-8.48 10.424ZM68.613 24.683c1.007-.72 2.09-1.398 3.31-1.61 1.219-.212 2.61.143 3.328 1.15 1.018 1.422.34 3.419-.601 4.891-.941 1.473-2.163 2.913-2.2 4.672-.028.294.048.59.215.834.246.307.689.373 1.084.363 1.656-.04 3.15-.975 4.446-2.005 3.09-2.455 5.695-5.68 9.354-7.15 3.71-1.492 6.842 2.534 6.41 5.971-.376 3.022-2.846 5.745-4.504 8.195a387.386 387.386 0 0 1-6.148 8.853 396.307 396.307 0 0 1-12.828 16.95c-1.238 1.547-2.496 3.094-3.975 4.423-1.195 1.08-2.576 2.034-4.155 2.338-.609.151-1.25.095-1.823-.158-.827-.43-1.206-1.396-1.415-2.302-.36-1.565-.422-3.178-.48-4.788-.22-5.994-.44-12.019.278-17.972.188-1.568.443-3.128.697-4.688l.71-4.372c.406-2.495.705-5.517 2.08-7.705 1.466-2.304 4.036-4.322 6.217-5.89Z" fill="#6D70AD"/><path d="M70.612 42.997c-.424-.914-1.179-1.714-1.261-2.715-.106-1.279.909-2.346 1.351-3.551a4.193 4.193 0 0 0-.403-3.66c-.752-1.168-2.12-2.005-2.369-3.37-.24-1.28.591-2.491.91-3.757.384-1.518-.083-3.297-1.363-4.203-.882-.625-2.014-.774-2.976-1.271a4.62 4.62 0 0 1-2.437-3.602c-.133-1.396.381-2.829.042-4.187-.376-1.515-1.736-2.593-3.15-3.25a34.516 34.516 0 0 0-2.606-1.1c-.808-.301-1.743-.426-2.504-.828-.81-.43-1.261-1.253-1.765-1.978-.559-.795-1.15-1.59-1.722-2.384-.853-1.208-1.903-2.347-3.28-2.858a4.621 4.621 0 0 0-2.457-.2 4.616 4.616 0 0 0-2.456.2c-1.381.511-2.417 1.65-3.284 2.847-.572.795-1.16 1.59-1.722 2.384-.504.726-.951 1.55-1.762 1.978-.76.403-1.696.53-2.507.83-.883.325-1.75.701-2.602 1.098-1.418.657-2.775 1.735-3.154 3.25-.339 1.359.175 2.791.043 4.187a4.613 4.613 0 0 1-2.436 3.602c-.962.498-2.096.646-2.978 1.271-1.277.916-1.744 2.696-1.36 4.224.321 1.266 1.153 2.477.91 3.758-.266 1.364-1.617 2.201-2.367 3.37a4.194 4.194 0 0 0-.397 3.649c.442 1.205 1.457 2.272 1.354 3.551-.082 1.001-.84 1.801-1.262 2.715a4.271 4.271 0 0 0 4.36 6.041l21.594.238h.074l21.591-.238A4.277 4.277 0 0 0 71 45.201a4.27 4.27 0 0 0-.377-2.204h-.01Z" fill="#303A55"/><path d="M25.623 109.644a23.495 23.495 0 0 0-8.087 2.524c-.774.408-1.62 1.009-1.635 1.883-.019 1.134 1.303 1.732 2.384 2.039 4.256 1.198 8.676 2.408 13.04 1.698 2.94-.479 5.66-1.803 8.467-2.797 5.652-2.002 12.95.999 17.818-3.241.265-.228.53-.588.36-.89a.73.73 0 0 0-.31-.265c-1.764-.969-4.027-1.059-5.991-.975-2.231.098-4.465.154-6.699.231l-13.398.461-2.411.084" fill="#6D70AD"/><path d="M64.793 72.201a6.203 6.203 0 0 0-3.647 6.98 6.2 6.2 0 0 0 1.702 3.129c2.234-2.1 4.028-5.39 1.945-10.109Z" fill="#2E3257"/><path d="M62.273 82.824c-.1 1.69-.32 3.372-.66 5.032L43.488 95.14l-1.15-.913c7.02-3.973 14.664-8.284 16.57-9.238a17.196 17.196 0 0 0 3.365-2.166Z" fill="#232644"/><path d="M40.398 79.24a30.534 30.534 0 0 0-6.765 6.953c-.201.29-.4.574-.596.85-1.855-1.653-3.673-3.39-5.355-4.91l4.118-6.494c2.602.667 5.808 1.43 8.598 3.602ZM29.001 74.794l-3.59 5.381c-.25-.198-.49-.389-.73-.57l3.549-5.185c.248.142.506.266.771.374Z" fill="#2E3257"/><path d="m28.229 74.42-3.549 5.186a20.358 20.358 0 0 0-.983-.697l3.289-5.728c.277.53.71.964 1.243 1.24Z" fill="#4C9ED0"/><path d="m26.987 73.18-3.289 5.743c-1.508-.988-2.809-1.446-3.829-1.015-3.649 1.544-9.919 4.376-10.517 2.575 0 0 .114-1.203 1.658-2.188 1.545-.985 14.238-8.43 14.238-8.43.612.81 1.108 2.008 1.739 3.316Z" fill="#61BDF6"/><path d="M15.34 78.128c-.293.914-.545 1.875-.195 2.807.156.41.821.233.662-.182-.31-.821-.06-1.642.194-2.442.135-.419-.528-.601-.66-.183ZM17.63 80.175c-.512-.556-.241-1.73-.12-2.383.08-.432-.583-.617-.662-.183-.18.959-.435 2.257.297 3.051.3.328.784-.148.485-.485ZM20.99 78.443a3.562 3.562 0 0 0-.912-.58l.512-.264c.264-.116.502-.284.7-.493a.796.796 0 0 0-.265-1.258c-.53-.265-1.174.018-1.574.395-.197.186-.351.411-.454.662a.355.355 0 0 0-.675.119 11.323 11.323 0 0 0 .143 3.05c.076.435.739.25.662-.182a10.28 10.28 0 0 1-.093-.628c.206.319.477.59.795.795.472.302 1.325.585 1.73.047.435-.572-.137-1.281-.569-1.663Zm-.4-1.994c.53.117-.16.456-.347.554l-.69.355c.038-.165.11-.32.21-.456.17-.228.517-.52.827-.453Zm.392 3.2c-.185.293-.9-.22-1.073-.382a1.96 1.96 0 0 1-.564-.948c.263.07.517.176.752.315.207.124 1.063.728.885 1.014Z" fill="#191C3A"/><path d="M22.146 69.084c1.479-.61 2.385-.19 3.103.781 0 0-12.693 7.429-14.238 8.417-1.544.988-1.658 2.187-1.658 2.187-.602-1.803-.265-2.06 10.517-8.74.005-.013-.44-1.528 2.276-2.645Z" fill="#232644"/><path d="m43.482 95.13 18.126-7.285a19.276 19.276 0 0 1-2.12 5.795c-.294.5-.586.961-.88 1.385a6.203 6.203 0 0 0-9.964 3.496c-1.714-.795-3.434-2.04-5.162-3.39Z" fill="#2E3257"/><path d="M29.814 78.962c2.157.705 4.325 1.415 6.331 2.471 1.916 1.01 3.654 2.315 5.382 3.615 2.207 1.658 4.415 3.319 6.503 5.125.534.493 1.113.936 1.728 1.324a5.568 5.568 0 0 0 4.756.403 3.482 3.482 0 0 0 1.352-.882c.355-.437.62-.94.779-1.48a13.4 13.4 0 0 0 .726-4.071c0-.085-.014-.19-.093-.21-.08-.018-.082.16-.016.112" stroke="#232644" stroke-width="3" stroke-miterlimit="10" stroke-linecap="round"/><path d="m31.404 74.156-.665-.334a1.029 1.029 0 0 0-1.325.35l-.416.622-3.588 5.381-1.217 1.822a1.031 1.031 0 0 0 .316 1.441l.813.517a1.031 1.031 0 0 0 1.423-.337l.936-1.477 4.118-6.502.015-.024a1.032 1.032 0 0 0-.41-1.46Z" fill="#191C3A"/><path d="M59.136 55.866c.612 2.497 1.516 6.55 2.21 11.19a47.628 47.628 0 0 0-6.436-5.923l-5.926-5.252 10.152-.015Z" fill="#2E3257"/><path d="m59.135 55.866-10.152.02-3.01-2.669H58.45s.278.977.684 2.649ZM54.702 93.64a6.184 6.184 0 0 1 3.909 1.385c-3.307 4.783-6.625 5.032-9.966 3.499a6.194 6.194 0 0 1 6.057-4.884Z" fill="#232644"/><path d="m45.973 53.217 3.01 2.67-2.584.002-.426-2.672Z" fill="#2E3257"/><path d="m45.974 53.217.427 2.665-16.997.034a12.654 12.654 0 0 1 1.686-2.384l14.884-.315Z" fill="#2E3257"/><path d="M64.783 72.204c-.69-1.558-1.797-3.268-3.445-5.146a47.623 47.623 0 0 0-6.437-5.922l-5.917-5.255H46.4l-16.996.035a13.666 13.666 0 0 0-1.402 3.546l5.493-1.814 1.185 6.939-3.59 6.21c6.889 6.412 12.03 5.85 13.94 5.578a27.03 27.03 0 0 0-4.632 2.858 30.536 30.536 0 0 0-6.765 6.952c-.201.29-.4.574-.596.85a58.597 58.597 0 0 1-4.505 5.683l4.555 6.724 9.243-5.233c7.02-3.972 14.665-8.284 16.57-9.237a17.2 17.2 0 0 0 3.373-2.148c.194-.16.384-.326.57-.503a6.199 6.199 0 0 1 1.945-10.109l-.005-.008Z" fill="#444A72"/><path d="m33.495 57.656 1.184 6.939-3.59 6.21C27.549 66.544 27.27 62.547 28 59.47l5.494-1.814Z" fill="#2E3257"/><path d="M29.943 94.739c3.726-4.857 7.929-9.945 13.393-12.712 3.315-1.68 6.996-2.49 10.427-3.91 1.251-.53 2.565-1.215 3.09-2.463.702-1.665-.323-3.583-1.67-4.79-1.738-1.563-3.974-2.43-5.977-3.634-2.004-1.205-3.774-2.76-4.919-4.767-1.145-2.008-1.59-4.468-.869-6.661l-.122.553" stroke="#2E3257" stroke-width="3" stroke-miterlimit="10" stroke-linecap="round"/><path d="M45.03 76.383a15.155 15.155 0 0 1 7.522-1.748" stroke="#2E3257" stroke-width="3" stroke-miterlimit="10" stroke-linecap="round"/><path d="M30.475 100.923h-.016l-4.441-5.792c.148-.12.307-.249.469-.392l3.988 6.184Z" fill="#444A72"/><path d="m26.017 95.13 4.43 5.801a3.153 3.153 0 0 0-.794.614l-5.26-5.469a4.999 4.999 0 0 0 1.624-.945Z" fill="#4C9ED0"/><path d="M29.664 101.545c-2.788 3.025 1.325 10.965 0 12.991-.072 0-2.303-.186-3.71-4.407-1.434-4.291-4.505-12.977-4.505-12.977 1.034-.61 2.316-.917 2.952-1.086l5.263 5.479Z" fill="#61BDF6"/><path d="M30.21 109.559c-.771-.776-1.837-.746-2.849-.627-.434.05-.44.736 0 .686.811-.096 1.733-.207 2.364.426.032.032.07.057.111.074a.33.33 0 0 0 .263 0 .337.337 0 0 0 .185-.185.344.344 0 0 0-.074-.374ZM30.134 107.79c-.814-1.001-2.12-.778-3.23-.479a.344.344 0 0 0 .182.662c.867-.238 1.91-.5 2.563.302.278.35.76-.14.485-.485ZM31.182 104.366c-.148-.644-.885-.795-1.436-.612a2.732 2.732 0 0 0-1.208.893 2.704 2.704 0 0 0-.61-1.107.85.85 0 0 0-.703-.241.84.84 0 0 0-.622.407c-.265.514-.103 1.187.223 1.632.049.065.1.127.156.185a3.29 3.29 0 0 0-.638.228c-.398.188-.05.781.347.591a2.385 2.385 0 0 1 2.515.296c.339.265.829-.209.485-.487-.056-.042-.11-.085-.168-.125a4.05 4.05 0 0 0 .602-.225c.535-.249 1.219-.736 1.057-1.435Zm-4.035-.109c.092-.683.487.037.577.265.122.294.23.593.345.893-.509-.188-1-.586-.922-1.158Zm2.915.795c-.038.024-.997.458-1.02.368a.323.323 0 0 0-.112-.177c.297-.429.753-.885 1.238-.877.606.005.177.524-.093.686h-.014Z" fill="#191C3A"/><path d="M29.66 114.536a.998.998 0 0 1-.651.442c-3.18.691-6.89-12.397-6.89-12.397s-1.039.691-2.083-2.254c-.53-1.525.291-2.516 1.404-3.165 0 0 3.077 8.676 4.505 12.977 1.413 4.211 3.644 4.392 3.715 4.397Z" fill="#232644"/><path d="m33.448 99.983-.36-.53-4.556-6.724-.395-.583a1.03 1.03 0 0 0-1.497-.206l-.57.468a1.027 1.027 0 0 0-.211 1.359l.628.975 3.975 6.184.484.754a1.034 1.034 0 0 0 1.072.446c.134-.027.262-.082.375-.16l.795-.529a1.037 1.037 0 0 0 .26-1.454Z" fill="#191C3A"/><path d="M27.572 23.57s5.594-11.56 17.09-11.56c11.495 0 17.92 9.972 17.92 9.972l.075 32.12h-35.01l-.075-30.531Z" fill="#4BA2D8"/><path d="m51.336 49.647.217 4.457H39.711l.09-4.931 11.535.474Z" fill="#fff"/><path d="m51.31 49.133.026.514-11.535-.474v-.516l11.508.476Z" fill="#2E3257"/><path d="m51.202 46.877.108 2.256-11.498-.476.032-1.764c2.027-.021 4.052-.016 6.08.032 1.075.02 2.15.066 3.224.095a17.37 17.37 0 0 0 2.054-.143ZM51.084 44.536l.093 1.872c-.456.05-.915.103-1.378.109-1.177 0-2.359-.072-3.535-.101-2.136-.05-4.273-.062-6.41-.037l.031-1.75 11.199-.093Z" fill="#fff"/><path d="m51.061 44.02.024.516-11.198.092v-.516l11.174-.093Z" fill="#2E3257"/><path d="m50.854 39.787.082 1.677c-3.62-.048-7.241-.02-10.865.082a.265.265 0 0 0-.137.042l.042-2.29c3.634.02 7.26.184 10.878.49ZM50.737 37.385l.09 1.886a138.626 138.626 0 0 0-10.833-.488l.027-1.515 10.716.117Z" fill="#fff"/><path d="m50.711 36.871.027.514-10.724-.117v-.513l10.697.116Z" fill="#2E3257"/><path d="m50.652 35.695.058 1.176-10.679-.116.024-1.364c3.525.283 7.062.384 10.597.304ZM50.581 34.241l.048.94c-3.524.078-7.05-.024-10.563-.304l.014-.747c3.501-.04 7.002-.004 10.501.111ZM50.401 30.563l.157 3.16a240.526 240.526 0 0 0-10.47-.107l.058-3.16a242.04 242.04 0 0 1 10.255.107ZM50.31 28.711l.067 1.325c-3.406-.106-6.813-.14-10.22-.104l.031-1.676c3.38.03 6.754.182 10.123.455ZM50.196 26.35l.09 1.853c-3.356-.272-6.72-.42-10.09-.445l.029-1.51 9.971.101Z" fill="#fff"/><path d="m50.172 25.833.026.516-9.971-.109v-.513l9.945.106Z" fill="#2E3257"/><path d="m50.113 24.675.059 1.158-9.938-.106.027-1.351c3.28.254 6.565.354 9.852.3ZM50.04 23.192l.048.967c-3.275.058-6.549-.042-9.82-.3l.01-.765a233.69 233.69 0 0 1 9.762.098ZM49.782 17.874l.233 4.802c-3.238-.1-6.478-.131-9.72-.096l.082-4.436c1.163 1.197 2.955 1.796 4.576 1.926a5.491 5.491 0 0 0 4.829-2.196Z" fill="#fff"/><path d="m49.525 12.628.222 4.57a.24.24 0 0 0-.196.115 4.99 4.99 0 0 1-4.597 2.243c-1.651-.135-3.548-.81-4.563-2.185l.09-4.825a16.417 16.417 0 0 1 4.179-.53 19.323 19.323 0 0 1 4.865.612Z" fill="#fff"/><path d="M49.8 46.517c.463 0 .922-.059 1.377-.109l.024.469c-.68.088-1.367.136-2.053.143-1.074-.03-2.15-.074-3.225-.095a178.79 178.79 0 0 0-6.08-.032v-.514c2.137-.023 4.273-.01 6.41.037 1.18.03 2.37.109 3.546.1ZM40.066 34.877c3.513.28 7.039.382 10.563.304l.023.514c-3.536.08-7.074-.021-10.6-.304l.014-.514ZM40.28 23.86c3.27.256 6.543.355 9.82.299l.024.53c-3.286.058-6.57-.042-9.852-.3l.007-.53ZM40.195 27.75c3.368.026 6.731.175 10.091.445l.024.53a136.29 136.29 0 0 0-10.123-.445l.008-.53ZM39.995 38.783c3.615.021 7.226.184 10.833.488l.027.516a140.412 140.412 0 0 0-10.865-.49l.005-.514ZM49.782 17.874a5.489 5.489 0 0 1-4.829 2.196c-1.621-.13-3.413-.729-4.576-1.926v-.773c1.015 1.374 2.915 2.05 4.563 2.185a4.995 4.995 0 0 0 4.614-2.243.241.241 0 0 1 .196-.114M40.08 41.546c3.619-.101 7.24-.128 10.864-.082l.024.513c-3.627-.047-7.254-.02-10.88.082a.226.226 0 0 1-.147-.04v-.431a.265.265 0 0 1 .138-.042ZM40.088 33.616a235.22 235.22 0 0 1 10.47.106l.024.53a231.33 231.33 0 0 0-10.502-.111l.008-.525ZM40.157 29.943c3.408-.037 6.815-.003 10.22.103l.025.53c-3.415-.11-6.834-.145-10.255-.106l.01-.527ZM40.295 22.58c3.24-.035 6.48-.003 9.72.096l.026.516c-3.25-.1-6.504-.133-9.762-.098l.016-.514Z" fill="#2E3257"/><path d="M40.08 42.06c3.627-.101 7.254-.129 10.88-.083l.101 2.042-11.166.093.04-2.092c.042.03.093.043.145.04Z" fill="#fff"/><path d="M39.941 41.58v.432a.266.266 0 0 1 0-.432Z" fill="#2E3257"/><path d="M48.862 28.433c-.655.265-.027 1.404-.037 2.12-.101-1.034-2.695-5.176-3.832-3.232-.53.906.14 3.157.426 4.086.475 1.542.981 3.073 1.508 4.595.4-.2.795-.476 1.132-.638 1.383-.69 2.757-1.396 4.12-2.118-1.41-2.911-2.586-5.104-3.317-4.813Z" fill="#FFB6AD"/><path d="M45.58 26.82a8.737 8.737 0 0 1-.358 2.453c-.062.212-.133.424-.197.636.133.587.297 1.128.406 1.48.129.415.26.83.392 1.247.14-.304.265-.633.382-.924.201-.469.394-.945.57-1.425.3-.744.531-1.514.688-2.301-.62-.745-1.325-1.311-1.884-1.166ZM52.043 32.954c-.795.167-1.95.458-2.12.49l-2.562.53c-.265.055-.676.082-1.06.156.204.617.41 1.234.625 1.854.4-.201.795-.477 1.132-.638 1.383-.69 2.756-1.397 4.12-2.12l-.135-.272Z" fill="#FF9C90"/><path d="M62.363 21.537c-1.206-1.59-3.307-2.866-5.115-2.045-1.023.466-1.682 1.52-1.937 2.614-.254 1.094-.159 2.238-.037 3.353.67 5.999 2.157 11.918 2.414 17.935-1.934-2.447-3.869-6.767-5.49-10.14a192.867 192.867 0 0 1-4.132 2.102c-.323.16-.73.435-1.136.633 1.14 3.355 2.386 6.67 3.741 9.945a37.916 37.916 0 0 0 1.725 3.612c.795 1.486 1.691 2.914 2.63 4.328a99.526 99.526 0 0 0 2.68 3.782c.814 1.104 1.54 2.222 2.916 2.67.701.205 1.448.2 2.146-.016 2.785-.795 3.522-3.52 3.758-6.092.689-7.476-.024-15.006-.952-22.456-.442-3.586-1.012-7.349-3.211-10.225Z" fill="#61BDF6"/><path d="M61.99 55.924a4.723 4.723 0 0 0-3.556 2.685c.593.747 1.245 1.401 2.23 1.714.703.203 1.45.193 2.147-.027 1.696-.498 2.624-1.703 3.143-3.149a4.71 4.71 0 0 0-3.964-1.223ZM61.672 50.712c.265.612 1.198.188.938-.424a50.976 50.976 0 0 0-4.918-8.973.546.546 0 0 0-.122-.124c.061.672.112 1.345.146 2.02a49.55 49.55 0 0 1 3.956 7.5Z" fill="#4B99CA"/><path d="M47.764 29.977c-.546.154-1.082.33-1.608.53-.411.162-.128.794.283.625.47-.185.946-.35 1.431-.487.421-.109.318-.79-.106-.668Z" fill="#FF9C90"/><path d="M42.324 28.433c.654.265.026 1.404.037 2.12.1-1.034 2.695-5.176 3.831-3.232.53.906-.14 3.157-.426 4.086-.475 1.542-.98 3.073-1.508 4.595-.4-.2-.808-.476-1.132-.638a192.388 192.388 0 0 1-4.12-2.118c1.41-2.911 2.597-5.104 3.318-4.813Z" fill="#FFB6AD"/><path d="M39.141 32.954c.795.167 1.95.458 2.12.49l2.562.53c.265.055.676.082 1.06.156-.204.617-.41 1.234-.625 1.854-.4-.201-.808-.477-1.132-.638a192.392 192.392 0 0 1-4.12-2.12l.135-.272Z" fill="#FF9C90"/><path d="M28.824 21.537c1.205-1.59 3.307-2.866 5.114-2.045 1.023.466 1.683 1.52 1.937 2.614.254 1.094.159 2.238.037 3.353-.67 5.999-2.154 11.918-2.414 17.935 1.934-2.447 3.869-6.767 5.49-10.14 1.368.716 2.745 1.417 4.132 2.102.323.16.731.435 1.137.633a163.817 163.817 0 0 1-3.742 9.945 37.892 37.892 0 0 1-1.725 3.612c-.795 1.486-1.69 2.914-2.629 4.328a99.414 99.414 0 0 1-2.681 3.782c-.814 1.104-1.54 2.222-2.915 2.67-.702.205-1.448.2-2.147-.016-2.785-.795-3.521-3.52-3.757-6.092-.687-7.476.023-15.006.954-22.456.44-3.586 1.01-7.349 3.209-10.225Z" fill="#61BDF6"/><path d="M29.197 55.924a4.723 4.723 0 0 1 3.556 2.685c-.591.747-1.246 1.401-2.231 1.714a3.713 3.713 0 0 1-2.147-.027c-1.696-.498-2.623-1.703-3.143-3.149a4.71 4.71 0 0 1 3.965-1.223ZM29.515 50.712c-.265.612-1.198.188-.939-.424a50.983 50.983 0 0 1 4.919-8.973.547.547 0 0 1 .122-.124c-.061.672-.112 1.345-.146 2.02a49.55 49.55 0 0 0-3.956 7.5Z" fill="#4B99CA"/><path d="M43.422 29.977c.546.154 1.082.33 1.608.53.41.162.127.794-.283.625-.47-.185-.946-.35-1.431-.487-.422-.109-.318-.79.106-.668Z" fill="#FF9C90"/><path d="M40.64 16.794a5.185 5.185 0 0 1-1.649-3.475c-.045-.66-1.076-.665-1.03 0a6.27 6.27 0 0 0 1.95 4.203c.48.455 1.208-.27.728-.728ZM48.892 16.794a5.208 5.208 0 0 0 1.649-3.475c.042-.66 1.073-.665 1.03 0a6.283 6.283 0 0 1-1.95 4.203c-.48.455-1.21-.27-.729-.728Z" fill="#61BDF6"/><path d="M50.959 13.054a19.423 19.423 0 0 0-6.297-1.043 16.399 16.399 0 0 0-5.972 1.12 6.196 6.196 0 0 0 6.174 5.302 6.203 6.203 0 0 0 6.108-5.379h-.014Z" fill="#FFB6AD"/><path d="M40.125 12.643c1.325 2.053 4.057 3.465 7.229 3.465.853 0 1.703-.105 2.53-.313a6.164 6.164 0 0 0 1.074-2.741 19.423 19.423 0 0 0-6.296-1.043 16.367 16.367 0 0 0-4.537.633Z" fill="#FF9C90"/><path d="M44.865 14.11c3.072 0 5.562-2.726 5.562-6.09 0-3.365-2.49-6.092-5.562-6.092s-5.562 2.727-5.562 6.091c0 3.364 2.49 6.092 5.562 6.092Z" fill="#FFB6AD"/><path d="M49.416 11.523c.196-.306.365-.629.507-.964a1.871 1.871 0 1 0-2.415 2.823 5.72 5.72 0 0 0 1.908-1.859ZM40.278 11.523a6.446 6.446 0 0 1-.506-.964 1.871 1.871 0 1 1 2.413 2.823 5.72 5.72 0 0 1-1.907-1.859Z" fill="#FF8178"/><path d="M48.057 9.15c.062-.326-.098-.63-.357-.679-.259-.049-.519.176-.58.502-.062.327.098.63.357.68.258.048.518-.176.58-.503ZM42.214 9.658c.258-.049.418-.353.357-.68-.062-.326-.322-.55-.58-.502-.26.05-.42.353-.358.68.062.326.322.55.58.502Z" fill="#211E21"/><path d="M44.147 10.488c.032.227.25.291.45.299.21.017.42-.009.618-.074a.59.59 0 0 0 .416-.795l-.358-1.178c-.09-.305-.138-.795-.376-1.03a.15.15 0 0 0-.096-.048c-.068 0-.103.082-.121.148a15.736 15.736 0 0 0-.467 1.912 3.047 3.047 0 0 0-.066.766Z" fill="#FF8178"/><path d="M48.148 2.895c-2.578-1.987-6.14-1.306-7.95 1.52a6.684 6.684 0 0 0-1.03 3.896c.092.03.19.039.286.026.588-.085.885-.869 1.476-.945.426-.053.795.283 1.18.46a2.015 2.015 0 0 0 1.923-.243c.171-.14.357-.262.554-.363.31-.135.49.103.77.289.282.185.404.41.75.363.422-.048.687-.467 1.06-.681a1.193 1.193 0 0 1 1.148-.027c.308.162.53.453.832.628a1.464 1.464 0 0 0 1.29.061l.154-.077a6.428 6.428 0 0 0-2.443-4.907Z" fill="#303A55"/><path d="M15.476 32.33a2.403 2.403 0 1 0 .001-4.806 2.403 2.403 0 0 0-.001 4.805ZM70.914 14.566c-.25.37-.397.8-.427 1.245a1.268 1.268 0 0 0 .557 1.139c.186.101.39.164.601.183a3.417 3.417 0 0 0 3.647-2.649c.68-3.602-3.387-1.53-4.378.082ZM6.723 95.438c-.748.781-1.267 1.83-1.209 2.913-.003.235.071.464.212.652a1.1 1.1 0 0 0 .501.278 4.045 4.045 0 0 0 5.265-4.102 1.393 1.393 0 0 0-.185-.686c-1.238-1.897-3.506-.188-4.584.945Z" fill="#6D70AD"/></svg>