<svg fill="none" xmlns="http://www.w3.org/2000/svg" viewBox="0 0 92 103"><path d="M8.481 119.615V51.239a8.56 8.56 0 0 1 8.56-8.56h15.725" stroke="#4D6E3D" stroke-width="1.141" stroke-linecap="round" stroke-linejoin="round"/><ellipse rx="4.155" ry="2.507" transform="scale(-1 1) rotate(-30 194.67 61.868)" fill="#4D6E3D"/><ellipse cx="12.331" cy="99.807" rx="4.155" ry="2.507" transform="rotate(-30 12.33 99.807)" fill="#4D6E3D"/><ellipse cx="12.331" cy="87.341" rx="4.155" ry="2.507" transform="rotate(-30 12.33 87.341)" fill="#4D6E3D"/><ellipse cx="12.331" cy="74.876" rx="4.155" ry="2.507" transform="rotate(-30 12.33 74.876)" fill="#4D6E3D"/><ellipse cx="12.331" cy="62.411" rx="4.155" ry="2.507" transform="rotate(-30 12.33 62.41)" fill="#4D6E3D"/><ellipse cx="12.331" cy="49.946" rx="4.155" ry="2.507" transform="rotate(-30 12.33 49.946)" fill="#4D6E3D"/><ellipse cx="23.395" cy="45.921" rx="4.155" ry="2.507" transform="rotate(50 23.395 45.92)" fill="#4D6E3D"/><ellipse rx="4.155" ry="2.507" transform="scale(-1 1) rotate(50 -56.508 -11.24)" fill="#4D6E3D"/><ellipse rx="4.155" ry="2.507" transform="scale(-1 1) rotate(50 -51.523 -.55)" fill="#4D6E3D"/><ellipse rx="4.155" ry="2.507" transform="scale(-1 1) rotate(-30 171.41 55.635)" fill="#4D6E3D"/><ellipse rx="4.155" ry="2.507" transform="scale(-1 1) rotate(-30 148.15 49.403)" fill="#4D6E3D"/><ellipse rx="4.155" ry="2.507" transform="scale(-1 1) rotate(-30 124.889 43.17)" fill="#4D6E3D"/><ellipse rx="4.155" ry="2.507" transform="scale(-1 1) rotate(-30 101.628 36.937)" fill="#4D6E3D"/><ellipse rx="4.155" ry="2.507" transform="scale(-1 1) rotate(-50 44.06 29.049)" fill="#4D6E3D"/><rect x="6.703" y=".034" width="45.651" height="14.266" rx="7.133" fill="#8E61E1"/><path d="M21.537 4.885h15.724M23.82 9.45H34.98" stroke="#fff" stroke-width="1.712" stroke-linecap="round" stroke-linejoin="round"/><path fill-rule="evenodd" clip-rule="evenodd" d="M86.465 48.878s-7.048-7.597-3.273-10.252c3.775-2.654 3.273 10.252 3.273 10.252ZM83.031 54.275s-7.047-7.597-3.273-10.252c3.775-2.654 3.273 10.252 3.273 10.252ZM80.244 61.598S73.197 54 76.971 51.346c3.775-2.654 3.273 10.252 3.273 10.252Z" fill="#86B6D7"/><path fill-rule="evenodd" clip-rule="evenodd" d="M88.356 48.563c-2.17-1.479-8.769-5.85-9.088-5.666-.319.184.598.986.308 1.088-.29.102-2.568-1.639-2.838-1.37-.365.365 2.063 2.023 2.063 2.023s-2.75-1.683-2.976-1.275c-.16.29 1.88 1.67 2.594 2.296-.859-.58-2.363-1.354-2.522-1.05-.158.301 1.21 1.271 2.22 2.07-.677-.44-1.951-1.173-2.112-.9-.16.273 2.066 2.066 5.071 4.258" fill="#E680A9"/><path fill-rule="evenodd" clip-rule="evenodd" d="M45.02 30.788 57.123 145l.516-.055L45.536 30.733" fill="#fff"/><path d="M45.02 30.788 57.123 145l.516-.055L45.536 30.733" stroke="#fff" stroke-width=".856"/><path fill-rule="evenodd" clip-rule="evenodd" d="M72.938 30.788 85.041 145l.515-.055L73.453 30.733" fill="#fff"/><path d="M72.938 30.788 85.041 145l.515-.055L73.453 30.733" stroke="#fff" stroke-width=".856"/><path fill-rule="evenodd" clip-rule="evenodd" d="M45.793 35.893h27.919v-.519H45.793v.52ZM46.777 45.178h27.918v-.518H46.777v.518ZM47.762 54.464H75.68v-.52H47.762v.52ZM48.746 63.748h27.918v-.518H48.746v.518ZM49.728 73.034h27.919v-.519H49.728v.52ZM50.715 82.319h27.918V81.8H50.715v.519ZM51.697 91.605h27.919v-.52H51.697v.52ZM52.682 100.89H80.6v-.519H52.682v.519Z" fill="#fff" stroke="#fff" stroke-width=".856"/><path fill-rule="evenodd" clip-rule="evenodd" d="m78.07 14.162-.196 8.173s-4.078 2.622-6.858-1.29l.93-3.972 6.124-2.911Z" fill="#FFAA9C"/><mask id="a" mask-type="alpha" maskUnits="userSpaceOnUse" x="71" y="14" width="8" height="10"><path fill-rule="evenodd" clip-rule="evenodd" d="m78.07 14.162-.196 8.173s-4.078 2.622-6.858-1.29l.93-3.972 6.124-2.911Z" fill="#fff"/></mask><g mask="url(#a)"><path fill-rule="evenodd" clip-rule="evenodd" d="M71.54 17.776s1.727.155 3.002-.78c0 0-.572 2.335-3.407 2.335l.405-1.555Z" fill="#EF766D"/></g><path fill-rule="evenodd" clip-rule="evenodd" d="M72.983 9.13s-4.109 5.042-2.772 7.312c.695 1.18 1.95 1.851 3.358 1.211 1.046-.475 5.386-3.777 5.083-4.655-1.158-3.354-5.67-3.868-5.67-3.868Z" fill="#FFAA9C"/><path fill-rule="evenodd" clip-rule="evenodd" d="M71.136 12.076s-1.28.809-1.435 1.499c-.069.306.968.587.968.587" fill="#FFAA9C"/><path fill-rule="evenodd" clip-rule="evenodd" d="m70.59 14.755 1.905.141c-.067.72-1.83 2.156-1.905-.141Z" fill="#FFFFFE"/><path fill-rule="evenodd" clip-rule="evenodd" d="M72.338 12.242c-.085.163-.207.326-.246.504-.025.118.081.266.215.215.26-.102.369-.351.379-.624.005-.182-.262-.258-.348-.095ZM73.638 12.106a1.34 1.34 0 0 0-.845-.795.938.938 0 0 0-.275-.044.617.617 0 0 0-.274.06.13.13 0 0 0 .115.232.36.36 0 0 1 .159-.033c.063 0 .132.012.199.033.305.094.567.34.679.639.025.067.1.1.167.075a.13.13 0 0 0 .075-.167Z" fill="#232B55"/><path d="M80.279 10.554c-.228-.2-.488-.373-.672-.61-.46-.595-.355-1.483-.891-2.018-.5-.5-1.327-.475-1.982-.763-.398-.176-.73-.468-1.116-.669-.547-.287-1.464-.616-2.084-.68-.71-.072-1.458.15-1.942.647-.395.405-.606 1.055-.279 1.526.268.387.83.56 1.004.992.149.363-.037.774.067 1.15.197.707 1.227.866 1.654 1.478.427.612.113 1.447.378 2.135.19.492.663.862.815 1.366.098.326.052.676.15 1.003.306 1.022 1.641 1.666 2.66 1.665.508-.001.62-.229.891-.63.61-.907 1.174-1.854 1.549-2.878.359-.98.787-2.68-.05-3.567-.048-.051-.099-.1-.152-.147Z" fill="#461156"/><path fill-rule="evenodd" clip-rule="evenodd" d="M74.237 14.062c.42-1.027 1.326-.366 1.53.072.27.585-.565 1.614-.91 1.763-.7.301-1.218.19-1.198-.341" fill="#FFAA9C"/><path fill-rule="evenodd" clip-rule="evenodd" d="m85.698 96.136 3.359 13.908.87 4.214-15.41 2.719c-.377.066-.74-.208-.812-.615a.747.747 0 0 1 .317-.762l6.045-4.5-4.064-14.343" fill="#DF699D"/><path fill-rule="evenodd" clip-rule="evenodd" d="M71.076 55.398s.82 16.123 1.893 28.196c1.248 14.043 4.762 25.403 4.762 25.403l11.687-1.723s-3.85-18.089-4.268-23.695c-.594-7.947-.153-19.35-.153-19.35s2.288-4.757.205-10.468" fill="#C8505C"/><path fill-rule="evenodd" clip-rule="evenodd" d="M72.875 55.227c0 .004.011 19 1.88 31.369 1.635 10.815 4.425 22.203 4.425 22.206l.378-.093c0-.002-.174-.71-.461-1.945-.86-3.706-2.734-12.133-3.957-20.227-.93-6.158-1.4-13.989-1.637-20.277a360.568 360.568 0 0 1-.235-10.195c-.004-.543-.004-.838-.004-.839h-.389Z" fill="#273564"/><path fill-rule="evenodd" clip-rule="evenodd" d="m72.64 98.763.835 14.287.107 4.302-15.646-.086c-.382-.002-.69-.339-.688-.75a.746.746 0 0 1 .447-.694l6.748-3.345-1.452-14.84" fill="#E680A9"/><path fill-rule="evenodd" clip-rule="evenodd" d="M62.615 55.391s-1.15 17.45-.693 29.563c.459 12.112 1.112 24.51 1.112 24.51h11.943s-.345-19.7-.067-27.153c.28-7.453 1.486-17.484 1.486-17.484s2.636-3.199 1.096-10.412" fill="#D9636E"/><path fill-rule="evenodd" clip-rule="evenodd" d="M64.421 55.378c0 .002-.833 12.143-.833 23.208 0 2.203.033 4.362.112 6.375.476 12.115 1.156 24.513 1.156 24.514l.388-.021-.113-2.126c-.213-4.055-.685-13.3-1.042-22.382-.08-2.007-.112-4.162-.112-6.36 0-5.523.208-11.32.416-15.734.104-2.207.208-4.07.286-5.38.078-1.31.13-2.065.13-2.067l-.388-.027ZM68.637 59.044c.001 0 1.556.055 3.1.055.773 0 1.542-.014 2.117-.056l-.028-.388a31.57 31.57 0 0 1-2.089.055c-.767 0-1.54-.014-2.12-.028-.58-.013-.966-.027-.966-.027l-.014.389ZM79.981 59.203c.005 0 3.076-.068 4.585-.287l-.056-.385c-.728.106-1.867.178-2.818.222-.953.044-1.718.061-1.72.061l.009.389Z" fill="#131830"/><path fill-rule="evenodd" clip-rule="evenodd" d="M90.815 40.839c-1.126-8.852-3.518-13.207-5.853-15.997-3.046-3.64-6.94-4.186-6.94-4.186l-.524 11.097s4.573 9.341 4.551 10.579c-.052 2.93-3.738 13.073-3.738 13.073l7.866-.715s5.255-8.994 4.638-13.851Z" fill="#61BDF6"/><path fill-rule="evenodd" clip-rule="evenodd" d="M44.463 15.935c-1.98-1.5-7.005-6.789-7.47-6.582-.465.208 1.279 2.092.865 2.19-.413.1-3.29-2.617-3.7-2.286-.554.449 2.542 3.073 2.542 3.073s-.787-.318-1.155.21c-.261.375.484 1.137.484 1.137s-.871-.33-1.134.065c-.26.39.572 1.293.572 1.293s-.701-.35-.865.057c-.268.666 1.81 2.767 5.699 6.396" fill="#FFAA9C"/><path fill-rule="evenodd" clip-rule="evenodd" d="M78.024 20.656s6.183 2.332 7.663 10.707c.659 3.725.484 24.757.484 24.741-11.475 2.027-23.75-.424-23.75-.424s.487-16.194.377-21.138c-.266-11.81 9.17-13.65 9.17-13.65l6.056-.236Z" fill="#61BDF6"/><path fill-rule="evenodd" clip-rule="evenodd" d="M86.145 53.597s-.261.047-.754.118c-1.475.212-5.013.638-9.635.638-3.86 0-8.478-.297-13.283-1.262l-.076.382c4.836.971 9.478 1.269 13.36 1.269 6.194 0 10.448-.76 10.456-.761l-.068-.384Z" fill="#3B327F"/><path fill-rule="evenodd" clip-rule="evenodd" d="M77.502 20.676s-7.284-.295-12.751.46c-5.659.781-9.76 1.208-11.93.454s-10.399-8.314-10.399-8.314l-5.865 5.815s8.847 11.616 16.727 12.587c7.88.971 16.509-1.08 16.509-1.08" fill="#61BDF6"/><path fill-rule="evenodd" clip-rule="evenodd" d="m62.962 31.912 5.625-.88-.06-.384-5.625.88" fill="#24243B"/></svg>