<svg fill="none" xmlns="http://www.w3.org/2000/svg" viewBox="0 0 85 75"><path fill-rule="evenodd" clip-rule="evenodd" d="M30.827 3.662c-2.261 0-4.216 1.099-4.996 3.758-.78 2.659-1.108 3.046-2.523 3.898-1.415.853-3.944 1.042-5.15 2.978-1.206 1.935.443 4.492-.588 7.007-1.031 2.515-4.064 3.518-4.064 6.722 0 3.204 2.492 5.474 7.409 6.62 4.916 1.145 14.23.916 16.431-6.62 2.202-7.536.904-12.08-.512-17.202-1.417-5.123-3.746-7.16-6.007-7.16Z" fill="url(#a)"/><path fill-rule="evenodd" clip-rule="evenodd" d="M26.827 14.152A8.893 8.893 0 0 0 19.2 19.95l-.295.803 6.453 3.91.915-2.472.136 7.36 16.34-1.75-1.122-6.687a8.893 8.893 0 0 0-9.493-7.393l-5.308.432Z" fill="#BD99FF"/><mask id="b" mask-type="alpha" maskUnits="userSpaceOnUse" x="18" y="13" width="25" height="17"><path fill-rule="evenodd" clip-rule="evenodd" d="M26.827 14.152A8.893 8.893 0 0 0 19.2 19.95l-.295.803 6.453 3.91.915-2.472.136 7.36 16.34-1.75-1.122-6.687a8.893 8.893 0 0 0-9.493-7.393l-5.308.432Z" fill="#fff"/></mask><g mask="url(#b)" stroke="#8E61E1" stroke-width=".7"><path d="M28.766 12.351v17.923M24.055 12.351v17.923M18.906 16.834h24.122M18.906 21.545h24.122M18.906 26.256h24.122M33.477 12.351v17.923M38.188 12.351v17.923"/></g><rect x="49.266" y=".595" width="5.025" height="9.422" rx="1.482" fill="#380D45"/><path fill-rule="evenodd" clip-rule="evenodd" d="m47.556 24.598 2.108 1.961 3.66-14.563s-1.419-1.121-1.419-3.237L49.27 6.13l1.165-1.445 2.203 1.114a5.93 5.93 0 0 1 2.939 3.38l.5 1.471a5.93 5.93 0 0 1 .293 2.441l-1.568 17.479a4.146 4.146 0 0 1-6.996 2.623l-4.131-3.957 3.882-4.637Z" fill="#FFAA9C"/><mask id="c" mask-type="alpha" maskUnits="userSpaceOnUse" x="43" y="4" width="14" height="31"><path fill-rule="evenodd" clip-rule="evenodd" d="m47.556 24.598 2.108 1.961 3.66-14.563s-1.419-1.121-1.419-3.237L49.27 6.13l1.165-1.445 2.203 1.114a5.93 5.93 0 0 1 2.939 3.38l.5 1.471a5.93 5.93 0 0 1 .293 2.441l-1.568 17.479a4.146 4.146 0 0 1-6.996 2.623l-4.131-3.957 3.882-4.637Z" fill="#fff"/></mask><path fill-rule="evenodd" clip-rule="evenodd" d="M49.002 67.056v3.793l10.64 1.878s.11-1.681-1.32-2.43c-1.43-.747-3.574-1.053-3.544-3.604l-5.776.363Z" fill="#2A0E4B"/><path fill-rule="evenodd" clip-rule="evenodd" d="m42.748 30.274 8.175 2.534a8.893 8.893 0 0 1 6.257 8.71l-.623 25.837-10.764.823.787-30.016-3.832-7.888Z" fill="#C8505C"/><mask id="d" mask-type="alpha" maskUnits="userSpaceOnUse" x="42" y="30" width="16" height="39"><path fill-rule="evenodd" clip-rule="evenodd" d="m42.748 30.274 8.175 2.534a8.893 8.893 0 0 1 6.257 8.71l-.623 25.837-10.764.823.787-30.016-3.832-7.888Z" fill="#fff"/></mask><g mask="url(#d)"><path d="m56.69 64.51-11.069 1.15" stroke="#732B15" stroke-width=".8"/></g><path d="M33.877 48.242v25.126M27.594 48.242l-6.282 25.126M40.158 48.242l6.282 25.126" stroke="#fff" stroke-width="2.372" stroke-linecap="round" stroke-linejoin="round"/><rect x="20.686" y="47.064" width="26.696" height="1.589" rx=".795" fill="#fff"/><path fill-rule="evenodd" clip-rule="evenodd" d="M38.137 46.846v2.743l9.684 3.607s.4-1.636-.878-2.621c-1.28-.986-3.182-1.631-2.71-4.139l-6.096.41Z" fill="#2A0E4B"/><path fill-rule="evenodd" clip-rule="evenodd" d="m20.914 34.645 19.45-20.338a5.127 5.127 0 0 1 8.808 4.042l-2.813 28.806-9.692.92V45.11l-1.545.897a10.862 10.862 0 0 1-10.52.216l-3.688-11.578Z" fill="#DC6C77"/><mask id="e" mask-type="alpha" maskUnits="userSpaceOnUse" x="20" y="12" width="30" height="37"><path fill-rule="evenodd" clip-rule="evenodd" d="m20.914 34.645 19.45-20.338a5.127 5.127 0 0 1 8.808 4.042l-2.813 28.806-9.692.92V45.11l-1.545.897a10.862 10.862 0 0 1-10.52.216l-3.688-11.578Z" fill="#fff"/></mask><g mask="url(#e)"><path fill-rule="evenodd" clip-rule="evenodd" d="M36.668 45.109V26.72l-1.986 19.715 1.986-1.327Z" fill="#2A0E4B"/><path d="m46.978 44.479-10.31.943" stroke="#732B15" stroke-width=".8"/></g><path fill-rule="evenodd" clip-rule="evenodd" d="m19.903 21.364-3.124 11.67a8.893 8.893 0 0 0 .886 6.74l7.771 13.485-.13.89a5.928 5.928 0 0 0 .152 2.452l.613 2.203h.918l1.047-2.376a5.929 5.929 0 0 0 .031-4.708l-5.304-12.49a8.893 8.893 0 0 1-.365-5.92l2.545-8.9-5.04-3.046Z" fill="#FFAA9C"/><mask id="f" mask-type="alpha" maskUnits="userSpaceOnUse" x="16" y="21" width="13" height="38"><path fill-rule="evenodd" clip-rule="evenodd" d="m19.903 21.364-3.124 11.67a8.893 8.893 0 0 0 .886 6.74l7.771 13.485-.13.89a5.928 5.928 0 0 0 .152 2.452l.613 2.203h.918l1.047-2.376a5.929 5.929 0 0 0 .031-4.708l-5.304-12.49a8.893 8.893 0 0 1-.365-5.92l2.545-8.9-5.04-3.046Z" fill="#fff"/></mask><g mask="url(#f)"><path opacity=".25" fill-rule="evenodd" clip-rule="evenodd" d="m24.942 24.41-6.038-1.518 1.11-2.895 4.928 4.413Z" fill="#8B0C00"/></g><path fill-rule="evenodd" clip-rule="evenodd" d="M29.446 9.319a2.356 2.356 0 0 1 4.492-1.406l.537 1.476a2.355 2.355 0 0 1-1.408 3.02l-.033.01-.22 2.263a1.55 1.55 0 1 1-3.083-.327l.37-3.208c-.24.034-.51-.016-.758-.159-.51-.295-.728-.872-.487-1.29a.802.802 0 0 1 .59-.38Z" fill="#FFADA6"/><mask id="g" mask-type="alpha" maskUnits="userSpaceOnUse" x="28" y="6" width="7" height="11"><path fill-rule="evenodd" clip-rule="evenodd" d="M29.446 9.319a2.356 2.356 0 0 1 4.492-1.406l.537 1.476a2.355 2.355 0 0 1-1.408 3.02l-.033.01-.22 2.263a1.55 1.55 0 1 1-3.083-.327l.37-3.208c-.24.034-.51-.016-.758-.159-.51-.295-.728-.872-.487-1.29a.802.802 0 0 1 .59-.38Z" fill="#fff"/></mask><g mask="url(#g)"><path opacity=".25" fill-rule="evenodd" clip-rule="evenodd" d="M33.134 12.397c-.192.056-1.302.132-2.308-.642 0 0 .64 1.892 2.308 1.892v-1.25Z" fill="#8B0C00"/></g><path fill-rule="evenodd" clip-rule="evenodd" d="M30.356 10.344s.268-1.093 0-2.42c0 0 2.012.845 4.15.423 0 0-1.333-2.987-3.456-2.542-2.122.446-2.09 3.463-2.09 3.463l1.396 1.076Z" fill="#4C125E"/><path d="M74.047 55.17s.491-3.657 3.548-6.901" stroke="#4A7146"/><path d="M74.432 53.31s1.392-1.191 3.64-1.33M73.848 55.17l-.637-6.582M73.673 55.021l-5.878-11.374M72.267 55.333s-1.9-5.288-6.058-6.745" stroke="#4A7146"/><path d="M71.8 55.17s-1.359-2.806-3.43-3.001c-2.07-.194-3.43.88-3.43.88" stroke="#4A7146"/><path fill-rule="evenodd" clip-rule="evenodd" d="M65.772 74.17h14.88v-6.419a13.05 13.05 0 0 0-4.052-9.452l-.146-.139a4.752 4.752 0 0 1-1.475-3.441h-3.534c0 1.3-.534 2.544-1.476 3.441l-.145.139a13.05 13.05 0 0 0-4.052 9.452v6.42Z" fill="#fff"/><path d="M65.773 70.181h14.88" stroke="#C8505C" stroke-width="3"/><ellipse cx="70.367" cy="56.094" rx="3.036" ry="3.657" transform="rotate(30 70.367 56.094)" fill="#77A23A"/><mask id="h" mask-type="alpha" maskUnits="userSpaceOnUse" x="67" y="52" width="7" height="8"><ellipse cx="70.367" cy="56.094" rx="3.036" ry="3.657" transform="rotate(30 70.367 56.094)" fill="#fff"/></mask><g mask="url(#h)"><path fill-rule="evenodd" clip-rule="evenodd" d="M72.708 53.07s-4.123 1.19-4.337 6.282c0 0 2.941 1.675 4.841-1.065 1.9-2.74-.504-5.217-.504-5.217Z" fill="#4D6E3D"/></g><ellipse cx="80.082" cy="46.38" rx="3.036" ry="3.657" transform="rotate(50 80.082 46.38)" fill="#77A23A"/><mask id="i" mask-type="alpha" maskUnits="userSpaceOnUse" x="76" y="43" width="8" height="7"><ellipse cx="80.082" cy="46.38" rx="3.036" ry="3.657" transform="rotate(50 80.082 46.38)" fill="#fff"/></mask><g mask="url(#i)"><path fill-rule="evenodd" clip-rule="evenodd" d="M82.965 43.925c0 2.019-2.012 5.407-6.223 4.663 0 0 2.892 3.184 5.605.368 2.713-2.817.618-7.05.618-5.03Z" fill="#4D6E3D"/></g><ellipse cx="72.916" cy="45.699" rx="2.671" ry="3.218" transform="rotate(-10 72.916 45.699)" fill="#77A23A"/><mask id="j" mask-type="alpha" maskUnits="userSpaceOnUse" x="70" y="42" width="6" height="7"><ellipse cx="72.916" cy="45.699" rx="2.671" ry="3.218" transform="rotate(-10 72.916 45.699)" fill="#fff"/></mask><g mask="url(#j)"><path fill-rule="evenodd" clip-rule="evenodd" d="M71.8 42.54c-.86 1.107-1.056 5.08 1.73 6.4 0 0-2.846.188-3.442-1.929-.597-2.117.278-3.794.278-3.794s2.295-1.782 1.435-.676Z" fill="#4D6E3D"/></g><ellipse cx="62.96" cy="55.17" rx="2.671" ry="3.218" transform="rotate(40 62.96 55.17)" fill="#77A23A"/><mask id="k" mask-type="alpha" maskUnits="userSpaceOnUse" x="60" y="52" width="6" height="7"><ellipse cx="62.96" cy="55.17" rx="2.671" ry="3.218" transform="rotate(40 62.96 55.17)" fill="#fff"/></mask><g mask="url(#k)"><path fill-rule="evenodd" clip-rule="evenodd" d="M65.178 52.755s-3.69 1.296-4.39 5.307c0 0 3.666 1.206 4.544-.697.878-1.904.878-3.835.878-3.835l-1.032-.775Z" fill="#4D6E3D"/></g><circle cx="63.325" cy="48.43" r="3.036" fill="#4D6E3D"/><mask id="l" mask-type="alpha" maskUnits="userSpaceOnUse" x="60" y="45" width="7" height="7"><circle cx="63.325" cy="48.43" r="3.036" fill="#fff"/></mask><g mask="url(#l)"><circle cx="62.838" cy="47.702" r="3.036" fill="#77A23A"/></g><circle cx="80.325" cy="53.53" r="3.036" fill="#4D6E3D"/><mask id="m" mask-type="alpha" maskUnits="userSpaceOnUse" x="77" y="50" width="7" height="7"><circle cx="80.325" cy="53.53" r="3.036" fill="#fff"/></mask><g mask="url(#m)"><circle cx="80.567" cy="52.802" r="3.036" fill="#77A23A"/></g><path fill-rule="evenodd" clip-rule="evenodd" d="M67.904 43.9s1.794-3.053.846-4.358c-.949-1.306-2.978-1.168-4.675-.25-1.698.917-2.082 2.725-.143 3.666 1.938.941 3.972.941 3.972.941Z" fill="#77A23A"/><mask id="n" mask-type="alpha" maskUnits="userSpaceOnUse" x="62" y="38" width="8" height="6"><path fill-rule="evenodd" clip-rule="evenodd" d="M67.904 43.9s1.794-3.053.846-4.358c-.949-1.306-2.978-1.168-4.675-.25-1.698.917-2.082 2.725-.143 3.666 1.938.941 3.972.941 3.972.941Z" fill="#fff"/></mask><g mask="url(#n)"><path fill-rule="evenodd" clip-rule="evenodd" d="M64.414 38.995c-1.78 1.914 3.542 4.93 3.542 4.93s-4.658.733-5.588-1.47c-.93-2.203 3.826-5.374 2.046-3.46Z" fill="#4D6E3D"/></g><path fill-rule="evenodd" clip-rule="evenodd" d="M3.177 74.114.357 51.996H6.6l1.378 1.606 17.388.247 2.655 20.264H3.177Z" fill="#FF903A"/><path fill-rule="evenodd" clip-rule="evenodd" d="m3.176 74.114 1.779-17.979H30.44l-2.423 17.979H3.176Z" fill="#fff"/><path fill-rule="evenodd" clip-rule="evenodd" d="M7.194 58.587h24.843l-4.019 15.526H3.176l4.018-15.526Z" fill="#FFA455"/><defs><linearGradient id="a" x1="18.278" y1="-1.966" x2="9.61" y2="30.818" gradientUnits="userSpaceOnUse"><stop stop-color="#4F1362"/><stop offset="1" stop-color="#350C42"/></linearGradient></defs></svg>