<svg fill="none" xmlns="http://www.w3.org/2000/svg" viewBox="0 0 122 97"><path d="M82.507 49.378c4.572 3.1 32.698 20.499 29.87 24.749-2.828 4.25-46.629 2.322-57.973 1.778-11.344-.544-26.588.972-46.766-23.599-17.888-21.457.68-23.187 4.572-21.749 4.226 1.558 8.376 3.308 12.572 4.94 2.133.83 4.278 1.62 6.443 2.362 1.767.605 4.778 1.344 6.175-.434 1.398-1.779.503-4.3 2.9-5.507 5.356-2.734 23.617 4.807 42.207 17.46ZM32.385 29.174a1.342 1.342 0 0 0 1.401-.648 1.93 1.93 0 0 0 .098-1.542c-.493-1.467-5.225-4.804-5.721-1.879-.245 1.439 2.403 3.884 4.222 4.069ZM112.377 63.673c-1.786 0-3.233-1.436-3.233-3.207 0-1.77 1.447-3.207 3.233-3.207 1.785 0 3.232 1.436 3.232 3.207s-1.447 3.207-3.232 3.207ZM2.985 25.167a1.164 1.164 0 0 0 1.205-.26c.13-.157.216-.346.252-.547a2.437 2.437 0 0 0-.654-2.174 3.086 3.086 0 0 0-2.145-.884 1.441 1.441 0 0 0-1.094.36c-.503.54-.36 1.445.05 1.986.344.404.761.74 1.23.994.358.23.747.406 1.156.525Z" fill="#7579BC"/><path d="M19.175 23.949c.98.405 2.04.683 2.939 1.263 1.466.95 1.96 2.74.79 4.16-2.024 2.461-5.26 1.392-7.592.074a41.756 41.756 0 0 1-4.876-3.24c-1.283-.971-2.393-1.943-2.7-3.618-.513-2.76 1.531-5.747 4.604-4.652 1.065.38 1.894 1.225 2.577 2.119 1.28 1.7 2.2 3.045 4.258 3.894ZM22.402 86.203c31.391.557 62.998-3.31 94.305-.427 2.113.197 4.699.806 5.225 2.85.627 2.482-2.381 4.25-4.873 4.914-6.504 1.73-13.264 2.239-19.978 2.738-9.45.706-19.054 1.399-28.328-.548-5-1.05-9.85-2.857-14.927-3.408-6.022-.648-12.083.496-18.065 1.319a170.797 170.797 0 0 1-28.792 1.496c-1.43-.045-2.923-.13-4.17-.826-1.248-.696-2.149-2.215-1.672-3.563.477-1.348 2.005-1.927 3.376-2.3a49.845 49.845 0 0 1 12.9-1.756l4.999-.489Z" fill="#7579BC"/><path d="m23.383 74.635 3.69 8.517c1.12-.34 2.413-.716 3.823-1.254-4.14-3.372-6.798-8.393-6.798-8.393l-.715 1.13ZM20.698 85.471c-1.012 1.58-2.407 3.949-5.098 4.315a70.925 70.925 0 0 0 3.563-.593c2.831-.567 3.233-2.76 3.233-2.76s-.046-1.46 2.825-2.65c-.16.004-3.534.146-4.523 1.688ZM114.489 86.854c-.424.629-.447 1.516 2.538-.372.627-4.908-2.211-6.602-2.211-6.602 1.355 1.759-.689 4.156-.689 4.156 1.538 1.85.777 2.19.362 2.818ZM102.173 74.03c-.402 0-.807-.017-1.215-.017a12.013 12.013 0 0 1 2.655 8.352c1.518-.852 2.553-1.494 3.063-1.72l-4.503-6.615Z" fill="#FF9C90"/><path d="m102.173 74.03 4.503 6.63c1.809-.8 5.293-3.041 7.622-1.279.194.144.369.313.519.502 0 0 2.828 1.694 2.194 6.602 2.978-1.885 2.1-7.302 2.198-9.663.098-2.362-1.192-3.78-3.288-4.441-1.94-.612-1.715-1.328-1.672-1.429-2.214 3.878-6.825 3.194-12.076 3.078ZM8.903 89.475c-2.54 1.416 1.045 1.134 2.475.897.856-.14 2.462-.324 4.223-.586 2.69-.366 4.085-2.734 5.097-4.315 1.012-1.58 4.363-1.684 4.523-1.688.232-.097.48-.19.75-.282.344-.116.713-.23 1.101-.35l-3.69-8.513c-.927 1.462-2.286 3.616-3.334 5.232-1.73 2.692-1.306 5.267-10.31 8.147-.002 0 .318.761-.835 1.458Z" fill="#FFB6AD"/><path d="M114.264 70.942c-.043.1-.268.817 1.672 1.429 2.096.648 3.383 2.08 3.288 4.441-.094 2.362.781 7.775-2.197 9.663-2.979 1.889-2.962 1.001-2.538.373.425-.629 1.182-.972-.349-2.815-.451-.285-1.032.13-1.558.482-.526.353-8 4.902-.199 4.613 7.801-.288 9.219-3.589 9.219-11.985 0-8.397-5.428-7.273-6.46-7.127-1.032.146-.878.926-.878.926ZM5.786 88.406c-4.382 1.707-3.735 2.915-1.263 3.813 2.472.897 10.293.162 12.768 0 2.475-.162 5.026-.72 5.669-3.334.643-2.614-.565-2.452-.565-2.452s-.402 2.193-3.233 2.76a70.925 70.925 0 0 1-3.563.593c-1.76.253-3.367.447-4.222.586-1.43.237-5.016.519-2.475-.897 1.152-.697.832-1.458.832-1.458s.431-1.315-3.948.389Z" fill="#2E3257"/><path d="M100.957 74.013h-2.178c.186.156 2.965 2.563 2.939 9.362.692-.363 1.306-.706 1.88-1.02a12.008 12.008 0 0 0-2.641-8.342ZM97.711 74.033h-.92c.045.084 2.804 5.426 2.88 10.366l.979-.486c.026-6.041-2.713-9.595-2.939-9.88Z" fill="#008897"/><path d="M103.141 53.21c-5.995 14.707-13.956 13.638-26.052 11.429a156.619 156.619 0 0 0-6.14 5.034c3.361-1.102 23.369-1.51 23.369-1.51 1.41-.324 2.883-.739 5.617-3.262 5.522-5.102 4.888-10.832 4.104-14.014-.3.817-.597 1.59-.898 2.323Z" fill="#56AEBB"/><path d="M61.363 81.574c-.105 3.275 1.365 5.507 4.007 6.877a5.157 5.157 0 0 0 .44-5.117 5.193 5.193 0 0 0-1.709-2.045 5.25 5.25 0 0 0-2.506-.936 3.78 3.78 0 0 0-.232 1.221Z" fill="#008897"/><path d="M97.712 74.033c.225.285 2.965 3.838 2.939 9.9.372-.189.728-.37 1.068-.548 0-6.803-2.766-9.206-2.94-9.362l-1.067.01Z" fill="#00A1B3"/><path d="M84.22 75.222c.164-.12.98-.794 4.703-4.15 2.583-2.326 3.955-2.572 5.395-2.916 0 0-20.008.409-23.368 1.51-4.197 3.648-8.347 7.775-9.356 10.69a5.25 5.25 0 0 1 2.506.936 5.193 5.193 0 0 1 1.71 2.045 5.147 5.147 0 0 1-.441 5.117c3.873 2.006 10.273 2.161 17.96 1.037a56.819 56.819 0 0 0 16.34-5.073c-.074-4.946-2.834-10.288-2.88-10.366-3.676.055-6.459.159-7.944.159-1.871-.007-4.317.894-4.624 1.01Zm0 0c-.055.038-.029 0-.029 0 .01 0 .018 0 .026.003l.004-.003Z" fill="#6BC5D2"/><path d="m26.235 70.414-.653.927s5.551 7.298 8.222 9.245c.327-.162.634-.34.954-.531-2.165-1.07-8.523-9.64-8.523-9.64ZM24.423 72.993l-.326.512s2.658 5.02 6.798 8.393c.696-.266 1.421-.57 2.165-.93-2.478-1.085-7.866-8.746-7.977-8.915l-.66.94ZM80.854 42.954c16.053 1.425 23.185 7.933 23.185 7.933a49.104 49.104 0 0 1-.885 2.323 14.352 14.352 0 0 0-1.391-1.296c-7.26-6.031-21.997-8.594-22.274-8.642a35.162 35.162 0 0 1 1.365-.318ZM45.701 52.526c-3.474.467-5.666 1.125-8.49 3.81a5.262 5.262 0 0 0 5.424.68 5.214 5.214 0 0 0 2.172-1.815c.541-.792.85-1.718.894-2.675Z" fill="#00A1B3"/><path d="m25.582 71.34-.5.713c.111.16 5.5 7.83 7.978 8.915.245-.123.493-.246.745-.382-2.681-1.947-8.223-9.245-8.223-9.245Z" fill="#00B2C6"/><path d="M37.207 56.336a5.263 5.263 0 0 0 5.424.68 5.215 5.215 0 0 0 2.172-1.815c.542-.792.851-1.718.894-2.675L46.7 52.4a83.457 83.457 0 0 0 21.526-5.572 79.435 79.435 0 0 1 11.243-3.563c.278.049 15.022 2.611 22.275 8.643.492.4.956.834 1.391 1.296C97.139 67.91 89.178 66.84 77.082 64.632c-3.856-.706-8.137-1.526-12.911-1.989-20.472-1.982-16.655 3.92-22.46 11.24a25.027 25.027 0 0 1-6.956 6.156c-2.165-1.07-8.523-9.64-8.523-9.64 5.215-7.37 8.366-11.582 10.975-14.063Z" fill="#6BC5D2"/><path d="M40.238 67.159A36.238 36.238 0 0 1 50.81 59.51c4.282-2.012 8.853-2.867 13.55-3.214 5.328-.395 10.74-.285 15.964-1.538 3.266-.778 6.45-2.161 8.993-4.293a5.427 5.427 0 0 1-.777-2.633c-.049-.813-.15-1.83.245-2.592.173-.324.653-.039.497.285-.327.603-.213 1.62-.17 2.294.028.797.252 1.576.653 2.267a14.72 14.72 0 0 0 3.01-3.764.285.285 0 0 1 .494.285c-4.804 8.594-15.606 9.57-24.44 9.997-5.188.253-10.413.55-15.328 2.374a34.67 34.67 0 0 0-11.687 7.428 42.12 42.12 0 0 0-5.045 5.831c-1.568 2.154-3.08 4.354-5.042 6.184-.121-.146-.239-.295-.36-.444 3.413-3.216 5.617-7.46 8.87-10.82ZM99.354 53.848a.29.29 0 0 1 .392-.1l2.44 1.645-.249.515-2.243-1.506a26.627 26.627 0 0 1-2.897 4.056c-.293.324-.75.68-.839 1.117-.088.438.203.992.327 1.439.17.654.298 1.318.382 1.989-.173.139-.346.275-.523.405a15.72 15.72 0 0 0-.653-3.097c-.192-.6-.284-.881.124-1.383 1.333-1.662 2.672-3.21 3.74-5.08Z" fill="#00A1B3"/><path d="M70.98 82.018c-.258.262-.654-.14-.406-.402 1.832-1.862 3.76-3.47 6.166-4.535 2.407-1.066 4.898-1.694 7.403-2.306a.283.283 0 0 1 .312.13c.02.034.033.073.037.113-.15.126-.232.19-.27.22l.267-.097a.26.26 0 0 1-.196.181c-2.459.6-4.947 1.205-7.263 2.248-2.315 1.043-4.255 2.62-6.05 4.448Zm13.238-6.803a.08.08 0 0 0-.03 0s-.026.049.03.01v-.01Z" fill="#008897"/><path d="M66.9 24.648s-10.188 1.348-23.136-2.322c4.46 2.514 9.271 4.35 14.264 5.789a90.506 90.506 0 0 0 7.664 1.843c.402.078.804.152 1.208.22v-5.53Z" fill="#BA5064"/><path d="M41.42 15.131a1.108 1.108 0 0 1 1.018.672 1.083 1.083 0 0 1-.236 1.19 1.104 1.104 0 0 1-1.88-.77c0-.29.116-.566.321-.771.206-.205.485-.32.776-.32Zm8.49-.136s-11.318.616-15.626-1.807c-.568-.742 2.417-.953 4.19-.91l-.692-7.419c-.807.15-1.598.376-2.361.677a20.55 20.55 0 0 0-2.436 1.137 5.171 5.171 0 0 1-.787 6.336c.218.295.444.57.653.82a34.057 34.057 0 0 0 5.09 4.636 47.436 47.436 0 0 0 5.823 3.854C56.712 25.99 66.9 24.642 66.9 24.642v-7.473s-11.533-.723-15.37-1.74l-1.62-.434Zm-5.107 4.781a1.085 1.085 0 0 1 .677-1.007 1.108 1.108 0 0 1 1.198.232 1.09 1.09 0 0 1 .245 1.186 1.094 1.094 0 0 1-1.01.681 1.106 1.106 0 0 1-.786-.315 1.088 1.088 0 0 1-.324-.777Z" fill="#CA5E72"/><path d="M31.281 8.166c-1.029 1.597-.127 3.431.924 4.843a5.171 5.171 0 0 0 .78-6.343 4.912 4.912 0 0 0-1.704 1.5ZM38.488 12.277c-1.773-.042-4.758.169-4.19.91 4.307 2.424 15.626 1.808 15.626 1.808-3.073-.836-5.45-1.62-6.371-2.97 0 0-1.49.019-2.89.077-.728.018-1.454.076-2.175.175Z" fill="#BA5064"/><path d="m37.782 4.859.705 7.418a19.515 19.515 0 0 1 2.175-.175L38.73 4.723v-.039c-.327.049-.653.104-.947.175Z" fill="#FF9C90"/><path d="M38.73 4.684v.039l1.916 7.38c1.4-.059 2.89-.079 2.89-.079s8.66-.362 10.91-1.01 3.119-1.795 2.916-3.887c0 0 3.23.508 3.148-.405-.081-.914-3.82-1.75-3.82-1.75s.205-1.674-1.689-1.57a9.422 9.422 0 0 0-3.425.89s-7.514-.447-12.847.392Z" fill="#FFB6AD"/><path d="m55.616 5.452.052 3.259a.284.284 0 0 1-.286.254.288.288 0 0 1-.285-.254l-.04-3.26a.285.285 0 0 1 .28-.217.289.289 0 0 1 .279.218Z" fill="#FF9C90"/><path d="M41.421 15.131a1.107 1.107 0 0 0-1.017.674 1.083 1.083 0 0 0 .239 1.19 1.103 1.103 0 0 0 1.2.236 1.1 1.1 0 0 0 .678-1.008c0-.29-.115-.567-.322-.772a1.105 1.105 0 0 0-.778-.32ZM45.913 18.688a1.107 1.107 0 0 0-1.017.675 1.084 1.084 0 0 0 .24 1.19 1.102 1.102 0 0 0 1.2.234 1.099 1.099 0 0 0 .678-1.01 1.08 1.08 0 0 0-.323-.771 1.097 1.097 0 0 0-.778-.318ZM60.259 19.78c-.608 0-1.1-.49-1.1-1.092 0-.603.492-1.092 1.1-1.092.608 0 1.1.49 1.1 1.092 0 .603-.492 1.092-1.1 1.092ZM54.378 23.949c-.608 0-1.1-.489-1.1-1.092 0-.603.492-1.092 1.1-1.092.608 0 1.1.49 1.1 1.092 0 .603-.492 1.092-1.1 1.092Z" fill="#FFE7E0"/><path d="M78.48 17.169a36.908 36.908 0 0 0-7.494-.648c.029.12 1.306 4.988 1.358 7.042 0 .564.274 1.124.957.927.682-.198 1.012-1.273 1.414-1.827.45-.629.777-1.335 1.192-1.992.82-1.296 1.959-2.864 3.566-3.24a6.666 6.666 0 0 0-.993-.262ZM76.757 23.945s-.796 3.169 2.718 5.239c3.513 2.07 1.796 3.44 1.796 3.44s1.613.048 2.073-1.066c0 0 9.47 1.18 17.82 10.858-2.838-6.135-5.728-10.774-8.454-14.295l-15.953-4.175Z" fill="#CA5E72"/><path d="M79.472 29.184c-3.513-2.07-2.716-5.239-2.716-5.239l15.952 4.176c-5.976-7.713-11.142-10.042-13.236-10.706-1.6.37-2.746 1.944-3.565 3.24-.415.647-.742 1.363-1.192 1.991-.402.554-.69 1.62-1.414 1.828-.725.207-.944-.363-.957-.927-.05-2.054-1.33-6.922-1.359-7.042-2.91.084-4.085.648-4.085.648-3.954 7.635-.192 13.822 3.357 17.123.114.02 2.564.437 3.311-1.102.748-1.538 1.023-.502 1.96 0 .937.503 2.175.402 2.161 1.468-.012 1.066-2.387-.14-3.043 2.617 3.073 2.048 6.208 5.695 6.208 5.695 12.34.755 23.185 7.933 23.185 7.933-.095-1.415-1.58-5.594-1.58-5.594-.425-.991-.852-1.949-1.281-2.873-8.356-9.68-17.82-10.859-17.82-10.859-.46 1.115-2.073 1.066-2.073 1.066s1.698-1.374-1.813-3.443Z" fill="#E1697F"/><path d="M70.258 34.286a14.005 14.005 0 0 0 3.11 2.245c.437.22.86.466 1.266.738.653-2.757 3.03-1.552 3.044-2.617.013-1.066-1.241-.972-2.162-1.468-.921-.495-1.176-1.577-1.96 0-.783 1.578-3.196 1.121-3.31 1.102h.012Z" fill="#CA5E72"/><path d="M79.753 20.02c-.608 0-1.1-.49-1.1-1.092 0-.603.492-1.092 1.1-1.092.608 0 1.1.489 1.1 1.092 0 .603-.492 1.091-1.1 1.091ZM75.228 28.87c-.608 0-1.1-.49-1.1-1.092 0-.603.492-1.092 1.1-1.092.607 0 1.1.489 1.1 1.092 0 .603-.493 1.091-1.1 1.091ZM94.247 41.908c-.608 0-1.1-.489-1.1-1.092 0-.603.492-1.092 1.1-1.092.608 0 1.1.49 1.1 1.092 0 .603-.492 1.092-1.1 1.092ZM86.653 35.572c-.717 0-1.3-.578-1.3-1.29 0-.712.583-1.289 1.3-1.289.718 0 1.3.577 1.3 1.29 0 .711-.582 1.289-1.3 1.289ZM68.118 26.43a1.789 1.789 0 0 1-1.796-1.782c0-.984.804-1.781 1.796-1.781s1.796.797 1.796 1.781c0 .984-.804 1.782-1.796 1.782ZM81.778 41.51a1.789 1.789 0 0 1-1.796-1.782c0-.984.804-1.782 1.796-1.782s1.796.798 1.796 1.782-.804 1.781-1.796 1.781Z" fill="#FFE7E0"/><path d="M76.978 23.116s-2.286 3.77 7.795 6.424c10.08 2.653 16.393 4.15 16.393 4.15s-.885 1.51-2.087 3.611l7.485 3.107c.379-.395.741-.748 1.077-1.05a29.958 29.958 0 0 0 4.693-5.076 5.166 5.166 0 0 1-2.086-3.523 5.144 5.144 0 0 1 1.136-3.927c-2.56-1.354-7.527-2.721-16.883-4.47-16.187-3.023-16.586-.755-17.523.754Z" fill="#E1697F"/><path d="M100.581 33.557a.234.234 0 0 1 .027-.062 20.308 20.308 0 0 1 3.027-4.34c.248-.273.653.129.405.401a19.615 19.615 0 0 0-2.894 4.134l-.565-.133Z" fill="#E1697F"/><path d="M93.725 49.407c-.16.399-1.835 4.561-.748 5.64 1.143 1.13 4-2.268 4-2.268s3.821-5.581 7.341-9.825l-5.845-4.584c-2.096 3.684-4.797 8.536-5.685 10.629 0 0-.761.946-.19 1.325.52.343 1.039-.723 1.127-.917Z" fill="#FFB6AD"/><path d="m98.472 38.37 5.846 4.584a47.066 47.066 0 0 1 2.246-2.54l-7.484-3.106c-.196.34-.398.693-.608 1.062Z" fill="#FF9C90"/><path d="M111.384 26.832a5.16 5.16 0 0 0-1.136 3.927 5.19 5.19 0 0 0 2.086 3.523l.134-.197.062-.072c.059-.093.121-.184.176-.275.056-.09.111-.178.164-.269.16-.269.3-.534.427-.797.079-.168.154-.324.219-.495l-.006-.052c.095-.24.176-.486.245-.735.019-.085.042-.166.058-.25.017-.084.03-.133.04-.2.009-.069.035-.211.045-.325.01-.113 0-.136.017-.2.016-.065 0-.156 0-.234v-.269a2.037 2.037 0 0 0-.027-.246 2.004 2.004 0 0 0-.045-.243v-.055a.444.444 0 0 0-.02-.071c0-.036-.019-.071-.032-.11l-.04-.117c-.023-.061-.049-.12-.075-.181a.66.66 0 0 0-.042-.084l-.052-.1a3.083 3.083 0 0 0-.183-.286l-.069-.097-.137-.169-.108-.116a5.692 5.692 0 0 0-.189-.188l-.101-.09a6.205 6.205 0 0 0-.366-.292l-.255-.178-.065-.043-.141-.09-.183-.11-.401-.214ZM111.782 27.052l.183.11-.183-.11ZM111.965 27.162l.14.09-.14-.09ZM113.748 29.077l.039.116-.039-.116ZM113.837 29.43Z" fill="#E1697F"/><path d="M94.57 50.768c.652.401 1.306.777 1.998 1.133.326.169.036.648-.288.49a30.748 30.748 0 0 1-2.001-1.134c-.314-.191-.036-.68.29-.49Z" fill="#FF9C90"/><path d="M94.593 27.227c-.718 0-1.3-.577-1.3-1.29 0-.711.582-1.289 1.3-1.289.718 0 1.3.578 1.3 1.29 0 .712-.582 1.289-1.3 1.289ZM108.692 35.905c-.607 0-1.1-.489-1.1-1.091 0-.603.493-1.092 1.1-1.092.608 0 1.101.489 1.101 1.092 0 .602-.493 1.091-1.101 1.091ZM105.464 28.121a1.096 1.096 0 0 1-1.101-1.092c0-.602.493-1.091 1.101-1.091s1.1.489 1.1 1.091c0 .603-.492 1.092-1.1 1.092ZM84.257 28.613c-.608 0-1.1-.488-1.1-1.091s.492-1.092 1.1-1.092c.608 0 1.1.489 1.1 1.092 0 .603-.492 1.091-1.1 1.091Z" fill="#FFE7E0"/><path d="M77.504 13.89c-.19.078-.212.324-.193.535a4.869 4.869 0 0 0 1.17 2.744c-1.34.298-2.43 1.296-3.2 2.407-.771 1.11-1.278 2.406-1.878 3.63-.373-.744-.307-1.619-.343-2.448a9.525 9.525 0 0 0-.523-2.705 11.366 11.366 0 0 0-1.747-3.058.106.106 0 0 1 .1.058c.007.012.01.026.011.04l6.603-1.203Z" fill="#FFB6AD"/><path d="m70.901 15.086 6.603-1.196c-.19.078-.212.324-.196.535a4.894 4.894 0 0 0 1.172 2.744 4.34 4.34 0 0 0-1.515.677c-1.567-.823-3.402-.894-4.843-.762a13.531 13.531 0 0 0-1.332-2.089.105.105 0 0 1 .111.09Z" fill="#FF9C90"/><path d="M69.559 4.723c-.249.133-1.92.952-2.593 1.944-.444.67 1.502 1.62 1.502 1.62l1.09-3.564Z" fill="#FF8178"/><path d="M73.366 16.223c-3.208 0-5.809-2.96-5.809-6.612C67.557 5.96 70.158 3 73.367 3c3.208 0 5.809 2.96 5.809 6.611 0 3.652-2.601 6.612-5.81 6.612Z" fill="#FFB6AD"/><path d="M71.651 13.767c-1.525 0-2.762-1.227-2.762-2.74 0-1.514 1.237-2.74 2.762-2.74 1.526 0 2.763 1.226 2.763 2.74 0 1.513-1.237 2.74-2.763 2.74Z" fill="#FF8178"/><path d="M70.987 8.665c-.316 0-.571-.338-.571-.754 0-.417.255-.755.571-.755.316 0 .572.338.572.755 0 .416-.256.754-.572.754Z" fill="#211E21"/><path d="M80.978 4.8a3.415 3.415 0 0 0 1.587 1.73 2.76 2.76 0 0 0 2.329.078l-.164.026c-.133.02.653 2.916.755 3.178 1.247 3.628 3.958 7.73 7.955 8.701 4.336 1.056 7.122-2.877 7.131-6.783a9.403 9.403 0 0 0-2.612-6.622c-2.083-2.095-5.022-2.549-7.86-2.685-.94-.045-1.933-.052-2.76.405A6.546 6.546 0 0 0 84.35.376a5.192 5.192 0 0 0-3.883 0 2.882 2.882 0 0 0-1.244.92 1.656 1.656 0 0 0-.258 1.474c.221.468.574.864 1.015 1.14.366.301.823.48 1 .89Z" fill="#6A3445"/><path d="M80.934 5.935a1.321 1.321 0 0 0 .326-1.053 2.393 2.393 0 0 0-.405-1.047 3.998 3.998 0 0 0-1.104-1.101 1.885 1.885 0 0 0-1.195-.379.93.93 0 0 0-.575.242.917.917 0 0 0-.29.548c-.023.447.362.794.689 1.105.481.472.9 1.003 1.244 1.58a.776.776 0 0 0 .626.408.786.786 0 0 0 .684-.303Z" fill="#7579BC"/><path d="M73.07 5.795a2.851 2.851 0 0 0 .448 2.303c.198.267.43.506.692.71.285.256.634.432 1.01.512.4.012.8 0 1.198-.033a2.586 2.586 0 0 0-1.44 1.549 4.425 4.425 0 0 0-.232 2.154c.024.337.11.666.255.972a2.101 2.101 0 0 0 1.554 1.069 3.127 3.127 0 0 0 1.897-.35 4.092 4.092 0 0 0 1.924-2.047c.182-.457.305-.935.365-1.423a9.754 9.754 0 0 0-1.45-6.828 8.086 8.086 0 0 0-2.565-2.46 8.159 8.159 0 0 0-3.38-1.13 3.514 3.514 0 0 0-2.697.94 3.46 3.46 0 0 0-1.082 2.624 1.61 1.61 0 0 0 .268.926 1.852 1.852 0 0 0 1.306.577 6.876 6.876 0 0 0 1.806-.042l.124-.023Z" fill="#6A3445"/></svg>