<svg fill="none" xmlns="http://www.w3.org/2000/svg" viewBox="0 0 111 114"><path d="M20.75 54.316c-4.499 2.254-8.885 5.298-11.112 9.795-2.228 4.497-1.612 10.672 2.488 13.592 2.742 1.949 6.39 2.096 9.732 1.634 3.34-.462 6.613-1.472 9.984-1.54 9.196-.212 17.13 6.308 26.12 8.242 10.528 2.278 21.602-2.046 29.957-8.807 2.666-2.148 5.254-4.806 5.75-8.173.408-2.764-.68-5.56-.46-8.344.296-3.744 2.897-6.914 5.778-9.346 2.882-2.43 6.176-4.414 8.684-7.213 2.509-2.8 4.147-6.803 2.888-10.337-1.632-4.545-7.162-6.337-12.01-6.558-10.111-.462-21.804 3.532-28.376 11.446-3.113 3.75-8.995 4.327-13.592 5.404-5.657 1.325-11.37 2.41-17.024 3.768-6.45 1.55-12.86 3.461-18.807 6.437Z" fill="#FFC590"/><path d="M60.715 16.777H57.22a.398.398 0 0 1-.363-.393.393.393 0 0 1 .363-.393h3.495a.397.397 0 0 1 .362.393.393.393 0 0 1-.362.393Z" fill="#61BDF6"/><path d="M58.965 18.516a.396.396 0 0 1-.366-.24.39.39 0 0 1-.03-.151V14.66a.393.393 0 0 1 .395-.36.398.398 0 0 1 .395.36v3.464a.39.39 0 0 1-.394.391ZM51.386 13.834h-2.01a.345.345 0 0 1-.376-.34.34.34 0 0 1 .375-.34h2.011a.346.346 0 0 1 .347.202.34.34 0 0 1-.347.478Z" fill="#61BDF6"/><path d="M50.382 14.834a.344.344 0 0 1-.33-.341v-1.999a.34.34 0 0 1 .343-.31.345.345 0 0 1 .342.31v1.999a.337.337 0 0 1-.22.32.34.34 0 0 1-.136.021ZM67.23 11.479h-1.747a.346.346 0 0 1-.346-.202.34.34 0 0 1 .346-.478h1.747a.345.345 0 0 1 .312.34.34.34 0 0 1-.312.34Z" fill="#61BDF6"/><path d="M66.342 12.341a.342.342 0 0 1-.34-.338v-1.734a.338.338 0 0 1 .203-.344.345.345 0 0 1 .464.204c.016.045.021.093.017.14v1.734a.336.336 0 0 1-.213.313.342.342 0 0 1-.13.025Z" fill="#61BDF6"/><path d="M17.234 105.273c25.255.45 50.687-2.675 75.877-.344 1.7.159 3.782.65 4.194 2.301.503 2.008-1.917 3.438-3.922 3.974-5.233 1.398-10.662 1.807-16.073 2.213-7.606.568-15.333 1.13-22.805-.444-4.022-.848-7.923-2.311-12.013-2.755-4.843-.524-9.706.4-14.53 1.065a136.714 136.714 0 0 1-23.17 1.21c-1.15-.038-2.352-.103-3.353-.668-1-.565-1.73-1.79-1.347-2.873.382-1.083 1.614-1.554 2.718-1.857a39.979 39.979 0 0 1 10.367-1.419l4.057-.403Z" fill="#FFC590"/><path d="M84.027 105.688c1.318.589 1.955 1.077 2.174 1.504-8.293 2.06-22.426.141-22.426.141-.142-1.436.397-3.532.983-5.298l8.435-.553c1.712 2.843 6.232 2.196 10.834 4.206Z" fill="#6A3445"/><path d="M86.202 107.192c.485.954-1.117 1.537-1.84 1.746a2.254 2.254 0 0 1-.621.088H65.323c-1.007 0-1.448-.68-1.549-1.693 0 0 14.137 1.922 22.427-.141ZM73.193 101.485l-8.435.553a34.555 34.555 0 0 1 1.261-3.29l6.724 1.695c.105.365.256.715.45 1.042Z" fill="#320D18"/><path d="M25.485 5.501a1.164 1.164 0 0 0-.148.115l-2.665 2.47C19.71 5.632 20.267 2.62 20.267 2.62S17.957.589 18.93.035c.975-.553 6.554 5.466 6.554 5.466Z" fill="#FCC6C0"/><path d="M22.977 7.653c-1.42-.498-1.777-2.44-2.23-3.691-.08-.218-.341-.633-.315-.857.048-.424.261-.115.457.133.395.516.796 1.03 1.205 1.542.201.259.563-.103.361-.362l-1.113-1.422c-.22-.294-.486-.762-.889-.841-.642-.133-.684.515-.592.944a20.88 20.88 0 0 0 1.184 3.197c.365.853.865 1.533 1.778 1.851.328.094.465-.388.154-.494Z" fill="#FFB6AD"/><path d="M25.15 5.145 21.6 6.993l1.24 1.151 2.645-2.643-.334-.356ZM29.982 34.602l-2.171 3.32c-3.504-1.578-3.637-4.616-3.637-4.616s-2.778-1.342-1.985-2.13c.747-.74 7.05 2.984 7.793 3.426Z" fill="#FFB6AD"/><path d="M31.395 34.96a.675.675 0 0 1 .621.414.664.664 0 0 1-.147.728.673.673 0 0 1-1.146-.476.666.666 0 0 1 .672-.665ZM23.736 8.465a.675.675 0 0 1 .624.412.664.664 0 0 1-.148.73.674.674 0 0 1-1.145-.483.672.672 0 0 1 .67-.66Z" fill="#6A3445"/><path d="M27.82 37.398c-1.68-.4-2.31-1.675-3.054-3.073-.086-.165-.519-.692-.05-.674.16 0 .698.662.84.783.458.383.94.735 1.446 1.053.278.18.536-.262.26-.441a12.362 12.362 0 0 1-1.664-1.257c-.278-.253-.563-.656-.93-.795a.563.563 0 0 0-.768.316.553.553 0 0 0-.02.305c.047.433.391.883.593 1.245.258.552.563 1.08.912 1.581a4.004 4.004 0 0 0 2.298 1.451c.32.077.453-.415.136-.494Z" fill="#FCC6C0"/><path d="m29.982 34.602-.574-.339-2.666 3.076s.93.553 1.06.588c.13.036 2.18-3.325 2.18-3.325Z" fill="#FCC6C0"/><path d="m31.69 33.886 2.284 1.075-3.708 6.643a150.678 150.678 0 0 1-2.408-1.652 1.171 1.171 0 0 1-.314-1.622l.27-.405 2.37-3.609a1.21 1.21 0 0 1 1.508-.43Zm.383 1.74a.665.665 0 0 0-.415-.617.677.677 0 0 0-.733.144.667.667 0 0 0 .475 1.14.678.678 0 0 0 .622-.42.664.664 0 0 0 .048-.259l.003.012ZM28.368 6.993l-4.63 4.274c-.491-.645-.903-1.192-1.21-1.604a1.172 1.172 0 0 1 .147-1.578l2.81-2.584a1.19 1.19 0 0 1 1.52.147c.356.353.815.827 1.363 1.345Zm-3.96 2.131a.666.666 0 0 0-.413-.62.676.676 0 0 0-.734.144.667.667 0 0 0 .474 1.141.673.673 0 0 0 .622-.41.66.66 0 0 0 .05-.255ZM65.996 29.619l-.936 2.304-.142.33-.127.294h-1.345a.514.514 0 0 1-.514-.497.506.506 0 0 1 .06-.253l.472-.884c.051-.1.135-.179.237-.226l2.295-1.069Z" fill="#fff"/><path d="M74.251 34.548a.68.68 0 0 1-.379.802.691.691 0 0 1-.314.06L64.862 35a.687.687 0 0 1-.645-.576.676.676 0 0 1 .023-.307l.495-1.572h.065l.27-.62 7.955-.64 1.214 3.206c.005.019.01.039.012.058Z" fill="#fff"/><path d="M44.303 28.906a4.628 4.628 0 0 1-.18 2.729c-2.343-1.269-4.766-2.755-6.623-4.312-.296-.245-.592-.524-.93-.827a4.658 4.658 0 0 1 2.074-1.075A4.734 4.734 0 0 1 42.2 26a4.681 4.681 0 0 1 2.103 2.907Z" fill="#A76C50"/><path d="m66.568 29.183-.572.436-.367.04c-1.593.192-7.321 1.178-13.387 5.81a86.385 86.385 0 0 1-8.115-3.826c.382-.982.419-2.064.105-3.07a4.682 4.682 0 0 0-1.833-2.474 4.731 4.731 0 0 0-5.828.39c-3.918-3.672-9.856-11.293-12.833-15.222l4.627-4.27c4.214 4.132 13.552 12.906 18.863 15.051 7.013 2.832 14.376 4.147 19.34 7.135Z" fill="#B57A60"/><path d="m45.211 24.226 1.922-2.216c-.16-.065-.323-.138-.488-.215l-1.795 2.06c-.217.26.145.622.361.371Z" fill="#A76C50"/><path d="M54.199 55.534c3.31 1.113 6.136 1.213 9.113.262 1.99-.633 4.049-1.733 6.37-3.314a24.806 24.806 0 0 0 3.602-2.943 35.699 35.699 0 0 1-5.476 8.456c-15.662 5.227-26.816-7.985-26.816-7.985.18-.398.367-.79.557-1.178l1.895 1.178c4.304 2.675 7.728 4.515 10.755 5.524Z" fill="#B57A60"/><path d="M61.363 81.656a33.801 33.801 0 0 1-.053 8.795c0 .073-.021.15-.033.223h-.053a4.737 4.737 0 0 0-5.636.497 4.657 4.657 0 0 0-1.093 5.516c-12.232 4.209-36.572 1.499-36.572 1.499l-4.099-4.813c3.88-.92 11.133-2.81 15.07-5.933 3.936-3.123 12.018-2.273 16.71.203 2.073 1.092 9.199-2.42 0-8.215a18.438 18.438 0 0 1-4.206-3.608c5.059 4.877 19.965 5.836 19.965 5.836Z" fill="#6ACA8B"/><path d="M61.225 90.654h.053c-.459 2.822-3.056 4.738-6.77 6.013a4.654 4.654 0 0 1 1.09-5.51 4.733 4.733 0 0 1 5.627-.504Z" fill="#5EB196"/><path d="m58.347 74.171-15.579-7.72-5.817-3.164c-.003 1.89.256 3.772.77 5.592a18.21 18.21 0 0 0 3.676 6.923c5.058 4.877 19.965 5.836 19.965 5.836-.77-5.515-3.015-7.467-3.015-7.467Z" fill="#67B481"/><path d="M37.91 58.49a14.787 14.787 0 0 0-.965 4.809c.302 1.786.83 3.528 1.573 5.183 6.397-3.488 8.201-3.017 12.41-3.132.826-.023 1.747-.07 2.816-.173 7.66-.736 9.019-3.918 9.019-3.918-12.709-2.393-24.032-3.217-24.852-2.77ZM89.69 69.877c4.237 3.067 3.906 6.18 2.43 8.948a4.732 4.732 0 0 1-3.207-.76 4.68 4.68 0 0 1-1.92-2.664 4.653 4.653 0 0 1 .31-3.263 4.696 4.696 0 0 1 2.386-2.261ZM75.45 98.268l-.296-.082-8.387-2.326-.415-.114a1.035 1.035 0 0 0-1.092.344 1.017 1.017 0 0 0-.184.356l-.264.913a1.018 1.018 0 0 0 .366 1.09c.109.083.233.144.366.178l.476.12 8.619 2.173a1.033 1.033 0 0 0 1.22-.624l.26-.686a1.012 1.012 0 0 0-.298-1.145 1.026 1.026 0 0 0-.37-.197Z" fill="#6ACA8B"/><path d="M90.448 78.728a4.711 4.711 0 0 1-2.476-1.498 4.653 4.653 0 0 1-.468-5.46 4.697 4.697 0 0 1 2.185-1.893c-1.75-1.269-4.28-2.528-7.833-3.753-5.95-2.06-12.697-3.658-19.086-4.865 0 0-1.36 3.182-9.018 3.918-1.07.102-1.99.15-2.817.173-4.209.115-6.012-.356-12.41 3.132a15.634 15.634 0 0 0 2.074 3.394c2.274 2.796 5.84 4.915 11.405 4.488l3.048-.241c11.675-.948 15.087-1.44 20.199 1.315a6.851 6.851 0 0 0 2.944 1.51s-8.554 4.415-9.857 10.175l-.047.221v.038c-1.04 5.024-1.454 6.284-1.522 6.475l8.387 2.326c1.445-1.398 10.71-10.402 13.556-14.478.983-1.404 2.44-3.07 3.412-4.883a4.766 4.766 0 0 1-1.676-.094Z" fill="#5FC281"/><path d="M86.263 77.73c.462-3.432-2.21-5.475-5.183-6.431-4.34-1.399-9.016-1.557-13.506-2.164-4.786-.644-9.688-1.766-13.561-4.8-.258-.2-.616.168-.356.368 6.67 5.215 15.49 4.756 23.419 6.18 3.275.59 8.476 1.59 8.722 5.749.124 2.098-1.034 3.982-2.331 5.536-1.297 1.554-2.695 2.99-3.948 4.568a56.77 56.77 0 0 0-7.09 11.553c-.137.294.296.547.45.247a56.248 56.248 0 0 1 6.812-11.202c1.309-1.67 2.784-3.185 4.146-4.813 1.164-1.395 2.177-2.966 2.426-4.791Z" fill="#6ACA8B"/><path d="M83.773 79.228a17.787 17.787 0 0 1-5.628-.256l.042-.02a6.85 6.85 0 0 1-2.944-1.51s-5.331 3.808-6.685 10.569c-.08.391-.157.759-.228 1.115 1.075-4.747 7.064-8.577 9.143-9.78 2.061.497 4.195.63 6.303.391.337-.035.337-.547-.003-.51Z" fill="#6ACA8B"/><path d="M40.981 50.013s11.154 13.212 26.816 7.985a43.198 43.198 0 0 1-4.034 4.138 2.23 2.23 0 0 1-1.872.533l-23.98-4.18a54.806 54.806 0 0 1 3.07-8.476ZM74.25 34.548a.68.68 0 0 1-.693.863l-8.696-.412a.688.688 0 0 1-.53-.29.676.676 0 0 1-.092-.593l.495-1.572h-1.28a.515.515 0 0 1-.44-.247.507.507 0 0 1-.013-.503l.471-.883c.052-.1.135-.18.237-.227l2.296-1.069-.368.042c-1.593.191-7.321 1.177-13.387 5.81a34.256 34.256 0 0 0-5.621 5.445l10.413 4.883s13.302-10.681 17.96-8.442a17.93 17.93 0 0 0-.752-2.805Z" fill="#DA9C80"/><path d="M61.117 42.778a32.986 32.986 0 0 1-8.189-7.82c-.136.097-.272.2-.408.294a33.557 33.557 0 0 0 8.15 7.83l.447-.304ZM50.701 36.72a38.525 38.525 0 0 0 8.252 7.603c.139-.106.296-.212.44-.324a37.823 37.823 0 0 1-8.292-7.61l-.4.332ZM49.206 38.095l-.364.362a38.313 38.313 0 0 0 7.081 6.796l1.12.527s.08-.068.234-.185a37.878 37.878 0 0 1-8.07-7.5Z" fill="#61BDF6"/><path d="M62.72 54.39c.273.433.473.908.593 1.406-2.962.95-5.803.85-9.114-.262a4.677 4.677 0 0 1 1.449-2.239 4.736 4.736 0 0 1 5.09-.683 4.7 4.7 0 0 1 1.994 1.777h-.012Z" fill="#DA9C80"/><path d="M75.125 37.4a1.173 1.173 0 0 0-.121-.061c-4.66-2.24-17.96 8.441-17.96 8.441L46.63 40.912 33.972 34.96l-3.708 6.643c2.313 1.55 5.944 3.923 11.275 7.237l1.895 1.178c4.316 2.648 7.74 4.512 10.755 5.521a4.677 4.677 0 0 1 1.448-2.239 4.735 4.735 0 0 1 5.09-.683 4.7 4.7 0 0 1 1.994 1.777c.273.434.474.91.593 1.407 1.99-.633 4.048-1.733 6.37-3.314a24.806 24.806 0 0 0 3.602-2.943c5.257-5.269 4.777-10.537 1.84-12.144Z" fill="#E4AE95"/><path d="M52.239 35.47c6.065-4.636 11.793-5.619 13.387-5.81l.367-.041.572-.436a25.285 25.285 0 0 0-3.163-1.584l-.104.115s-11.675 1.828-15.62 5.728c2.337 1.118 4.152 1.878 4.56 2.028Z" fill="#A76C50"/><path d="M56.666 45.603c.02.026.042.047.068.065a30.704 30.704 0 0 1 3.919 2.994c.245.22.61-.139.364-.36a31.694 31.694 0 0 0-3.617-2.807l-.358.294-.376-.186Z" fill="#DA9C80"/><path d="M67.76 105.494c.797 0 1.443-.642 1.443-1.434 0-.791-.646-1.433-1.442-1.433-.797 0-1.443.642-1.443 1.433 0 .792.646 1.434 1.443 1.434ZM77.858 103.048a2.323 2.323 0 0 0-1.186.587c-.328.307-.56.702-.665 1.138-.08.318.423.409.506.091a1.777 1.777 0 0 1 1.386-1.307c.32-.062.29-.571-.041-.509ZM79.479 103.56c-.34-.153-.832.253-1.075.456-.296.242-.672.639-.675 1.036a.252.252 0 0 0 .148.212l.023.015c.213.121.388-.103.347-.294.032-.189.376-.486.492-.589a2.742 2.742 0 0 1 .456-.3.628.628 0 0 0 .15-.059.256.256 0 0 0 .133-.477ZM80.986 104.505a.257.257 0 0 0 .218-.272.256.256 0 0 0-.256-.237c-.806.07-1.457.791-1.819 1.471a.255.255 0 0 0 .218.363.254.254 0 0 0 .158-.042l.095-.073a.254.254 0 0 0 .08-.096.24.24 0 0 0 .024-.122c.287-.465.75-.945 1.282-.992Z" fill="#fff"/><path d="M21.552 110.109c-.744 1.039-3.243 1.893-6.59 1.525-5.722-.624-6.314-2.617-7.09-4.548-.776-1.931-2.696-1.939-3.951-4.503-.75-1.536-.593-2.475.08-3.179.055.605.232 1.194.518 1.731 1.318 2.696 3.34 2.705 4.146 4.739.806 2.033 1.44 4.12 7.461 4.785 2.263.248 4.152-.032 5.426-.55Z" fill="#211E21"/><path d="m12.762 94.383 2.932 5.298a7.373 7.373 0 0 0-2.253 2.611l-1.644-7.309c.598-.4.965-.6.965-.6Z" fill="#320D18"/><path d="M20.14 107.975c1.57.559 1.928 1.395 1.4 2.134-1.273.518-3.163.798-5.417.55-6.02-.659-6.643-2.755-7.46-4.785-.818-2.031-2.838-2.043-4.147-4.739a4.573 4.573 0 0 1-.518-1.73 6.357 6.357 0 0 1 1.851-1.196c1.875-.912 3.625-1.536 4.845-2.449.418-.312.788-.57 1.1-.777l1.643 7.309a5.059 5.059 0 0 0-.497 1.68c-.285 2.652 3.43 2.649 7.2 4.003Z" fill="#6A3445"/><path d="M10.257 100.811c.796 0 1.442-.642 1.442-1.433 0-.792-.646-1.434-1.442-1.434-.797 0-1.443.642-1.443 1.434 0 .791.646 1.433 1.443 1.433ZM13.655 103.916c-.814-.715-1.89-.474-2.733.05-.279.177.032.589.296.409.652-.406 1.48-.615 2.103-.058.263.22.58-.183.334-.401ZM13.592 104.988a2.426 2.426 0 0 0-1.745.515c-.257.203.05.612.296.406a1.912 1.912 0 0 1 1.38-.418c.327.032.398-.474.069-.503ZM14.513 105.665a3.11 3.11 0 0 0-1.324 1.08c-.187.268.216.588.403.315a2.613 2.613 0 0 1 1.116-.924.255.255 0 0 0-.011-.457.26.26 0 0 0-.184-.014Z" fill="#fff"/><path d="M53.492 78.845c-.18-.273-.625-.017-.441.256 1.797 2.729 3.87 6.334 1.43 9.351-1.993 2.464-5.55 3.582-8.634 3.47-3.317-.12-6.483-1.3-9.815-1.383-3.278-.082-6.551.494-9.69 1.401-3.326.962-6.516 2.299-9.712 3.653l-1.937-3.853-.18-.38a1.023 1.023 0 0 0-.991-.577 1.034 1.034 0 0 0-.39.103l-.856.421a1.03 1.03 0 0 0-.522.6 1.015 1.015 0 0 0 .066.79l.231.432 4.15 7.806a1.031 1.031 0 0 0 1.274.479l.686-.267a1.014 1.014 0 0 0 .55-1.396l-.135-.273-1.73-3.432c6.57-2.79 13.512-5.592 20.795-4.9 3.453.323 6.79 1.656 10.3 1.177 2.699-.365 5.684-1.681 7.248-3.991 2.15-3.153.118-6.74-1.697-9.487Z" fill="#5EB196"/><path d="M66.047 28.594s.362.827-1.113 3.338l6.995-.589.255-1.854-6.137-.895Z" fill="#FFB6AD"/><path d="M68.151 19.076c-.251.038-1.916.235-2.79.883-.577.435.785 1.824.785 1.824l2.005-2.707Z" fill="#FF8178"/><path d="M75.169 25.259c.45-3.258-1.5-6.215-4.358-6.605-2.857-.39-5.538 1.935-5.988 5.192-.45 3.258 1.5 6.215 4.358 6.605 2.857.39 5.538-1.935 5.988-5.192Z" fill="#FFB6AD"/><path d="M67.478 27.464a9.266 9.266 0 0 0 2.034-.294 5.208 5.208 0 0 0 2.88-2.379c.18-.39.43-.745.737-1.047.547-.442 1.335-.398 2.034-.295a1.082 1.082 0 0 1 .77.348 1.04 1.04 0 0 1 .033.883c-.678 2.328-2.523 4.256-2.962 6.625l-3.136.188a9.478 9.478 0 0 0-.249-.35 17.33 17.33 0 0 0-2.826-2.923c-.222-.18-.858-.503-.855-.785.473-.048 1.033.067 1.54.029Z" fill="#FCC6C0"/><path d="M68.455 27.4a2.474 2.474 0 0 0 2.481-2.467 2.474 2.474 0 0 0-2.481-2.467 2.474 2.474 0 0 0-2.482 2.467 2.474 2.474 0 0 0 2.482 2.466Z" fill="#FF8178"/><path d="M70.235 22.591c.116-.345-.008-.698-.276-.787-.269-.088-.58.12-.696.465-.116.345.007.697.276.786.268.09.58-.119.696-.464Z" fill="#211E21"/><path d="M73.229 30.61a1.552 1.552 0 0 1-.646-.5 1.329 1.329 0 0 1-.106-.898 4.472 4.472 0 0 1 1.344-2.472c.34-.29.661-.599.963-.927.256-.294.404-.665.42-1.054-.023-.61-1.128-.718-1.587-.739-.516-.023-.282-.415-.782-.276a7.331 7.331 0 0 0-1.668-1.67 8.695 8.695 0 0 1-1.714-1.624c-.465-.642-1.144-1.616-.608-2.204a3.438 3.438 0 0 1 1.878-.925c1.777-.365 3.788-.05 5.115 1.207a6.485 6.485 0 0 1 1.555 2.59c.498 1.404.705 2.873 1.41 4.197a8.3 8.3 0 0 0 2.239 2.758c.161.108.306.24.43.389a.587.587 0 0 1 .088.553.786.786 0 0 1-.524.36c-.296.096-.592.179-.903.261-2.26.621-4.57 1.125-6.904.974Z" fill="#6A3445"/><path d="M71.377 18.608a.765.765 0 0 0 .75-1.164.77.77 0 0 0-.453-.335.678.678 0 0 1-.418-.406 1.088 1.088 0 0 1 0-.75.762.762 0 0 0-.478-.973.775.775 0 0 0-.98.475 2.61 2.61 0 0 0 .022 1.813 2.193 2.193 0 0 0 1.439 1.316c.039.012.078.02.118.024Z" fill="#6A3445"/></svg>