<svg fill="none" xmlns="http://www.w3.org/2000/svg" viewBox="0 0 101 105"><path d="M96.508 98.826c2.086.378 4.726 1.493 4.482 3.599-.244 2.06-2.951 2.579-5.018 2.568l-35.659-.182c-2.288-.013-4.64-.036-6.76-.9-2.12-.863-3.988-2.759-4.112-5.051-.379-7.135 16.704-3.675 20.695-3.374a249.353 249.353 0 0 1 26.372 3.34Z" fill="#7FDAE8"/><path d="M52.889 4.258c-.195.137-1.529.99-2 1.911-.313.612 1.42 1.253 1.42 1.253l.58-3.164Z" fill="#FF8178"/><path d="m61.042 11.664 1.024 2.19a25.86 25.86 0 0 1-2.888 2.565 3.874 3.874 0 0 0-1.036.996 41.731 41.731 0 0 1-2.302-4.19l5.202-1.56Z" fill="#FFB6AD"/><path d="m61.042 11.664 1.024 2.19c-.392.406-.8.793-1.217 1.17-.224-.114-.396-.206-.459-.224a8.43 8.43 0 0 0-2.017-.45 9.389 9.389 0 0 0-1.932.05c-.202-.39-.397-.784-.594-1.184l5.195-1.552Z" fill="#FF9C90"/><path d="M52.03 9.713c-.96-2.978.36-6.073 2.946-6.912 2.587-.839 5.46.896 6.42 3.874.96 2.979-.36 6.074-2.946 6.912-2.587.84-5.46-.895-6.42-3.874Z" fill="#FFB6AD"/><path opacity=".4" d="M55.863 11.585a2.344 2.344 0 0 1-2.34-2.348 2.344 2.344 0 0 1 2.34-2.348 2.344 2.344 0 0 1 2.34 2.348 2.344 2.344 0 0 1-2.34 2.348Z" fill="#FF8178"/><path d="M55.377 7.238a.566.566 0 1 1 .002-1.132.566.566 0 0 1-.002 1.132Z" fill="#211E21"/><path d="M59.52 6.747c-.083.392-.166.783-.283 1.166-.037.155-.109.3-.208.425a.399.399 0 0 1-.428.123c-.209-.085-.251-.362-.254-.587-.004-.601.035-1.203.117-1.799.013-.085-1.69-.929-1.867-1.037a17.734 17.734 0 0 1-1.694-1.124 1.958 1.958 0 0 1-.758-1.013 2.652 2.652 0 0 1-.02-.9c.004-.14.035-.278.092-.406.18-.351.605-.225.73.096.062.225.062.462 0 .686a4.432 4.432 0 0 1 3.232-.157c.856.29 1.681.662 2.466 1.111.831.45 1.611.751 2.104 1.615.493.864.82 2.114.531 3.104-.405 1.378-1.793 2.177-2.035 3.634a1.898 1.898 0 0 1-.098.432c-.148.353-.536.37-.805.126a1.722 1.722 0 0 1-.37-.596c-.186-.41-.392-.812-.616-1.2a2.372 2.372 0 0 1-.287-.613.739.739 0 0 1 .112-.645c.089-.085.186-.16.29-.225a1.572 1.572 0 0 0 .622-1.156c.03-.448-.244-.742-.573-1.06Z" fill="#6A3445"/><path d="M47.975 62.763c-.524 2.638.03 5.459 3.985 6.94a4.465 4.465 0 0 0-1.385-6.314 4.426 4.426 0 0 0-2.288-.637c-.105 0-.209 0-.31.01h-.002Z" fill="#008897"/><path d="M47.977 62.763c.1 0 .204-.011.309-.011a4.427 4.427 0 0 1 3.92 2.367 4.466 4.466 0 0 1-.247 4.585c.16.058.325.117.493.173 1.345.434 3.15.724 5.312.837-.267-.176-.928-.938-1.188-4.251-.327-4.13 3.032-9.447 3.138-9.595.708-2.958 1.178-5 1.468-6.282 0 0-3.656-1.044-2.757-3.801-2.494 3.066-7.844 9.746-9.056 12.163a15.468 15.468 0 0 0-1.392 3.815Z" fill="#00A1B3"/><path d="M54.968 58.942c2.13-3.046 5.531-5.185 6.908-8.747.148-.385.77-.225.62.173-1.12 2.908-3.5 4.887-5.538 7.134-1.084 1.197-2.115 2.524-2.664 4.062-.305.855-.66 1.894.063 2.61.672.674 1.792 1.018 2.689 1.245a.324.324 0 0 1 .073.595.322.322 0 0 1-.246.03c-1.243-.319-3.547-1.043-3.608-2.618-.06-1.574.838-3.247 1.703-4.484Z" fill="#008897"/><path d="M59.713 56.868c-.103.157-3.463 5.465-3.138 9.595.26 3.313.921 4.075 1.188 4.25.598.032 1.232.049 1.903.05a10.435 10.435 0 0 1-1.47-5.132 17.35 17.35 0 0 1 .542-4.766c.372-1.487.693-2.814.975-3.997Z" fill="#008897"/><path d="M58.747 60.865c.363-1.485.672-2.814.965-3.997.709-2.958 1.18-5 1.468-6.282 0 0 1.137.391 3.293.191 2.815-.258 7.366-1.523 13.404-5.967 0 0 3.653.189 5.26-2.074.105 1.82-.202 4.274-2.113 6.073-3.434 3.232-4.65 2.01-7.51 7.108l-.462.811c-2.643 4.587-4.662 7.155-4.12 8.309.574 1.219 3.763.933 5.78 2.08.669.37 1.31.786 1.919 1.246 2.167 1.658 5.28 5.027 9.258 13.331l2.017 3.785-2.763 5.072c-4.39-3.227-21.331-15.685-22.575-16.686-.197-.158-.448-.353-.74-.6a4.455 4.455 0 0 0 1.356-3.206c0-1.18-.468-2.313-1.3-3.148a4.432 4.432 0 0 0-3.586-1.28h-.087c-.043-1.606.137-3.21.536-4.766Z" fill="#00B2C6"/><path d="M64.831 62.79c.448-1.667 1.663-3.149 2.548-4.606 2.183-3.599 4.193-7.317 5.276-11.408a.324.324 0 1 1 .623.173c-.897 3.374-2.418 6.545-4.16 9.568-.914 1.59-1.914 3.126-2.853 4.7-1.015 1.697-1.23 3.388-.392 5.214 1.372 2.99 4.339 5.16 6.948 6.99 2.561 1.8 5.246 3.422 7.62 5.457 3.007 2.542 5.049 5.785 6.853 9.244.193.37-.365.698-.558.326-1.712-3.286-3.633-6.398-6.441-8.861-2.51-2.202-5.395-3.907-8.109-5.83-2.548-1.8-5.325-3.902-6.757-6.763-.647-1.296-.981-2.778-.598-4.204Z" fill="#00A1B3"/><path d="M67.665 63.053c.034-.414.673-.416.646 0a1.82 1.82 0 0 0 .538 1.469c-.013.174.016.348.085.508.123.236.32.424.56.538a2.364 2.364 0 0 1-1.383-.915 2.379 2.379 0 0 1-.446-1.6ZM58.291 65.626h-.087c.035 1.81.539 3.579 1.463 5.133 1.092 0 2.253-.032 3.476-.11a4.463 4.463 0 0 0-1.26-3.747 4.432 4.432 0 0 0-3.137-1.305 4.299 4.299 0 0 0-.455.03Z" fill="#00A1B3"/><path d="M58.42 46.783c-.897 2.757 2.756 3.8 2.756 3.8.267-1.178.377-1.709.377-1.709l.896-.472-2.734-3.194-1.295 1.575Z" fill="#008897"/><path d="M63.145 70.653a51.024 51.024 0 0 1-3.477.11c.581.944 1.31 1.787 2.161 2.497a4.455 4.455 0 0 0 1.316-2.607ZM61.557 48.874s-.11.531-.377 1.71c0 0 1.137.391 3.293.19l-2.02-2.372-.896.472Z" fill="#00A1B3"/><path d="m62.453 48.402 2.017 2.373c2.815-.259 7.367-1.523 13.405-5.967 0 0 3.653.189 5.26-2.074a10.804 10.804 0 0 0-.426-2.492l-2.667-1.208-17.589 9.368Z" fill="#00A1B3"/><path d="M73.055 56.722c-2.643 4.586-4.662 7.154-4.12 8.308.574 1.22 3.763.933 5.78 2.08.668.37 1.31.786 1.919 1.247a74.741 74.741 0 0 0 3.066-.889c.107-2.062-6.181-2.39-6.834-5.438-.645-3 1.37-5.623 1.43-5.695-.42.108-.834.237-1.241.387Z" fill="#008897"/><path d="M74.296 56.335c-.06.076-2.076 2.699-1.43 5.695.652 3.047 6.947 3.373 6.833 5.438a76.157 76.157 0 0 0 12.114-4.941l-1.32-6.93c-1.516.337-3.842.776-5.007.603-1.401-.207-6.724-1.037-11.206.135h.016ZM87.907 85.468l-2.763 5.072 1.035.776 2.497-4.386-.769-1.462Z" fill="#00A1B3"/><path d="M85.44 99.543a4.965 4.965 0 0 0 .112 1.575c1.241.551 1.959-2.742 3.586-6.221 1.627-3.48 1.553-4.48 1.553-4.48a19.904 19.904 0 0 0-1.159-2.13l-3.11 3.45c.618 1.673-.843 5.11-.982 7.806Z" fill="#DA9C80"/><path d="M84.615 97.704a3.353 3.353 0 0 1 1.1-.99c.206-.115.426-.201.655-.256.09-.021.18-.036.271-.043.07-.006.141-.006.211 0h.09a.256.256 0 0 1 .264.052l.016.015a.241.241 0 0 1 0 .342.353.353 0 0 1-.224.088 3.44 3.44 0 0 0-.738.097c-.49.192-.913.521-1.22.949-.191.243-.608-.002-.425-.254ZM84.866 96.213a3.74 3.74 0 0 1 1.12-.779c-.547-.254-1.248-.283-1.636-.8-.253-.338-.224-.79.202-.974a1.193 1.193 0 0 1 1.41.396c.047.056.116.137.188.225.072-.75.372-1.557 1.134-1.307.896.297.26 1.495-.276 2.159a3.77 3.77 0 0 1 .323-.036c.312-.02.307.466 0 .486-.8.048-1.554.397-2.111.976-.23.227-.578-.124-.354-.346Zm.154-2.157-.224.027c-.157.137-.159.247 0 .328.238.297.729.385 1.148.51a2.041 2.041 0 0 0-.35-.528.756.756 0 0 0-.567-.337h-.007Zm2.188-.534c-.105-.224-.336 0-.406.124a1.6 1.6 0 0 0-.161.45c-.06.257-.074.523-.04.785.122-.132.229-.278.318-.434.107-.18.392-.71.296-.925h-.007ZM85.556 101.113c.316 1.1 1.156.657 1.585.169.564-.643 2.335-5.634 2.335-5.634l.717.342c1.582-2.951.791-4.426.603-5.259a2.027 2.027 0 0 0-.103-.315s.071 1.001-1.549 4.48c-1.62 3.48-2.346 6.766-3.588 6.217Z" fill="#232644"/><path d="m88.676 86.93-2.497 4.386c.095.13.17.272.224.423l3.122-3.457c-.448-.742-.849-1.352-.849-1.352Z" fill="#B57A60"/><path d="M73.86 65.343c1.532.2 2.745-1.093 4.033-1.739 1.345-.675 2.788-1.086 4.214-1.52 3.03-.924 6.085-1.757 9.164-2.5l-.76-3.99c.845-.188 1.439-.346 1.439-.346l1.544 6.38c-.556.305-1.12.6-1.674.888l-.448-2.301a163.51 163.51 0 0 0-9.413 2.575c-1.535.47-3.102.924-4.482 1.765-1.121.689-2.221 1.609-3.627 1.426-.396-.044-.4-.692.01-.638Z" fill="#008897"/><path d="m91.938 55.248 1.556 6.38c.188.047.373.11.55.188l-.55-6.925c-.85.178-1.556.358-1.556.358Z" fill="#B57A60"/><path d="m93.494 54.9.56 6.925c.661.29 1.318.81 2.044 1.642.925 1.06 2.089 4.613 3.138 4.797.793-.834.414-2.38-.449-4.273-.863-1.894-3.989-9.316-3.989-9.316-.43.06-.885.142-1.304.225Z" fill="#DA9C80"/><path d="M96.948 66.9a3.402 3.402 0 0 1-.065-1.48c.045-.235.12-.462.224-.675.042-.082.088-.16.139-.237.038-.06.08-.117.128-.17a.936.936 0 0 1 .056-.073.252.252 0 0 1 .206-.17l.002.006a.244.244 0 0 1 .262.225.395.395 0 0 1-.074.225 3.316 3.316 0 0 0-.392.632 2.742 2.742 0 0 0-.04 1.55c.085.292-.368.468-.446.166ZM95.961 65.759c-.05-.452-.017-.91.099-1.35-.545.263-1.01.792-1.654.765-.421-.016-.746-.328-.625-.771a1.198 1.198 0 0 1 1.197-.846h.295c-.53-.53-.966-1.273-.289-1.707.798-.515 1.316.742 1.49 1.574.054-.092.113-.184.178-.274.181-.254.553.056.372.308a3.243 3.243 0 0 0-.58 2.26.243.243 0 0 1-.222.251.242.242 0 0 1-.26-.21Zm-1.569-1.485-.114.183c0 .209.092.28.249.213.381 0 .757-.324 1.12-.569a2.066 2.066 0 0 0-.63-.063.758.758 0 0 0-.624.236Zm.973-2.037c-.249-.068-.206.265-.161.393.06.147.143.285.244.407.16.21.356.389.578.529a2.225 2.225 0 0 0-.132-.522c-.074-.191-.303-.742-.529-.807ZM96.33 54.729c-.213-.162-.832-.142-1.54-.05 0 0 3.124 7.423 3.99 9.316.864 1.894 1.245 3.435.447 4.274 1.056.184 1.092-.979.944-2.303-.148-1.325-2.226-6.903-2.226-6.903l.303-.396s-1.313-3.482-1.918-3.938Z" fill="#232644"/><path d="M83.046 44.842a9.095 9.095 0 0 0-1.163.45c-.596.296-.897 1.061-1.253 1.619-.314.508-1.02 1.232-.757 1.858.116.279.282.463.394.713a14.63 14.63 0 0 1-.542.434l-.038-.13c-.182-.45-.637-.81-.628-1.314 0-.675.76-1.469 1.096-2.013.336-.545.594-1.253 1.107-1.59.513-.338 1.244-.527 1.867-.731-.018.224-.056.463-.083.704Z" fill="#00A1B3"/><path d="M42.059 31.68s1.284-1.271-5.713-3.435-3.754-6.428-6.42-8.857c-2.668-2.43-5.552-.621-7.426-2.209-1.873-1.588-3.418-7.172-5.235-8.983-1.818-1.81-6.542-.722-8.45-2.362C6.909 4.194 4.184 0 1.82 0c-2.365 0 0 5.25 0 9.237C1.819 13.225 0 15.34 0 19.387c0 4.05 2.27 6.238 2.27 10.797S.373 34.354.373 38.699c0 4.346 1.818 5.457 1.818 8.772 0 3.315-2.18 6.44-2.18 9.392 0 2.953 2.451 6.748 2.451 10.191 0 3.444-2.452 5.441-2.452 8.45 0 3.01 1.818 7.8 1.818 9.966 0 2.166-1.002 6.359 4.543 2.072 5.544-4.287 5.723-1.275 8.814-4.377 3.09-3.102 1.636-6.84 3.454-8.664 1.817-1.824 5.632-2.645 7.45-5.38 1.817-2.735-1.57-6.2 1.08-9.849 2.649-3.648 5.826-3.101 7.644-5.744 1.818-2.643-.448-5.398 2.27-8.628 2.719-3.23 3.712-2.83 5.628-8.41l-.652-4.81Z" fill="url(#a)"/><path d="m27.267 16.97-.672 4.296a32.599 32.599 0 0 0 3.546 1.864l-.2-5.422a57.8 57.8 0 0 1-2.674-.738ZM47.711 25.173c-.757 0-1.493.245-2.101.697a3.547 3.547 0 0 0-1.276 1.815c3.35.659 5.33.675 6.84.349a3.542 3.542 0 0 0-1.22-2.054 3.519 3.519 0 0 0-2.243-.807ZM50.851 18.459l3.053 8.463c.448-.25.934-.524 1.47-.81l.966-9.752s-2.683 1.087-5.489 2.099Z" fill="#232644"/><path d="m29.926 17.708.2 5.422a61.635 61.635 0 0 0 11.337 3.914c1.058.256 2.017.468 2.871.639a3.542 3.542 0 0 1 1.348-1.867 3.521 3.521 0 0 1 4.339.22 3.545 3.545 0 0 1 1.153 1.993 9.982 9.982 0 0 0 2.732-1.111l-3.052-8.464c-2.403.866-4.89 1.678-5.847 1.707-1.827.057-8.71-.818-15.081-2.453Z" fill="#2E3257"/><path d="M26.938 19c-4.788-2.815-7.186-1.798-7.186-1.798.52.224 1.242.34 1.504.512.437.286 1.4 1.899 1.63 2.223.228.323.17 1.237 3.747.998l.305-1.934Z" fill="#FFB6AD"/><path d="M19.168 16.495c-.02.331.24.545.585.7 0 0 2.398-1.01 7.185 1.8l.224-1.404s-.923-.747-2.712-.866c-1.788-.12-5.237-1.057-5.282-.23Z" fill="#FF9C90"/><path d="M55.94 16.732s-.761 9.777-1.844 12.325c-1.082 2.548-3.655 6.21-.15 9.73 3.505 3.52 6.042 3.947 6.042 3.947l-3-26.003H55.94Z" fill="#444A72"/><path d="M56.715 17.413s.489 9.204.202 11.034c-.287 1.831-1.396 9.726 2.934 13.046l1.967-16.644-2.864-6.973-2.239-.463Z" fill="#FF3D0A"/><path d="m56.943 15.033-1.073.772a.326.326 0 0 0-.12.367l1.007 2.995a.324.324 0 0 0 .423.198.322.322 0 0 0 .138-.103l1.293-1.676a.324.324 0 0 0 .022-.362l-1.224-2.092a.324.324 0 0 0-.344-.152.322.322 0 0 0-.122.053Z" fill="#2E3257"/><path d="M45.724 32.255h5.13v3.203h-5.13v-3.203Z" fill="#211E21"/><path d="M49.697 33.962c-.277.326-.448.709-.224 1.089.543.972 2.044 3.084 2.914 2.299.285-.257.592-.547.925-.815L49.7 33.962h-.003ZM54.385 31.819l.834 3.823c.19-.02.383-.02.573 0l.386-3.03a7.606 7.606 0 0 0-1.793-.793Z" fill="#FF9C90"/><path d="m49.696 33.962 3.604 2.571a3.668 3.668 0 0 1 1.907-.886l-.834-3.824a5.75 5.75 0 0 0-.981-.207c-1.51-.18-3.414-.362-3.384.504a.973.973 0 0 0 .84.954c-.43.232-.818.532-1.152.888Z" fill="#FFB6AD"/><path d="m42.702 36.495 3.02-1.035v-3.205l-3.02-1.034a.481.481 0 0 0-.584.23.486.486 0 0 0-.057.22v4.356a.487.487 0 0 0 .412.489.483.483 0 0 0 .229-.021Z" fill="#211E21"/><path d="M46.682 32.865h1.605v.863h-1.605v-.863Z" fill="#FFF1ED"/><path d="M42.935 32.303v3.08" stroke="#FFF1ED" stroke-width="4" stroke-miterlimit="10" stroke-linecap="round"/><path d="m58.679 18.682-.224 2.249 1.12.729a.641.641 0 0 0 .85-.133l4.233-5.173a20.392 20.392 0 0 1-.863-.873l-5.116 3.2ZM62.095 24.262c.224.9 1.707 6.538 5.692 8.91l3.586.408c-6.273-4.116-8.754-7.247-9.278-9.318Z" fill="#232644"/><path d="M59.387 37.336c.92.313 1.845.612 2.77.9 4.095 1.298 8.293 2.474 12.551 3.025 1.05.145 2.109.22 3.169.225 1.008.012 2.012-.11 2.987-.364a4.43 4.43 0 0 1-.851-2.625 4.46 4.46 0 0 1 .896-2.677 4.435 4.435 0 0 1 2.651-1.68l-.145-.265a13.74 13.74 0 0 0-1.383-1.962c-1.856-2.276-4.034-4.287-6.13-6.338-2.017-1.986-3.917-3.473-5.62-4.467-4.2-2.442-7.24-1.869-8.219 1.7a2.771 2.771 0 0 0 0 1.332s0 .043.03.122c.501 1.988 2.81 4.961 8.56 8.832a.19.19 0 0 1 .173-.058c2.301.234 4.598.524 6.89.87.309.047.177.515-.128.468-2.107-.318-4.22-.587-6.338-.808l-3.465-.393-8.068-.918-.33 5.081Z" fill="#444A72"/><path d="M70.656 33.094c.238.162.48.322.729.486l-.133-.014c2.12.222 4.233.492 6.338.808.305.047.437-.42.128-.468a145.113 145.113 0 0 0-6.89-.87.191.191 0 0 0-.172.058Z" fill="#2E3257"/><path d="m59.387 37.336-.401-.137c.013.502.03.999.052 1.498 0 0 8.92 6.09 15.676 5.602a29.709 29.709 0 0 0 3.165-2.806 24.033 24.033 0 0 1-3.17-.225c-4.257-.556-8.457-1.728-12.55-3.026-.927-.292-1.853-.591-2.772-.906Z" fill="#232644"/><path d="M59.038 38.7c.06 1.412.152 2.822.24 4.225.085 1.312.033 2.643.177 3.948.166 1.527.84 3.016 2.61 2.863 4.6-.73 8.946-2.595 12.65-5.427-6.757.48-15.677-5.61-15.677-5.61ZM60.9 26.794l-2.689-3.302.245-2.552 1.12.728a.64.64 0 0 0 .85-.132l4.233-5.173a37.644 37.644 0 0 0 5.782 4.498c3.389 2.157 7.947 4.316 13.371 5.115 2.793.575 1.253 4.201 1.253 4.201a25.638 25.638 0 0 1-1.652 3.704 13.745 13.745 0 0 0-1.383-1.96c-1.855-2.277-4.034-4.288-6.13-6.339-2.016-1.986-3.917-3.473-5.62-4.467-4.2-2.442-7.239-1.869-8.218 1.7a2.771 2.771 0 0 0 0 1.332s0 .043.029.122c.224.9 1.707 6.538 5.692 8.91l-8.068-.917-.636-.072a6.243 6.243 0 0 1 .269-1.574c.424-1.31.943-2.588 1.553-3.822Z" fill="#2E3257"/><path d="m56.275 31.866 2.803.317.637.072-.327 5.083-.401-.137a82.308 82.308 0 0 1-3.25-1.183l.538-4.152ZM83.23 34.223c.11-.031.225-.06.332-.083.401.738.631 1.558.673 2.398.085 2.73-1.399 4.035-3.375 4.593a4.432 4.432 0 0 1-.852-2.625c0-.969.314-1.91.896-2.684a4.434 4.434 0 0 1 2.327-1.599Z" fill="#2E3257"/><path d="M61.78 13.864c-.992.715-3.735 2.82-3.892 4.42a.476.476 0 0 0 .141.377l1.35 1.357a.485.485 0 0 0 .692 0l3.727-3.869a.487.487 0 0 0 0-.675l-1.383-1.53a.483.483 0 0 0-.634-.08Z" fill="#444A72"/><defs><linearGradient id="a" x1="42.731" y1="33.962" x2="8.5" y2="33.999" gradientUnits="userSpaceOnUse"><stop stop-color="#7FDAE8"/><stop offset="1" stop-color="#7FDAE8" stop-opacity="0"/></linearGradient></defs></svg>