<svg fill="none" xmlns="http://www.w3.org/2000/svg" viewBox="0 0 122 153"><path d="M22.112 140.851c-2.055.686-4.477 1.822-4.632 3.983-.115 1.548 1.134 2.945 2.59 3.488 1.456.544 3.067.406 4.612.185 11.587-1.67 22.208-7.85 33.847-9.168 6.207-.704 13.613.705 16.397 6.295.873 1.756 1.218 3.812 2.517 5.271 2.227 2.53 6.186 2.279 9.51 1.703a141.52 141.52 0 0 0 24.758-6.67c4.105-1.519 8.704-3.897 9.429-8.213.814-4.825-4.019-8.966-8.836-9.842-4.816-.877-9.745.362-14.64.369-5.87 0-8.931-4.638-13.978-5.238-5.647-.659-14.236 3.495-19.685 5.014a891.087 891.087 0 0 0-41.889 12.823Z" fill="#F6D3C8"/><path d="M28.075 144.827c-3.587 2.181-10.443-.757-13.369-1.732-2.51-.837-3.933-1.404-3.353-2.787a82.173 82.173 0 0 0 5.57 1.854 108.813 108.813 0 0 0 11.152 2.665ZM102.006 134.346c.329.434.537.784.514 1.077-.122 1.581-9.84 14.214-11.53 14.214a4.534 4.534 0 0 1-.83-.079 28.118 28.118 0 0 0 3.623-3.736c4.036-4.819 8.236-11.476 8.236-11.476h-.013Z" fill="#2E3257"/><path d="m26.412 133.687 6.776 4.147c-1.578 2.444-2.965 4.549-3.854 5.814a4.04 4.04 0 0 1-1.259 1.179 108.813 108.813 0 0 1-11.151-2.665c2.582-2.734 0-5.234 0-5.234 2.398-.237 5.057.125 6.954.079 1.255-.029 2.036-1.433 2.534-3.32Z" fill="#FF3D0A"/><path d="M16.924 136.928s2.582 2.5 0 5.234a82.194 82.194 0 0 1-5.572-1.854 5.714 5.714 0 0 1 1.22-1.647c1.08-1.107 2.652-1.571 4.352-1.733ZM87.721 145.206s2.77-2.167 6.049.616a28.105 28.105 0 0 1-3.624 3.736c-1.413-.247-3.311-1.226-2.425-4.352ZM26.721 132.293l8.698 2.053a462.903 462.903 0 0 1-2.23 3.488l-6.777-4.147c.118-.442.22-.909.31-1.394ZM96.491 127.286a25.836 25.836 0 0 0 2.062 3.087c0 .069-8.087 3.673-8.087 3.673a9.765 9.765 0 0 0-.755-.988l6.78-5.772Z" fill="#DE370B"/><path d="M102.006 134.346s-4.197 6.657-8.236 11.476c-3.278-2.783-6.049-.616-6.049-.616.36-1.258 1.17-2.869 2.636-4.921 1.578-2.194 1.38-4.282.095-6.239 0 0 8.088-3.604 8.088-3.673 1.446 1.855 2.768 3.093 3.466 3.973Z" fill="#FF3D0A"/><path d="M19.968 136.263c-.445-.106-.527.599-.086.705.659.161 1.403.731 1.09 1.495-.128.303.284.659.547.412a.47.47 0 0 0 .185-.329v-.017c.31-1.14-.692-2.019-1.736-2.266ZM18.413 136.744c-.442-.112-.53.596-.09.705.66.164 1.398.741 1.078 1.502-.129.303.28.659.544.418a.469.469 0 0 0 .187-.329v-.03c.32-1.127-.675-2.009-1.72-2.266ZM23.463 134.728a4.924 4.924 0 0 0-.623 1.097c-.04.095-.082.191-.115.283-.191-.145-.392-.28-.57-.412a.357.357 0 0 0-.549.331c.008.09.05.173.117.232.264.201.778.468.933.778.09.219.112.46.066.692a.378.378 0 0 0-.06.135l-.042.211c-.093.421.507.507.682.177.08-.166.128-.346.141-.53.616.497 1.404.959 1.885.29.283-.392.082-.777-.274-1.025a8.722 8.722 0 0 0-.632-.398c.659-.494 1.103-1.318.543-1.865-.445-.431-1.103-.494-1.502.004Zm1.245 2.892c0 .069-.738-.402-.77-.428l-.215-.175c.1.053.198.106.294.162.095.056.691.332.691.441Zm-.303-2.372c.142.237-.178.567-.366.718a2.2 2.2 0 0 1-.365.228l-.204-.099c.096-.206.206-.405.329-.596.135-.221.376-.653.62-.251h-.014ZM91.72 141.148c-.793-.837-2.26-.596-3.169-.092-.398.22 0 .807.406.586.659-.356 1.742-.54 2.306.046.323.333.77-.211.458-.54ZM92.132 139.817c-.84-.949-2.032-.659-3.077-.25-.425.168-.194.84.234.659.66-.264 1.67-.676 2.26-.017.3.349.89-.049.583-.392ZM94.04 136.632c-.534-.524-1.364-.264-1.908.26-.25-.82-.909-1.568-1.749-1.393-1.219.253-.402 1.61.33 2.388l-.392.056c-.452.072-.406.784.046.711.326-.055.657-.081.988-.075.3 0 .784-.02.945.266.225.402.808 0 .587-.402a.974.974 0 0 0-.195-.233c.438.051.881-.034 1.269-.244a.858.858 0 0 0 .364-.648.85.85 0 0 0-.285-.686Zm-3.545-.438c.346-.198.748.444.853.685.128.257.19.543.178.83a2.479 2.479 0 0 1-1.03-1.515Zm2.056 1.294c.33-.329.912-.609 1.024-.29.112.32-.616.313-1.024.29Z" fill="#2E3257"/><path d="M28.523 140.308a1.835 1.835 0 1 0 0-3.67 1.835 1.835 0 0 0 0 3.67ZM96.979 136.46a1.834 1.834 0 1 0 0-3.669 1.834 1.834 0 0 0 0 3.669Z" fill="#fff"/><path d="M44.943 71.152a6.523 6.523 0 1 1-9.07 9.378 19.72 19.72 0 0 1 9.05-9.414l.02.036ZM85.145 77.081a69.732 69.732 0 0 0-6.885 2.07 370.27 370.27 0 0 0-3.773-2.07c-4.737-2.55-9.497-4.878-11.86-4.858-4.98.04-15.961-1.918-15.961-1.918 12.239-5.158 28.55-.619 28.55-.619l9.929 7.395Z" fill="#B57A60"/><path d="M47.21 89.988C58.522 77.655 74.486 77.08 74.486 77.08c1.275.689 2.55 1.39 3.773 2.07a95.382 95.382 0 0 0-14.134 6.228c-.516.28-1.018.554-1.505.824-.23.128-.461.253-.686.382-.606.34-1.187.67-1.742.988-.402.227-.79.458-1.166.682l-.406.244-.398.243c-.916.56-1.76 1.11-2.53 1.647-.396.277-.775.55-1.13.824-.116-.046-3.22-1.591-3.582-1.68-1.057-.27-2.329-.484-3.294.181-.148.103-.284.22-.408.35l-.07-.076Z" fill="#B57A60"/><path d="m47.21 89.988.075.069c-1.347 1.433-.276 3.86-.151 5.6.145 2.039.24 4.081.253 6.127a56.065 56.065 0 0 1-.626 9.312 32.545 32.545 0 0 1-3.544 10.426c-1.397 2.573-4.672 7.906-7.798 12.847l-8.698-2.052c.511-2.794.593-6.088.715-7.699.237-3.083-.395-23.243 8.144-43.402.096-.228.191-.448.293-.66a6.533 6.533 0 0 0 9.07-9.404l-.02-.036a26.02 26.02 0 0 1 1.736-.814s10.98 1.957 15.962 1.917c2.369-.02 7.13 2.306 11.86 4.86.007.002-15.958.576-27.271 12.909ZM85.145 77.081l32.262 6.836a43.563 43.563 0 0 1-1.528 4.473c-11.975.399-25.42-3.953-29.05-4.902-1.44-.375-4.764-2.236-8.566-4.338a69.733 69.733 0 0 1 6.882-2.069ZM107.593 91.757c.788 0 6.125 1.037 6.125 1.037-3.4 5.808-7.874 9.145-12.434 10.973-.042-.109-1.317-3.367 0-4.918 1.318-1.552 5.522-7.093 6.309-7.093Z" fill="#DA9C80"/><path d="M51.225 94.375a6.527 6.527 0 0 1 3.914 10.789 6.526 6.526 0 0 1-4.046 2.137c-1.387-1.904-2.24-3.804-2.273-5.6-.052-2.948.676-5.237 2.379-7.352l.026.026Z" fill="#DA9C80"/><path d="M80.595 104.521c.33.204 10.668 6.878 13.3 16.447a27.123 27.123 0 0 0 2.596 6.318l-6.78 5.765c-4.263-4.974-15.082-9.039-20.356-11.72-5.7-2.892-14.226-8.479-18.262-14.03a6.527 6.527 0 0 0 .132-12.926l-.026-.02a18.628 18.628 0 0 1 3.36-3.149c.356-.273.735-.546 1.13-.823a56.77 56.77 0 0 1 2.53-1.647l.399-.244.405-.244c.38-.224.768-.454 1.166-.682a99.602 99.602 0 0 1 1.743-.988l.685-.382c.488-.27.99-.544 1.506-.823a95.382 95.382 0 0 1 14.133-6.23c3.802 2.102 7.126 3.953 8.566 4.339 3.624.948 17.075 5.3 29.05 4.901a34.909 34.909 0 0 1-2.161 4.408s-5.337-1.038-6.124-1.038c-.788 0-4.942 5.518-6.306 7.092-1.364 1.575-.046 4.81 0 4.918-9.995 4.032-20.39.847-20.686.758Z" fill="#E4AE95"/><path d="M61.34 71.297c-5.901 6.348-16.232 7.369-20.693 15.268-2.35 4.157-1.196 8.795-.606 13.252.642 4.849 1.12 9.79.53 14.669a26.53 26.53 0 0 1-2.47 8.528c-1.025 2.088-2.277 4.055-3.377 6.104l-8.405-1.683a1.646 1.646 0 0 0-2 1.228l-.273 1.153a1.646 1.646 0 0 0 1.229 2l12.611 3.007a1.646 1.646 0 0 0 2-1.228l.33-1.624a1.647 1.647 0 0 0-1.23-2.003l-3.544-.708c1.976-3.739 4.282-7.224 5.27-11.434 1.075-4.582.99-9.352.518-14.01-.227-2.345-.553-4.68-.883-7.013-.362-2.553-.77-5.191 0-7.715 1.318-4.338 5.291-7.27 9.086-9.365 4.313-2.381 9.007-4.242 12.43-7.922.29-.32-.21-.84-.524-.504Z" fill="#B57A60"/><path d="m98.082 123.729-1.123-1.219a1.64 1.64 0 0 0-1.135-.578 1.657 1.657 0 0 0-1.207.403l-2.458 2.277c-.57-.583-1.114-1.209-1.687-1.73a42.638 42.638 0 0 0-3.097-2.546 54.028 54.028 0 0 0-6.628-4.223c-4.721-2.573-9.719-4.408-14.69-6.417-2.636-1.064-5.393-2.556-6.619-5.27-1.288-2.85.08-5.913 2.379-7.775 2.375-1.923 5.525-2.773 8.444-3.478 2.866-.692 5.785-1.15 8.697-1.608 5.314-.84 12.466-1.054 14.644-6.966.161-.432-.527-.617-.686-.192-1.192 3.242-4.029 4.576-7.211 5.27-3.018.66-6.082 1.065-9.126 1.562a71.134 71.134 0 0 0-9.07 1.954c-2.483.744-5.03 1.739-6.901 3.603-1.611 1.608-2.675 3.878-2.336 6.187.34 2.309 1.977 4.226 3.845 5.514 2.306 1.588 5.116 2.405 7.712 3.423 2.744 1.077 5.459 2.233 8.098 3.544a59.357 59.357 0 0 1 8.14 4.806 42.125 42.125 0 0 1 3.756 2.998c.62.556 1.203 1.218 1.815 1.841l-6.496 5.995a1.641 1.641 0 0 0-.577 1.133 1.643 1.643 0 0 0 .402 1.206l.774.899a1.64 1.64 0 0 0 1.135.578 1.639 1.639 0 0 0 1.208-.403l9.824-8.456a1.646 1.646 0 0 0 .174-2.332Z" fill="#DA9C80"/><path d="M74.84 102.966c2.024.309 4.003.862 5.894 1.647l-.139-.089c.915.268 1.843.488 2.78.659-2.664-1.624-5.666-2.48-8.743-2.964-1.489-.231-2.988-.383-4.49-.511-1.647-.138-3.32-.372-4.942.03-.444.108-.257.793.188.685 1.552-.382 3.183-.135 4.754 0 1.572.135 3.143.286 4.698.543Z" fill="#DA9C80"/><path d="M80.292 42.59c.619 9.025.261 18.091-1.067 27.04a3.953 3.953 0 0 1-2.448-1.209c-1.598-1.696-1.374-4.345-1.156-6.66.583-6.22.369-12.472.23-18.704-.072-3.146-.128-6.295-.052-9.44.02-.815-.356-3.4.915-3.137.814.168 1.628 2.523 1.898 3.192 1.14 2.823 1.473 5.903 1.68 8.917Z" fill="#00A1B3"/><path d="M78.918 28.184c-1.044.484-1.548 1.726-1.538 2.88.01 1.152.415 2.249.728 3.356.856 3.02 1.011 6.19 1.163 9.322.128 2.681.254 5.373 0 8.044-.58 6.097-3.117 11.859-4.065 17.897.915.85 1.568 1.762 2.484 2.612a25.838 25.838 0 0 0 3.136 2.616 25.696 25.696 0 0 0 4.322 2.17l6.141 2.616c1.95.83 3.904 1.647 5.93 2.306 5.966 1.95 12.325 2.329 18.601 2.51.606.02 1.36-.053 1.597-.613 1.664-3.923 1.407-8.41 1.17-12.666-.086-1.528-1.397-2.599-2.161-3.923a2835.357 2835.357 0 0 0-11.409-19.62c-4.569-7.744-9.29-15.521-15.616-21.915l-10.483 2.408Z" fill="#fff"/><path d="m89.26 25.819-10.342 2.365c-1.044.484-1.548 1.726-1.538 2.88.01 1.152.415 2.249.728 3.356.03.099.053.197.079.296.514.603 1.094 1.19 1.858 1.318 1.707.33 3.097-1.436 3.397-3.146.49.438.827 1.044 1.364 1.43 1.219.883 3.07.257 3.953-.969.883-1.225.988-2.833.922-4.338-.058-1.073-.2-2.14-.421-3.192Z" fill="#E9E9E9"/><path d="M121.918 77.081c-.155 1.094-4.711 2.306-5.64 2.547-2.282.622-4.63.965-6.995 1.02-3.531.077-7.05-.401-10.512-1.047-2.043-.382-6.767-.6-7.643-2.99-3.038-8.282-4.556-17.048-5.176-25.826a124.235 124.235 0 0 1-.372-13.608c.08-2.36.292-4.715.632-7.053.303-2.049 1.173-4.246 1.038-6.298 1.611-.616 3.19-.49 4.902-.293 9.716 1.123 16.407 10.287 19.938 18.621 2.362 5.574 3.851 11.454 5.759 17.185 1.977 5.93 3.69 11.467 4.141 17.788.056-.375-.125.356-.072-.046Z" fill="#00A1B3"/><path d="M86.538 56.905a96.11 96.11 0 0 0 2.307 12.307c.049-.023 4.984-2.306 13.691-11.882 8.747-9.635 2.722-20.33 2.722-20.33l-18.72 19.905Z" fill="#008897"/><path d="M80.322 26.023a7.908 7.908 0 0 0-2.343 2.342.607.607 0 0 0-.118.3c.01.113.05.221.115.313l1.601 2.671c.205.384.466.735.774 1.041a1.318 1.318 0 0 0 2.181-.329c.198-.384.338-.794.416-1.219l1.07 1.12c.188.225.42.41.682.54.61.244 1.295-.131 1.766-.59 1.357-1.317 1.842-3.25 2.636-4.96.48-1.018 1.103-2.079.922-3.192a4.73 4.73 0 0 0-1.674-1.318.761.761 0 0 0-.29-.089.824.824 0 0 0-.368.1c-1.037.459-2.039.993-2.998 1.597l-4.372 1.673Z" fill="#fff"/><path d="M39.77 77.319c21.354 0 38.664-17.309 38.664-38.66C78.434 17.31 61.124 0 39.771 0 18.417 0 1.107 17.308 1.107 38.66c0 21.35 17.31 38.659 38.664 38.659Z" fill="#2E3257"/><path d="M40.956 3.913h-2.134a.356.356 0 0 1 0-.711h2.134a.356.356 0 1 1 0 .711Z" fill="#fff"/><path d="M39.89 4.98a.355.355 0 0 1-.357-.368V2.49a.356.356 0 0 1 .712 0v2.122a.355.355 0 0 1-.356.369ZM61.118 12.926H58.97a.355.355 0 1 1 0-.712h2.135a.356.356 0 0 1 0 .712h.014Z" fill="#fff"/><path d="M60.051 13.993a.356.356 0 0 1-.356-.356v-2.134a.356.356 0 0 1 .712 0v2.134a.356.356 0 0 1-.356.356ZM49.97 25.733h-2.135a.356.356 0 1 1 0-.711h2.135a.356.356 0 1 1 0 .711Z" fill="#fff"/><path d="M48.903 26.8a.356.356 0 0 1-.356-.355V24.31a.356.356 0 1 1 .712 0v2.135a.356.356 0 0 1-.356.356ZM18.185 20.515h-2.134a.356.356 0 1 1 0-.711h2.134a.356.356 0 1 1 0 .712Z" fill="#fff"/><path d="M17.131 21.583a.356.356 0 0 1-.356-.356v-2.121a.355.355 0 0 1 .686 0v2.134a.356.356 0 0 1-.33.343ZM33.84 42.098h-2.134a.356.356 0 1 1 0-.711h2.135a.356.356 0 0 1 0 .711Z" fill="#fff"/><path d="M32.773 43.152a.356.356 0 0 1-.356-.329v-2.135a.355.355 0 1 1 .712 0v2.135a.356.356 0 0 1-.356.33ZM12.967 37.355h-2.135a.356.356 0 0 1 0-.712h2.135a.356.356 0 1 1 0 .712Z" fill="#fff"/><path d="M11.9 38.422a.355.355 0 0 1-.37-.356v-2.134a.356.356 0 1 1 .712 0v2.134a.356.356 0 0 1-.343.356ZM10.358 61.072H8.236a.356.356 0 0 1 0-.711h2.135a.356.356 0 0 1 0 .711h-.013Z" fill="#fff"/><path d="M9.29 62.14a.356.356 0 0 1-.355-.356v-2.135a.356.356 0 1 1 .711 0v2.135a.356.356 0 0 1-.356.355ZM31.468 71.508H29.32a.356.356 0 0 1 0-.712h2.135a.356.356 0 1 1 0 .712h.014Z" fill="#fff"/><path d="M30.401 72.575a.356.356 0 0 1-.356-.356v-2.134a.356.356 0 0 1 .712 0v2.134a.356.356 0 0 1-.356.356ZM62.067 39.727h-2.135a.355.355 0 1 1 0-.712h2.135a.356.356 0 0 1 0 .712Z" fill="#fff"/><path d="M61 40.794a.357.357 0 0 1-.356-.356v-2.135a.356.356 0 0 1 .712 0v2.135a.355.355 0 0 1-.356.356ZM73.927 46.367h-2.134a.355.355 0 1 1 0-.711h2.134a.356.356 0 0 1 0 .711Z" fill="#fff"/><path d="M72.86 47.435a.356.356 0 0 1-.356-.356v-2.135a.355.355 0 1 1 .712 0v2.135a.356.356 0 0 1-.356.356Z" fill="#fff"/><path d="M12.394 11.361a6.28 6.28 0 0 0 3.91.6c1.707-.297 3.133-1.36 4.421-2.454C21.941 8.469 23.031 7.18 23.2 5.53a4.509 4.509 0 0 0-.194-1.716 38.81 38.81 0 0 0-10.611 7.546ZM49.245 1.17a1.24 1.24 0 0 0 0 .293 4.114 4.114 0 0 0 4.125 3.702c1.203 0 2.497-.458 3.232-1.317a38.286 38.286 0 0 0-7.357-2.679ZM14.466 51.717c-.764-.616-1.473-1.06-1.624-2.141-.126-.893.273-1.76.188-2.659a3.198 3.198 0 0 0-.781-1.801c-.893-1.031-2.376-1.5-3.515-.56-1.285 1.054-1.167 2.737-.81 4.193.43 1.762 1.646 4.974 3.593 5.87.221.201.482.354.765.448 1.248.415 2.774-.408 2.935-1.762a1.754 1.754 0 0 0-.751-1.588ZM61.115 67.825a9.778 9.778 0 0 0-5.3.794c-2.57 1.176-3.997 3.97-3.753 6.703a38.586 38.586 0 0 0 11.574-6.242 4.962 4.962 0 0 0-2.52-1.255ZM36.957 60.417c-.33-.66-1.047-.702-1.614-.396a11.069 11.069 0 0 1-2.527-.678c-.165-.547-.867-.93-1.367-.389-1.318 1.41-3.499 3.423-3.235 5.544.234 1.861 2.26 2.602 3.887 2.098 1.822-.563 3.347-2.306 4.247-3.91.33-.593.948-1.564.61-2.27Zm-6.977 3.11a6.36 6.36 0 0 0-.146.704 1.458 1.458 0 0 1 .146-.705ZM27.654 30.905c-1.361-1.222-3.79-1.281-5.443-.718-1.291.441-2.013 1.976-.807 2.965 1.552 1.278 3.996.826 5.72.227.121-.033.239-.082.348-.145a1.456 1.456 0 0 0 .689-.965c.148-.419.023-.886-.508-1.364ZM45.589 21.412c-1.608-.8-2.992 1.12-3.71 2.276a5.837 5.837 0 0 0-.959 2.566c-.082 1.077.23 2.108.27 3.179.053 1.426-.6 2.437-1.136 3.699a9.176 9.176 0 0 0-.682 3.024c-.09 1.482.487 2.988 2.148 3.192 1.492.178 2.754-1.015 2.905-2.464a7.712 7.712 0 0 0-.24-2.53 36.104 36.104 0 0 1-.636-3.4c-.155-1.143-.352-2.256.148-3.323.33-.722.94-1.212 1.522-1.73 1.18-1.057 2.3-3.534.37-4.49ZM70.847 29.607c-1.38-1.93-4.86.3-3.59 2.267a.587.587 0 0 0 .164.17c.12.247.312.452.55.587 1.927 1.13 4.214-1.156 2.876-3.024Z" fill="#FF3D0A"/><path d="M14.265 21.79c-.458-1.284-2.132-1.742-3.255-1.06-.26.154-.485.362-.659.609-1.7 1.318-2.164 4.707-2.19 6.522-.024 1.502.236 3.166 1.726 3.907 1.317.659 2.662-.125 3.294-1.318.32-.59.445-1.267.36-1.933-.12-.893-.703-1.647-.778-2.546-.096-1.087.497-1.677 1.103-2.451a1.753 1.753 0 0 0 .399-1.73ZM70.501 57.403c1.127.77 2.751.161 3.262-1.051.112-.277.167-.574.161-.873.61-2.056-1.011-5.083-2.056-6.565-.863-1.229-2.052-2.425-3.69-2.151-1.459.244-2.081 1.666-1.894 3.017.09.665.387 1.284.847 1.772.62.66 1.535.926 2.125 1.608.715.823.583 1.647.543 2.635a1.765 1.765 0 0 0 .702 1.608ZM45.513 67.324c-1.11-.46-2.557.33-3.43.989a6.554 6.554 0 0 0-2.095 2.757 4.114 4.114 0 0 0-.474 1.762c-.116 3.113 4.25.033 5.162-.679.863-.658 1.819-1.482 1.977-2.635.102-.863-.297-1.841-1.14-2.194ZM22.033 66.06a2.695 2.695 0 0 0-1.73-2.115c-.826-.33-2.348-.66-2.935.25-.586.91-.273 2.224.234 3.04.11.176.238.34.379.491.104.168.226.322.366.461.711.715 1.914 1.035 2.833.537.92-.497 1.002-1.696.853-2.665ZM23.552 43.126a2.411 2.411 0 0 0-1.446-1.647 1.447 1.447 0 0 0-1.95.92c-.373.622-.267 1.518-.03 2.206.02.123.05.244.089.362.421 1.298 2.395 2.122 3.248.715.428-.721.306-1.798.089-2.556ZM61.754 19.92c.224-1.816-1.113-3.838-2.523-4.876-1.1-.807-2.76-.527-2.883 1.028-.161 2.006 1.608 3.748 3.084 4.819h.02a1.447 1.447 0 0 0 1.515.204c.386-.098.702-.47.787-1.176ZM57.422 36.894c-.135-1.509-.78-2.873-2.362-3.624-3.515-1.647-4.283 2.658-4.942 5.129-.33 1.219-.613 2.566-1.466 3.544-1.318 1.51-4.282 1.038-4.282 3.706.016 2.454 2.965 3.32 4.941 3.192 2.497-.161 4.612-1.317 5.779-3.547a23.055 23.055 0 0 0 2.055-5.39c.25-.982.344-1.998.277-3.01ZM36.239 6.559c-1.914-.083-3.759.777-5.271 1.887a11.29 11.29 0 0 0-4.177 6.295c-.524 2.121-.518 5.93 1.703 7.198a2.305 2.305 0 0 0 2.18.02c1.532-.804 1.447-2.804 1.865-4.25.685-2.382 3.624-1.568 5.505-2.224a4.612 4.612 0 0 0 2.886-2.865c1.08-3.173-1.624-5.93-4.691-6.061Z" fill="#FFAF03"/><path d="M43.816 62.917c3.295.827 6.605 1.59 9.95 2.128.526-2.84 1.053-5.68 1.577-8.519.096-.52.274-1.136.429-1.772-8.628-.33-17.217-2.44-25.552-4.865-.903-.264-1.934-.514-2.728 0-.698.444-.659 1.446-.132 1.976-1.008-.247-2.098-.468-3.133-.23-1.15.26-2.22 1.284-2.105 2.46a3.09 3.09 0 0 0 .867 1.667c2.322 2.635 5.712 3.57 9.023 4.266 3.98.83 7.89 1.9 11.804 2.889Z" fill="#FFB6AD"/><path d="M103.462 33.896c-2.461-2.83-6.889-4.53-10.321-2.424-3.021 1.85-3.644 5.356-5.522 8.087a39.285 39.285 0 0 1-6.401 7.247 31.14 31.14 0 0 1-17.237 7.698 56.34 56.34 0 0 1-8.196.247c-.155.636-.33 1.252-.428 1.772l-1.578 8.519c4.487.718 9.02 1.024 13.59.513 10.15-1.136 19.855-5.01 28.44-10.462 4.03-2.556 7.778-5.998 9.35-10.62 1.209-3.55.833-7.662-1.697-10.577Z" fill="#00B2C6"/><path d="M67.368 65.572a60.022 60.022 0 0 0 10.994-2.306 6.523 6.523 0 0 0-11.93 2.405l.936-.1ZM57.135 52.472l-.735-.156a1.878 1.878 0 0 0-2.228 1.445l-2.609 12.253a1.878 1.878 0 0 0 1.446 2.228l.734.156a1.878 1.878 0 0 0 2.228-1.445l2.61-12.253a1.878 1.878 0 0 0-1.446-2.228Z" fill="#00A1B3"/><path d="M3.4 36.284c1.318 2.108 2.19 4.572.896 6.918a3.544 3.544 0 0 1-1.901 1.716 1.756 1.756 0 0 1-1.407-.076 1.762 1.762 0 0 1-.767-1.113c-.356-1.407-.195-2.902-.106-4.332.09-1.43.214-2.908.376-4.358.099-.88.33-2.19 1.436-2.266.506 0 1 .157 1.413.448.57.334 1.058.792 1.427 1.34.264.416.843 1.792.25 2.165a.534.534 0 0 1-.349.062 2.102 2.102 0 0 1-1.268-.504ZM87.132 21s.079 2.243.329 2.964L83.35 29.22a.949.949 0 0 1-1.582-.126l-1.91-3.478L87.131 21Z" fill="#FFB6AD"/><path d="M85.718 22.89c.211-.49.481-.965.715-1.449l-6.589 4.174 1.914 3.478a.949.949 0 0 0 1.582.125l.659-.84a27.385 27.385 0 0 1 1.72-5.487Z" fill="#FF9C90"/><path d="M79.501 25.852a8.42 8.42 0 1 0 0-16.84 8.42 8.42 0 1 0 0 16.84Z" fill="#FFB6AD"/><path d="M79.501 9.013a8.42 8.42 0 0 0-8.42 8.42c0 .674.082 1.347.244 2.002h.023a.713.713 0 0 0 .54-.112.959.959 0 0 0 .297-.659c.061-.476.037-.959-.073-1.426a5.793 5.793 0 0 0 3.565.293 11.863 11.863 0 0 0 3.41-1.39 4.53 4.53 0 0 0 1.759-1.499 19.345 19.345 0 0 0 1.907 1.805c.235.215.527.357.84.409a.26.26 0 0 0 .152-.027.25.25 0 0 0 .085-.121 1.527 1.527 0 0 0-.144-1.46c-.162-.23.095-.54.329-.705a.824.824 0 0 1 .807-.079c.316.183.547.484.642.837.088.244.155.496.201.751a.989.989 0 0 1-.059.695.966.966 0 0 1-.514.366.784.784 0 0 1 0 .174c.167 1.119.43 2.22.784 3.294.052.173.14.332.257.468.244.193.55.287.86.264a8.418 8.418 0 0 0-7.468-12.307l-.024.007Z" fill="#6A3445"/><path d="M81.613 23.875a3.084 3.084 0 1 0 0-6.167 3.084 3.084 0 0 0 0 6.168Z" fill="#FF8178"/><path d="M79.303 19.289c.332-.15.447-.61.258-1.028-.19-.418-.612-.634-.943-.484-.332.15-.447.61-.257 1.028.189.418.611.634.942.484ZM72.906 21.088c.247-.067.38-.373.296-.684-.084-.31-.353-.509-.6-.442-.248.067-.38.373-.297.684.084.31.353.509.6.442Z" fill="#211E21"/><path d="M76.266 21.125c-.253-.52-.51-1.038-.764-1.555-.118-.24-.33-.988-.728-.636a.718.718 0 0 0-.178.353c-.182.65-.33 1.31-.441 1.976a3.013 3.013 0 0 0 0 1.36c.093.1.205.181.33.238.694-.04 1.317-.534 1.755-1.097a.461.461 0 0 0 .026-.63v-.01Z" fill="#FF8178"/></svg>