<svg fill="none" xmlns="http://www.w3.org/2000/svg" viewBox="0 0 105 131"><path d="M5.31 54.061c-.713 1.65-1.086 3.822.246 5.028 1.21 1.102 3.17.747 4.612-.038 1.441-.785 2.714-1.938 4.303-2.352 1.59-.415 3.689.4 3.81 2.025.095 1.3-1.063 2.308-2.072 3.152-5.444 4.596-9.315 10.747-12.802 16.921C1.8 81.652.222 84.647.021 87.912a10.868 10.868 0 0 0 2.418 7.565 9.942 9.942 0 0 0 3.17 2.522c1.22.616 2.553.975 3.92 1.056 4.655.22 8.731-2.94 12.035-6.207 5.763-5.692 10.656-12.193 15.057-18.976 2.415-3.725 4.721-7.644 5.65-11.963a7.376 7.376 0 0 0 .155-2.964 8.257 8.257 0 0 0-.797-2.058 51.743 51.743 0 0 0-14.634-17.782c-1.918-1.47-4.102-3.482-6.337-1.797-2.054 1.55-3.946 3.475-5.876 5.18-3.753 3.317-7.462 6.907-9.472 11.573ZM76.643 27.402c1.125-.8 2.336-1.552 3.697-1.787 1.362-.235 2.916.159 3.718 1.276 1.137 1.579.379 3.796-.672 5.43-1.05 1.635-2.415 3.235-2.457 5.187-.031.327.054.655.24.926.275.341.77.415 1.21.403 1.85-.044 3.52-1.082 4.968-2.226 3.451-2.725 6.36-6.306 10.448-7.938 4.144-1.656 7.643 2.814 7.161 6.63-.421 3.355-3.179 6.377-5.032 9.097a430.085 430.085 0 0 1-6.868 9.829 440.33 440.33 0 0 1-14.329 18.817c-1.382 1.717-2.788 3.434-4.44 4.91-1.335 1.2-2.877 2.258-4.641 2.596a3.173 3.173 0 0 1-2.037-.176c-.923-.476-1.346-1.55-1.58-2.555-.403-1.738-.471-3.528-.536-5.316-.246-6.654-.491-13.343.31-19.952.21-1.74.495-3.472.78-5.204l.793-4.854c.452-2.77.787-6.125 2.323-8.553 1.637-2.558 4.508-4.799 6.944-6.54Z" fill="#FFAF03"/><path d="M78.875 47.734c-.474-1.014-1.317-1.902-1.409-3.014-.118-1.42 1.015-2.605 1.51-3.943a4.628 4.628 0 0 0-.45-4.063c-.84-1.297-2.368-2.226-2.647-3.74-.269-1.423.66-2.766 1.016-4.172.429-1.685-.092-3.66-1.522-4.666-.985-.694-2.25-.859-3.324-1.411a5.147 5.147 0 0 1-1.865-1.661 5.103 5.103 0 0 1-.858-2.338c-.148-1.55.426-3.14.048-4.648-.42-1.682-1.94-2.879-3.52-3.608a38.695 38.695 0 0 0-2.91-1.22c-.903-.335-1.947-.474-2.797-.92-.906-.477-1.409-1.391-1.971-2.197-.625-.882-1.285-1.764-1.924-2.646-.953-1.34-2.126-2.605-3.665-3.172A5.192 5.192 0 0 0 49.843.09 5.186 5.186 0 0 0 47.1.315c-1.542.567-2.699 1.831-3.667 3.16-.64.882-1.296 1.764-1.924 2.646-.562.806-1.063 1.72-1.968 2.197-.85.447-1.895.588-2.8.92-.986.362-1.954.78-2.907 1.22-1.584.73-3.1 1.926-3.523 3.608-.378 1.508.196 3.099.048 4.648a5.101 5.101 0 0 1-.857 2.338 5.145 5.145 0 0 1-1.864 1.66c-1.074.554-2.34.718-3.326 1.412-1.427 1.018-1.948 2.993-1.519 4.69.358 1.405 1.288 2.749 1.015 4.172-.296 1.514-1.805 2.443-2.643 3.74a4.637 4.637 0 0 0-.444 4.051c.494 1.338 1.628 2.523 1.513 3.943-.092 1.112-.939 2-1.41 3.014a4.715 4.715 0 0 0 .46 4.768 4.768 4.768 0 0 0 1.94 1.563c.775.34 1.628.47 2.47.376l24.12.264h.084l24.118-.264a4.804 4.804 0 0 0 2.47-.375 4.768 4.768 0 0 0 1.942-1.562 4.723 4.723 0 0 0 .46-4.77h-.012Z" fill="#6A3445"/><path d="M28.62 121.724a26.34 26.34 0 0 0-9.034 2.802c-.864.452-1.808 1.12-1.826 2.09-.02 1.259 1.456 1.923 2.664 2.264 4.754 1.329 9.691 2.673 14.566 1.885 3.283-.532 6.323-2.002 9.457-3.105 6.314-2.223 14.466 1.108 19.903-3.599.296-.253.592-.653.403-.988a.825.825 0 0 0-.346-.294c-1.972-1.076-4.5-1.176-6.693-1.082-2.492.109-4.988.171-7.483.256l-14.966.512-2.693.094" fill="#F6D3C8"/><path d="M72.375 80.155a6.927 6.927 0 0 0-2.544 1.846 6.866 6.866 0 0 0-1.459 2.774 6.838 6.838 0 0 0 1.259 5.965c.176.225.367.438.571.638 2.496-2.332 4.5-5.983 2.173-11.223Z" fill="#2E3257"/><path d="M69.56 91.948a39.432 39.432 0 0 1-.737 5.587l-20.246 8.088-1.285-1.014c7.84-4.41 16.38-9.197 18.509-10.255a19.224 19.224 0 0 0 3.759-2.406Z" fill="#232644"/><path d="M45.125 87.97a33.997 33.997 0 0 0-7.557 7.718c-.225.324-.447.638-.666.944-2.072-1.835-4.102-3.763-5.982-5.451l4.6-7.21c2.907.742 6.488 1.588 9.605 4ZM32.394 83.034l-4.01 5.974c-.279-.22-.548-.432-.814-.632l3.963-5.757c.277.157.565.296.861.415Z" fill="#2E3257"/><path d="m31.533 82.62-3.963 5.756c-.376-.28-.744-.54-1.099-.773l3.674-6.36c.309.59.794 1.07 1.388 1.376Z" fill="#DE370B"/><path d="m30.145 81.243-3.674 6.375c-1.684-1.097-3.137-1.606-4.277-1.126-4.076 1.714-11.08 4.857-11.748 2.857 0 0 .127-1.335 1.853-2.428 1.726-1.094 15.904-9.359 15.904-9.359.684.9 1.237 2.229 1.942 3.681Z" fill="#FF3D0A"/><path d="M17.136 86.736c-.33 1.014-.61 2.081-.22 3.116.175.456.918.259.74-.203-.346-.911-.068-1.823.216-2.71.151-.465-.588-.668-.736-.203ZM19.693 89.008c-.571-.617-.27-1.92-.133-2.646.088-.48-.651-.685-.74-.203-.202 1.065-.486 2.505.331 3.387.335.365.876-.164.542-.538ZM23.446 87.085a3.98 3.98 0 0 0-1.018-.643l.571-.294c.295-.129.561-.315.782-.547a.882.882 0 0 0 .032-1.146.889.889 0 0 0-.328-.251c-.592-.294-1.312.02-1.759.438a2.129 2.129 0 0 0-.506.735.395.395 0 0 0-.428-.222.398.398 0 0 0-.327.354c-.1 1.132-.047 2.27.16 3.388.086.482.826.276.74-.203a11.23 11.23 0 0 1-.103-.697c.229.354.532.654.888.882.527.335 1.48.65 1.933.053.485-.635-.154-1.423-.637-1.847ZM23 84.871c.592.13-.177.506-.388.615l-.77.394c.043-.183.122-.355.235-.506.19-.253.577-.576.923-.503Zm.438 3.552c-.207.326-1.006-.244-1.199-.423a2.174 2.174 0 0 1-.63-1.053c.295.078.578.196.84.35.232.138 1.188.809.99 1.126Z" fill="#191C3A"/><path d="M24.737 76.695c1.651-.676 2.664-.212 3.466.867 0 0-14.178 8.247-15.904 9.344-1.726 1.097-1.853 2.429-1.853 2.429-.672-2.003-.296-2.288 11.748-9.703.006-.015-.491-1.697 2.543-2.937Z" fill="#232644"/><path d="m48.57 105.611 20.247-8.088a21.308 21.308 0 0 1-2.368 6.433 24.205 24.205 0 0 1-.983 1.538 6.969 6.969 0 0 0-6.656-1.147 6.929 6.929 0 0 0-2.896 1.935 6.87 6.87 0 0 0-1.577 3.093c-1.916-.882-3.837-2.264-5.766-3.764Z" fill="#2E3257"/><path d="M33.303 87.662c2.41.782 4.83 1.57 7.071 2.743 2.14 1.12 4.082 2.57 6.012 4.013 2.466 1.84 4.931 3.684 7.264 5.689.597.548 1.243 1.04 1.93 1.471a6.26 6.26 0 0 0 5.313.446 3.879 3.879 0 0 0 1.51-.979 4.726 4.726 0 0 0 .87-1.643c.504-1.456.777-2.98.811-4.52 0-.093-.015-.21-.104-.232-.088-.02-.091.177-.017.124" stroke="#232644" stroke-width="3" stroke-miterlimit="10" stroke-linecap="round"/><path d="m35.079 82.325-.743-.37a1.156 1.156 0 0 0-1.48.388l-.465.69-4.008 5.975-1.358 2.023a1.138 1.138 0 0 0 .352 1.6l.909.573a1.156 1.156 0 0 0 1.59-.373l1.044-1.641 4.6-7.218.018-.027a1.143 1.143 0 0 0-.46-1.62Z" fill="#191C3A"/><path d="M66.055 62.02a140.42 140.42 0 0 1 2.469 12.423 53.076 53.076 0 0 0-7.19-6.575l-6.618-5.83 11.34-.018Z" fill="#2E3257"/><path d="m66.055 62.02-11.34.024-3.362-2.964h13.939s.31 1.085.763 2.94ZM61.103 103.956a6.933 6.933 0 0 1 4.366 1.538c-3.694 5.31-7.4 5.586-11.132 3.884a6.866 6.866 0 0 1 2.42-3.897 6.95 6.95 0 0 1 4.346-1.525Z" fill="#232644"/><path d="m51.353 59.08 3.363 2.964-2.886.003-.477-2.967Z" fill="#2E3257"/><path d="m51.353 59.08.477 2.958-18.986.038a14.048 14.048 0 0 1 1.883-2.646l16.626-.35Z" fill="#2E3257"/><path d="M72.363 80.158c-.77-1.728-2.007-3.628-3.848-5.713a53.076 53.076 0 0 0-7.19-6.574l-6.61-5.833H51.83l-18.986.038a15.12 15.12 0 0 0-1.566 3.937L37.414 64l1.323 7.703-4.01 6.895c7.696 7.118 13.438 6.495 15.572 6.192a30.22 30.22 0 0 0-5.174 3.173 33.997 33.997 0 0 0-7.557 7.718c-.225.323-.447.638-.666.943a65.112 65.112 0 0 1-5.032 6.31l5.089 7.465c2.664-1.499 6.414-3.607 10.324-5.81 7.841-4.41 16.38-9.197 18.509-10.255a19.227 19.227 0 0 0 3.768-2.385c.216-.176.43-.361.636-.558a6.863 6.863 0 0 1-1.902-3.475 6.84 6.84 0 0 1 1.53-5.902 6.927 6.927 0 0 1 2.545-1.846l-.006-.009Z" fill="#444A72"/><path d="m37.414 64.008 1.323 7.703-4.01 6.895c-3.955-4.73-4.266-9.168-3.449-12.584l6.136-2.014Z" fill="#2E3257"/><path d="M33.448 105.176c4.162-5.392 8.856-11.04 14.96-14.113 3.703-1.864 7.814-2.763 11.647-4.34 1.398-.587 2.866-1.349 3.452-2.734.784-1.849-.361-3.978-1.865-5.319-1.942-1.734-4.44-2.696-6.678-4.033-2.237-1.338-4.215-3.064-5.493-5.293-1.28-2.228-1.776-4.96-.971-7.394l-.137.614" stroke="#2E3257" stroke-width="3" stroke-miterlimit="10" stroke-linecap="round"/><path d="M50.3 84.798a17.012 17.012 0 0 1 8.403-1.94" stroke="#2E3257" stroke-width="3" stroke-miterlimit="10" stroke-linecap="round"/><path d="M34.04 112.042h-.018l-4.96-6.431c.165-.132.343-.276.523-.435l4.455 6.866Z" fill="#444A72"/><path d="m29.061 105.611 4.95 6.439c-.331.179-.631.41-.889.683l-5.875-6.072a5.592 5.592 0 0 0 1.814-1.05Z" fill="#DE370B"/><path d="M33.134 112.733c-3.114 3.357 1.48 12.172 0 14.421-.08 0-2.572-.206-4.144-4.892-1.601-4.763-5.032-14.407-5.032-14.407 1.155-.676 2.587-1.017 3.298-1.206l5.878 6.084Z" fill="#FF3D0A"/><path d="M33.744 121.63c-.861-.862-2.051-.83-3.182-.697-.486.056-.491.817 0 .761.906-.106 1.936-.229 2.64.474a.385.385 0 0 0 .625-.124.374.374 0 0 0-.083-.414ZM33.661 119.666c-.909-1.112-2.368-.865-3.608-.533a.38.38 0 0 0-.073.686.385.385 0 0 0 .277.049c.968-.264 2.134-.555 2.862.336.311.388.85-.156.542-.538ZM34.83 115.864c-.165-.715-.988-.882-1.604-.679a3.05 3.05 0 0 0-1.35.991 2.992 2.992 0 0 0-.68-1.229.93.93 0 0 0-.362-.224.94.94 0 0 0-.824.103.937.937 0 0 0-.295.306c-.296.57-.115 1.317.25 1.811.053.072.112.141.174.206a3.612 3.612 0 0 0-.714.253c-.444.208-.056.867.388.655a2.688 2.688 0 0 1 1.452-.236c.497.058.967.254 1.357.566.379.294.927-.233.542-.541-.062-.047-.122-.094-.187-.139.23-.066.455-.149.672-.249.598-.277 1.362-.818 1.181-1.594Zm-4.508-.121c.104-.758.545.042.646.294.136.327.257.659.384.991-.568-.209-1.116-.65-1.03-1.285Zm3.256.882c-.041.027-1.113.509-1.14.409a.361.361 0 0 0-.124-.197c.332-.476.841-.982 1.383-.973.677.006.198.582-.104.761h-.015Z" fill="#191C3A"/><path d="M33.131 127.154a1.1 1.1 0 0 1-.728.491c-3.552.768-7.696-13.763-7.696-13.763s-1.16.768-2.326-2.502c-.592-1.693.325-2.793 1.568-3.513 0 0 3.437 9.632 5.032 14.407 1.578 4.674 4.07 4.874 4.15 4.88Z" fill="#232644"/><path d="m37.361 110.998-.402-.588-5.089-7.465-.44-.647a1.147 1.147 0 0 0-.787-.477 1.144 1.144 0 0 0-.886.248l-.637.52a1.138 1.138 0 0 0-.236 1.508l.701 1.082 4.44 6.866.542.838a1.15 1.15 0 0 0 .74.496c.151.03.306.029.456-.001.15-.031.294-.092.42-.178l.888-.588a1.152 1.152 0 0 0 .487-.746 1.141 1.141 0 0 0-.197-.868Z" fill="#191C3A"/><path d="M30.799 26.168s6.248-12.834 19.089-12.834c12.84 0 20.018 11.07 20.018 11.07l.083 35.658H30.882l-.083-33.894Z" fill="#48B290"/><path d="m57.344 55.117.243 4.948H44.358l.101-5.475 12.885.527Z" fill="#fff"/><path d="m57.314 54.546.03.57-12.885-.526v-.573l12.855.53Z" fill="#2E3257"/><path d="m57.193 52.041.122 2.505-12.844-.529.036-1.958c2.264-.024 4.525-.018 6.79.035 1.202.024 2.403.074 3.602.106.767-.008 1.533-.06 2.294-.159ZM57.063 49.442l.103 2.079c-.509.056-1.02.114-1.539.12-1.314 0-2.634-.079-3.948-.111a207.651 207.651 0 0 0-7.16-.041l.035-1.944 12.509-.103Z" fill="#fff"/><path d="m57.036 48.869.027.573-12.51.103v-.573l12.483-.103Z" fill="#2E3257"/><path d="m56.805 44.17.092 1.862a294.614 294.614 0 0 0-12.136.09.297.297 0 0 0-.154.048l.047-2.544c4.06.024 8.11.205 12.151.544ZM56.675 41.504l.1 2.093c-4.025-.337-8.058-.517-12.1-.54l.03-1.683 11.97.13Z" fill="#fff"/><path d="m56.646 40.933.03.57-11.98-.129v-.57l11.95.13Z" fill="#2E3257"/><path d="m56.58 39.628.066 1.305-11.93-.13.027-1.513c3.938.314 7.888.427 11.837.338ZM56.5 38.014l.054 1.043c-3.936.086-7.874-.027-11.799-.338l.015-.829c3.911-.045 7.821-.004 11.73.124ZM56.3 33.93l.174 3.507a270.387 270.387 0 0 0-11.695-.117l.065-3.508a272.29 272.29 0 0 1 11.455.118ZM56.199 31.875l.074 1.47a273.63 273.63 0 0 0-11.417-.115l.035-1.861c3.775.033 7.544.202 11.308.506ZM56.071 29.252l.1 2.058c-3.748-.302-7.506-.466-11.27-.494l.032-1.676 11.138.112Z" fill="#fff"/><path d="m56.042 28.679.03.573-11.14-.12v-.571l11.11.118Z" fill="#2E3257"/><path d="m55.977 27.394.065 1.285-11.1-.118.03-1.5c3.664.283 7.332.393 11.005.333ZM55.897 25.747l.053 1.073c-3.659.065-7.315-.046-10.97-.332l.012-.85c3.639-.039 7.274-.003 10.905.11ZM55.607 19.843l.26 5.33a263.71 263.71 0 0 0-10.857-.105l.092-4.925c1.299 1.33 3.3 1.994 5.111 2.138a6.166 6.166 0 0 0 3.013-.529 6.122 6.122 0 0 0 2.38-1.909Z" fill="#fff"/><path d="m55.32 14.019.248 5.075a.27.27 0 0 0-.219.126 5.564 5.564 0 0 1-2.222 1.948 5.61 5.61 0 0 1-2.914.542c-1.844-.15-3.963-.9-5.097-2.425l.101-5.357a18.446 18.446 0 0 1 4.668-.588c1.833-.004 3.66.224 5.434.679Z" fill="#fff"/><path d="M55.627 51.641c.518 0 1.03-.064 1.54-.12l.026.52c-.76.098-1.527.151-2.294.16-1.199-.033-2.4-.083-3.602-.107a201.187 201.187 0 0 0-6.79-.035v-.57c2.385-.026 4.772-.012 7.16.04 1.317.033 2.646.121 3.96.112ZM44.755 38.72c3.925.31 7.863.423 11.799.337l.026.57c-3.95.09-7.901-.023-11.84-.337l.015-.57ZM44.992 26.488c3.653.284 7.31.395 10.97.332l.026.588a115.27 115.27 0 0 1-11.005-.332l.009-.588ZM44.9 30.807c3.761.03 7.519.194 11.272.494l.027.588c-3.762-.304-7.53-.468-11.308-.494l.01-.588ZM44.675 43.056c4.038.024 8.071.204 12.1.541l.03.573c-4.04-.337-8.084-.518-12.136-.544l.006-.57ZM55.607 19.843a6.122 6.122 0 0 1-2.38 1.91 6.166 6.166 0 0 1-3.013.528c-1.812-.144-3.813-.809-5.112-2.138v-.858c1.133 1.526 3.256 2.275 5.097 2.425a5.608 5.608 0 0 0 2.923-.537 5.565 5.565 0 0 0 2.23-1.953.27.27 0 0 1 .22-.126M44.77 46.123c4.043-.112 8.089-.142 12.136-.091l.027.57a295.6 295.6 0 0 0-12.154.091.253.253 0 0 1-.163-.044v-.48c.046-.029.1-.045.154-.046ZM44.779 37.32c3.897-.047 7.795-.008 11.695.117l.027.588c-3.908-.129-7.818-.17-11.731-.123l.009-.582ZM44.856 33.242c3.806-.041 7.612-.003 11.416.114l.027.588c-3.814-.121-7.633-.16-11.455-.117l.012-.585ZM45.01 25.068c3.619-.04 7.238-.004 10.857.106l.03.573a262.43 262.43 0 0 0-10.905-.109l.018-.57Z" fill="#2E3257"/><path d="M44.77 46.693c4.051-.112 8.102-.142 12.154-.091l.112 2.267-12.473.103.044-2.323a.253.253 0 0 0 .163.044Z" fill="#fff"/><path d="M44.616 46.16v.48a.295.295 0 0 1-.091-.374.295.295 0 0 1 .091-.105Z" fill="#2E3257"/><path d="M54.58 31.566c-.732.294-.03 1.558-.042 2.352-.112-1.147-3.01-5.745-4.28-3.587-.592 1.006.157 3.505.476 4.537a153.5 153.5 0 0 0 1.685 5.1c.447-.223.888-.528 1.264-.708 1.545-.766 3.079-1.55 4.602-2.352-1.574-3.231-2.889-5.666-3.705-5.342Z" fill="#FFB6AD"/><path d="M50.912 29.775a9.642 9.642 0 0 1-.4 2.723c-.068.235-.148.47-.219.706.148.652.332 1.252.453 1.643.144.46.29.922.438 1.385.157-.338.296-.703.427-1.026.225-.52.44-1.05.636-1.582.336-.826.594-1.681.77-2.555-.693-.826-1.48-1.455-2.105-1.294ZM58.134 36.585c-.888.185-2.178.508-2.368.544l-2.862.588c-.296.062-.755.09-1.184.173.228.685.459 1.37.699 2.058.447-.223.888-.529 1.264-.708 1.545-.767 3.079-1.55 4.602-2.352l-.15-.303Z" fill="#FF9C90"/><path d="M69.66 23.91c-1.346-1.765-3.694-3.182-5.712-2.27-1.143.517-1.88 1.687-2.164 2.902-.284 1.214-.178 2.484-.041 3.722.748 6.66 2.409 13.23 2.696 19.911-2.16-2.717-4.321-7.512-6.133-11.258a215.9 215.9 0 0 1-4.615 2.334c-.36.177-.817.483-1.27.703a181.267 181.267 0 0 0 4.18 11.04 41.964 41.964 0 0 0 1.927 4.011c.888 1.65 1.889 3.234 2.936 4.804a110.45 110.45 0 0 0 2.996 4.199c.909 1.226 1.72 2.467 3.256 2.964a4.19 4.19 0 0 0 2.397-.018c3.111-.882 3.934-3.908 4.198-6.762.77-8.3-.027-16.66-1.063-24.93-.494-3.981-1.13-8.16-3.588-11.352Z" fill="#99D6C0"/><path d="M69.243 62.085a5.292 5.292 0 0 0-2.362.996 5.246 5.246 0 0 0-1.61 1.985c.663.83 1.391 1.556 2.492 1.903a4.17 4.17 0 0 0 2.398-.03c1.894-.552 2.93-1.89 3.51-3.496a5.292 5.292 0 0 0-4.428-1.358ZM68.888 56.299c.296.679 1.338.208 1.048-.47a56.494 56.494 0 0 0-5.494-9.962.608.608 0 0 0-.136-.138c.068.746.124 1.493.163 2.243a54.881 54.881 0 0 1 4.42 8.327Z" fill="#7AC7AE"/><path d="M53.354 33.28c-.61.17-1.209.367-1.797.588-.459.18-.142.882.317.694a17.036 17.036 0 0 1 1.598-.541c.471-.12.355-.876-.118-.741Z" fill="#FF9C90"/><path d="M47.277 31.566c.731.294.03 1.558.041 2.352.113-1.147 3.01-5.745 4.28-3.587.593 1.006-.156 3.505-.476 4.537-.53 1.71-1.095 3.41-1.684 5.1-.447-.223-.903-.528-1.264-.708-1.545-.766-3.08-1.55-4.603-2.352 1.575-3.231 2.901-5.666 3.706-5.342Z" fill="#FFB6AD"/><path d="M43.722 36.585c.888.185 2.179.508 2.368.544l2.862.588c.296.062.755.09 1.184.173-.228.685-.458 1.37-.698 2.058-.447-.223-.903-.529-1.264-.708-1.545-.767-3.08-1.55-4.603-2.352l.151-.303Z" fill="#FF9C90"/><path d="M32.196 23.91c1.347-1.765 3.694-3.182 5.713-2.27 1.142.517 1.88 1.687 2.163 2.902.285 1.214.178 2.484.042 3.722-.749 6.66-2.407 13.23-2.697 19.911 2.161-2.717 4.322-7.512 6.133-11.258 1.528.796 3.066 1.574 4.615 2.334.361.177.817.483 1.27.703a181.267 181.267 0 0 1-4.18 11.04 41.964 41.964 0 0 1-1.927 4.011c-.888 1.65-1.888 3.234-2.936 4.804a110.45 110.45 0 0 1-2.995 4.199c-.91 1.226-1.72 2.467-3.256 2.964a4.19 4.19 0 0 1-2.398-.018c-3.111-.882-3.934-3.908-4.197-6.762-.767-8.3.026-16.66 1.065-24.93.492-3.981 1.128-8.16 3.585-11.352Z" fill="#99D6C0"/><path d="M32.613 62.085c.858.134 1.67.476 2.363.996a5.245 5.245 0 0 1 1.61 1.985c-.66.83-1.392 1.556-2.493 1.903a4.17 4.17 0 0 1-2.397-.03c-1.895-.552-2.93-1.89-3.51-3.496a5.292 5.292 0 0 1 4.428-1.358ZM32.968 56.299c-.296.679-1.338.208-1.047-.47a56.494 56.494 0 0 1 5.493-9.962.61.61 0 0 1 .136-.138 56.713 56.713 0 0 0-.162 2.243 54.9 54.9 0 0 0-4.42 8.327Z" fill="#7AC7AE"/><path d="M48.502 33.28c.61.17 1.21.367 1.797.588.459.18.142.882-.316.694a17.017 17.017 0 0 0-1.599-.541c-.47-.12-.355-.876.118-.741Z" fill="#FF9C90"/><path d="M45.395 18.644a5.741 5.741 0 0 1-1.842-3.858c-.05-.732-1.201-.738-1.151 0 .1 1.775.88 3.444 2.179 4.666.535.506 1.35-.3.814-.808ZM54.615 18.644a5.768 5.768 0 0 0 1.841-3.858c.047-.732 1.199-.738 1.151 0a6.957 6.957 0 0 1-2.178 4.666c-.536.506-1.353-.3-.814-.808Z" fill="#99D6C0"/><path d="M56.92 14.492a21.82 21.82 0 0 0-7.032-1.158 18.42 18.42 0 0 0-6.672 1.243 6.868 6.868 0 0 0 2.34 4.225 6.954 6.954 0 0 0 4.557 1.662 6.954 6.954 0 0 0 4.536-1.718 6.867 6.867 0 0 0 2.287-4.254h-.015Z" fill="#FFB6AD"/><path d="M44.82 14.036c1.48 2.28 4.532 3.846 8.075 3.846.953.001 1.903-.115 2.827-.347a6.818 6.818 0 0 0 1.199-3.043 21.817 21.817 0 0 0-7.033-1.158 18.394 18.394 0 0 0-5.068.702Z" fill="#FF9C90"/><path d="M50.116 15.665c3.431 0 6.213-3.027 6.213-6.762 0-3.735-2.782-6.763-6.213-6.763-3.432 0-6.213 3.028-6.213 6.763s2.781 6.762 6.213 6.762Z" fill="#FFB6AD"/><path d="M55.198 12.793c.219-.34.408-.698.565-1.07a2.09 2.09 0 0 0-1.575-.667 2.1 2.1 0 0 0-1.548.727 2.072 2.072 0 0 0-.482 1.632 2.066 2.066 0 0 0 .909 1.442 6.372 6.372 0 0 0 2.131-2.064ZM44.992 12.793a7.136 7.136 0 0 1-.565-1.07 2.09 2.09 0 0 1 1.575-.667 2.101 2.101 0 0 1 1.548.727 2.07 2.07 0 0 1 .482 1.632 2.067 2.067 0 0 1-.909 1.442 6.37 6.37 0 0 1-2.131-2.064Z" fill="#FF8178"/><path d="M53.68 10.159c.068-.363-.11-.7-.4-.755-.288-.054-.579.196-.648.558-.069.362.11.7.4.754.288.054.579-.195.647-.557ZM47.154 10.722c.289-.054.467-.392.398-.754s-.359-.612-.648-.558c-.29.055-.468.392-.399.754.07.363.36.612.648.558Z" fill="#211E21"/><path d="M49.313 11.643c.036.253.279.324.504.332.233.019.467-.009.69-.082a.662.662 0 0 0 .51-.605.651.651 0 0 0-.046-.277l-.4-1.308c-.1-.339-.153-.882-.42-1.144a.169.169 0 0 0-.106-.053c-.077 0-.116.091-.137.165a17.37 17.37 0 0 0-.52 2.122c-.061.28-.086.565-.075.85Z" fill="#FF8178"/><path d="M53.783 3.214c-2.88-2.206-6.858-1.45-8.88 1.687a7.386 7.386 0 0 0-1.151 4.325.739.739 0 0 0 .32.03c.656-.094.988-.965 1.648-1.05.477-.059.888.315 1.317.512a2.264 2.264 0 0 0 2.15-.27c.19-.156.398-.291.618-.404.346-.15.547.115.861.32.314.207.45.457.838.404.47-.053.767-.518 1.184-.756a1.339 1.339 0 0 1 1.282-.03c.343.18.592.503.93.697a1.642 1.642 0 0 0 1.44.068l.172-.085a7.103 7.103 0 0 0-.75-3.027 7.151 7.151 0 0 0-1.979-2.421Z" fill="#6A3445"/><path d="M17.286 35.89a2.676 2.676 0 0 0 2.685-2.666 2.676 2.676 0 0 0-2.685-2.667 2.676 2.676 0 0 0-2.684 2.667 2.676 2.676 0 0 0 2.684 2.667ZM79.212 16.171c-.279.41-.443.887-.476 1.382a1.4 1.4 0 0 0 .621 1.264c.208.113.437.182.672.203a3.834 3.834 0 0 0 2.594-.708 3.788 3.788 0 0 0 1.48-2.232c.76-3.999-3.783-1.7-4.89.091ZM7.51 105.953c-.835.867-1.415 2.031-1.35 3.234-.004.26.08.515.237.723.155.15.348.257.559.309a4.535 4.535 0 0 0 5.492-2.432 4.462 4.462 0 0 0 .39-2.123 1.538 1.538 0 0 0-.208-.761c-1.382-2.105-3.916-.209-5.12 1.05Z" fill="#FFAF03"/></svg>