<svg fill="none" xmlns="http://www.w3.org/2000/svg" viewBox="0 0 87 93"><path d="M10.951 62.04c-1.035.556-1.32 1.943-1.285 3.14.036 1.197.262 2.454-.196 3.549-.598 1.45-2.258 2.302-2.622 3.833-.275 1.138.255 2.352 0 3.495-.277 1.284-1.43 2.13-2.203 3.187a5.794 5.794 0 0 0-1.095 3.502c.012.556.103 1.126-.05 1.656-.214.76-.863 1.287-1.32 1.923a4.255 4.255 0 0 0-.623 3.55c.164.65.434 1.27.799 1.835.367.542.925 1.096 1.564 1.273h82.522a4.204 4.204 0 0 0-.964-2.272 4.256 4.256 0 0 0-2.078-1.35c-1.967-.506-4.256.49-5.973-.615-1.004-.646-1.507-1.839-2.027-2.927-.736-1.54-1.81-3.154-3.457-3.457-1.43-.262-2.849.568-4.308.606a4.164 4.164 0 0 1-1.973-.47 4.127 4.127 0 0 1-1.51-1.343c-.477-.71-.756-1.599-1.39-2.181-1.128-1.036-2.862-.71-4.352-.416-1.49.293-3.312.407-4.215-.84a2.3 2.3 0 0 1-.453-.909c-.558-2.2-2.807-3.807-5.007-3.582-1.204.12-2.349.71-3.558.677-1.804-.062-3.252-1.498-4.446-2.887-1.195-1.389-2.473-2.92-4.244-3.284-1.03-.21-2.094 0-3.145.012a7.744 7.744 0 0 1-3.925-1.077 8.852 8.852 0 0 1-2.189-1.893c-.476-.54-1.013-1.022-1.738-1.13-.803-.121-1.619.16-2.427.11-1.135-.066-2.339-.392-3.061-1.362-.274-.37-.456-.802-.715-1.183a3.614 3.614 0 0 0-1.446-1.261 3.645 3.645 0 0 0-1.893-.348" fill="#FFAF03"/><path d="M52.633 10.844c-.25.958-.57 1.897-.954 2.81 1.77.803 3.786.81 5.723.8.288-1.265.393-2.564.31-3.859a.638.638 0 0 0-.206-.52l-4.873.769Z" fill="#FFB6AD"/><path d="m57.554 10.098-.03-.023-4.891.769c-.25.958-.57 1.897-.954 2.81.671.297 1.38.503 2.106.613a6.267 6.267 0 0 1 1.03-1.42 17.3 17.3 0 0 1 2.346-1.928c.114-.074.216-.165.3-.272a.68.68 0 0 0 .093-.549Z" fill="#FF9C90"/><path d="M50.766 2.995c-.188.13-1.466.935-1.907 1.808-.298.577 1.356 1.183 1.356 1.183l.551-2.99Z" fill="#FF8178"/><path d="M54.338 11.807c2.602 0 4.711-2.403 4.711-5.367 0-2.963-2.11-5.366-4.711-5.366-2.602 0-4.712 2.403-4.712 5.366 0 2.964 2.11 5.367 4.712 5.367Z" fill="#FFB6AD"/><path d="M52.948 9.2a2.233 2.233 0 0 0 2.241-2.225 2.233 2.233 0 0 0-2.241-2.224 2.233 2.233 0 0 0-2.242 2.224A2.233 2.233 0 0 0 52.948 9.2Z" fill="#FF8178"/><path d="M52.099 5.059c.255 0 .463-.275.463-.613 0-.339-.208-.613-.463-.613-.256 0-.463.274-.463.613 0 .338.207.613.463.613Z" fill="#211E21"/><path d="M60.187 6.604a4.788 4.788 0 0 1-.54 1.914 10.305 10.305 0 0 1-1.668 2.494 3.328 3.328 0 0 1-.418.4.373.373 0 0 1-.119.066.352.352 0 0 1-.164-.014 1.84 1.84 0 0 1-.532-.32 2.265 2.265 0 0 1-.653-.894 4.312 4.312 0 0 1-.344-.819 1.472 1.472 0 0 1 0-.873c.155-.296.333-.578.534-.845.144-.26.226-.55.239-.847a.767.767 0 0 0-.11-.513.355.355 0 0 0-.477-.111.51.51 0 0 0-.138.191c-.06.116-.114.237-.164.353-.053.14-.122.275-.203.402a.568.568 0 0 1-.367.237.334.334 0 0 1-.367-.2.471.471 0 0 1-.017-.179 4.132 4.132 0 0 1 .396-1.49 1.848 1.848 0 0 1-.766-.474 3.833 3.833 0 0 1-1.204-2.543.807.807 0 0 1-.348.199 1.62 1.62 0 0 1-.422.104c-.165.02-.329.04-.496.054a2.14 2.14 0 0 1-.522 0 .794.794 0 0 1-.46-.237 3.654 3.654 0 0 1 1.547-1.42c.271-.116.55-.214.835-.293.341-.104.69-.183 1.044-.236a4.698 4.698 0 0 1 3.593 1.013c1.316 1.09 2.306 2.588 2.384 4.29.024.177-.069.406-.073.59Z" fill="#6A3445"/><path d="M60.286 6.44c1.793 0 3.245-1.441 3.245-3.22 0-1.778-1.452-3.22-3.245-3.22-1.792 0-3.245 1.442-3.245 3.22 0 1.779 1.453 3.22 3.245 3.22Z" fill="#6A3445"/><path d="M83.264 57.85c1.066 1.583.806 3.646-.29 5.934a4.257 4.257 0 0 1-2.144-1.232 4.187 4.187 0 0 1-.748-4.643 4.227 4.227 0 0 1 1.649-1.834c.573.536 1.087 1.13 1.533 1.775Z" fill="#48B290"/><path d="M66.233 91.514c.503.807-.544 1.477-.544 1.477H50.747c-1.938 0-2.384-.847-2.284-1.784.093.094.715.634 2.94.634 1.364 0 5.56.196 9.15.2 2.817-.002 5.253-.108 5.68-.527Z" fill="#349D7B"/><path d="M64.359 47.61c0 .11.131 5.099-6.2 7.651-3.533 1.737-2.574 7.437-2.574 7.437-3-.388-5.723-.878-7.392-1.486l6.915-16.089s4.117.883 9.263 2.496l-.012-.01Z" fill="#48B290"/><path d="M63.99 90.265c1.351.41 1.99.847 2.243 1.25-.427.418-2.864.524-5.672.524.114-2.13 2.572-2.016 2.653-2.01l.775.236Z" fill="#fff"/><path d="M63.207 90.03c-.08 0-2.539-.127-2.653 2.012-3.591 0-7.788-.201-9.151-.201-2.218 0-2.847-.54-2.94-.634.095-.603.306-1.181.622-1.704.696-1.226 4.17-7.049 4.17-7.049l1.374.46.78.293-1.515 2.248a1.59 1.59 0 0 0-.013 1.782 1.603 1.603 0 0 0 1.028.684 1.62 1.62 0 0 0 1.656-.692l1.928-2.858 3.758 1.42-2.966 1.99a.616.616 0 0 0-.264.595.613.613 0 0 0 .422.498c.805.246 2.038.631 3.764 1.157Z" fill="#2E3257"/><path d="m58.494 84.371-1.93 2.858a1.602 1.602 0 0 1-1.024.69 1.62 1.62 0 0 1-1.214-.238 1.6 1.6 0 0 1-.684-1.024 1.582 1.582 0 0 1 .252-1.202l1.514-2.248 3.086 1.164Z" fill="#fff"/><path d="m42.514 59.113.491 1.302a32 32 0 0 1-.531 1.76l-6.378-2.905a.615.615 0 0 1-.36-.556V56.82l6.778 2.292Z" fill="#349D7B"/><path d="M79.692 59.679c0 .951.324 1.874.92 2.62a4.253 4.253 0 0 0 2.361 1.485C78.636 72.829 61.238 85.36 61.238 85.36l-2.73-1.01-2.27-.828c4.58-6.299 9.466-12.895 16.721-16.326 1.49-.71 3.123-1.268 4.335-2.43.968-.928 1.69-2.416 1.094-3.734-.62-1.363-2.401-1.717-3.722-1.964l-.186-.033c-1.907-.33-3.831-.357-5.753-.36-4.01 0-8.457.03-11.78-2.495a4.067 4.067 0 0 1 1.225-.926c6.328-2.553 6.199-7.54 6.199-7.651 6.042 1.892 13.5 4.798 17.372 8.468a4.228 4.228 0 0 0-1.503 1.537 4.189 4.189 0 0 0-.548 2.07Z" fill="#7AC7AE"/><path d="M76.774 60.152c2.146 1.025 1.316 3.4-.177 4.607-1.31 1.062-2.987 1.58-4.477 2.333-3.138 1.587-5.906 3.826-8.345 6.327-2.976 3.047-5.484 6.492-7.99 9.923l-.377-.14-.784-.288s5.46-7.87 6.175-9.18c.675-1.26 2.651-6.306 9.046-9.415.057-.02.792-.419.82-.377 1.59-.71 2.57-.88 4.292-1.218.29-.057.167-.502-.124-.442-1.743.343-3.44.886-5.057 1.618-2.313-.12-8.693-.49-14.182-1.202 0 0-.641-3.816 1.061-6.152 2.408 1.815 5.458 2.397 8.438 2.546 1.884.092 3.77.024 5.653.076 1.226.007 2.45.1 3.663.277a9.05 9.05 0 0 1 2.365.707Z" fill="#7AC7AE"/><path d="m70.665 63.943-.896-.043a23.107 23.107 0 0 1 5.057-1.618c.29-.06.415.385.124.442-1.715.338-2.694.502-4.292 1.219M68.717 58.678c1.922 0 3.856.028 5.754.36l-.07.4a26.402 26.402 0 0 0-3.662-.277c-1.883-.052-3.77.016-5.653-.076-2.98-.149-6.03-.731-8.438-2.546a6.53 6.53 0 0 1 .289-.357c3.323 2.53 7.77 2.496 11.78 2.496Z" fill="#48B290"/><path d="M77.284 64.773c-1.211 1.162-2.844 1.725-4.335 2.43-7.245 3.424-12.13 10.02-16.711 16.307l-.448-.168c2.5-3.431 5.007-6.876 7.99-9.923 2.441-2.501 5.21-4.733 8.344-6.327 1.49-.753 3.167-1.27 4.478-2.333 1.493-1.207 2.332-3.582.177-4.607a9.051 9.051 0 0 0-2.385-.71l.07-.4.186.034c1.32.236 3.099.6 3.721 1.963.604 1.318-.119 2.806-1.087 3.734ZM37.548 45.927l4.966 13.186-6.778-2.302v1.893a.608.608 0 0 0 .36.556l6.378 2.906c-1.214 3.639-2.835 6.182-4.597 7.987a4.255 4.255 0 0 0-2.165-1.286 4.28 4.28 0 0 0-2.518.16 4.244 4.244 0 0 0-1.983 1.547 4.193 4.193 0 0 0-.54 3.706c-1.051.288-2.014.473-2.827.643-4.016.843-15.498 5.497-15.498 5.497l-1.192-1.039-1.707-1.5c1.983-1.77 4.029-3.473 6.175-5.05 2.146-1.575 4.463-3.238 6.97-4.258a12.001 12.001 0 0 1 4.379-.84c1.378-.03 2.766.028 4.127-.237 2.08-.4 3.7-1.72 3.548-3.96-.102-1.496-.582-2.967-.844-4.437-.262-1.47-.386-2.94-.124-4.396l3.87-8.776Z" fill="#48B290"/><path d="M33.84 61.5c.289 1.342.756 2.958-.179 4.156-.844 1.078-2.317 1.407-3.614 1.533-1.405.135-2.816.023-4.223.14a11.232 11.232 0 0 0-3.412.832c-2.432 1.008-4.659 2.582-6.773 4.12-2.287 1.651-4.433 3.433-6.526 5.304l-.394-.345-.565-.495s8.312-11.944 15.66-12.029c7.349-.085 6.562-2.084 6.3-5.037a12.02 12.02 0 0 1 .271-3.705l1.738.769a.62.62 0 0 0 .818-.317l.155-.35c-.05 1.814.36 3.636.744 5.425Z" fill="#48B290"/><path d="M33.819 59.104c.262 1.47.741 2.94.844 4.436.152 2.24-1.469 3.561-3.548 3.961-1.361.26-2.75.201-4.127.237-1.5.004-2.986.289-4.38.84-2.506 1.029-4.802 2.678-6.97 4.258-2.167 1.581-4.193 3.285-6.175 5.054l-.35-.305c2.093-1.871 4.239-3.653 6.516-5.304 2.115-1.536 4.342-3.112 6.783-4.12a11.234 11.234 0 0 1 3.422-.833c1.407-.116 2.818 0 4.222-.14 1.297-.125 2.77-.454 3.615-1.532.934-1.198.477-2.814.179-4.155-.384-1.789-.794-3.61-.744-5.426l.598-1.367c-.272 1.455-.148 2.929.115 4.396Z" fill="#349D7B"/><path d="m36.935 44.302.613 1.625-4.607 10.499a.61.61 0 0 1-.342.328.62.62 0 0 1-.475-.011l-1.739-.77c.122-.565.291-1.118.506-1.656l6.044-10.015ZM34.71 68.757a4.268 4.268 0 0 1 3.167 1.406c-2.351 2.418-4.974 3.506-7.206 4.131a4.194 4.194 0 0 1 .6-3.786c.395-.54.911-.98 1.509-1.282a4.282 4.282 0 0 1 1.93-.464v-.005ZM14.663 90.542c.016.106.016.213 0 .32-.212 2.05-6.456.527-8.955 0-2.499-.528-4.003-4.36-5.431-8.247-.532-1.448-.239-2.283.41-2.796 0 0 2.606 9.954 6.099 10.446l.899.132c3.216.483 6.65 1.089 6.978.145Z" fill="#349D7B"/><path d="M14.663 90.542c-.329.946-3.762.338-6.978-.145.1-2.143 2.906-1.907 2.906-1.907.963.107 3.85.582 4.072 2.052Z" fill="#fff"/><path d="M13.094 81.08a.307.307 0 0 1-.054.5 28.702 28.702 0 0 1-3.338 1.457c-2.561.981-.353 4.197.372 5.146a.76.76 0 0 0 .517.307s-2.806-.236-2.906 1.92l-.9-.133C3.294 89.784.688 79.83.688 79.83c1.094-.866 3.211-.82 4.141-1.247 1.106-.51 1.974-1.69 2.346-2.258a.306.306 0 0 1 .362-.124c.043.016.083.04.115.072l.508.474.565.494-1.926 1.474a1.6 1.6 0 0 0-.63 1.257c0 .352.118.694.336.972a1.618 1.618 0 0 0 2.256.289l2.41-1.85 1.924 1.696Z" fill="#2E3257"/><path d="m8.72 77.24 2.45 2.15-2.41 1.85a1.618 1.618 0 0 1-2.256-.288 1.57 1.57 0 0 1-.336-.98 1.587 1.587 0 0 1 .625-1.265l1.926-1.467Z" fill="#fff"/><path d="m54.302 51.694-.305 2.54-2.384.488a.636.636 0 0 1-.477-.1l-2.952-2.06.324-1.46a.624.624 0 0 1 .732-.473l5.062 1.065Z" fill="#E4AE95"/><path d="m53.997 54.235-.394 3.277v.028c-3.528.958-5.39-.54-5.986-1.166a.609.609 0 0 1-.15-.55l.727-3.262 2.951 2.06a.635.635 0 0 0 .477.1l2.375-.487ZM58.25 13.148c-.965-.56-3.478.353-3.621.303l3.18 1.368.191.082c.271-.116.526-.266.758-.447.575-.473.234-.873-.508-1.306Z" fill="#A76C50"/><path d="m58.01 14.906-.191-.083-3.18-1.367-2.54-.869s-.93-.097-1.23.431a3.73 3.73 0 0 1-.239.343 2.88 2.88 0 0 0-.365.575c-.202.473-.093 1.008 1.228 1.4.33.098.682.218 1.047.35l.086.032c.079.026.157.056.238.09.031 0 .062.023.093.035 1.743.667 3.648 1.569 4.459 1.827.112.043.23.067.35.068a.846.846 0 0 0 .444-.324c.386-.48.682-1.443-.2-2.508Z" fill="#DA9C80"/><path d="M63.183 46.457c.1 2.1-.4 4.97-3.996 6.5-2.33.998-3.9-.163-4.856-1.458l.355-2.936c2.998.376 6.03-.375 8.497-2.106Z" fill="#FF3D0A"/><path d="M63.06 45.263c.03.203.057.423.078.657a11.658 11.658 0 0 1-8.404 2.191l.178-1.493c1.488.237 2.98-.118 4.402-.624a19.655 19.655 0 0 0 3.612-1.633c.055.357.103.674.134.902Z" fill="#FF3D0A"/><path d="M62.664 42.641c.069.442.133.857.188 1.233a18.336 18.336 0 0 1-3.662 1.675c-1.364.487-2.792.842-4.22.613l.18-1.505a13.43 13.43 0 0 0 7.514-2.016Z" fill="#FF3D0A"/><path d="M62.14 39.255c.15.96.304 1.969.45 2.894a13.033 13.033 0 0 1-7.392 2.051l1.011-8.406s2.754 2.934 5.93 3.461Z" fill="#FF3D0A"/><path d="M61.717 17.89c.006.31-.017.62-.067.927-.436-1.266-1.702-2.366-3.1-2.212.028-.156.033-.316.015-.473 1.28-.11 2.473.681 3.152 1.758Z" fill="#fff"/><path d="M61.717 17.89c-.672-1.077-1.867-1.867-3.142-1.751a2.026 2.026 0 0 0-.16-.618c.446-.132.91-.193 1.376-.182.322-.016.644.022.953.111.533.469.873 1.116.954 1.817.018.207.024.415.02.623Z" fill="#DE370B"/><path d="M61.65 18.817a4.736 4.736 0 0 1-.85 2.028c-.366-.137-.685-.258-.954-.353.042-.08.08-.163.119-.236.238-.518.162-1.387-1.779-2.84.19-.233.314-.512.36-.809 1.402-.158 2.668.944 3.104 2.21Z" fill="#DE370B"/><path d="M55.206 44.2a13.033 13.033 0 0 0 7.39-2.051l.075.492a13.43 13.43 0 0 1-7.513 2.016l.048-.457Z" fill="#fff"/><path d="M58.2 17.414c1.941 1.443 2.013 2.312 1.779 2.84a1.998 1.998 0 0 1-.12.236 9.825 9.825 0 0 0-.662-.218 9.368 9.368 0 0 0-.427-.106c-.198-.04-.42-.08-.658-.116-1.223-.18-2.897-.237-4.354.191l-.314-.092c.372-1.259.906-2.475 1.907-3.312.87.374 1.621.695 2.055.835.112.044.23.067.35.069a.846.846 0 0 0 .444-.327Z" fill="#FF5713"/><path d="M59.51 14.906a4.514 4.514 0 0 0-1.336.225 3.056 3.056 0 0 0-.164-.218c.27-.116.526-.266.758-.447.394.091.774.234 1.13.424a1.655 1.655 0 0 0-.389.016Z" fill="#DE370B"/><path d="M58.176 15.121a4.51 4.51 0 0 1 1.336-.224c.13-.012.262-.017.39-.017.299.155.576.347.826.57a2.904 2.904 0 0 0-.954-.11c-.465-.012-.93.05-1.376.181a2.571 2.571 0 0 0-.222-.4ZM63.184 46.457a12.167 12.167 0 0 1-8.498 2.106l.052-.452a11.659 11.659 0 0 0 8.405-2.19c.014.17.026.352.04.536ZM62.926 44.361a19.657 19.657 0 0 1-3.612 1.633c-1.43.506-2.914.859-4.401.624l.057-.456c1.43.236 2.86-.126 4.22-.613a18.336 18.336 0 0 0 3.662-1.675c.026.17.053.333.074.487ZM54.881 16.633l.477.201c-1.001.843-1.535 2.059-1.907 3.313l-.444-.14c.372-1.263.916-2.484 1.874-3.374Z" fill="#fff"/><path d="m54.347 16.409.534.236c-.953.89-1.502 2.11-1.88 3.379a18.502 18.502 0 0 1-1.193-.421 6.518 6.518 0 0 1 2.54-3.194Z" fill="#FF5713"/><path d="m53.842 16.2.505.209a6.518 6.518 0 0 0-2.544 3.182c-.147-.057-.29-.114-.429-.173a6.972 6.972 0 0 1 2.468-3.218Z" fill="#fff"/><path d="M53.081 15.895c.253.097.506.201.76.305a6.972 6.972 0 0 0-2.467 3.218 13.13 13.13 0 0 1-1.276-.61 4.527 4.527 0 0 1 1.348-1.98 5.067 5.067 0 0 1 1.635-.933ZM52.454 15.659c-.398.179-.775.403-1.123.667a4.971 4.971 0 0 0-1.64 2.24c-1.369-.837-2.034-1.722-2.23-2.562a2.401 2.401 0 0 1 0-1.105c.39-1.677 3.157-1.543 3.157-1.543-.144.177-.266.37-.365.575 0 0-1.812.223-1.444.968.34.696 1.645.114 3.645.76Z" fill="#FF5713"/><path d="M52.855 15.808c.03 0 .062.023.093.035l.133.052c-.599.206-1.154.523-1.635.932a4.528 4.528 0 0 0-1.347 1.98 10.388 10.388 0 0 1-.408-.236 4.971 4.971 0 0 1 1.64-2.245 5.782 5.782 0 0 1 1.123-.668l.088.029.086.03.227.09Z" fill="#fff"/><path d="M51.484 15.337c.329.097.682.217 1.047.35-2.039-.693-3.377-.083-3.72-.783-.367-.746 1.445-.968 1.445-.968-.203.478-.093 1.008 1.228 1.4ZM61.462 34.928s.32 2.027.677 4.327c-3.176-.528-5.922-3.461-5.922-3.461l.345-2.868a30.458 30.458 0 0 0 4.893 2l.007.002Z" fill="#DE370B"/><path d="M53.51 47.025a.924.924 0 0 0-1.025.187.91.91 0 0 0 0 1.292.924.924 0 0 0 .651.267h.07a.924.924 0 0 0 .834-.754.907.907 0 0 0-.53-.99v-.002Z" fill="#A76C50"/><path d="M85.333 15.341a1.553 1.553 0 0 1 1.174.402 1.53 1.53 0 0 1 .495 1.13v2.529l-1.657.123a.464.464 0 0 1-.465-.268l-.65-1.42-.287 1.444a.456.456 0 0 1-.415.37c-1.619.139-8.376.709-8.378.709l-.436-2.501a1.525 1.525 0 0 1 .304-1.2 1.544 1.544 0 0 1 1.098-.589l9.217-.729Zm-2.877 2.497a.807.807 0 0 0-.505-.75.824.824 0 0 0-.892.176.81.81 0 0 0-.177.884.812.812 0 0 0 .756.501.823.823 0 0 0 .755-.5.806.806 0 0 0 .063-.311ZM83.426 30.676c.671 0 1.333.158 1.931.461-1.311 2.759-3.338 4.432-5.886 5.31a4.19 4.19 0 0 1 .436-3.923 4.24 4.24 0 0 1 1.526-1.357 4.278 4.278 0 0 1 1.988-.491h.005Z" fill="#DA9C80"/><path d="M81.638 17.036a.825.825 0 0 1 .765.498.807.807 0 0 1-.177.892.822.822 0 0 1-1.399-.588.809.809 0 0 1 .24-.566.82.82 0 0 1 .57-.236Z" fill="#A76C50"/><path d="M86.993 21.56v-2.158l-1.657.123a.462.462 0 0 1-.456-.268l-.65-1.42-.287 1.444a.456.456 0 0 1-.414.369c-1.62.14-8.376.71-8.379.71l1.18 6.8s-11.082-4.628-15.53-6.315c-.366-.137-.685-.258-.954-.353-.27-.094-.515-.177-.663-.217a9.435 9.435 0 0 0-.427-.107c-.198-.04-.42-.08-.658-.116-1.223-.18-2.897-.236-4.354.192-1.385.4-2.575 1.218-2.992 2.752a8.077 8.077 0 0 0-.274 1.694s1.26 2.785 6.36 5.82c4.054 2.409 10.513 4.969 20.687 6.44a13.087 13.087 0 0 0 1.936-.503 4.188 4.188 0 0 1-.191-2.512 4.213 4.213 0 0 1 1.285-2.171 4.28 4.28 0 0 1 4.803-.627c1.12-2.35 1.711-5.48 1.635-9.578Z" fill="#E4AE95"/><path d="M80.913 29.048a18.233 18.233 0 0 0-4.67-2.423l.09.523a17.882 17.882 0 0 1 4.346 2.297c.243.173.475-.224.234-.397ZM56.853 30.522c-5.1-3.036-6.361-5.82-6.361-5.82-.117 2.491 1.049 5.42 5.546 7.95l.532.236v.062a30.449 30.449 0 0 0 4.892 1.999c.658.21 1.354.414 2.089.613 5.135 1.382 10.014 2.13 13.988 1.42-10.174-1.491-16.64-4.063-20.686-6.46Z" fill="#DA9C80"/><path d="M56.57 32.864v.062c-.18-.095-.356-.19-.525-.286l.524.224Z" fill="#DA9C80"/><path d="M56.03 32.651c-4.496-2.529-5.662-5.458-5.545-7.95 0-.208.028-.413.057-.615 0 0-1.881 4.458 5.033 11.12.205.2.417.398.637.6l.345-2.868a6.08 6.08 0 0 0-.526-.287Z" fill="#B57A60"/><path d="M54.185 36.075a.925.925 0 0 1 .85.563.907.907 0 0 1-.198.995.922.922 0 0 1-1.572-.642.908.908 0 0 1 .568-.846.927.927 0 0 1 .352-.07ZM54.467 41.57a.932.932 0 0 0-1.611.153.912.912 0 0 0 .355 1.143.931.931 0 0 0 1.193-.178.914.914 0 0 0 .063-1.119Z" fill="#A76C50"/><path d="M55.58 35.195c-6.914-6.663-5.033-11.12-5.033-11.12.047-.365.12-.725.217-1.08.417-1.533 1.607-2.351 2.992-2.751-4.258-1.226-5.96-2.802-6.297-4.235-.21.073-5.658 1.973-8.681 7.545-.77 1.42-1.767 3.653-2.847 6.272-3.05 7.39-6.778 17.855-8.04 21.81a.909.909 0 0 0 .389 1.056l2.623 1.635a.933.933 0 0 0 1.309-.34l4.11-7.527-1.426 9.142a.912.912 0 0 0 .384.892c1.703 1.183 7.964 5.054 17.043 4.931a.934.934 0 0 0 .607-.238.92.92 0 0 0 .299-.576l.372-3.076c-3.529.959-5.39-.54-5.987-1.166a.61.61 0 0 1-.15-.55l.727-3.262.324-1.46a.624.624 0 0 1 .732-.473l5.055 1.06.024-.194 1.89-15.706c-.219-.191-.424-.39-.636-.589Zm-2.384 13.574h-.07a.924.924 0 0 1-.65-.267.91.91 0 0 1 0-1.292.924.924 0 0 1 1.46.218.907.907 0 0 1-.193 1.104.924.924 0 0 1-.547.235v.002Zm1.049-5.944a.925.925 0 0 1-1.376-.372.908.908 0 0 1 .176-1.002.923.923 0 0 1 1.422.111.913.913 0 0 1-.222 1.264Zm-.06-4.93a.926.926 0 0 1-.85-.565.907.907 0 0 1 .2-.995.923.923 0 0 1 1.57.649.905.905 0 0 1-.566.848.922.922 0 0 1-.354.07v-.007Z" fill="#DA9C80"/><path d="M37.629 25.892a13.263 13.263 0 0 0 3.404 1.748.24.24 0 0 0 .239-.059 180.88 180.88 0 0 1 2.563-3.156 31.057 31.057 0 0 0-1.445 3.878.234.234 0 0 0 .105.26 20.83 20.83 0 0 0 5.272 2.245c.953.277 1.893.523 2.842.772.477.123.953.249 1.43.378.131.036.52.102.856.194-.14-.189-.274-.376-.398-.56-.124-.026-.238-.05-.336-.076-1.075-.298-2.158-.566-3.236-.86-2.1-.572-4.167-1.258-6.032-2.396a30.98 30.98 0 0 1 2.163-5.286c.114-.217-.186-.487-.365-.276a179.66 179.66 0 0 0-3.28 3.98c-.299.373-.397.472-.854.293-.432-.17-.854-.365-1.264-.582-.506-.271-.99-.578-1.452-.918a3.673 3.673 0 0 0-.212.42Z" fill="#B57A60"/><path d="M47.447 16.009c-.21.073-5.658 1.973-8.68 7.545-.771 1.42-1.768 3.653-2.848 6.272-1.43.959-2.844 2.444-4.113 3.736-.403.41-1.335 1.548-2.513 3.034.239-2.603 4.306-8.814 5.131-9.976.825-1.161 7.745-9.348 7.745-9.348a33.571 33.571 0 0 1 5.278-1.263Z" fill="#A76C50"/><path d="M42.168 17.272s-6.914 8.191-7.734 9.353c-.82 1.162-4.89 7.375-5.131 9.975a807.263 807.263 0 0 0-6.948 8.972l-3.371-4.521a.618.618 0 0 0-.787-.178l-.987.516.56-1.266a.609.609 0 0 0-.079-.624l-1.397-1.784c1.98-2.712 5.27-6.895 9.182-10.598a4.27 4.27 0 0 0 6.011-1.332 4.214 4.214 0 0 0 .324-3.686 43.44 43.44 0 0 1 10.357-4.827Z" fill="#B57A60"/><path d="M31.811 22.099a4.195 4.195 0 0 1-.466 3.9 4.246 4.246 0 0 1-1.523 1.345 4.282 4.282 0 0 1-4.346-.222 44.578 44.578 0 0 1 4.58-3.826 34.57 34.57 0 0 1 1.755-1.197ZM18.984 41.051l3.371 4.517-1.76 2.311a1.233 1.233 0 0 1-1.056.486 1.24 1.24 0 0 1-.994-.602l-3.867-6.501a1.222 1.222 0 0 1 .038-1.306c.34-.505.877-1.28 1.578-2.241l1.398 1.784a.61.61 0 0 1 .078.624l-.56 1.266.987-.516a.622.622 0 0 1 .787.178Zm1.008 4.063a.81.81 0 0 0-.506-.752.826.826 0 0 0-.894.176.811.811 0 0 0 .58 1.39.823.823 0 0 0 .58-.239.81.81 0 0 0 .24-.575Z" fill="#A76C50"/><path d="M19.172 44.302a.825.825 0 0 1 .763.498.807.807 0 0 1-.174.89.822.822 0 0 1-1.402-.576.81.81 0 0 1 .238-.572.824.824 0 0 1 .575-.24Z" fill="#E4AE95"/><path d="M13.662 57.087 8.3 46.499 5.23 48.03l5.362 10.588 3.07-1.531Z" fill="#211E21"/><path d="m11.583 56.303-.776-1.532-.828.413.776 1.533.828-.414Z" fill="#FFF1ED"/><path d="m11.034 61.905-.476-3.378 3.07-1.534 2.463 2.395a.516.516 0 0 1 .057.673.52.52 0 0 1-.188.157L11.785 62.3a.525.525 0 0 1-.75-.395Z" fill="#211E21"/><path d="m14.942 59.679-2.951 1.472" stroke="#FFF1ED" stroke-width="4" stroke-miterlimit="10" stroke-linecap="round"/><path d="m5.722 51.694 2.792 3.397c-1.27.847-2.622-.882-3.116-1.673-.265-.407-.01-1.112.324-1.724Z" fill="#FF9C90"/><path d="m6.483 50.508 2.239 4.417c-.067.06-.138.116-.212.166l-2.788-3.398c.223-.413.478-.81.76-1.185ZM10.784 47.614s.017 1.503-.794 2.603a4.211 4.211 0 0 0-.856-1.703c.522-.35 1.074-.65 1.65-.9Z" fill="#F7887B"/><path d="M11.509 50.87c.582-.81 2.406-.544 2.406-.544-.293.34-.595.71-.906 1.107-2.244 2.882-3.043 3.724-3.577 3.642-.002.009 1.493-3.389 2.077-4.205ZM14.909 41.642l3.009 5.061c-.247.15-.486.313-.715.488l-3.486-3.715 1.192-1.834ZM79.089 3.601c1.259-.38 0 2.343 0 2.343-.62.473-1.192.98-1.731 1.457-.582.528-.89 1.403-1.028 2.402-.012-.133-.336-4.077 2.759-6.202ZM83.023 15.521l-6.23.488s-.06-.254-.138-.672l3.474-1.401c-.127-1.47 1.769-3.786 1.826-3.859-.303.591-.446 1.183-.317 1.697.598 2.434 1.385 3.747 1.385 3.747Z" fill="#FF9C90"/><path d="M17.21 47.193a20.81 20.81 0 0 0-3.295 3.14s-1.824-.265-2.406.544c-.582.81-2.08 4.205-2.08 4.205a.564.564 0 0 1-.295-.147c-.574-.473 0-2.096.704-3.452.196-.392.25-.84.152-1.266.81-1.1.794-2.603.794-2.603l.332-.151 2.6-3.987 3.494 3.717ZM86.154 5.099a.612.612 0 0 1-.182.747c-.9.689-3.132 2.506-4.015 4.229-.057.068-1.952 2.39-1.826 3.859l-3.476 1.403c-.222-1.152-.596-3.575-.325-5.532.139-.999.446-1.874 1.028-2.402.53-.473 1.111-.98 1.731-1.457 1.884-1.458 4.068-2.683 5.822-2.26 0-.002.525-.08 1.243 1.413Z" fill="#FFB6AD"/></svg>