<svg fill="none" xmlns="http://www.w3.org/2000/svg" viewBox="0 0 112 147"><path d="M48.785 48.349c-4.606 2.666-9.775 4.586-14.339 6.866-7.802 3.902-15.141 9.188-21.924 14.71-6.325 5.176-17.345 17.211-8.155 25.057 6.613 5.645 15.644.556 21.801-3.237 7.583-4.666 15.232-11.451 24.77-10.418 8.948.97 15.688 7.999 24.725 8.865 13.28 1.273 28.199-11.531 21.672-25.456-1.581-3.37-4.287-6.235-5.16-9.855-1.031-4.286.703-8.698 2.404-12.764l5.185-12.382c1.495-3.572 3.019-7.312 2.733-11.175-.536-7.275-7.569-12.538-14.712-11.141-6.916 1.353-12.315 8.355-16.712 13.404a99.5 99.5 0 0 0-10.651 14.778c-3.245 5.506-5.932 9.459-11.637 12.748Z" fill="#FF3D0A"/><path d="m45.457 3.613.063.073a.332.332 0 0 0-.063-.073ZM45.457 3.613a.087.087 0 0 0-.043-.02l.043.02ZM40.98 2.606l.76.727s.908-1.103 3.364-.034c1.611-1.69.76-2.666-.04-3.212-.702-.487-3.122 1.646-4.084 2.536v-.017Z" fill="#FFB6AD"/><path d="M44.522 2.273a7.115 7.115 0 0 1-.623-.753 2.331 2.331 0 0 0-.483-.637c-.23-.16-.445.214-.22.373.105.108.19.232.254.367.076.117.16.23.246.333.162.214.336.419.52.614.19.213.495-.094.306-.297ZM45.52 3.686l-.063-.073-.043-.02c-.296.03-.586.101-.863.21.21-.18.393-.354.553-.52-2.456-1.07-3.365.033-3.365.033l-.759-.71-.396.373 2.104 3.667c2.65-2.487 2.929-2.773 2.832-2.96Z" fill="#FF9C90"/><path d="m40.534 2.89.05.09 1.85 3.216.254.436c-.643.62-1.402 1.467-2.23 2.45l-3.791-3.803c2.276-1.543 3.867-2.39 3.867-2.39Z" fill="#FFE7E0"/><path d="M21.183 22.853a9.437 9.437 0 0 0-.23.657c-.12.377-.213.762-.28 1.153l-.03.213c-.03.261-.043.524-.036.787a2.247 2.247 0 0 0 .027.447c.006.065.016.13.03.196 0 .07.03.143.046.216.017.074.026.114.043.167l.02.057c.02.066.04.13.063.193.02.057.047.117.07.173a1.745 1.745 0 0 0 .097.203v.024c.033.067.07.13.106.197l.113.186.074.107.076.11.027.033c.036.053.076.104.116.157l.047.053c.033.04.066.084.103.12a3.095 3.095 0 0 0 .21.23c.05.05.133.137.206.203.073.067.137.13.21.194.363.315.745.607 1.145.873l.183.123c.12.077.25.16.383.24.07.047.146.09.223.137l.572.333a5.943 5.943 0 0 0-1.561-6.58 5.927 5.927 0 0 0-2.053-1.202Z" fill="#A76C50"/><path d="M20.97 23.51c.023-.077.05-.157.076-.234a.507.507 0 0 0-.077.234ZM20.637 24.873l.03-.214-.03.214Z" fill="#00727F"/><path d="M30.569 22.346s5.751-8.332 9.889-13.264l-3.791-3.803c-3.788 2.566-9.493 7.07-13.015 12.831a30.168 30.168 0 0 0-2.47 4.743 5.925 5.925 0 0 1 3.477 3.108 5.943 5.943 0 0 1 .158 4.664c.772.44 1.664.893 2.64 1.377.748.37 1.56.76 2.436 1.176 2.466 1.207 5.745 1.863 6.377 2.043l6.5-8.968 2.294-2.707c-3.435-.666-8.118-1.17-14.495-1.2Z" fill="#B57A60"/><path d="m42.771 26.253 2.293-2.707c-.516-.1-1.065-.196-1.637-.29l-.087.02-12.172 10.455a42.182 42.182 0 0 0 5.113 1.49l6.49-8.968ZM26.628 22.64c-.413.04-.406-.61 0-.647a78.776 78.776 0 0 1 4.4-.296l-.453.666-3.947.277Z" fill="#A76C50"/><path d="M40.717 7.195a.506.506 0 1 0 0-1.012.506.506 0 0 0 0 1.012Z" fill="#2E3257"/><path d="M54.197 54.765c-8.061 6.719-18.752 10.871-18.752 10.871l-5.512-6.055c14.792 2.05 23.788-4.463 24.264-4.816ZM62.908 41.517a14.675 14.675 0 0 1-1.89 5.505l-.05-.026-35.971 7.135c.083-.58 2.283-14.724 19.681-30.685 0 0 19.895 3.983 18.23 18.07ZM24.993 54.151l.303.334c-.333-.07-.625-.144-.922-.23l.623-.124a.09.09 0 0 0-.004.02Z" fill="#DA9C80"/><path d="M60.974 46.992s-24.114 9.942-35.678 7.493l-.302-.334v-.02l35.98-7.139Z" fill="#DA9C80"/><path d="m60.974 46.992.05.027c-1.604 2.833-4.054 5.43-6.806 7.726h-.02c-.476.353-9.473 6.865-24.265 4.816l-4.637-5.076c11.563 2.45 35.678-7.492 35.678-7.492Z" fill="#B57A60"/><path d="M30.778 40.097a23.955 23.955 0 0 0 11.294 6.116c.542.126.772-.707.23-.83a23.154 23.154 0 0 1-11.061-6.056c-.157.267-.313.52-.463.77ZM30.01 43.453c.96.73 1.987 1.366 3.068 1.9 2.18 1.096 4.51 1.863 6.827 2.613.53.173.756-.667.23-.834a51.435 51.435 0 0 1-5.992-2.212 21.36 21.36 0 0 1-2.503-1.364 11.551 11.551 0 0 1-2.03-1.456c-.14.25-.273.496-.403.74.276.223.556.423.802.613ZM46.815 44.136c.553.054.55-.813 0-.863a21.136 21.136 0 0 1-13.647-6.866l-.502.727a22.034 22.034 0 0 0 14.15 7.002Z" fill="#FF3D0A"/><path d="M4.72 136.685c-6.53 7.089 7.852 10.705 12.565 10.292 5.309-.48 10.318-2.603 15.347-4.333 8.215-2.826 15.644-1.966 24.125-1.833 7.776.12 16.47-.793 22.065-6.816 1.527-1.646 2.816-3.829 2.363-6.029-.496-2.406-2.926-3.956-5.326-4.492-6.657-1.49-14.176 1.963-20.43 3.952a132.944 132.944 0 0 1-30.1 5.846c-4.24.333-8.22-1.63-12.475-.88-2.536.45-6.117 2.1-8.134 4.293Z" fill="#F6D3C8"/><path d="M104.731 40.487c-1.239 2.81-1.665 4.13-3.632 3.883h-.033v-.047c.998-.473 1.514-1.82 2.476-4 1.332-2.999 2.304-2.216 5.226-4.789 2.307-2.03 2.793-3 2.503-3.666.092.118.192.23.3.334.742.603.742 1.426-1.997 3.826-2.74 2.4-3.609 1.65-4.843 4.459ZM32.44 138.748c-.746 1.44-3.715 2.949-7.956 3.076-7.246.217-8.321-2.183-9.652-4.476-1.332-2.293-3.705-1.963-5.722-4.966-1.208-1.796-1.162-2.999-.463-3.999.175.751.499 1.459.952 2.083 2.12 3.156 4.66 2.813 6.021 5.222 1.362 2.41 2.523 4.94 10.149 4.71 2.856-.087 5.186-.774 6.67-1.65Z" fill="#211E21"/><path d="m18.703 120.528 4.596 6.142a9.338 9.338 0 0 0-2.346 3.666l-3.329-8.895c.656-.6 1.079-.913 1.079-.913Z" fill="#320D18"/><path d="M30.32 136.312c2.056.43 2.662 1.413 2.123 2.436-1.488.876-3.818 1.563-6.66 1.643-7.626.23-8.774-2.296-10.15-4.709-1.374-2.413-3.9-2.067-6.02-5.223a5.76 5.76 0 0 1-.959-2.083 7.98 7.98 0 0 1 2.097-1.829c2.18-1.474 4.25-2.563 5.612-3.926.466-.467.885-.86 1.235-1.17l3.328 8.895a6.465 6.465 0 0 0-.333 2.203c.137 3.379 4.767 2.726 9.726 3.763ZM111.278 31.865c.289.643-.197 1.623-2.503 3.666-2.923 2.573-3.898 1.773-5.226 4.79-.962 2.189-1.461 3.535-2.476 3.999v.046c-1.98-.233-5.156.69-6.6 2.863L88.9 43.286s3.462-3.706 13.441-7.998c7.892-3.403 8.614-3.73 8.937-3.423Z" fill="#6A3445"/><path d="M95.933 43.576a1.815 1.815 0 0 0 1.814-1.816 1.815 1.815 0 1 0-1.814 1.816ZM16.46 129.06a1.816 1.816 0 0 0 0-3.633 1.816 1.816 0 0 0 0 3.633ZM21.498 132.352c-1.141-.756-2.44-.263-3.398.544-.333.266.14.723.456.456.746-.623 1.728-1.03 2.616-.44.346.23.673-.33.326-.56ZM21.608 133.709a3.04 3.04 0 0 0-2.103.956c-.286.304.17.76.456.457a2.364 2.364 0 0 1 1.664-.767c.396-.02.4-.666-.017-.646ZM22.86 134.409a3.93 3.93 0 0 0-1.461 1.589c-.187.37.373.7.559.334.273-.559.7-1.028 1.228-1.353.353-.23.03-.79-.326-.57ZM101.336 34.591a2.92 2.92 0 0 0-.333 3.183c.183.373.742.043.556-.333a2.248 2.248 0 0 1 .249-2.4c.243-.316-.209-.776-.472-.45ZM103.306 33.755c-.449.133-.582.93-.649 1.333-.077.466-.12 1.166.21 1.553a.333.333 0 0 0 .316.083h.033a.309.309 0 0 0 .21-.432.307.307 0 0 0-.12-.134c-.126-.21-.043-.777 0-.967a2.87 2.87 0 0 1 .117-.447c.02-.075.046-.148.076-.22.038-.056.071-.116.097-.18a.331.331 0 0 0 .104-.417.333.333 0 0 0-.394-.172ZM105.529 33.428c.293-.3-.166-.757-.456-.46-.712.73-.742 1.963-.536 2.9a.337.337 0 0 0 .312.215.335.335 0 0 0 .311-.215c0-.047.023-.097.033-.147a.307.307 0 0 0-.003-.16.309.309 0 0 0-.08-.137c-.097-.67-.05-1.513.419-1.996Z" fill="#fff"/><path d="m19.488 114.418 8.438 11.229c-2.293 1.369-3.778 2.166-3.778 2.166l-6.138-8.209a10.585 10.585 0 0 1 1.478-5.186ZM60.149 89.466a5.885 5.885 0 0 1 2.063.37c-.17 4.379-1.774 7.998-4.117 11.145a5.937 5.937 0 0 1-3.09-2.622 5.944 5.944 0 0 1 1.338-7.505 5.93 5.93 0 0 1 3.806-1.388ZM57.306 74.591c-.136-.02-5.122-.666-13.81 8.936a36.635 36.635 0 0 0-4.78-4.143c.194-.087.387-.18.577-.28.083-.04.163-.083.243-.13.08-.047.213-.113.332-.173 2.038-1.16 3.485-2.063 4.717-2.8l.27-.163c.532-.313 1.028-.6 1.52-.863.204-.11.407-.217.613-.317.648-.325 1.315-.61 1.997-.853l.206-.077c.45-.156.93-.31 1.458-.463l.313-.087c.29-.08.596-.16.922-.243l.263-.063.976-.227.449-.096a71.45 71.45 0 0 1 1.597-.334c.789.72 1.504 1.516 2.137 2.376Z" fill="#349D7B"/><path d="M62.06 86.346a21.25 21.25 0 0 1 .153 3.49 5.928 5.928 0 0 0-4.54.175 5.95 5.95 0 0 0-2.911 7.883 5.94 5.94 0 0 0 3.333 3.09c-3.814 5.152-9.589 9.118-14.312 13.331-5.326 4.746-11.836 8.925-15.867 11.332l-8.428-11.229c3.216-5.769 11.154-10.998 18.394-13.927 9.37-3.78 8.101-9.609 7.988-12.848-.04-1.24-1.092-2.737-2.383-4.116 8.687-9.599 13.673-8.956 13.81-8.936a24.2 24.2 0 0 1 4.763 11.755Z" fill="#48B290"/><path d="M46.818 77.691c-.19-.373-.749-.047-.559.333 3.502 6.823 5.27 16.021-.932 21.937-2.45 2.333-5.605 3.733-8.63 5.156-3.026 1.423-5.992 3.036-8.655 5.185a33.898 33.898 0 0 0-7.505 8.632.333.333 0 0 0 .559.334 33.31 33.31 0 0 1 7.409-8.506c2.866-2.333 6.104-3.946 9.426-5.512 3.016-1.42 6.111-2.936 8.421-5.406 2.397-2.563 3.602-5.979 3.768-9.452.217-4.469-1.295-8.788-3.302-12.701Z" fill="#349D7B"/><path d="m35.445 63.477-2.863.976c-2.662-.773-10.784-8.065-10.784-8.065a7.59 7.59 0 0 1 3.195-2.237l10.452 9.326ZM21.798 59.614l-2.922 9.125-1.694.693c-.443-3.332.479-6.665 2.28-9.772.22-.38.466-.78.732-1.186l1.604 1.14ZM90.764 44.436c2.746 1.977 4.72 2.493 3.948 5.156-.12.413-.3 1.097-.593 1.976l-9.652-6.788c.576-.401 1.131-.83 1.664-1.287.859-.86 1.89-1.03 4.633.943ZM63.4 55.461v.077a5.943 5.943 0 0 1-1.517 3.963 5.929 5.929 0 0 1-10.205-2.687c1.548-.64 4.523-1.42 9.563-1.21.723.026 1.447-.022 2.16-.143Z" fill="#48B290"/><path d="M21.798 56.388s8.108 7.292 10.784 8.065l2.863-.977s10.737-3.639 14.855-5.915a5.597 5.597 0 0 1 1.391-.747 5.94 5.94 0 0 0 2.333 3.544 5.925 5.925 0 0 0 7.872-.857 5.943 5.943 0 0 0 1.518-3.963v-.077c6.953-1.076 17.092-7.782 21.073-10.665l9.652 6.79c-1.624 4.795-6.82 15.33-25.746 18.38-6.038.976-10.188 1.666-13.224 2.263-.572.113-1.101.223-1.597.333l-.45.096-.975.227-.263.063c-.333.084-.632.164-.922.244l-.313.086c-.529.154-.998.307-1.458.464l-.206.076c-.682.244-1.35.529-1.997.853-.206.1-.41.207-.612.317-.493.263-1 .55-1.522.863l-.27.163c-1.23.737-2.679 1.64-4.716 2.8-.106.06-.213.12-.333.173-.12.054-.163.09-.242.13-.19.097-.383.19-.576.28-6.93 3.216-16.36 1.59-20.124-5.589a12.953 12.953 0 0 1-1.412-4.376l1.695-.693 2.922-9.125-1.604-1.14a16.349 16.349 0 0 1 1.604-2.086Z" fill="#7AC7AE"/><path d="M33.391 63.573a35.71 35.71 0 0 0-6.098 2.463c-.369.194-.03.743.333.553a34.524 34.524 0 0 1 5.932-2.396.333.333 0 0 0-.167-.62Z" fill="#48B290"/><path d="M91.892 49.385A26.751 26.751 0 0 1 80.55 61.324c-5.782 3.13-12.259 3.276-18.64 4.022-3.118.364-6.2.937-9.14 2.077a55.426 55.426 0 0 0-7.721 3.899c-2.703 1.573-5.366 3.23-8.189 4.583-2.969 1.42-6.364 2.406-9.476.836a9.69 9.69 0 0 1-5.122-7.552c-.38-3.536 1.015-7.039 3.242-9.735.266-.333-.19-.78-.456-.457-3.595 4.333-4.97 10.829-1.272 15.561 1.535 1.97 3.791 3.393 6.304 3.626 3.299.303 6.46-1.313 9.277-2.833 6.19-3.332 11.902-7.485 18.952-8.822 6.737-1.283 13.8-.82 20.227-3.526a27.285 27.285 0 0 0 13.913-13.28c.18-.398-.376-.714-.555-.338Z" fill="#48B290"/><path d="m9.186 42.03-2.662 5.196a64.718 64.718 0 0 0-1.821-.853 39.396 39.396 0 0 1-.769-.357l4.274-4.443c.316.16.646.307.978.457Z" fill="#FF9C90"/><path d="M8.195 41.573 3.92 46.016C-2.167 43.06.426 41.58 1.298 39.94c.872-1.64 3.485-.44 3.485-.44s1.268-2.84 2.077-2.443c.809.397 0 3.85 0 3.85.44.233.885.456 1.335.666Z" fill="#FFB6AD"/><path d="M2.52 40.66c-.419.97-.753 1.973-.999 3a.217.217 0 0 0 .278.264.216.216 0 0 0 .118-.098L2 43.69a.2.2 0 0 0 0-.194 17.91 17.91 0 0 1 .876-2.63c.12-.26-.247-.48-.356-.206Z" fill="#FF9C90"/><path d="M11.903 43.113 9.596 48.76c-1.025-.52-2.05-1.037-3.085-1.533l2.662-5.196c.902.39 1.811.746 2.73 1.083Z" fill="#FFE7E0"/><path d="m38.587 56.434-.333.024-.569.04h-.043c-1.74.107-3.485.116-5.226.026a53.326 53.326 0 0 1-1.777-.13l-.603-.07-.542-.066-.167-.02a4.969 4.969 0 0 1 4.693-3.09 4.96 4.96 0 0 1 4.567 3.273v.013Z" fill="#DA9C80"/><path d="M62.083 38.727c1.398 2.59.998 5.71-.49 8.166-1.93 3.179-5.282 5.119-8.697 6.358a55.135 55.135 0 0 1-14.312 3.183 4.969 4.969 0 0 0-4.568-3.273 4.958 4.958 0 0 0-4.692 3.09 38.946 38.946 0 0 1-9.303-2.543c-2.38-.95-4.733-2.05-7.04-3.226a603.583 603.583 0 0 1-3.388-1.723l2.306-5.646c3.698 1.333 7.592 2.287 11.317 3.27 2.014.538 4.064.93 6.134 1.173a23.703 23.703 0 0 0 14.07-2.896 29.83 29.83 0 0 0 5.958-4.333c1.844-1.72 2.886-4.223 5.435-5.106 2.9-1.003 5.908.993 7.27 3.506Z" fill="#E4AE95"/><path d="M9.596 44.626a.506.506 0 1 0 0-1.012.506.506 0 0 0 0 1.012Z" fill="#2E3257"/><path d="M50.593 25.926a19.41 19.41 0 0 0-1.957.88.52.52 0 0 0-.247.2.557.557 0 0 0-.04.256c.018 1.041.143 2.078.373 3.093a.467.467 0 0 0 .1.227c.13.126.333.06.506 0l2.217-1 .143 1.92a.38.38 0 0 0 .066.226.395.395 0 0 0 .333.09 10.06 10.06 0 0 0 4.114-1.166 12.386 12.386 0 0 0-.39-2 .966.966 0 0 0-.222-.42.915.915 0 0 0-.31-.173c-1.564-.653-3.328-1.143-4.686-2.133Z" fill="#FFE7E0"/><path d="M54.92 29.045c.301-.367.58-.752.835-1.153l1.162-1.73-5.196-2.71c-.273-.142-1.255 2.58-1.331 2.844a3.699 3.699 0 0 0 .48 2.84 2.354 2.354 0 0 0 1.643 1.09 2.61 2.61 0 0 0 1.928-.694c.17-.15.33-.313.479-.487Z" fill="#FFB6AD"/><path d="M50.396 26.296a3.978 3.978 0 0 0-.086.63 19.37 19.37 0 0 1 5.748.523l.859-1.287-5.196-2.71c-.28-.142-1.261 2.58-1.325 2.844Z" fill="#FF9C90"/><path d="M63.085 15.937c.226.227 1.774 1.667 2.173 3 .263.877-2.163 1.29-2.163 1.29l-.01-4.29Z" fill="#FF8178"/><path d="M63.083 22.828c1.842-3.434.756-7.606-2.427-9.317-3.182-1.712-7.255-.315-9.097 3.12-1.843 3.434-.756 7.606 2.426 9.317 3.182 1.712 7.255.315 9.098-3.12Z" fill="#FFB6AD"/><path d="M59.254 25.17a2.804 2.804 0 0 0 2.802-2.807 2.804 2.804 0 0 0-2.802-2.806 2.804 2.804 0 0 0-2.803 2.806 2.804 2.804 0 0 0 2.803 2.806Z" fill="#FF8178"/><path d="M60.145 19.587a.756.756 0 1 0 0-1.512.756.756 0 0 0 0 1.512Z" fill="#211E21"/><path d="M63.011 13.425a8.847 8.847 0 0 0-4.426-1.667 10.821 10.821 0 0 0-4.7.783 8.247 8.247 0 0 0-3.505 2.427c-1.022 1.296-1.438 2.933-1.611 4.549-.163 1.553-.333 3.09.745 4.373.118.097.241.187.37.27.859.446 1.281 0 1.574-.84.197-.554.333-1.117.556-1.667v-.086a.954.954 0 0 0 0-.424c-.09-.263-.38-.393-.562-.603a1.127 1.127 0 0 1-.147-1.076c.148-.35.358-.671.62-.947.216-.263.525-.553.851-.447.06.02.26.16.27.22.005.281-.05.56-.163.817-.07.223-.16.437-.22.666a1.235 1.235 0 0 0-.096.46.667.667 0 0 0 .522.667.645.645 0 0 0 .576-.333c.316-.497.49-1.2.732-1.743.167-.364.3-1.027.62-1.263a.97.97 0 0 1 .432-.147 32.42 32.42 0 0 0 4.13-.87 11.478 11.478 0 0 0 1.908-.757c.46-.233 1.438-.666 1.694-1.133a.762.762 0 0 0-.17-1.23Z" fill="#6A3445"/><path d="M9.09 30.042H5.282a.433.433 0 0 1 0-.863H9.09a.433.433 0 0 1 0 .863Z" fill="#FF3D0A"/><path d="M7.186 31.945a.433.433 0 0 1-.433-.43v-3.81a.434.434 0 1 1 .866 0v3.81a.434.434 0 0 1-.433.43ZM3.462 34.581H.929a.433.433 0 1 1 0-.863h2.533a.432.432 0 0 1 0 .863Z" fill="#FF3D0A"/><path d="M2.194 35.851a.432.432 0 0 1-.43-.433V32.88a.434.434 0 0 1 .862 0v2.537a.434.434 0 0 1-.432.433ZM14.905 33.481h-2.197a.432.432 0 0 1-.434-.606.433.433 0 0 1 .434-.257h2.197a.432.432 0 0 1 .281.724.432.432 0 0 1-.281.14Z" fill="#FF3D0A"/><path d="M13.806 34.581a.433.433 0 0 1-.432-.43v-2.2a.434.434 0 0 1 .605-.434.434.434 0 0 1 .257.435v2.2a.43.43 0 0 1-.43.43Z" fill="#FF3D0A"/></svg>