<svg fill="none" xmlns="http://www.w3.org/2000/svg" viewBox="0 0 138 133"><path d="M65.225 97.371s-9.943 3.67-28.222 2.439c-18.279-1.232-29.609-9.118-23.818-26.605.873-2.641 1.78-5.276 2.797-7.869 1.18-3.007 2.56-8.276 6.58-8.462.467-.05.936.073 1.318.345.604.49.635 1.38.573 2.162-.173 2.12-3.99 13.245-.387 13.824 3.894.628 9.926-29.563 23.963-30.042 14.037-.48 6.553 18.78 12.578 18.849 6.025.069 13.406-31.187 28.181-30.122 10.805.783 7.05 19.032 6.256 25.69-.362 3.028-.983 6.318-.5 9.363a2.009 2.009 0 0 0 .828 1.438c.717.431 1.645.093 2.373-.32 8.187-4.673 14.375-18.177 25.663-15.377 12.292 3.052 8.229 39.863-16.027 43.794-24.256 3.931-27.05-4.51-42.156.894ZM131.23 48.463a4.694 4.694 0 1 0 0-9.387 4.694 4.694 0 0 0 0 9.387ZM95.696 25.894a2.683 2.683 0 1 0 0-5.366 2.683 2.683 0 0 0 0 5.366ZM35.868 40.442c-1.152.897-2.717 1.238-3.607 2.466-.604.834-.635 1.883-1.21 2.728a3.752 3.752 0 0 1-2.688 1.634 1.901 1.901 0 0 1-.962-.11c-1.503-.659-.393-3.359 0-4.4.787-2.07 1.618-4.183 3.104-5.828 1.135-1.259 4.394-3.404 6.18-2.214 1.573 1.035.835 3.573 0 4.852-.221.334-.498.63-.817.872Z" fill="#FFAF03"/><path d="M98.331 120.231c-30.988.658-62.194-3.914-93.103-.504-2.086.231-4.638.966-5.145 3.38-.618 2.938 2.352 5.027 4.828 5.814 6.422 2.044 13.106 2.644 19.724 3.238 9.333.831 18.814 1.655 27.967-.649 4.94-1.241 9.723-3.383 14.74-4.031 5.943-.769 11.91.586 17.832 1.559a141.096 141.096 0 0 0 28.429 1.769c1.41-.055 2.883-.152 4.114-.979 1.231-.828 2.125-2.618 1.652-4.201-.472-1.582-1.98-2.279-3.335-2.72a41.697 41.697 0 0 0-12.733-2.069l-4.97-.607Z" fill="#F6D3C8"/><path d="m22.418 115.1-1.542 6.972s-14.61.914-17.168.9c-2.456 0-1.38-1.655-1.28-1.786 3.187-2.352 11.847-2.473 11.847-2.473 1.445-4.669 8.143-3.613 8.143-3.613ZM117.717 125.152c.131 2.493-7.222 1.379-16.672 1.703-9.45.324-8.336-1.034-8.729-2.197a2.392 2.392 0 0 1 0-1.034s1.776 1.724 13.064 1.99c11.289.265 11.854-1.556 11.854-1.556.293.291.465.681.483 1.094Z" fill="#320D18"/><path d="m20.876 122.072-.4 1.797c-.053.246-.035.501.052.738l-.083.031s-19.493 2.414-19.166-1.666a2.513 2.513 0 0 1 1.135-1.786c-.09.131-1.176 1.772 1.28 1.786 2.573.014 17.182-.9 17.182-.9ZM114.503 122.827c.831.224 2.069.538 2.731 1.238 0 0-.565 1.821-11.853 1.555-11.289-.265-13.065-1.989-13.065-1.989.262-1.724 1.421-4.593 1.421-4.593l11.606.151c2.386 2.056 6.201 2.828 9.16 3.638Z" fill="#FFAF03"/><path d="M113.54 121.41a4.68 4.68 0 0 0-1.945.617 3.636 3.636 0 0 0-.769.6 2.56 2.56 0 0 0-.238.293 1.731 1.731 0 0 0-.162.245l-.065.107a.347.347 0 0 0-.125.345v.031a.35.35 0 0 0 .159.199.35.35 0 0 0 .252.036.523.523 0 0 0 .265-.207c.181-.293.394-.565.635-.811a3.77 3.77 0 0 1 1.987-.786c.431-.041.438-.697.006-.669ZM111.592 120.665a5.187 5.187 0 0 0-1.704.769c.083-.831.545-1.686.203-2.51-.224-.542-.782-.814-1.296-.449a1.653 1.653 0 0 0-.528 1.959c.034.097.079.235.141.386-.945-.441-2.114-.651-2.355.435-.283 1.279 1.593 1.359 2.759 1.186a6.34 6.34 0 0 0-.273.362c-.241.345.345.69.58.345a4.482 4.482 0 0 1 2.649-1.831.344.344 0 0 0 .045-.587.343.343 0 0 0-.221-.065Zm-2.67-1.334.18-.235c.276-.089.407 0 .396.224.186.49-.058 1.135-.203 1.725a3.052 3.052 0 0 1-.383-.787 1.052 1.052 0 0 1 .01-.927Zm-2.179 2.234c-.204-.293.248-.396.434-.4.22.012.437.054.645.124.347.11.672.281.959.504-.242.055-.49.08-.738.076-.283-.007-1.128-.042-1.3-.304ZM12.66 124.093a6.49 6.49 0 0 1-1.12 2.2.345.345 0 0 0 .476.472l.169-.138a.279.279 0 0 0 .11-.241 7.203 7.203 0 0 0 1.01-2.114.344.344 0 0 0-.644-.179ZM14.91 124.307v-.035c.127-.414-.521-.589-.646-.179-.124.41-.241.745-.382 1.107-.142.362-.27.838-.587 1.062-.317.224 0 .827.345.576.344-.27.608-.627.766-1.035.173.4.436.754.769 1.035.455.383 1.214.472 1.435-.211.258-.762-.797-2.351-1.7-2.32Zm.965 2.107c-.255.089-.597-.435-.714-.628a2.476 2.476 0 0 1-.3-.752c.259-.172.638.345.752.507.08.121.152.252.217.376.056.095.103.194.142.297.075.144.041.213-.107.2h.01ZM96.448 123.914a1.932 1.932 0 1 0 0-3.863 1.932 1.932 0 0 0 0 3.863Z" fill="#320D18"/><path d="M45.432 81.192a28.42 28.42 0 0 0 4.139 7.555c-1.518 1.38-3.25 3.059-5.27 5.114-3.884-4.186-5.08-9.207-4.929-10.652l6.06-2.017Z" fill="#232644"/><path d="M45.746 76.17c-1.342 1.229-.783 3.45-.783 3.45.117.53.273 1.051.47 1.558a28.422 28.422 0 0 0 4.138 7.555c7.053-6.4 9.488-6.348 14.792-7.776a51.25 51.25 0 0 0 3.521-1.076c9.495-3.269 10.247-7.745 10.247-7.745-16.886.814-31.495 3.214-32.385 4.035Z" fill="#2E3257"/><path d="M77.617 114.058a6.128 6.128 0 0 1 4.166 1.628c-.855 4.61-5.277 6.71-9.436 7.683a6.149 6.149 0 0 1 5.27-9.311ZM72.895 93.482a125.432 125.432 0 0 1 4.984 8.759c-3.6-4.621-10.83-3.428-16.661-4.904-5.74-1.455-7.902-4.783-7.967-4.886 3.738 2.883 8.915 4.503 15.847 2.265 1.338-.43 2.604-.841 3.797-1.234Z" fill="#232644"/><path d="M80.831 108.792a69.304 69.304 0 0 0-2.952-6.551c-3.6-4.621-10.83-3.428-16.662-4.904-5.738-1.455-7.9-4.783-7.966-4.886a20.693 20.693 0 0 1-3.673-3.7c-1.518 1.379-3.25 3.058-5.27 5.114a18.624 18.624 0 0 0 7.363 4.876c9.833 3.575 10.726 9.72 9.164 12.289a6.126 6.126 0 0 1-1.338 1.59 1.126 1.126 0 0 1-.532.4l-.093.038-.1.052-.11.058a5.61 5.61 0 0 0-.293.176c-.056.035-.122.048-.187.035-2.093.783-5.435.321-11.091-3.242-6.401-4.014-19.617 2.069-20.383 2.442l-2.376 12.045v.034c3.307-.031 37.217-.344 40.9-.444a36.624 36.624 0 0 0 7.122-.845 6.145 6.145 0 0 1 9.436-7.683c.338-1.859.107-4.128-.959-6.894Z" fill="#2E3257"/><path d="M63.949 96.847c-.317-.29-.793.183-.472.473 3.207 2.896 6.956 6.362 6.856 11.059-.086 3.986-3.483 7.072-7.105 8.145-4.566 1.355-9.364.176-13.84-.969-4.26-1.09-8.467-2.014-12.892-1.611a29.854 29.854 0 0 0-12.737 4.269.346.346 0 0 0 .345.58 28.976 28.976 0 0 1 13.347-4.249c5.063-.286 9.781 1.259 14.651 2.369 4.208.959 8.867 1.504 12.916-.344 3.104-1.418 5.722-4.294 5.97-7.808.355-5.031-3.628-8.838-7.04-11.914Z" fill="#232644"/><path d="M114.941 74.968c6.322 2.63 6.849 6.706 5.825 10.69a6.15 6.15 0 0 1-5.825-10.69ZM105.556 115.555a1.338 1.338 0 0 1 .96.48 1.343 1.343 0 0 1 .303 1.03l-.124.955a1.343 1.343 0 0 1-1.356 1.169l-11.605-.151h-.642a1.333 1.333 0 0 1-1.314-1.397l.052-1.245a1.335 1.335 0 0 1 .886-1.206c.167-.06.344-.086.521-.077l.562.021v.038l11.175.69.186-.293.396-.014Z" fill="#2E3257"/><path d="m93.81 115.124 11.357.417-.187.293-11.17-.659a.334.334 0 0 1 0-.051Z" fill="#2E3257"/><path d="M118.614 86.04a6.146 6.146 0 0 1-3.673-11.073c-2.608-1.086-6.208-1.927-11.088-2.413-8.184-.807-17.245-.81-25.719-.407 0 0-.752 4.483-10.246 7.745-1.321.458-2.48.796-3.522 1.076-5.304 1.427-7.739 1.379-14.792 7.776a20.69 20.69 0 0 0 3.673 3.7c3.739 2.883 8.916 4.503 15.848 2.265a499.03 499.03 0 0 0 3.794-1.234c14.526-4.762 18.706-6.424 26.039-4.462a8.946 8.946 0 0 0 4.197 1.034s-9.498 8.231-9.388 15.994v.351c.217 6.732.08 8.466.052 8.732l11.357.417c1.407-2.228 10.409-16.552 12.761-22.611.817-2.093 2.159-4.662 2.835-7.276a6.123 6.123 0 0 1-2.128.386Z" fill="#444A72"/><path d="M112.996 86.037c-.462-4.521-4.484-6.318-8.547-6.635-5.935-.466-11.919.755-17.803 1.345-6.273.631-12.84.69-18.682-2.007-.39-.176-.731.4-.345.58 10.06 4.63 21.114 1.361 31.612.768 4.339-.245 11.247-.548 12.834 4.687.796 2.644-.097 5.4-1.266 7.78-1.169 2.378-2.504 4.637-3.608 7.034a74.616 74.616 0 0 0-5.463 16.897c-.082.42.562.6.649.176a73.802 73.802 0 0 1 5.228-16.366c1.152-2.531 2.559-4.914 3.794-7.404 1.035-2.131 1.842-4.445 1.597-6.855Z" fill="#2E3257"/><path d="M110.292 88.71a23.168 23.168 0 0 1-7.205 1.379l.045-.042a8.946 8.946 0 0 1-4.197-1.034s-5.588 6.48-5.253 15.517l.055 1.493c-.09-6.386 6.339-13.103 8.622-15.269a23.59 23.59 0 0 0 8.122-1.414c.39-.13.228-.78-.189-.63Z" fill="#2E3257"/><path d="M25.522 110.958a1.336 1.336 0 0 1 1.164 1.025c.043.18.048.366.015.548v.044l-.038.018-2.6 12.069h.258a1.332 1.332 0 0 1-1.562 1.034l-1.224-.231a1.334 1.334 0 0 1-.867-.577 1.343 1.343 0 0 1-.196-1.023l.404-1.793 1.542-6.972.69-3.19a1.342 1.342 0 0 1 1.452-1.035l.962.083Z" fill="#191C3A"/><path d="m26.704 112.575-2.372 12.049v.034h-.259l2.6-12.069.032-.014Z" fill="#191C3A"/><path d="M64.235 109.434c-.344 1.034-1.765 1.724-2.652 2.231-.658.396-1.36.717-2.09.955-.134.182-.318.32-.53.397l-.098.038a5.065 5.065 0 0 0-.5.286.278.278 0 0 1-.203.031.3.3 0 0 1-.093.024.34.34 0 0 0 .147.135c.062.029.13.04.198.031 1.535-.221 2.87-.904 4.166-1.725.914-.579 1.945-1.131 2.294-2.22.14-.418-.507-.593-.639-.183Z" fill="#232644"/><path d="m124.266 15.018-.51.782c-.921 1.407-3.18 4.914-4.27 6.618-.127.193-.234.345-.324.503l-.293.456-5.156 2.865-3.625-3.793 2.118-1.917 2.642 3.262L123.815 14c.269.6.451 1.018.451 1.018Z" fill="#F7887B"/><path d="m123.791 13.987-8.943 9.807-2.632-3.252 7.664-6.938s-1.507-4.2 0-4.718c1.117-.4 3.028 3.256 3.911 5.1ZM119.48 22.414l7.056 1.973a28.148 28.148 0 0 0-2.124 3.2l-5.55-4.204.293-.455.325-.514ZM135.924 15.583c1.607.345 2.069.662 2.069 1.245 0 .724-1.818 1.207-5.963 2.82-1.528.594-2.966 1.832-4.177 3.156l3.104-5.328 4.967-1.893Z" fill="#FF9C90"/><path d="M129.219 16.538a8.27 8.27 0 1 0-8.27-8.269 8.27 8.27 0 0 0 8.27 8.27Z" fill="#FF3D0A"/><path d="M122.697 5.717a8.25 8.25 0 0 1 .69-3.317 8.285 8.285 0 0 0-2.439 6.628 8.272 8.272 0 0 0 3.565 6.096 8.28 8.28 0 0 0 12.276-3.538 8.275 8.275 0 0 1-12.693-1.285 8.278 8.278 0 0 1-1.399-4.577v-.007Z" fill="#DE370B"/><path d="m135.924 15.583-4.96 1.893-3.104 5.328a25.347 25.347 0 0 0-1.324 1.59l-7.057-1.98 4.781-7.4c1.079-1.645 2.19-3.19 3.19-2.627 1.166.655-.507 2.758-.507 2.758s4.804-.355 7.563.155c.552.1 1.035.193 1.418.283ZM68.93 33.863s-.725.969.84 4.541l-8.939-2.01v-2.459l8.098-.072Z" fill="#FFB6AD"/><path d="M67.888 21.104c.317.097 2.435.648 3.449 1.659.669.686-1.325 2.234-1.325 2.234l-2.124-3.893Z" fill="#FF8178"/><path d="M64.518 35.725c3.764 0 6.815-3.502 6.815-7.82 0-4.32-3.051-7.822-6.815-7.822-3.764 0-6.815 3.502-6.815 7.821 0 4.32 3.051 7.821 6.815 7.821Z" fill="#FFB6AD"/><path d="M67.253 32.139a11.827 11.827 0 0 1-2.57-.759 6.81 6.81 0 0 1-3.293-3.61 4.607 4.607 0 0 0-.766-1.493c-.63-.69-1.655-.76-2.576-.749a1.424 1.424 0 0 0-1.062.318 1.379 1.379 0 0 0-.197 1.134c.459 3.148 2.504 5.986 2.628 9.145l4.035.835c.125-.142.256-.28.387-.41.823-.828 1.71-1.59 2.652-2.28a27.557 27.557 0 0 1 1.52-1.035c.318-.196 1.201-.507 1.246-.872-.604-.135-1.349-.086-2.004-.224Z" fill="#FF9C90"/><path d="M66.45 31.915a3.242 3.242 0 1 0 0-6.484 3.242 3.242 0 0 0 0 6.484Z" fill="#FF8178"/><path d="M65.384 26.036c.363-.068.586-.504.498-.974-.088-.47-.454-.796-.817-.727-.363.068-.586.504-.498.974.088.47.454.795.817.727Z" fill="#211E21"/><path d="M59.259 35.204c.35-.09.67-.275.924-.534.234-.336.34-.745.3-1.152a5.83 5.83 0 0 0-1.297-3.448 14.248 14.248 0 0 1-1.076-1.38 2.238 2.238 0 0 1-.345-1.445c.142-.79 1.59-.734 2.187-.69.669.063.438-.489 1.059-.22a9.616 9.616 0 0 1 2.448-1.852 11.416 11.416 0 0 0 2.511-1.806c.714-.756 1.766-1.904 1.176-2.76a4.426 4.426 0 0 0-2.262-1.534c-2.245-.793-4.887-.741-6.829.659a8.601 8.601 0 0 0-2.476 3.103c-.894 1.742-1.425 3.614-2.57 5.214a10.96 10.96 0 0 1-3.39 3.19c-.233.1-.45.234-.645.397a.755.755 0 0 0-.217.69 1.035 1.035 0 0 0 .617.561c.37.176.745.345 1.118.5 2.828 1.228 5.725 2.29 8.767 2.507Z" fill="#6A3445"/><path d="M60.607 25.221s2.628 9.738 8.491 6.48a4.359 4.359 0 0 0 1.566-1.786" stroke="#6A3445" stroke-width="9" stroke-miterlimit="10" stroke-linecap="round"/><path d="M63.804 19.918a1.004 1.004 0 0 1-.134-2 .9.9 0 0 0 .617-.456c.154-.3.2-.645.128-.975a1.007 1.007 0 1 1 1.972-.39 3.448 3.448 0 0 1-.345 2.355 2.887 2.887 0 0 1-2.096 1.459l-.142.007Z" fill="#6A3445"/><path d="M58.82 38.184s-12.964 2.455-20.348 27.483c-7.384 25.028.67 19.656.67 19.656s15.864-8.042 29.946-8.938l2.852-.345a1.342 1.342 0 0 0 1.155-1.062c.88-4.28 3.922-22.049-3.104-34.356l-11.17-2.438Z" fill="#48B290"/><path d="M74.513 60.846v1.135c-4.087.136-8.16.538-12.195 1.203-.224-.344-.431-.69-.628-1.034a95.687 95.687 0 0 1 12.823-1.304Z" fill="#7AC7AE"/><path d="M74.513 61.519v.445a1.924 1.924 0 0 1 0-.445Z" fill="#fff"/><path d="M74.496 61.964c0 .69-.02 1.36-.062 2.014a96.135 96.135 0 0 0-10.906.993 39.585 39.585 0 0 1-1.227-1.804 94.323 94.323 0 0 1 12.195-1.203Z" fill="#349D7B"/><path d="m74.444 63.977-.02.46v.282l-.021.38c-3.374.114-6.74.411-10.081.889-.27-.345-.521-.69-.766-1.035a96.121 96.121 0 0 1 10.888-.976Z" fill="#7AC7AE"/><path d="M74.406 64.719v-.283c.014.093.007.186 0 .283Z" fill="#fff"/><path d="M74.268 55.422c.173 1.848.245 3.673.245 5.424a95.7 95.7 0 0 0-12.83 1.294c-4.483-7.649-2.759-12.132-2.759-12.132l15.344 5.414ZM74.385 65.098c-.04.69-.091 1.361-.151 2.014-2.83.104-5.65.333-8.457.69a37.94 37.94 0 0 1-1.473-1.807 93.89 93.89 0 0 1 10.081-.897Z" fill="#349D7B"/><path d="M74.234 67.112c0 .097-.018.193-.024.286 0-.093.017-.19.024-.286Z" fill="#fff"/><path d="M74.234 67.112c0 .097-.017.193-.024.286l-.083.838a95.215 95.215 0 0 0-7.46.576c-.307-.345-.607-.69-.89-1.034 2.805-.34 5.624-.563 8.457-.666Z" fill="#7AC7AE"/><path d="M74.21 67.398c-.023.288-.051.567-.083.838l.083-.838Z" fill="#fff"/><path d="M74.127 68.236c-.32 3.104-.762 5.518-1.035 6.76a67.12 67.12 0 0 1-6.439-6.184 95.738 95.738 0 0 1 7.474-.576Z" fill="#349D7B"/><path d="M65.777 67.795c.283.345.583.69.89 1.034a94.746 94.746 0 0 0-31.04 9.194c.055-.424.124-.87.2-1.342a95.888 95.888 0 0 1 29.95-8.886ZM63.539 64.97c.244.346.496.69.765 1.035a94.76 94.76 0 0 0-28.09 8.583c.089-.438.189-.9.296-1.38a96.012 96.012 0 0 1 27.029-8.237ZM61.683 62.14c.197.344.404.69.628 1.034a94.824 94.824 0 0 0-25.308 7.91c.114-.448.234-.92.345-1.4a96.042 96.042 0 0 1 24.335-7.544Z" fill="#fff"/><path d="m69.098 40.615 21.039-3.67 18.423-14.607a1.13 1.13 0 0 1 1.518.107l3.625 3.794a1.144 1.144 0 0 1-.124 1.686L93.534 43.546l-23.522-.91-.914-2.021Z" fill="#48B290"/><path d="m74.454 39.68-5.356.935.907 2.02 6.18.239-1.73-3.194ZM95.686 35.173a.448.448 0 0 0-.535-.345l-3.245.69-1.59 1.262 5.025-1.093a.448.448 0 0 0 .345-.514ZM106.432 24.028l4.798 5.738 1.055-.82-4.804-5.745-1.049.827ZM109.674 23.104c-.862 0-.862 1.341 0 1.341s.859-1.341 0-1.341Z" fill="#349D7B"/><path d="M124.411 27.587a1.345 1.345 0 0 1 .304 1.82c-3.104 4.597-15.837 22.87-24.998 27.546-10.505 5.362-26.9 7.31-37.323 1.117-7.484-6.145-2.57-16.207 8.94-16.09 10.953.107 21.12.559 21.12.559l24.777-19.149a1.344 1.344 0 0 1 1.631 0l5.549 4.197Z" fill="#7AC7AE"/><path d="M103.121 54.74a6.144 6.144 0 0 0-10.687.926 6.144 6.144 0 0 0-.297 4.246 43.954 43.954 0 0 0 7.57-2.966 22.647 22.647 0 0 0 3.414-2.207ZM114.03 25.863l8.133 7.214c.372-.524.717-1.014 1.034-1.47l-7.732-6.851-1.435 1.107ZM92.206 42.529a.716.716 0 0 0 .159.038c3.432.333 6.87.58 10.315.741.817.038.817-1.303 0-1.341-2.91-.134-5.816-.333-8.715-.597l-1.51 1.169-.25-.01ZM122.515 29.466a.893.893 0 1 0 0-1.786.893.893 0 0 0 0 1.786Z" fill="#48B290"/><path d="m61.045 35.235 8.35 2.625a1.341 1.341 0 0 1 .845 1.776l-.345.893a1.342 1.342 0 0 1-1.604.796l-8.356-2.328a1.343 1.343 0 0 1-.925-1.682l.362-1.193a1.342 1.342 0 0 1 1.673-.887Z" fill="#7AC7AE"/><path d="m59.359 36.122-.363 1.193a1.342 1.342 0 0 0 .925 1.683l.886.248 3.39-3.02-3.152-.99a1.343 1.343 0 0 0-1.686.886Z" fill="#349D7B"/></svg>