<svg fill="none" xmlns="http://www.w3.org/2000/svg" viewBox="0 0 50 50"><path fill-rule="evenodd" clip-rule="evenodd" d="M30.487 3.965c-.654-.153-1.325-.153-2.077-.152H16.8a9.56 9.56 0 0 0-9.561 9.56V36.64a9.56 9.56 0 0 0 9.56 9.56H26c1.051 0 1.903-.85 1.903-1.901v-.1c0-1.05-.852-1.902-1.902-1.902h-9.2a5.656 5.656 0 0 1-5.657-5.657V13.374A5.656 5.656 0 0 1 16.8 7.717h11.45c1 0 1.188.012 1.345.05.178.041.348.109.506.2.14.081.285.201 1.012.886l6.446 6.075c.788.743.928.893 1.021 1.04l.085-.053-.085.054c.106.166.184.347.233.538.043.17.057.374.057 1.458v8.015c0 1.05.851 1.902 1.902 1.902h.1c1.05 0 1.902-.851 1.902-1.902v-8.189c.001-.814.002-1.541-.177-2.245a5.758 5.758 0 0 0-.722-1.673l-.084.054.084-.054c-.39-.612-.919-1.11-1.513-1.668l-.12-.113-.006-.006-6.446-6.074-.006-.006-.11-.104c-.546-.516-1.034-.976-1.616-1.313l-.05.086.05-.086a5.757 5.757 0 0 0-1.57-.624ZM18 16.098a1.902 1.902 0 0 0 0 3.804h2a1.902 1.902 0 1 0 0-3.804h-2ZM23.902 26c0 1.05-.852 1.902-1.902 1.902h-4a1.902 1.902 0 0 1 0-3.804h4c1.05 0 1.902.852 1.902 1.902ZM24 35.902a1.902 1.902 0 1 0 0-3.804h-6a1.902 1.902 0 0 0 0 3.804h6Z" fill="#fff"/><path fill-rule="evenodd" clip-rule="evenodd" d="M39.09 44.124c.013.358-.097.703-.245.984-.316.565-.927.878-1.62.892l-1.268-.017a1.942 1.942 0 0 1-1.638-.927 1.852 1.852 0 0 1-.256-.963c.013-.279-.079-.54-.227-.79-.46-.776-1.496-1.06-2.288-.645-.904.51-2.038.187-2.571-.714l-.631-1.066c-.538-.908-.257-2.027.646-2.536a1.651 1.651 0 0 0 .578-2.247c-.153-.259-.34-.467-.59-.588a1.94 1.94 0 0 1-.727-.697 1.848 1.848 0 0 1-.008-1.855l.624-1.072c.339-.577.943-.938 1.601-.922.31-.008.685.094.992.277.24.157.504.196.795.21a1.645 1.645 0 0 0 1.664-1.616c-.011-1.028.838-1.84 1.88-1.832l1.239.003c1.047.016 1.897.832 1.905 1.872.026.895.801 1.638 1.706 1.661.294.002.572-.06.798-.209.297-.188.64-.266.963-.25a2.001 2.001 0 0 1 1.638.927l.654 1.104c.343.58.324 1.29.008 1.855a1.595 1.595 0 0 1-.708.68c-.245.118-.439.32-.585.57-.431.776-.159 1.803.627 2.28a1.845 1.845 0 0 1 .705 2.537l-.616 1.047a1.864 1.864 0 0 1-2.568.673c-.795-.44-1.822-.175-2.261.605-.138.245-.235.488-.216.77Zm-3.89-9.351c-1.234.695-1.627 2.243-.9 3.473a2.6 2.6 0 0 0 3.52.953 2.476 2.476 0 0 0 .921-3.454c-.728-1.23-2.307-1.667-3.541-.972Z" fill="#fff"/></svg>