<svg fill="none" xmlns="http://www.w3.org/2000/svg" viewBox="0 0 50 50"><rect x="5.5" y="6.5" width="39" height="8" rx="4" stroke="#fff" stroke-width="3"/><rect x="5.5" y="20.5" width="39" height="8" rx="4" stroke="#fff" stroke-width="3"/><rect x="5.5" y="34.5" width="39" height="8" rx="4" stroke="#fff" stroke-width="3"/><path d="M14 11c0 .553-.447 1-1 1-.553 0-1-.447-1-1 0-.553.447-1 1-1 .553 0 1 .447 1 1ZM14 25c0 .553-.447 1-1 1-.553 0-1-.447-1-1 0-.553.447-1 1-1 .553 0 1 .447 1 1ZM14 39c0 .553-.447 1-1 1-.553 0-1-.447-1-1 0-.553.447-1 1-1 .553 0 1 .447 1 1ZM19 11c0 .553-.447 1-1 1-.553 0-1-.447-1-1 0-.553.447-1 1-1 .553 0 1 .447 1 1ZM19 25c0 .553-.447 1-1 1-.553 0-1-.447-1-1 0-.553.447-1 1-1 .553 0 1 .447 1 1ZM19 39c0 .553-.447 1-1 1-.553 0-1-.447-1-1 0-.553.447-1 1-1 .553 0 1 .447 1 1Z" fill="#fff"/><path d="M36 16v3M36 30v3M14 16v3M14 30v3" stroke="#fff" stroke-width="2"/></svg>