<svg viewBox="0 0 32 32" xmlns="http://www.w3.org/2000/svg" fill="currentColor"><path d="M28 30H4c-1.103 0-2-.896-2-1.999V23a1 1 0 0 1 1-1h26a1 1 0 0 1 1 1v5.001A2.001 2.001 0 0 1 28 30zM4 24v4.001L28.002 28 28 24z"/><path d="M2.998 24a1 1 0 0 1-.707-1.707l4-4A1 1 0 0 1 6.998 18H11a1 1 0 1 1 0 2H7.413l-3.707 3.707a.997.997 0 0 1-.708.293zM29.002 24a.997.997 0 0 1-.707-.293L24.584 20H21a1 1 0 1 1 0-2h3.998a1 1 0 0 1 .707.293l4.003 4A1 1 0 0 1 29.002 24zM6.028 27c-.552 0-1.005-.447-1.005-1s.443-1 .995-1h.01a1 1 0 1 1 0 2zM11.998 27h-3a1 1 0 1 1 0-2h3a1 1 0 1 1 0 2zM28 14H4c-1.103 0-2-.896-2-1.999V7a1 1 0 0 1 1-1h26a1 1 0 0 1 1 1v5.001A2.001 2.001 0 0 1 28 14zM4 8v4.001L28.002 12 28 8z"/><path d="M29 8a.997.997 0 0 1-.707-.293L24.583 4H7.413L3.708 7.707a1 1 0 1 1-1.414-1.414l4-4A1 1 0 0 1 7 2h17.998a1 1 0 0 1 .707.293l4.002 4A1 1 0 0 1 29 8zM6.028 11c-.552 0-1.005-.447-1.005-1s.443-1 .995-1h.01a1 1 0 1 1 0 2zM11.998 11h-3a1 1 0 1 1 0-2h3a1 1 0 1 1 0 2zM16 21a.997.997 0 0 1-.707-.293l-2-2a1 1 0 1 1 1.414-1.414L16 18.586l1.293-1.293a1 1 0 1 1 1.414 1.414l-2 2A.997.997 0 0 1 16 21z"/><path d="M16 20a1 1 0 0 1-1-1v-3a1 1 0 1 1 2 0v3a1 1 0 0 1-1 1z"/></svg>