<svg viewBox="0 0 60 59" xmlns="http://www.w3.org/2000/svg"><g fill="none"><path d="m41.75 31.883-11.259 6.343a1 1 0 0 1-.982 0L18.25 31.883a2.953 2.953 0 0 1 1.28-1.43l9-5.07a3.011 3.011 0 0 1 2.94 0l9 5.07c.574.32 1.024.824 1.28 1.43z" fill="#ffba6e"/><path d="M27.491 44.213a1 1 0 0 1 .509.871V59a2.985 2.985 0 0 1-1.47-.38l-9-5.07A3 3 0 0 1 16 50.932V39.06c.002-.406.087-.808.25-1.18z" fill="#fab153"/><path d="M44 39.06v11.872a3 3 0 0 1-1.53 2.618l-9 5.07c-.45.251-.955.382-1.47.38V45.084a1 1 0 0 1 .509-.871L43.75 37.88c.163.372.248.774.25 1.18z" fill="#f2a149"/><g fill="#457393"><path d="M32.293 17.293 31 18.586V1a1 1 0 0 0-2 0v17.586l-1.293-1.293a1 1 0 0 0-1.414 1.414l3 3a1 1 0 0 0 1.416 0l3-3a1 1 0 0 0-1.414-1.414zM12.923 45.618a.99.99 0 0 0-.217-.326l-3-3a1 1 0 0 0-1.414 1.414L9.586 45H1a1 1 0 0 0 0 2h8.586l-1.293 1.293a1 1 0 1 0 1.414 1.414l3-3a1 1 0 0 0 .216-1.089zM59 45h-8.586l1.293-1.293a1 1 0 0 0-1.414-1.414l-3 3a1 1 0 0 0 0 1.416l3 3a1 1 0 0 0 1.414-1.414L50.414 47H59a1 1 0 0 0 0-2z"/></g></g></svg>