<svg viewBox="0 0 64 64" xmlns="http://www.w3.org/2000/svg"><g data-name="4. Script"><path d="M51 14v49H15a4 4 0 0 1-4-4V14a4 4 0 0 0-4-4h40a4 4 0 0 1 4 4z" fill="#f5f7ff"/><path d="M3 27h8V14a4 4 0 0 0-8 0z" fill="#ccd3eb"/><path d="M5.5 10.3A4 4 0 0 1 8 14v13h3V14a4 4 0 0 0-5.5-3.7z" fill="#96a1c3"/><path d="M61.61 10a1.4 1.4 0 0 1-1-2.38 1.38 1.38 0 0 0 0-2l-2.26-2.24a1.38 1.38 0 0 0-2 0 1.4 1.4 0 0 1-2.38-1A1.39 1.39 0 0 0 52.61 1h-3.22A1.39 1.39 0 0 0 48 2.39a1.4 1.4 0 0 1-2.38 1 1.38 1.38 0 0 0-2 0l-2.24 2.26a1.38 1.38 0 0 0 0 2 1.4 1.4 0 0 1-1 2.38A1.39 1.39 0 0 0 39 11.39v3.22A1.39 1.39 0 0 0 40.39 16a1.4 1.4 0 0 1 1 2.38 1.38 1.38 0 0 0 0 2l2.27 2.27a1.38 1.38 0 0 0 2 0 1.4 1.4 0 0 1 2.38 1A1.39 1.39 0 0 0 49.39 25h3.22A1.39 1.39 0 0 0 54 23.61a1.4 1.4 0 0 1 2.38-1 1.38 1.38 0 0 0 2 0l2.27-2.27a1.38 1.38 0 0 0 0-2 1.4 1.4 0 0 1 1-2.38A1.39 1.39 0 0 0 63 14.61v-3.22A1.39 1.39 0 0 0 61.61 10z" fill="#0074ff"/><circle cx="51" cy="13" fill="#f5f7ff" r="4"/><rect fill="#0074ff" height="16" rx="2" width="20" x="1" y="33"/><path d="M7.71 38.29a1 1 0 0 0-1.42 0l-2 2a1 1 0 0 0 0 1.42l2 2a1 1 0 1 0 1.42-1.42L6.41 41l1.3-1.29a1 1 0 0 0 0-1.42zM17.71 40.29l-2-2a1 1 0 0 0-1.42 1.42l1.3 1.29-1.3 1.29a1 1 0 0 0 1.42 1.42l2-2a1 1 0 0 0 0-1.42zM12.24 36a1 1 0 0 0-1.21.73l-2 8a1 1 0 1 0 1.94.48l2-8a1 1 0 0 0-.73-1.21z" fill="#f5f7ff"/><g fill="#96a1c3"><path d="M17 22h6a1 1 0 0 0 0-2h-6a1 1 0 0 0 0 2zM17 18h6a1 1 0 0 0 0-2h-6a1 1 0 0 0 0 2zM27 22h8a1 1 0 0 0 0-2h-8a1 1 0 0 0 0 2zM17 26h2a1 1 0 0 0 0-2h-2a1 1 0 0 0 0 2zM22 25a1 1 0 0 0 1 1h18a1 1 0 0 0 0-2H23a1 1 0 0 0-1 1zM23 28h-6a1 1 0 0 0 0 2h6a1 1 0 0 0 0-2zM26 29a1 1 0 0 0 1 1h18a1 1 0 0 0 0-2H27a1 1 0 0 0-1 1zM25 32a1 1 0 0 0 0 2h10a1 1 0 0 0 0-2zM45 36H25a1 1 0 0 0 0 2h20a1 1 0 0 0 0-2zM25 42h4a1 1 0 0 0 0-2h-4a1 1 0 0 0 0 2zM34 44h-9a1 1 0 0 0 0 2h9a1 1 0 0 0 0-2zM34 48h-9a1 1 0 0 0 0 2h9a1 1 0 0 0 0-2zM45 32h-6a1 1 0 0 0 0 2h6a1 1 0 0 0 0-2zM45 40H33a1 1 0 0 0 0 2h12a1 1 0 0 0 0-2zM40 44h-2a1 1 0 0 0 0 2h2a1 1 0 0 0 0-2z"/></g><path d="M59 53v6a4 4 0 0 1-4 4H15a4 4 0 0 0 4-4v-6z" fill="#ccd3eb"/><path d="M55 60H18.86A4 4 0 0 1 15 63h40a4 4 0 0 0 4-4v-3a4 4 0 0 1-4 4z" fill="#96a1c3"/><path d="M51 46a1 1 0 0 0 1-1v-2a1 1 0 0 0-2 0v2a1 1 0 0 0 1 1zM61.61 9a.39.39 0 0 1-.28-.67 2.41 2.41 0 0 0 0-3.39l-2.27-2.27a2.41 2.41 0 0 0-3.39 0 .39.39 0 0 1-.67-.28A2.39 2.39 0 0 0 52.61 0h-3.22A2.39 2.39 0 0 0 47 2.39a.39.39 0 0 1-.67.28 2.41 2.41 0 0 0-3.39 0l-2.27 2.27a2.41 2.41 0 0 0 0 3.39.39.39 0 0 1-.28.67H7a5 5 0 0 0-5 5v13a1 1 0 0 0 1 1h7v1a1 1 0 0 0 2 0V14a4.92 4.92 0 0 0-1-3h27a26.48 26.48 0 0 0 0 3.61A2.39 2.39 0 0 0 40.39 17a.39.39 0 0 1 .28.67 2.41 2.41 0 0 0 0 3.39l2.27 2.27a2.41 2.41 0 0 0 3.39 0 .39.39 0 0 1 .67.28A2.39 2.39 0 0 0 49.39 26H50v13a1 1 0 0 0 2 0V26h.61A2.39 2.39 0 0 0 55 23.61a.39.39 0 0 1 .67-.28 2.41 2.41 0 0 0 3.39 0l2.27-2.27a2.41 2.41 0 0 0 0-3.39.39.39 0 0 1 .28-.67A2.39 2.39 0 0 0 64 14.61v-3.22A2.39 2.39 0 0 0 61.61 9zM10 14v12H4V14a3 3 0 0 1 6 0zm52 .61a.4.4 0 0 1-.39.39 2.4 2.4 0 0 0-1.7 4.09.38.38 0 0 1 0 .55l-2.27 2.27a.38.38 0 0 1-.55 0 2.4 2.4 0 0 0-4.09 1.7.4.4 0 0 1-.39.39h-3.22a.4.4 0 0 1-.39-.39 2.4 2.4 0 0 0-4.09-1.7.38.38 0 0 1-.55 0l-2.27-2.27a.38.38 0 0 1 0-.55 2.4 2.4 0 0 0-1.7-4.09.4.4 0 0 1-.39-.39v-3.22a.4.4 0 0 1 .39-.39 2.4 2.4 0 0 0 1.7-4.09.38.38 0 0 1 0-.55l2.27-2.27a.38.38 0 0 1 .55 0A2.4 2.4 0 0 0 49 2.39a.4.4 0 0 1 .39-.39h3.22a.4.4 0 0 1 .39.39 2.4 2.4 0 0 0 4.09 1.7.38.38 0 0 1 .55 0l2.27 2.27a.38.38 0 0 1 0 .55 2.4 2.4 0 0 0 1.7 4.09.4.4 0 0 1 .39.39z" fill="#033c59"/><path d="M59 52h-7v-3a1 1 0 0 0-2 0v3H19a1 1 0 0 0-1 1v6a3 3 0 0 1-6 0v-9h7a3 3 0 0 0 3-3V35a3 3 0 0 0-3-3H3a3 3 0 0 0-3 3v12a3 3 0 0 0 3 3h7v9a5 5 0 0 0 5 5h40a5 5 0 0 0 5-5v-6a1 1 0 0 0-1-1zM2 47V35a1 1 0 0 1 1-1h16a1 1 0 0 1 1 1v12a1 1 0 0 1-1 1H3a1 1 0 0 1-1-1zm56 12a3 3 0 0 1-3 3H19a5 5 0 0 0 1-3v-5h38z" fill="#033c59"/><path d="M37 5a1 1 0 1 0 1 1 1 1 0 0 0-1-1zM33 5a1 1 0 1 0 1 1 1 1 0 0 0-1-1z" fill="#96a1c3"/></g></svg>