<svg viewBox="0 -10 491.52 491" xmlns="http://www.w3.org/2000/svg"><g fill="#403e3e"><path d="M235.52 327.941H256v20.48h-20.48zM307.2 471.3a10.232 10.232 0 0 1-10.24-10.241v-40.957a10.232 10.232 0 0 1 10.24-10.243 10.233 10.233 0 0 1 10.241 10.243v40.957A10.233 10.233 0 0 1 307.2 471.3zM184.32 471.3c-5.652 0-10.242-4.577-10.242-10.241V379.14c0-5.664 4.59-10.243 10.242-10.243 5.653 0 10.239 4.579 10.239 10.243v81.918c0 5.664-4.586 10.242-10.239 10.242zm0 0"/><path d="M481.281 471.3h-327.68c-5.652 0-10.242-4.577-10.242-10.241 0-5.66 4.59-10.239 10.243-10.239h327.68c5.66 0 10.238 4.578 10.238 10.239A10.232 10.232 0 0 1 481.28 471.3zM112.64 471.3H10.239C4.586 471.3 0 466.724 0 461.06c0-5.66 4.586-10.239 10.238-10.239h102.403c5.652 0 10.238 4.578 10.238 10.239 0 5.664-4.586 10.242-10.238 10.242zM440.32 307.46H10.238C4.586 307.46 0 302.884 0 297.22c0-5.66 4.586-10.239 10.238-10.239H440.32a10.228 10.228 0 0 1 10.239 10.239 10.23 10.23 0 0 1-10.239 10.242zm0 0"/><path d="M440.32 389.379H51.2c-28.231 0-51.2-22.969-51.2-51.2V51.462C0 23.227 22.969.26 51.2.26h389.12c28.23 0 51.2 22.966 51.2 51.2V338.18c0 28.23-22.97 51.199-51.2 51.199zM51.2 20.739c-16.938 0-30.72 13.784-30.72 30.722V338.18c0 16.937 13.782 30.718 30.72 30.718h389.12c16.938 0 30.72-13.78 30.72-30.718V51.46c0-16.937-13.782-30.722-30.72-30.722zm0 0"/></g><path d="M102.398 246.02H61.441c-5.652 0-10.242-4.586-10.242-10.239v-40.96c0-5.653 4.59-10.243 10.242-10.243h40.957c5.653 0 10.243 4.59 10.243 10.242v40.961c0 5.653-4.59 10.239-10.243 10.239zM71.68 225.54h20.48v-20.481H71.68zm0 0" fill="#ef512a"/><path d="M81.922 205.059c-5.656 0-10.242-4.586-10.242-10.239v-30.718c0-5.653 4.586-10.243 10.242-10.243 5.652 0 10.238 4.59 10.238 10.243v30.718c0 5.653-4.586 10.239-10.238 10.239zM81.922 266.5c-5.656 0-10.242-4.578-10.242-10.238v-20.48c0-5.653 4.586-10.243 10.242-10.243 5.652 0 10.238 4.59 10.238 10.242v20.48c0 5.66-4.586 10.239-10.238 10.239zm0 0" fill="#ef512a"/><path d="M184.32 205.059h-40.96c-5.653 0-10.239-4.586-10.239-10.239v-71.68c0-5.652 4.586-10.242 10.238-10.242h40.961c5.653 0 10.239 4.59 10.239 10.243v71.68c0 5.652-4.586 10.238-10.239 10.238zm-30.718-20.48h20.476v-51.2h-20.476zm0 0" fill="#403e3e"/><path d="M163.84 133.379c-5.653 0-10.238-4.586-10.238-10.238v-20.48c0-5.653 4.585-10.24 10.238-10.24s10.238 4.587 10.238 10.24v20.48c0 5.652-4.586 10.238-10.238 10.238zM163.84 235.781c-5.653 0-10.238-4.59-10.238-10.242V194.82c0-5.652 4.585-10.242 10.238-10.242s10.238 4.59 10.238 10.242v30.72c0 5.651-4.586 10.241-10.238 10.241zm0 0" fill="#403e3e"/><path d="M266.238 225.54h-40.957c-5.652 0-10.242-4.587-10.242-10.24v-51.198c0-5.653 4.59-10.243 10.242-10.243h40.957c5.664 0 10.242 4.59 10.242 10.243V215.3c0 5.652-4.578 10.238-10.242 10.238zm-30.718-20.481H256v-30.72h-20.48zm0 0" fill="#ef512a"/><path d="M245.762 174.34c-5.653 0-10.242-4.586-10.242-10.238V82.18c0-5.653 4.59-10.239 10.242-10.239 5.652 0 10.238 4.586 10.238 10.239v81.922c0 5.652-4.586 10.238-10.238 10.238zM245.762 246.02c-5.653 0-10.242-4.586-10.242-10.239v-20.48c0-5.653 4.59-10.242 10.242-10.242 5.652 0 10.238 4.59 10.238 10.242v20.48c0 5.653-4.586 10.239-10.238 10.239zm0 0" fill="#ef512a"/><path d="M348.16 215.3H307.2c-5.66 0-10.24-4.59-10.24-10.241V82.179c0-5.652 4.58-10.238 10.24-10.238h40.96a10.233 10.233 0 0 1 10.238 10.239v122.879c0 5.652-4.574 10.242-10.238 10.242zm-30.719-20.48h20.48V92.422h-20.48zm0 0" fill="#403e3e"/><path d="M327.68 92.422c-5.664 0-10.239-4.59-10.239-10.242V51.46c0-5.651 4.575-10.241 10.239-10.241 5.664 0 10.242 4.59 10.242 10.242V82.18c0 5.652-4.578 10.242-10.242 10.242zM327.68 266.5a10.228 10.228 0 0 1-10.239-10.238v-51.203a10.233 10.233 0 0 1 10.239-10.239c5.664 0 10.242 4.586 10.242 10.239v51.203c0 5.66-4.578 10.238-10.242 10.238zm0 0" fill="#403e3e"/><path d="M430.078 164.102h-40.957c-5.664 0-10.242-4.59-10.242-10.243V112.9c0-5.653 4.578-10.239 10.242-10.239h40.957c5.664 0 10.242 4.586 10.242 10.238v40.961c0 5.653-4.578 10.243-10.242 10.243zm-30.719-20.48h20.48V123.14h-20.48zm0 0" fill="#ef512a"/><path d="M409.602 123.14c-5.664 0-10.243-4.59-10.243-10.242V82.18c0-5.653 4.579-10.239 10.243-10.239 5.66 0 10.238 4.586 10.238 10.239v30.718c0 5.653-4.578 10.243-10.238 10.243zM409.602 246.02c-5.664 0-10.243-4.586-10.243-10.239V153.86c0-5.652 4.579-10.238 10.243-10.238 5.66 0 10.238 4.586 10.238 10.238v81.922c0 5.653-4.578 10.239-10.238 10.239zM51.2 51.46h20.48v20.481H51.2zM92.16 51.46h20.48v20.481H92.16zM133.121 51.46h20.48v20.481h-20.48zm0 0" fill="#ef512a"/></svg>