<svg viewBox="0 0 56 60" xmlns="http://www.w3.org/2000/svg"><g fill="none"><path d="M9 33V4a3 3 0 0 1 3-3h33.17a2 2 0 0 1 1.417.587l7.826 7.826A2 2 0 0 1 55 10.83V56a3 3 0 0 1-3 3H12a3 3 0 0 1-3-3z" fill="#d1d4dc"/><rect fill="#ffcf38" height="20" rx="1" width="34" x="1" y="33"/><path d="M54.82 10h-4.94A3.871 3.871 0 0 1 46 6.12V1.18c.22.1.42.24.59.41l7.82 7.82c.17.17.31.37.41.59z" fill="#9096a2"/><g fill="#373737"><path d="M0 34v18a2 2 0 0 0 2 2h6v2a4 4 0 0 0 4 4h40a4 4 0 0 0 4-4V10.83a2.984 2.984 0 0 0-.255-1.2.459.459 0 0 0-.033-.062 2.975 2.975 0 0 0-.592-.861L47.294.88a2.975 2.975 0 0 0-.861-.592.459.459 0 0 0-.062-.033A2.984 2.984 0 0 0 45.17 0H12a4 4 0 0 0-4 4v24a1 1 0 0 0 2 0V4a2 2 0 0 1 2-2h33v4.12A4.885 4.885 0 0 0 49.88 11H54v45a2 2 0 0 1-2 2H12a2 2 0 0 1-2-2v-2h24a2 2 0 0 0 2-2V34a2 2 0 0 0-2-2H2a2 2 0 0 0-2 2zM47 6.12V3.414L52.586 9H49.88A2.883 2.883 0 0 1 47 6.12zM34 52H2V34h32z"/><path d="M15 9h24a1 1 0 0 0 0-2H15a1 1 0 0 0 0 2zM15 14h24a1 1 0 0 0 0-2H15a1 1 0 0 0 0 2zM15 19h34a1 1 0 0 0 0-2H15a1 1 0 0 0 0 2zM15 24h34a1 1 0 0 0 0-2H15a1 1 0 0 0 0 2zM15 29h34a1 1 0 0 0 0-2H15a1 1 0 0 0 0 2zM49 32h-9a1 1 0 0 0 0 2h9a1 1 0 0 0 0-2zM49 37h-9a1 1 0 0 0 0 2h9a1 1 0 0 0 0-2zM49 42h-9a1 1 0 0 0 0 2h9a1 1 0 0 0 0-2zM49 47h-9a1 1 0 0 0 0 2h9a1 1 0 0 0 0-2zM49 52h-9a1 1 0 0 0 0 2h9a1 1 0 0 0 0-2zM17 49a4 4 0 0 0 4-4v-4a4 4 0 1 0-8 0v4a4 4 0 0 0 4 4zm-2-8a2 2 0 1 1 4 0v4a2 2 0 1 1-4 0zM7 49h4a1 1 0 0 0 0-2H7v-9a1 1 0 0 0-2 0v9a2 2 0 0 0 2 2zM27 49a4 4 0 0 0 4-4v-1a1 1 0 0 0-1-1h-2a1 1 0 0 0 0 2h1a2 2 0 1 1-4 0v-4a2 2 0 0 1 3.887-.667 1 1 0 0 0 1.884-.666A4 4 0 0 0 23 41v4a4 4 0 0 0 4 4z"/></g></g></svg>