<svg xmlns="http://www.w3.org/2000/svg" viewBox="0 0 512 512"><path d="M256 7.5C118.757 7.5 7.5 118.757 7.5 256c0 137.242 111.257 248.5 248.5 248.5S504.5 393.242 504.5 256C504.5 118.757 393.243 7.5 256 7.5zM54.134 177.888C85.464 96.962 164.014 39.565 256 39.565s170.536 57.398 201.866 138.323c4.094 10.574-3.593 21.999-14.931 21.999H69.065c-11.338 0-19.025-11.426-14.931-21.999zm403.732 156.224C426.536 415.037 347.986 472.435 256 472.435S85.464 415.037 54.134 334.112c-4.094-10.574 3.593-21.999 14.931-21.999h373.869c11.339 0 19.026 11.426 14.932 21.999z" fill="#ff5f7a"/><path d="M403.208 424.631c-45.928 40.175-104.465 59.323-165.534 54.434-46.516-3.708-89.146-22.07-123.552-50.253l4.065-6.255a228.066 228.066 0 0 1-28.581-28.441l-6.679 2.851c-28.143-34.207-46.482-76.308-50.172-122.656-4.869-61.045 15.068-119.896 54.787-165.588 8.485-9.761 7.568-24.783-1.467-33.96C37.741 120.099 7.5 184.501 7.5 256c0 137.242 111.257 248.5 248.5 248.5 71.497 0 135.897-30.239 181.234-78.572-9.177-9.031-24.282-9.819-34.026-1.297z" fill="#fb4455"/><path d="M350.013 287.076a7.498 7.498 0 0 0 2.668.493 7.503 7.503 0 0 0 7.01-4.833l2.658-6.979h18.664l2.626 6.958a7.5 7.5 0 1 0 14.034-5.296l-17.896-47.421a8.56 8.56 0 0 0-8.025-5.528h-.01a8.561 8.561 0 0 0-7.941 5.337c-.023.057-.046.113-.067.17l-18.06 47.419a7.5 7.5 0 0 0 4.339 9.68zm25.339-26.319h-7.29l3.662-9.615zM103.949 224.9a7.5 7.5 0 0 0-5.268 7.16v48.007a7.5 7.5 0 0 0 15 0v-23.948l18.791 27.211c2.146 3.098 5.745 4.409 9.175 3.337 3.485-1.089 5.737-4.316 5.737-8.293l-.449-46.476a7.5 7.5 0 0 0-7.498-7.427h-.074a7.5 7.5 0 0 0-7.427 7.572l.236 24.455-19.819-28.7a7.504 7.504 0 0 0-8.404-2.898zM195.675 224.9a7.5 7.5 0 0 0-5.268 7.16v48.007a7.5 7.5 0 0 0 15 0v-23.948l18.791 27.211c2.146 3.099 5.748 4.409 9.175 3.337 3.486-1.089 5.738-4.316 5.737-8.293l-.45-46.476c-.04-4.142-3.384-7.479-7.572-7.427a7.5 7.5 0 0 0-7.427 7.572l.237 24.456-19.82-28.7a7.5 7.5 0 0 0-8.403-2.899zM415.528 224.471a7.5 7.5 0 0 0-7.5 7.5v48.056a7.501 7.501 0 0 0 6.233 7.393c.533.091.886.152 6.344.152 2.593 0 6.34-.014 11.807-.044a7.5 7.5 0 0 0 7.458-7.542 7.5 7.5 0 0 0-7.499-7.458h-.043a2695.8 2695.8 0 0 1-9.3.037v-40.593a7.5 7.5 0 0 0-7.5-7.501zM474.094 272.526h-.043a2695.8 2695.8 0 0 1-9.3.037V231.97c0-4.143-3.358-7.5-7.5-7.5s-7.5 3.357-7.5 7.5v48.056a7.501 7.501 0 0 0 6.233 7.393c.533.091.886.152 6.344.152 2.593 0 6.34-.014 11.807-.044a7.5 7.5 0 0 0 7.458-7.542 7.5 7.5 0 0 0-7.499-7.459zM160.8 231.971v48.097a7.5 7.5 0 0 0 15 0v-48.097c0-4.143-3.358-7.5-7.5-7.5s-7.5 3.357-7.5 7.5zM275.675 272.567c-4.367 0-8.556-1.745-11.203-4.666a7.5 7.5 0 0 0-11.115 10.073c5.525 6.097 13.66 9.594 22.318 9.594 10.858 0 19.985-6.984 21.704-16.606 1.303-7.299-1.935-16.806-14.932-21.6-5.646-2.083-10.92-4.345-12.803-5.167-.535-.515-.581-1.163-.512-1.647.172-1.197 1.186-2.16 2.782-2.641 5.964-1.795 11.65 2.617 11.867 2.789a7.5 7.5 0 0 0 9.604-11.523c-4.359-3.664-14.697-8.974-25.797-5.629-7.2 2.169-12.298 7.867-13.303 14.871-.949 6.607 1.917 12.965 7.479 16.591.332.216.679.405 1.041.566.28.125 6.947 3.093 14.453 5.861 2.825 1.042 5.716 2.874 5.356 4.891-.308 1.712-2.724 4.243-6.939 4.243zM61.163 287.567h.037c4.042 0 7.841-.882 11.292-2.62 8.507-4.283 13.191-11.356 13.191-19.916V231.97c0-4.143-3.358-7.5-7.5-7.5s-7.5 3.357-7.5 7.5v33.061c0 1.994-.586 4.328-4.938 6.52-1.357.684-2.844 1.017-4.544 1.017h-.017c-1.832-.003-3.414-.446-4.837-1.356-3.416-2.182-4.083-3.905-4.083-6.145v-33.096c0-4.143-3.358-7.5-7.5-7.5s-7.5 3.357-7.5 7.5v33.096c0 7.798 3.704 14.119 11.007 18.785 3.847 2.459 8.185 3.709 12.892 3.715zM325.554 287.567a7.5 7.5 0 0 0 7.5-7.5V239.47h5.834a7.5 7.5 0 0 0 0-15h-26.562a7.5 7.5 0 0 0 0 15h5.727v40.597a7.502 7.502 0 0 0 7.501 7.5z"/><path d="M437.02 74.98C388.667 26.629 324.38 0 256 0S123.333 26.629 74.98 74.98C26.629 123.333 0 187.62 0 256s26.629 132.667 74.98 181.02C123.333 485.371 187.62 512 256 512s132.667-26.629 181.02-74.98C485.371 388.667 512 324.38 512 256s-26.629-132.667-74.98-181.02zm-10.607 351.433C380.894 471.932 320.374 497 256 497s-124.894-25.068-170.413-70.587S15 320.374 15 256 40.068 131.106 85.587 85.587 191.626 15 256 15s124.894 25.068 170.413 70.587S497 191.626 497 256s-25.068 124.894-70.587 170.413z"/><path d="M69.065 207.387h373.869c7.756 0 15.003-3.82 19.387-10.217a23.73 23.73 0 0 0 2.539-21.99c-9.143-23.616-22.378-45.568-39.339-65.244a7.501 7.501 0 0 0-11.362 9.794c15.838 18.375 28.19 38.853 36.712 60.867 1.061 2.739.724 5.69-.925 8.096-1.609 2.349-4.166 3.696-7.013 3.696H69.065c-2.847 0-5.403-1.347-7.013-3.696-1.648-2.406-1.985-5.356-.925-8.096 15.055-38.888 41.157-72.107 75.485-96.066C171.729 60.02 213.012 47.064 256 47.064c49.938 0 98.335 18.029 136.274 50.766a7.5 7.5 0 0 0 9.8-11.357c-40.663-35.086-92.54-54.41-146.074-54.41-46.074 0-90.326 13.889-127.972 40.165C91.246 97.901 63.275 133.501 47.14 175.18a23.73 23.73 0 0 0 2.539 21.99 23.491 23.491 0 0 0 19.386 10.217zM442.935 304.613H69.065a23.493 23.493 0 0 0-19.387 10.217 23.73 23.73 0 0 0-2.539 21.99c9.143 23.616 22.378 45.567 39.339 65.244a7.5 7.5 0 0 0 10.577.784 7.5 7.5 0 0 0 .784-10.578c-15.838-18.375-28.189-38.853-36.712-60.867-1.061-2.739-.724-5.69.925-8.096 1.609-2.349 4.166-3.696 7.013-3.696h373.869c2.847 0 5.403 1.347 7.013 3.696 1.648 2.406 1.985 5.356.925 8.096-15.055 38.888-41.157 72.106-75.485 96.066-35.116 24.51-76.399 37.465-119.387 37.465-49.938 0-98.334-18.029-136.274-50.767a7.5 7.5 0 0 0-9.8 11.356c40.663 35.087 92.54 54.41 146.074 54.41 46.074 0 90.326-13.889 127.972-40.165 36.782-25.673 64.753-61.273 80.888-102.951a23.73 23.73 0 0 0-2.539-21.99 23.496 23.496 0 0 0-19.386-10.214z"/></svg>