<svg xmlns="http://www.w3.org/2000/svg" style="enable-background:new 0 0 512 512" xml:space="preserve" viewBox="0 0 512 512"><path style="fill:#72d8ff" d="M10 345.117h461.765v32.849c0 16.587-13.446 30.034-30.034 30.034H40.034C23.447 408 10 394.554 10 377.966v-32.849z"/><path style="fill:#fff" d="M10 102.034C10 85.446 23.446 72 40.034 72h401.698c16.587 0 30.034 13.446 30.034 30.034v243.084H10V102.034z"/><path style="fill:#72d8ff" d="M148.928 502h184v-13.964c0-14.379-11.657-26.036-26.036-26.036H174.964c-14.379 0-26.036 11.657-26.036 26.036V502z"/><path style="fill:#c9f3ff" d="M208.928 408h64v54h-64z"/><path style="fill:#72d8ff" d="M502 151.463v-42.926l-.001-.001h-23.13a98.58 98.58 0 0 0-13.188-31.865l16.348-16.348v-.001l-30.353-30.353h-.001l-16.348 16.348a98.54 98.54 0 0 0-31.865-13.188V9.999l-.001-.001h-42.926l-.001.001v23.157a98.564 98.564 0 0 0-31.817 13.209L312.322 29.97h-.001l-30.353 30.353v.001l16.424 16.424a98.569 98.569 0 0 0-13.141 31.788h-23.254l.003.001v42.926l.001.001h23.281a98.566 98.566 0 0 0 13.161 31.741l-16.472 16.472v.001l30.353 30.353h.001l16.472-16.472.003-.001a98.56 98.56 0 0 0 31.738 13.162v23.282h42.926l.001-.001v-23.254a98.537 98.537 0 0 0 31.788-13.141l16.424 16.424h.001l30.353-30.353v-.001l-16.395-16.395a98.564 98.564 0 0 0 13.209-31.817l23.155-.001z"/><circle style="fill:#fff" cx="382" cy="130" r="52"/><path style="fill:#fff" d="M217.696 197.225c0-3.785-.391-7.479-1.132-11.044l15.495-8.946-16.884-29.244-15.506 8.952a53.979 53.979 0 0 0-19.118-11.053V128h-33.768v17.89a53.955 53.955 0 0 0-19.118 11.053l-15.506-8.952-16.884 29.244 15.495 8.946a54.233 54.233 0 0 0-1.132 11.044c0 3.785.391 7.479 1.132 11.044l-15.495 8.946 16.884 29.244 15.506-8.952a53.979 53.979 0 0 0 19.118 11.053v17.89h33.768v-17.89a53.955 53.955 0 0 0 19.118-11.053l15.506 8.952 16.884-29.244-15.495-8.946a54.226 54.226 0 0 0 1.132-11.044z"/><path style="fill:#a0e557" d="M217.696 197.225c0-3.785-.391-7.479-1.132-11.044l15.495-8.946-16.884-29.244-15.506 8.952a53.979 53.979 0 0 0-19.118-11.053V128h-33.768v17.89a53.955 53.955 0 0 0-19.118 11.053l-15.506-8.952-16.884 29.244 15.495 8.946a54.233 54.233 0 0 0-1.132 11.044c0 3.785.391 7.479 1.132 11.044l-15.495 8.946 16.884 29.244 15.506-8.952a53.979 53.979 0 0 0 19.118 11.053v17.89h33.768v-17.89a53.955 53.955 0 0 0 19.118-11.053l15.506 8.952 16.884-29.244-15.495-8.946a54.226 54.226 0 0 0 1.132-11.044z"/><path d="M240.93 364.99c-2.63 0-5.21 1.069-7.07 2.93a10.062 10.062 0 0 0-2.93 7.07c0 2.63 1.07 5.21 2.93 7.069 1.86 1.86 4.44 2.931 7.07 2.931s5.21-1.07 7.07-2.931a10.095 10.095 0 0 0 2.93-7.069c0-2.641-1.07-5.21-2.93-7.07a10.076 10.076 0 0 0-7.07-2.93zM431.77 335.12c-2.64 0-5.22 1.069-7.08 2.93a10.053 10.053 0 0 0-2.92 7.07c0 2.63 1.061 5.21 2.92 7.069a10.082 10.082 0 0 0 7.08 2.931c2.63 0 5.2-1.07 7.07-2.931 1.86-1.87 2.93-4.439 2.93-7.069s-1.069-5.21-2.93-7.07a10.09 10.09 0 0 0-7.07-2.93zM135.939 287c-2.63 0-5.21 1.069-7.069 2.93-1.86 1.86-2.931 4.44-2.931 7.07s1.07 5.21 2.931 7.069c1.859 1.86 4.439 2.931 7.069 2.931s5.21-1.07 7.07-2.931c1.86-1.859 2.93-4.439 2.93-7.069s-1.069-5.21-2.93-7.07-4.44-2.93-7.07-2.93z"/><path d="M511.999 108.537c0-5.523-4.478-10-10-10H486.6a108.039 108.039 0 0 0-8.385-20.255l10.886-10.887c3.905-3.905 3.905-10.237 0-14.142L458.747 22.9c-3.906-3.905-10.236-3.905-14.143 0l-10.886 10.886a108.11 108.11 0 0 0-20.255-8.386V10c0-5.522-4.478-10-10-10h-42.927c-5.522 0-10 4.477-10 10v15.437a108.072 108.072 0 0 0-20.212 8.391l-10.929-10.929c-3.906-3.905-10.236-3.905-14.143 0l-30.354 30.354c-2.38 2.381-3.301 5.662-2.78 8.746H40.033C17.959 62 0 79.959 0 102.034v275.933C0 400.041 17.959 418 40.033 418h158.895v34h-23.964c-19.87 0-36.036 16.166-36.036 36.036V502c0 5.522 4.478 10 10 10h184c5.522 0 10-4.478 10-10v-13.964c0-19.87-16.165-36.036-36.035-36.036h-23.965v-34h158.804c22.075 0 40.034-17.959 40.034-40.033V214.081l7.335-7.335a10.001 10.001 0 0 0 0-14.142l-10.929-10.928a108.104 108.104 0 0 0 8.392-20.212h15.437a10.001 10.001 0 0 0 10-10l-.002-42.927zM322.928 488.036V492h-164v-3.964c0-8.843 7.193-16.036 16.036-16.036h131.929c8.841 0 16.035 7.193 16.035 16.036zm-60-36.036h-44v-34h44v34zm198.838-74.033c0 11.046-8.987 20.033-20.034 20.033H40.033C28.987 398 20 389.013 20 377.967v-22.85h371.771c5.522 0 10-4.478 10-10s-4.478-10-10-10H20V307h76.333c5.522 0 10-4.478 10-10s-4.478-10-10-10H20V102.034C20 90.987 28.987 82 40.033 82h243.976a108.13 108.13 0 0 0-6.485 16.537h-15.523a10.001 10.001 0 0 0-10.001 10l.001 42.926c0 5.523 4.478 10 10 10h15.56c2.1 6.979 4.892 13.71 8.349 20.131l-11.01 11.011c-3.905 3.905-3.905 10.237 0 14.142l30.354 30.353c3.906 3.905 10.236 3.905 14.143 0l11.01-11.01a108.072 108.072 0 0 0 20.131 8.349L350.537 250c0 5.522 4.478 10 10 10l42.927-.001c5.522 0 10-4.477 10-10v-15.524a108.072 108.072 0 0 0 20.174-8.342l10.967 10.967a10.003 10.003 0 0 0 14.142 0l3.019-3.019v143.886zM492 141.463h-13.157a10.002 10.002 0 0 0-9.764 7.838 88.354 88.354 0 0 1-11.864 28.578 10.007 10.007 0 0 0 1.348 12.472l9.325 9.325-16.212 16.211-9.353-9.353a10.007 10.007 0 0 0-12.448-1.364 88.35 88.35 0 0 1-28.561 11.809 10 10 0 0 0-7.851 9.766V240h-22.927v-13.281a10 10 0 0 0-7.838-9.764 88.37 88.37 0 0 1-28.52-11.828 9.996 9.996 0 0 0-5.38-1.571 10.01 10.01 0 0 0-7.074 2.93l-9.4 9.401-16.211-16.212 9.4-9.4a10.007 10.007 0 0 0 1.349-12.471 88.345 88.345 0 0 1-11.817-28.503 10 10 0 0 0-9.764-7.838H272l.001-22.926h13.253c4.694 0 8.757-3.266 9.767-7.851a88.337 88.337 0 0 1 11.794-28.538 10.007 10.007 0 0 0-1.349-12.47l-9.354-9.354 16.212-16.211 9.324 9.324c3.429 3.428 8.729 3.845 12.613 1.258a88.312 88.312 0 0 1 28.437-11.773 10.001 10.001 0 0 0 7.838-9.763L370.537 20h22.927v13.13a10 10 0 0 0 7.851 9.766 88.356 88.356 0 0 1 28.629 11.852 10.008 10.008 0 0 0 12.456-1.359l9.276-9.277 16.211 16.212-9.276 9.276a10.006 10.006 0 0 0-1.347 12.473 88.305 88.305 0 0 1 11.839 28.611 10 10 0 0 0 9.767 7.851h13.131v22.928z"/><path d="M382 68c-34.187 0-62 27.813-62 62s27.813 62 62 62 62-27.813 62-62-27.813-62-62-62zm0 104c-23.159 0-42-18.841-42-42s18.841-42 42-42 42 18.841 42 42-18.841 42-42 42zM163.67 187.22c-2.641 0-5.21 1.07-7.07 2.93a10.039 10.039 0 0 0-2.93 7.08c0 2.63 1.06 5.21 2.93 7.07 1.86 1.86 4.43 2.92 7.07 2.92 2.63 0 5.21-1.06 7.07-2.92a10.08 10.08 0 0 0 2.93-7.07c0-2.64-1.07-5.22-2.93-7.08a10.076 10.076 0 0 0-7.07-2.93z"/><path d="M241.719 179.822a9.997 9.997 0 0 0-.999-7.588l-16.885-29.244c-2.761-4.782-8.877-6.422-13.66-3.66l-9.618 5.553a63.245 63.245 0 0 0-10.006-5.786V128c0-5.523-4.478-10-10-10h-33.769c-5.522 0-10 4.477-10 10v11.097a63.323 63.323 0 0 0-10.006 5.786l-9.618-5.553a9.997 9.997 0 0 0-13.66 3.66l-16.884 29.244c-2.762 4.783-1.123 10.898 3.66 13.66l9.622 5.556a64.686 64.686 0 0 0 0 11.548l-9.622 5.556c-4.783 2.761-6.422 8.877-3.66 13.66l16.884 29.244a9.997 9.997 0 0 0 13.66 3.66l9.618-5.553a63.245 63.245 0 0 0 10.006 5.786v11.097c0 5.522 4.478 10 10 10h33.769c5.522 0 10-4.478 10-10v-11.097a63.323 63.323 0 0 0 10.006-5.786l9.618 5.553c4.784 2.761 10.898 1.123 13.66-3.66l16.885-29.244a9.997 9.997 0 0 0-3.66-13.66L227.437 203a64.348 64.348 0 0 0 0-11.549l9.623-5.556a10.009 10.009 0 0 0 4.659-6.073zm-34.946 8.391a44.455 44.455 0 0 1 0 18.024 10 10 0 0 0 4.791 10.693l6.835 3.946-6.885 11.924-6.846-3.952a10 10 0 0 0-11.666 1.207 43.706 43.706 0 0 1-15.575 9.006 10 10 0 0 0-6.877 9.5v7.89h-13.769v-7.89a10 10 0 0 0-6.877-9.5 43.712 43.712 0 0 1-15.575-9.006 9.998 9.998 0 0 0-11.666-1.207l-6.846 3.952-6.884-11.924 6.834-3.946a10 10 0 0 0 4.791-10.693 44.482 44.482 0 0 1 0-18.024 10 10 0 0 0-4.791-10.693l-6.834-3.946 6.884-11.923 6.846 3.952a9.998 9.998 0 0 0 11.666-1.207 43.706 43.706 0 0 1 15.575-9.006 10 10 0 0 0 6.877-9.5V138h13.769v7.89a10 10 0 0 0 6.877 9.5 43.712 43.712 0 0 1 15.575 9.006 10.002 10.002 0 0 0 11.666 1.207l6.846-3.953 6.885 11.924-6.835 3.946a10.002 10.002 0 0 0-4.791 10.693z"/></svg>