<svg viewBox="-27 0 512 512.001" xmlns="http://www.w3.org/2000/svg"><path d="M32.309 256.488c0 65.778 32.68 123.922 82.687 159.082 8.813 6.2 9.281 19.07.817 25.735l-.239.187c-5.527 4.352-13.277 4.64-19.035.598C38.16 401.09 0 333.242 0 256.488 0 131.992 103.05 30.926 227.297 29.863V62.18C120.883 63.234 32.309 149.828 32.309 256.488zm0 0" fill="#1ed688"/><path d="m233.23.965 59.375 40.613c3.18 2.176 3.18 6.867 0 9.043L233.23 91.234c-3.636 2.489-8.57-.117-8.57-4.52V5.489c0-4.406 4.934-7.008 8.57-4.523zm0 0" fill="#1ab975"/><path d="M425.383 255.512c0-65.778-32.684-123.922-82.692-159.082-8.812-6.2-9.28-19.07-.816-25.735l.238-.187c5.528-4.352 13.278-4.64 19.035-.598 58.383 41 96.54 108.848 96.54 185.602 0 124.496-102.875 225.562-227.125 226.625V449.82c106.414-1.054 194.82-87.644 194.82-194.308zm0 0" fill="#1ed688"/><path d="m224.46 511.035-59.374-40.613c-3.18-2.176-3.18-6.867 0-9.043l59.375-40.613c3.633-2.489 8.57.117 8.57 4.52v81.226c0 4.406-4.937 7.011-8.57 4.523zm0 0" fill="#1ab975"/><path d="m329.629 230.82-97.258 80.657-24.52 20.336c-5.777 4.785-13.09 7.382-20.527 7.382-1.238 0-2.476-.07-3.726-.215-8.676-1.02-16.66-5.62-21.899-12.617l-37.82-50.414c-8.54-11.386-6.23-27.55 5.16-36.105 11.398-8.54 27.563-6.23 36.106 5.16l25.53 34.043.208-.168 105.828-87.766c10.965-9.086 27.223-7.57 36.312 3.395 9.09 10.965 7.57 27.222-3.394 36.312zm0 0" fill="#1ed688"/><path d="m329.629 230.82-97.258 80.657c-15.906-7.942-29.894-18.918-41.488-32.598l105.828-87.766c10.965-9.086 27.223-7.57 36.312 3.395 9.09 10.965 7.57 27.222-3.394 36.312zm0 0" fill="#35e298"/></svg>