<svg xmlns="http://www.w3.org/2000/svg" xmlns:xlink="http://www.w3.org/1999/xlink" viewBox="0 0 1919.5 748.5" style="enable-background:new 0 0 1919.5 748.5" xml:space="preserve"><defs><path id="a" d="M-12-2.3h2088.5v753.1H-12z"/></defs><clipPath id="b"><use xlink:href="#a" style="overflow:visible"/></clipPath><g style="clip-path:url(#b)"><defs><path id="c" transform="rotate(-90 1044.263 696.926)" d="M-1.7-347.3h2092v2088.5H-1.7z"/></defs><clipPath id="d"><use xlink:href="#c" style="overflow:visible"/></clipPath><g style="clip-path:url(#d)"><linearGradient id="e" gradientUnits="userSpaceOnUse" x1="-271.389" y1="835.386" x2="-269.233" y2="833.23" gradientTransform="matrix(0 -91 200 0 -165879 -25381.5)"><stop offset="0" style="stop-color:#2b2b2b"/><stop offset="1" style="stop-color:#343434"/></linearGradient><path style="fill:url(#e)" d="m795.6-697.9 148.7-196.4 282.4 51.8z"/><linearGradient id="f" gradientUnits="userSpaceOnUse" x1="-270.748" y1="838.928" x2="-268.591" y2="836.771" gradientTransform="matrix(0 -92 131 0 -108712.5 -25723.5)"><stop offset="0" style="stop-color:#3f3f3f"/><stop offset="1" style="stop-color:#323232"/></linearGradient><path style="fill:url(#f)" d="m944.3-894.3 49.6-146.8 232.8 198.6z"/><linearGradient id="g" gradientUnits="userSpaceOnUse" x1="-276.678" y1="837.103" x2="-274.521" y2="834.946" gradientTransform="matrix(0 -665 95 0 -79378.5 -182094.5)"><stop offset="0" style="stop-color:#a8a8a8"/><stop offset="1" style="stop-color:#a2a2a2"/></linearGradient><path style="fill:url(#g)" d="m-14.8 1756.7 181.1-708.1-204.8-727.5z"/><linearGradient id="h" gradientUnits="userSpaceOnUse" x1="-273.708" y1="831.518" x2="-271.55" y2="829.36" gradientTransform="matrix(0 -253 382 0 -316866 -69931.5)"><stop offset="0" style="stop-color:#414141"/><stop offset="1" style="stop-color:#7d7d7d"/></linearGradient><path style="fill:url(#h)" d="M795.6-697.9-27.7-857.6l493.6-386.5z"/><linearGradient id="i" gradientUnits="userSpaceOnUse" x1="-273.624" y1="834.177" x2="-271.467" y2="832.02" gradientTransform="matrix(0 -253 222 0 -184237 -69931.5)"><stop offset="0" style="stop-color:#373737"/><stop offset="1" style="stop-color:#434343"/></linearGradient><path style="fill:url(#i)" d="m795.6-697.9 148.7-196.4-478.4-349.8z"/><linearGradient id="j" gradientUnits="userSpaceOnUse" x1="-272.616" y1="832.861" x2="-270.454" y2="830.7" gradientTransform="matrix(0 -179 229 0 -190258.5 -49655.5)"><stop offset="0" style="stop-color:#929292"/><stop offset="1" style="stop-color:#5d5d5d"/></linearGradient><path style="fill:url(#j)" d="m-27.7-857.6 170.3-315.2 323.3-71.3z"/><linearGradient id="k" gradientUnits="userSpaceOnUse" x1="-272.066" y1="833.904" x2="-269.909" y2="831.747" gradientTransform="matrix(0 -162 245 0 -203269.5 -44997.5)"><stop offset="0" style="stop-color:#363636"/><stop offset="1" style="stop-color:#343434"/></linearGradient><path style="fill:url(#k)" d="m944.3-894.3 49.6-146.8-528-203z"/><linearGradient id="l" gradientUnits="userSpaceOnUse" x1="-275.593" y1="835.352" x2="-273.437" y2="833.196" gradientTransform="matrix(0 -546 123 0 -102548.5 -150034.5)"><stop offset="0" style="stop-color:#ddd"/><stop offset="1" style="stop-color:#c7c7c7"/></linearGradient><path style="fill:url(#l)" d="m-38.5 321.1 10.8-1178.7 254.3 477z"/><linearGradient id="m" gradientUnits="userSpaceOnUse" x1="-276.271" y1="836.852" x2="-274.115" y2="834.695" gradientTransform="matrix(0 -170 165 0 -136935.5 -46594.5)"><stop offset="0" style="stop-color:#4d4d4d"/><stop offset="1" style="stop-color:#525252"/></linearGradient><path style="fill:url(#m)" d="m754.7 195.8 288.8-155.4 66.8 367z"/><linearGradient id="n" gradientUnits="userSpaceOnUse" x1="-275.899" y1="857.244" x2="-273.741" y2="855.086" gradientTransform="matrix(0 -202 48 0 -39984 -55394.5)"><stop offset="0" style="stop-color:#525252"/><stop offset="1" style="stop-color:#3d3d3d"/></linearGradient><path style="fill:url(#n)" d="m1043.5 40.4 103.4-69.1-36.6 436.1z"/><linearGradient id="o" gradientUnits="userSpaceOnUse" x1="-273.289" y1="838.822" x2="-271.132" y2="836.665" gradientTransform="matrix(0 -234 79 0 -66133.5 -64780.5)"><stop offset="0" style="stop-color:#9e9e9e"/><stop offset="1" style="stop-color:#737373"/></linearGradient><path style="fill:url(#o)" d="m-27.7-857.6 170.3-315.2-36.7-190z"/><linearGradient id="p" gradientUnits="userSpaceOnUse" x1="-268.505" y1="834.193" x2="-266.348" y2="832.037" gradientTransform="matrix(0 -88 167 0 -138891.5 -24776.5)"><stop offset="0" style="stop-color:#585858"/><stop offset="1" style="stop-color:#5b5b5b"/></linearGradient><path style="fill:url(#p)" d="m142.6-1172.8 323.3-71.3-360-118.7z"/><linearGradient id="q" gradientUnits="userSpaceOnUse" x1="-272.077" y1="840.413" x2="-269.92" y2="838.256" gradientTransform="matrix(0 -250 158 0 -130649 -69474.5)"><stop offset="0" style="stop-color:#616161"/><stop offset="1" style="stop-color:#555"/></linearGradient><path style="fill:url(#q)" d="m1819.4-1492.3 245.7-539.7 94.8 256.9z"/><linearGradient id="r" gradientUnits="userSpaceOnUse" x1="-278.12" y1="835.948" x2="-275.962" y2="833.79" gradientTransform="matrix(0 -328 115 0 -95917.5 -89419.5)"><stop offset="0" style="stop-color:#666"/><stop offset="1" style="stop-color:#727272"/></linearGradient><path style="fill:url(#r)" d="m-14.8 1756.7 181.1-708.1 66.8 574.2z"/><linearGradient id="s" gradientUnits="userSpaceOnUse" x1="-276.099" y1="835.672" x2="-273.942" y2="833.516" gradientTransform="matrix(0 -143 179 0 -148565.5 -39267.5)"><stop offset="0" style="stop-color:#878787"/><stop offset="1" style="stop-color:#a2a2a2"/></linearGradient><path style="fill:url(#s)" d="m754.7 195.8 288.8-155.4-385.8-153.3z"/><linearGradient id="t" gradientUnits="userSpaceOnUse" x1="-275.297" y1="835.826" x2="-273.141" y2="833.67" gradientTransform="matrix(0 -172 179 0 -148565.5 -47314.5)"><stop offset="0" style="stop-color:#999"/><stop offset="1" style="stop-color:#cacaca"/></linearGradient><path style="fill:url(#t)" d="M1043.5 40.4 899.1-330.9l-241.4 218z"/><linearGradient id="u" gradientUnits="userSpaceOnUse" x1="-278.457" y1="832.841" x2="-276.301" y2="830.685" gradientTransform="matrix(0 -266 258 0 -214166 -72431.5)"><stop offset="0" style="stop-color:#d6d6d6"/><stop offset="1" style="stop-color:#737373"/></linearGradient><path style="fill:url(#u)" d="m233.1 1622.8-66.8-574.2 556 131.7z"/><linearGradient id="v" gradientUnits="userSpaceOnUse" x1="-280.534" y1="833.114" x2="-278.378" y2="830.958" gradientTransform="matrix(0 -116 258 0 -214166 -31386.5)"><stop offset="0" style="stop-color:#8d8d8d"/><stop offset="1" style="stop-color:#7a7a7a"/></linearGradient><path style="fill:url(#v)" d="m166.3 1048.6 482.8-118.8 73.2 250.5z"/><linearGradient id="w" gradientUnits="userSpaceOnUse" x1="-266.722" y1="844.532" x2="-264.566" y2="842.376" gradientTransform="matrix(0 -17 83 0 -69013.5 -4857.5)"><stop offset="0" style="stop-color:#c6c6c6"/><stop offset="1" style="stop-color:#939393"/></linearGradient><path style="fill:url(#w)" d="m899.1-330.9 155.2-28.1 23.7 36.7z"/><linearGradient id="x" gradientUnits="userSpaceOnUse" x1="-273.215" y1="842.849" x2="-271.058" y2="840.691" gradientTransform="matrix(0 -81 100 0 -83009 -22457.5)"><stop offset="0" style="stop-color:#a6a6a6"/><stop offset="1" style="stop-color:#bbb"/></linearGradient><path style="fill:url(#x)" d="m1054.3-359 215.5-138.1L1078-322.3z"/><linearGradient id="y" gradientUnits="userSpaceOnUse" x1="-274.896" y1="844.899" x2="-272.739" y2="842.742" gradientTransform="matrix(0 -172 83 0 -69013.5 -47314.5)"><stop offset="0" style="stop-color:#a3a3a3"/><stop offset="1" style="stop-color:#c3c3c3"/></linearGradient><path style="fill:url(#y)" d="M1043.5 40.4 899.1-330.9l178.9 8.6z"/><linearGradient id="z" gradientUnits="userSpaceOnUse" x1="-275.685" y1="856.536" x2="-273.528" y2="854.379" gradientTransform="matrix(0 -168 48 0 -39984 -46214.5)"><stop offset="0" style="stop-color:#777"/><stop offset="1" style="stop-color:#737373"/></linearGradient><path style="fill:url(#z)" d="m1043.5 40.4 103.4-69.1-68.9-293.6z"/><linearGradient id="A" gradientUnits="userSpaceOnUse" x1="-266.951" y1="864.978" x2="-264.794" y2="862.821" gradientTransform="matrix(0 -119 53 0 -43647.5 -33580.5)"><stop offset="0" style="stop-color:#3a3a3a"/><stop offset="1" style="stop-color:#434343"/></linearGradient><path style="fill:url(#A)" d="m2159.9-1775.1-94.8-256.9 114.2 60.4z"/><linearGradient id="B" gradientUnits="userSpaceOnUse" x1="-278.942" y1="838.529" x2="-276.787" y2="836.374" gradientTransform="matrix(0 -215 145 0 -120271.5 -58452.5)"><stop offset="0" style="stop-color:#1d1d1d"/><stop offset="1" style="stop-color:#4f4f4f"/></linearGradient><path style="fill:url(#B)" d="m1215.9 1523.5-215.5-12.9 312.5-451.2z"/><linearGradient id="C" gradientUnits="userSpaceOnUse" x1="-277.768" y1="835.149" x2="-275.611" y2="832.992" gradientTransform="matrix(0 -194 242 0 -200570 -52892.5)"><stop offset="0" style="stop-color:#3c3c3c"/><stop offset="1" style="stop-color:#2c2c2c"/></linearGradient><path style="fill:url(#C)" d="m1312.9 1059.4 142.2-373.5-521.5-45.3z"/><linearGradient id="D" gradientUnits="userSpaceOnUse" x1="-279.988" y1="834.782" x2="-277.83" y2="832.624" gradientTransform="matrix(0 -81 242 0 -200570 -21990.5)"><stop offset="0" style="stop-color:#2b2b2b"/><stop offset="1" style="stop-color:#505050"/></linearGradient><path style="fill:url(#D)" d="M1455.1 685.9 1287 511 933.6 640.6z"/><linearGradient id="E" gradientUnits="userSpaceOnUse" x1="-278.73" y1="837.029" x2="-276.573" y2="834.872" gradientTransform="matrix(0 -108 164 0 -136025 -29436.5)"><stop offset="0" style="stop-color:#646464"/><stop offset="1" style="stop-color:#4c4c4c"/></linearGradient><path style="fill:url(#E)" d="m1287 511-176.7-103.6-176.7 233.2z"/><linearGradient id="F" gradientUnits="userSpaceOnUse" x1="-276.816" y1="836.657" x2="-274.658" y2="834.499" gradientTransform="matrix(0 -206 165 0 -136935.5 -56386.5)"><stop offset="0" style="stop-color:#484848"/><stop offset="1" style="stop-color:#4c4c4c"/></linearGradient><path style="fill:url(#F)" d="M1110.3 407.4 754.7 195.8l178.9 444.8z"/><linearGradient id="G" gradientUnits="userSpaceOnUse" x1="-261.701" y1="834.857" x2="-259.543" y2="832.699" gradientTransform="matrix(0 -79 157 0 -130592.5 -22700.5)"><stop offset="0" style="stop-color:#8c8c8c"/><stop offset="1" style="stop-color:#484848"/></linearGradient><path style="fill:url(#G)" d="m157.7-2034.2 338.3-15.1-64.6-155.4z"/><linearGradient id="H" gradientUnits="userSpaceOnUse" x1="-278.838" y1="838.638" x2="-276.682" y2="836.481" gradientTransform="matrix(0 -210 129 0 -107160.5 -57083.5)"><stop offset="0" style="stop-color:#818181"/><stop offset="1" style="stop-color:#4d4d4d"/></linearGradient><path style="fill:url(#H)" d="m1000.4 1510.6-278.1-330.3 168.2-123.1z"/><linearGradient id="I" gradientUnits="userSpaceOnUse" x1="-278.882" y1="836.047" x2="-276.724" y2="833.889" gradientTransform="matrix(0 -210 196 0 -162525 -57083.5)"><stop offset="0" style="stop-color:#5b5b5b"/><stop offset="1" style="stop-color:#333"/></linearGradient><path style="fill:url(#I)" d="m1000.4 1510.6 312.5-451.2-422.4-2.2z"/><linearGradient id="J" gradientUnits="userSpaceOnUse" x1="-280.857" y1="839.331" x2="-278.701" y2="837.174" gradientTransform="matrix(0 -116 112 0 -93127 -31386.5)"><stop offset="0" style="stop-color:#3c3c3c"/><stop offset="1" style="stop-color:#393939"/></linearGradient><path style="fill:url(#J)" d="m722.3 1180.3-73.2-250.5 241.4 127.4z"/><linearGradient id="K" gradientUnits="userSpaceOnUse" x1="-278.583" y1="835.427" x2="-276.425" y2="833.27" gradientTransform="matrix(0 -194 196 0 -162525 -52892.5)"><stop offset="0" style="stop-color:#3f3f3f"/><stop offset="1" style="stop-color:#353535"/></linearGradient><path style="fill:url(#K)" d="M1312.9 1059.4 933.6 640.6l-43.1 416.6z"/><linearGradient id="L" gradientUnits="userSpaceOnUse" x1="-272.848" y1="839.901" x2="-270.692" y2="837.744" gradientTransform="matrix(0 -236 156 0 -129110 -65388.5)"><stop offset="0" style="stop-color:#494949"/><stop offset="1" style="stop-color:#3d3d3d"/></linearGradient><path style="fill:url(#L)" d="m1569.4-1166.4 250-325.9 86.2 509.4z"/><linearGradient id="M" gradientUnits="userSpaceOnUse" x1="-273.965" y1="841.484" x2="-271.806" y2="839.325" gradientTransform="matrix(0 -413 62 0 -52066 -114005.5)"><stop offset="0" style="stop-color:#aeaeae"/><stop offset="1" style="stop-color:#757575"/></linearGradient><path style="fill:url(#M)" d="m-27.7-857.6 133.6-505.2v-386.4z"/><linearGradient id="N" gradientUnits="userSpaceOnUse" x1="-271.375" y1="909.872" x2="-269.218" y2="907.716" gradientTransform="matrix(0 -179 10 0 -8974 -49889.5)"><stop offset="0" style="stop-color:#6a6a6a"/><stop offset="1" style="stop-color:#4d4d4d"/></linearGradient><path style="fill:url(#N)" d="m105.9-1362.8 21.6-187.8-21.6-198.6z"/><linearGradient id="O" gradientUnits="userSpaceOnUse" x1="-268.485" y1="834.105" x2="-266.326" y2="831.946" gradientTransform="matrix(0 -139 181 0 -150476.5 -39068.5)"><stop offset="0" style="stop-color:#888"/><stop offset="1" style="stop-color:#494949"/></linearGradient><path style="fill:url(#O)" d="m157.7-2034.2 338.3-15.1-390.1 300.1z"/><linearGradient id="P" gradientUnits="userSpaceOnUse" x1="-272.028" y1="833.533" x2="-269.871" y2="831.376" gradientTransform="matrix(0 -166 245 0 -203269.5 -46165.5)"><stop offset="0" style="stop-color:#202020"/><stop offset="1" style="stop-color:#454545"/></linearGradient><path style="fill:url(#P)" d="m993.9-1041.1-528-203 36.6-155.4z"/><linearGradient id="Q" gradientUnits="userSpaceOnUse" x1="-265.773" y1="834.443" x2="-263.617" y2="832.286" gradientTransform="matrix(0 -72 184 0 -152959 -20409.5)"><stop offset="0" style="stop-color:#4e4e4e"/><stop offset="1" style="stop-color:#5d5d5d"/></linearGradient><path style="fill:url(#Q)" d="m465.9-1244.1-360-118.7 396.6-36.7z"/><linearGradient id="R" gradientUnits="userSpaceOnUse" x1="-267.407" y1="833.596" x2="-265.25" y2="831.439" gradientTransform="matrix(0 -87 184 0 -152959 -24589.5)"><stop offset="0" style="stop-color:#5e5e5e"/><stop offset="1" style="stop-color:#464646"/></linearGradient><path style="fill:url(#R)" d="m105.9-1362.8 21.6-187.8 375 151.1z"/><linearGradient id="S" gradientUnits="userSpaceOnUse" x1="-275.676" y1="835.041" x2="-273.517" y2="832.883" gradientTransform="matrix(0 -325 134 0 -111651 -89259.5)"><stop offset="0" style="stop-color:#e3e3e3"/><stop offset="1" style="stop-color:#b5b5b5"/></linearGradient><path style="fill:url(#S)" d="m-38.5 321.1 265.1-701.7 23.7 567.8z"/><linearGradient id="T" gradientUnits="userSpaceOnUse" x1="-273.553" y1="847.015" x2="-271.396" y2="844.859" gradientTransform="matrix(0 -167 97 0 -80218.5 -46173.5)"><stop offset="0" style="stop-color:#2c2c2c"/><stop offset="1" style="stop-color:#323232"/></linearGradient><path style="fill:url(#T)" d="m1808.6-464.7 118.5-360.6-209 259.1z"/><linearGradient id="U" gradientUnits="userSpaceOnUse" x1="-271.287" y1="846.441" x2="-269.13" y2="844.284" gradientTransform="matrix(0 -36 72 0 -59911 -10086.5)"><stop offset="0" style="stop-color:#c2c2c2"/><stop offset="1" style="stop-color:#a8a8a8"/></linearGradient><path style="fill:url(#U)" d="m899.1-330.9 155.2-28.1-86.3-49.6z"/><linearGradient id="V" gradientUnits="userSpaceOnUse" x1="-274.252" y1="844.237" x2="-272.095" y2="842.08" gradientTransform="matrix(0 -170 80 0 -66579 -46936.5)"><stop offset="0" style="stop-color:#d0d0d0"/><stop offset="1" style="stop-color:#959595"/></linearGradient><path style="fill:url(#V)" d="m899.1-330.9-103.5-367L968-408.6z"/><linearGradient id="W" gradientUnits="userSpaceOnUse" x1="-272.354" y1="838.861" x2="-270.197" y2="836.704" gradientTransform="matrix(0 -64 140 0 -116149 -17799.5)"><stop offset="0" style="stop-color:#b0b0b0"/><stop offset="1" style="stop-color:#dadada"/></linearGradient><path style="fill:url(#W)" d="m1054.3-359 215.5-138.1L968-408.6z"/><linearGradient id="X" gradientUnits="userSpaceOnUse" x1="-274.15" y1="838.63" x2="-271.992" y2="836.471" gradientTransform="matrix(0 -201 140 0 -116149 -55497.5)"><stop offset="0" style="stop-color:#c1c1c1"/><stop offset="1" style="stop-color:#999"/></linearGradient><path style="fill:url(#X)" d="m1269.8-497.1-43.1-345.4L968-408.6z"/><linearGradient id="Y" gradientUnits="userSpaceOnUse" x1="-273.858" y1="835.745" x2="-271.701" y2="833.588" gradientTransform="matrix(0 -201 200 0 -165879 -55497.5)"><stop offset="0" style="stop-color:#313131"/><stop offset="1" style="stop-color:#707070"/></linearGradient><path style="fill:url(#Y)" d="m795.6-697.9 431.1-144.6L968-408.6z"/><linearGradient id="Z" gradientUnits="userSpaceOnUse" x1="-274.171" y1="834.31" x2="-272.012" y2="832.152" gradientTransform="matrix(0 -170 211 0 -175144.5 -46936.5)"><stop offset="0" style="stop-color:#a3a3a3"/><stop offset="1" style="stop-color:#6a6a6a"/></linearGradient><path style="fill:url(#Z)" d="m899.1-330.9-103.5-367L444.3-400z"/><linearGradient id="aa" gradientUnits="userSpaceOnUse" x1="-274.452" y1="832.777" x2="-272.296" y2="830.62" gradientTransform="matrix(0 -221 219 0 -181983.5 -60984.5)"><stop offset="0" style="stop-color:#b5b5b5"/><stop offset="1" style="stop-color:#bbb"/></linearGradient><path style="fill:url(#aa)" d="m226.6-380.6-254.3-477 472 457.6z"/><linearGradient id="ab" gradientUnits="userSpaceOnUse" x1="-274.023" y1="831.697" x2="-271.865" y2="829.539" gradientTransform="matrix(0 -212 382 0 -316866 -58518.5)"><stop offset="0" style="stop-color:#707070"/><stop offset="1" style="stop-color:#bebebe"/></linearGradient><path style="fill:url(#ab)" d="M795.6-697.9-27.7-857.6l472 457.6z"/><linearGradient id="ac" gradientUnits="userSpaceOnUse" x1="-274.671" y1="834.454" x2="-272.513" y2="832.297" gradientTransform="matrix(0 -133 211 0 -175144.5 -36660.5)"><stop offset="0" style="stop-color:#a4a4a4"/><stop offset="1" style="stop-color:#b6b6b6"/></linearGradient><path style="fill:url(#ac)" d="m657.7-112.9 241.4-218L444.3-400z"/><linearGradient id="ad" gradientUnits="userSpaceOnUse" x1="-272.571" y1="840.769" x2="-270.414" y2="838.612" gradientTransform="matrix(0 -193 118 0 -97932 -53498.5)"><stop offset="0" style="stop-color:#333"/><stop offset="1" style="stop-color:#222"/></linearGradient><path style="fill:url(#ad)" d="m1226.7-842.5-232.8-198.6 254.3-218.1z"/><linearGradient id="ae" gradientUnits="userSpaceOnUse" x1="-273.91" y1="836.126" x2="-271.753" y2="833.969" gradientTransform="matrix(0 -157 208 0 -172279 -43438.5)"><stop offset="0" style="stop-color:#848484"/><stop offset="1" style="stop-color:#464646"/></linearGradient><path style="fill:url(#ae)" d="m1269.8-497.1 448.3-69.1-331.9-269.9z"/><linearGradient id="af" gradientUnits="userSpaceOnUse" x1="-273.404" y1="848.788" x2="-271.246" y2="846.63" gradientTransform="matrix(0 -160 74 0 -61414 -44263.5)"><stop offset="0" style="stop-color:#878787"/><stop offset="1" style="stop-color:#474747"/></linearGradient><path style="fill:url(#af)" d="m1269.8-497.1-43.1-345.4 159.5 6.4z"/><linearGradient id="ag" gradientUnits="userSpaceOnUse" x1="-272.525" y1="835.906" x2="-270.367" y2="833.749" gradientTransform="matrix(0 -125 251 0 -207807.5 -34670.5)"><stop offset="0" style="stop-color:#4a4a4a"/><stop offset="1" style="stop-color:#484848"/></linearGradient><path style="fill:url(#ag)" d="m1718.1-566.2 209-259.1-540.9-10.8z"/><linearGradient id="ah" gradientUnits="userSpaceOnUse" x1="-269.37" y1="835.612" x2="-267.215" y2="833.457" gradientTransform="matrix(0 -73 251 0 -207807.5 -20490.5)"><stop offset="0" style="stop-color:#3b3b3b"/><stop offset="1" style="stop-color:#505050"/></linearGradient><path style="fill:url(#ah)" d="m1927.1-825.3-21.5-157.6-519.4 146.8z"/><linearGradient id="ai" gradientUnits="userSpaceOnUse" x1="-273.337" y1="848.194" x2="-271.18" y2="846.037" gradientTransform="matrix(0 -196 74 0 -61414 -54320.5)"><stop offset="0" style="stop-color:#343434"/><stop offset="1" style="stop-color:#3a3a3a"/></linearGradient><path style="fill:url(#ai)" d="m1226.7-842.5 21.5-416.7 138 423.1z"/><linearGradient id="aj" gradientUnits="userSpaceOnUse" x1="-272.582" y1="835.543" x2="-270.426" y2="833.386" gradientTransform="matrix(0 -153 241 0 -199532.5 -42495.5)"><stop offset="0" style="stop-color:#3c3c3c"/><stop offset="1" style="stop-color:#4c4c4c"/></linearGradient><path style="fill:url(#aj)" d="m1905.6-982.9-336.2-183.5-183.2 330.3z"/><linearGradient id="ak" gradientUnits="userSpaceOnUse" x1="-272.767" y1="839.282" x2="-270.609" y2="837.124" gradientTransform="matrix(0 -196 149 0 -123466.5 -54320.5)"><stop offset="0" style="stop-color:#555"/><stop offset="1" style="stop-color:#464646"/></linearGradient><path style="fill:url(#ak)" d="m1569.4-1166.4-321.2-92.8 138 423.1z"/><linearGradient id="al" gradientUnits="userSpaceOnUse" x1="-274.113" y1="838.72" x2="-271.955" y2="836.563" gradientTransform="matrix(0 -114 101 0 -84220.5 -31454.5)"><stop offset="0" style="stop-color:silver"/><stop offset="1" style="stop-color:#cbcbcb"/></linearGradient><path style="fill:url(#al)" d="M226.6-380.6 444.3-400l-34.5 246.1z"/><linearGradient id="am" gradientUnits="userSpaceOnUse" x1="-275.652" y1="839.741" x2="-273.496" y2="837.584" gradientTransform="matrix(0 -263 85 0 -70980.5 -72271.5)"><stop offset="0" style="stop-color:#a0a0a0"/><stop offset="1" style="stop-color:#c6c6c6"/></linearGradient><path style="fill:url(#am)" d="m250.3 187.2-23.7-567.8 183.2 226.7z"/><linearGradient id="an" gradientUnits="userSpaceOnUse" x1="-275.18" y1="837.685" x2="-273.023" y2="835.528" gradientTransform="matrix(0 -133 115 0 -95720.5 -36660.5)"><stop offset="0" style="stop-color:#cecece"/><stop offset="1" style="stop-color:#d3d3d3"/></linearGradient><path style="fill:url(#an)" d="M657.7-112.9 444.3-400l-34.5 246.1z"/><linearGradient id="ao" gradientUnits="userSpaceOnUse" x1="-274.134" y1="838.605" x2="-271.972" y2="836.444" gradientTransform="matrix(0 -249 192 0 -158789 -68723.5)"><stop offset="0" style="stop-color:#3f3f3f"/><stop offset="1" style="stop-color:#424242"/></linearGradient><path style="fill:url(#ao)" d="m1808.6-464.7 118.5-360.6 295.3-177z"/><linearGradient id="ap" gradientUnits="userSpaceOnUse" x1="-269.967" y1="841.732" x2="-267.808" y2="839.574" gradientTransform="matrix(0 -82 147 0 -121506.5 -22965.5)"><stop offset="0" style="stop-color:#3b3b3b"/><stop offset="1" style="stop-color:#4a4a4a"/></linearGradient><path style="fill:url(#ap)" d="m1927.1-825.3-21.5-157.6 316.8-19.4z"/><linearGradient id="aq" gradientUnits="userSpaceOnUse" x1="-275.159" y1="838.635" x2="-273.003" y2="836.478" gradientTransform="matrix(0 -775 199 0 -164581.5 -212847.5)"><stop offset="0" style="stop-color:#515151"/><stop offset="1" style="stop-color:#434343"/></linearGradient><path style="fill:url(#aq)" d="M2237.5 670.8 1808.6-464.7l413.8-537.6z"/><linearGradient id="ar" gradientUnits="userSpaceOnUse" x1="-276.428" y1="834.056" x2="-274.271" y2="831.899" gradientTransform="matrix(0 -347 177 0 -147233.5 -94972.5)"><stop offset="0" style="stop-color:#737373"/><stop offset="1" style="stop-color:#afafaf"/></linearGradient><path style="fill:url(#ar)" d="M166.3 1048.6-38.5 321.1 343 299.5z"/><linearGradient id="as" gradientUnits="userSpaceOnUse" x1="-278.445" y1="833.636" x2="-276.287" y2="831.478" gradientTransform="matrix(0 -62 177 0 -147233.5 -16934.5)"><stop offset="0" style="stop-color:#cfcfcf"/><stop offset="1" style="stop-color:#979797"/></linearGradient><path style="fill:url(#as)" d="m-38.5 321.1 288.8-133.9L343 299.5z"/><linearGradient id="at" gradientUnits="userSpaceOnUse" x1="-276.142" y1="834.409" x2="-273.984" y2="832.251" gradientTransform="rotate(-90 -105530.5 53111) scale(191)"><stop offset="0" style="stop-color:#868686"/><stop offset="1" style="stop-color:#a9a9a9"/></linearGradient><path style="fill:url(#at)" d="m754.7 195.8-97-308.7L343 299.5z"/><linearGradient id="au" gradientUnits="userSpaceOnUse" x1="-275.789" y1="841.714" x2="-273.633" y2="839.557" gradientTransform="matrix(0 -210 74 0 -61867 -57644.5)"><stop offset="0" style="stop-color:#a7a7a7"/><stop offset="1" style="stop-color:#bababa"/></linearGradient><path style="fill:url(#au)" d="m250.3 187.2 159.5-341.1L343 299.5z"/><linearGradient id="av" gradientUnits="userSpaceOnUse" x1="-275.97" y1="835.99" x2="-273.815" y2="833.834" gradientTransform="matrix(0 -210 146 0 -121404 -57644.5)"><stop offset="0" style="stop-color:#b7b7b7"/><stop offset="1" style="stop-color:#b3b3b3"/></linearGradient><path style="fill:url(#av)" d="m657.7-112.9-247.9-41L343 299.5z"/><linearGradient id="aw" gradientUnits="userSpaceOnUse" x1="-271.606" y1="835.378" x2="-269.449" y2="833.221" gradientTransform="matrix(0 -250 283 0 -234255.5 -69474.5)"><stop offset="0" style="stop-color:#363636"/><stop offset="1" style="stop-color:#404040"/></linearGradient><path style="fill:url(#aw)" d="m1819.4-1492.3 245.7-539.7-610 64.7z"/><linearGradient id="ax" gradientUnits="userSpaceOnUse" x1="-279.527" y1="832.55" x2="-277.369" y2="830.392" gradientTransform="matrix(0 -205 290 0 -240615 -55656.5)"><stop offset="0" style="stop-color:#d1d1d1"/><stop offset="1" style="stop-color:#919191"/></linearGradient><path style="fill:url(#ax)" d="m233.1 1622.8 489.2-442.5 135.8 341z"/><linearGradient id="ay" gradientUnits="userSpaceOnUse" x1="-280.637" y1="838.198" x2="-278.48" y2="836.041" gradientTransform="matrix(0 -158 129 0 -107160.5 -42778.5)"><stop offset="0" style="stop-color:#a9a9a9"/><stop offset="1" style="stop-color:#929292"/></linearGradient><path style="fill:url(#ay)" d="m1000.4 1510.6-278.1-330.3 135.8 341z"/><linearGradient id="az" gradientUnits="userSpaceOnUse" x1="-276.607" y1="836.613" x2="-274.449" y2="834.455" gradientTransform="matrix(0 -296 212 0 -175503 -81115.5)"><stop offset="0" style="stop-color:#2e2e2e"/><stop offset="1" style="stop-color:#3c3c3c"/></linearGradient><path style="fill:url(#az)" d="M1455.1 685.9 1912 569.3 1698.7 46.9z"/><linearGradient id="aA" gradientUnits="userSpaceOnUse" x1="-276.208" y1="837.333" x2="-274.051" y2="835.177" gradientTransform="matrix(0 -296 191 0 -158203.5 -81115.5)"><stop offset="0" style="stop-color:#303030"/><stop offset="1" style="stop-color:#5b5b5b"/></linearGradient><path style="fill:url(#aA)" d="M1455.1 685.9 1287 511l411.7-464.1z"/><linearGradient id="aB" gradientUnits="userSpaceOnUse" x1="-275.879" y1="836.158" x2="-273.722" y2="834.001" gradientTransform="matrix(0 -526 250 0 -206835 -144372.5)"><stop offset="0" style="stop-color:#545454"/><stop offset="1" style="stop-color:#4a4a4a"/></linearGradient><path style="fill:url(#aB)" d="M2237.5 670.8 1808.6-464.7 1698.7 46.9z"/><linearGradient id="aC" gradientUnits="userSpaceOnUse" x1="-276.598" y1="836.053" x2="-274.441" y2="833.896" gradientTransform="matrix(0 -289 250 0 -206835 -79197.5)"><stop offset="0" style="stop-color:#424242"/><stop offset="1" style="stop-color:#353535"/></linearGradient><path style="fill:url(#aC)" d="M2237.5 670.8 1912 569.3 1698.7 46.9z"/><linearGradient id="aD" gradientUnits="userSpaceOnUse" x1="-272.201" y1="865.431" x2="-270.044" y2="863.274" gradientTransform="matrix(0 -62 46 0 -38020 -17283.5)"><stop offset="0" style="stop-color:#2b2b2b"/><stop offset="1" style="stop-color:#323232"/></linearGradient><path style="fill:url(#aD)" d="m1808.6-464.7-90.5-101.5-8.6 133.8z"/><linearGradient id="aE" gradientUnits="userSpaceOnUse" x1="-271.531" y1="836.786" x2="-269.374" y2="834.63" gradientTransform="matrix(0 -62 208 0 -172279 -17283.5)"><stop offset="0" style="stop-color:#b5b5b5"/><stop offset="1" style="stop-color:#585858"/></linearGradient><path style="fill:url(#aE)" d="m1269.8-497.1 448.3-69.1-8.6 133.8z"/><linearGradient id="aF" gradientUnits="userSpaceOnUse" x1="-275.247" y1="862.181" x2="-273.088" y2="860.022" gradientTransform="matrix(0 -237 51 0 -42162.5 -65186.5)"><stop offset="0" style="stop-color:#565656"/><stop offset="1" style="stop-color:#373737"/></linearGradient><path style="fill:url(#aF)" d="m1698.7 46.9 109.9-511.6-99.1 32.3z"/><linearGradient id="aG" gradientUnits="userSpaceOnUse" x1="-272.676" y1="838.925" x2="-270.518" y2="836.767" gradientTransform="matrix(0 -231 149 0 -123466.5 -64098.5)"><stop offset="0" style="stop-color:#505050"/><stop offset="1" style="stop-color:#4a4a4a"/></linearGradient><path style="fill:url(#aG)" d="m1569.4-1166.4-321.2-92.8 116.4-405.8z"/><linearGradient id="aH" gradientUnits="userSpaceOnUse" x1="-272.378" y1="836.725" x2="-270.22" y2="834.567" gradientTransform="matrix(0 -231 211 0 -174717.5 -64098.5)"><stop offset="0" style="stop-color:#414141"/><stop offset="1" style="stop-color:#454545"/></linearGradient><path style="fill:url(#aH)" d="m1569.4-1166.4 250-325.9-454.8-172.7z"/><linearGradient id="aI" gradientUnits="userSpaceOnUse" x1="-272.183" y1="836.23" x2="-270.025" y2="834.073" gradientTransform="matrix(0 -251 198 0 -164158 -69641.5)"><stop offset="0" style="stop-color:#545454"/><stop offset="1" style="stop-color:#6a6a6a"/></linearGradient><path style="fill:url(#aI)" d="M1248.2-1259.2 937.9-1801l426.7 136z"/><linearGradient id="aJ" gradientUnits="userSpaceOnUse" x1="-271.744" y1="836.433" x2="-269.587" y2="834.276" gradientTransform="matrix(0 -220 211 0 -174717.5 -61224.5)"><stop offset="0" style="stop-color:#464646"/><stop offset="1" style="stop-color:#5c5c5c"/></linearGradient><path style="fill:url(#aJ)" d="m1819.4-1492.3-364.3-475-90.5 302.3z"/><linearGradient id="aK" gradientUnits="userSpaceOnUse" x1="-268.61" y1="835.111" x2="-266.453" y2="832.955" gradientTransform="matrix(0 -140 240 0 -198913 -39304.5)"><stop offset="0" style="stop-color:#616161"/><stop offset="1" style="stop-color:#666"/></linearGradient><path style="fill:url(#aK)" d="m937.9-1801 517.2-166.3-90.5 302.3z"/><linearGradient id="aL" gradientUnits="userSpaceOnUse" x1="-269.464" y1="834.744" x2="-267.307" y2="832.587" gradientTransform="matrix(0 -165 240 0 -198913 -46242.5)"><stop offset="0" style="stop-color:#474747"/><stop offset="1" style="stop-color:#404040"/></linearGradient><path style="fill:url(#aL)" d="m937.9-1801 517.2-166.3-118.5-189.9z"/><linearGradient id="aM" gradientUnits="userSpaceOnUse" x1="-269.058" y1="832.54" x2="-266.901" y2="830.383" gradientTransform="matrix(0 -165 390 0 -323243 -46242.5)"><stop offset="0" style="stop-color:#444"/><stop offset="1" style="stop-color:#3d3d3d"/></linearGradient><path style="fill:url(#aM)" d="M937.9-1801 496-2049.3l840.6-107.9z"/><linearGradient id="aN" gradientUnits="userSpaceOnUse" x1="-263.644" y1="833.721" x2="-261.488" y2="831.564" gradientTransform="matrix(0 -88 338 0 -279823 -25144.5)"><stop offset="0" style="stop-color:#525252"/><stop offset="1" style="stop-color:#404040"/></linearGradient><path style="fill:url(#aN)" d="m1455.1-1967.3 610-64.7-728.5-125.2z"/><linearGradient id="aO" gradientUnits="userSpaceOnUse" x1="-260.308" y1="831.861" x2="-258.152" y2="829.705" gradientTransform="matrix(0 -72 420 0 -348098 -20782.5)"><stop offset="0" style="stop-color:#3a3a3a"/><stop offset="1" style="stop-color:#353535"/></linearGradient><path style="fill:url(#aO)" d="m496-2049.3-64.6-155.4 905.2 47.5z"/><linearGradient id="aP" gradientUnits="userSpaceOnUse" x1="-279.152" y1="842.792" x2="-276.996" y2="840.635" gradientTransform="matrix(0 -215 105 0 -87071.5 -58452.5)"><stop offset="0" style="stop-color:#222"/><stop offset="1" style="stop-color:#363636"/></linearGradient><path style="fill:url(#aP)" d="m1215.9 1523.5 97-464.1 129.3 168.3z"/><linearGradient id="aQ" gradientUnits="userSpaceOnUse" x1="-281.847" y1="831.223" x2="-279.69" y2="829.067" gradientTransform="matrix(0 -147 592 0 -490520 -39606.5)"><stop offset="0" style="stop-color:#cacaca"/><stop offset="1" style="stop-color:#858585"/></linearGradient><path style="fill:url(#aQ)" d="m233.1 1622.8 625-101.5 650.9 317.4z"/><linearGradient id="aR" gradientUnits="userSpaceOnUse" x1="-281.504" y1="835.305" x2="-279.347" y2="833.148" gradientTransform="matrix(0 -152 236 0 -195574 -40981.5)"><stop offset="0" style="stop-color:#555"/><stop offset="1" style="stop-color:#6d6d6d"/></linearGradient><path style="fill:url(#aR)" d="m1215.9 1523.5-215.5-12.9 508.6 328.1z"/><linearGradient id="aS" gradientUnits="userSpaceOnUse" x1="-281.61" y1="833.757" x2="-279.453" y2="831.601" gradientTransform="matrix(0 -152 302 0 -250255 -40981.5)"><stop offset="0" style="stop-color:#a8a8a8"/><stop offset="1" style="stop-color:#747474"/></linearGradient><path style="fill:url(#aS)" d="m858.1 1521.3 142.3-10.7 508.6 328.1z"/><linearGradient id="aT" gradientUnits="userSpaceOnUse" x1="-286.082" y1="837.136" x2="-283.924" y2="834.979" gradientTransform="matrix(0 -95 199 0 -164720.5 -25306.5)"><stop offset="0" style="stop-color:#797979"/><stop offset="1" style="stop-color:#515151"/></linearGradient><path style="fill:url(#aT)" d="m1937.9 1821.4-273.7-187.8-155.2 205.1z"/><linearGradient id="aU" gradientUnits="userSpaceOnUse" x1="-402.53" y1="835.43" x2="-400.361" y2="833.261" gradientTransform="matrix(0 -8 270 0 -223473 -1381.5)"><stop offset="0" style="stop-color:#6a6a6a"/><stop offset="1" style="stop-color:#656565"/></linearGradient><path style="fill:url(#aU)" d="M1937.9 1821.4h153l-581.9 17.3z"/><linearGradient id="aV" gradientUnits="userSpaceOnUse" x1="-285.447" y1="830.457" x2="-283.29" y2="828.3" gradientTransform="matrix(0 -100 707 0 -585797.5 -26681.5)"><stop offset="0" style="stop-color:#bcbcbc"/><stop offset="1" style="stop-color:#a5a5a5"/></linearGradient><path style="fill:url(#aV)" d="m-14.8 1756.7 247.9-133.9L1509 1838.7z"/><linearGradient id="aW" gradientUnits="userSpaceOnUse" x1="-272.488" y1="832.972" x2="-270.33" y2="830.815" gradientTransform="matrix(0 -214 321 0 -266117.5 -59365.5)"><stop offset="0" style="stop-color:#3c3c3c"/><stop offset="1" style="stop-color:#505050"/></linearGradient><path style="fill:url(#aW)" d="m993.9-1041.1 254.3-218.1-691.8-243.9z"/><linearGradient id="aX" gradientUnits="userSpaceOnUse" x1="-272.604" y1="834.058" x2="-270.447" y2="831.901" gradientTransform="matrix(0 -214 228 0 -189185 -59365.5)"><stop offset="0" style="stop-color:#1e1e1e"/><stop offset="1" style="stop-color:#4a4a4a"/></linearGradient><path style="fill:url(#aX)" d="m993.9-1041.1-491.4-358.4 53.9-103.6z"/><linearGradient id="aY" gradientUnits="userSpaceOnUse" x1="-272.437" y1="832.917" x2="-270.281" y2="830.761" gradientTransform="matrix(0 -251 321 0 -266117.5 -69641.5)"><stop offset="0" style="stop-color:#505050"/><stop offset="1" style="stop-color:#646464"/></linearGradient><path style="fill:url(#aY)" d="M1248.2-1259.2 937.9-1801l-381.5 297.9z"/><linearGradient id="aZ" gradientUnits="userSpaceOnUse" x1="-264.44" y1="834.061" x2="-262.283" y2="831.904" gradientTransform="matrix(0 -70 199 0 -165361.5 -19931.5)"><stop offset="0" style="stop-color:#5f5f5f"/><stop offset="1" style="stop-color:#5c5c5c"/></linearGradient><path style="fill:url(#aZ)" d="m502.5-1399.5-375-151.1 428.9 47.5z"/><linearGradient id="ba" gradientUnits="userSpaceOnUse" x1="-268.622" y1="833.099" x2="-266.465" y2="830.942" gradientTransform="matrix(0 -114 209 0 -173646.5 -32079.5)"><stop offset="0" style="stop-color:#595959"/><stop offset="1" style="stop-color:#616161"/></linearGradient><path style="fill:url(#ba)" d="m127.5-1550.6-21.6-198.6 450.5 246.1z"/><linearGradient id="bb" gradientUnits="userSpaceOnUse" x1="-271.77" y1="833.678" x2="-269.614" y2="831.522" gradientTransform="matrix(0 -253 209 0 -173646.5 -70304.5)"><stop offset="0" style="stop-color:#4f4f4f"/><stop offset="1" style="stop-color:#565656"/></linearGradient><path style="fill:url(#bb)" d="M105.9-1749.2 496-2049.3l60.4 546.2z"/><linearGradient id="bc" gradientUnits="userSpaceOnUse" x1="-272.112" y1="834.43" x2="-269.956" y2="832.274" gradientTransform="matrix(0 -253 205 0 -170155.5 -70304.5)"><stop offset="0" style="stop-color:#5c5c5c"/><stop offset="1" style="stop-color:#5e5e5e"/></linearGradient><path style="fill:url(#bc)" d="M937.9-1801 496-2049.3l60.4 546.2z"/><linearGradient id="bd" gradientUnits="userSpaceOnUse" x1="-281.298" y1="841.147" x2="-279.141" y2="838.99" gradientTransform="matrix(0 -166 139 0 -115010.5 -44839.5)"><stop offset="0" style="stop-color:#616161"/><stop offset="1" style="stop-color:#707070"/></linearGradient><path style="fill:url(#bd)" d="m1937.9 1821.4-273.7-187.8-25.9-170.5z"/><linearGradient id="be" gradientUnits="userSpaceOnUse" x1="-281.271" y1="837.218" x2="-279.114" y2="835.061" gradientTransform="matrix(0 -166 210 0 -173763 -44839.5)"><stop offset="0" style="stop-color:#7f7f7f"/><stop offset="1" style="stop-color:#848484"/></linearGradient><path style="fill:url(#be)" d="M2090.9 1821.4h-153l-299.6-358.3z"/><linearGradient id="bf" gradientUnits="userSpaceOnUse" x1="-276.728" y1="835.674" x2="-274.572" y2="833.518" gradientTransform="matrix(0 -533 278 0 -230033 -145764.5)"><stop offset="0" style="stop-color:#989898"/><stop offset="1" style="stop-color:#8b8b8b"/></linearGradient><path style="fill:url(#bf)" d="m2090.9 1821.4 146.6-1150.6-599.2 792.3z"/><linearGradient id="bg" gradientUnits="userSpaceOnUse" x1="-279.165" y1="839.229" x2="-277.008" y2="837.071" gradientTransform="matrix(0 -152 112 0 -93127 -41343.5)"><stop offset="0" style="stop-color:#353535"/><stop offset="1" style="stop-color:#5f5f5f"/></linearGradient><path style="fill:url(#bg)" d="M890.5 1057.2 649.1 929.8l51.7-200.7z"/><linearGradient id="bh" gradientUnits="userSpaceOnUse" x1="-277.687" y1="840.487" x2="-275.53" y2="838.33" gradientTransform="matrix(0 -193 108 0 -89793 -52618.5)"><stop offset="0" style="stop-color:#333"/><stop offset="1" style="stop-color:#585858"/></linearGradient><path style="fill:url(#bh)" d="m890.5 1057.2 43.1-416.6-232.8 88.5z"/><linearGradient id="bi" gradientUnits="userSpaceOnUse" x1="-279.027" y1="833.033" x2="-276.868" y2="830.873" gradientTransform="matrix(0 -148 248 0 -205891 -40247.5)"><stop offset="0" style="stop-color:#545454"/><stop offset="1" style="stop-color:#696969"/></linearGradient><path style="fill:url(#bi)" d="m166.3 1048.6 482.8-118.8 51.7-200.7z"/><linearGradient id="bj" gradientUnits="userSpaceOnUse" x1="-277.026" y1="832.722" x2="-274.869" y2="830.566" gradientTransform="matrix(0 -347 248 0 -205891 -94972.5)"><stop offset="0" style="stop-color:#636363"/><stop offset="1" style="stop-color:#848484"/></linearGradient><path style="fill:url(#bj)" d="M166.3 1048.6 343 299.5l357.8 429.6z"/><linearGradient id="bk" gradientUnits="userSpaceOnUse" x1="-277.132" y1="839.647" x2="-274.975" y2="837.49" gradientTransform="matrix(0 -247 108 0 -89793 -67620.5)"><stop offset="0" style="stop-color:#414141"/><stop offset="1" style="stop-color:#5c5c5c"/></linearGradient><path style="fill:url(#bk)" d="M933.6 640.6 754.7 195.8l-53.9 533.3z"/><linearGradient id="bl" gradientUnits="userSpaceOnUse" x1="-276.283" y1="834.971" x2="-274.126" y2="832.814" gradientTransform="matrix(0 -247 191 0 -158641.5 -67620.5)"><stop offset="0" style="stop-color:#787878"/><stop offset="1" style="stop-color:#6b6b6b"/></linearGradient><path style="fill:url(#bl)" d="m343 299.5 411.7-103.7-53.9 533.3z"/><linearGradient id="bm" gradientUnits="userSpaceOnUse" x1="-278.838" y1="846.306" x2="-276.68" y2="844.149" gradientTransform="matrix(0 -217 91 0 -75381.5 -59030.5)"><stop offset="0" style="stop-color:#6a6a6a"/><stop offset="1" style="stop-color:#232323"/></linearGradient><path style="fill:url(#bm)" d="m1638.3 1463.1-196.1-235.4 73.3-233.1z"/><linearGradient id="bn" gradientUnits="userSpaceOnUse" x1="-277.139" y1="834.407" x2="-274.981" y2="832.249" gradientTransform="matrix(0 -367 335 0 -277257.5 -100280.5)"><stop offset="0" style="stop-color:#bababa"/><stop offset="1" style="stop-color:#626262"/></linearGradient><path style="fill:url(#bn)" d="m1638.3 1463.1 599.2-792.3-722 323.8z"/><linearGradient id="bo" gradientUnits="userSpaceOnUse" x1="-281.065" y1="845.446" x2="-278.908" y2="843.289" gradientTransform="matrix(0 -108 94 0 -77924 -29164.5)"><stop offset="0" style="stop-color:#303030"/><stop offset="1" style="stop-color:#333"/></linearGradient><path style="fill:url(#bo)" d="m1442.2 1227.7-129.3-168.3 202.6-64.8z"/><linearGradient id="bp" gradientUnits="userSpaceOnUse" x1="-278.639" y1="844.941" x2="-276.481" y2="842.783" gradientTransform="matrix(0 -173 94 0 -77924 -47117.5)"><stop offset="0" style="stop-color:#3f3f3f"/><stop offset="1" style="stop-color:#242424"/></linearGradient><path style="fill:url(#bp)" d="m1312.9 1059.4 142.2-373.5 60.4 308.7z"/><linearGradient id="bq" gradientUnits="userSpaceOnUse" x1="-277.808" y1="836.937" x2="-275.65" y2="834.779" gradientTransform="matrix(0 -197 212 0 -175503 -53747.5)"><stop offset="0" style="stop-color:#202020"/><stop offset="1" style="stop-color:#202020"/></linearGradient><path style="fill:url(#bq)" d="M1455.1 685.9 1912 569.3l-396.5 425.3z"/><linearGradient id="br" gradientUnits="userSpaceOnUse" x1="-278.006" y1="834.185" x2="-275.849" y2="832.028" gradientTransform="matrix(0 -197 335 0 -277257.5 -53747.5)"><stop offset="0" style="stop-color:#2f2f2f"/><stop offset="1" style="stop-color:#161616"/></linearGradient><path style="fill:url(#br)" d="M2237.5 670.8 1912 569.3l-396.5 425.3z"/><linearGradient id="bs" gradientUnits="userSpaceOnUse" x1="-274.727" y1="843.606" x2="-272.57" y2="841.449" gradientTransform="matrix(0 -203 97 0 -80515.5 -55885.5)"><stop offset="0" style="stop-color:#888"/><stop offset="1" style="stop-color:#848484"/></linearGradient><path style="fill:url(#bs)" d="m1078-322.3 191.8-174.8L1287-58.9z"/><linearGradient id="bt" gradientUnits="userSpaceOnUse" x1="-275.064" y1="836.6" x2="-272.909" y2="834.444" gradientTransform="matrix(0 -203 204 0 -168969 -55885.5)"><stop offset="0" style="stop-color:#7a7a7a"/><stop offset="1" style="stop-color:#9e9e9e"/></linearGradient><path style="fill:url(#bt)" d="m1709.5-432.4-439.7-64.7L1287-58.9z"/><linearGradient id="bu" gradientUnits="userSpaceOnUse" x1="-276.066" y1="846.136" x2="-273.91" y2="843.98" gradientTransform="matrix(0 -264 82 0 -68088 -72396.5)"><stop offset="0" style="stop-color:#535353"/><stop offset="1" style="stop-color:#424242"/></linearGradient><path style="fill:url(#bu)" d="m1287 511-176.7-103.6L1287-58.9z"/><linearGradient id="bv" gradientUnits="userSpaceOnUse" x1="-276.263" y1="837.084" x2="-274.107" y2="834.928" gradientTransform="matrix(0 -264 191 0 -158203.5 -72396.5)"><stop offset="0" style="stop-color:#525252"/><stop offset="1" style="stop-color:#4a4a4a"/></linearGradient><path style="fill:url(#bv)" d="m1287 511 411.7-464.1L1287-58.9z"/><linearGradient id="bw" gradientUnits="userSpaceOnUse" x1="-276.168" y1="846.04" x2="-274.008" y2="843.88" gradientTransform="matrix(0 -216 82 0 -68088 -59244.5)"><stop offset="0" style="stop-color:#3f3f3f"/><stop offset="1" style="stop-color:#444"/></linearGradient><path style="fill:url(#bw)" d="m1110.3 407.4 36.6-436.1L1287-58.9z"/><linearGradient id="bx" gradientUnits="userSpaceOnUse" x1="-275.143" y1="837.112" x2="-272.987" y2="834.956" gradientTransform="matrix(0 -222 196 0 -162341 -61061.5)"><stop offset="0" style="stop-color:#515151"/><stop offset="1" style="stop-color:#3e3e3e"/></linearGradient><path style="fill:url(#bx)" d="m1698.7 46.9 10.8-479.3L1287-58.9z"/><linearGradient id="by" gradientUnits="userSpaceOnUse" x1="-275.437" y1="843.019" x2="-273.28" y2="840.862" gradientTransform="matrix(0 -136 97 0 -80515.5 -37446.5)"><stop offset="0" style="stop-color:#818181"/><stop offset="1" style="stop-color:#888"/></linearGradient><path style="fill:url(#by)" d="M1146.9-28.7 1078-322.3l209 263.4z"/><linearGradient id="bz" gradientUnits="userSpaceOnUse" x1="-286.6" y1="850.585" x2="-284.442" y2="848.427" gradientTransform="matrix(0 -79 74 0 -61285 -21001.5)"><stop offset="0" style="stop-color:#5f5f5f"/><stop offset="1" style="stop-color:#979797"/></linearGradient><path style="fill:url(#bz)" d="m1664.2 1633.6-25.9-170.5-133.6 168.3z"/><linearGradient id="bA" gradientUnits="userSpaceOnUse" x1="-279.832" y1="840.131" x2="-277.676" y2="837.975" gradientTransform="matrix(0 -187 134 0 -111069 -50702.5)"><stop offset="0" style="stop-color:#6a6a6a"/><stop offset="1" style="stop-color:#7d7d7d"/></linearGradient><path style="fill:url(#bA)" d="m1215.9 1523.5 226.3-295.8 62.5 403.7z"/><linearGradient id="bB" gradientUnits="userSpaceOnUse" x1="-280.002" y1="846.229" x2="-277.846" y2="844.073" gradientTransform="matrix(0 -187 91 0 -75381.5 -50702.5)"><stop offset="0" style="stop-color:#bcbcbc"/><stop offset="1" style="stop-color:#7b7b7b"/></linearGradient><path style="fill:url(#bB)" d="m1638.3 1463.1-196.1-235.4 62.5 403.7z"/><linearGradient id="bC" gradientUnits="userSpaceOnUse" x1="-285.619" y1="850.676" x2="-283.46" y2="848.518" gradientTransform="matrix(0 -96 74 0 -61285 -25581.5)"><stop offset="0" style="stop-color:#313131"/><stop offset="1" style="stop-color:#525252"/></linearGradient><path style="fill:url(#bC)" d="m1509 1838.7 155.2-205.1-159.5-2.2z"/><linearGradient id="bD" gradientUnits="userSpaceOnUse" x1="-281.641" y1="840.295" x2="-279.484" y2="838.139" gradientTransform="matrix(0 -146 136 0 -112724 -39331.5)"><stop offset="0" style="stop-color:#575757"/><stop offset="1" style="stop-color:#5f5f5f"/></linearGradient><path style="fill:url(#bD)" d="m1509 1838.7-293.1-315.2 288.8 107.9z"/><linearGradient id="bE" gradientUnits="userSpaceOnUse" x1="-271.658" y1="841.672" x2="-269.5" y2="839.514" gradientTransform="rotate(-90 -81210 40296.5) scale(147)"><stop offset="0" style="stop-color:#454545"/><stop offset="1" style="stop-color:#444"/></linearGradient><path style="fill:url(#bE)" d="m1905.6-982.9 316.8-19.4-12.9-297.9z"/><linearGradient id="bF" gradientUnits="userSpaceOnUse" x1="-272.988" y1="839.092" x2="-270.832" y2="836.936" gradientTransform="matrix(0 -236 181 0 -149681.5 -65388.5)"><stop offset="0" style="stop-color:#3c3c3c"/><stop offset="1" style="stop-color:#393939"/></linearGradient><path style="fill:url(#bF)" d="m1905.6-982.9-86.2-509.4 390.1 192.1z"/><linearGradient id="bG" gradientUnits="userSpaceOnUse" x1="-271.828" y1="839.327" x2="-269.672" y2="837.171" gradientTransform="matrix(0 -220 181 0 -149681.5 -61135.5)"><stop offset="0" style="stop-color:#383838"/><stop offset="1" style="stop-color:#3c3c3c"/></linearGradient><path style="fill:url(#bG)" d="m1819.4-1492.3 340.5-282.8 49.6 474.9z"/><linearGradient id="bH" gradientUnits="userSpaceOnUse" x1="-272.808" y1="912.575" x2="-270.651" y2="910.419" gradientTransform="matrix(0 -311 23 0 -18778.5 -86160.5)"><stop offset="0" style="stop-color:#4c4c4c"/><stop offset="1" style="stop-color:#505050"/></linearGradient><path style="fill:url(#bH)" d="m2159.9-1775.1 19.4-196.5 30.2 671.4z"/></g></g></svg>