<svg version="1.1" id="Layer_1" xmlns="http://www.w3.org/2000/svg" x="0" y="0" viewBox="0 0 454.1 102.2" style="enable-background:new 0 0 454.1 102.2" xml:space="preserve"><style>.st1{fill:#fff}.st2{fill:#0682b4}.st3{fill:#31b7e9}</style><path d="M111 72h1.5l3 13.1L120 72h1l4.6 12.9 3.2-12.9h1.4l-3.7 14.9H125l-4.5-12.8-4.4 12.8h-1.6L111 72zm31 6.4h9.7c0-3.4-1.6-5.2-4.5-5.2-3.4.1-5.1 1.8-5.2 5.2m5.1-6.4c3.9 0 5.9 2.2 5.9 6.6v1h-11c0 3.8 1.9 5.8 5.9 5.8 1.6 0 3.1-.2 4.3-.6v1.3c-1.3.4-2.7.6-4.3.6-4.8 0-7.5-2.5-7.5-7.7.2-4.7 2.4-7 6.7-7m18.8 13.2c1.5.2 2.8.4 3.9.4 3.7 0 5.5-2.1 5.5-6.4 0-3.7-1.7-5.5-5.1-5.5-1.4 0-2.8.2-4.4.7l.1 10.8zm-1.4-18.5h1.5v6.1c1.7-.4 3.2-.6 4.4-.6 4.3 0 6.4 2.3 6.4 7.2 0 5.1-2.2 7.8-6.7 7.8-2 0-3.8-.2-5.5-.5l-.1-20zm48.9 19.7c-1.2.2-2.5.4-3.8.4-4.8 0-7.4-2.6-7.4-7.8 0-4.7 2.3-7.2 7.4-7.2 1.4 0 2.6.1 3.8.4v1.3c-1.3-.2-2.5-.4-3.6-.4-3.8 0-5.8 1.9-5.8 5.9 0 4.3 1.9 6.4 5.8 6.4 1.2 0 2.3-.1 3.6-.4v1.4zm17-.6c3.5 0 5.2-2.1 5.2-6.3s-1.7-6.2-5.2-6.2-5.2 2-5.2 6.2c0 4.1 1.8 6.3 5.2 6.3m-6.6-6.3c0-4.9 2.2-7.7 6.6-7.7 4.4 0 6.6 2.5 6.6 7.7 0 4.9-2.2 7.7-6.6 7.7-4.4-.3-6.6-2.7-6.6-7.7m25 7.3V72h1l.2 1.9c1.8-1.3 3.6-1.9 5.3-1.9 3.5 0 5.2 1.6 5.2 4.6v10.3H259V76.6c0-2.1-1.3-3.3-3.8-3.3-1.7 0-3.4.6-5.1 1.9V87l-1.3-.2zm23.8-17.1h1l.2 2.3h4.3v1.3H274v9.6c0 1.9.6 2.9 2 2.9h2.1v1.3h-2c-2.3 0-3.5-1.4-3.5-3.9V69.7zm16.5 17.1V72h1.1l.2 2.5c1.5-1.6 3.1-2.5 4.7-2.5v1.2c-1.7 0-3.3.9-4.5 2.6V87l-1.5-.2zm22.6-1c3.5 0 5.2-2.1 5.2-6.3s-1.7-6.2-5.2-6.2-5.2 2-5.2 6.2c-.2 4.1 1.5 6.3 5.2 6.3m-6.9-6.3c0-4.9 2.2-7.7 6.6-7.7s6.6 2.5 6.6 7.7c0 4.9-2.2 7.7-6.6 7.7-4.2-.3-6.6-2.7-6.6-7.7m26.6 7.3h-1.5V66.6h1.5v20.2zm28.5-2.1c1.5.5 2.8.7 3.9.7 3.7 0 5.5-2.1 5.5-6.3 0-3.7-1.8-5.7-5.5-5.7-1.3 0-2.6.1-3.9.3v11zm-1.4-12.2c1.6-.4 3.5-.5 5.4-.5 4.6 0 6.8 2.3 6.8 6.9 0 5.2-2.2 7.9-6.8 7.9-1.2 0-2.5-.2-3.9-.6v6.1h-1.5V72.5zm28.9 7c-2.8 0-4.2 1-4.2 3 0 1.9 1.2 2.9 3.5 2.9 1.7 0 3.4-.4 4.9-1.5v-4.1c-1.6-.2-3-.3-4.2-.3m-5.8 3.2c0-2.9 1.9-4.4 5.7-4.4 1.4 0 2.7.1 4.3.2v-1.8c0-2.2-1.4-3.4-4.1-3.4-1.6 0-3.2.2-4.6.6v-1.4c1.6-.4 3.1-.6 4.6-.6 3.7 0 5.5 1.6 5.5 4.6v10.3h-.9l-.3-1.5c-1.8 1.1-3.5 1.5-5.2 1.5-3.4 0-5-1.3-5-4.1m23.5 4.1V72h1l.2 1.9c1.8-1.3 3.6-1.9 5.3-1.9 3.5 0 5.2 1.6 5.2 4.6v10.3h-1.5V76.6c0-2.1-1.3-3.3-3.8-3.3-1.7 0-3.4.6-5.1 1.9V87l-1.3-.2zm24.8-8.4h9.7c-.1-3.4-1.6-5.2-4.5-5.2-3.4.1-5 1.8-5.2 5.2M435 72c3.9 0 5.9 2.2 5.9 6.6v1h-11c0 3.8 2 5.8 5.9 5.8 1.6 0 3.1-.2 4.3-.6v1.3c-1.3.4-2.7.6-4.3.6-4.8 0-7.5-2.5-7.5-7.7.2-4.7 2.4-7 6.7-7m19 14.8h-1.5V66.6h1.5v20.2z" style="fill:#fff"/><path class="st1" d="M136.9 43.3V26.6c0-2-.7-3.3-2.3-4-1.5-.6-3.8-1.2-6.9-1.2h-7.1v26.5h6.8c3.6 0 6.1-.2 7.6-.7 1.2-.5 1.9-1.9 1.9-3.9m9.4-16.5v16.5c0 4.5-1.4 7.8-4 9.3-2.7 1.6-7.7 2.4-14.5 2.4h-16.7V14.5h16.6c6.6 0 11.4.7 14.3 2.6 2.8 1.7 4.3 5 4.3 9.7m16.5 28.1H154v-30h8.8v30zm0-33.6H154v-7.2h8.8v7.2zm27.3 10.4H187c-2.4 0-4.2.3-5.4 1.2-1.3.7-1.9 2.1-1.9 3.9v18.1h-8.8v-30h8.4v5.2c0-1.5.9-2.8 2.4-4 1.6-1.2 3.4-1.9 5-1.9h3.2l.2 7.5zm23.6 5.4v-4.3c0-.9-.3-1.6-1.2-2.2-.6-.4-2.1-.7-3.9-.7-2.1 0-3.6.2-4.3.7-.6.4-1.2 1.3-1.2 2.2v4.3h10.6zm8.4 5.2h-18.9V45c0 1.7.5 2.9 1.7 3.7 1.2.9 3.4 1.2 6.5 1.2 2.9 0 6.2-.4 9.9-1.3v5.9c-3.7.7-7.7 1.2-11.4 1.2-10.4 0-15.4-3.3-15.4-9.9V35c0-3.8 1.2-6.6 3.6-8.3 2.4-1.6 6.1-2.4 10.9-2.4 4.5 0 8 .7 10.1 2.3 2.2 1.5 3.3 4.3 3.3 8.4l-.3 7.3zm31.1 12.2c-3.5.6-6.8 1-10 1-1.5 0-2.7 0-3.6-.1-.9 0-2-.1-3.4-.3s-2.4-.4-3.3-.9c-.7-.4-1.6-1.1-2.4-1.7-.7-.6-1.4-1.7-1.9-2.9-.3-1.2-.5-2.7-.5-4.3V35.2c0-1.5.1-2.8.4-3.9.3-1.2.7-2.1 1.3-2.8.4-.7 1.2-1.4 2.1-2 .9-.5 1.7-.9 2.4-1.2.7-.2 1.7-.4 3-.6 1.3-.1 2.2-.2 3-.2h3.3c2.2 0 5 .3 8.8 1.2v6c-4.2-1.1-7.2-1.5-9.7-1.5-4 0-6.1 1.4-6.1 4.2v10.8c0 3.1 2.2 4.7 6.6 4.7 2.1 0 5.1-.4 9.4-1.4l.6 6zm24.7.7c-1.7.2-3.4.3-4.8.3s-2.6 0-3.6-.1-2.1-.3-3.2-.6c-1-.3-2-.9-2.7-1.5-.6-.6-1.3-1.5-1.7-2.7-.4-1.2-.6-2.6-.6-4.2v-16h-6v-5.6h6V16h8.8v8.7h8.1v5.6h-8.1v14.2c0 2.1.3 3.5.9 4.2s2 1 3.9 1c.6 0 1.7-.1 3.2-.3l-.2 5.8zM308.7 39.1l-4.5-14.2h-.2l-4.5 14.2h9.2zm14.3 16h-9l-3.3-10h-13.5l-3.3 10h-8.6l13.6-37.7h10.7L323 55.1zm22.8-8.5V35.3c0-1.4-.3-2.4-1.1-2.9-.7-.5-2.3-.7-4.6-.7-2.5 0-4 .2-4.6.7-.5.5-.8 1.6-.8 3.3v10.7c0 1.5.3 2.6.8 3.2s2 .8 4.2.8c2.7 0 4.3-.2 5.1-.7.6-.6 1-1.6 1-3.1m8.2 8.5h-8v-3.2c-.6 1.1-1.2 1.9-1.7 2.3s-1.3.8-2.4 1.1c-1.1.2-2.5.3-4.4.3-4.6 0-7.8-.6-9.3-1.9-1.4-1.2-2.2-3.8-2.2-8V34.9c0-3.2.8-5.3 2.6-6.6 1.7-1.2 4.4-1.9 8.3-1.9 2.7 0 4.5.2 5.7.7 1.1.5 2.1 1.5 3.1 3V14.4h8.3v40.7zm49.9 0h-8.3V35.6c0-1.7-.2-2.8-.5-3.3-.4-.4-1.5-.7-3.3-.7-2.3 0-3.6.2-4.1.7-.5.4-.7 1.5-.7 3.3V55h-8.3V35.6c0-1.7-.2-2.8-.5-3.3-.4-.4-1.5-.7-3.3-.7-2.3 0-3.6.2-4.1.7-.5.4-.7 1.5-.7 3.3V55h-8.3V27h8.3v3.4c.5-2.6 3.3-4 8.1-4 2.6 0 4.5.3 5.9 1.1 1.3.6 2.2 1.7 2.6 3.2.4-1.4 1.3-2.5 2.6-3.2 1.3-.6 3.3-1 6-1 3.6 0 6 .6 7.2 2s1.7 3.4 1.7 6.1l-.3 20.5zm15.9 0h-8.3V27h8.3v28.1zm0-31.4h-8.3v-6.9h8.3v6.9zm34 31.4h-8.3V35.6c0-1.5-.2-2.6-.7-3.2-.5-.5-1.7-.7-3.6-.7-2.4 0-3.9.2-4.4.7-.6.5-.9 1.5-.9 3.2v19.5h-8.3V27h8.2v3.4c.6-2.6 3.6-4 8.7-4 3.6 0 6.1.6 7.5 2 1.3 1.3 2.1 3.4 2.1 6.1l-.3 20.6z"/><path class="st2" d="M88 52.6 38.4 3 24.2 17.2l35.5 35.4L24.3 88l14.1 14.2z"/><path class="st3" d="M85 49.6 35.4 0 21.2 14.2l35.5 35.4L21.3 85l14.1 14.2z"/><path class="st2" d="m10.6 74.4 3.6 3.6 28.3-28.4-3.8-3.8"/><path class="st3" d="M38.7 45.9 14.2 21.3 0 35.4l14.2 14.2L0 63.8l10.6 10.6"/></svg>